<svg id="fantasyMap" width="1920" height="937" version="1.1" xmlns="http://www.w3.org/2000/svg" xmlns:xlink="http://www.w3.org/1999/xlink" xmlns:dc="http://purl.org/dc/elements/1.1/" xmlns:rdf="http://www.w3.org/1999/02/22-rdf-syntax-ns#" xmlns:svg="http://www.w3.org/2000/svg" background-color="#000000">
    <path id="state10" d="M802,672L802,674L800,675L797,674L797,671L799,670L802,672M796,680L794,679L794,680L792,680L790,682L790,687L790,688L791,691L788,695L787,698L785,699L784,703L785,704L783,707L779,710L779,711L776,712L773,714L775,718L773,719L768,717L766,721L768,725L770,726L768,729L767,731L769,737L766,738L766,745L761,744L760,745L755,742L753,744L749,745L748,748L743,748L743,749L737,748L736,748L736,754L734,755L732,759L733,760L732,765L727,767L727,768L731,771L730,775L730,778L731,779L731,784L725,785L725,790L719,791L718,792L713,791L712,792L711,798L711,798L711,800L714,805L713,806L713,806L719,813L719,813L722,817L721,818L716,822L719,826L721,827L723,827L727,834L726,834L723,841L725,844L727,844L727,844L730,845L731,846L732,851L730,853L731,856L733,858L737,858L738,861L737,863L731,866L731,867L737,869L736,872L739,875L741,875L742,876L742,881L742,882L743,886L747,887L748,888L749,892L751,893L750,896L749,898L750,904L753,904L755,911L756,911L759,910L762,914L763,914L764,916L764,919L761,921L764,924L766,924L767,921L769,920L770,918L773,916L773,915L774,914L774,912L775,911L779,912L781,911L781,910L783,908L783,907L784,904L786,904L789,906L790,906L791,904L790,902L792,899L794,899L794,899L798,897L799,895L801,895L803,895L803,900L803,900L800,901L799,903L797,904L797,906L796,908L793,909L796,914L795,915L796,918L798,919L801,919L803,913L803,913L803,913L803,910L804,907L808,908L809,910L812,910L813,912L816,913L817,911L817,909L819,905L819,905L823,904L823,904L827,904L828,904L828,907L825,909L825,911L825,912L828,915L829,915L831,917L832,917L834,915L835,910L838,912L838,914L838,915L839,917L839,920L839,920L839,925L838,925L839,929L840,929L840,934L837,937L839,940L849,937L851,939L858,936L862,937L863,939L872,937L876,940L883,937L882,933L883,932L882,929L883,927L882,924L882,922L882,921L883,919L882,917L882,916L882,915L879,913L881,909L881,909L880,908L877,906L876,907L873,907L872,907L869,905L867,906L865,903L863,903L862,900L859,900L859,900L855,899L855,899L852,898L850,899L852,904L852,905L852,908L854,909L855,909L857,914L859,914L861,916L861,917L863,919L864,919L866,916L868,917L871,916L872,917L873,917L876,920L876,922L876,922L876,925L875,926L875,927L876,927L875,932L872,936L869,931L870,929L869,928L869,925L866,924L866,924L863,927L862,927L859,925L860,924L858,920L857,920L855,916L854,916L852,913L849,913L849,912L847,911L843,912L843,911L840,910L839,909L842,907L843,907L845,905L846,903L846,903L847,900L847,899L848,894L850,894L852,895L854,894L857,895L859,894L861,894L861,894L862,892L868,891L868,891L872,890L873,889L875,889L876,888L878,888L880,889L880,892L885,893L887,893L887,893L889,893L890,894L890,894L893,893L895,893L896,892L900,893L901,893L903,895L903,895L906,897L906,898L910,900L912,898L915,900L916,899L917,900L920,900L920,900L921,900L924,898L926,900L927,896L928,896L930,893L931,893L935,890L936,890L938,888L938,887L939,887L940,888L943,886L947,888L947,889L951,890L952,893L952,894L954,896L955,896L956,899L959,900L960,899L961,897L962,896L962,894L964,891L966,895L965,897L966,900L969,900L970,900L971,900L973,902L973,905L971,908L971,909L973,911L974,911L977,910L978,907L980,907L984,909L983,911L986,913L987,913L988,915L991,916L992,918L993,918L995,920L994,923L992,924L991,924L988,925L988,925L987,925L985,927L983,928L982,932L978,930L975,931L975,931L974,931L971,932L967,937L973,941L976,938L984,938L985,938L989,936L991,937L996,941L1002,936L1009,940L1011,938L1020,939L1020,939L1027,938L1027,932L1027,932L1027,929L1027,928L1027,928L1024,925L1023,924L1021,923L1017,922L1016,922L1016,923L1012,925L1009,924L1009,924L1005,924L1004,923L1003,923L1000,921L1000,918L1001,918L1005,918L1005,918L1008,917L1010,916L1010,914L1008,911L1008,910L1006,908L1008,905L1011,904L1013,901L1011,899L1009,898L1008,898L1006,898L1004,898L1003,898L1001,896L1001,896L1001,893L1004,892L1005,893L1009,892L1009,891L1011,890L1012,891L1013,892L1016,895L1017,895L1018,895L1020,894L1020,894L1024,891L1024,889L1023,887L1024,885L1024,885L1024,882L1026,881L1028,881L1029,878L1031,878L1032,876L1035,876L1036,875L1038,876L1039,876L1041,873L1041,873L1043,871L1044,870L1046,870L1048,869L1050,868L1052,864L1054,863L1054,861L1054,861L1055,861L1056,858L1054,854L1057,853L1058,851L1062,851L1062,851L1065,850L1066,847L1066,847L1072,845L1070,841L1070,841L1068,839L1069,836L1072,834L1074,836L1076,835L1079,837L1080,837L1080,837L1081,840L1081,842L1080,843L1080,846L1079,848L1079,850L1080,851L1084,850L1084,848L1087,846L1088,847L1089,847L1092,846L1094,847L1096,845L1097,844L1096,841L1097,839L1097,838L1101,837L1103,838L1105,839L1108,834L1107,832L1105,831L1104,828L1104,825L1103,823L1104,821L1105,818L1099,815L1098,812L1098,811L1098,807L1091,804L1091,799L1091,798L1086,797L1084,797L1084,792L1078,791L1078,786L1074,784L1072,780L1068,780L1065,777L1061,778L1060,775L1059,773L1056,773L1055,768L1052,767L1048,769L1044,765L1044,762L1041,761L1040,757L1037,755L1032,757L1033,752L1030,749L1034,744L1029,743L1029,739L1025,737L1025,734L1026,732L1026,729L1032,726L1032,724L1031,722L1029,721L1026,719L1026,717L1029,715L1026,713L1026,711L1024,709L1022,709L1021,709L1020,706L1021,704L1020,700L1018,700L1016,701L1013,699L1015,697L1013,695L1011,696L1010,695L1007,696L1007,695L1003,695L1003,695L1000,695L1000,695L996,695L996,695L993,695L993,695L989,696L988,695L986,695L985,696L983,697L981,697L979,695L977,696L974,694L971,696L969,695L968,695L966,694L965,691L962,690L961,690L960,689L958,690L955,689L953,690L953,692L952,693L952,696L950,698L948,699L949,700L947,704L947,704L947,705L944,707L944,708L942,709L942,709L938,711L936,710L934,712L934,715L935,717L935,720L937,722L937,725L935,726L932,725L932,721L930,720L929,716L927,715L926,715L924,717L924,717L920,721L918,721L917,721L914,722L911,720L910,720L908,719L908,718L905,716L904,715L902,714L901,714L898,712L896,713L893,712L892,710L891,709L889,709L886,712L884,713L882,712L882,712L880,711L878,709L876,709L873,706L873,706L874,705L873,701L873,701L871,699L870,697L871,695L874,693L874,691L870,689L870,686L868,685L868,682L868,681L867,680L864,678L862,679L861,681L858,683L858,683L855,683L854,683L853,683L852,685L853,690L852,691L851,691L848,687L846,689L846,692L844,695L843,695L841,696L839,695L834,695L833,697L833,697L831,700L831,700L829,700L828,700L827,696L828,693L830,693L832,691L834,691L834,690L837,690L837,690L841,689L842,687L842,687L838,684L836,684L835,683L834,684L832,683L831,683L828,682L827,682L825,681L821,683L821,683L819,684L818,684L815,685L812,684L812,684L809,683L808,682L806,681L804,683L802,682L801,683L799,683L796,680M1076,859L1078,859L1079,865L1078,865L1077,865L1074,863L1074,862L1076,859M892,911L896,914L891,916L890,916L889,914L892,911L892,911M962,911L961,910L958,913L958,915L959,917L960,917L962,917L963,917L964,915L964,913L962,911M1015,909L1014,909L1012,912L1015,915L1015,916L1018,917L1018,917L1022,918L1023,919L1023,918L1025,916L1029,918L1030,917L1035,917L1035,917L1039,915L1040,914L1040,912L1038,911L1034,912L1033,911L1029,914L1028,913L1026,913L1024,912L1022,913L1021,912L1020,912L1017,911L1015,909" fill="#adcf29" stroke="none"/>
</svg>