<?xml version='1.0' encoding='UTF-8' standalone='no'?>
<svg height="209.973mm" width="296.926mm" viewBox="0 0 3507 2480" xmlns:xlink="http://www.w3.org/1999/xlink" xmlns:inkscape="http://www.inkscape.org/namespaces/inkscape" xmlns="http://www.w3.org/2000/svg" version="1.2" baseProfile="tiny">
 <defs/>
 <g stroke-linejoin="bevel" inkscape:label="Page" inkscape:groupmode="layer" fill="none" stroke="black" fill-rule="evenodd" stroke-width="1" stroke-linecap="square" id="Page">
  <g stroke-linejoin="bevel" transform="matrix(1,0,0,1,0,0)" font-weight="400" font-style="normal" fill="none" stroke="#000000" stroke-width="1" stroke-linecap="square" font-size="32.5" font-family="MS Shell Dlg 2" stroke-opacity="1"/>
  <g stroke-linejoin="bevel" transform="matrix(1,0,0,1,0,0)" font-weight="400" font-style="normal" fill="none" stroke="#000000" stroke-width="1" stroke-linecap="square" font-size="32.5" font-family="MS Shell Dlg 2" stroke-opacity="1"/>
  <g stroke-linejoin="bevel" transform="matrix(11.8081,0,0,11.8081,0,0)" font-weight="400" font-style="normal" fill="none" stroke="#000000" stroke-width="1" stroke-linecap="square" font-size="32.5" font-family="MS Shell Dlg 2" stroke-opacity="1"/>
  <g stroke-linejoin="bevel" transform="matrix(0.999751,0,0,0.999751,0,0)" font-weight="400" font-style="normal" fill="none" stroke="#000000" stroke-width="1" stroke-linecap="square" font-size="32.5" font-family="MS Shell Dlg 2" stroke-opacity="1"/>
  <g transform="matrix(0.999751,0,0,0.999751,0,0)" font-weight="400" font-style="normal" fill="#ffffff" stroke="none" fill-opacity="1" font-size="32.5" font-family="MS Shell Dlg 2">
   <path fill-rule="evenodd" d="M-2,-2 L3510,-2 L3510,2483 L-2,2483 L-2,-2" vector-effect="none"/>
  </g>
  <g stroke-linejoin="bevel" transform="matrix(0.999751,0,0,0.999751,0,0)" font-weight="400" font-style="normal" fill="none" stroke="#000000" stroke-width="1" stroke-linecap="square" font-size="32.5" font-family="MS Shell Dlg 2" stroke-opacity="1"/>
  <g stroke-linejoin="bevel" transform="matrix(11.8081,0,0,11.8081,0,0)" font-weight="400" font-style="normal" fill="none" stroke="#000000" stroke-width="1" stroke-linecap="square" font-size="32.5" font-family="MS Shell Dlg 2" stroke-opacity="1"/>
  <g stroke-linejoin="bevel" transform="matrix(11.8081,0,0,11.8081,0,0)" font-weight="400" font-style="normal" fill="none" stroke="#000000" stroke-width="1" stroke-linecap="square" font-size="32.5" font-family="MS Shell Dlg 2" stroke-opacity="1"/>
  <g stroke-linejoin="bevel" transform="matrix(1,0,0,1,0,0)" font-weight="400" font-style="normal" fill="none" stroke="#000000" stroke-width="1" stroke-linecap="square" font-size="32.5" font-family="MS Shell Dlg 2" stroke-opacity="1"/>
 </g>
 <defs/>
 <g stroke-linejoin="bevel" inkscape:label="Map 1: Background" inkscape:groupmode="layer" fill="none" stroke="black" fill-rule="evenodd" stroke-width="1" stroke-linecap="square" id="Map 1: Background">
  <g stroke-linejoin="bevel" transform="matrix(1,0,0,1,0,0)" font-weight="400" font-style="normal" fill="none" stroke="#000000" stroke-width="1" stroke-linecap="square" font-size="32.5" font-family="MS Shell Dlg 2" stroke-opacity="1"/>
  <g stroke-linejoin="bevel" transform="matrix(1,0,0,1,0,0)" font-weight="400" font-style="normal" fill="none" stroke="#000000" stroke-width="1" stroke-linecap="square" font-size="32.5" font-family="MS Shell Dlg 2" stroke-opacity="1"/>
  <g stroke-linejoin="bevel" transform="matrix(11.8081,0,0,11.8081,0,0)" font-weight="400" font-style="normal" fill="none" stroke="#000000" stroke-width="1" stroke-linecap="square" font-size="32.5" font-family="MS Shell Dlg 2" stroke-opacity="1"/>
  <g transform="matrix(11.8081,0,0,11.8081,0,0)" font-weight="400" font-style="normal" fill="#ffffff" stroke="none" fill-opacity="1" font-size="32.5" font-family="MS Shell Dlg 2">
   <path fill-rule="evenodd" d="M0,0 L297,0 L297,210 L0,210 L0,0" vector-effect="none"/>
  </g>
  <g stroke-linejoin="bevel" transform="matrix(11.8081,0,0,11.8081,0,0)" font-weight="400" font-style="normal" fill="none" stroke="#000000" stroke-width="1" stroke-linecap="square" font-size="32.5" font-family="MS Shell Dlg 2" stroke-opacity="1"/>
  <g stroke-linejoin="bevel" transform="matrix(11.8081,0,0,11.8081,0,0)" font-weight="400" font-style="normal" fill="none" stroke="#000000" stroke-width="1" stroke-linecap="square" font-size="32.5" font-family="MS Shell Dlg 2" stroke-opacity="1"/>
  <g stroke-linejoin="bevel" transform="matrix(11.8081,0,0,11.8081,0,0)" font-weight="400" font-style="normal" fill="none" stroke="#000000" stroke-width="1" stroke-linecap="square" font-size="32.5" font-family="MS Shell Dlg 2" stroke-opacity="1"/>
  <g stroke-linejoin="bevel" transform="matrix(11.8081,0,0,11.8081,0,0)" font-weight="400" font-style="normal" fill="none" stroke="#000000" stroke-width="1" stroke-linecap="square" font-size="32.5" font-family="MS Shell Dlg 2" stroke-opacity="1"/>
  <g stroke-linejoin="bevel" transform="matrix(1,0,0,1,0,0)" font-weight="400" font-style="normal" fill="none" stroke="#000000" stroke-width="1" stroke-linecap="square" font-size="32.5" font-family="MS Shell Dlg 2" stroke-opacity="1"/>
  <g stroke-linejoin="bevel" transform="matrix(11.8081,0,0,11.8081,0,0)" font-weight="400" font-style="normal" fill="none" stroke="#000000" stroke-width="1" stroke-linecap="square" font-size="32.5" font-family="MS Shell Dlg 2" stroke-opacity="1"/>
  <g stroke-linejoin="bevel" transform="matrix(11.8081,0,0,11.8081,0,0)" font-weight="400" font-style="normal" fill="none" stroke="#000000" stroke-width="1" stroke-linecap="square" font-size="32.5" font-family="MS Shell Dlg 2" stroke-opacity="1"/>
  <g stroke-linejoin="bevel" transform="matrix(1,0,0,1,0,0)" font-weight="400" font-style="normal" fill="none" stroke="#000000" stroke-width="1" stroke-linecap="square" font-size="32.5" font-family="MS Shell Dlg 2" stroke-opacity="1"/>
 </g>
 <defs/>
 <g stroke-linejoin="bevel" inkscape:label="Map 1: AzisisSpiralRivers" inkscape:groupmode="layer" fill="none" stroke="black" fill-rule="evenodd" stroke-width="1" stroke-linecap="square" id="Map 1: AzisisSpiralRivers">
  <g stroke-linejoin="bevel" transform="matrix(1,0,0,1,0,0)" font-weight="400" font-style="normal" fill="none" stroke="#000000" stroke-width="1" stroke-linecap="square" font-size="32.5" font-family="MS Shell Dlg 2" stroke-opacity="1"/>
  <g stroke-linejoin="bevel" transform="matrix(1,0,0,1,0,0)" font-weight="400" font-style="normal" fill="none" stroke="#000000" stroke-width="1" stroke-linecap="square" font-size="32.5" font-family="MS Shell Dlg 2" stroke-opacity="1"/>
  <g stroke-linejoin="bevel" transform="matrix(11.8081,0,0,11.8081,0,0)" font-weight="400" font-style="normal" fill="none" stroke="#000000" stroke-width="1" stroke-linecap="square" font-size="32.5" font-family="MS Shell Dlg 2" stroke-opacity="1"/>
  <g stroke-linejoin="bevel" transform="matrix(11.8081,0,0,11.8081,0,0)" font-weight="400" font-style="normal" fill="none" stroke="#000000" stroke-width="1" stroke-linecap="square" font-size="32.5" font-family="MS Shell Dlg 2" stroke-opacity="1"/>
  <g transform="matrix(0.999751,0,0,0.999751,0,0)" font-weight="400" font-style="normal" fill="#000000" stroke="none" fill-opacity="0" font-size="32.5" font-family="MS Shell Dlg 2">
   <rect height="2480" x="0" width="3508" y="0"/>
  </g>
  <g stroke-linejoin="bevel" transform="matrix(0.999751,0,0,0.999751,0,0)" font-weight="400" font-style="normal" fill="none" stroke="#000000" stroke-width="1" stroke-linecap="square" font-size="32.5" font-family="MS Shell Dlg 2" stroke-opacity="1"/>
  <g stroke-linejoin="bevel" transform="matrix(0.999751,0,0,0.999751,0,0)" font-weight="400" font-style="normal" fill="none" stroke="#1f78b4" stroke-width="3.07087" stroke-linecap="square" font-size="32.5" font-family="MS Shell Dlg 2" stroke-opacity="1">
   <path fill-rule="evenodd" d="M925.663,894.741 L925.679,894.757 L925.742,894.804 L925.209,895.555 L923.659,897.497 L922.157,899.469 L920.732,901.504 L919.402,903.586 L918.259,905.762 L917.319,908.001 L916.615,910.286 L916.067,912.603 L915.691,914.935 L915.551,917.331 L915.785,919.788 L916.161,922.23 L916.662,924.657 L917.226,927.068 L917.836,929.463 L918.494,931.858 L919.182,934.253 L919.887,936.632 L920.623,938.996 L921.374,941.36 L922.172,943.708 L923.065,946.009 L924.098,948.248 L925.35,950.361 L926.837,952.271 L928.606,953.899 L930.594,955.23 L932.786,956.263 L935.04,957.155 L937.451,957.688 L939.909,957.938 L942.398,958.032 L944.887,958.001 L947.36,957.891 L949.849,957.734 L952.323,957.578 L954.812,957.531 L957.285,957.437 L959.774,957.296 L962.247,957.061 L964.705,956.733 L967.147,956.279 L969.558,955.668 L971.906,954.87 L974.16,953.852 L976.336,952.662 L978.356,951.207 L980.203,949.563 L981.215,948.542" vector-effect="none"/>
   <path fill-rule="evenodd" d="M851.117,867.221 L853.011,866.532 L855.422,865.953 L857.849,865.405 L860.275,864.889 L862.701,864.341 L865.128,863.808 L867.554,863.26 L869.981,862.697 L872.392,862.102 L874.802,861.492 L877.213,860.865 L879.608,860.208 L881.988,859.503 L884.367,858.768 L886.715,857.969 L889.048,857.108 L891.349,856.153 L893.556,855.026 L895.607,853.617 L897.532,852.052 L899.364,850.361 L901.117,848.608 L902.808,846.792 L904.467,844.945 L906.095,843.066 L907.708,841.172 L909.304,839.278 L910.901,837.384 L912.529,835.505 L914.189,833.658 L915.895,831.858 L917.695,830.136 L919.605,828.555 L921.687,827.209 L923.988,826.332 L926.368,826.473 L928.434,827.756 L930.062,829.604 L931.377,831.686 L932.52,833.893 L933.537,836.147 L934.492,838.433 L935.4,840.75 L936.308,843.051 L937.232,845.352 L938.187,847.653 L939.189,849.923 L940.3,852.13 L941.537,854.291 L942.961,856.31 L944.605,858.173 L946.421,859.832 L948.378,861.382 L950.428,862.775 L952.557,864.043 L954.765,865.217 L956.988,866.313 L959.242,867.346 L961.512,868.364 L963.782,869.366 L966.051,870.383 L968.321,871.416 L970.544,872.512 L972.736,873.671 L974.881,874.939 L976.9,876.363 L978.794,877.96 L980.563,879.682 L982.207,881.529 L983.757,883.47 L985.228,885.474 L986.668,887.493 L988.108,889.513 L989.596,891.501 L990.431,892.509" vector-effect="none"/>
   <path fill-rule="evenodd" d="M855.845,796.62 L858.036,796.229 L860.479,795.759 L862.921,795.258 L865.331,794.694 L867.727,794.006 L870.043,793.129 L872.063,791.767 L873.221,789.685 L873.378,787.243 L873.033,784.785 L872.595,782.343 L872.266,779.885 L872.235,777.412 L872.689,774.986 L873.816,772.81 L875.538,771.041 L877.479,769.491 L879.53,768.098 L881.643,766.783 L883.788,765.515 L885.933,764.278 L888.093,763.041 L890.237,761.773 L892.351,760.49 L894.448,759.128 L896.468,757.703 L898.44,756.185 L900.288,754.525 L901.978,752.709 L903.45,750.721 L904.671,748.561 L905.704,746.307 L906.612,743.99 L907.41,741.642 L908.13,739.278 L908.804,736.883 L909.445,734.488 L910.087,732.093 L910.729,729.698 L911.402,727.302 L912.154,724.939 L913.077,722.637 L914.314,720.493 L916.271,719.068 L918.681,719.397 L920.763,720.712 L922.642,722.34 L924.411,724.078 L926.18,725.815 L928.027,727.475 L930.031,728.931 L932.348,729.713 L934.774,729.447 L937.044,728.461 L939.126,727.115 L941.114,725.627 L943.118,724.156 L945.2,722.81 L947.454,721.823 L949.849,721.495 L952.26,721.917 L954.499,722.951 L956.549,724.312 L958.506,725.847 L960.385,727.475 L962.247,729.103 L964.157,730.699 L966.13,732.202 L968.243,733.517 L970.513,734.488 L972.939,734.879 L975.428,734.848 L977.902,734.597 L980.36,734.206 L980.749,734.126" vector-effect="none"/>
   <path fill-rule="evenodd" d="M647.799,516.939 L650.162,517.55 L652.557,518.254 L654.937,518.959 L657.316,519.648 L659.712,520.336 L662.107,520.994 L664.502,521.636 L666.913,522.246 L669.339,522.81 L671.765,523.358 L674.207,523.843 L676.65,524.266 L679.107,524.61 L681.596,524.845 L684.07,524.876 L686.527,524.563 L688.954,523.999 L691.318,523.248 L693.65,522.371 L695.92,521.385 L698.174,520.336 L700.413,519.256 L702.636,518.145 L704.859,517.049 L707.113,515.984 L709.383,514.967 L711.7,514.075 L714.079,513.37 L716.537,512.979 L719.01,513.104 L721.343,513.934 L723.362,515.374 L725.053,517.174 L726.54,519.178 L727.902,521.244 L729.248,523.342 L730.641,525.393 L732.207,527.318 L734.054,528.962 L735.575,529.653" vector-effect="none"/>
   <path fill-rule="evenodd" d="M644.229,650.847 L645.216,650.581 L647.673,650.236 L650.131,649.907 L652.604,649.594 L655.062,649.266 L657.52,648.921 L659.978,648.561 L662.435,648.185 L664.893,647.794 L667.351,647.371 L669.793,646.933 L672.235,646.448 L674.677,645.947 L677.104,645.399 L679.514,644.804 L681.909,644.147 L684.289,643.411 L686.621,642.581 L688.923,641.626 L691.161,640.562 L693.353,639.372 L695.482,638.104 L697.579,636.773 L699.63,635.364 L701.65,633.909 L703.638,632.421 L705.594,630.887 L707.536,629.338 L709.461,627.772 L711.387,626.207 L713.296,624.626 L715.222,623.06 L717.163,621.495 L719.104,619.961 L721.077,618.458 L723.08,616.986 L725.131,615.577 L727.197,614.2 L729.295,612.869 L731.44,611.617 L733.616,610.411 L735.807,609.253 L738.03,608.11 L740.237,606.983 L742.46,605.872 L744.683,604.745 L746.875,603.586 L749.067,602.396 L751.211,601.144 L753.309,599.829 L755.36,598.42 L757.332,596.917 L759.226,595.305 L760.995,593.567 L761.026,593.533" vector-effect="none"/>
   <path fill-rule="evenodd" d="M784.946,690.249 L785.416,689.967 L787.748,689.137 L790.097,688.307 L792.429,687.462 L794.73,686.539 L797,685.505 L799.176,684.316 L801.149,682.844 L802.73,680.981 L803.591,678.649 L804.029,676.207 L804.217,673.749 L804.295,671.26 L804.358,668.787 L804.467,666.313 L804.671,663.84 L805,661.382 L805.532,658.971 L806.221,656.576 L806.941,654.212 L807.708,651.849 L808.475,649.485 L809.242,647.121 L809.978,644.757 L810.666,642.378 L811.308,639.983 L811.887,637.572 L812.357,635.13 L812.733,632.672 L812.952,630.214 L812.999,627.725 L812.889,625.252 L812.67,622.778 L812.279,620.336 L811.778,617.91 L811.167,615.499 L811.129,615.364" vector-effect="none"/>
   <path fill-rule="evenodd" d="M625.648,707.312 L623.785,706.357 L621.687,705.026 L619.605,703.68 L617.492,702.365 L615.363,701.081 L613.202,699.86 L610.995,698.718 L608.741,697.7 L606.393,696.886 L603.935,696.62 L601.509,697.137 L599.223,698.076 L597.016,699.234 L594.871,700.502 L592.742,701.786 L590.598,703.023 L588.359,704.103 L585.98,704.823 L583.569,704.619 L581.675,703.132 L580.501,700.972 L579.718,698.624 L579.123,696.213 L578.606,693.787 L578.09,691.36 L577.511,688.949 L576.822,686.57 L575.882,684.269 L574.568,682.187 L572.783,680.48 L570.685,679.134 L569.014,678.238" vector-effect="none"/>
   <path fill-rule="evenodd" d="M2373.03,1714.97 L2372.89,1713.5 L2372.42,1711.07 L2371.94,1708.64 L2371.4,1706.22 L2370.86,1703.81 L2370.25,1701.39 L2369.56,1699.01 L2368.81,1696.65 L2367.91,1694.33 L2366.85,1692.11 L2365.53,1690.03 L2363.94,1688.17 L2362.03,1686.6 L2359.91,1685.32 L2357.69,1684.22 L2355.41,1683.2 L2353.14,1682.22 L2350.88,1681.15 L2348.69,1679.99 L2346.56,1678.71 L2344.53,1677.3 L2342.6,1675.74 L2340.8,1674.03 L2339.16,1672.18 L2337.58,1670.26 L2336.07,1668.29 L2334.6,1666.3 L2333.15,1664.28 L2331.72,1662.24 L2330.31,1660.19 L2328.9,1658.16 L2327.48,1656.11 L2326.07,1654.07 L2324.65,1652.04 L2323.19,1650.02 L2321.73,1648.01 L2320.25,1646.02 L2318.73,1644.07 L2317.16,1642.13 L2315.58,1640.23 L2313.94,1638.37 L2312.23,1636.55 L2310.48,1634.8 L2308.6,1633.17 L2306.66,1631.64 L2304.64,1630.18 L2302.56,1628.85 L2300.41,1627.58 L2298.24,1626.39 L2296.03,1625.25 L2293.79,1624.17 L2291.54,1623.11 L2289.28,1622.09 L2287.01,1621.07 L2284.74,1620.07 L2282.47,1619.07 L2280.2,1618.05 L2277.93,1617.02 L2275.69,1615.94 L2273.47,1614.83 L2271.3,1613.64 L2269.17,1612.34 L2267.13,1610.91 L2265.25,1609.3 L2263.66,1607.41 L2262.54,1605.2 L2262.18,1602.76 L2262.61,1600.31 L2263.58,1598.03 L2264.85,1595.92 L2266.32,1593.91 L2267.88,1591.99 L2269.53,1590.12 L2271.19,1588.29 L2272.88,1586.46 L2274.55,1584.64 L2276.2,1582.78 L2277.78,1580.87 L2279.29,1578.91 L2280.69,1576.86 L2281.91,1574.7 L2282.88,1572.42 L2283.49,1570.02 L2283.96,1567.58 L2284.34,1565.14 L2284.63,1562.67 L2284.85,1560.21 L2285.04,1557.72 L2285.18,1555.25 L2285.27,1552.77 L2285.34,1550.28 L2285.38,1547.81 L2285.4,1545.34 L2285.38,1542.85 L2285.35,1540.37 L2285.29,1537.88 L2285.21,1535.41 L2285.12,1532.92" vector-effect="none"/>
   <path fill-rule="evenodd" d="M2468.79,1601.83 L2469.65,1600.71 L2471.15,1598.73 L2472.61,1596.73 L2474.03,1594.68 L2475.4,1592.61 L2476.7,1590.5 L2477.9,1588.32 L2479,1586.1 L2479.91,1583.8 L2480.47,1581.39 L2480.69,1578.93 L2480.63,1576.44 L2480.31,1573.98 L2479.76,1571.57 L2479.04,1569.19 L2478.18,1566.88 L2477.2,1564.59 L2476.13,1562.35 L2475.01,1560.13 L2473.83,1557.95 L2472.63,1555.78 L2471.42,1553.62 L2470.2,1551.46 L2468.96,1549.3 L2467.69,1547.15 L2466.41,1545.04 L2465.08,1542.94 L2463.73,1540.86 L2462.33,1538.81 L2460.87,1536.8 L2459.35,1534.83 L2457.79,1532.91 L2456.14,1531.04 L2454.42,1529.26 L2452.62,1527.55 L2450.69,1525.97 L2448.63,1524.61 L2446.48,1523.36 L2444.29,1522.18 L2442.07,1521.09 L2439.81,1520.04 L2437.54,1519.02 L2435.24,1518.05 L2432.94,1517.11 L2430.64,1516.2 L2428.31,1515.33 L2425.98,1514.47 L2423.64,1513.62 L2421.3,1512.81 L2418.93,1512.02" vector-effect="none"/>
   <path fill-rule="evenodd" d="M2232.03,1908.69 L2231.96,1908.8 L2229.65,1909.6 L2227.24,1910.21 L2224.83,1910.8 L2222.42,1911.41 L2220.03,1912.07 L2217.65,1912.79 L2215.28,1913.59 L2213,1914.53 L2210.81,1915.67 L2208.72,1917 L2206.83,1918.6 L2205.12,1920.41 L2203.62,1922.37 L2202.28,1924.47 L2201.12,1926.64 L2200.08,1928.9 L2199.18,1931.22 L2198.36,1933.55 L2197.61,1935.93 L2196.91,1938.31 L2196.2,1940.69 L2195.56,1943.08 L2194.95,1945.48 L2194.34,1947.89 L2193.76,1950.3 L2193.21,1952.72 L2192.66,1955.14 L2192.15,1957.56 L2191.65,1960 L2191.18,1962.43 L2190.72,1964.87 L2190.3,1967.31 L2189.91,1969.77 L2189.53,1972.21 L2189.2,1974.67 L2188.91,1977.15 L2188.64,1979.6 L2188.42,1982.08 L2188.25,1984.55 L2188.14,1987.04 L2188.14,1989.51 L2188.31,1991.99 L2188.66,1994.44 L2189.13,1996.87 L2189.7,1999.28 L2190.35,2001.68 L2191.07,2004.06 L2191.83,2006.42 L2192.63,2008.77 L2193.45,2011.12 L2194.28,2013.45 L2195.11,2015.8 L2195.92,2018.13 L2196.7,2020.49 L2197.44,2022.86 L2198.11,2025.25 L2198.69,2027.65 L2199.18,2030.09 L2199.52,2032.55 L2199.69,2035 L2199.66,2037.49 L2199.39,2039.95 L2198.89,2042.38 L2198.19,2044.76 L2197.31,2047.06 L2196.28,2049.31 L2195.14,2051.52 L2193.88,2053.65 L2192.57,2055.76 L2191.19,2057.83 L2189.78,2059.86 L2188.37,2061.9 L2186.95,2063.93 L2185.54,2065.98 L2184.16,2068.05 L2182.83,2070.15 L2181.56,2072.28 L2180.41,2074.47 L2179.34,2076.71 L2178.43,2079.01 L2177.59,2081.34 L2176.9,2083.72 L2176.4,2086.15 L2176.01,2088.6 L2175.69,2091.06 L2175.48,2093.54 L2175.32,2096.01 L2175.21,2098.48 L2175.15,2100.97 L2175.12,2103.44 L2175.12,2105.92 L2175.12,2108.41 L2175.12,2110.88 L2175.12,2113.37 L2175.1,2115.84 L2175.04,2118.32 L2174.93,2120.79 L2174.76,2123.26 L2174.47,2125.72 L2174.11,2128.18 L2173.61,2130.61 L2172.94,2132.98 L2172.09,2135.32 L2171.12,2137.6 L2170.06,2139.84 L2168.93,2142.06 L2167.8,2144.27 L2166.72,2146.51 L2165.79,2148.8 L2165.08,2151.18 L2164.74,2153.41" vector-effect="none"/>
   <path fill-rule="evenodd" d="M2385.92,1873.84 L2385.95,1873.86 L2386.01,1873.86 L2386.14,1873.89 L2386.4,1875.33 L2386.34,1877.82 L2386.26,1880.29 L2386.23,1882.77 L2386.29,1885.24 L2386.5,1887.67 L2386.82,1890.08 L2387.31,1892.42 L2387.95,1894.71 L2388.7,1896.95 L2389.58,1899.14 L2390.57,1901.3 L2391.83,1903.4 L2393.24,1905.42 L2394.75,1907.41 L2396.26,1909.36 L2397.77,1911.32 L2399.19,1913.29 L2400.6,1915.3 L2401.98,1917.31 L2403.31,1919.37 L2404.58,1921.48 L2405.77,1923.65 L2406.83,1925.88 L2407.8,1928.16 L2408.76,1930.46 L2409.68,1932.77 L2410.57,1935.07 L2411.42,1937.4 L2412.23,1939.75 L2412.98,1942.1 L2413.66,1944.48 L2414.25,1946.87 L2414.72,1949.28 L2414.99,1951.68 L2414.99,1954.04 L2414.8,1956.36 L2414.47,1958.6 L2414.02,1960.82 L2413.48,1963.03 L2412.9,1965.23 L2412.15,1967.49 L2411.28,1969.77 L2410.37,1972.07 L2409.59,1974.41 L2408.83,1976.69 L2408.08,1978.96 L2407.36,1981.22 L2406.71,1983.49 L2406.14,1985.77 L2405.72,1988.1 L2405.5,1990.5 L2405.56,1992.91 L2405.78,1995.34 L2406.16,1997.72 L2406.67,2000.05 L2407.41,2002.29 L2408.36,2004.4 L2409.62,2006.26 L2411.17,2007.69 L2412.95,2008.8 L2415.02,2009.57 L2417.33,2009.91 L2419.73,2009.96 L2422.17,2009.71 L2424.61,2009.25 L2427.02,2008.69 L2429.44,2008.05 L2431.83,2007.39 L2434.23,2006.72 L2436.62,2006.04 L2439.02,2005.42 L2441.43,2004.84 L2443.85,2004.32 L2446.3,2003.9 L2448.74,2003.62 L2451.18,2003.51 L2453.59,2003.63 L2455.92,2004.06 L2458.19,2004.68 L2460.4,2005.54 L2462.51,2006.64 L2464.56,2007.89 L2466.51,2009.36 L2468.35,2010.99 L2470.11,2012.73 L2471.78,2014.54 L2473.41,2016.42 L2475.01,2018.32 L2476.6,2020.23 L2478.18,2022.14 L2479.78,2024.03 L2481.42,2025.89 L2483.13,2027.69 L2484.91,2029.4 L2486.82,2030.95 L2488.86,2032.28 L2491.05,2033.24 L2493.32,2033.67 L2495.67,2033.64 L2498.02,2033.13 L2500.3,2032.2 L2502.46,2031 L2504.53,2029.62 L2506.5,2028.12 L2508.43,2026.54 L2510.29,2024.91 L2512.12,2023.22 L2513.91,2021.49 L2515.66,2019.74 L2516.23,2019.14" vector-effect="none"/>
   <path fill-rule="evenodd" d="M2569.09,1119.91 L2569.1,1119.91 L2569.12,1119.91 L2569.15,1119.93 L2569.2,1119.94 L2569.28,1119.96 L2569.35,1119.99 L2569.01,1122.2 L2568.48,1124.61 L2567.93,1127.04 L2567.4,1129.46 L2566.88,1131.89 L2566.4,1134.32 L2565.94,1136.76 L2565.53,1139.2 L2565.22,1141.64 L2564.99,1144.1 L2564.81,1146.54 L2564.67,1149 L2564.58,1151.44 L2564.53,1153.9 L2564.5,1156.34 L2564.52,1158.78 L2564.56,1161.24 L2564.66,1163.7 L2564.8,1166.14 L2564.99,1168.6 L2565.21,1171.06 L2565.44,1173.51 L2565.74,1175.96 L2566.08,1178.41 L2566.46,1180.87 L2566.87,1183.31 L2567.29,1185.76 L2567.71,1188.2 L2568.16,1190.64 L2568.68,1193.07 L2569.18,1195.49 L2569.7,1197.92 L2570.2,1200.35 L2570.72,1202.77 L2571.23,1205.2 L2571.78,1207.61 L2572.34,1210.04 L2572.94,1212.43 L2573.57,1214.84 L2574.25,1217.22 L2574.97,1219.58 L2575.77,1221.9 L2576.62,1224.19 L2577.45,1226.47 L2578.4,1228.66 L2579.45,1230.78 L2580.56,1232.81 L2581.72,1234.8 L2582.94,1236.76 L2584.24,1238.68 L2585.59,1240.59 L2587.03,1242.5 L2588.52,1244.4 L2590.06,1246.31 L2591.57,1248.26 L2593.02,1250.27 L2594.29,1252.33 L2595.31,1254.38 L2596,1256.36 L2596.48,1258.25 L2596.86,1260.05 L2597.17,1261.8 L2597.47,1263.54 L2597.74,1265.31 L2598.02,1267.14 L2598.33,1269.07 L2598.66,1271.12 L2599.03,1273.34 L2599.41,1275.72 L2599.72,1278.16 L2599.91,1280.53 L2599.97,1282.77 L2599.99,1284.93 L2600.02,1287.04 L2600.07,1289.14 L2600.18,1291.23 L2600.38,1293.33 L2600.71,1295.49 L2601.24,1297.67 L2602.07,1299.88 L2602.16,1300.05" vector-effect="none"/>
   <path fill-rule="evenodd" d="M2636.59,1331.68 L2637.06,1331.94 L2639.22,1333.17 L2641.38,1334.39 L2643.54,1335.6 L2645.73,1336.77 L2647.94,1337.92 L2650.16,1338.98 L2652.42,1339.98 L2654.72,1340.89 L2657.03,1341.67 L2659.38,1342.28 L2661.73,1342.72 L2664.09,1342.97 L2666.44,1343.07 L2668.77,1343 L2671.11,1342.78 L2673.44,1342.36 L2675.76,1341.72 L2678.04,1340.92 L2680.28,1339.92 L2682.47,1338.78 L2684.62,1337.52 L2686.7,1336.19 L2688.77,1334.8 L2690.82,1333.41 L2692.87,1332 L2694.92,1330.61 L2697,1329.27 L2699.13,1328.02 L2701.3,1326.88 L2703.53,1325.86 L2705.8,1324.99 L2708.11,1324.23 L2710.49,1323.64 L2712.9,1323.2 L2715.36,1322.89 L2717.82,1322.67 L2720.31,1322.54 L2722.78,1322.43 L2725.27,1322.32 L2727.74,1322.18 L2730.22,1321.95 L2732.64,1321.57 L2735.02,1321.02 L2737.31,1320.23 L2739.5,1319.22 L2741.6,1318.03 L2743.57,1316.55 L2745.4,1314.89 L2747.12,1313.1 L2748.75,1311.24 L2750.29,1309.28 L2751.73,1307.26 L2753.07,1305.17 L2754.33,1303.04 L2755.5,1300.85 L2756.58,1298.62 L2757.6,1296.35 L2758.52,1294.07 L2759.34,1291.74 L2759.98,1289.36 L2760.53,1286.95 L2760.87,1284.5 L2761.06,1282.03 L2761.12,1279.56 L2761.1,1277.08 L2761.04,1274.59 L2760.96,1272.12 L2760.89,1269.65 L2760.85,1267.16 L2760.92,1264.68 L2761.15,1262.23 L2761.7,1259.82 L2762.81,1257.61 L2764.5,1255.81 L2766.68,1254.7 L2769.04,1254.1 L2771.47,1253.82 L2773.93,1253.71 L2776.4,1253.66 L2778.87,1253.6 L2781.35,1253.43 L2783.8,1253.02 L2786.14,1252.29 L2788.31,1251.24 L2790.33,1249.89 L2792.15,1248.26 L2793.82,1246.46 L2795.34,1244.51 L2796.73,1242.46 L2798.08,1240.37 L2799.43,1238.29 L2800.85,1236.27 L2802.4,1234.35 L2804.09,1232.55 L2805.92,1230.87 L2807.88,1229.35 L2809.91,1227.94 L2812.01,1226.6 L2814.14,1225.31 L2816.29,1224.06 L2818.45,1222.86 L2820.64,1221.65 L2822.81,1220.46 L2824.99,1219.27 L2827.18,1218.08 L2829.36,1216.89 L2831.52,1215.67 L2833.68,1214.43 L2835.82,1213.17 L2837.94,1211.87 L2840.03,1210.54 L2842.1,1209.14 L2844.12,1207.7 L2846.09,1206.2 L2846.81,1205.6" vector-effect="none"/>
   <path fill-rule="evenodd" d="M2544.51,937.055 L2544.51,937.039 L2544.51,936.992 L2545.09,936.742 L2547.52,936.241 L2549.96,935.787 L2552.4,935.302 L2554.84,934.801 L2557.27,934.269 L2559.68,933.689 L2562.07,933.032 L2564.45,932.312 L2566.76,931.435 L2569.01,930.449 L2571.25,929.416 L2573.46,928.32 L2575.63,927.13 L2577.71,925.784 L2579.76,924.391 L2581.77,922.935 L2583.74,921.448 L2585.63,919.867 L2587.47,918.207 L2589.17,916.454 L2590.75,914.591 L2592.15,912.603 L2593.34,910.505 L2594.24,908.282 L2594.78,905.997 L2595.04,903.649 L2595.07,901.269 L2594.84,898.858 L2594.28,896.463 L2593.54,894.115 L2592.68,891.798 L2591.72,889.513 L2590.68,887.259 L2589.58,885.036 L2588.44,882.844 L2587.23,880.668 L2585.99,878.508 L2584.73,876.379 L2583.41,874.265 L2582.08,872.183 L2580.7,870.117 L2579.31,868.066 L2577.89,866.031 L2576.43,864.012 L2574.94,862.024 L2573.42,860.067 L2571.83,858.173 L2570.17,856.31 L2568.49,854.494 L2566.76,852.725 L2564.96,851.019 L2563.11,849.344 L2561.23,847.731 L2559.32,846.15 L2557.38,844.601 L2555.42,843.066 L2553.45,841.548 L2551.48,840.045 L2549.49,838.558 L2547.52,837.055 L2545.54,835.537 L2543.59,834.003 L2541.68,832.421 L2539.8,830.809 L2537.98,829.118 L2536.28,827.334 L2534.74,825.44 L2533.4,823.42 L2532.28,821.307 L2531.44,819.084 L2530.91,816.751 L2530.67,814.341 L2530.69,811.899 L2530.83,809.425 L2530.97,806.952 L2530.94,804.494 L2530.55,802.146 L2529.86,799.923 L2528.89,797.778 L2527.59,795.759 L2525.9,793.943 L2524.03,792.331 L2522.05,790.828 L2520,789.419 L2517.91,788.073 L2515.82,786.742 L2513.73,785.396 L2511.75,783.924 L2509.81,782.374 L2507.94,780.731 L2506.13,779.056 L2504.29,777.365 L2502.45,775.706 L2500.57,774.093 L2498.61,772.559 L2496.55,771.166 L2494.39,769.976 L2492.12,769.021 L2489.72,768.411 L2488.51,768.342" vector-effect="none"/>
   <path fill-rule="evenodd" d="M2620.31,1014.15 L2622.25,1012.81 L2624.44,1011.63 L2626.65,1010.51 L2628.86,1009.38 L2631.08,1008.25 L2633.29,1007.12 L2635.49,1005.98 L2637.7,1004.82 L2639.89,1003.66 L2642.08,1002.47 L2644.26,1001.27 L2646.42,1000.03 L2648.55,998.78 L2650.68,997.481 L2652.76,996.135 L2654.81,994.741 L2656.82,993.27 L2658.74,991.689 L2660.49,989.935 L2662.12,988.057 L2663.62,986.085 L2665.05,984.049 L2666.38,981.952 L2667.66,979.838 L2668.9,977.678 L2670.11,975.502 L2671.3,973.326 L2672.49,971.15 L2673.69,968.974 L2674.93,966.83 L2676.21,964.701 L2677.57,962.634 L2679.06,960.631 L2680.67,958.752 L2682.46,957.046 L2684.48,955.574 L2686.62,954.337 L2688.95,953.508 L2691.4,953.038 L2693.88,952.882 L2696.36,952.929 L2698.85,953.132 L2701.32,953.398 L2703.78,953.68 L2706.25,953.93 L2708.74,954.087 L2711.21,954.087 L2713.69,953.821 L2716.1,953.21 L2718.34,952.146 L2720.45,950.831 L2722.41,949.312 L2724.24,947.637 L2725.99,945.868 L2727.67,944.037 L2729.34,942.205 L2731,940.358 L2732.72,938.558 L2734.51,936.836 L2736.4,935.224 L2738.42,933.783 L2740.58,932.562 L2742.91,931.733 L2745.32,931.153 L2747.78,930.778 L2750.26,930.527 L2752.74,930.402 L2755.23,930.324 L2757.72,930.308 L2760.21,930.308 L2762.69,930.292 L2765.17,930.261 L2767.66,930.167 L2770.14,929.979 L2772.61,929.698 L2775.05,929.259 L2777.46,928.633 L2779.06,928.008" vector-effect="none"/>
   <path fill-rule="evenodd" d="M2694.2,1014.15 L2694.2,1014.14 L2695.65,1014.15 L2698.08,1014.62 L2700.51,1015.14 L2702.95,1015.66 L2705.37,1016.16 L2707.82,1016.64 L2710.27,1017.08 L2712.72,1017.46 L2715.19,1017.78 L2717.66,1017.99 L2720.14,1018.04 L2722.58,1017.83 L2724.99,1017.39 L2727.34,1016.69 L2729.62,1015.75 L2731.82,1014.62 L2733.98,1013.37 L2736.09,1012.07 L2738.19,1010.74 L2740.28,1009.43 L2742.43,1008.17 L2744.62,1007.03 L2746.91,1006.14 L2749.22,1005.61 L2751.49,1005.62 L2753.57,1006.2 L2755.5,1007.28 L2757.24,1008.89 L2758.79,1010.8 L2760.27,1012.79 L2761.81,1014.72 L2763.55,1016.44 L2765.49,1017.8 L2767.6,1018.88 L2769.92,1019.54 L2772.34,1019.82 L2774.8,1019.8 L2777.26,1019.48 L2779.65,1018.86 L2781.99,1018.04 L2784.24,1017 L2786.4,1015.78 L2788.45,1014.39 L2790.42,1012.87 L2792.33,1011.29 L2794.2,1009.63 L2796.01,1007.94 L2797.78,1006.18 L2799.5,1004.42 L2801.2,1002.58 L2802.85,1000.74 L2804.47,998.843 L2806.03,996.917 L2807.55,994.961 L2809.01,992.957 L2810.42,990.906 L2811.76,988.824 L2813.03,986.679 L2814.2,984.488 L2815.08,982.468" vector-effect="none"/>
   <path fill-rule="evenodd" d="M2465.16,917.409 L2465,916.454 L2464.88,913.981 L2464.77,911.507 L2464.66,909.034 L2464.53,906.545 L2464.38,904.071 L2464.19,901.598 L2463.97,899.125 L2463.72,896.667 L2463.41,894.193 L2463.03,891.751 L2462.56,889.309 L2461.98,886.899 L2461.23,884.535 L2460.29,882.249 L2459.07,880.089 L2457.72,878.007 L2456.27,875.987 L2454.73,874.046 L2453.12,872.152 L2451.46,870.305 L2449.77,868.473 L2448.06,866.673 L2446.36,864.873 L2444.65,863.073 L2442.96,861.257 L2441.3,859.41 L2439.69,857.515 L2438.16,855.574 L2436.78,853.508 L2435.45,851.41 L2434.18,849.281 L2432.93,847.137 L2431.67,844.992 L2430.41,842.847 L2429.11,840.75 L2427.73,838.668 L2426.29,836.648 L2424.72,834.723 L2423.03,832.907 L2421.19,831.247 L2419.17,829.807 L2416.97,828.633 L2414.72,827.616 L2412.4,826.692 L2411.55,826.382" vector-effect="none"/>
   <path fill-rule="evenodd" d="M2742.18,1111.68 L2743.95,1112.24 L2746.25,1113.18 L2748.53,1114.14 L2750.84,1115.11 L2753.12,1116.05 L2755.42,1116.99 L2757.74,1117.91 L2760.06,1118.82 L2762.37,1119.69 L2764.7,1120.56 L2767.05,1121.37 L2769.42,1122.15 L2771.8,1122.89 L2774.19,1123.55 L2776.6,1124.14 L2779.04,1124.61 L2781.5,1124.92 L2783.99,1125 L2786.48,1124.92 L2788.95,1124.7 L2791.41,1124.38 L2793.87,1123.97 L2796.31,1123.48 L2798.74,1122.97 L2801.16,1122.42 L2803.59,1121.85 L2806.02,1121.29 L2808.43,1120.74 L2810.87,1120.23 L2813.31,1119.77 L2815.77,1119.44 L2818.26,1119.27 L2820.73,1119.43 L2823.14,1120.02 L2825.38,1121.09 L2827.4,1122.53 L2829.22,1124.22 L2830.53,1125.61" vector-effect="none"/>
   <path fill-rule="evenodd" d="M2389.09,1179.99 L2388.3,1181.01 L2386.89,1183.06 L2385.49,1185.11 L2384.12,1187.18 L2382.75,1189.25 L2381.41,1191.33 L2380.08,1193.43 L2378.78,1195.54 L2377.49,1197.67 L2376.24,1199.8 L2375.02,1201.96 L2373.83,1204.15 L2372.69,1206.34 L2371.61,1208.58 L2370.58,1210.83 L2369.65,1213.14 L2368.84,1215.48 L2368.18,1217.86 L2367.66,1220.29 L2367.32,1222.73 L2367.12,1225.2 L2367.01,1227.68 L2366.99,1230.17 L2367.04,1232.64 L2367.12,1235.11 L2367.24,1237.59 L2367.37,1240.08 L2367.49,1242.55 L2367.59,1245.02 L2367.65,1247.51 L2367.63,1249.99 L2367.48,1252.46 L2367.1,1254.92 L2366.27,1257.23 L2364.77,1259.16 L2362.53,1260.13 L2360.06,1259.99 L2357.68,1259.33 L2355.36,1258.44 L2353.07,1257.45 L2350.8,1256.47 L2348.5,1255.54 L2346.14,1254.74 L2343.71,1254.21 L2341.24,1254.17 L2338.81,1254.7 L2337.32,1255.31" vector-effect="none"/>
   <path fill-rule="evenodd" d="M2108,1939.12 L2107.91,1939.29 L2105.92,1940.72 L2103.81,1942.03 L2101.68,1943.3 L2099.54,1944.57 L2097.41,1945.84 L2095.26,1947.1 L2093.13,1948.39 L2091,1949.67 L2088.88,1950.96 L2086.76,1952.26 L2084.65,1953.57 L2082.55,1954.9 L2080.45,1956.25 L2078.39,1957.59 L2076.3,1958.97 L2074.25,1960.38 L2072.23,1961.8 L2070.22,1963.28 L2068.23,1964.76 L2066.29,1966.31 L2064.38,1967.91 L2062.54,1969.57 L2060.74,1971.29 L2058.93,1972.98 L2057.16,1974.72 L2055.42,1976.49 L2053.7,1978.29 L2052.02,1980.12 L2050.37,1981.97 L2048.74,1983.85 L2047.13,1985.74 L2045.54,1987.65 L2043.98,1989.58 L2042.44,1991.52 L2040.93,1993.49 L2039.42,1995.46 L2037.95,1997.46 L2036.5,1999.48 L2035.07,2001.5 L2033.66,2003.55 L2032.28,2005.62 L2030.94,2007.7 L2029.62,2009.82 L2028.36,2011.95 L2027.13,2014.11 L2025.99,2016.31 L2024.85,2018.52 L2023.8,2020.76 L2022.85,2023.04 L2022.03,2025.38 L2021.37,2027.77 L2020.92,2030.21 L2020.68,2032.67 L2020.68,2035.16 L2020.9,2037.62 L2021.39,2040.06 L2022.25,2042.38 L2023.36,2044.6 L2024.6,2046.74 L2025.94,2048.83 L2027.35,2050.88 L2028.83,2052.88 L2030.34,2054.84 L2031.89,2056.78 L2033.49,2058.67" vector-effect="none"/>
   <path fill-rule="evenodd" d="M641.756,315.202 L641.052,313.214 L640.347,310.834 L639.643,308.455 L638.86,306.091 L638.015,303.774 L637.028,301.489 L635.823,299.328 L634.148,297.512 L631.831,296.683 L629.358,296.51 L626.869,296.651 L624.411,296.933 L621.938,297.231 L619.464,297.403 L616.991,297.184 L615.034,295.806 L614.596,293.411 L615.05,290.984 L615.817,288.621 L616.709,286.304 L617.633,284.003 L618.556,281.701 L619.449,279.385 L620.247,277.036 L620.904,274.641 L621.343,272.215 L621.468,269.742 L621.319,268.63" vector-effect="none"/>
   <path fill-rule="evenodd" d="M638.296,696.369 L637.999,697.982 L637.748,700.44 L637.498,702.913 L637.248,705.371 L637.028,707.844 L636.809,710.318 L636.637,712.791 L636.496,715.264 L636.387,717.738 L636.34,720.211 L636.355,722.7 L636.449,725.173 L636.653,727.647 L637.013,730.089 L637.561,732.515 L638.218,734.895 L639.032,737.243 L639.987,739.529 L641.052,741.751 L642.241,743.943 L643.494,746.072 L644.809,748.185 L646.155,750.267 L647.532,752.334 L648.894,754.4 L650.256,756.482 L651.587,758.58 L652.886,760.693 L654.107,762.853 L655.219,765.076 L656.268,767.331 L657.238,769.601 L658.162,771.917 L659.054,774.234 L659.915,776.551 L660.76,778.884 L661.621,781.216 L662.482,783.533 L663.375,785.85 L664.298,788.151 L665.269,790.436 L666.302,792.691 L667.398,794.914 L668.572,797.09 L669.84,799.219 L671.202,801.285 L672.673,803.273 L674.286,805.152 L676.039,806.889 L677.918,808.517 L679.874,810.051 L681.894,811.492 L683.944,812.9 L686.026,814.247 L688.124,815.593 L690.222,816.908 L692.335,818.239 L694.417,819.585 L696.484,820.962 L698.487,822.418 L700.428,823.984 L702.213,825.706 L703.716,827.678 L704.546,829.979 L704.436,832.437 L703.45,834.707 L701.931,836.664 L700.178,838.417 L698.315,840.045 L696.39,841.611 L694.464,843.176 L692.554,844.757 L690.723,846.432 L689.001,848.232 L687.514,850.205 L686.34,852.381 L685.723,854.103" vector-effect="none"/>
   <path fill-rule="evenodd" d="M2649.25,1606.28 L2650.04,1607.75 L2650.76,1610.11 L2651.43,1612.49 L2652.12,1614.87 L2652.85,1617.25 L2653.64,1619.6 L2654.5,1621.93 L2655.47,1624.22 L2656.61,1626.41 L2658.07,1628.41 L2660.02,1629.93 L2662.25,1631.03 L2664.6,1631.84 L2666.99,1632.5 L2669.42,1633.08 L2671.83,1633.64 L2674.24,1634.3 L2676.57,1635.13 L2678.78,1636.27 L2680.63,1637.92 L2681.78,1640.09 L2682.21,1642.53 L2682.13,1645.01 L2681.8,1647.47 L2681.33,1649.89 L2680.81,1652.32 L2680.46,1654.14" vector-effect="none"/>
   <path fill-rule="evenodd" d="M642.32,811.711 L642.32,811.726 L640.519,813.026 L638.375,814.247 L636.199,815.452 L634.038,816.689 L631.925,817.988 L629.874,819.397 L627.965,820.978 L626.477,822.904 L625.522,825.126 L625.131,827.569 L625.068,830.042 L625.194,832.515 L625.382,834.989 L625.554,837.462 L625.585,839.936 L625.272,842.362 L624.411,844.554 L622.939,846.416 L620.936,847.841 L618.744,849.015 L616.49,850.064 L614.251,851.128 L613.934,851.323" vector-effect="none"/>
   <path fill-rule="evenodd" d="M2193.81,1794.37 L2193.79,1794.35 L2194.1,1793.75 L2195.76,1791.92 L2197.47,1790.11 L2199.16,1788.31 L2200.84,1786.46 L2202.48,1784.6 L2204.04,1782.69 L2205.55,1780.71 L2206.94,1778.66 L2208.18,1776.54 L2209.32,1774.37 L2210.31,1772.14 L2211.12,1769.82 L2211.64,1767.39 L2212,1764.95 L2212.22,1762.48 L2212.31,1760 L2212.29,1757.53 L2212.2,1755.06 L2212.03,1752.57 L2211.82,1750.09 L2211.57,1747.64 L2211.29,1745.16 L2210.98,1742.71 L2210.62,1740.25 L2210.31,1737.79 L2209.98,1735.33 L2209.6,1732.89 L2209.19,1730.43 L2208.74,1728.01 L2208.24,1725.56 L2207.72,1723.15 L2207.14,1720.73 L2206.53,1718.33 L2205.88,1715.94 L2205.17,1713.56 L2204.42,1711.19 L2203.61,1708.86 L2202.73,1706.53 L2201.81,1704.23 L2200.79,1701.97 L2199.68,1699.75 L2198.46,1697.59 L2197.19,1695.46 L2195.81,1693.39 L2194.34,1691.39 L2192.8,1689.45 L2191.21,1687.56 L2189.56,1685.69 L2187.89,1683.85 L2186.2,1682.03 L2184.49,1680.23 L2182.8,1678.41 L2181.11,1676.61 L2179.44,1674.78 L2177.79,1672.92 L2176.21,1671.01 L2174.71,1669.05 L2173.31,1667.02 L2172.02,1664.92 L2170.86,1662.74 L2169.81,1660.52 L2168.88,1658.22 L2168.09,1655.89 L2167.38,1653.51 L2166.76,1651.1 L2166.13,1648.7 L2165.49,1646.31 L2164.77,1643.94 L2163.92,1641.63 L2162.87,1639.39 L2161.62,1637.27 L2160.15,1635.3 L2158.41,1633.55 L2156.49,1631.98 L2154.45,1630.56 L2152.34,1629.24 L2150.18,1628.02 L2148,1626.82 L2145.83,1625.64 L2143.65,1624.44 L2141.49,1623.2 L2139.38,1621.89 L2137.33,1620.49 L2135.4,1618.93 L2133.57,1617.27 L2131.74,1615.61 L2130,1613.84 L2128.32,1612.01 L2126.7,1610.15 L2125.08,1608.24 L2123.5,1606.33 L2121.91,1604.43 L2120.28,1602.55 L2118.6,1600.72 L2116.85,1598.95 L2115.03,1597.28 L2113.09,1595.71 L2111.04,1594.3 L2108.88,1593.11 L2106.64,1592.03 L2104.34,1591.09 L2101.99,1590.26 L2099.63,1589.5 L2097.23,1588.81 L2094.84,1588.17 L2092.43,1587.57 L2090,1587.01 L2087.58,1586.49 L2085.13,1585.99 L2082.69,1585.54 L2080.23,1585.1 L2077.79,1584.69 L2075.33,1584.32" vector-effect="none"/>
   <path fill-rule="evenodd" d="M2173.5,1797.92 L2173.28,1795.73 L2173.03,1793.25 L2172.78,1790.8 L2172.52,1788.32 L2172.22,1785.87 L2171.89,1783.41 L2171.53,1780.95 L2171.12,1778.51 L2170.65,1776.07 L2170.14,1773.64 L2169.53,1771.23 L2168.82,1768.86 L2167.95,1766.53 L2166.87,1764.31 L2165.47,1762.26 L2163.83,1760.41 L2162,1758.72 L2160.07,1757.16 L2158.08,1755.67 L2156.05,1754.24 L2154.01,1752.82 L2151.99,1751.38 L2150.01,1749.88 L2148.11,1748.28 L2146.37,1746.51 L2144.92,1744.49 L2144.01,1742.19 L2143.84,1739.73 L2144.29,1737.31 L2145.25,1735.02 L2146.5,1732.88 L2147.92,1730.84 L2149.46,1728.88 L2151.07,1727 L2152.71,1725.14 L2154.39,1723.29 L2156.05,1721.46 L2157.71,1719.6 L2159.34,1717.74 L2160.92,1715.81 L2162.42,1713.84 L2163.83,1711.8 L2165.13,1709.68 L2166.24,1707.47 L2167.16,1705.17 L2167.93,1702.8 L2168.57,1700.41 L2169.1,1697.98 L2169.57,1695.54 L2169.98,1693.1 L2170.34,1690.64 L2170.65,1688.18 L2170.94,1685.72 L2171.17,1683.25 L2171.39,1680.78 L2171.59,1678.3 L2171.75,1675.83 L2171.89,1673.36 L2172.02,1670.87 L2172.11,1668.39" vector-effect="none"/>
   <path fill-rule="evenodd" d="M2004.69,1981.58 L2004.64,1981.76 L2002.85,1983.45 L2000.98,1985.08 L1999.1,1986.69 L1997.2,1988.31 L1995.32,1989.94 L1993.46,1991.58 L1991.61,1993.22 L1989.77,1994.9 L1987.95,1996.59 L1986.17,1998.31 L1984.4,2000.06 L1982.69,2001.86 L1981.03,2003.71 L1979.5,2005.64 L1978,2007.61 L1976.56,2009.61 L1975.18,2011.68 L1973.91,2013.82 L1972.69,2015.98 L1971.51,2018.16 L1970.39,2020.37 L1969.29,2022.59 L1968.26,2024.84 L1967.27,2027.13 L1966.36,2029.43 L1965.52,2031.76 L1964.78,2034.13 L1964.16,2036.52 L1963.69,2038.96 L1963.45,2041.41 L1963.55,2043.85 L1964.11,2046.18 L1965.05,2048.36 L1966.4,2050.36 L1968.1,2052.11 L1970.04,2053.63 L1972.14,2054.96 L1974.35,2056.11 L1976.6,2057.14 L1978.92,2058.05 L1981.27,2058.86 L1983.65,2059.61 L1986.03,2060.27 L1988.44,2060.9 L1990.86,2061.46 L1993.29,2061.98 L1995.72,2062.45 L1998.19,2062.74 L2000.66,2062.84 L2003.15,2062.71 L2005.61,2062.41 L2008.07,2062.01 L2010.51,2061.52 L2012.94,2060.97 L2015.35,2060.4 L2017.76,2059.82 L2020.18,2059.25 L2022.61,2058.74 L2025.07,2058.33 L2027.53,2058.16 L2029.83,2058.56 L2031.42,2059.64 L2032.38,2060.94 L2033.02,2062.56 L2033.13,2064.7 L2032.63,2067 L2031.8,2069.3 L2030.83,2071.56 L2029.8,2073.8 L2028.72,2076.02 L2027.62,2078.26 L2026.54,2080.48 L2025.49,2082.73 L2024.49,2085 L2023.55,2087.29 L2022.72,2089.62 L2022.02,2092 L2021.44,2094.38 L2020.97,2096.79 L2020.61,2099.23 L2020.37,2101.68 L2020.29,2104.15 L2020.36,2106.62 L2020.51,2109.1 L2020.73,2111.57 L2021.03,2114.03 L2021.37,2116.49 L2021.77,2118.94 L2022.2,2121.38 L2022.66,2123.83 L2023.13,2126.25 L2023.61,2128.7 L2024.1,2131.12 L2024.57,2133.55 L2025.04,2135.99 L2025.48,2138.43 L2025.9,2140.87 L2026.29,2143.32 L2026.68,2145.77 L2027.06,2148.22 L2027.45,2150.67 L2027.89,2153.12 L2028.39,2155.54 L2028.97,2157.95 L2029.67,2160.32 L2030.52,2162.63 L2031.53,2164.89 L2032.75,2167.03 L2034.26,2169.02 L2035.98,2170.81 L2037.84,2172.45 L2039.81,2173.95 L2041.85,2175.38 L2043.93,2176.74 L2046.01,2178.07 L2048.1,2179.43 L2050.16,2180.81 L2052.2,2182.23 L2054.19,2183.72 L2056.17,2185.21 L2058.18,2186.69 L2060.17,2188.17 L2062.17,2189.64 L2064.17,2191.09 L2066.19,2192.57 L2067.39,2193.44" vector-effect="none"/>
   <path fill-rule="evenodd" d="M2510.21,1545.92 L2510.57,1545.35 L2512.22,1543.5 L2513.86,1541.64 L2515.44,1539.73 L2516.96,1537.76 L2518.35,1535.71 L2519.59,1533.55 L2520.48,1531.26 L2521,1528.84 L2521.23,1526.38 L2521.28,1523.91 L2521.03,1521.45 L2520.45,1519.04 L2519.48,1516.77 L2518.09,1514.72 L2516.36,1512.95 L2514.38,1511.46 L2512.23,1510.19 L2509.99,1509.13 L2507.69,1508.2 L2505.34,1507.39 L2502.96,1506.65 L2500.57,1506 L2498.16,1505.39 L2495.73,1504.84 L2493.29,1504.34 L2490.85,1503.87 L2488.41,1503.46 L2485.95,1503.07 L2483.47,1502.72 L2481.02,1502.43 L2478.54,1502.15 L2476.07,1501.93 L2473.58,1501.74 L2471.11,1501.58 L2468.62,1501.49 L2466.13,1501.43 L2463.64,1501.46 L2461.17,1501.58 L2458.69,1501.82 L2456.22,1502.1 L2453.76,1502.44 L2451.3,1502.83 L2448.85,1503.27 L2446.4,1503.73 L2443.96,1504.21 L2441.54,1504.73 L2439.11,1505.26 L2436.68,1505.81 L2434.26,1506.39 L2431.85,1506.97 L2429.44,1507.58 L2427.02,1508.2 L2424.63,1508.83 L2422.22,1509.49 L2419.82,1510.15 L2417.44,1510.83" vector-effect="none"/>
   <path fill-rule="evenodd" d="M2629.36,916.736 L2631.25,915.468 L2633.32,914.09 L2635.38,912.713 L2637.45,911.335 L2639.5,909.942 L2641.57,908.549 L2643.6,907.14 L2645.65,905.715 L2647.67,904.275 L2649.69,902.835 L2651.7,901.363 L2653.68,899.876 L2655.67,898.373 L2657.63,896.855 L2659.57,895.289 L2661.48,893.708 L2663.37,892.096 L2665.22,890.452 L2667.02,888.746 L2668.77,886.977 L2670.47,885.145 L2672.03,883.235 L2673.49,881.216 L2674.83,879.134 L2676.1,877.005 L2677.29,874.829 L2678.43,872.622 L2679.53,870.399 L2680.61,868.16 L2681.66,865.906 L2682.69,863.652 L2683.72,861.398 L2684.76,859.143 L2685.82,856.889 L2686.9,854.666 L2688.05,852.459 L2689.27,850.299 L2690.57,848.185 L2692.01,846.166 L2693.65,844.303 L2695.54,842.706 L2697.7,841.485 L2700.11,840.906 L2702.59,840.937 L2705.03,841.423 L2707.39,842.19 L2709.7,843.113 L2711.98,844.115 L2714.25,845.117 L2716.55,846.056 L2718.9,846.855 L2721.33,847.387 L2723.8,847.497 L2726.23,847.058 L2728.57,846.244 L2730.86,845.274 L2731.95,844.749" vector-effect="none"/>
   <path fill-rule="evenodd" d="M2283.9,1718.63 L2283,1716.55 L2282.05,1714.26 L2281.08,1711.98 L2280.08,1709.71 L2279.04,1707.45 L2277.96,1705.23 L2276.81,1703.04 L2275.57,1700.88 L2274.19,1698.81 L2272.63,1696.9 L2270.64,1695.43 L2268.29,1694.63 L2265.85,1694.24 L2263.36,1694.05 L2260.89,1693.97 L2258.4,1693.93 L2255.91,1693.8 L2253.45,1693.52 L2251.05,1692.86 L2249.03,1691.45 L2248.17,1689.17 L2248.42,1686.71 L2249.11,1684.33 L2250.02,1682.03 L2251.05,1679.78 L2252.17,1677.55 L2253.32,1675.36 L2254.51,1673.17 L2255.7,1671.01 L2256.91,1668.83 L2258.1,1666.64 L2259.26,1664.45 L2260.38,1662.24 L2261.46,1660 L2262.48,1657.75 L2263.41,1655.45 L2264.22,1653.1 L2264.89,1650.71 L2265.32,1648.26 L2265.53,1645.79 L2265.64,1643.32 L2265.69,1640.84 L2265.68,1638.35 L2265.61,1635.88 L2265.5,1633.41 L2265.36,1630.92 L2265.21,1628.45 L2265.02,1625.97 L2264.8,1623.5 L2264.56,1621.02 L2264.31,1618.57 L2264.05,1616.09 L2263.75,1613.64 L2263.45,1611.18 L2263.12,1608.72 L2262.78,1606.26" vector-effect="none"/>
   <path fill-rule="evenodd" d="M2368.85,994.115 L2368.82,994.1 L2368.68,994.006 L2367.26,995.242 L2365.6,997.09 L2363.92,998.921 L2362.26,1000.77 L2360.62,1002.62 L2358.98,1004.48 L2357.35,1006.36 L2355.73,1008.24 L2354.14,1010.15 L2352.56,1012.06 L2350.99,1013.98 L2349.46,1015.92 L2347.94,1017.89 L2346.47,1019.88 L2345.03,1021.9 L2343.65,1023.95 L2342.33,1026.05 L2341.11,1028.19 L2340,1030.4 L2338.98,1032.64 L2338.05,1034.91 L2337.2,1037.23 L2336.46,1039.59 L2335.81,1041.97 L2335.2,1044.38 L2334.65,1046.79 L2334.12,1049.22 L2333.62,1051.64 L2333.13,1054.07 L2332.64,1056.51 L2332.16,1058.94 L2331.63,1061.37 L2331.06,1063.78 L2330.42,1066.17 L2329.65,1068.52 L2328.72,1070.77 L2327.46,1072.79 L2325.88,1074.31 L2324.18,1075.31 L2322.34,1075.92 L2320.28,1076.11 L2318.01,1075.69 L2315.79,1074.69 L2313.69,1073.39 L2311.67,1071.92 L2309.73,1070.38 L2307.8,1068.82 L2305.88,1067.27 L2303.92,1065.75 L2301.92,1064.29 L2299.85,1062.96 L2297.69,1061.85 L2295.42,1060.94 L2293.07,1060.33 L2290.64,1060.04 L2288.19,1060.02 L2285.71,1060.25 L2283.27,1060.66 L2280.84,1061.19 L2278.42,1061.77 L2276.01,1062.37 L2273.58,1062.95 L2271.15,1063.43 L2268.7,1063.81 L2266.24,1063.98 L2263.78,1063.82 L2261.4,1063.23 L2259.34,1062.02 L2257.66,1060.27 L2256.47,1058.13 L2255.63,1055.79 L2255.01,1053.38 L2254.53,1050.96 L2254.15,1048.5 L2253.84,1046.04 L2253.54,1043.58 L2253.26,1041.11 L2252.98,1038.65 L2252.65,1036.19 L2252.29,1033.74 L2251.87,1031.29 L2251.35,1028.87 L2250.71,1026.47 L2249.91,1024.12 L2248.93,1021.85 L2247.72,1019.68 L2246.47,1017.55 L2245.11,1015.47 L2243.68,1013.45 L2242.16,1011.48 L2240.6,1009.55 L2239,1007.66 L2237.34,1005.81 L2235.67,1003.98 L2233.96,1002.16 L2232.24,1000.38 L2230.52,998.592 L2228.78,996.823 L2227.04,995.039 L2225.33,993.239 L2223.63,991.438 L2221.97,989.591 L2220.29,987.76 L2218.7,985.865 L2217.21,983.877 L2215.79,981.842 L2214.38,979.791 L2212.97,977.756 L2211.54,975.721 L2210.02,973.749 L2208.4,971.886 L2206.64,970.148 L2204.72,968.599 L2202.64,967.331 L2200.44,966.297 L2198.16,965.468 L2195.81,964.826 L2193.4,964.325 L2190.97,963.949 L2188.52,963.636 L2186.04,963.354 L2183.58,963.057 L2181.11,962.713 L2178.67,962.306 L2176.23,961.805 L2173.82,961.225 L2171.42,960.552 L2169.04,959.832 L2166.69,959.049 L2164.34,958.235 L2162,957.39 L2159.66,956.545 L2157.32,955.699 L2154.98,954.87 L2152.62,954.071 L2150.26,953.32 L2147.88,952.616 L2145.48,951.989 L2143.05,951.441 L2140.63,951.003 L2138.17,950.737 L2135.73,950.596 L2133.27,950.596 L2130.81,950.706 L2128.36,950.972 L2125.91,951.41 L2123.49,951.958 L2121.09,952.6 L2118.7,953.273 L2116.32,953.977 L2113.94,954.698 L2111.56,955.371 L2109.16,955.997 L2106.75,956.545 L2104.33,956.936 L2101.9,957.108 L2099.47,956.967 L2097.16,956.357 L2095.11,955.136 L2093.48,953.32 L2092.3,951.175 L2091.49,948.827 L2090.91,946.416 L2090.49,943.974 L2090.17,941.517 L2089.92,939.043 L2089.7,936.57 L2089.47,934.112 L2089.24,931.639 L2088.97,929.181 L2088.62,926.723 L2088.19,924.281 L2087.59,921.87 L2086.82,919.507 L2085.78,917.268 L2084.4,915.202 L2082.9,913.229 L2081.3,911.319 L2079.64,909.488 L2077.9,907.703 L2076.15,905.95 L2074.35,904.228 L2072.55,902.522 L2070.75,900.815 L2068.95,899.093 L2067.19,897.34 L2065.46,895.571 L2063.78,893.74 L2062.15,891.861 L2060.6,889.92 L2059.13,887.932 L2057.66,885.912 L2056.24,883.893 L2054.83,881.842 L2053.45,879.776 L2052.09,877.709 L2050.73,875.627 L2049.4,873.53 L2048.06,871.432 L2046.73,869.334 L2045.42,867.237 L2044.1,865.123 L2042.8,863.01 L2041.51,860.897 L2041.27,860.512" vector-effect="none"/>
   <path fill-rule="evenodd" d="M1879.03,1917.42 L1879,1917.42 L1878.62,1915.98 L1878.61,1913.53 L1878.68,1911.04 L1878.79,1908.56 L1878.9,1906.09 L1878.98,1903.6 L1879.04,1901.13 L1879.08,1898.64 L1879.04,1896.17 L1878.93,1893.69 L1878.65,1891.23 L1878.18,1888.84 L1877.57,1886.46 L1876.82,1884.14 L1875.91,1881.87 L1874.85,1879.65 L1873.64,1877.49 L1872.34,1875.39 L1870.97,1873.34 L1869.54,1871.31 L1868.1,1869.27 L1866.68,1867.24 L1865.3,1865.19 L1864,1863.09 L1862.83,1860.93 L1861.81,1858.72 L1860.99,1856.43 L1860.35,1854.12 L1859.88,1851.75 L1859.63,1849.34 L1859.55,1846.9 L1859.62,1844.44 L1859.79,1841.97 L1860.02,1839.51 L1860.29,1837.04 L1860.54,1834.58 L1860.73,1832.11 L1860.82,1829.63 L1860.76,1827.18 L1860.51,1824.75 L1860.1,1822.36 L1859.55,1819.98 L1858.82,1817.63 L1857.91,1815.34 L1856.85,1813.1 L1855.67,1810.93 L1854.4,1808.8 L1853.07,1806.7 L1851.66,1804.65 L1850.21,1802.65 L1848.69,1800.69 L1847.13,1798.75 L1845.53,1796.87 L1843.87,1795.02 L1842.18,1793.19 L1840.49,1791.38 L1838.75,1789.61 L1836.95,1787.92 L1835.09,1786.27 L1833.16,1784.71 L1831.14,1783.27 L1829.03,1781.98 L1826.79,1780.93 L1824.46,1780.17 L1822.03,1779.67 L1819.56,1779.81 L1817.12,1780.29 L1816.13,1780.57" vector-effect="none"/>
   <path fill-rule="evenodd" d="M2269.18,2050 L2269.34,2050.35 L2271.37,2051.77 L2273.41,2053.19 L2275.44,2054.62 L2277.51,2056.01 L2279.58,2057.39 L2281.66,2058.74 L2283.76,2060.05 L2285.89,2061.33 L2288.05,2062.57 L2290.24,2063.75 L2292.46,2064.84 L2294.73,2065.83 L2297.08,2066.64 L2299.47,2067.21 L2301.92,2067.52 L2304.39,2067.58 L2306.86,2067.46 L2309.34,2067.19 L2311.79,2066.83 L2314.25,2066.42 L2316.69,2066 L2319.15,2065.58 L2321.61,2065.22 L2324.08,2064.94 L2326.56,2064.81 L2329.03,2064.95 L2331.44,2065.47 L2333.55,2066.64 L2335.23,2068.41 L2336.45,2070.54 L2337.29,2072.86 L2337.9,2075.27 L2338.34,2077.71 L2338.69,2080.17 L2338.98,2082.62 L2339.27,2085.08 L2339.56,2087.56 L2339.91,2090.01 L2340.35,2092.46 L2340.91,2094.87 L2341.63,2097.23 L2342.6,2099.52 L2343.85,2101.64 L2345.31,2103.63 L2347,2105.45 L2348.83,2107.12 L2350.76,2108.69 L2352.74,2110.18 L2354.78,2111.62 L2356.83,2113.01 L2358.88,2114.42 L2360.92,2115.84 L2362.92,2117.3 L2364.85,2118.86 L2366.65,2120.59 L2368.16,2122.54 L2369.07,2124.84 L2368.95,2127.29 L2367.84,2129.49 L2366.27,2131.4 L2364.47,2133.13 L2362.58,2134.72 L2360.63,2136.29 L2358.71,2137.84 L2356.8,2139.42 L2354.95,2141.08 L2353.21,2142.86 L2351.68,2144.8 L2350.61,2146.7" vector-effect="none"/>
   <path fill-rule="evenodd" d="M2445.59,1397.43 L2445.58,1397.45 L2445.51,1397.53 L2445.42,1397.64 L2445.26,1397.81 L2445.06,1398.04 L2444.76,1398.36 L2444.34,1398.78 L2443.67,1399.34 L2442.62,1400.11 L2442.71,1401.88 L2443.05,1403.66 L2443.23,1405.35 L2443.31,1406.97 L2443.34,1408.53 L2443.35,1410.1 L2443.34,1411.66 L2443.34,1413.26 L2443.35,1414.9 L2443.4,1416.61 L2443.52,1418.43 L2443.74,1420.34 L2444.12,1422.39 L2444.57,1424.52 L2445.11,1426.72 L2445.61,1429.04 L2445.81,1431.5 L2445.56,1433.94 L2444.96,1436.23 L2444.2,1438.39 L2443.31,1440.44 L2442.33,1442.42 L2441.29,1444.38 L2440.16,1446.32 L2438.97,1448.26 L2437.7,1450.2 L2436.46,1452.19 L2435.29,1454.24 L2434.21,1456.39 L2433.32,1458.67 L2432.66,1461.05 L2432.11,1463.48 L2431.69,1465.92 L2431.31,1468.36 L2430.99,1470.79 L2430.66,1473.23 L2430.31,1475.64 L2429.92,1478.05 L2429.47,1480.46 L2428.92,1482.84 L2428.26,1485.21 L2427.48,1487.52 L2426.54,1489.78 L2425.51,1491.99 L2424.35,1494.08 L2423.06,1496.04 L2421.67,1497.83 L2420.2,1499.48 L2418.68,1501.02 L2417.12,1502.46 L2415.52,1503.84 L2413.89,1505.17 L2412.23,1506.47 L2410.54,1507.75 L2408.8,1509.02 L2407.03,1510.29 L2405.2,1511.57 L2403.31,1512.88 L2401.35,1514.2 L2399.33,1515.55 L2397.25,1516.88 L2395.09,1518.08 L2392.9,1519.22 L2390.72,1520.32 L2388.58,1521.37 L2386.46,1522.39 L2384.37,1523.39 L2382.28,1524.37 L2380.22,1525.36 L2378.15,1526.35 L2376.07,1527.35 L2373.99,1528.37 L2371.89,1529.42 L2369.76,1530.5 L2367.6,1531.61 L2365.42,1532.78 L2363.28,1534.02 L2361.12,1535.16 L2358.96,1536.1 L2356.86,1536.77 L2354.84,1537.26 L2352.92,1537.63 L2351.05,1537.92 L2349.22,1538.17 L2347.39,1538.37 L2345.56,1538.54 L2343.7,1538.7 L2341.79,1538.81 L2339.77,1538.87 L2337.64,1538.86 L2335.35,1538.7 L2332.96,1538.35 L2330.53,1537.88 L2328.15,1537.4 L2325.85,1536.88 L2323.63,1536.37 L2321.45,1535.85 L2319.32,1535.35 L2317.21,1534.88 L2315.1,1534.39 L2312.95,1533.94 L2310.78,1533.5 L2308.54,1533.08 L2306.2,1532.72 L2303.79,1532.47 L2301.32,1532.28 L2298.85,1532.03 L2296.4,1531.72 L2294.03,1531.34 L2291.71,1530.84 L2289.47,1530.25 L2287.29,1529.56 L2285.17,1528.81 L2283.07,1527.94 L2281,1526.99 L2278.95,1525.88 L2276.95,1524.61 L2275.01,1523.17 L2273.13,1521.57 L2271.34,1519.85 L2269.59,1518.1 L2267.84,1516.34 L2266.08,1514.62 L2264.27,1512.98 L2262.42,1511.4 L2260.54,1509.85 L2258.63,1508.38 L2256.67,1506.97 L2254.64,1505.65 L2252.54,1504.43 L2250.37,1503.34 L2248.11,1502.38 L2245.79,1501.57 L2243.46,1500.82 L2241.1,1500.14 L2238.73,1499.55 L2236.34,1499.03 L2233.94,1498.59 L2231.55,1498.23 L2229.14,1497.93 L2226.71,1497.7 L2224.3,1497.54 L2221.87,1497.47 L2219.45,1497.45 L2217.04,1497.5 L2214.61,1497.62 L2212.2,1497.83 L2209.79,1498.09 L2207.38,1498.45 L2205,1498.89 L2202.62,1499.41 L2200.26,1500 L2197.92,1500.67 L2195.64,1501.47 L2193.4,1502.33 L2191.19,1503.27 L2189.02,1504.26 L2186.87,1505.31 L2184.73,1506.39 L2182.61,1507.5 L2180.5,1508.63 L2178.39,1509.79 L2176.29,1510.96 L2174.18,1512.15 L2172.06,1513.35 L2169.92,1514.54 L2167.77,1515.72 L2165.58,1516.88 L2163.37,1517.99 L2161.14,1519.07 L2158.88,1520.02 L2156.64,1520.87 L2154.42,1521.62 L2152.24,1522.32 L2150.1,1522.97 L2147.95,1523.61 L2145.84,1524.27 L2143.73,1524.95 L2141.58,1525.72 L2139.45,1526.61 L2137.31,1527.71 L2135.2,1528.93 L2133.08,1530.2 L2130.95,1531.47 L2128.81,1532.72 L2126.65,1533.91 L2124.47,1535.05 L2122.3,1536.04 L2120.15,1536.9 L2118.05,1537.68 L2115.99,1538.39 L2113.97,1539.09 L2111.98,1539.81 L2110.06,1540.64 L2108.24,1541.63 L2106.5,1542.8 L2104.83,1544.18 L2103.23,1545.73 L2101.68,1547.39 L2100.18,1549.11 L2098.69,1550.86 L2097.23,1552.68 L2095.79,1554.51 L2094.34,1556.37 L2092.88,1558.25 L2091.41,1560.13 L2089.91,1562.02 L2088.34,1563.9 L2086.7,1565.73 L2084.95,1567.47 L2083,1568.99 L2080.92,1570.16 L2078.84,1570.92 L2076.87,1571.42 L2075.01,1571.78 L2073.28,1572.14 L2071.75,1572.51 L2070.36,1572.9 L2069.07,1573.31 L2067.85,1573.72 L2066.68,1574.14 L2065.5,1574.56 L2064.3,1574.99 L2062.97,1575.41 L2061.17,1575.55 L2059.05,1574.37 L2057.27,1572.73 L2055.56,1571.07 L2053.86,1569.49 L2052.12,1568 L2050.35,1566.61 L2048.55,1565.31 L2046.67,1564.07 L2044.68,1562.96 L2042.54,1562.01 L2040.16,1561.44 L2037.7,1561.12 L2035.21,1560.93 L2032.74,1560.8 L2030.27,1560.68 L2027.82,1560.49 L2025.4,1560.18 L2023.03,1559.66 L2020.79,1558.86 L2018.74,1557.69 L2017.01,1556.03 L2015.97,1553.81 L2015.58,1551.38 L2015.53,1548.92 L2015.66,1546.49 L2015.85,1544.05 L2016.08,1541.59 L2016.29,1539.15 L2016.43,1536.68 L2016.46,1534.21 L2016.35,1531.72 L2016.07,1529.26 L2015.58,1526.85 L2014.99,1524.47 L2014.28,1522.09 L2013.42,1519.77 L2012.51,1517.47 L2011.53,1515.19 L2010.46,1512.95 L2009.3,1510.76 L2008.04,1508.61 L2006.64,1506.56 L2005.14,1504.6 L2003.53,1502.74 L2001.81,1500.97 L1999.97,1499.37 L1998.03,1497.9 L1996.01,1496.56 L1993.93,1495.3 L1991.8,1494.16 L1989.6,1493.11 L1987.37,1492.13 L1985.1,1491.22 L1982.79,1490.37 L1980.47,1489.59 L1978.12,1488.87 L1975.74,1488.18 L1973.36,1487.52 L1970.97,1487.01 L1968.56,1486.65 L1966.13,1486.35 L1963.7,1486.13 L1961.28,1485.97 L1958.85,1485.85 L1956.42,1485.76 L1954,1485.71 L1951.56,1485.66 L1949.1,1485.66 L1946.66,1485.66 L1944.2,1485.68 L1941.72,1485.72 L1939.25,1485.79 L1936.78,1485.96 L1934.3,1486.23 L1931.86,1486.54 L1929.44,1486.84 L1927.04,1487.09 L1924.71,1487.24 L1922.47,1487.23 L1920.43,1486.95 L1918.6,1486.48 L1916.96,1485.88 L1915.41,1485.16 L1913.92,1484.19 L1912.69,1482.42 L1912.53,1479.98 L1912.84,1477.57 L1913.3,1475.19 L1913.81,1472.83 L1914.34,1470.46 L1914.88,1468.1 L1915.36,1465.7 L1915.79,1463.29 L1916.11,1460.85 L1916.3,1458.39 L1916.29,1455.9 L1916.02,1453.45 L1915.58,1451.02 L1914.99,1448.62 L1914.98,1448.59" vector-effect="none"/>
   <path fill-rule="evenodd" d="M2729.76,1448.78 L2731.66,1447.29 L2733.6,1445.74 L2735.53,1444.18 L2737.43,1442.58 L2739.33,1440.98 L2741.22,1439.37 L2743.1,1437.74 L2744.95,1436.1 L2746.8,1434.44 L2748.63,1432.75 L2750.43,1431.04 L2752.2,1429.31 L2753.95,1427.54 L2755.66,1425.75 L2757.33,1423.91 L2758.94,1422.01 L2760.46,1420.05 L2761.87,1418 L2763.05,1415.83 L2764.05,1413.56 L2764.91,1411.24 L2765.64,1408.86 L2766.29,1406.47 L2766.87,1404.06 L2767.4,1401.63 L2767.88,1399.2 L2768.37,1396.76 L2768.85,1394.33 L2769.37,1391.91 L2769.93,1389.5 L2770.58,1387.09 L2771.34,1384.74 L2772.27,1382.44 L2773.44,1380.25 L2774.93,1378.27 L2776.81,1376.68 L2779.11,1375.71 L2781.53,1375.25 L2784.02,1375.17 L2786.5,1375.36 L2788.95,1375.72 L2791.38,1376.22 L2793.81,1376.79 L2796.22,1377.4 L2798.61,1378.04 L2801.02,1378.66 L2803.43,1379.24 L2805.88,1379.78 L2808.32,1380.2 L2810.79,1380.48 L2813.28,1380.56 L2815.75,1380.39 L2818.2,1379.98 L2820.61,1379.38 L2822.99,1378.66 L2825.32,1377.8 L2827.62,1376.83 L2829.87,1375.8 L2832.1,1374.69 L2834.29,1373.53 L2836.48,1372.36 L2838.67,1371.18 L2840.86,1370.01 L2843.07,1368.86 L2845.29,1367.77 L2847.55,1366.7 L2849.83,1365.72 L2852.13,1364.81 L2854.48,1363.98 L2856.85,1363.21 L2859.23,1362.49 L2861.62,1361.82 L2864.02,1361.16 L2866.43,1360.54 L2868.84,1359.91 L2871.23,1359.28 L2873.64,1358.66 L2876.04,1358.02 L2878.45,1357.34 L2880.83,1356.67 L2883.21,1355.95 L2885.57,1355.18 L2887.94,1354.38 L2890.27,1353.52 L2892.57,1352.6 L2894.86,1351.61 L2897.09,1350.53 L2899.29,1349.37 L2901.46,1348.15 L2903.59,1346.87 L2905.67,1345.52 L2907.72,1344.13 L2909.74,1342.67 L2911.73,1341.19 L2913.69,1339.65 L2915.61,1338.09 L2917.52,1336.49 L2919.4,1334.86 L2921.25,1333.2 L2923.06,1331.51 L2924.86,1329.81 L2926.65,1328.07 L2928.4,1326.32 L2930.12,1324.53 L2931.83,1322.72 L2933.51,1320.9 L2935.17,1319.04 L2936.79,1317.16 L2938.39,1315.28 L2939.97,1313.35 L2941.52,1311.43 L2943.04,1309.46 L2944.49,1307.45 L2945.9,1305.4 L2947.23,1303.3 L2948.47,1301.16 L2949.6,1298.95 L2950.62,1296.68 L2951.49,1294.37 L2952.23,1292 L2952.79,1289.59 L2953.1,1287.15 L2953.15,1284.69 L2952.93,1282.23 L2952.56,1279.78 L2952.06,1277.35 L2951.48,1274.94 L2950.87,1272.53 L2950.26,1270.13 L2949.69,1267.71 L2949.21,1265.28 L2948.89,1262.82 L2948.91,1260.35 L2949.58,1257.98 L2951.32,1256.28 L2953.7,1255.68 L2956.19,1255.68 L2958.65,1255.93 L2961.1,1256.31 L2963.55,1256.72 L2966,1257.12 L2968.46,1257.47 L2970.94,1257.67 L2973.42,1257.67 L2975.88,1257.34 L2978.28,1256.73 L2979,1256.41" vector-effect="none"/>
   <path fill-rule="evenodd" d="M2852.12,1488.79 L2853.43,1488.81 L2855.88,1489.22 L2858.32,1489.7 L2860.74,1490.19 L2863.19,1490.67 L2865.63,1491.14 L2868.07,1491.61 L2870.51,1492.06 L2872.97,1492.49 L2875.41,1492.89 L2877.87,1493.27 L2880.34,1493.63 L2882.8,1493.93 L2885.27,1494.19 L2887.76,1494.4 L2890.24,1494.52 L2892.73,1494.55 L2895.2,1494.43 L2897.66,1494.07 L2900.08,1493.49 L2902.45,1492.74 L2904.78,1491.89 L2907.08,1490.95 L2909.37,1489.95 L2911.62,1488.9 L2913.86,1487.84 L2916.1,1486.74 L2918.34,1485.66 L2920.58,1484.6 L2922.85,1483.58 L2925.13,1482.61 L2927.46,1481.76 L2929.86,1481.09 L2932.32,1480.78 L2934.71,1481.12 L2936.71,1482.34 L2937.95,1484.36 L2938.42,1486.76 L2938.45,1489.22 L2938.25,1491.69 L2937.94,1494.15 L2937.54,1496.59 L2937.14,1499.05 L2936.71,1501.49 L2936.31,1503.93 L2935.95,1506.39 L2935.63,1508.85 L2935.43,1511.32 L2935.37,1513.79 L2935.49,1516.28 L2935.89,1518.72 L2936.57,1521.09 L2937.51,1523.37 L2938.66,1525.56 L2939.99,1527.66 L2941.41,1529.7 L2942.91,1531.67 L2944.46,1533.6 L2946.04,1535.52 L2947.61,1537.45 L2949.14,1539.4 L2950.62,1541.41 L2951.98,1543.47 L2953.17,1545.63 L2954.11,1547.92 L2954.67,1550.3 L2954.76,1552.71 L2954.36,1555.1 L2953.48,1557.37 L2952.24,1559.5 L2950.77,1561.49 L2949.16,1563.35 L2947.45,1565.15 L2945.68,1566.89 L2943.88,1568.6 L2942.07,1570.3 L2940.27,1572.01 L2938.48,1573.75 L2936.76,1575.53 L2935.1,1577.38 L2933.55,1579.32 L2932.16,1581.36 L2930.91,1583.49 L2929.81,1585.69 L2928.89,1587.99 L2928.14,1590.36 L2927.51,1592.75 L2926.98,1595.18 L2926.54,1597.62 L2926.16,1600.08 L2925.84,1602.54 L2925.55,1604.99 L2925.29,1607.47 L2925.05,1609.93 L2924.8,1612.4 L2924.55,1614.87 L2924.25,1617.33 L2923.91,1619.79 L2923.44,1622.21 L2922.81,1624.58 L2922.02,1626.9 L2920.86,1629.07 L2919.51,1631.15 L2918.07,1633.16 L2916.61,1635.18 L2915.62,1636.82" vector-effect="none"/>
   <path fill-rule="evenodd" d="M2010.6,1868.9 L2010.59,1868.9 L2010.38,1867.93 L2010.63,1865.48 L2011.01,1863.04 L2011.42,1860.6 L2011.82,1858.14 L2012.23,1855.7 L2012.59,1853.24 L2012.94,1850.78 L2013.25,1848.33 L2013.48,1845.85 L2013.67,1843.38 L2013.77,1840.91 L2013.73,1838.43 L2013.62,1835.96 L2013.45,1833.49 L2013.16,1831.03 L2012.75,1828.57 L2012.26,1826.14 L2011.73,1823.72 L2011.1,1821.32 L2010.4,1818.94 L2009.6,1816.59 L2008.71,1814.28 L2007.74,1811.99 L2006.66,1809.75 L2005.48,1807.56 L2004.23,1805.42 L2002.9,1803.34 L2001.49,1801.28 L2000.02,1799.28 L1998.52,1797.31 L1996.97,1795.37 L1995.37,1793.47 L1993.71,1791.61 L1992.02,1789.81 L1990.27,1788.04 L1988.48,1786.32 L1986.67,1784.61 L1984.82,1782.95 L1982.96,1781.33 L1981.05,1779.73 L1979.14,1778.15 L1977.2,1776.6 L1975.22,1775.06 L1973.25,1773.58 L1971.25,1772.09 L1969.23,1770.65 L1967.19,1769.22 L1965.14,1767.82 L1963.08,1766.44 L1960.99,1765.09 L1958.9,1763.76 L1956.77,1762.48 L1954.59,1761.26 L1952.37,1760.16 L1950.1,1759.14 L1947.8,1758.2 L1945.48,1757.33 L1943.13,1756.51 L1940.77,1755.73 L1938.39,1754.99 L1936.01,1754.29 L1933.62,1753.62 L1931.22,1752.94 L1928.83,1752.29 L1926.43,1751.63 L1924.03,1750.97 L1921.64,1750.3 L1919.24,1749.61 L1916.87,1748.89 L1914.5,1748.14 L1912.15,1747.32 L1909.82,1746.46 L1907.54,1745.49 L1905.3,1744.41 L1903.15,1743.19 L1901.09,1741.81 L1899.22,1740.17 L1897.63,1738.28 L1896.3,1736.18 L1895.23,1733.96 L1894.35,1731.64 L1893.6,1729.27 L1892.9,1726.9 L1892.16,1724.53 L1891.29,1722.21 L1890.17,1719.99 L1888.77,1717.97 L1886.97,1716.28 L1884.93,1714.87 L1882.77,1713.64 L1880.55,1712.54 L1878.28,1711.51 L1876.98,1710.97" vector-effect="none"/>
   <path fill-rule="evenodd" d="M2201.65,1440.3 L2201.82,1438.46 L2202.21,1436.02 L2202.6,1433.58 L2203,1431.12 L2203.36,1428.66 L2203.7,1426.21 L2204.01,1423.75 L2204.29,1421.29 L2204.53,1418.82 L2204.73,1416.34 L2204.87,1413.87 L2204.94,1411.38 L2204.91,1408.91 L2204.75,1406.44 L2204.4,1403.98 L2203.86,1401.57 L2203.06,1399.2 L2202.09,1396.92 L2200.99,1394.71 L2199.79,1392.53 L2198.52,1390.39 L2197.22,1388.29 L2195.9,1386.18 L2194.59,1384.07 L2193.32,1381.94 L2192.1,1379.78 L2191,1377.55 L2190.05,1375.27 L2189.31,1372.9 L2188.86,1370.46 L2188.78,1367.97 L2189,1365.51 L2189.44,1363.07 L2190.05,1360.66 L2190.77,1358.28 L2191.52,1355.92 L2192.24,1353.55 L2192.91,1351.16 L2193.43,1348.73 L2193.73,1346.28 L2193.71,1343.8 L2193.23,1341.38 L2192.27,1339.09 L2190.99,1336.96 L2189.53,1334.96 L2187.94,1333.05 L2186.29,1331.18 L2184.66,1329.31 L2183.08,1327.4 L2181.61,1325.41 L2180.33,1323.28 L2179.34,1320.99 L2178.78,1318.58 L2178.67,1316.11 L2178.98,1313.65 L2179.59,1311.26 L2180.42,1308.92 L2181.39,1306.64 L2182.46,1304.4 L2183.6,1302.19 L2184.76,1300 L2185.93,1297.81 L2187.11,1295.62 L2188.25,1293.43 L2189.34,1291.19 L2190.38,1288.93 L2191.3,1286.63 L2192.08,1284.28 L2192.71,1281.87 L2193.01,1279.81" vector-effect="none"/>
   <path fill-rule="evenodd" d="M2942.63,1375.22 L2944.95,1375.25 L2947.42,1375.41 L2949.91,1375.6 L2952.38,1375.78 L2954.87,1375.92 L2957.35,1376.05 L2959.84,1376.11 L2962.33,1376.13 L2964.81,1376.05 L2967.29,1375.85 L2969.75,1375.47 L2972.14,1374.8 L2974.41,1373.83 L2976.48,1372.47 L2978.37,1370.85 L2980.12,1369.08 L2981.78,1367.25 L2983.41,1365.37 L2985.06,1363.51 L2986.75,1361.69 L2988.53,1359.97 L2990.49,1358.44 L2992.66,1357.25 L2995.04,1356.56 L2997.52,1356.76 L2999.91,1357.45 L3002.18,1358.44 L3004.37,1359.61 L3006.5,1360.9 L3008.57,1362.27 L3010.62,1363.68 L3012.65,1365.11 L3014.69,1366.53 L3016.76,1367.93 L3018.85,1369.26 L3021,1370.51 L3023.21,1371.64 L3025.51,1372.57 L3027.9,1373.26 L3030.33,1373.76 L3032.8,1374.09 L3035.27,1374.28 L3037.76,1374.36 L3040.25,1374.34 L3041.79,1374.29" vector-effect="none"/>
   <path fill-rule="evenodd" d="M1716.1,1890.45 L1713.98,1891.55 L1711.67,1892.44 L1709.34,1893.32 L1707.03,1894.26 L1704.76,1895.26 L1702.56,1896.4 L1700.46,1897.73 L1698.64,1899.39 L1697.49,1901.55 L1697.16,1903.99 L1697.25,1906.47 L1697.53,1908.92 L1697.83,1911.38 L1698,1913.86 L1697.89,1916.33 L1697.2,1918.69 L1695.97,1920.84 L1694.39,1922.75 L1692.6,1924.48 L1690.75,1926.13 L1688.89,1927.77 L1687.11,1929.49 L1685.49,1931.37 L1684.29,1933.5 L1683.63,1935.85 L1683.9,1938.31 L1684.62,1940.67 L1685.56,1942.96 L1686.62,1945.2 L1687.72,1947.42 L1688.78,1949.64 L1689.67,1951.94 L1689.8,1954.37 L1687.64,1955.12 L1685.23,1954.6 L1682.9,1953.74 L1680.63,1952.76 L1678.36,1951.74 L1676.1,1950.69 L1673.85,1949.64 L1671.58,1948.62 L1669.29,1947.67 L1666.97,1946.78 L1664.61,1945.99 L1662.2,1945.38 L1659.74,1945.05 L1657.25,1945.2 L1656.46,1945.33" vector-effect="none"/>
   <path fill-rule="evenodd" d="M1719.43,1942.96 L1719.07,1944.16 L1717.9,1946.34 L1716.65,1948.47 L1715.38,1950.61 L1714.13,1952.74 L1712.89,1954.9 L1711.68,1957.06 L1710.51,1959.25 L1709.38,1961.46 L1708.33,1963.71 L1707.38,1966 L1706.56,1968.35 L1706.02,1970.76 L1705.91,1973.23 L1706.03,1975.71 L1706.39,1978.16 L1706.89,1980.59 L1707.49,1983 L1708.13,1985.4 L1708.8,1987.79 L1709.43,1990.19 L1710.01,1992.6 L1710.48,1995.04 L1710.84,1997.48 L1711.06,1999.95 L1711.18,2002.43 L1711.14,2004.9 L1710.99,2007.37 L1710.81,2009.85 L1710.57,2012.32 L1710.29,2014.79 L1710.01,2017.25 L1709.73,2019.73 L1709.45,2022.18 L1709.18,2024.66 L1708.93,2027.11 L1708.73,2029.59 L1708.57,2032.06 L1708.46,2034.55 L1708.43,2037.02 L1708.49,2039.51 L1708.65,2041.99 L1708.86,2043.83" vector-effect="none"/>
   <path fill-rule="evenodd" d="M669.214,444.272 L669.229,444.272 L670.169,446.15 L670.951,448.499 L671.734,450.847 L672.548,453.195 L673.425,455.512 L674.427,457.782 L675.616,459.958 L677.291,461.726 L679.295,463.12 L681.549,464.09 L683.976,464.623 L686.434,464.936 L688.907,465.186 L691.365,465.499 L693.807,465.922 L696.217,466.501 L698.566,467.315 L700.851,468.27 L703.105,469.319 L705.328,470.43 L707.551,471.557 L709.758,472.7 L711.966,473.827 L714.189,474.939 L716.443,476.003 L718.713,477.021 L720.998,477.976 L723.331,478.821 L725.71,479.572 L728.121,480.167 L730.563,480.59 L733.036,480.887 L733.316,480.898" vector-effect="none"/>
   <path fill-rule="evenodd" d="M2811.7,1301.03 L2812.25,1300.52 L2814.22,1299.03 L2816.19,1297.51 L2818.15,1295.98 L2820.04,1294.38 L2821.91,1292.74 L2823.71,1291.02 L2825.4,1289.2 L2826.92,1287.24 L2828.12,1285.08 L2828.83,1282.72 L2829.11,1280.26 L2829.14,1277.79 L2829.01,1275.3 L2828.79,1272.84 L2828.51,1270.37 L2828.21,1267.91 L2827.93,1265.44 L2827.81,1262.98 L2828.64,1261.54 L2829.73,1261.38 L2831.5,1262.82 L2833,1264.78 L2834.48,1266.8 L2835.98,1268.77 L2837.65,1270.59 L2839.6,1272.01 L2841.71,1273.17 L2844.07,1273.76 L2846.55,1273.87 L2848.97,1273.62 L2851.34,1272.95 L2853.54,1271.82 L2855.53,1270.35 L2857.32,1268.63 L2858.9,1266.7 L2860.26,1264.64 L2861.53,1262.51 L2862.73,1260.33 L2863.89,1258.14 L2865,1255.92 L2866.08,1253.68 L2867.12,1251.43 L2868.13,1249.17 L2869.12,1246.89 L2870.07,1244.6 L2871.01,1242.3 L2871.92,1239.98 L2872.8,1237.67 L2873.66,1235.33 L2874.49,1233 L2875.29,1230.65 L2876.05,1228.29 L2876.79,1225.92 L2877.49,1223.55 L2878.15,1221.15 L2878.76,1218.74 L2879.28,1216.31 L2879.72,1213.87 L2880.06,1211.41 L2880.11,1211.02" vector-effect="none"/>
   <path fill-rule="evenodd" d="M2984.87,1448.87 L2986.71,1448.59 L2989.2,1448.55 L2991.68,1448.56 L2994.17,1448.58 L2996.66,1448.59 L2999.14,1448.58 L3001.63,1448.56 L3004.12,1448.5 L3006.6,1448.4 L3009.08,1448.26 L3011.56,1448.06 L3014.03,1447.76 L3016.49,1447.36 L3018.88,1446.75 L3021.12,1445.66 L3023.24,1444.35 L3025.24,1442.89 L3027.18,1441.33 L3029.04,1439.7 L3030.88,1438.01 L3032.69,1436.32 L3034.49,1434.61 L3036.32,1432.94 L3038.2,1431.29 L3040.14,1429.74 L3042.18,1428.34 L3044.37,1427.16 L3046.72,1426.39 L3049.18,1426.24 L3051.63,1426.6 L3054.01,1427.3 L3056.33,1428.23 L3058.58,1429.24 L3060.87,1430.25 L3063.19,1431.12 L3065.61,1431.65 L3066.64,1431.63" vector-effect="none"/>
   <path fill-rule="evenodd" d="M687.936,383.533 L687.921,383.549 L687.858,383.58 L687.42,383.439 L685.98,381.467 L684.696,379.338 L683.428,377.224 L682.097,375.127 L680.688,373.092 L679.154,371.166 L677.495,369.397 L675.71,367.769 L673.832,366.266 L671.844,364.904 L669.73,363.715 L667.523,362.634 L665.238,361.711 L662.905,360.881 L660.541,360.145 L658.162,359.441 L655.767,358.736 L653.372,358.095 L650.961,357.468 L648.566,356.827 L646.171,356.169 L643.775,355.512 L641.38,354.886 L638.954,354.338 L636.527,353.931 L634.085,353.727 L631.706,353.837 L629.389,354.291 L627.166,355.089 L625.053,356.247 L623.096,357.672 L621.327,359.41 L619.73,361.304 L618.243,363.292 L616.819,365.327 L615.347,367.315 L613.86,369.303 L612.373,371.276 L610.839,373.232 L609.336,375.221 L607.911,377.24 L606.581,379.338 L605.36,381.498 L604.311,383.736 L603.497,386.069 L603.2,387.603" vector-effect="none"/>
   <path fill-rule="evenodd" d="M1863.42,2081.45 L1862.11,2080.93 L1859.87,2079.84 L1857.64,2078.74 L1855.42,2077.65 L1853.18,2076.57 L1850.93,2075.49 L1848.69,2074.45 L1846.42,2073.42 L1844.14,2072.43 L1841.85,2071.46 L1839.55,2070.54 L1837.22,2069.66 L1834.87,2068.85 L1832.49,2068.11 L1830.08,2067.5 L1827.65,2067 L1825.19,2066.66 L1822.7,2066.49 L1820.22,2066.49 L1817.74,2066.61 L1815.25,2066.85 L1812.8,2067.16 L1810.34,2067.52 L1807.88,2067.94 L1805.44,2068.38 L1803,2068.82 L1800.54,2069.26 L1798.1,2069.68 L1795.62,2070.04 L1793.16,2070.32 L1790.68,2070.51 L1788.2,2070.56 L1785.71,2070.57 L1783.22,2070.46 L1780.75,2070.27 L1778.28,2070.02 L1775.8,2069.71 L1773.35,2069.4 L1770.87,2069.1 L1768.4,2068.83 L1765.93,2068.63 L1763.44,2068.55 L1760.95,2068.6 L1758.47,2068.83 L1756.03,2069.29 L1753.62,2069.9 L1752.73,2070.22" vector-effect="none"/>
   <path fill-rule="evenodd" d="M2100.98,1496.56 L2098.61,1496.29 L2096.15,1495.98 L2093.68,1495.7 L2091.21,1495.43 L2088.73,1495.2 L2086.25,1495.02 L2083.77,1494.9 L2081.28,1494.85 L2078.79,1494.9 L2076.32,1495.07 L2073.86,1495.43 L2071.47,1496.07 L2069.24,1497.2 L2067.26,1498.67 L2065.43,1500.36 L2063.72,1502.16 L2062.08,1504.02 L2060.46,1505.9 L2058.83,1507.78 L2057.16,1509.61 L2055.39,1511.35 L2053.43,1512.88 L2051.23,1514.01 L2048.77,1514.29 L2046.39,1513.62 L2044.28,1512.34 L2042.38,1510.74 L2040.64,1508.97 L2038.98,1507.12 L2037.36,1505.25 L2035.73,1503.35 L2034.07,1501.52 L2032.33,1499.73 L2030.48,1498.09 L2028.45,1496.65 L2026.23,1495.57 L2023.83,1494.91 L2021.37,1494.52 L2018.9,1494.29 L2016.41,1494.18 L2013.92,1494.15 L2011.43,1494.19 L2008.96,1494.3 L2006.47,1494.44 L2004,1494.65 L2001.52,1494.88 L1999.05,1495.15" vector-effect="none"/>
   <path fill-rule="evenodd" d="M1924.25,2110.05 L1924.27,2110.05 L1924.99,2111.29 L1926.07,2113.53 L1927.12,2115.78 L1928.2,2118.02 L1929.31,2120.24 L1930.44,2122.45 L1931.61,2124.63 L1932.85,2126.79 L1934.15,2128.9 L1935.56,2130.93 L1937.09,2132.88 L1938.83,2134.61 L1940.74,2136.15 L1942.87,2137.37 L1945.14,2138.39 L1947.45,2139.23 L1949.83,2140 L1952.21,2140.7 L1954.58,2141.44 L1956.94,2142.24 L1959.24,2143.14 L1961.48,2144.21 L1963.61,2145.45 L1965.6,2146.87 L1967.41,2148.53 L1969.07,2150.35 L1970.62,2152.26 L1972.05,2154.26 L1973.38,2156.36 L1974.61,2158.5 L1975.8,2160.68 L1976.93,2162.88 L1978.03,2165.11 L1979.11,2167.35 L1980.17,2169.58 L1981.25,2171.82 L1982.33,2174.06 L1983.44,2176.28 L1984.57,2178.49 L1985.76,2180.67 L1986.98,2182.83 L1988.28,2184.94 L1989.64,2187.01 L1991.08,2189.03 L1992.66,2190.94 L1994.29,2192.8 L1996.01,2194.6 L1997.78,2196.34 L1999.57,2198.06 L2001.4,2199.73 L2003.26,2201.38 L2005.16,2203.01 L2007.07,2204.59 L2009.01,2206.14 L2010.96,2207.67 L2012.95,2209.16 L2014.96,2210.63 L2016.97,2212.07 L2019.03,2213.46 L2021.11,2214.84 L2023.21,2216.17 L2025.32,2217.46 L2027.46,2218.71 L2029.64,2219.91 L2031.85,2221.06 L2034.07,2222.17 L2036.34,2223.19 L2038.66,2224.06 L2041.02,2224.83 L2043.43,2225.47 L2045.86,2225.99 L2048.31,2226.36 L2050.79,2226.61 L2053.28,2226.72 L2055.75,2226.72 L2058.24,2226.6 L2060.71,2226.39 L2061.31,2226.33" vector-effect="none"/>
   <path fill-rule="evenodd" d="M1912.84,1028.3 L1913.7,1027.26 L1915.41,1025.44 L1917.1,1023.62 L1918.76,1021.78 L1920.4,1019.91 L1922,1018.02 L1923.53,1016.06 L1925.02,1014.07 L1926.4,1012.02 L1927.67,1009.88 L1928.7,1007.62 L1929.26,1005.21 L1929.61,1002.77 L1929.64,1000.28 L1929.45,997.825 L1929.12,995.352 L1928.7,992.91 L1928.25,990.483 L1927.79,988.041 L1927.4,985.584 L1927.1,983.126 L1926.95,980.652 L1927.01,978.179 L1927.26,975.706 L1927.65,973.264 L1928.17,970.837 L1928.79,968.442 L1929.45,966.047 L1930.16,963.667 L1930.86,961.288 L1931.53,958.893 L1932.18,956.498 L1932.72,954.087 L1933.16,951.645 L1933.44,949.172 L1933.54,946.698 L1933.35,944.225 L1932.83,941.814 L1932.13,939.435 L1931.3,937.086 L1930.39,934.785 L1929.4,932.5 L1928.39,930.23 L1928.22,929.869" vector-effect="none"/>
   <path fill-rule="evenodd" d="M2115.52,1058.49 L2115,1059.97 L2113.83,1062.13 L2112.58,1064.28 L2111.34,1066.42 L2110.1,1068.58 L2108.88,1070.73 L2107.68,1072.9 L2106.5,1075.1 L2105.37,1077.3 L2104.29,1079.54 L2103.26,1081.8 L2102.32,1084.1 L2101.49,1086.43 L2100.82,1088.82 L2100.37,1091.25 L2100.13,1093.72 L2100.16,1096.2 L2100.38,1098.67 L2100.74,1101.11 L2101.21,1103.55 L2101.73,1105.98 L2102.28,1108.41 L2102.82,1110.82 L2103.34,1113.24 L2103.76,1115.69 L2104.08,1118.16 L2104.17,1120.63 L2103.95,1123.09 L2103.21,1125.44 L2101.93,1127.55 L2100.27,1129.38 L2098.35,1130.95 L2096.28,1132.31 L2094.12,1133.56 L2091.94,1134.74 L2089.75,1135.91 L2087.58,1137.13 L2085.49,1138.46 L2083.52,1139.98 L2082.32,1141.19" vector-effect="none"/>
   <path fill-rule="evenodd" d="M1874.24,2165.44 L1872.75,2167.28 L1871.19,2169.19 L1869.65,2171.15 L1868.16,2173.14 L1866.79,2175.2 L1865.55,2177.35 L1864.61,2179.63 L1864.5,2182.05 L1865.66,2184.21 L1867.37,2186.01 L1869.21,2187.67 L1871.08,2189.31 L1872.8,2191.09 L1874.16,2193.16 L1874.54,2195.56 L1873.47,2197.76 L1871.72,2199.5 L1869.76,2201.02 L1867.69,2202.4 L1865.58,2203.71 L1863.44,2204.96 L1861.28,2206.2 L1859.13,2207.45 L1856.97,2208.69 L1854.84,2209.97 L1852.75,2211.29 L1850.66,2212.67 L1848.66,2214.12 L1846.72,2215.67 L1844.89,2217.35 L1843.23,2219.19 L1842.87,2219.72" vector-effect="none"/>
   <path fill-rule="evenodd" d="M1969.26,1111.76 L1969.9,1112.48 L1971.08,1114.65 L1972.16,1116.88 L1973.24,1119.12 L1974.33,1121.34 L1975.43,1123.56 L1976.57,1125.77 L1977.75,1127.96 L1978.98,1130.1 L1980.27,1132.23 L1981.63,1134.32 L1983.08,1136.32 L1984.68,1138.21 L1986.48,1139.92 L1988.42,1141.47 L1990.5,1142.83 L1992.68,1144.02 L1994.92,1145.1 L1997.2,1146.07 L1999.5,1147 L2001.84,1147.89 L2004.15,1148.76 L2006.47,1149.66 L2008.79,1150.6 L2011.06,1151.58 L2013.3,1152.68 L2015.47,1153.85 L2017.62,1155.12 L2019.68,1156.48 L2021.7,1157.94 L2023.67,1159.44 L2025.63,1160.97 L2027.59,1162.51 L2029.56,1164.03 L2031.55,1165.5 L2033.6,1166.92 L2033.73,1167" vector-effect="none"/>
   <path fill-rule="evenodd" d="M2054.75,1387.67 L2054.75,1387.65 L2055.91,1386.18 L2057.82,1384.6 L2059.76,1383.06 L2061.73,1381.53 L2063.69,1380.01 L2065.63,1378.46 L2067.55,1376.9 L2069.46,1375.3 L2071.33,1373.65 L2073.13,1371.95 L2074.85,1370.16 L2076.38,1368.22 L2077.7,1366.16 L2078.79,1363.96 L2079.67,1361.65 L2080.34,1359.27 L2080.88,1356.84 L2081.33,1354.4 L2081.72,1351.96 L2082.1,1349.5 L2082.49,1347.06 L2082.94,1344.63 L2083.54,1342.22 L2084.32,1339.9 L2085.42,1337.78 L2086.95,1336.07 L2088.77,1334.77 L2090.88,1333.88 L2093.23,1333.41 L2095.67,1333.25 L2098.13,1333.3 L2100.62,1333.42 L2103.09,1333.55 L2105.58,1333.56 L2108.02,1333.34 L2110.4,1332.91 L2112.73,1332.31 L2115,1331.44 L2117.1,1330.18 L2119.03,1328.63 L2120.83,1326.93 L2122.49,1325.1 L2124.03,1323.15 L2125.48,1321.13 L2126.84,1319.05 L2128.11,1316.92 L2129.33,1314.76 L2130.48,1312.57 L2131.53,1310.33 L2132.46,1308.02 L2133.32,1305.7 L2134.13,1303.35 L2134.91,1301 L2135.65,1298.62 L2136.34,1296.24 L2137,1293.85 L2137.61,1291.45 L2138.16,1289.03 L2138.67,1286.6 L2139.13,1284.16 L2139.53,1281.72 L2139.86,1279.26 L2140.13,1276.79 L2140.32,1274.31 L2140.32,1271.84 L2140.22,1270.51" vector-effect="none"/>
   <path fill-rule="evenodd" d="M1813.19,2036.98 L1813.19,2036.99 L1811.15,2036.48 L1808.85,2035.55 L1806.55,2034.6 L1804.25,2033.67 L1801.93,2032.8 L1799.58,2031.97 L1797.2,2031.23 L1794.79,2030.62 L1792.35,2030.2 L1789.89,2030.03 L1787.42,2030.12 L1784.99,2030.62 L1782.61,2031.33 L1780.28,2032.17 L1777.98,2033.14 L1775.74,2034.21 L1773.52,2035.33 L1771.33,2036.51 L1769.17,2037.73 L1767.02,2038.98 L1764.88,2040.22 L1762.72,2041.45 L1760.54,2042.64 L1758.33,2043.8 L1756.13,2044.94 L1753.93,2046.1 L1751.74,2047.28 L1749.57,2048.5 L1747.44,2049.78 L1745.36,2051.13 L1743.34,2052.58 L1741.41,2054.15 L1739.6,2055.84 L1737.95,2057.69 L1737.36,2058.49" vector-effect="none"/>
   <path fill-rule="evenodd" d="M1840.32,1141.11 L1838.26,1140.12 L1836.07,1138.95 L1833.87,1137.79 L1831.64,1136.68 L1829.39,1135.65 L1827.1,1134.69 L1824.74,1133.89 L1822.33,1133.34 L1819.87,1133.39 L1817.54,1134.22 L1815.39,1135.47 L1813.39,1136.95 L1811.46,1138.53 L1809.57,1140.12 L1807.66,1141.7 L1805.66,1143.18 L1803.54,1144.48 L1801.27,1145.49 L1798.86,1146.06 L1796.39,1146.35 L1793.92,1146.51 L1791.44,1146.62 L1788.95,1146.78 L1786.5,1147.07 L1784.09,1147.61 L1781.78,1148.51 L1779.91,1150.08 L1778.48,1152.07 L1777.45,1154.32 L1776.63,1156.65 L1775.94,1159.05 L1775.3,1161.43 L1774.6,1163.82 L1773.74,1166.14 L1772.41,1168.21 L1770.17,1168.85 L1767.99,1167.8 L1766.19,1166.11 L1764.58,1164.23 L1763.03,1162.29 L1761.51,1160.33 L1759.96,1158.39 L1758.35,1156.51 L1756.61,1154.73 L1754.7,1153.15 L1752.57,1151.88 L1750.22,1151.1 L1747.78,1150.66 L1745.31,1150.46 L1742.82,1150.39 L1741.76,1150.42" vector-effect="none"/>
   <path fill-rule="evenodd" d="M1802.89,2116.69 L1801.66,2117.13 L1799.46,2118.22 L1797.23,2119.33 L1795.03,2120.46 L1792.84,2121.62 L1790.66,2122.83 L1788.53,2124.09 L1786.43,2125.44 L1784.43,2126.88 L1782.54,2128.46 L1780.84,2130.25 L1779.47,2132.25 L1778.45,2134.49 L1777.78,2136.87 L1777.29,2139.29 L1776.93,2141.75 L1776.62,2144.21 L1776.32,2146.68 L1775.99,2149.14 L1775.54,2151.57 L1774.8,2153.93 L1773.41,2155.89 L1771.17,2156.64 L1768.84,2155.87 L1766.77,2154.49 L1764.85,2152.93 L1762.97,2151.3 L1761.12,2149.66 L1759.23,2148.06 L1757.27,2146.53 L1755.2,2145.15 L1752.98,2144.05 L1750.58,2143.49 L1748.11,2143.41 L1745.67,2143.83 L1743.31,2144.58 L1741,2145.52 L1738.73,2146.54 L1736.46,2147.54 L1734.16,2148.48 L1731.8,2149.23 L1729.36,2149.66 L1726.88,2149.59 L1724.58,2148.73 L1722.56,2147.32 L1720.75,2145.65 L1719.09,2143.8 L1717.52,2141.88 L1716,2139.92 L1714.49,2137.95 L1712.94,2136.01 L1711.32,2134.13 L1709.62,2132.33 L1707.77,2130.67 L1705.74,2129.26 L1703.53,2128.15 L1701.16,2127.4 L1698.74,2126.82 L1696.3,2126.38 L1694.46,2126.11" vector-effect="none"/>
   <path fill-rule="evenodd" d="M1877.64,1022.11 L1876.82,1021.07 L1875.43,1019.04 L1874.03,1016.97 L1872.63,1014.92 L1871.22,1012.88 L1869.81,1010.85 L1868.37,1008.81 L1866.91,1006.8 L1865.46,1004.81 L1863.95,1002.82 L1862.44,1000.85 L1860.89,998.905 L1859.3,996.996 L1857.68,995.117 L1856,993.301 L1854.23,991.548 L1852.35,989.935 L1850.32,988.495 L1848.24,987.133 L1846.11,985.85 L1843.95,984.644 L1841.74,983.502 L1839.5,982.406 L1837.25,981.357 L1834.98,980.355 L1832.69,979.384 L1830.39,978.445 L1828.07,977.537 L1825.76,976.645 L1823.42,975.753 L1821.11,974.876 L1818.78,973.999 L1816.46,973.123 L1814.11,972.277 L1811.78,971.448 L1809.43,970.618 L1807.08,969.788 L1804.73,968.974 L1802.39,968.16 L1800.04,967.378 L1797.66,966.61 L1795.29,965.875 L1792.9,965.186 L1790.5,964.544 L1788.08,963.949 L1785.65,963.417 L1783.21,962.963 L1780.75,962.587 L1778.29,962.29 L1775.8,962.102 L1773.33,961.992 L1770.84,962.008 L1768.35,962.149 L1765.88,962.368 L1763.41,962.666 L1762.87,962.744" vector-effect="none"/>
   <path fill-rule="evenodd" d="M1677.2,1891.67 L1676.1,1892.31 L1673.75,1893.13 L1671.39,1893.88 L1669.04,1894.68 L1666.71,1895.56 L1664.45,1896.6 L1662.36,1897.92 L1660.9,1899.88 L1660.48,1902.3 L1660.6,1904.78 L1660.96,1907.23 L1661.34,1909.69 L1661.57,1912.15 L1661.43,1914.62 L1660.54,1916.91 L1658.91,1918.71 L1656.91,1920.15 L1654.72,1921.28 L1652.43,1922.26 L1650.12,1923.17 L1647.81,1924.08 L1645.51,1925.05 L1643.27,1926.11 L1641.15,1927.38 L1639.74,1928.49" vector-effect="none"/>
   <path fill-rule="evenodd" d="M518.713,242.973 L518.619,241.83 L518.024,239.435 L517.398,237.024 L516.74,234.644 L516.005,232.265 L515.222,229.917 L514.33,227.6 L513.296,225.346 L512.06,223.201 L510.416,221.417 L508.444,219.976 L506.236,218.896 L503.888,218.082 L501.493,217.44 L499.082,216.861 L496.656,216.266 L494.276,215.562 L491.975,214.638 L489.862,213.355 L488.156,211.601 L486.919,209.472 L486.073,207.14 L485.494,204.729 L485.072,202.287 L484.712,199.829 L484.305,197.387 L483.788,194.976 L483.052,192.613 L481.972,190.421 L480.438,188.542 L478.434,187.18 L476.117,186.288 L473.707,185.678 L471.264,185.208 L468.822,184.754 L466.38,184.253 L464.001,183.596 L461.762,182.547 L459.993,180.872 L459.211,178.555 L459.211,176.082 L459.712,173.655 L460.494,171.307 L461.449,169.006 L462.482,166.752 L463.594,164.544 L464.737,162.337 L465.895,160.13 L467.053,157.938 L468.196,155.731 L469.308,153.524 L470.388,151.285 L471.405,149.015 L472.329,146.714 L473.143,144.366 L473.8,141.986 L474.254,139.544 L474.427,137.071 L474.458,134.598 L474.427,132.976" vector-effect="none"/>
   <path fill-rule="evenodd" d="M561.778,317.926 L561.762,317.941 L559.43,317.894 L556.972,317.534 L554.514,317.143 L552.072,316.752 L549.614,316.376 L547.141,316.016 L544.683,315.687 L542.21,315.39 L539.737,315.139 L537.263,314.936 L534.774,314.81 L532.301,314.779 L529.812,314.936 L527.37,315.296 L524.943,315.844 L522.564,316.564 L520.231,317.409 L517.93,318.364 L515.676,319.397 L513.453,320.493 L511.246,321.651 L509.07,322.857 L506.909,324.078 L504.749,325.314 L502.604,326.551 L500.444,327.788 L498.268,328.993 L496.077,330.152 L493.854,331.294 L491.662,332.453 L489.486,333.643 L487.31,334.832 L485.15,336.069 L483.021,337.353 L480.923,338.683 L478.888,340.108 L476.916,341.611 L475.022,343.239 L473.268,344.976 L471.671,346.886 L470.294,348.937 L470.041,349.418" vector-effect="none"/>
   <path fill-rule="evenodd" d="M582.113,328.978 L582.066,329.494 L581.001,331.717 L579.843,333.909 L578.669,336.1 L577.526,338.292 L576.43,340.515 L575.366,342.769 L574.395,345.039 L573.503,347.356 L572.783,349.735 L572.298,352.146 L572.204,354.619 L572.548,357.077 L573.112,359.488 L573.832,361.867 L574.646,364.2 L575.538,366.517 L576.446,368.834 L577.385,371.135 L578.278,373.436 L579.139,375.753 L579.968,378.085 L580.798,380.433 L581.518,382.797 L582.144,385.192 L582.723,387.619 L583.303,390.03 L583.944,392.425 L584.712,394.773 L584.735,394.828" vector-effect="none"/>
   <path fill-rule="evenodd" d="M1639.3,1889.94 L1639.17,1890.11 L1636.93,1891.09 L1634.59,1891.89 L1632.24,1892.71 L1629.92,1893.6 L1627.68,1894.66 L1625.66,1896.06 L1624.19,1897.93 L1623.63,1900.31 L1623.6,1902.79 L1623.78,1905.26 L1624.04,1907.73 L1624.22,1910.21 L1624.24,1912.68 L1623.88,1915.11 L1623.21,1917.49 L1622.33,1919.8 L1621.37,1922.1 L1620.4,1924.37 L1619.46,1926.68 L1618.62,1929.01 L1617.96,1931.4 L1617.94,1931.55" vector-effect="none"/>
   <path fill-rule="evenodd" d="M1833.13,1094.48 L1831.3,1094.9 L1828.83,1094.84 L1826.35,1094.69 L1823.86,1094.57 L1821.37,1094.51 L1818.9,1094.57 L1816.43,1094.88 L1814.16,1095.84 L1812.51,1097.64 L1811.59,1099.94 L1810.95,1102.33 L1810.31,1104.73 L1809.45,1107.05 L1808.22,1109.21 L1806.56,1111.04 L1804.53,1112.45 L1802.28,1113.5 L1799.91,1114.28 L1797.52,1114.92 L1795.09,1115.45 L1792.65,1115.92 L1790.19,1116.36 L1787.75,1116.75 L1785.29,1117.14 L1782.83,1117.53 L1780.38,1117.94 L1777.93,1118.36 L1775.49,1118.83 L1773.05,1119.33 L1770.62,1119.9 L1768.23,1120.54 L1765.85,1121.28 L1763.52,1122.14 L1761.25,1123.12 L1759.07,1124.34 L1756.97,1125.66 L1754.91,1127.05 L1753.32,1128.18" vector-effect="none"/>
   <path fill-rule="evenodd" d="M2018.63,949.453 L2019.5,947.45 L2020.67,945.274 L2021.83,943.082 L2022.97,940.875 L2024.07,938.652 L2025.12,936.398 L2026.09,934.112 L2026.96,931.795 L2027.71,929.431 L2028.25,927.005 L2028.45,924.547 L2028.18,922.09 L2027.4,919.741 L2026.32,917.503 L2025.07,915.358 L2023.74,913.26 L2022.41,911.178 L2021.15,909.034 L2020.04,906.811 L2019.24,904.463 L2018.93,902.021 L2019.37,899.579 L2020.37,897.324 L2021.7,895.242 L2023.22,893.286 L2024.86,891.423 L2026.56,889.607 L2028.28,887.807 L2029.97,885.991 L2031.6,884.112 L2033.11,882.155 L2034.46,880.073 L2035.51,877.819 L2036.14,875.44 L2036.37,872.966 L2036.42,870.493 L2036.34,868.004 L2036.18,865.53 L2036.07,864.313" vector-effect="none"/>
   <path fill-rule="evenodd" d="M1790.68,1050.71 L1789.39,1050.96 L1786.92,1050.94 L1784.43,1050.86 L1781.96,1050.82 L1779.47,1050.85 L1776.99,1050.99 L1774.52,1051.35 L1772.17,1052.15 L1770.26,1053.7 L1768.99,1055.82 L1768.13,1058.14 L1767.4,1060.52 L1766.57,1062.85 L1765.53,1065.11 L1764.22,1067.21 L1762.58,1069.07 L1760.63,1070.6 L1758.51,1071.89 L1756.3,1073.01 L1754.03,1074.03 L1751.73,1074.99 L1749.43,1075.89 L1747.11,1076.79 L1744.78,1077.68 L1742.46,1078.59 L1740.16,1079.51 L1737.87,1080.48 L1735.6,1081.5 L1733.37,1082.59 L1731.17,1083.77 L1729.04,1085.04 L1726.99,1086.44 L1725.08,1088.03 L1723.28,1089.73 L1722.61,1090.46" vector-effect="none"/>
   <path fill-rule="evenodd" d="M2672.59,812.869 L2674.33,812.807 L2676.77,813.182 L2679.23,813.589 L2681.69,813.934 L2684.16,814.2 L2686.65,814.247 L2689.09,813.84 L2690.74,812.055 L2691.58,809.723 L2692.1,807.296 L2692.51,804.854 L2692.96,802.412 L2693.74,800.064 L2695.51,798.514 L2697.92,798.483 L2700.24,799.375 L2702.4,800.596 L2704.5,801.927 L2706.56,803.32 L2708.63,804.698 L2710.73,806.028 L2711.56,806.507" vector-effect="none"/>
   <path fill-rule="evenodd" d="M1987.18,925.408 L1988.08,924.078 L1989.75,922.246 L1991.43,920.415 L1993.06,918.536 L1994.6,916.595 L1996.01,914.56 L1997.17,912.368 L1997.61,909.957 L1996.86,907.609 L1995.59,905.48 L1994.15,903.445 L1992.71,901.426 L1991.4,899.328 L1990.36,897.09 L1989.77,894.694 L1989.78,892.237 L1990.28,889.81 L1991.02,887.431 L1991.9,885.114 L1992.82,882.813 L1993.78,880.512 L1994.7,878.226 L1995.59,875.894 L1996.37,873.545 L1997.02,871.15 L1997.47,868.708 L1997.64,866.235 L1997.41,863.777 L1997.35,863.495" vector-effect="none"/>
   <path fill-rule="evenodd" d="M1751.92,2217.22 L1751.88,2217.21 L1751.95,2215.26 L1752.43,2212.84 L1752.92,2210.41 L1753.34,2207.97 L1753.64,2205.5 L1753.73,2203.04 L1753.42,2200.61 L1752.71,2198.29 L1751.52,2196.13 L1750.02,2194.18 L1748.27,2192.44 L1746.34,2190.86 L1744.34,2189.4 L1742.29,2188.01 L1740.22,2186.63 L1738.16,2185.24 L1736.15,2183.8 L1734.16,2182.3 L1732.16,2180.82 L1730.16,2179.35 L1728.15,2177.9 L1726.12,2176.47 L1724.07,2175.06 L1722,2173.69 L1719.9,2172.36 L1717.77,2171.06 L1715.63,2169.8 L1713.45,2168.6 L1711.25,2167.47 L1708.99,2166.41 L1706.71,2165.44 L1704.37,2164.58 L1701.99,2163.89 L1699.57,2163.35 L1697.11,2162.95 L1694.65,2162.62 L1692.18,2162.38 L1691.99,2162.37" vector-effect="none"/>
   <path fill-rule="evenodd" d="M933.052,990.28 L930.923,990.233 L928.481,989.842 L926.039,989.419 L923.581,989.012 L921.123,988.636 L918.65,988.307 L916.177,988.057 L913.703,987.9 L911.214,987.916 L908.741,988.182 L906.424,989.012 L904.342,990.358 L902.432,991.971 L900.663,993.708 L898.973,995.524 L897.329,997.371 L895.685,999.234 L894.026,1001.08 L892.273,1002.85 L890.3,1004.34 L887.983,1004.46 L886.668,1002.57 L886.277,1000.16 L886.152,997.684 L886.12,995.211 L886.026,992.738 L885.807,990.264 L885.259,987.853 L884.117,985.709 L882.363,984.002 L880.219,982.766 L879.815,982.594" vector-effect="none"/>
   <path fill-rule="evenodd" d="M1998.08,1629.4 L1998.1,1629.35 L2000.52,1628.99 L2003,1628.73 L2005.47,1628.43 L2007.93,1628.08 L2010.37,1627.65 L2012.8,1627.08 L2015.17,1626.36 L2017.43,1625.35 L2019.5,1624.01 L2021.36,1622.39 L2023.05,1620.59 L2024.55,1618.61 L2025.87,1616.52 L2027.04,1614.32 L2028.09,1612.07 L2029.03,1609.79 L2029.89,1607.45 L2030.69,1605.1 L2031.41,1602.74 L2032.19,1600.38 L2032.86,1598 L2033.44,1595.59 L2033.93,1593.14 L2034.32,1590.7 L2034.57,1588.23 L2034.7,1585.76 L2034.66,1583.28 L2034.41,1580.81 L2033.93,1578.38 L2033.08,1576.05 L2031.91,1573.86 L2030.56,1571.78 L2029.09,1569.77 L2027.54,1567.85 L2025.91,1565.97 L2024.24,1564.14 L2022.52,1562.34 L2020.76,1560.58 L2018.96,1558.88" vector-effect="none"/>
   <path fill-rule="evenodd" d="M1710.09,1282.14 L1709.18,1280.87 L1707.47,1279.06 L1705.78,1277.24 L1704.09,1275.42 L1702.37,1273.64 L1700.6,1271.89 L1698.78,1270.2 L1696.91,1268.58 L1694.92,1267.1 L1692.79,1265.81 L1690.5,1264.94 L1688.03,1264.73 L1685.56,1264.89 L1683.08,1265.25 L1680.64,1265.69 L1678.21,1266.2 L1675.77,1266.74 L1673.35,1267.24 L1670.9,1267.66 L1668.42,1267.83 L1666.13,1267.13 L1666.25,1264.79 L1667.59,1262.71 L1669.18,1260.8 L1670.86,1258.97 L1672.58,1257.19 L1674.3,1255.39 L1676.01,1253.59 L1677.68,1251.75 L1679.31,1249.89 L1680.86,1247.95 L1682.3,1245.92 L1683.57,1243.79 L1684.57,1241.52 L1685.24,1239.14 L1685.62,1236.68 L1685.66,1236.16" vector-effect="none"/>
   <path fill-rule="evenodd" d="M1724.47,1316.77 L1722.74,1317.08 L1720.25,1317.1 L1717.76,1317.08 L1715.28,1317.1 L1712.8,1317.17 L1710.32,1317.36 L1707.86,1317.72 L1705.47,1318.43 L1703.45,1319.82 L1702.07,1321.87 L1701.15,1324.17 L1700.43,1326.55 L1699.71,1328.91 L1698.85,1331.25 L1697.7,1333.44 L1696.14,1335.35 L1694.18,1336.85 L1691.94,1337.95 L1689.61,1338.78 L1687.22,1339.43 L1684.79,1340 L1682.35,1340.48 L1679.91,1340.97 L1677.48,1341.49 L1675.07,1342.06 L1672.67,1342.74 L1670.32,1343.57 L1669.09,1344.13" vector-effect="none"/>
   <path fill-rule="evenodd" d="M2316.74,882.828 L2317.59,881.811 L2319.68,880.496 L2321.83,879.228 L2323.93,877.897 L2325.91,876.426 L2327.68,874.688 L2328.89,872.559 L2328.64,870.148 L2327.42,868.004 L2326.02,865.937 L2324.77,863.808 L2323.96,861.476 L2323.94,859.034 L2324.69,856.701 L2325.98,854.588 L2327.54,852.662 L2329.23,850.847 L2331,849.109 L2332.82,847.403 L2334.65,845.728 L2336.48,844.053 L2338.31,842.378 L2340.11,840.656 L2341.87,838.902 L2343.57,837.086 L2345.17,835.192 L2346.66,833.204 L2347.94,831.091 L2349.03,828.852 L2349.9,826.535 L2350.62,824.156 L2350.85,823.249" vector-effect="none"/>
   <path fill-rule="evenodd" d="M1612.83,1267.47 L1614.06,1266.25 L1615.74,1264.4 L1617.4,1262.57 L1619.06,1260.72 L1620.7,1258.86 L1622.33,1256.98 L1623.91,1255.09 L1625.48,1253.15 L1626.99,1251.19 L1628.43,1249.17 L1629.8,1247.09 L1631.03,1244.94 L1631.86,1242.63 L1632.22,1240.17 L1632.32,1237.7 L1632.22,1235.22 L1632.02,1232.75 L1631.75,1230.28 L1631.46,1227.82 L1631.16,1225.36 L1630.89,1222.89 L1630.72,1220.41 L1630.74,1217.94 L1631.13,1215.48 L1632.32,1213.34 L1634.57,1212.52 L1637,1213.03 L1639.3,1213.96 L1641.54,1215.06 L1643.73,1216.2 L1645.94,1217.36 L1648.14,1218.5 L1650.4,1219.57 L1652.7,1220.51 L1655.06,1221.23 L1657.52,1221.59 L1659.98,1221.29 L1662.39,1220.68 L1664.74,1219.88 L1665.66,1219.52" vector-effect="none"/>
   <path fill-rule="evenodd" d="M1537.36,1764.36 L1539.3,1763.56 L1541.69,1762.93 L1544.1,1762.34 L1546.51,1761.71 L1548.91,1761.05 L1551.29,1760.33 L1553.64,1759.53 L1555.94,1758.6 L1558.15,1757.44 L1560.06,1755.86 L1561.45,1753.82 L1562.42,1751.54 L1563.11,1749.16 L1563.66,1746.74 L1564.16,1744.3 L1564.71,1741.89 L1565.38,1739.51 L1566.29,1737.21 L1567.59,1735.1 L1569.31,1733.34 L1571.44,1732.06 L1573.72,1731.09 L1576.09,1730.32 L1578.48,1729.65 L1580.88,1728.99 L1583.26,1728.3 L1585.6,1727.47 L1587.58,1726.56" vector-effect="none"/>
  </g>
  <g stroke-linejoin="bevel" transform="matrix(0.999751,0,0,0.999751,0,0)" font-weight="400" font-style="normal" fill="none" stroke="#000000" stroke-width="1" stroke-linecap="square" font-size="32.5" font-family="MS Shell Dlg 2" stroke-opacity="1"/>
  <g stroke-linejoin="bevel" transform="matrix(11.8081,0,0,11.8081,0,0)" font-weight="400" font-style="normal" fill="none" stroke="#000000" stroke-width="1" stroke-linecap="square" font-size="32.5" font-family="MS Shell Dlg 2" stroke-opacity="1"/>
  <g stroke-linejoin="bevel" transform="matrix(11.8081,0,0,11.8081,0,0)" font-weight="400" font-style="normal" fill="none" stroke="#000000" stroke-width="1" stroke-linecap="square" font-size="32.5" font-family="MS Shell Dlg 2" stroke-opacity="1"/>
  <g stroke-linejoin="bevel" transform="matrix(11.8081,0,0,11.8081,0,0)" font-weight="400" font-style="normal" fill="none" stroke="#000000" stroke-width="1" stroke-linecap="square" font-size="32.5" font-family="MS Shell Dlg 2" stroke-opacity="1"/>
  <g stroke-linejoin="bevel" transform="matrix(1,0,0,1,0,0)" font-weight="400" font-style="normal" fill="none" stroke="#000000" stroke-width="1" stroke-linecap="square" font-size="32.5" font-family="MS Shell Dlg 2" stroke-opacity="1"/>
  <g stroke-linejoin="bevel" transform="matrix(11.8081,0,0,11.8081,0,0)" font-weight="400" font-style="normal" fill="none" stroke="#000000" stroke-width="1" stroke-linecap="square" font-size="32.5" font-family="MS Shell Dlg 2" stroke-opacity="1"/>
  <g stroke-linejoin="bevel" transform="matrix(11.8081,0,0,11.8081,0,0)" font-weight="400" font-style="normal" fill="none" stroke="#000000" stroke-width="1" stroke-linecap="square" font-size="32.5" font-family="MS Shell Dlg 2" stroke-opacity="1"/>
  <g stroke-linejoin="bevel" transform="matrix(1,0,0,1,0,0)" font-weight="400" font-style="normal" fill="none" stroke="#000000" stroke-width="1" stroke-linecap="square" font-size="32.5" font-family="MS Shell Dlg 2" stroke-opacity="1"/>
 </g>
</svg>
