<?xml version="1.0" encoding="UTF-8" standalone="no"?>
<svg
   xmlns:dc="http://purl.org/dc/elements/1.1/"
   xmlns:cc="http://creativecommons.org/ns#"
   xmlns:rdf="http://www.w3.org/1999/02/22-rdf-syntax-ns#"
   xmlns:svg="http://www.w3.org/2000/svg"
   xmlns="http://www.w3.org/2000/svg"
   xmlns:sodipodi="http://sodipodi.sourceforge.net/DTD/sodipodi-0.dtd"
   xmlns:inkscape="http://www.inkscape.org/namespaces/inkscape"
   height="209.973mm"
   width="296.926mm"
   viewBox="0 0 3507 2480"
   version="1.2"
   id="svg447"
   sodipodi:docname="AzisisSpiralLand.svg"
   inkscape:version="1.0.1 (3bc2e813f5, 2020-09-07)">
  <metadata
     id="metadata451">
    <rdf:RDF>
      <cc:Work
         rdf:about="">
        <dc:format>image/svg+xml</dc:format>
        <dc:type
           rdf:resource="http://purl.org/dc/dcmitype/StillImage" />
        <dc:title></dc:title>
      </cc:Work>
    </rdf:RDF>
  </metadata>
  <sodipodi:namedview
     pagecolor="#ffffff"
     bordercolor="#666666"
     borderopacity="1"
     objecttolerance="10"
     gridtolerance="10"
     guidetolerance="10"
     inkscape:pageopacity="0"
     inkscape:pageshadow="2"
     inkscape:window-width="1920"
     inkscape:window-height="1028"
     id="namedview449"
     showgrid="false"
     inkscape:zoom="0.98731111"
     inkscape:cx="503.38743"
     inkscape:cy="386.67086"
     inkscape:window-x="-9"
     inkscape:window-y="14"
     inkscape:window-maximized="1"
     inkscape:current-layer="svg447" />
  <defs
     id="defs297" />
  <g
     stroke-linejoin="bevel"
     inkscape:label="Page"
     inkscape:groupmode="layer"
     fill="none"
     stroke="black"
     fill-rule="evenodd"
     stroke-width="1"
     stroke-linecap="square"
     id="Page">
    <g
       stroke-linejoin="bevel"
       font-weight="400"
       font-style="normal"
       fill="none"
       stroke="#000000"
       stroke-width="1"
       stroke-linecap="square"
       font-size="32.5"
       font-family="MS Shell Dlg 2"
       stroke-opacity="1"
       id="g299"
       transform="matrix(1,0,0,1,0,0)" />
    <g
       stroke-linejoin="bevel"
       font-weight="400"
       font-style="normal"
       fill="none"
       stroke="#000000"
       stroke-width="1"
       stroke-linecap="square"
       font-size="32.5"
       font-family="MS Shell Dlg 2"
       stroke-opacity="1"
       id="g301"
       transform="matrix(1,0,0,1,0,0)" />
    <g
       stroke-linejoin="bevel"
       transform="matrix(11.8081,0,0,11.8081,0,0)"
       font-weight="400"
       font-style="normal"
       fill="none"
       stroke="#000000"
       stroke-width="1"
       stroke-linecap="square"
       font-size="32.5"
       font-family="MS Shell Dlg 2"
       stroke-opacity="1"
       id="g303" />
    <g
       stroke-linejoin="bevel"
       transform="matrix(0.999751,0,0,0.999751,0,0)"
       font-weight="400"
       font-style="normal"
       fill="none"
       stroke="#000000"
       stroke-width="1"
       stroke-linecap="square"
       font-size="32.5"
       font-family="MS Shell Dlg 2"
       stroke-opacity="1"
       id="g305" />
    <g
       transform="matrix(0.999751,0,0,0.999751,0,0)"
       font-weight="400"
       font-style="normal"
       fill="#ffffff"
       stroke="none"
       fill-opacity="1"
       font-size="32.5"
       font-family="MS Shell Dlg 2"
       id="g309">
      <path
         fill-rule="evenodd"
         d="M-2,-2 L3510,-2 L3510,2483 L-2,2483 L-2,-2"
         vector-effect="none"
         id="path307" />
    </g>
    <g
       stroke-linejoin="bevel"
       transform="matrix(0.999751,0,0,0.999751,0,0)"
       font-weight="400"
       font-style="normal"
       fill="none"
       stroke="#000000"
       stroke-width="1"
       stroke-linecap="square"
       font-size="32.5"
       font-family="MS Shell Dlg 2"
       stroke-opacity="1"
       id="g311" />
    <g
       stroke-linejoin="bevel"
       transform="matrix(11.8081,0,0,11.8081,0,0)"
       font-weight="400"
       font-style="normal"
       fill="none"
       stroke="#000000"
       stroke-width="1"
       stroke-linecap="square"
       font-size="32.5"
       font-family="MS Shell Dlg 2"
       stroke-opacity="1"
       id="g313" />
    <g
       stroke-linejoin="bevel"
       transform="matrix(11.8081,0,0,11.8081,0,0)"
       font-weight="400"
       font-style="normal"
       fill="none"
       stroke="#000000"
       stroke-width="1"
       stroke-linecap="square"
       font-size="32.5"
       font-family="MS Shell Dlg 2"
       stroke-opacity="1"
       id="g315" />
    <g
       stroke-linejoin="bevel"
       font-weight="400"
       font-style="normal"
       fill="none"
       stroke="#000000"
       stroke-width="1"
       stroke-linecap="square"
       font-size="32.5"
       font-family="MS Shell Dlg 2"
       stroke-opacity="1"
       id="g317"
       transform="matrix(1,0,0,1,0,0)" />
  </g>
  <defs
     id="defs320" />
  <g
     stroke-linejoin="bevel"
     inkscape:label="Map 1: Background"
     inkscape:groupmode="layer"
     fill="none"
     stroke="black"
     fill-rule="evenodd"
     stroke-width="1"
     stroke-linecap="square"
     id="Map 1: Background">
    <g
       stroke-linejoin="bevel"
       font-weight="400"
       font-style="normal"
       fill="none"
       stroke="#000000"
       stroke-width="1"
       stroke-linecap="square"
       font-size="32.5"
       font-family="MS Shell Dlg 2"
       stroke-opacity="1"
       id="g322"
       transform="matrix(1,0,0,1,0,0)" />
    <g
       stroke-linejoin="bevel"
       font-weight="400"
       font-style="normal"
       fill="none"
       stroke="#000000"
       stroke-width="1"
       stroke-linecap="square"
       font-size="32.5"
       font-family="MS Shell Dlg 2"
       stroke-opacity="1"
       id="g324"
       transform="matrix(1,0,0,1,0,0)" />
    <g
       stroke-linejoin="bevel"
       transform="matrix(11.8081,0,0,11.8081,0,0)"
       font-weight="400"
       font-style="normal"
       fill="none"
       stroke="#000000"
       stroke-width="1"
       stroke-linecap="square"
       font-size="32.5"
       font-family="MS Shell Dlg 2"
       stroke-opacity="1"
       id="g326" />
    <g
       transform="matrix(11.8081,0,0,11.8081,0,0)"
       font-weight="400"
       font-style="normal"
       fill="#ffffff"
       stroke="none"
       fill-opacity="1"
       font-size="32.5"
       font-family="MS Shell Dlg 2"
       id="g330">
      <path
         fill-rule="evenodd"
         d="M0,0 L297,0 L297,210 L0,210 L0,0"
         vector-effect="none"
         id="path328" />
    </g>
    <g
       stroke-linejoin="bevel"
       transform="matrix(11.8081,0,0,11.8081,0,0)"
       font-weight="400"
       font-style="normal"
       fill="none"
       stroke="#000000"
       stroke-width="1"
       stroke-linecap="square"
       font-size="32.5"
       font-family="MS Shell Dlg 2"
       stroke-opacity="1"
       id="g332" />
    <g
       stroke-linejoin="bevel"
       transform="matrix(11.8081,0,0,11.8081,0,0)"
       font-weight="400"
       font-style="normal"
       fill="none"
       stroke="#000000"
       stroke-width="1"
       stroke-linecap="square"
       font-size="32.5"
       font-family="MS Shell Dlg 2"
       stroke-opacity="1"
       id="g334" />
    <g
       stroke-linejoin="bevel"
       transform="matrix(11.8081,0,0,11.8081,0,0)"
       font-weight="400"
       font-style="normal"
       fill="none"
       stroke="#000000"
       stroke-width="1"
       stroke-linecap="square"
       font-size="32.5"
       font-family="MS Shell Dlg 2"
       stroke-opacity="1"
       id="g336" />
    <g
       stroke-linejoin="bevel"
       transform="matrix(11.8081,0,0,11.8081,0,0)"
       font-weight="400"
       font-style="normal"
       fill="none"
       stroke="#000000"
       stroke-width="1"
       stroke-linecap="square"
       font-size="32.5"
       font-family="MS Shell Dlg 2"
       stroke-opacity="1"
       id="g338" />
    <g
       stroke-linejoin="bevel"
       font-weight="400"
       font-style="normal"
       fill="none"
       stroke="#000000"
       stroke-width="1"
       stroke-linecap="square"
       font-size="32.5"
       font-family="MS Shell Dlg 2"
       stroke-opacity="1"
       id="g340"
       transform="matrix(1,0,0,1,0,0)" />
    <g
       stroke-linejoin="bevel"
       transform="matrix(11.8081,0,0,11.8081,0,0)"
       font-weight="400"
       font-style="normal"
       fill="none"
       stroke="#000000"
       stroke-width="1"
       stroke-linecap="square"
       font-size="32.5"
       font-family="MS Shell Dlg 2"
       stroke-opacity="1"
       id="g342" />
    <g
       stroke-linejoin="bevel"
       transform="matrix(11.8081,0,0,11.8081,0,0)"
       font-weight="400"
       font-style="normal"
       fill="none"
       stroke="#000000"
       stroke-width="1"
       stroke-linecap="square"
       font-size="32.5"
       font-family="MS Shell Dlg 2"
       stroke-opacity="1"
       id="g344" />
    <g
       stroke-linejoin="bevel"
       font-weight="400"
       font-style="normal"
       fill="none"
       stroke="#000000"
       stroke-width="1"
       stroke-linecap="square"
       font-size="32.5"
       font-family="MS Shell Dlg 2"
       stroke-opacity="1"
       id="g346"
       transform="matrix(1,0,0,1,0,0)" />
  </g>
  <defs
     id="defs349" />
  <g
     stroke-linejoin="bevel"
     inkscape:label="Map 1: AzisisSpiralLand"
     inkscape:groupmode="layer"
     fill="none"
     stroke="black"
     fill-rule="evenodd"
     stroke-width="1"
     stroke-linecap="square"
     id="Map 1: AzisisSpiralLand">
    <g
       stroke-linejoin="bevel"
       font-weight="400"
       font-style="normal"
       fill="none"
       stroke="#000000"
       stroke-width="1"
       stroke-linecap="square"
       font-size="32.5"
       font-family="MS Shell Dlg 2"
       stroke-opacity="1"
       id="g351"
       transform="matrix(1,0,0,1,0,0)" />
    <g
       stroke-linejoin="bevel"
       font-weight="400"
       font-style="normal"
       fill="none"
       stroke="#000000"
       stroke-width="1"
       stroke-linecap="square"
       font-size="32.5"
       font-family="MS Shell Dlg 2"
       stroke-opacity="1"
       id="g353"
       transform="matrix(1,0,0,1,0,0)" />
    <g
       stroke-linejoin="bevel"
       transform="matrix(11.8081,0,0,11.8081,0,0)"
       font-weight="400"
       font-style="normal"
       fill="none"
       stroke="#000000"
       stroke-width="1"
       stroke-linecap="square"
       font-size="32.5"
       font-family="MS Shell Dlg 2"
       stroke-opacity="1"
       id="g355" />
    <g
       stroke-linejoin="bevel"
       transform="matrix(11.8081,0,0,11.8081,0,0)"
       font-weight="400"
       font-style="normal"
       fill="none"
       stroke="#000000"
       stroke-width="1"
       stroke-linecap="square"
       font-size="32.5"
       font-family="MS Shell Dlg 2"
       stroke-opacity="1"
       id="g357" />
    <g
       transform="matrix(0.999751,0,0,0.999751,0,0)"
       font-weight="400"
       font-style="normal"
       fill="#000000"
       stroke="none"
       fill-opacity="0"
       font-size="32.5"
       font-family="MS Shell Dlg 2"
       id="g361">
      <rect
         height="2480"
         x="0"
         width="3508"
         y="0"
         id="rect359" />
    </g>
    <g
       stroke-linejoin="bevel"
       transform="matrix(0.999751,0,0,0.999751,0,0)"
       font-weight="400"
       font-style="normal"
       fill="none"
       stroke="#000000"
       stroke-width="1"
       stroke-linecap="square"
       font-size="32.5"
       font-family="MS Shell Dlg 2"
       stroke-opacity="1"
       id="g363" />
    <g
       stroke-linejoin="bevel"
       transform="matrix(0.999751,0,0,0.999751,0,0)"
       font-weight="400"
       font-style="normal"
       fill="#88b0e6"
       stroke="#232323"
       fill-opacity="1"
       stroke-width="5.90551"
       stroke-linecap="square"
       font-size="32.5"
       font-family="MS Shell Dlg 2"
       stroke-opacity="1"
       id="g387">
      <path
         fill-rule="evenodd"
         d="M1606.36,1826.24 L1617.32,1826.24 L1626.71,1826.24 L1647.06,1835.63 L1656.46,1826.24 L1676.81,1835.63 L1706.55,1826.24 L1715.94,1815.28 L1725.33,1815.28 L1736.29,1805.89 L1756.64,1805.89 L1775.43,1796.49 L1786.39,1796.49 L1816.13,1785.54 L1816.13,1766.75 L1845.87,1755.79 L1864.66,1746.4 L1864.66,1737.01 L1875.62,1716.66 L1885.01,1677.52 L1894.4,1647.78 L1935.1,1627.43 L1935.1,1618.03 L1955.45,1607.08 L1955.45,1567.94 L1905.36,1558.55 L1864.66,1577.33 L1855.27,1567.94 L1834.91,1577.33 L1816.13,1567.94 L1805.17,1558.55 L1825.52,1538.2 L1805.17,1517.85 L1825.52,1499.06 L1816.13,1488.1 L1825.52,1439.58 L1855.27,1448.97 L1875.62,1439.58 L1894.4,1448.97 L1914.75,1448.97 L1944.5,1398.87 L1944.5,1389.48 L1955.45,1380.09 L1955.45,1359.74 L1985.2,1329.99 L1985.2,1300.25 L2003.98,1289.29 L2003.98,1250.16 L2014.94,1250.16 L2054.08,1259.55 L2065.03,1259.55 L2104.17,1259.55 L2113.56,1270.51 L2154.26,1270.51 L2193.4,1279.9 L2202.79,1279.9 L2213.75,1279.9 L2234.1,1300.25 L2234.1,1329.99 L2273.24,1339.39 L2282.63,1339.39 L2312.37,1339.39 L2312.37,1329.99 L2342.12,1319.04 L2353.07,1300.25 L2342.12,1270.51 L2332.72,1240.77 L2312.37,1211.02 L2302.98,1200.06 L2273.24,1220.41 L2263.84,1211.02 L2252.89,1181.28 L2223.14,1151.54 L2223.14,1140.58 L2202.79,1131.18 L2202.79,1110.83 L2193.4,1101.44 L2163.66,1140.58 L2154.26,1131.18 L2113.56,1151.54 L2094.78,1151.54 L2083.82,1140.58 L2033.73,1160.93 L2033.73,1170.32 L2024.33,1200.06 L1985.2,1190.67 L1964.85,1211.02 L1925.71,1190.67 L1914.75,1200.06 L1875.62,1229.81 L1894.4,1259.55 L1894.4,1279.9 L1905.36,1300.25 L1864.66,1329.99 L1845.87,1329.99 L1834.91,1329.99 L1795.78,1329.99 L1786.39,1329.99 L1756.64,1339.39 L1756.64,1380.09 L1745.68,1398.87 L1736.29,1398.87 L1715.94,1380.09 L1686.2,1369.13 L1665.85,1339.39 L1656.46,1329.99 L1636.1,1309.64 L1626.71,1309.64 L1626.71,1319.04 L1567.23,1300.25 L1567.23,1289.29 L1546.87,1279.9 L1537.48,1259.55 L1526.52,1250.16 L1517.13,1240.77 L1546.87,1200.06 L1556.27,1200.06 L1576.62,1181.28 L1596.97,1181.28 L1626.71,1170.32 L1647.06,1181.28 L1656.46,1190.67 L1656.46,1211.02 L1676.81,1229.81 L1676.81,1240.77 L1715.94,1220.41 L1706.55,1200.06 L1725.33,1170.32 L1736.29,1160.93 L1756.64,1121.79 L1756.64,1110.83 L1745.68,1110.83 L1725.33,1092.05 L1706.55,1081.09 L1686.2,1062.31 L1686.2,1032.56 L1706.55,1021.6 L1715.94,1021.6 L1745.68,1002.82 L1745.68,991.861 L1756.64,982.468 L1766.04,952.725 L1766.04,943.332 L1775.43,932.374 L1795.78,932.374 L1795.78,922.982 L1845.87,932.374 L1855.27,932.374 L1894.4,932.374 L1905.36,943.332 L1914.75,943.332 L1935.1,922.982 L1935.1,893.239 L1925.71,883.846 L1944.5,854.103 L1955.45,854.103 L1974.24,863.495 L2003.98,863.495 L2024.33,872.888 L2065.03,843.145 L2065.03,833.752 L2074.43,804.009 L2074.43,794.616 L2083.82,794.616 L2104.17,774.266 L2124.52,763.307 L2124.52,733.564 L2163.66,744.522 L2154.26,774.266 L2173.05,794.616 L2184.01,794.616 L2184.01,804.009 L2252.89,794.616 L2273.24,794.616 L2293.59,804.009 L2302.98,813.401 L2312.37,804.009 L2353.07,824.359 L2371.86,863.495 L2403.17,843.145 L2412.56,824.359 L2432.91,824.359 L2462.65,804.009 L2481.44,794.616 L2492.4,753.915 L2522.14,753.915 L2531.53,774.266 L2561.28,783.658 L2581.63,774.266 L2591.02,783.658 L2601.98,774.266 L2620.76,753.915 L2650.51,744.522 L2670.86,774.266 L2700.6,763.307 L2711.56,783.658 L2711.56,813.401 L2720.95,824.359 L2720.95,833.752 L2741.3,854.103 L2760.09,854.103 L2771.04,893.239 L2771.04,902.631 L2780.44,932.374 L2780.44,943.332 L2780.44,962.118 L2810.18,982.468 L2819.57,982.468 L2849.32,962.118 L2860.27,943.332 L2869.67,932.374 L2890.02,913.589 L2869.67,872.888 L2869.67,863.495 L2910.37,843.145 L2940.11,854.103 L2958.9,863.495 L2958.9,883.846 L2969.86,913.589 L2958.9,943.332 L2940.11,952.725 L2940.11,973.076 L2940.11,1002.82 L2949.5,1041.95 L2910.37,1051.35 L2899.41,1062.31 L2860.27,1081.09 L2849.32,1081.09 L2839.92,1081.09 L2830.53,1092.05 L2830.53,1151.54 L2839.92,1151.54 L2839.92,1190.67 L2849.32,1211.02 L2869.67,1211.02 L2890.02,1211.02 L2919.76,1211.02 L2929.15,1211.02 L2949.5,1211.02 L2958.9,1220.41 L2969.86,1250.16 L2999.6,1270.51 L3019.95,1319.04 L3029.34,1350.35 L3049.69,1389.48 L3059.08,1398.87 L3068.48,1439.58 L3098.22,1439.58 L3109.18,1478.71 L3127.96,1488.1 L3127.96,1517.85 L3127.96,1528.81 L3088.83,1538.2 L3059.08,1547.59 L3049.69,1558.55 L3008.99,1558.55 L2999.6,1577.33 L2999.6,1597.68 L2979.25,1627.43 L2969.86,1627.43 L2958.9,1618.03 L2940.11,1636.82 L2899.41,1636.82 L2869.67,1636.82 L2869.67,1607.08 L2839.92,1597.68 L2839.92,1577.33 L2810.18,1558.55 L2800.79,1558.55 L2780.44,1597.68 L2771.04,1607.08 L2741.3,1618.03 L2741.3,1627.43 L2700.6,1647.78 L2670.86,1657.17 L2670.86,1666.56 L2631.72,1677.52 L2631.72,1686.91 L2601.98,1696.31 L2591.02,1707.26 L2581.63,1716.66 L2581.63,1737.01 L2581.63,1755.79 L2581.63,1766.75 L2581.63,1796.49 L2611.37,1805.89 L2631.72,1776.14 L2650.51,1766.75 L2661.46,1755.79 L2691.21,1755.79 L2691.21,1766.75 L2730.34,1766.75 L2750.69,1785.54 L2741.3,1815.28 L2741.3,1826.24 L2720.95,1845.02 L2680.25,1845.02 L2680.25,1855.98 L2661.46,1865.37 L2641.11,1855.98 L2620.76,1885.72 L2591.02,1865.37 L2572.23,1895.12 L2581.63,1906.07 L2551.88,1935.82 L2551.88,1945.21 L2531.53,1954.6 L2531.53,1974.95 L2501.79,1984.35 L2501.79,2004.7 L2522.14,2025.05 L2542.49,2025.05 L2542.49,2034.44 L2551.88,2064.18 L2542.49,2084.53 L2522.14,2093.93 L2501.79,2114.28 L2492.4,2114.28 L2472.05,2133.06 L2432.91,2133.06 L2421.95,2123.67 L2412.56,2133.06 L2392.21,2144.02 L2371.86,2153.41 L2342.12,2144.02 L2332.72,2144.02 L2312.37,2133.06 L2302.98,2123.67 L2263.84,2123.67 L2252.89,2133.06 L2234.1,2133.06 L2223.14,2153.41 L2193.4,2162.81 L2173.05,2153.41 L2143.31,2153.41 L2133.91,2144.02 L2113.56,2153.41 L2094.78,2183.16 L2074.43,2183.16 L2054.08,2212.9 L2065.03,2233.25 L2044.68,2252.04 L2044.68,2262.99 L2024.33,2292.74 L2003.98,2322.48 L2003.98,2331.87 L1994.59,2352.22 L1964.85,2361.62 L1935.1,2331.87 L1935.1,2322.48 L1894.4,2302.13 L1864.66,2292.74 L1855.27,2262.99 L1845.87,2222.29 L1834.91,2212.9 L1816.13,2212.9 L1805.17,2212.9 L1795.78,2222.29 L1795.78,2242.64 L1756.64,2252.04 L1756.64,2272.39 L1715.94,2281.78 L1686.2,2292.74 L1676.81,2302.13 L1647.06,2292.74 L1647.06,2272.39 L1665.85,2242.64 L1665.85,2233.25 L1676.81,2222.29 L1695.59,2203.51 L1686.2,2183.16 L1695.59,2173.76 L1686.2,2144.02 L1695.59,2123.67 L1715.94,2114.28 L1725.33,2114.28 L1756.64,2073.58 L1745.68,2064.18 L1715.94,2043.83 L1706.55,2043.83 L1686.2,2043.83 L1647.06,2043.83 L1626.71,2014.09 L1647.06,1974.95 L1656.46,1965.56 L1656.46,1945.21 L1636.1,1924.86 L1606.36,1935.82 L1587.58,1906.07 L1576.62,1876.33 L1567.23,1855.98 L1567.23,1845.02 L1606.36,1826.24 M2620.76,1279.9 L2601.98,1300.25 L2601.98,1319.04 L2631.72,1339.39 L2650.51,1309.64 L2641.11,1289.29 L2620.76,1279.9"
         vector-effect="none"
         id="path365" />
      <path
         fill-rule="evenodd"
         d="M601.352,843.145 L582.567,863.495 L552.824,843.145 L532.473,854.103 L512.122,843.145 L502.73,813.401 L523.08,794.616 L541.866,794.616 L582.567,753.915 L571.609,744.522 L552.824,733.564 L523.08,724.172 L512.122,733.564 L482.379,733.564 L472.986,744.522 L462.028,744.522 L443.243,714.779 L452.636,685.036 L472.986,685.036 L493.337,664.685 L512.122,674.078 L523.08,674.078 L562.216,685.036 L582.567,664.685 L582.567,644.334 L582.567,634.942 L571.609,605.199 L571.609,595.806 L562.216,566.063 L552.824,555.105 L562.216,506.576 L562.216,476.833 L571.609,465.875 L571.609,456.482 L591.96,436.132 L621.703,417.346 L621.703,387.603 L591.96,387.603 L582.567,396.996 L541.866,387.603 L532.473,396.996 L523.08,396.996 L502.73,357.86 L482.379,357.86 L452.636,337.509 L452.636,328.117 L422.893,317.159 L413.5,328.117 L372.799,317.159 L393.149,278.023 L413.5,278.023 L422.893,268.63 L452.636,278.023 L462.028,268.63 L462.028,238.887 L432.285,218.536 L422.893,218.536 L393.149,218.536 L372.799,177.835 L383.757,168.442 L402.542,138.699 L422.893,138.699 L443.243,129.306 L462.028,138.699 L482.379,129.306 L502.73,138.699 L523.08,129.306 L541.866,138.699 L562.216,168.442 L562.216,188.793 L562.216,207.578 L571.609,218.536 L571.609,248.279 L612.31,268.63 L621.703,268.63 L642.053,278.023 L662.404,268.63 L671.797,268.63 L692.147,257.672 L721.891,268.63 L721.891,278.023 L761.026,257.672 L761.026,227.929 L740.676,198.185 L740.676,188.793 L731.283,177.835 L731.283,138.699 L761.026,129.306 L790.77,148.092 L790.77,168.442 L801.728,188.793 L801.728,218.536 L820.513,227.929 L811.12,257.672 L801.728,268.63 L790.77,298.373 L790.77,307.766 L801.728,337.509 L790.77,346.902 L801.728,357.86 L801.728,396.996 L811.12,447.09 L811.12,456.482 L790.77,456.482 L770.419,447.09 L740.676,447.09 L731.283,456.482 L731.283,476.833 L740.676,495.618 L731.283,525.361 L751.634,545.712 L751.634,584.848 L761.026,584.848 L761.026,595.806 L790.77,625.549 L801.728,625.549 L820.513,605.199 L861.214,614.591 L880,614.591 L890.958,625.549 L930.093,625.549 L970.795,634.942 L989.58,644.334 L1000.54,655.292 L980.187,694.428 L970.795,703.821 L970.795,724.172 L1000.54,753.915 L1009.93,753.915 L1060.02,753.915 L1060.02,763.307 L1060.02,794.616 L1049.07,804.009 L1060.02,833.752 L1039.67,863.495 L1000.54,883.846 L989.58,893.239 L970.795,902.631 L959.837,922.982 L970.795,943.332 L989.58,952.725 L1000.54,952.725 L1030.28,962.118 L1039.67,952.725 L1060.02,962.118 L1069.42,1002.82 L1030.28,1021.6 L1019.32,1012.21 L989.58,1021.6 L980.187,1032.56 L950.444,1051.35 L909.743,1041.95 L900.35,1032.56 L890.958,1032.56 L861.214,1012.21 L850.256,1002.82 L880,982.468 L870.607,932.374 L861.214,932.374 L861.214,922.982 L831.471,913.589 L820.513,913.589 L790.77,872.888 L801.728,872.888 L790.77,843.145 L790.77,833.752 L790.77,813.401 L761.026,804.009 L740.676,824.359 L761.026,843.145 L751.634,863.495 L770.419,893.239 L761.026,902.631 L731.283,913.589 L710.933,893.239 L710.933,863.495 L710.933,854.103 L681.189,854.103 L662.404,863.495 L642.053,854.103 L632.661,863.495 L601.352,843.145"
         vector-effect="none"
         id="path367" />
      <path
         fill-rule="evenodd"
         d="M1546.87,1707.26 L1546.87,1696.31 L1556.27,1696.31 L1587.58,1726.05 L1587.58,1746.4 L1596.97,1776.14 L1587.58,1796.49 L1567.23,1796.49 L1546.87,1815.28 L1526.52,1815.28 L1517.13,1835.63 L1478,1815.28 L1478,1796.49 L1457.64,1776.14 L1467.04,1766.75 L1457.64,1737.01 L1467.04,1726.05 L1507.74,1716.66 L1546.87,1707.26"
         vector-effect="none"
         id="path369" />
      <path
         fill-rule="evenodd"
         d="M1695.59,1439.58 L1706.55,1439.58 L1736.29,1478.71 L1745.68,1478.71 L1766.04,1499.06 L1775.43,1517.85 L1775.43,1538.2 L1766.04,1558.55 L1715.94,1558.55 L1706.55,1567.94 L1686.2,1558.55 L1656.46,1567.94 L1636.1,1538.2 L1647.06,1499.06 L1676.81,1499.06 L1686.2,1508.45 L1706.55,1488.1 L1695.59,1439.58"
         vector-effect="none"
         id="path371" />
      <path
         fill-rule="evenodd"
         d="M1507.74,2153.41 L1517.13,2192.55 L1487.39,2212.9 L1448.25,2192.55 L1448.25,2173.76 L1416.94,2153.41 L1427.9,2114.28 L1467.04,2114.28 L1487.39,2133.06 L1487.39,2144.02 L1507.74,2153.41"
         vector-effect="none"
         id="path373" />
      <path
         fill-rule="evenodd"
         d="M3088.83,1229.81 L3059.08,1211.02 L3059.08,1190.67 L3098.22,1160.93 L3109.18,1170.32 L3127.96,1190.67 L3109.18,1229.81 L3088.83,1229.81"
         vector-effect="none"
         id="path375" />
      <path
         fill-rule="evenodd"
         d="M2421.95,625.549 L2442.3,625.549 L2462.65,655.292 L2451.7,664.685 L2432.91,674.078 L2403.17,664.685 L2421.95,625.549"
         vector-effect="none"
         id="path377" />
      <path
         fill-rule="evenodd"
         d="M1398.16,2242.64 L1398.16,2233.25 L1437.29,2222.29 L1448.25,2242.64 L1437.29,2272.39 L1416.94,2272.39 L1398.16,2242.64"
         vector-effect="none"
         id="path379" />
      <path
         fill-rule="evenodd"
         d="M1478,2272.39 L1487.39,2252.04 L1517.13,2262.99 L1526.52,2281.78 L1526.52,2302.13 L1517.13,2302.13 L1496.78,2302.13 L1478,2272.39"
         vector-effect="none"
         id="path381" />
      <path
         fill-rule="evenodd"
         d="M1487.39,1279.9 L1507.74,1300.25 L1507.74,1309.64 L1478,1329.99 L1467.04,1319.04 L1478,1279.9 L1487.39,1279.9"
         vector-effect="none"
         id="path383" />
      <path
         fill-rule="evenodd"
         d="M3019.95,932.374 L3019.95,893.239 L3059.08,893.239 L3068.48,902.631 L3068.48,913.589 L3038.73,932.374 L3019.95,932.374"
         vector-effect="none"
         id="path385" />
    </g>
    <g
       stroke-linejoin="bevel"
       transform="matrix(0.999751,0,0,0.999751,0,0)"
       font-weight="400"
       font-style="normal"
       fill="none"
       stroke="#000000"
       stroke-width="1"
       stroke-linecap="square"
       font-size="32.5"
       font-family="MS Shell Dlg 2"
       stroke-opacity="1"
       id="g389" />
    <g
       stroke-linejoin="bevel"
       transform="matrix(11.8081,0,0,11.8081,0,0)"
       font-weight="400"
       font-style="normal"
       fill="none"
       stroke="#000000"
       stroke-width="1"
       stroke-linecap="square"
       font-size="32.5"
       font-family="MS Shell Dlg 2"
       stroke-opacity="1"
       id="g391" />
    <g
       stroke-linejoin="bevel"
       transform="matrix(11.8081,0,0,11.8081,0,0)"
       font-weight="400"
       font-style="normal"
       fill="none"
       stroke="#000000"
       stroke-width="1"
       stroke-linecap="square"
       font-size="32.5"
       font-family="MS Shell Dlg 2"
       stroke-opacity="1"
       id="g393" />
    <g
       stroke-linejoin="bevel"
       transform="matrix(11.8081,0,0,11.8081,0,0)"
       font-weight="400"
       font-style="normal"
       fill="none"
       stroke="#000000"
       stroke-width="1"
       stroke-linecap="square"
       font-size="32.5"
       font-family="MS Shell Dlg 2"
       stroke-opacity="1"
       id="g395" />
    <g
       stroke-linejoin="bevel"
       font-weight="400"
       font-style="normal"
       fill="none"
       stroke="#000000"
       stroke-width="1"
       stroke-linecap="square"
       font-size="32.5"
       font-family="MS Shell Dlg 2"
       stroke-opacity="1"
       id="g397"
       transform="matrix(1,0,0,1,0,0)" />
    <g
       stroke-linejoin="bevel"
       transform="matrix(11.8081,0,0,11.8081,0,0)"
       font-weight="400"
       font-style="normal"
       fill="none"
       stroke="#000000"
       stroke-width="1"
       stroke-linecap="square"
       font-size="32.5"
       font-family="MS Shell Dlg 2"
       stroke-opacity="1"
       id="g399" />
    <g
       stroke-linejoin="bevel"
       transform="matrix(11.8081,0,0,11.8081,0,0)"
       font-weight="400"
       font-style="normal"
       fill="none"
       stroke="#000000"
       stroke-width="1"
       stroke-linecap="square"
       font-size="32.5"
       font-family="MS Shell Dlg 2"
       stroke-opacity="1"
       id="g401" />
    <g
       stroke-linejoin="bevel"
       font-weight="400"
       font-style="normal"
       fill="none"
       stroke="#000000"
       stroke-width="1"
       stroke-linecap="square"
       font-size="32.5"
       font-family="MS Shell Dlg 2"
       stroke-opacity="1"
       id="g403"
       transform="matrix(1,0,0,1,0,0)" />
  </g>
  <defs
     id="defs406" />
  <g
     stroke-linejoin="bevel"
     inkscape:label="Map 1: AzisisSpiralLand (Labels)"
     inkscape:groupmode="layer"
     fill="none"
     stroke="black"
     fill-rule="evenodd"
     stroke-width="1"
     stroke-linecap="square"
     id="Map 1: AzisisSpiralLand (Labels)">
    <g
       stroke-linejoin="bevel"
       font-weight="400"
       font-style="normal"
       fill="none"
       stroke="#000000"
       stroke-width="1"
       stroke-linecap="square"
       font-size="32.5"
       font-family="MS Shell Dlg 2"
       stroke-opacity="1"
       id="g408"
       transform="matrix(1,0,0,1,0,0)" />
    <g
       stroke-linejoin="bevel"
       font-weight="400"
       font-style="normal"
       fill="none"
       stroke="#000000"
       stroke-width="1"
       stroke-linecap="square"
       font-size="32.5"
       font-family="MS Shell Dlg 2"
       stroke-opacity="1"
       id="g410"
       transform="matrix(1,0,0,1,0,0)" />
    <g
       stroke-linejoin="bevel"
       transform="matrix(11.8081,0,0,11.8081,0,0)"
       font-weight="400"
       font-style="normal"
       fill="none"
       stroke="#000000"
       stroke-width="1"
       stroke-linecap="square"
       font-size="32.5"
       font-family="MS Shell Dlg 2"
       stroke-opacity="1"
       id="g412" />
    <g
       stroke-linejoin="bevel"
       transform="matrix(11.8081,0,0,11.8081,0,0)"
       font-weight="400"
       font-style="normal"
       fill="none"
       stroke="#000000"
       stroke-width="1"
       stroke-linecap="square"
       font-size="32.5"
       font-family="MS Shell Dlg 2"
       stroke-opacity="1"
       id="g414" />
    <g
       transform="matrix(0.999751,0,0,0.999751,0,0)"
       font-weight="400"
       font-style="normal"
       fill="#000000"
       stroke="none"
       fill-opacity="0"
       font-size="32.5"
       font-family="MS Shell Dlg 2"
       id="g418">
      <rect
         height="2480"
         x="0"
         width="3508"
         y="0"
         id="rect416" />
    </g>
    <g
       stroke-linejoin="bevel"
       transform="matrix(0.999751,0,0,0.999751,0,0)"
       font-weight="400"
       font-style="normal"
       fill="none"
       stroke="#000000"
       stroke-width="1"
       stroke-linecap="square"
       font-size="32.5"
       font-family="MS Shell Dlg 2"
       stroke-opacity="1"
       id="g420" />
    <g
       stroke-linejoin="bevel"
       transform="matrix(0.3999,0,0,0.3999,2172.53,1494.73)"
       font-weight="400"
       font-style="normal"
       fill="none"
       stroke="#000000"
       stroke-width="1"
       stroke-linecap="square"
       font-size="32.5"
       font-family="MS Shell Dlg 2"
       stroke-opacity="1"
       id="g422" />
    <g
       transform="matrix(0.999751,0,0,0.999751,2172.53,1494.73)"
       font-weight="400"
       font-style="normal"
       fill="#323232"
       stroke="none"
       fill-opacity="1"
       font-size="32.5"
       font-family="MS Shell Dlg 2"
       id="g426">
      <path
         fill-rule="nonzero"
         d="M20.706,-28.434 C20.314,-26.474 20.048,-24.458 19.908,-22.386 C19.768,-20.314 19.698,-16.982 19.698,-12.39 C19.698,-7.798 19.88,-4.158 20.244,-1.47 C21.728,-1.33 23.268,-1.064 24.864,-0.672 L24.738,0.336 C22.666,0.112 20.419,0 17.997,0 C15.575,0 13.622,0.112 12.138,0.336 L11.97,-0.714 C13.23,-1.106 14.574,-1.4 16.002,-1.596 C16.226,-3.444 16.38,-6.426 16.464,-10.542 C15.008,-10.71 13.405,-10.794 11.655,-10.794 C9.905,-10.794 8.428,-10.71 7.224,-10.542 C6.552,-7.798 6.216,-5.6 6.216,-3.948 C6.216,-2.296 6.818,-1.12 8.022,-0.42 L7.854,0.168 C6.986,0.056 5.523,0 3.465,0 C1.407,0 -0.448,0.112 -2.1,0.336 L-2.268,-0.714 C-1.008,-1.106 0.336,-1.4 1.764,-1.596 L8.4,-25.116 C5.096,-25.116 2.982,-24.668 2.058,-23.772 C1.862,-23.38 1.764,-22.764 1.764,-21.924 C1.764,-21.084 1.904,-20.51 2.184,-20.202 L2.142,-19.908 C1.442,-19.488 0.742,-18.9 0.042,-18.144 C-0.294,-18.172 -0.567,-18.312 -0.777,-18.564 C-0.987,-18.816 -1.092,-19.11 -1.092,-19.446 C-1.092,-20.818 -0.266,-22.456 1.386,-24.36 C3.038,-26.264 4.578,-27.468 6.006,-27.972 C10.234,-27.496 14.518,-27.09 18.858,-26.754 C19.25,-27.258 19.572,-27.902 19.824,-28.686 L20.706,-28.434 M7.686,-12.642 C8.946,-12.446 10.437,-12.348 12.159,-12.348 C13.881,-12.348 15.316,-12.446 16.464,-12.642 C16.464,-17.598 16.394,-21.644 16.254,-24.78 L16.128,-24.906 C14.672,-25.046 12.866,-25.116 10.71,-25.116 L7.686,-12.642 M39.028,-21.504 C40.26,-21.504 41.338,-21.924 42.262,-22.764 L43.144,-22.092 C42.36,-21.392 41.464,-20.174 40.456,-18.438 L31.342,-2.688 L31.468,-2.604 L36.508,-2.604 C37.768,-2.604 38.678,-2.814 39.238,-3.234 C39.378,-4.158 39.448,-5.124 39.448,-6.132 L40.54,-6.132 C40.708,-3.584 41.576,-1.512 43.144,0.084 L42.304,0.672 C42.192,0.504 41.968,0.308 41.632,0.084 C38.44,-0.448 34.576,-0.714 30.04,-0.714 C28.164,-0.714 26.834,-0.252 26.05,0.672 L25.168,-0.042 C26.428,-1.302 27.464,-2.604 28.276,-3.948 L37.81,-19.488 L37.726,-19.572 L33.19,-19.572 C31.818,-19.572 30.642,-19.362 29.662,-18.942 C29.494,-17.962 29.214,-17.024 28.822,-16.128 L27.814,-16.254 C27.87,-17.094 27.898,-17.864 27.898,-18.564 C27.898,-19.264 27.786,-20.048 27.562,-20.916 C27.114,-21.168 26.638,-21.35 26.134,-21.462 L26.218,-22.386 C26.694,-22.386 28.479,-22.239 31.573,-21.945 C34.667,-21.651 37.152,-21.504 39.028,-21.504 M51.4,-20.496 C51.176,-18.984 51.064,-15.89 51.064,-11.214 C51.064,-6.538 51.19,-3.262 51.442,-1.386 C52.702,-1.246 53.864,-1.036 54.928,-0.756 L54.802,0.294 C53.346,0.098 51.715,0 49.909,0 C48.103,0 46.486,0.112 45.058,0.336 L44.89,-0.756 C45.674,-1.008 46.556,-1.218 47.536,-1.386 C47.788,-3.402 47.914,-6.258 47.914,-9.954 L47.914,-11.928 C47.914,-15.624 47.774,-18.48 47.494,-20.496 C46.514,-20.664 45.632,-20.874 44.848,-21.126 L45.016,-22.218 C46.444,-21.994 48.061,-21.882 49.867,-21.882 C51.673,-21.882 53.304,-21.98 54.76,-22.176 L54.886,-21.126 C53.822,-20.846 52.66,-20.636 51.4,-20.496 M60.662,-3.192 C61.95,-2.66 63.224,-2.394 64.484,-2.394 C65.744,-2.394 66.752,-2.688 67.508,-3.276 C68.264,-3.864 68.642,-4.704 68.642,-5.796 C68.642,-6.916 67.06,-8.302 63.896,-9.954 C62.692,-10.57 61.593,-11.319 60.599,-12.201 C59.605,-13.083 59.108,-13.958 59.108,-14.826 C59.108,-16.31 59.892,-17.808 61.46,-19.32 C63.028,-20.832 64.638,-21.854 66.29,-22.386 C68.362,-22.386 70.238,-22.176 71.918,-21.756 L71.918,-21 C70.742,-19.824 70.084,-18.214 69.944,-16.17 L68.894,-16.17 C68.894,-16.954 68.824,-17.934 68.684,-19.11 C67.704,-19.558 66.654,-19.782 65.534,-19.782 C64.414,-19.782 63.483,-19.537 62.741,-19.047 C61.999,-18.557 61.628,-17.85 61.628,-16.926 C61.628,-16.282 62.125,-15.582 63.119,-14.826 C64.113,-14.07 65.198,-13.398 66.374,-12.81 C67.55,-12.222 68.635,-11.494 69.629,-10.626 C70.623,-9.758 71.12,-8.89 71.12,-8.022 C71.12,-6.342 70.378,-4.669 68.894,-3.003 C67.41,-1.337 65.772,-0.168 63.98,0.504 C62.216,0.504 60.564,0.294 59.024,-0.126 C58.576,0.07 58.114,0.392 57.638,0.84 L56.882,0.294 C58.45,-1.414 59.318,-3.528 59.486,-6.048 L60.536,-6.048 C60.536,-5.068 60.578,-4.116 60.662,-3.192 M82.4,-20.496 C82.176,-18.984 82.064,-15.89 82.064,-11.214 C82.064,-6.538 82.19,-3.262 82.442,-1.386 C83.702,-1.246 84.864,-1.036 85.928,-0.756 L85.802,0.294 C84.346,0.098 82.715,0 80.909,0 C79.103,0 77.486,0.112 76.058,0.336 L75.89,-0.756 C76.674,-1.008 77.556,-1.218 78.536,-1.386 C78.788,-3.402 78.914,-6.258 78.914,-9.954 L78.914,-11.928 C78.914,-15.624 78.774,-18.48 78.494,-20.496 C77.514,-20.664 76.632,-20.874 75.848,-21.126 L76.016,-22.218 C77.444,-21.994 79.061,-21.882 80.867,-21.882 C82.673,-21.882 84.304,-21.98 85.76,-22.176 L85.886,-21.126 C84.822,-20.846 83.66,-20.636 82.4,-20.496 M89.646,-27.258 C89.982,-27.426 90.486,-27.587 91.158,-27.741 C91.83,-27.895 92.271,-27.972 92.481,-27.972 C92.691,-27.972 92.824,-27.972 92.88,-27.972 L93.384,-27.426 C92.516,-25.186 91.872,-22.12 91.452,-18.228 L90.192,-18.144 L89.646,-27.258 M99.662,-3.192 C100.95,-2.66 102.224,-2.394 103.484,-2.394 C104.744,-2.394 105.752,-2.688 106.508,-3.276 C107.264,-3.864 107.642,-4.704 107.642,-5.796 C107.642,-6.916 106.06,-8.302 102.896,-9.954 C101.692,-10.57 100.593,-11.319 99.599,-12.201 C98.605,-13.083 98.108,-13.958 98.108,-14.826 C98.108,-16.31 98.892,-17.808 100.46,-19.32 C102.028,-20.832 103.638,-21.854 105.29,-22.386 C107.362,-22.386 109.238,-22.176 110.918,-21.756 L110.918,-21 C109.742,-19.824 109.084,-18.214 108.944,-16.17 L107.894,-16.17 C107.894,-16.954 107.824,-17.934 107.684,-19.11 C106.704,-19.558 105.654,-19.782 104.534,-19.782 C103.414,-19.782 102.483,-19.537 101.741,-19.047 C100.999,-18.557 100.628,-17.85 100.628,-16.926 C100.628,-16.282 101.125,-15.582 102.119,-14.826 C103.113,-14.07 104.198,-13.398 105.374,-12.81 C106.55,-12.222 107.635,-11.494 108.629,-10.626 C109.623,-9.758 110.12,-8.89 110.12,-8.022 C110.12,-6.342 109.378,-4.669 107.894,-3.003 C106.41,-1.337 104.772,-0.168 102.98,0.504 C101.216,0.504 99.564,0.294 98.024,-0.126 C97.576,0.07 97.114,0.392 96.638,0.84 L95.882,0.294 C97.45,-1.414 98.318,-3.528 98.486,-6.048 L99.536,-6.048 C99.536,-5.068 99.578,-4.116 99.662,-3.192 M121.462,-0.504 C121.462,-2.968 122.001,-5.096 123.079,-6.888 C124.157,-8.68 125.284,-9.576 126.46,-9.576 C126.768,-9.576 127.076,-9.478 127.384,-9.282 L127.51,-8.988 C127.146,-8.288 126.922,-7.406 126.838,-6.342 L126.586,-6.174 C126.474,-6.23 126.264,-6.258 125.956,-6.258 C125.648,-6.258 125.193,-6.09 124.591,-5.754 C123.989,-5.418 123.52,-5.082 123.184,-4.746 C122.988,-4.354 122.89,-3.906 122.89,-3.402 C122.89,-2.086 123.779,-0.959 125.557,-0.021 C127.335,0.917 129.05,1.386 130.702,1.386 C134.146,1.386 135.868,-0.574 135.868,-4.494 C135.868,-5.978 134.454,-7.84 131.626,-10.08 C130.45,-11.032 129.274,-11.984 128.098,-12.936 C125.27,-15.176 123.856,-17.122 123.856,-18.774 C123.856,-20.734 124.738,-22.561 126.502,-24.255 C128.266,-25.949 130.268,-27.188 132.508,-27.972 C134.916,-27.972 137.198,-27.734 139.354,-27.258 L139.354,-26.418 C137.898,-25.074 137.086,-23.002 136.918,-20.202 L135.868,-20.202 C135.868,-21.686 135.798,-22.988 135.658,-24.108 C134.454,-24.668 133.145,-24.948 131.731,-24.948 C130.317,-24.948 129.12,-24.647 128.14,-24.045 C127.16,-23.443 126.67,-22.68 126.67,-21.756 C126.67,-20.832 127.083,-19.901 127.909,-18.963 C128.735,-18.025 129.736,-17.115 130.912,-16.233 C132.088,-15.351 133.257,-14.455 134.419,-13.545 C135.581,-12.635 136.575,-11.655 137.401,-10.605 C138.227,-9.555 138.64,-8.54 138.64,-7.56 C138.64,-4.76 137.87,-2.268 136.33,-0.084 C134.79,2.1 132.69,3.738 130.03,4.83 C126.53,4.466 123.73,3.486 121.63,1.89 C121.518,1.106 121.462,0.308 121.462,-0.504 M142.806,-21.798 L152.55,-22.092 C157.618,-22.092 160.152,-20.258 160.152,-16.59 C160.152,-14.546 159.249,-12.894 157.443,-11.634 C155.637,-10.374 153.586,-9.744 151.29,-9.744 C150.954,-9.744 150.716,-9.758 150.576,-9.786 L150.744,-11.172 L151.122,-11.172 C152.858,-11.172 154.153,-11.55 155.007,-12.306 C155.861,-13.062 156.288,-14.252 156.288,-15.876 C156.288,-17.5 155.945,-18.697 155.259,-19.467 C154.573,-20.237 153.474,-20.622 151.962,-20.622 C151.038,-20.622 150.17,-20.468 149.358,-20.16 C149.162,-18.312 149.064,-15.176 149.064,-10.752 C149.064,-6.328 149.19,-3.206 149.442,-1.386 C150.618,-1.246 151.85,-1.022 153.138,-0.714 L153.012,0.336 C151.64,0.112 149.988,0 148.056,0 C146.124,0 144.444,0.112 143.016,0.336 L142.848,-0.756 C143.688,-1.036 144.57,-1.246 145.494,-1.386 C145.774,-3.346 145.914,-6.405 145.914,-10.563 C145.914,-14.721 145.788,-17.934 145.536,-20.202 C144.556,-20.566 143.646,-20.748 142.806,-20.748 L142.806,-21.798 M168.4,-20.496 C168.176,-18.984 168.064,-15.89 168.064,-11.214 C168.064,-6.538 168.19,-3.262 168.442,-1.386 C169.702,-1.246 170.864,-1.036 171.928,-0.756 L171.802,0.294 C170.346,0.098 168.715,0 166.909,0 C165.103,0 163.486,0.112 162.058,0.336 L161.89,-0.756 C162.674,-1.008 163.556,-1.218 164.536,-1.386 C164.788,-3.402 164.914,-6.258 164.914,-9.954 L164.914,-11.928 C164.914,-15.624 164.774,-18.48 164.494,-20.496 C163.514,-20.664 162.632,-20.874 161.848,-21.126 L162.016,-22.218 C163.444,-21.994 165.061,-21.882 166.867,-21.882 C168.673,-21.882 170.304,-21.98 171.76,-22.176 L171.886,-21.126 C170.822,-20.846 169.66,-20.636 168.4,-20.496 M174.806,-21.798 L184.466,-22.092 C186.986,-22.092 188.876,-21.721 190.136,-20.979 C191.396,-20.237 192.026,-18.886 192.026,-16.926 C192.026,-15.582 191.613,-14.392 190.787,-13.356 C189.961,-12.32 188.876,-11.55 187.532,-11.046 L192.236,-1.428 C193.188,-1.26 194.084,-1.064 194.924,-0.84 L194.756,0.294 C193.58,0.098 192.257,0 190.787,0 C189.317,0 188.162,0.07 187.322,0.21 L187.154,-0.462 C187.518,-0.826 187.7,-1.428 187.7,-2.268 C187.7,-3.976 186.72,-6.72 184.76,-10.5 C184.172,-10.612 183.486,-10.668 182.702,-10.668 L182.786,-11.886 L183.206,-11.886 C186.51,-11.886 188.162,-13.398 188.162,-16.422 C188.162,-19.222 186.748,-20.622 183.92,-20.622 C182.968,-20.622 182.114,-20.468 181.358,-20.16 C181.162,-18.312 181.064,-15.148 181.064,-10.668 C181.064,-6.188 181.19,-3.094 181.442,-1.386 C182.674,-1.246 183.822,-1.036 184.886,-0.756 L184.76,0.294 C183.304,0.098 181.673,0 179.867,0 C178.061,0 176.444,0.112 175.016,0.336 L174.848,-0.756 C175.632,-1.008 176.514,-1.218 177.494,-1.386 C177.774,-3.486 177.914,-6.755 177.914,-11.193 C177.914,-15.631 177.788,-18.704 177.536,-20.412 C176.444,-20.776 175.534,-20.958 174.806,-20.958 L174.806,-21.798 M199.536,-22.344 C202.168,-22.036 204.828,-21.882 207.516,-21.882 C210.204,-21.882 212.85,-22.036 215.454,-22.344 L215.622,-21.252 C214.782,-20.916 213.914,-20.664 213.018,-20.496 C212.71,-18.2 212.556,-15.008 212.556,-10.92 C212.556,-6.832 212.71,-3.64 213.018,-1.344 C213.578,-1.26 214.614,-1.05 216.126,-0.714 L215.958,0.336 C214.614,0.112 212.892,0 210.792,0 C208.692,0 207.082,0.112 205.962,0.336 L205.794,-0.756 C206.746,-1.064 207.824,-1.288 209.028,-1.428 C209.196,-3.052 209.322,-5.306 209.406,-8.19 C208.09,-8.33 206.774,-8.4 205.458,-8.4 C204.142,-8.4 202.994,-8.33 202.014,-8.19 C201.454,-5.894 201.174,-4.298 201.174,-3.402 C201.174,-2.03 201.664,-1.064 202.644,-0.504 L202.476,0.21 C201.832,0.07 200.614,0 198.822,0 C197.03,0 195.616,0.112 194.58,0.336 L194.412,-0.756 C195.084,-1.008 196.008,-1.232 197.184,-1.428 L202.644,-20.58 C201.412,-20.776 200.334,-21 199.41,-21.252 L199.536,-22.344 M202.35,-10.164 C203.442,-9.996 204.653,-9.912 205.983,-9.912 C207.313,-9.912 208.454,-9.996 209.406,-10.164 C209.406,-15.344 209.294,-18.69 209.07,-20.202 C208.118,-20.258 207.411,-20.286 206.949,-20.286 C206.487,-20.286 205.78,-20.258 204.828,-20.202 L202.35,-10.164 M234.178,0.462 C232.358,0.154 229.887,0 226.765,0 C223.643,0 221.032,0.14 218.932,0.42 L218.806,-0.63 C219.59,-0.938 220.486,-1.19 221.494,-1.386 C221.774,-3.066 221.914,-5.922 221.914,-9.954 L221.914,-11.928 C221.914,-15.4 221.774,-18.256 221.494,-20.496 C220.57,-20.636 219.688,-20.846 218.848,-21.126 L219.016,-22.218 C220.444,-21.994 222.124,-21.882 224.056,-21.882 C225.988,-21.882 227.64,-21.994 229.012,-22.218 L229.138,-21.168 C227.878,-20.86 226.632,-20.636 225.4,-20.496 C225.176,-18.984 225.064,-15.869 225.064,-11.151 C225.064,-6.433 225.176,-3.29 225.4,-1.722 C226.072,-1.61 227.024,-1.554 228.256,-1.554 C229.488,-1.554 230.594,-1.792 231.574,-2.268 C231.966,-3.22 232.162,-4.34 232.162,-5.628 L233.212,-5.628 C233.324,-3.472 233.716,-1.722 234.388,-0.378 L234.178,0.462"
         vector-effect="none"
         id="path424" />
    </g>
    <g
       stroke-linejoin="bevel"
       transform="matrix(0.3999,0,0,0.3999,2172.53,1494.73)"
       font-weight="400"
       font-style="normal"
       fill="none"
       stroke="#000000"
       stroke-width="1"
       stroke-linecap="square"
       font-size="32.5"
       font-family="MS Shell Dlg 2"
       stroke-opacity="1"
       id="g428" />
    <g
       stroke-linejoin="bevel"
       transform="matrix(0.999751,0,0,0.999751,0,0)"
       font-weight="400"
       font-style="normal"
       fill="none"
       stroke="#000000"
       stroke-width="1"
       stroke-linecap="square"
       font-size="32.5"
       font-family="MS Shell Dlg 2"
       stroke-opacity="1"
       id="g430" />
    <g
       stroke-linejoin="bevel"
       transform="matrix(11.8081,0,0,11.8081,0,0)"
       font-weight="400"
       font-style="normal"
       fill="none"
       stroke="#000000"
       stroke-width="1"
       stroke-linecap="square"
       font-size="32.5"
       font-family="MS Shell Dlg 2"
       stroke-opacity="1"
       id="g432" />
    <g
       stroke-linejoin="bevel"
       transform="matrix(11.8081,0,0,11.8081,0,0)"
       font-weight="400"
       font-style="normal"
       fill="none"
       stroke="#000000"
       stroke-width="1"
       stroke-linecap="square"
       font-size="32.5"
       font-family="MS Shell Dlg 2"
       stroke-opacity="1"
       id="g434" />
    <g
       stroke-linejoin="bevel"
       transform="matrix(11.8081,0,0,11.8081,0,0)"
       font-weight="400"
       font-style="normal"
       fill="none"
       stroke="#000000"
       stroke-width="1"
       stroke-linecap="square"
       font-size="32.5"
       font-family="MS Shell Dlg 2"
       stroke-opacity="1"
       id="g436" />
    <g
       stroke-linejoin="bevel"
       font-weight="400"
       font-style="normal"
       fill="none"
       stroke="#000000"
       stroke-width="1"
       stroke-linecap="square"
       font-size="32.5"
       font-family="MS Shell Dlg 2"
       stroke-opacity="1"
       id="g438"
       transform="matrix(1,0,0,1,0,0)" />
    <g
       stroke-linejoin="bevel"
       transform="matrix(11.8081,0,0,11.8081,0,0)"
       font-weight="400"
       font-style="normal"
       fill="none"
       stroke="#000000"
       stroke-width="1"
       stroke-linecap="square"
       font-size="32.5"
       font-family="MS Shell Dlg 2"
       stroke-opacity="1"
       id="g440" />
    <g
       stroke-linejoin="bevel"
       transform="matrix(11.8081,0,0,11.8081,0,0)"
       font-weight="400"
       font-style="normal"
       fill="none"
       stroke="#000000"
       stroke-width="1"
       stroke-linecap="square"
       font-size="32.5"
       font-family="MS Shell Dlg 2"
       stroke-opacity="1"
       id="g442" />
    <g
       stroke-linejoin="bevel"
       font-weight="400"
       font-style="normal"
       fill="none"
       stroke="#000000"
       stroke-width="1"
       stroke-linecap="square"
       font-size="32.5"
       font-family="MS Shell Dlg 2"
       stroke-opacity="1"
       id="g444"
       transform="matrix(1,0,0,1,0,0)" />
  </g>
</svg>
