<?xml version='1.0' encoding='UTF-8' standalone='no'?>
<svg xmlns:xlink="http://www.w3.org/1999/xlink" xmlns:inkscape="http://www.inkscape.org/namespaces/inkscape" width="296.926mm" baseProfile="tiny" height="209.973mm" version="1.2" viewBox="0 0 3507 2480" xmlns="http://www.w3.org/2000/svg">
 <defs/>
 <g fill-rule="evenodd" fill="none" stroke-width="1" stroke-linejoin="bevel" stroke-linecap="square" inkscape:label="Page" stroke="black" id="Page" inkscape:groupmode="layer">
  <g fill="none" stroke-width="1" stroke-linejoin="bevel" stroke-opacity="1" stroke-linecap="square" font-weight="400" font-style="normal" stroke="#000000" transform="matrix(1,0,0,1,0,0)" font-family="MS Shell Dlg 2" font-size="32.5"/>
  <g fill="none" stroke-width="1" stroke-linejoin="bevel" stroke-opacity="1" stroke-linecap="square" font-weight="400" font-style="normal" stroke="#000000" transform="matrix(1,0,0,1,0,0)" font-family="MS Shell Dlg 2" font-size="32.5"/>
  <g fill="none" stroke-width="1" stroke-linejoin="bevel" stroke-opacity="1" stroke-linecap="square" font-weight="400" font-style="normal" stroke="#000000" transform="matrix(11.8081,0,0,11.8081,0,0)" font-family="MS Shell Dlg 2" font-size="32.5"/>
  <g fill="none" stroke-width="1" stroke-linejoin="bevel" stroke-opacity="1" stroke-linecap="square" font-weight="400" font-style="normal" stroke="#000000" transform="matrix(0.999751,0,0,0.999751,0,0)" font-family="MS Shell Dlg 2" font-size="32.5"/>
  <g fill="#ffffff" font-weight="400" font-style="normal" stroke="none" transform="matrix(0.999751,0,0,0.999751,0,0)" font-family="MS Shell Dlg 2" font-size="32.5" fill-opacity="1">
   <path fill-rule="evenodd" d="M-2,-2 L3510,-2 L3510,2483 L-2,2483 L-2,-2" vector-effect="none"/>
  </g>
  <g fill="none" stroke-width="1" stroke-linejoin="bevel" stroke-opacity="1" stroke-linecap="square" font-weight="400" font-style="normal" stroke="#000000" transform="matrix(0.999751,0,0,0.999751,0,0)" font-family="MS Shell Dlg 2" font-size="32.5"/>
  <g fill="none" stroke-width="1" stroke-linejoin="bevel" stroke-opacity="1" stroke-linecap="square" font-weight="400" font-style="normal" stroke="#000000" transform="matrix(11.8081,0,0,11.8081,0,0)" font-family="MS Shell Dlg 2" font-size="32.5"/>
  <g fill="none" stroke-width="1" stroke-linejoin="bevel" stroke-opacity="1" stroke-linecap="square" font-weight="400" font-style="normal" stroke="#000000" transform="matrix(11.8081,0,0,11.8081,0,0)" font-family="MS Shell Dlg 2" font-size="32.5"/>
  <g fill="none" stroke-width="1" stroke-linejoin="bevel" stroke-opacity="1" stroke-linecap="square" font-weight="400" font-style="normal" stroke="#000000" transform="matrix(1,0,0,1,0,0)" font-family="MS Shell Dlg 2" font-size="32.5"/>
 </g>
 <defs/>
 <g fill-rule="evenodd" fill="none" stroke-width="1" stroke-linejoin="bevel" stroke-linecap="square" inkscape:label="Map 1: Background" stroke="black" id="Map 1: Background" inkscape:groupmode="layer">
  <g fill="none" stroke-width="1" stroke-linejoin="bevel" stroke-opacity="1" stroke-linecap="square" font-weight="400" font-style="normal" stroke="#000000" transform="matrix(1,0,0,1,0,0)" font-family="MS Shell Dlg 2" font-size="32.5"/>
  <g fill="none" stroke-width="1" stroke-linejoin="bevel" stroke-opacity="1" stroke-linecap="square" font-weight="400" font-style="normal" stroke="#000000" transform="matrix(1,0,0,1,0,0)" font-family="MS Shell Dlg 2" font-size="32.5"/>
  <g fill="none" stroke-width="1" stroke-linejoin="bevel" stroke-opacity="1" stroke-linecap="square" font-weight="400" font-style="normal" stroke="#000000" transform="matrix(11.8081,0,0,11.8081,0,0)" font-family="MS Shell Dlg 2" font-size="32.5"/>
  <g fill="#ffffff" font-weight="400" font-style="normal" stroke="none" transform="matrix(11.8081,0,0,11.8081,0,0)" font-family="MS Shell Dlg 2" font-size="32.5" fill-opacity="1">
   <path fill-rule="evenodd" d="M0,0 L297,0 L297,210 L0,210 L0,0" vector-effect="none"/>
  </g>
  <g fill="none" stroke-width="1" stroke-linejoin="bevel" stroke-opacity="1" stroke-linecap="square" font-weight="400" font-style="normal" stroke="#000000" transform="matrix(11.8081,0,0,11.8081,0,0)" font-family="MS Shell Dlg 2" font-size="32.5"/>
  <g fill="none" stroke-width="1" stroke-linejoin="bevel" stroke-opacity="1" stroke-linecap="square" font-weight="400" font-style="normal" stroke="#000000" transform="matrix(11.8081,0,0,11.8081,0,0)" font-family="MS Shell Dlg 2" font-size="32.5"/>
  <g fill="none" stroke-width="1" stroke-linejoin="bevel" stroke-opacity="1" stroke-linecap="square" font-weight="400" font-style="normal" stroke="#000000" transform="matrix(11.8081,0,0,11.8081,0,0)" font-family="MS Shell Dlg 2" font-size="32.5"/>
  <g fill="none" stroke-width="1" stroke-linejoin="bevel" stroke-opacity="1" stroke-linecap="square" font-weight="400" font-style="normal" stroke="#000000" transform="matrix(11.8081,0,0,11.8081,0,0)" font-family="MS Shell Dlg 2" font-size="32.5"/>
  <g fill="none" stroke-width="1" stroke-linejoin="bevel" stroke-opacity="1" stroke-linecap="square" font-weight="400" font-style="normal" stroke="#000000" transform="matrix(1,0,0,1,0,0)" font-family="MS Shell Dlg 2" font-size="32.5"/>
  <g fill="none" stroke-width="1" stroke-linejoin="bevel" stroke-opacity="1" stroke-linecap="square" font-weight="400" font-style="normal" stroke="#000000" transform="matrix(11.8081,0,0,11.8081,0,0)" font-family="MS Shell Dlg 2" font-size="32.5"/>
  <g fill="none" stroke-width="1" stroke-linejoin="bevel" stroke-opacity="1" stroke-linecap="square" font-weight="400" font-style="normal" stroke="#000000" transform="matrix(11.8081,0,0,11.8081,0,0)" font-family="MS Shell Dlg 2" font-size="32.5"/>
  <g fill="none" stroke-width="1" stroke-linejoin="bevel" stroke-opacity="1" stroke-linecap="square" font-weight="400" font-style="normal" stroke="#000000" transform="matrix(1,0,0,1,0,0)" font-family="MS Shell Dlg 2" font-size="32.5"/>
 </g>
 <defs/>
 <g fill-rule="evenodd" fill="none" stroke-width="1" stroke-linejoin="bevel" stroke-linecap="square" inkscape:label="Map 1: CaliburnProvinces" stroke="black" id="Map 1: CaliburnProvinces" inkscape:groupmode="layer">
  <g fill="none" stroke-width="1" stroke-linejoin="bevel" stroke-opacity="1" stroke-linecap="square" font-weight="400" font-style="normal" stroke="#000000" transform="matrix(1,0,0,1,0,0)" font-family="MS Shell Dlg 2" font-size="32.5"/>
  <g fill="none" stroke-width="1" stroke-linejoin="bevel" stroke-opacity="1" stroke-linecap="square" font-weight="400" font-style="normal" stroke="#000000" transform="matrix(1,0,0,1,0,0)" font-family="MS Shell Dlg 2" font-size="32.5"/>
  <g fill="none" stroke-width="1" stroke-linejoin="bevel" stroke-opacity="1" stroke-linecap="square" font-weight="400" font-style="normal" stroke="#000000" transform="matrix(11.8081,0,0,11.8081,0,0)" font-family="MS Shell Dlg 2" font-size="32.5"/>
  <g fill="none" stroke-width="1" stroke-linejoin="bevel" stroke-opacity="1" stroke-linecap="square" font-weight="400" font-style="normal" stroke="#000000" transform="matrix(11.8081,0,0,11.8081,0,0)" font-family="MS Shell Dlg 2" font-size="32.5"/>
  <g fill="#000000" font-weight="400" font-style="normal" stroke="none" transform="matrix(0.999751,0,0,0.999751,0,0)" font-family="MS Shell Dlg 2" font-size="32.5" fill-opacity="0">
   <rect width="3508" height="2480" x="0" y="0"/>
  </g>
  <g fill="none" stroke-width="1" stroke-linejoin="bevel" stroke-opacity="1" stroke-linecap="square" font-weight="400" font-style="normal" stroke="#000000" transform="matrix(0.999751,0,0,0.999751,0,0)" font-family="MS Shell Dlg 2" font-size="32.5"/>
  <g fill="#cd9499" stroke-width="2.95276" stroke-linejoin="bevel" stroke-opacity="1" stroke-linecap="square" font-weight="400" font-style="normal" stroke="#232323" transform="matrix(0.999751,0,0,0.999751,0,0)" font-family="MS Shell Dlg 2" font-size="32.5" fill-opacity="1">
   <path fill-rule="evenodd" d="M913.476,1692.85 L943.032,1652.4 L874.586,1613.51 L883.92,1604.18 L883.92,1593.29 L883.92,1545.07 L883.92,1534.18 L933.698,1515.51 L933.698,1465.73 L943.032,1406.62 L943.032,1397.29 L933.698,1356.84 L893.253,1347.51 L893.253,1288.4 L922.809,1268.17 L981.922,1279.06 L981.922,1218.39 L1002.14,1188.84 L992.811,1170.17 L992.811,1100.17 L1061.26,1120.39 L1072.15,1111.06 L1111.03,1111.06 L1149.92,1111.06 L1181.04,1090.84 L1229.26,1120.39 L1240.15,1111.06 L1299.26,1100.17 L1308.59,1100.17 L1338.15,1100.17 L1349.04,1090.84 L1417.49,1120.39 L1408.15,1149.95 L1467.26,1188.84 L1456.37,1218.39 L1526.38,1238.62 L1535.71,1258.84 L1535.71,1279.06 L1526.38,1288.4 L1526.38,1327.28 L1526.38,1338.17 L1546.6,1386.4 L1585.49,1397.29 L1594.82,1426.84 L1594.82,1436.18 L1585.49,1445.51 L1565.27,1515.51 L1594.82,1524.84 L1576.15,1593.29 L1555.93,1593.29 L1535.71,1622.85 L1585.49,1663.29 L1576.15,1681.96 L1526.38,1681.96 L1517.04,1681.96 L1467.26,1702.18 L1456.37,1681.96 L1408.15,1672.62 L1387.93,1692.85 L1367.71,1692.85 L1349.04,1702.18 L1349.04,1731.74 L1367.71,1761.29 L1317.93,1800.18 L1299.26,1811.07 L1299.26,1870.18 L1258.82,1890.41 L1229.26,1860.85 L1181.04,1879.52 L1149.92,1870.18 L1131.26,1870.18 L1101.7,1870.18 L1081.48,1870.18 L1031.7,1820.4 L1022.37,1831.29 L1002.14,1860.85 L992.811,1870.18 L943.032,1840.63 L933.698,1811.07 L943.032,1761.29 L922.809,1741.07 L913.476,1692.85" vector-effect="none"/>
   <path fill-rule="evenodd" d="M2870.4,1811.07 L2840.84,1820.4 L2820.62,1811.07 L2811.29,1811.07 L2781.73,1840.63 L2772.4,1849.96 L2752.18,1870.18 L2711.73,1870.18 L2682.18,1860.85 L2702.4,1820.4 L2731.95,1790.85 L2722.62,1790.85 L2652.62,1761.29 L2682.18,1702.18 L2702.4,1692.85 L2702.4,1672.62 L2682.18,1604.18 L2711.73,1574.62 L2722.62,1583.96 L2761.51,1593.29 L2801.95,1524.84 L2801.95,1534.18 L2811.29,1574.62 L2831.51,1583.96 L2831.51,1604.18 L2850.18,1622.85 L2850.18,1643.07 L2861.07,1643.07 L2909.29,1622.85 L2899.96,1613.51 L2940.4,1583.96 L2959.07,1583.96 L2959.07,1545.07 L2920.18,1554.4 L2909.29,1545.07 L2899.96,1545.07 L2890.62,1545.07 L2890.62,1534.18 L2909.29,1495.29 L2890.62,1465.73 L2879.73,1465.73 L2879.73,1456.4 L2870.4,1456.4 L2870.4,1397.29 L2909.29,1397.29 L2920.18,1367.73 L2929.51,1347.51 L2949.74,1327.28 L2959.07,1327.28 L3008.85,1308.62 L3029.07,1356.84 L2999.51,1377.06 L2999.51,1397.29 L3008.85,1406.62 L3038.4,1406.62 L3047.74,1415.95 L3067.96,1406.62 L3078.85,1415.95 L3078.85,1456.4 L3067.96,1456.4 L3047.74,1475.07 L3038.4,1475.07 L3008.85,1504.62 L3018.18,1545.07 L3058.63,1574.62 L3078.85,1574.62 L3088.18,1574.62 L3117.74,1583.96 L3127.07,1583.96 L3167.52,1593.29 L3176.85,1583.96 L3176.85,1554.4 L3206.41,1524.84 L3215.74,1524.84 L3226.63,1534.18 L3276.41,1534.18 L3315.3,1534.18 L3335.52,1574.62 L3324.63,1583.96 L3276.41,1574.62 L3276.41,1583.96 L3246.85,1583.96 L3235.96,1613.51 L3265.52,1633.73 L3246.85,1663.29 L3276.41,1692.85 L3265.52,1711.51 L3226.63,1711.51 L3206.41,1722.4 L3186.18,1722.4 L3176.85,1741.07 L3156.63,1741.07 L3137.96,1770.63 L3097.52,1761.29 L3078.85,1770.63 L3067.96,1770.63 L3047.74,1790.85 L3047.74,1800.18 L3018.18,1820.4 L3029.07,1849.96 L3018.18,1860.85 L3018.18,1870.18 L2999.51,1890.41 L2969.96,1879.52 L2959.07,1890.41 L2940.4,1890.41 L2929.51,1890.41 L2890.62,1879.52 L2890.62,1849.96 L2899.96,1849.96 L2890.62,1820.4 L2870.4,1811.07" vector-effect="none"/>
   <path fill-rule="evenodd" d="M1308.59,2215.52 L1299.26,2215.52 L1249.48,2215.52 L1181.04,2204.63 L1181.04,2185.97 L1181.04,2165.74 L1210.59,2156.41 L1210.59,2126.85 L1170.15,2086.41 L1170.15,2077.08 L1229.26,2056.85 L1240.15,2038.19 L1299.26,2047.52 L1317.93,2008.63 L1367.71,2017.96 L1397.26,1997.74 L1408.15,2008.63 L1476.6,1979.07 L1476.6,1958.85 L1506.15,1938.63 L1535.71,1909.07 L1535.71,1879.52 L1605.71,1879.52 L1615.04,1890.41 L1635.27,1929.3 L1685.05,1909.07 L1714.6,1929.3 L1753.49,1929.3 L1773.71,1958.85 L1783.05,1979.07 L1832.83,1997.74 L1882.6,2027.3 L1882.6,2056.85 L1862.38,2106.63 L1871.72,2136.19 L1871.72,2156.41 L1891.94,2175.08 L1882.6,2215.52 L1871.72,2224.86 L1842.16,2234.19 L1832.83,2274.64 L1812.6,2293.3 L1792.38,2293.3 L1783.05,2293.3 L1744.16,2343.08 L1714.6,2322.86 L1703.71,2304.19 L1644.6,2293.3 L1644.6,2283.97 L1594.82,2283.97 L1535.71,2283.97 L1526.38,2293.3 L1485.93,2254.41 L1485.93,2245.08 L1485.93,2224.86 L1467.26,2204.63 L1467.26,2165.74 L1437.71,2156.41 L1426.82,2165.74 L1417.49,2215.52 L1397.26,2234.19 L1378.6,2224.86 L1349.04,2215.52 L1317.93,2215.52 L1308.59,2215.52" vector-effect="none"/>
   <path fill-rule="evenodd" d="M2405.28,992.834 L2366.39,963.278 L2366.39,922.833 L2307.28,913.499 L2307.28,893.277 L2327.5,845.054 L2307.28,815.497 L2248.17,815.497 L2237.28,795.275 L2257.5,745.496 L2287.06,745.496 L2307.28,706.607 L2346.17,715.94 L2366.39,686.384 L2416.17,686.384 L2416.17,677.05 L2504.84,706.607 L2484.62,745.496 L2543.73,775.052 L2563.95,756.385 L2554.62,686.384 L2602.84,695.717 L2613.73,666.161 L2663.51,666.161 L2672.84,686.384 L2711.73,666.161 L2731.95,636.605 L2781.73,647.494 L2801.95,636.605 L2831.51,656.828 L2831.51,695.717 L2831.51,706.607 L2820.62,745.496 L2890.62,765.719 L2879.73,785.941 L2850.18,804.608 L2840.84,824.831 L2850.18,845.054 L2831.51,874.61 L2831.51,922.833 L2840.84,933.722 L2840.84,963.278 L2831.51,972.611 L2801.95,981.945 L2781.73,1022.39 L2761.51,1041.06 L2741.29,1041.06 L2722.62,1022.39 L2663.51,1041.06 L2652.62,1051.95 L2593.51,1031.72 L2563.95,1051.95 L2543.73,1051.95 L2525.06,1070.61 L2484.62,1061.28 L2465.95,1031.72 L2465.95,1002.17 L2425.5,981.945 L2405.28,992.834" vector-effect="none"/>
   <path fill-rule="evenodd" d="M1120.37,686.384 L1111.03,686.384 L1090.81,636.605 L1072.15,627.272 L1061.26,577.493 L1081.48,547.937 L1072.15,529.27 L1072.15,509.047 L1051.92,479.491 L1061.26,440.602 L1111.03,440.602 L1120.37,449.935 L1170.15,440.602 L1181.04,411.046 L1190.37,400.156 L1229.26,400.156 L1240.15,390.823 L1258.82,400.156 L1258.82,449.935 L1288.37,449.935 L1317.93,470.158 L1317.93,479.491 L1308.59,518.381 L1338.15,529.27 L1349.04,597.716 L1349.04,636.605 L1358.37,656.828 L1358.37,666.161 L1288.37,686.384 L1288.37,695.717 L1240.15,736.163 L1240.15,745.496 L1229.26,765.719 L1181.04,795.275 L1160.81,745.496 L1170.15,695.717 L1120.37,686.384" vector-effect="none"/>
   <path fill-rule="evenodd" d="M863.697,972.611 L883.92,913.499 L883.92,904.166 L883.92,893.277 L834.141,854.387 L824.808,854.387 L843.475,815.497 L874.586,824.831 L904.142,795.275 L863.697,745.496 L883.92,736.163 L904.142,695.717 L952.365,686.384 L963.255,686.384 L963.255,695.717 L1051.92,756.385 L1061.26,785.941 L1101.7,795.275 L1120.37,815.497 L1111.03,863.721 L1111.03,933.722 L1101.7,933.722 L1051.92,933.722 L1042.59,972.611 L1031.7,992.834 L1002.14,1002.17 L981.922,992.834 L933.698,1002.17 L922.809,992.834 L883.92,992.834 L863.697,972.611" vector-effect="none"/>
   <path fill-rule="evenodd" d="M2237.28,2254.41 L2227.94,2254.41 L2189.05,2215.52 L2207.72,2185.97 L2148.61,2126.85 L2148.61,2115.97 L2189.05,2097.3 L2198.39,2047.52 L2218.61,2038.19 L2237.28,2047.52 L2297.95,2027.3 L2307.28,2086.41 L2366.39,2106.63 L2366.39,2115.97 L2425.5,2136.19 L2425.5,2145.52 L2357.06,2185.97 L2395.95,2215.52 L2405.28,2234.19 L2357.06,2263.75 L2316.61,2234.19 L2287.06,2283.97 L2266.83,2283.97 L2237.28,2254.41" vector-effect="none"/>
   <path fill-rule="evenodd" d="M2168.83,1781.52 L2139.28,1790.85 L2098.83,1761.29 L2098.83,1751.96 L2119.05,1711.51 L2178.17,1722.4 L2189.05,1643.07 L2227.94,1633.73 L2237.28,1643.07 L2266.83,1692.85 L2287.06,1731.74 L2327.5,1751.96 L2287.06,1800.18 L2237.28,1800.18 L2227.94,1820.4 L2218.61,1831.29 L2168.83,1781.52" vector-effect="none"/>
   <path fill-rule="evenodd" d="M745.473,588.382 L706.583,577.493 L695.694,568.16 L715.917,529.27 L686.361,499.714 L695.694,459.269 L686.361,449.935 L695.694,411.046 L715.917,390.823 L754.806,420.379 L765.695,420.379 L804.585,390.823 L834.141,420.379 L854.364,411.046 L893.253,420.379 L904.142,449.935 L893.253,459.269 L883.92,518.381 L874.586,529.27 L824.808,518.381 L834.141,597.716 L824.808,597.716 L775.029,558.826 L745.473,588.382" vector-effect="none"/>
   <path fill-rule="evenodd" d="M2010.16,1149.95 L2010.16,1120.39 L2021.05,1111.06 L2059.94,1090.84 L2050.61,1022.39 L2050.61,1011.5 L2059.94,1002.17 L2069.27,1002.17 L2109.72,992.834 L2128.39,1070.61 L2189.05,1041.06 L2178.17,1111.06 L2189.05,1120.39 L2168.83,1149.95 L2168.83,1159.28 L2128.39,1149.95 L2128.39,1218.39 L2080.16,1209.06 L2000.83,1218.39 L2010.16,1159.28 L2010.16,1149.95" vector-effect="none"/>
   <path fill-rule="evenodd" d="M2307.28,1367.73 L2307.28,1356.84 L2297.95,1327.28 L2297.95,1297.73 L2287.06,1279.06 L2307.28,1247.95 L2375.72,1238.62 L2375.72,1229.28 L2416.17,1218.39 L2425.5,1258.84 L2484.62,1288.4 L2455.06,1327.28 L2475.28,1377.06 L2475.28,1386.4 L2434.84,1397.29 L2405.28,1386.4 L2366.39,1426.84 L2336.84,1386.4 L2307.28,1367.73" vector-effect="none"/>
   <path fill-rule="evenodd" d="M1703.71,854.387 L1703.71,834.164 L1685.05,795.275 L1714.6,765.719 L1733.27,756.385 L1723.94,695.717 L1783.05,686.384 L1812.6,686.384 L1842.16,756.385 L1853.05,756.385 L1882.6,795.275 L1823.49,845.054 L1823.49,874.61 L1823.49,883.943 L1792.38,883.943 L1753.49,863.721 L1723.94,883.943 L1703.71,854.387" vector-effect="none"/>
   <path fill-rule="evenodd" d="M1723.94,1327.28 L1703.71,1317.95 L1703.71,1288.4 L1644.6,1268.17 L1685.05,1218.39 L1694.38,1218.39 L1703.71,1170.17 L1723.94,1149.95 L1762.82,1159.28 L1783.05,1188.84 L1832.83,1188.84 L1823.49,1238.62 L1812.6,1238.62 L1832.83,1279.06 L1803.27,1308.62 L1773.71,1288.4 L1733.27,1327.28 L1723.94,1327.28" vector-effect="none"/>
   <path fill-rule="evenodd" d="M350.354,470.158 L300.576,459.269 L320.798,411.046 L339.465,400.156 L330.132,351.933 L359.688,331.711 L369.021,341.044 L379.91,390.823 L418.8,361.267 L439.023,390.823 L468.579,390.823 L468.579,449.935 L477.912,459.269 L468.579,509.047 L418.8,499.714 L409.467,509.047 L359.688,509.047 L350.354,470.158" vector-effect="none"/>
   <path fill-rule="evenodd" d="M2554.62,2056.85 L2554.62,2047.52 L2484.62,2047.52 L2475.28,1997.74 L2484.62,1988.41 L2534.39,1979.07 L2543.73,1938.63 L2593.51,1899.74 L2602.84,1909.07 L2663.51,1919.96 L2672.84,1919.96 L2663.51,1949.52 L2663.51,1979.07 L2652.62,1988.41 L2652.62,2017.96 L2602.84,2008.63 L2593.51,2056.85 L2554.62,2056.85" vector-effect="none"/>
  </g>
  <g fill="none" stroke-width="1" stroke-linejoin="bevel" stroke-opacity="1" stroke-linecap="square" font-weight="400" font-style="normal" stroke="#000000" transform="matrix(0.999751,0,0,0.999751,0,0)" font-family="MS Shell Dlg 2" font-size="32.5"/>
  <g fill="none" stroke-width="1" stroke-linejoin="bevel" stroke-opacity="1" stroke-linecap="square" font-weight="400" font-style="normal" stroke="#000000" transform="matrix(11.8081,0,0,11.8081,0,0)" font-family="MS Shell Dlg 2" font-size="32.5"/>
  <g fill="none" stroke-width="1" stroke-linejoin="bevel" stroke-opacity="1" stroke-linecap="square" font-weight="400" font-style="normal" stroke="#000000" transform="matrix(11.8081,0,0,11.8081,0,0)" font-family="MS Shell Dlg 2" font-size="32.5"/>
  <g fill="none" stroke-width="1" stroke-linejoin="bevel" stroke-opacity="1" stroke-linecap="square" font-weight="400" font-style="normal" stroke="#000000" transform="matrix(11.8081,0,0,11.8081,0,0)" font-family="MS Shell Dlg 2" font-size="32.5"/>
  <g fill="none" stroke-width="1" stroke-linejoin="bevel" stroke-opacity="1" stroke-linecap="square" font-weight="400" font-style="normal" stroke="#000000" transform="matrix(1,0,0,1,0,0)" font-family="MS Shell Dlg 2" font-size="32.5"/>
  <g fill="none" stroke-width="1" stroke-linejoin="bevel" stroke-opacity="1" stroke-linecap="square" font-weight="400" font-style="normal" stroke="#000000" transform="matrix(11.8081,0,0,11.8081,0,0)" font-family="MS Shell Dlg 2" font-size="32.5"/>
  <g fill="none" stroke-width="1" stroke-linejoin="bevel" stroke-opacity="1" stroke-linecap="square" font-weight="400" font-style="normal" stroke="#000000" transform="matrix(11.8081,0,0,11.8081,0,0)" font-family="MS Shell Dlg 2" font-size="32.5"/>
  <g fill="none" stroke-width="1" stroke-linejoin="bevel" stroke-opacity="1" stroke-linecap="square" font-weight="400" font-style="normal" stroke="#000000" transform="matrix(1,0,0,1,0,0)" font-family="MS Shell Dlg 2" font-size="32.5"/>
 </g>
</svg>
