<?xml version='1.0' encoding='UTF-8' standalone='no'?>
<svg xmlns:xlink="http://www.w3.org/1999/xlink" xmlns:inkscape="http://www.inkscape.org/namespaces/inkscape" width="296.926mm" baseProfile="tiny" height="209.973mm" version="1.2" viewBox="0 0 3507 2480" xmlns="http://www.w3.org/2000/svg">
 <defs/>
 <g fill-rule="evenodd" fill="none" stroke-width="1" stroke-linejoin="bevel" stroke-linecap="square" inkscape:label="Page" stroke="black" id="Page" inkscape:groupmode="layer">
  <g fill="none" stroke-width="1" stroke-linejoin="bevel" stroke-opacity="1" stroke-linecap="square" font-weight="400" font-style="normal" stroke="#000000" transform="matrix(1,0,0,1,0,0)" font-family="MS Shell Dlg 2" font-size="32.5"/>
  <g fill="none" stroke-width="1" stroke-linejoin="bevel" stroke-opacity="1" stroke-linecap="square" font-weight="400" font-style="normal" stroke="#000000" transform="matrix(1,0,0,1,0,0)" font-family="MS Shell Dlg 2" font-size="32.5"/>
  <g fill="none" stroke-width="1" stroke-linejoin="bevel" stroke-opacity="1" stroke-linecap="square" font-weight="400" font-style="normal" stroke="#000000" transform="matrix(11.8081,0,0,11.8081,0,0)" font-family="MS Shell Dlg 2" font-size="32.5"/>
  <g fill="none" stroke-width="1" stroke-linejoin="bevel" stroke-opacity="1" stroke-linecap="square" font-weight="400" font-style="normal" stroke="#000000" transform="matrix(0.999751,0,0,0.999751,0,0)" font-family="MS Shell Dlg 2" font-size="32.5"/>
  <g fill="#ffffff" font-weight="400" font-style="normal" stroke="none" transform="matrix(0.999751,0,0,0.999751,0,0)" font-family="MS Shell Dlg 2" font-size="32.5" fill-opacity="1">
   <path fill-rule="evenodd" d="M-2,-2 L3510,-2 L3510,2483 L-2,2483 L-2,-2" vector-effect="none"/>
  </g>
  <g fill="none" stroke-width="1" stroke-linejoin="bevel" stroke-opacity="1" stroke-linecap="square" font-weight="400" font-style="normal" stroke="#000000" transform="matrix(0.999751,0,0,0.999751,0,0)" font-family="MS Shell Dlg 2" font-size="32.5"/>
  <g fill="none" stroke-width="1" stroke-linejoin="bevel" stroke-opacity="1" stroke-linecap="square" font-weight="400" font-style="normal" stroke="#000000" transform="matrix(11.8081,0,0,11.8081,0,0)" font-family="MS Shell Dlg 2" font-size="32.5"/>
  <g fill="none" stroke-width="1" stroke-linejoin="bevel" stroke-opacity="1" stroke-linecap="square" font-weight="400" font-style="normal" stroke="#000000" transform="matrix(11.8081,0,0,11.8081,0,0)" font-family="MS Shell Dlg 2" font-size="32.5"/>
  <g fill="none" stroke-width="1" stroke-linejoin="bevel" stroke-opacity="1" stroke-linecap="square" font-weight="400" font-style="normal" stroke="#000000" transform="matrix(1,0,0,1,0,0)" font-family="MS Shell Dlg 2" font-size="32.5"/>
 </g>
 <defs/>
 <g fill-rule="evenodd" fill="none" stroke-width="1" stroke-linejoin="bevel" stroke-linecap="square" inkscape:label="Map 1: Background" stroke="black" id="Map 1: Background" inkscape:groupmode="layer">
  <g fill="none" stroke-width="1" stroke-linejoin="bevel" stroke-opacity="1" stroke-linecap="square" font-weight="400" font-style="normal" stroke="#000000" transform="matrix(1,0,0,1,0,0)" font-family="MS Shell Dlg 2" font-size="32.5"/>
  <g fill="none" stroke-width="1" stroke-linejoin="bevel" stroke-opacity="1" stroke-linecap="square" font-weight="400" font-style="normal" stroke="#000000" transform="matrix(1,0,0,1,0,0)" font-family="MS Shell Dlg 2" font-size="32.5"/>
  <g fill="none" stroke-width="1" stroke-linejoin="bevel" stroke-opacity="1" stroke-linecap="square" font-weight="400" font-style="normal" stroke="#000000" transform="matrix(11.8081,0,0,11.8081,0,0)" font-family="MS Shell Dlg 2" font-size="32.5"/>
  <g fill="#ffffff" font-weight="400" font-style="normal" stroke="none" transform="matrix(11.8081,0,0,11.8081,0,0)" font-family="MS Shell Dlg 2" font-size="32.5" fill-opacity="1">
   <path fill-rule="evenodd" d="M0,0 L297,0 L297,210 L0,210 L0,0" vector-effect="none"/>
  </g>
  <g fill="none" stroke-width="1" stroke-linejoin="bevel" stroke-opacity="1" stroke-linecap="square" font-weight="400" font-style="normal" stroke="#000000" transform="matrix(11.8081,0,0,11.8081,0,0)" font-family="MS Shell Dlg 2" font-size="32.5"/>
  <g fill="none" stroke-width="1" stroke-linejoin="bevel" stroke-opacity="1" stroke-linecap="square" font-weight="400" font-style="normal" stroke="#000000" transform="matrix(11.8081,0,0,11.8081,0,0)" font-family="MS Shell Dlg 2" font-size="32.5"/>
  <g fill="none" stroke-width="1" stroke-linejoin="bevel" stroke-opacity="1" stroke-linecap="square" font-weight="400" font-style="normal" stroke="#000000" transform="matrix(11.8081,0,0,11.8081,0,0)" font-family="MS Shell Dlg 2" font-size="32.5"/>
  <g fill="none" stroke-width="1" stroke-linejoin="bevel" stroke-opacity="1" stroke-linecap="square" font-weight="400" font-style="normal" stroke="#000000" transform="matrix(11.8081,0,0,11.8081,0,0)" font-family="MS Shell Dlg 2" font-size="32.5"/>
  <g fill="none" stroke-width="1" stroke-linejoin="bevel" stroke-opacity="1" stroke-linecap="square" font-weight="400" font-style="normal" stroke="#000000" transform="matrix(1,0,0,1,0,0)" font-family="MS Shell Dlg 2" font-size="32.5"/>
  <g fill="none" stroke-width="1" stroke-linejoin="bevel" stroke-opacity="1" stroke-linecap="square" font-weight="400" font-style="normal" stroke="#000000" transform="matrix(11.8081,0,0,11.8081,0,0)" font-family="MS Shell Dlg 2" font-size="32.5"/>
  <g fill="none" stroke-width="1" stroke-linejoin="bevel" stroke-opacity="1" stroke-linecap="square" font-weight="400" font-style="normal" stroke="#000000" transform="matrix(11.8081,0,0,11.8081,0,0)" font-family="MS Shell Dlg 2" font-size="32.5"/>
  <g fill="none" stroke-width="1" stroke-linejoin="bevel" stroke-opacity="1" stroke-linecap="square" font-weight="400" font-style="normal" stroke="#000000" transform="matrix(1,0,0,1,0,0)" font-family="MS Shell Dlg 2" font-size="32.5"/>
 </g>
 <defs/>
 <g fill-rule="evenodd" fill="none" stroke-width="1" stroke-linejoin="bevel" stroke-linecap="square" inkscape:label="Map 1: CaliburnLand" stroke="black" id="Map 1: CaliburnLand" inkscape:groupmode="layer">
  <g fill="none" stroke-width="1" stroke-linejoin="bevel" stroke-opacity="1" stroke-linecap="square" font-weight="400" font-style="normal" stroke="#000000" transform="matrix(1,0,0,1,0,0)" font-family="MS Shell Dlg 2" font-size="32.5"/>
  <g fill="none" stroke-width="1" stroke-linejoin="bevel" stroke-opacity="1" stroke-linecap="square" font-weight="400" font-style="normal" stroke="#000000" transform="matrix(1,0,0,1,0,0)" font-family="MS Shell Dlg 2" font-size="32.5"/>
  <g fill="none" stroke-width="1" stroke-linejoin="bevel" stroke-opacity="1" stroke-linecap="square" font-weight="400" font-style="normal" stroke="#000000" transform="matrix(11.8081,0,0,11.8081,0,0)" font-family="MS Shell Dlg 2" font-size="32.5"/>
  <g fill="none" stroke-width="1" stroke-linejoin="bevel" stroke-opacity="1" stroke-linecap="square" font-weight="400" font-style="normal" stroke="#000000" transform="matrix(11.8081,0,0,11.8081,0,0)" font-family="MS Shell Dlg 2" font-size="32.5"/>
  <g fill="#000000" font-weight="400" font-style="normal" stroke="none" transform="matrix(0.999751,0,0,0.999751,0,0)" font-family="MS Shell Dlg 2" font-size="32.5" fill-opacity="0">
   <rect width="3508" height="2480" x="0" y="0"/>
  </g>
  <g fill="none" stroke-width="1" stroke-linejoin="bevel" stroke-opacity="1" stroke-linecap="square" font-weight="400" font-style="normal" stroke="#000000" transform="matrix(0.999751,0,0,0.999751,0,0)" font-family="MS Shell Dlg 2" font-size="32.5"/>
  <g fill="#eb9f89" stroke-width="5.90551" stroke-linejoin="bevel" stroke-opacity="1" stroke-linecap="square" font-weight="400" font-style="normal" stroke="#232323" transform="matrix(0.999751,0,0,0.999751,0,0)" font-family="MS Shell Dlg 2" font-size="32.5" fill-opacity="1">
   <path fill-rule="evenodd" d="M834.141,1909.07 L893.253,1938.63 L904.142,1929.3 L893.253,1879.52 L874.586,1870.18 L854.364,1820.4 L795.251,1870.18 L775.029,1849.96 L765.695,1820.4 L795.251,1790.85 L795.251,1761.29 L765.695,1731.74 L775.029,1692.85 L765.695,1681.96 L715.917,1672.62 L706.583,1622.85 L725.25,1583.96 L695.694,1554.4 L695.694,1545.07 L715.917,1524.84 L765.695,1524.84 L754.806,1475.07 L813.918,1456.4 L813.918,1445.51 L784.362,1406.62 L834.141,1356.84 L813.918,1317.95 L804.585,1268.17 L775.029,1258.84 L745.473,1229.28 L765.695,1199.73 L765.695,1170.17 L754.806,1149.95 L775.029,1100.17 L765.695,1070.61 L765.695,1061.28 L765.695,1031.72 L745.473,1022.39 L715.917,1031.72 L686.361,1061.28 L636.582,1031.72 L627.248,1041.06 L597.692,1031.72 L568.136,992.834 L577.47,972.611 L557.247,922.833 L586.803,893.277 L597.692,883.943 L568.136,863.721 L557.247,845.054 L537.024,824.831 L507.468,834.164 L448.356,804.608 L459.245,785.941 L448.356,745.496 L400.133,715.94 L400.133,706.607 L409.467,686.384 L409.467,636.605 L459.245,607.049 L459.245,597.716 L439.023,568.16 L409.467,568.16 L350.354,547.937 L350.354,538.603 L300.576,529.27 L280.353,499.714 L221.241,518.381 L211.907,509.047 L221.241,470.158 L201.018,449.935 L201.018,411.046 L221.241,400.156 L230.574,370.6 L241.463,370.6 L241.463,341.044 L271.02,331.711 L280.353,341.044 L309.909,341.044 L320.798,341.044 L330.132,351.933 L359.688,331.711 L369.021,341.044 L379.91,331.711 L429.689,351.933 L448.356,341.044 L498.135,322.377 L518.357,331.711 L537.024,331.711 L568.136,341.044 L577.47,361.267 L597.692,361.267 L616.359,390.823 L636.582,390.823 L656.804,381.489 L666.138,361.267 L675.471,351.933 L715.917,351.933 L715.917,361.267 L754.806,361.267 L765.695,351.933 L795.251,351.933 L804.585,351.933 L834.141,341.044 L854.364,351.933 L863.697,341.044 L874.586,341.044 L904.142,331.711 L904.142,322.377 L922.809,311.488 L952.365,281.932 L952.365,272.599 L981.922,272.599 L1002.14,252.376 L1002.14,243.042 L1042.59,213.486 L1072.15,222.82 L1072.15,243.042 L1101.7,272.599 L1131.26,302.155 L1160.81,272.599 L1181.04,292.821 L1210.59,281.932 L1219.93,292.821 L1229.26,292.821 L1258.82,272.599 L1279.04,272.599 L1308.59,292.821 L1308.59,302.155 L1299.26,331.711 L1279.04,341.044 L1258.82,341.044 L1249.48,351.933 L1240.15,370.6 L1240.15,390.823 L1258.82,400.156 L1288.37,400.156 L1299.26,411.046 L1328.82,400.156 L1328.82,411.046 L1358.37,429.713 L1367.71,440.602 L1387.93,459.269 L1417.49,470.158 L1447.04,459.269 L1456.37,440.602 L1476.6,420.379 L1506.15,390.823 L1526.38,390.823 L1546.6,411.046 L1546.6,440.602 L1517.04,459.269 L1506.15,470.158 L1485.93,488.825 L1496.82,509.047 L1517.04,518.381 L1535.71,509.047 L1565.27,518.381 L1576.15,509.047 L1615.04,518.381 L1624.38,509.047 L1644.6,509.047 L1685.05,538.603 L1694.38,577.493 L1733.27,568.16 L1744.16,547.937 L1753.49,538.603 L1773.71,509.047 L1792.38,499.714 L1812.6,499.714 L1823.49,509.047 L1823.49,538.603 L1842.16,568.16 L1871.72,597.716 L1871.72,607.049 L1891.94,617.938 L1912.16,617.938 L1941.72,597.716 L1941.72,588.382 L1960.38,597.716 L1980.61,627.272 L2030.39,636.605 L2000.83,686.384 L2010.16,695.717 L2069.27,706.607 L2089.5,695.717 L2119.05,745.496 L2139.28,756.385 L2189.05,686.384 L2227.94,706.607 L2237.28,715.94 L2257.5,745.496 L2287.06,745.496 L2307.28,706.607 L2346.17,715.94 L2366.39,686.384 L2416.17,686.384 L2416.17,677.05 L2504.84,706.607 L2484.62,745.496 L2543.73,775.052 L2563.95,756.385 L2554.62,686.384 L2602.84,695.717 L2613.73,666.161 L2663.51,666.161 L2672.84,686.384 L2711.73,666.161 L2731.95,636.605 L2781.73,647.494 L2801.95,636.605 L2831.51,656.828 L2831.51,695.717 L2831.51,706.607 L2820.62,745.496 L2890.62,765.719 L2879.73,785.941 L2850.18,804.608 L2840.84,824.831 L2850.18,845.054 L2831.51,874.61 L2831.51,922.833 L2840.84,933.722 L2840.84,963.278 L2831.51,972.611 L2801.95,981.945 L2781.73,1022.39 L2761.51,1041.06 L2791.07,1100.17 L2781.73,1111.06 L2791.07,1140.61 L2831.51,1159.28 L2820.62,1199.73 L2840.84,1218.39 L2879.73,1218.39 L2890.62,1229.28 L2899.96,1258.84 L2909.29,1268.17 L2929.51,1279.06 L2949.74,1327.28 L2959.07,1327.28 L3008.85,1308.62 L3029.07,1356.84 L2999.51,1377.06 L2999.51,1397.29 L3008.85,1406.62 L3038.4,1406.62 L3047.74,1415.95 L3067.96,1406.62 L3078.85,1415.95 L3078.85,1456.4 L3067.96,1456.4 L3047.74,1475.07 L3038.4,1475.07 L3008.85,1504.62 L3018.18,1545.07 L3058.63,1574.62 L3078.85,1574.62 L3088.18,1574.62 L3117.74,1583.96 L3127.07,1583.96 L3167.52,1593.29 L3176.85,1583.96 L3176.85,1554.4 L3206.41,1524.84 L3215.74,1524.84 L3226.63,1534.18 L3276.41,1534.18 L3315.3,1534.18 L3335.52,1574.62 L3324.63,1583.96 L3276.41,1574.62 L3276.41,1583.96 L3246.85,1583.96 L3235.96,1613.51 L3265.52,1633.73 L3246.85,1663.29 L3276.41,1692.85 L3265.52,1711.51 L3226.63,1711.51 L3206.41,1722.4 L3186.18,1722.4 L3176.85,1741.07 L3156.63,1741.07 L3137.96,1770.63 L3097.52,1761.29 L3078.85,1770.63 L3067.96,1770.63 L3047.74,1790.85 L3047.74,1800.18 L3018.18,1820.4 L3029.07,1849.96 L3018.18,1860.85 L3018.18,1870.18 L2999.51,1890.41 L2969.96,1879.52 L2959.07,1890.41 L2940.4,1890.41 L2929.51,1890.41 L2890.62,1879.52 L2890.62,1849.96 L2899.96,1849.96 L2890.62,1820.4 L2870.4,1811.07 L2840.84,1820.4 L2820.62,1811.07 L2811.29,1811.07 L2781.73,1840.63 L2772.4,1849.96 L2752.18,1870.18 L2711.73,1870.18 L2682.18,1860.85 L2672.84,1870.18 L2663.51,1919.96 L2672.84,1919.96 L2663.51,1949.52 L2663.51,1979.07 L2652.62,1988.41 L2652.62,2017.96 L2652.62,2027.3 L2643.29,2047.52 L2672.84,2077.08 L2652.62,2106.63 L2652.62,2115.97 L2643.29,2156.41 L2652.62,2156.41 L2663.51,2185.97 L2663.51,2195.3 L2672.84,2234.19 L2682.18,2234.19 L2682.18,2274.64 L2663.51,2304.19 L2643.29,2304.19 L2633.95,2333.75 L2623.06,2333.75 L2563.95,2333.75 L2563.95,2343.08 L2514.17,2343.08 L2514.17,2353.97 L2484.62,2372.64 L2475.28,2372.64 L2445.73,2363.3 L2416.17,2372.64 L2405.28,2402.19 L2366.39,2392.86 L2346.17,2402.19 L2336.84,2392.86 L2316.61,2333.75 L2307.28,2313.52 L2287.06,2283.97 L2266.83,2283.97 L2237.28,2343.08 L2178.17,2322.86 L2148.61,2293.3 L2098.83,2304.19 L2089.5,2304.19 L2089.5,2245.08 L2030.39,2234.19 L2021.05,2254.41 L2010.16,2304.19 L1941.72,2293.3 L1930.83,2274.64 L1930.83,2263.75 L1882.6,2215.52 L1871.72,2224.86 L1891.94,2274.64 L1862.38,2283.97 L1832.83,2274.64 L1812.6,2293.3 L1792.38,2293.3 L1783.05,2293.3 L1744.16,2343.08 L1714.6,2322.86 L1703.71,2304.19 L1644.6,2293.3 L1644.6,2283.97 L1594.82,2283.97 L1535.71,2283.97 L1526.38,2293.3 L1485.93,2254.41 L1485.93,2245.08 L1485.93,2224.86 L1467.26,2204.63 L1467.26,2165.74 L1437.71,2156.41 L1426.82,2165.74 L1417.49,2215.52 L1397.26,2234.19 L1378.6,2224.86 L1349.04,2215.52 L1317.93,2215.52 L1308.59,2215.52 L1299.26,2215.52 L1249.48,2215.52 L1181.04,2204.63 L1170.15,2224.86 L1120.37,2224.86 L1081.48,2175.08 L1051.92,2175.08 L1042.59,2175.08 L992.811,2165.74 L981.922,2165.74 L952.365,2175.08 L922.809,2165.74 L943.032,2106.63 L933.698,2097.3 L904.142,2097.3 L893.253,2086.41 L863.697,2038.19 L874.586,1997.74 L874.586,1988.41 L834.141,1968.19 L795.251,2008.63 L775.029,1997.74 L754.806,1958.85 L813.918,1949.52 L834.141,1909.07 M2801.95,1534.18 L2811.29,1574.62 L2831.51,1583.96 L2831.51,1604.18 L2850.18,1622.85 L2850.18,1643.07 L2861.07,1643.07 L2909.29,1622.85 L2899.96,1613.51 L2940.4,1583.96 L2959.07,1583.96 L2959.07,1545.07 L2920.18,1554.4 L2909.29,1545.07 L2899.96,1545.07 L2890.62,1545.07 L2890.62,1534.18 L2909.29,1495.29 L2890.62,1465.73 L2879.73,1465.73 L2879.73,1456.4 L2870.4,1456.4 L2850.18,1456.4 L2840.84,1456.4 L2811.29,1456.4 L2781.73,1465.73 L2781.73,1475.07 L2781.73,1485.95 L2801.95,1524.84 L2801.95,1534.18" vector-effect="none"/>
   <path fill-rule="evenodd" d="M1387.93,400.156 L1358.37,370.6 L1358.37,361.267 L1397.26,331.711 L1408.15,331.711 L1417.49,341.044 L1426.82,361.267 L1417.49,381.489 L1408.15,390.823 L1387.93,400.156" vector-effect="none"/>
   <path fill-rule="evenodd" d="M893.253,163.708 L922.809,143.485 L952.365,154.374 L952.365,163.708 L943.032,193.264 L933.698,204.153 L904.142,204.153 L893.253,193.264 L893.253,163.708" vector-effect="none"/>
   <path fill-rule="evenodd" d="M1170.15,163.708 L1181.04,163.708 L1170.15,213.486 L1140.59,204.153 L1140.59,193.264 L1160.81,163.708 L1170.15,163.708" vector-effect="none"/>
   <path fill-rule="evenodd" d="M616.359,281.932 L627.248,292.821 L636.582,322.377 L627.248,322.377 L597.692,311.488 L597.692,302.155 L616.359,281.932" vector-effect="none"/>
  </g>
  <g fill="none" stroke-width="1" stroke-linejoin="bevel" stroke-opacity="1" stroke-linecap="square" font-weight="400" font-style="normal" stroke="#000000" transform="matrix(0.999751,0,0,0.999751,0,0)" font-family="MS Shell Dlg 2" font-size="32.5"/>
  <g fill="none" stroke-width="1" stroke-linejoin="bevel" stroke-opacity="1" stroke-linecap="square" font-weight="400" font-style="normal" stroke="#000000" transform="matrix(11.8081,0,0,11.8081,0,0)" font-family="MS Shell Dlg 2" font-size="32.5"/>
  <g fill="none" stroke-width="1" stroke-linejoin="bevel" stroke-opacity="1" stroke-linecap="square" font-weight="400" font-style="normal" stroke="#000000" transform="matrix(11.8081,0,0,11.8081,0,0)" font-family="MS Shell Dlg 2" font-size="32.5"/>
  <g fill="none" stroke-width="1" stroke-linejoin="bevel" stroke-opacity="1" stroke-linecap="square" font-weight="400" font-style="normal" stroke="#000000" transform="matrix(11.8081,0,0,11.8081,0,0)" font-family="MS Shell Dlg 2" font-size="32.5"/>
  <g fill="none" stroke-width="1" stroke-linejoin="bevel" stroke-opacity="1" stroke-linecap="square" font-weight="400" font-style="normal" stroke="#000000" transform="matrix(1,0,0,1,0,0)" font-family="MS Shell Dlg 2" font-size="32.5"/>
  <g fill="none" stroke-width="1" stroke-linejoin="bevel" stroke-opacity="1" stroke-linecap="square" font-weight="400" font-style="normal" stroke="#000000" transform="matrix(11.8081,0,0,11.8081,0,0)" font-family="MS Shell Dlg 2" font-size="32.5"/>
  <g fill="none" stroke-width="1" stroke-linejoin="bevel" stroke-opacity="1" stroke-linecap="square" font-weight="400" font-style="normal" stroke="#000000" transform="matrix(11.8081,0,0,11.8081,0,0)" font-family="MS Shell Dlg 2" font-size="32.5"/>
  <g fill="none" stroke-width="1" stroke-linejoin="bevel" stroke-opacity="1" stroke-linecap="square" font-weight="400" font-style="normal" stroke="#000000" transform="matrix(1,0,0,1,0,0)" font-family="MS Shell Dlg 2" font-size="32.5"/>
 </g>
 <defs/>
 <g fill-rule="evenodd" fill="none" stroke-width="1" stroke-linejoin="bevel" stroke-linecap="square" inkscape:label="Map 1: CaliburnLand (Labels)" stroke="black" id="Map 1: CaliburnLand (Labels)" inkscape:groupmode="layer">
  <g fill="none" stroke-width="1" stroke-linejoin="bevel" stroke-opacity="1" stroke-linecap="square" font-weight="400" font-style="normal" stroke="#000000" transform="matrix(1,0,0,1,0,0)" font-family="MS Shell Dlg 2" font-size="32.5"/>
  <g fill="none" stroke-width="1" stroke-linejoin="bevel" stroke-opacity="1" stroke-linecap="square" font-weight="400" font-style="normal" stroke="#000000" transform="matrix(1,0,0,1,0,0)" font-family="MS Shell Dlg 2" font-size="32.5"/>
  <g fill="none" stroke-width="1" stroke-linejoin="bevel" stroke-opacity="1" stroke-linecap="square" font-weight="400" font-style="normal" stroke="#000000" transform="matrix(11.8081,0,0,11.8081,0,0)" font-family="MS Shell Dlg 2" font-size="32.5"/>
  <g fill="none" stroke-width="1" stroke-linejoin="bevel" stroke-opacity="1" stroke-linecap="square" font-weight="400" font-style="normal" stroke="#000000" transform="matrix(11.8081,0,0,11.8081,0,0)" font-family="MS Shell Dlg 2" font-size="32.5"/>
  <g fill="#000000" font-weight="400" font-style="normal" stroke="none" transform="matrix(0.999751,0,0,0.999751,0,0)" font-family="MS Shell Dlg 2" font-size="32.5" fill-opacity="0">
   <rect width="3508" height="2480" x="0" y="0"/>
  </g>
  <g fill="none" stroke-width="1" stroke-linejoin="bevel" stroke-opacity="1" stroke-linecap="square" font-weight="400" font-style="normal" stroke="#000000" transform="matrix(0.999751,0,0,0.999751,0,0)" font-family="MS Shell Dlg 2" font-size="32.5"/>
  <g fill="none" stroke-width="1" stroke-linejoin="bevel" stroke-opacity="1" stroke-linecap="square" font-weight="400" font-style="normal" stroke="#000000" transform="matrix(0.3999,0,0,0.3999,1641.02,1349.09)" font-family="MS Shell Dlg 2" font-size="32.5"/>
  <g fill="#323232" font-weight="400" font-style="normal" stroke="none" transform="matrix(0.999751,0,0,0.999751,1641.02,1349.09)" font-family="MS Shell Dlg 2" font-size="32.5" fill-opacity="1">
   <path fill-rule="nonzero" d="M7.476,-1.47 C7.98,-0.63 8.687,0.063 9.597,0.609 C10.507,1.155 11.571,1.428 12.789,1.428 C14.007,1.428 15.239,1.071 16.485,0.357 C17.731,-0.357 18.774,-1.246 19.614,-2.31 L20.202,-1.722 C18.158,1.47 15.386,3.654 11.886,4.83 C9.478,4.83 7.504,4.214 5.964,2.982 C4.424,1.75 3.339,0.168 2.709,-1.764 C2.079,-3.696 1.764,-6.076 1.764,-8.904 C1.764,-11.732 2.121,-14.413 2.835,-16.947 C3.549,-19.481 4.788,-21.763 6.552,-23.793 C8.316,-25.823 10.514,-27.216 13.146,-27.972 C15.974,-27.972 18.858,-27.706 21.798,-27.174 L21.756,-26.25 C21.028,-26.25 20.356,-26.124 19.74,-25.872 C19.04,-24.22 18.578,-22.246 18.354,-19.95 L17.304,-19.95 C17.052,-21.266 16.926,-22.526 16.926,-23.73 C15.442,-24.542 13.811,-24.948 12.033,-24.948 C10.255,-24.948 8.792,-24.416 7.644,-23.352 C6.216,-20.468 5.502,-16.758 5.502,-12.222 C5.502,-7.154 6.16,-3.57 7.476,-1.47 M25.536,-22.344 C28.168,-22.036 30.828,-21.882 33.516,-21.882 C36.204,-21.882 38.85,-22.036 41.454,-22.344 L41.622,-21.252 C40.782,-20.916 39.914,-20.664 39.018,-20.496 C38.71,-18.2 38.556,-15.008 38.556,-10.92 C38.556,-6.832 38.71,-3.64 39.018,-1.344 C39.578,-1.26 40.614,-1.05 42.126,-0.714 L41.958,0.336 C40.614,0.112 38.892,0 36.792,0 C34.692,0 33.082,0.112 31.962,0.336 L31.794,-0.756 C32.746,-1.064 33.824,-1.288 35.028,-1.428 C35.196,-3.052 35.322,-5.306 35.406,-8.19 C34.09,-8.33 32.774,-8.4 31.458,-8.4 C30.142,-8.4 28.994,-8.33 28.014,-8.19 C27.454,-5.894 27.174,-4.298 27.174,-3.402 C27.174,-2.03 27.664,-1.064 28.644,-0.504 L28.476,0.21 C27.832,0.07 26.614,0 24.822,0 C23.03,0 21.616,0.112 20.58,0.336 L20.412,-0.756 C21.084,-1.008 22.008,-1.232 23.184,-1.428 L28.644,-20.58 C27.412,-20.776 26.334,-21 25.41,-21.252 L25.536,-22.344 M28.35,-10.164 C29.442,-9.996 30.653,-9.912 31.983,-9.912 C33.313,-9.912 34.454,-9.996 35.406,-10.164 C35.406,-15.344 35.294,-18.69 35.07,-20.202 C34.118,-20.258 33.411,-20.286 32.949,-20.286 C32.487,-20.286 31.78,-20.258 30.828,-20.202 L28.35,-10.164 M60.178,0.462 C58.358,0.154 55.887,0 52.765,0 C49.643,0 47.032,0.14 44.932,0.42 L44.806,-0.63 C45.59,-0.938 46.486,-1.19 47.494,-1.386 C47.774,-3.066 47.914,-5.922 47.914,-9.954 L47.914,-11.928 C47.914,-15.4 47.774,-18.256 47.494,-20.496 C46.57,-20.636 45.688,-20.846 44.848,-21.126 L45.016,-22.218 C46.444,-21.994 48.124,-21.882 50.056,-21.882 C51.988,-21.882 53.64,-21.994 55.012,-22.218 L55.138,-21.168 C53.878,-20.86 52.632,-20.636 51.4,-20.496 C51.176,-18.984 51.064,-15.869 51.064,-11.151 C51.064,-6.433 51.176,-3.29 51.4,-1.722 C52.072,-1.61 53.024,-1.554 54.256,-1.554 C55.488,-1.554 56.594,-1.792 57.574,-2.268 C57.966,-3.22 58.162,-4.34 58.162,-5.628 L59.212,-5.628 C59.324,-3.472 59.716,-1.722 60.388,-0.378 L60.178,0.462 M68.4,-20.496 C68.176,-18.984 68.064,-15.89 68.064,-11.214 C68.064,-6.538 68.19,-3.262 68.442,-1.386 C69.702,-1.246 70.864,-1.036 71.928,-0.756 L71.802,0.294 C70.346,0.098 68.715,0 66.909,0 C65.103,0 63.486,0.112 62.058,0.336 L61.89,-0.756 C62.674,-1.008 63.556,-1.218 64.536,-1.386 C64.788,-3.402 64.914,-6.258 64.914,-9.954 L64.914,-11.928 C64.914,-15.624 64.774,-18.48 64.494,-20.496 C63.514,-20.664 62.632,-20.874 61.848,-21.126 L62.016,-22.218 C63.444,-21.994 65.061,-21.882 66.867,-21.882 C68.673,-21.882 70.304,-21.98 71.76,-22.176 L71.886,-21.126 C70.822,-20.846 69.66,-20.636 68.4,-20.496 M74.596,-21.798 L84.634,-22.092 C87.378,-22.092 89.212,-21.756 90.136,-21.084 C91.032,-20.468 91.48,-19.523 91.48,-18.249 C91.48,-16.975 91.025,-15.827 90.115,-14.805 C89.205,-13.783 88.092,-13.02 86.776,-12.516 L86.776,-12.348 C88.456,-12.348 89.814,-11.991 90.85,-11.277 C91.886,-10.563 92.404,-9.401 92.404,-7.791 C92.404,-6.181 91.508,-4.529 89.716,-2.835 C87.924,-1.141 86.09,-0.028 84.214,0.504 C83.542,0.504 82.625,0.364 81.463,0.084 C80.301,-0.196 79.356,-0.476 78.628,-0.756 C78.32,-0.392 78.04,0.126 77.788,0.798 L76.906,0.588 C77.438,-1.904 77.704,-5.425 77.704,-9.975 C77.704,-14.525 77.578,-17.934 77.326,-20.202 C76.374,-20.566 75.464,-20.748 74.596,-20.748 L74.596,-21.798 M82.87,-12.936 C84.606,-12.936 85.866,-13.174 86.65,-13.65 C87.35,-14.518 87.7,-15.624 87.7,-16.968 C87.7,-19.404 86.37,-20.622 83.71,-20.622 C82.786,-20.622 81.932,-20.468 81.148,-20.16 C80.952,-18.256 80.854,-15.33 80.854,-11.382 C80.854,-7.434 80.91,-4.676 81.022,-3.108 C82.17,-2.492 83.437,-2.184 84.823,-2.184 C86.209,-2.184 87.266,-2.45 87.994,-2.982 C88.47,-3.934 88.708,-5.082 88.708,-6.426 C88.708,-8.274 88.162,-9.576 87.07,-10.332 C85.978,-11.088 84.396,-11.466 82.324,-11.466 L82.492,-12.936 L82.87,-12.936 M114.362,-11.928 L114.362,-9.954 C114.362,-6.118 114.502,-3.248 114.782,-1.344 C116.07,-1.176 117.134,-0.98 117.974,-0.756 L117.848,0.294 C116.476,0.098 115.069,0 113.627,0 C112.185,0 111.198,0.042 110.666,0.126 L110.498,-0.42 C110.75,-0.7 110.918,-1.498 111.002,-2.814 C109.546,-1.302 107.866,-0.196 105.962,0.504 C101.146,0.504 98.738,-2.366 98.738,-8.106 C98.738,-9.366 98.836,-11.382 99.032,-14.154 C99.228,-16.926 99.326,-18.55 99.326,-19.026 C99.326,-19.502 99.242,-19.964 99.074,-20.412 L99.074,-20.454 C97.898,-20.65 96.96,-20.86 96.26,-21.084 L96.428,-22.218 C98.052,-21.994 99.522,-21.882 100.838,-21.882 C102.154,-21.882 103.232,-21.952 104.072,-22.092 L104.24,-21.378 C103.232,-20.846 102.644,-19.88 102.476,-18.48 C102.14,-15.792 101.972,-13.034 101.972,-10.206 C101.972,-7.378 102.301,-5.369 102.959,-4.179 C103.617,-2.989 104.849,-2.394 106.655,-2.394 C108.461,-2.394 109.924,-2.912 111.044,-3.948 C111.156,-6.188 111.212,-8.834 111.212,-11.886 C111.212,-14.938 111.1,-17.808 110.876,-20.496 C109.616,-20.636 108.454,-20.846 107.39,-21.126 L107.516,-22.176 C108.972,-21.98 110.603,-21.882 112.409,-21.882 C114.215,-21.882 115.832,-21.994 117.26,-22.218 L117.428,-21.126 C116.644,-20.874 115.762,-20.664 114.782,-20.496 C114.502,-18.62 114.362,-15.764 114.362,-11.928 M120.806,-21.798 L130.466,-22.092 C132.986,-22.092 134.876,-21.721 136.136,-20.979 C137.396,-20.237 138.026,-18.886 138.026,-16.926 C138.026,-15.582 137.613,-14.392 136.787,-13.356 C135.961,-12.32 134.876,-11.55 133.532,-11.046 L138.236,-1.428 C139.188,-1.26 140.084,-1.064 140.924,-0.84 L140.756,0.294 C139.58,0.098 138.257,0 136.787,0 C135.317,0 134.162,0.07 133.322,0.21 L133.154,-0.462 C133.518,-0.826 133.7,-1.428 133.7,-2.268 C133.7,-3.976 132.72,-6.72 130.76,-10.5 C130.172,-10.612 129.486,-10.668 128.702,-10.668 L128.786,-11.886 L129.206,-11.886 C132.51,-11.886 134.162,-13.398 134.162,-16.422 C134.162,-19.222 132.748,-20.622 129.92,-20.622 C128.968,-20.622 128.114,-20.468 127.358,-20.16 C127.162,-18.312 127.064,-15.148 127.064,-10.668 C127.064,-6.188 127.19,-3.094 127.442,-1.386 C128.674,-1.246 129.822,-1.036 130.886,-0.756 L130.76,0.294 C129.304,0.098 127.673,0 125.867,0 C124.061,0 122.444,0.112 121.016,0.336 L120.848,-0.756 C121.632,-1.008 122.514,-1.218 123.494,-1.386 C123.774,-3.486 123.914,-6.755 123.914,-11.193 C123.914,-15.631 123.788,-18.704 123.536,-20.412 C122.444,-20.776 121.534,-20.958 120.806,-20.958 L120.806,-21.798 M152.928,0.294 C151.472,0.098 149.841,0 148.035,0 C146.229,0 144.612,0.112 143.184,0.336 L143.016,-0.756 C143.912,-1.036 144.752,-1.246 145.536,-1.386 C145.788,-3.57 145.914,-6.426 145.914,-9.954 L145.914,-11.928 C145.914,-15.68 145.774,-18.564 145.494,-20.58 C144.738,-20.664 143.828,-20.888 142.764,-21.252 L142.89,-22.344 C144.486,-22.036 146.159,-21.882 147.909,-21.882 C149.659,-21.882 150.912,-21.98 151.668,-22.176 L151.752,-21.462 C150.996,-21.266 150.618,-20.944 150.618,-20.496 C150.618,-20.16 150.947,-19.453 151.605,-18.375 C152.263,-17.297 152.9,-16.254 153.516,-15.246 C155.364,-12.306 157.548,-8.694 160.068,-4.41 L160.194,-4.494 L160.194,-9.618 C160.194,-13.37 159.998,-16.191 159.606,-18.081 C159.214,-19.971 158.542,-21.07 157.59,-21.378 L157.674,-22.092 C158.402,-21.952 159.494,-21.882 160.95,-21.882 C162.406,-21.882 163.904,-22.036 165.444,-22.344 L165.57,-21.252 C164.422,-20.888 163.456,-20.664 162.672,-20.58 C162.392,-18.34 162.252,-15.456 162.252,-11.928 L162.252,-9.954 C162.252,-5.698 162.392,-2.814 162.672,-1.302 C163.848,-1.106 164.786,-0.882 165.486,-0.63 L165.36,0.462 C163.96,0.154 162.644,0 161.412,0 C160.18,0 159.228,0.056 158.556,0.168 C158.556,-0.448 158.129,-1.484 157.275,-2.94 C156.421,-4.396 155.644,-5.684 154.944,-6.804 C152.676,-10.472 150.45,-14.196 148.266,-17.976 L148.098,-17.892 L148.098,-12.264 C148.098,-6.692 148.518,-3.066 149.358,-1.386 C150.618,-1.246 151.85,-1.036 153.054,-0.756 L152.928,0.294" vector-effect="none"/>
  </g>
  <g fill="none" stroke-width="1" stroke-linejoin="bevel" stroke-opacity="1" stroke-linecap="square" font-weight="400" font-style="normal" stroke="#000000" transform="matrix(0.3999,0,0,0.3999,1641.02,1349.09)" font-family="MS Shell Dlg 2" font-size="32.5"/>
  <g fill="none" stroke-width="1" stroke-linejoin="bevel" stroke-opacity="1" stroke-linecap="square" font-weight="400" font-style="normal" stroke="#000000" transform="matrix(0.999751,0,0,0.999751,0,0)" font-family="MS Shell Dlg 2" font-size="32.5"/>
  <g fill="none" stroke-width="1" stroke-linejoin="bevel" stroke-opacity="1" stroke-linecap="square" font-weight="400" font-style="normal" stroke="#000000" transform="matrix(11.8081,0,0,11.8081,0,0)" font-family="MS Shell Dlg 2" font-size="32.5"/>
  <g fill="none" stroke-width="1" stroke-linejoin="bevel" stroke-opacity="1" stroke-linecap="square" font-weight="400" font-style="normal" stroke="#000000" transform="matrix(11.8081,0,0,11.8081,0,0)" font-family="MS Shell Dlg 2" font-size="32.5"/>
  <g fill="none" stroke-width="1" stroke-linejoin="bevel" stroke-opacity="1" stroke-linecap="square" font-weight="400" font-style="normal" stroke="#000000" transform="matrix(11.8081,0,0,11.8081,0,0)" font-family="MS Shell Dlg 2" font-size="32.5"/>
  <g fill="none" stroke-width="1" stroke-linejoin="bevel" stroke-opacity="1" stroke-linecap="square" font-weight="400" font-style="normal" stroke="#000000" transform="matrix(1,0,0,1,0,0)" font-family="MS Shell Dlg 2" font-size="32.5"/>
  <g fill="none" stroke-width="1" stroke-linejoin="bevel" stroke-opacity="1" stroke-linecap="square" font-weight="400" font-style="normal" stroke="#000000" transform="matrix(11.8081,0,0,11.8081,0,0)" font-family="MS Shell Dlg 2" font-size="32.5"/>
  <g fill="none" stroke-width="1" stroke-linejoin="bevel" stroke-opacity="1" stroke-linecap="square" font-weight="400" font-style="normal" stroke="#000000" transform="matrix(11.8081,0,0,11.8081,0,0)" font-family="MS Shell Dlg 2" font-size="32.5"/>
  <g fill="none" stroke-width="1" stroke-linejoin="bevel" stroke-opacity="1" stroke-linecap="square" font-weight="400" font-style="normal" stroke="#000000" transform="matrix(1,0,0,1,0,0)" font-family="MS Shell Dlg 2" font-size="32.5"/>
 </g>
</svg>
