<?xml version='1.0' encoding='UTF-8' standalone='no'?>
<svg height="209.973mm" width="296.926mm" viewBox="0 0 3507 2480" xmlns:xlink="http://www.w3.org/1999/xlink" xmlns:inkscape="http://www.inkscape.org/namespaces/inkscape" xmlns="http://www.w3.org/2000/svg" version="1.2" baseProfile="tiny">
 <defs/>
 <g stroke-linejoin="bevel" inkscape:label="Page" inkscape:groupmode="layer" fill="none" stroke="black" fill-rule="evenodd" stroke-width="1" stroke-linecap="square" id="Page">
  <g stroke-linejoin="bevel" transform="matrix(1,0,0,1,0,0)" font-weight="400" font-style="normal" fill="none" stroke="#000000" stroke-width="1" stroke-linecap="square" font-size="32.5" font-family="MS Shell Dlg 2" stroke-opacity="1"/>
  <g stroke-linejoin="bevel" transform="matrix(1,0,0,1,0,0)" font-weight="400" font-style="normal" fill="none" stroke="#000000" stroke-width="1" stroke-linecap="square" font-size="32.5" font-family="MS Shell Dlg 2" stroke-opacity="1"/>
  <g stroke-linejoin="bevel" transform="matrix(11.8081,0,0,11.8081,0,0)" font-weight="400" font-style="normal" fill="none" stroke="#000000" stroke-width="1" stroke-linecap="square" font-size="32.5" font-family="MS Shell Dlg 2" stroke-opacity="1"/>
  <g stroke-linejoin="bevel" transform="matrix(0.999751,0,0,0.999751,0,0)" font-weight="400" font-style="normal" fill="none" stroke="#000000" stroke-width="1" stroke-linecap="square" font-size="32.5" font-family="MS Shell Dlg 2" stroke-opacity="1"/>
  <g transform="matrix(0.999751,0,0,0.999751,0,0)" font-weight="400" font-style="normal" fill="#ffffff" stroke="none" fill-opacity="1" font-size="32.5" font-family="MS Shell Dlg 2">
   <path fill-rule="evenodd" d="M-2,-2 L3510,-2 L3510,2483 L-2,2483 L-2,-2" vector-effect="none"/>
  </g>
  <g stroke-linejoin="bevel" transform="matrix(0.999751,0,0,0.999751,0,0)" font-weight="400" font-style="normal" fill="none" stroke="#000000" stroke-width="1" stroke-linecap="square" font-size="32.5" font-family="MS Shell Dlg 2" stroke-opacity="1"/>
  <g stroke-linejoin="bevel" transform="matrix(11.8081,0,0,11.8081,0,0)" font-weight="400" font-style="normal" fill="none" stroke="#000000" stroke-width="1" stroke-linecap="square" font-size="32.5" font-family="MS Shell Dlg 2" stroke-opacity="1"/>
  <g stroke-linejoin="bevel" transform="matrix(11.8081,0,0,11.8081,0,0)" font-weight="400" font-style="normal" fill="none" stroke="#000000" stroke-width="1" stroke-linecap="square" font-size="32.5" font-family="MS Shell Dlg 2" stroke-opacity="1"/>
  <g stroke-linejoin="bevel" transform="matrix(1,0,0,1,0,0)" font-weight="400" font-style="normal" fill="none" stroke="#000000" stroke-width="1" stroke-linecap="square" font-size="32.5" font-family="MS Shell Dlg 2" stroke-opacity="1"/>
 </g>
 <defs/>
 <g stroke-linejoin="bevel" inkscape:label="Map 1: Background" inkscape:groupmode="layer" fill="none" stroke="black" fill-rule="evenodd" stroke-width="1" stroke-linecap="square" id="Map 1: Background">
  <g stroke-linejoin="bevel" transform="matrix(1,0,0,1,0,0)" font-weight="400" font-style="normal" fill="none" stroke="#000000" stroke-width="1" stroke-linecap="square" font-size="32.5" font-family="MS Shell Dlg 2" stroke-opacity="1"/>
  <g stroke-linejoin="bevel" transform="matrix(1,0,0,1,0,0)" font-weight="400" font-style="normal" fill="none" stroke="#000000" stroke-width="1" stroke-linecap="square" font-size="32.5" font-family="MS Shell Dlg 2" stroke-opacity="1"/>
  <g stroke-linejoin="bevel" transform="matrix(11.8081,0,0,11.8081,0,0)" font-weight="400" font-style="normal" fill="none" stroke="#000000" stroke-width="1" stroke-linecap="square" font-size="32.5" font-family="MS Shell Dlg 2" stroke-opacity="1"/>
  <g transform="matrix(11.8081,0,0,11.8081,0,0)" font-weight="400" font-style="normal" fill="#ffffff" stroke="none" fill-opacity="1" font-size="32.5" font-family="MS Shell Dlg 2">
   <path fill-rule="evenodd" d="M0,0 L297,0 L297,210 L0,210 L0,0" vector-effect="none"/>
  </g>
  <g stroke-linejoin="bevel" transform="matrix(11.8081,0,0,11.8081,0,0)" font-weight="400" font-style="normal" fill="none" stroke="#000000" stroke-width="1" stroke-linecap="square" font-size="32.5" font-family="MS Shell Dlg 2" stroke-opacity="1"/>
  <g stroke-linejoin="bevel" transform="matrix(11.8081,0,0,11.8081,0,0)" font-weight="400" font-style="normal" fill="none" stroke="#000000" stroke-width="1" stroke-linecap="square" font-size="32.5" font-family="MS Shell Dlg 2" stroke-opacity="1"/>
  <g stroke-linejoin="bevel" transform="matrix(11.8081,0,0,11.8081,0,0)" font-weight="400" font-style="normal" fill="none" stroke="#000000" stroke-width="1" stroke-linecap="square" font-size="32.5" font-family="MS Shell Dlg 2" stroke-opacity="1"/>
  <g stroke-linejoin="bevel" transform="matrix(11.8081,0,0,11.8081,0,0)" font-weight="400" font-style="normal" fill="none" stroke="#000000" stroke-width="1" stroke-linecap="square" font-size="32.5" font-family="MS Shell Dlg 2" stroke-opacity="1"/>
  <g stroke-linejoin="bevel" transform="matrix(1,0,0,1,0,0)" font-weight="400" font-style="normal" fill="none" stroke="#000000" stroke-width="1" stroke-linecap="square" font-size="32.5" font-family="MS Shell Dlg 2" stroke-opacity="1"/>
  <g stroke-linejoin="bevel" transform="matrix(11.8081,0,0,11.8081,0,0)" font-weight="400" font-style="normal" fill="none" stroke="#000000" stroke-width="1" stroke-linecap="square" font-size="32.5" font-family="MS Shell Dlg 2" stroke-opacity="1"/>
  <g stroke-linejoin="bevel" transform="matrix(11.8081,0,0,11.8081,0,0)" font-weight="400" font-style="normal" fill="none" stroke="#000000" stroke-width="1" stroke-linecap="square" font-size="32.5" font-family="MS Shell Dlg 2" stroke-opacity="1"/>
  <g stroke-linejoin="bevel" transform="matrix(1,0,0,1,0,0)" font-weight="400" font-style="normal" fill="none" stroke="#000000" stroke-width="1" stroke-linecap="square" font-size="32.5" font-family="MS Shell Dlg 2" stroke-opacity="1"/>
 </g>
 <defs/>
 <g stroke-linejoin="bevel" inkscape:label="Map 1: DevilsWorkshopRivers" inkscape:groupmode="layer" fill="none" stroke="black" fill-rule="evenodd" stroke-width="1" stroke-linecap="square" id="Map 1: DevilsWorkshopRivers">
  <g stroke-linejoin="bevel" transform="matrix(1,0,0,1,0,0)" font-weight="400" font-style="normal" fill="none" stroke="#000000" stroke-width="1" stroke-linecap="square" font-size="32.5" font-family="MS Shell Dlg 2" stroke-opacity="1"/>
  <g stroke-linejoin="bevel" transform="matrix(1,0,0,1,0,0)" font-weight="400" font-style="normal" fill="none" stroke="#000000" stroke-width="1" stroke-linecap="square" font-size="32.5" font-family="MS Shell Dlg 2" stroke-opacity="1"/>
  <g stroke-linejoin="bevel" transform="matrix(11.8081,0,0,11.8081,0,0)" font-weight="400" font-style="normal" fill="none" stroke="#000000" stroke-width="1" stroke-linecap="square" font-size="32.5" font-family="MS Shell Dlg 2" stroke-opacity="1"/>
  <g stroke-linejoin="bevel" transform="matrix(11.8081,0,0,11.8081,0,0)" font-weight="400" font-style="normal" fill="none" stroke="#000000" stroke-width="1" stroke-linecap="square" font-size="32.5" font-family="MS Shell Dlg 2" stroke-opacity="1"/>
  <g transform="matrix(0.999751,0,0,0.999751,0,0)" font-weight="400" font-style="normal" fill="#000000" stroke="none" fill-opacity="0" font-size="32.5" font-family="MS Shell Dlg 2">
   <rect height="2480" x="0" width="3508" y="0"/>
  </g>
  <g stroke-linejoin="bevel" transform="matrix(0.999751,0,0,0.999751,0,0)" font-weight="400" font-style="normal" fill="none" stroke="#000000" stroke-width="1" stroke-linecap="square" font-size="32.5" font-family="MS Shell Dlg 2" stroke-opacity="1"/>
  <g stroke-linejoin="bevel" transform="matrix(0.999751,0,0,0.999751,0,0)" font-weight="400" font-style="normal" fill="none" stroke="#1f78b4" stroke-width="3.07087" stroke-linecap="square" font-size="32.5" font-family="MS Shell Dlg 2" stroke-opacity="1">
   <path fill-rule="evenodd" d="M823.468,979.7 L821.844,977.67 L818.133,969.32 L814.711,960.795 L811.29,952.271 L807.694,943.804 L803.867,935.454 L799.75,927.219 L795.111,919.275 L789.718,911.852 L783.281,905.357 L775.742,900.08 L767.565,895.963 L758.867,892.831 L749.994,890.57 L740.948,888.772 L731.902,887.206 L722.797,885.583 L713.751,883.843 L704.82,881.697 L695.948,879.146 L687.191,876.304 L678.493,873.231 L669.91,870.041 L661.27,866.736 L652.687,863.488 L644.047,860.241 L635.406,857.11 L626.708,854.094 L617.952,851.253 L609.137,848.643 L600.207,846.265 L591.218,844.236 L582.172,842.554 L573.067,841.336 L563.847,840.756 L554.627,840.814 L545.464,841.626 L539.143,842.472" vector-effect="none"/>
   <path fill-rule="evenodd" d="M2744.5,1259.97 L2748.56,1256.43 L2756.15,1251.32 L2763.81,1246.28 L2771.46,1241.06 L2778.94,1235.78 L2786.31,1230.27 L2793.44,1224.48 L2800.28,1218.27 L2806.55,1211.54 L2811.59,1203.89 L2814.43,1195.19 L2815.83,1186.14 L2816.06,1176.92 L2815.54,1167.76 L2814.78,1158.6 L2814.09,1149.49 L2813.74,1140.33 L2813.74,1131.11 L2814.26,1121.95 L2815.36,1112.84 L2817.1,1103.86 L2819.19,1094.87 L2821.51,1086 L2823.94,1077.12 L2826.44,1068.25 L2828.99,1059.44 L2831.6,1050.62 L2834.15,1041.81 L2836.7,1032.99 L2839.2,1024.12 L2841.63,1015.25 L2843.95,1006.38 L2846.15,997.445 L2848.24,988.457 L2850.1,979.468 L2851.78,970.48 L2853.23,961.375 L2854.39,952.271 L2855.14,943.109 L2855.55,933.946 L2855.81,925.496" vector-effect="none"/>
   <path fill-rule="evenodd" d="M1004.74,1445.24 L997.089,1446.05 L987.869,1445.76 L978.707,1445.42 L969.486,1445.13 L960.266,1444.89 L951.045,1444.84 L941.883,1444.95 L932.663,1445.24 L923.442,1445.88 L914.28,1446.81 L905.233,1448.32 L896.245,1450.46 L887.604,1453.59 L879.428,1457.83 L872.063,1463.34 L865.336,1469.6 L859.015,1476.27 L852.926,1483.17 L846.954,1490.19 L840.923,1497.09 L834.66,1503.87 L828.107,1510.31 L820.916,1516.11 L813.029,1520.8 L804.389,1523.7 L795.227,1524.11 L786.296,1522.2 L777.714,1518.83 L769.537,1514.6 L761.65,1509.84 L753.996,1504.68 L746.515,1499.35 L739.092,1493.9 L731.728,1488.45 L724.305,1482.99 L716.824,1477.6 L709.228,1472.44 L701.399,1467.51 L693.396,1462.99 L685.104,1459.04 L676.463,1455.86 L667.533,1453.59 L658.486,1452.2 L649.324,1451.27" vector-effect="none"/>
   <path fill-rule="evenodd" d="M2668.24,1642.99 L2670.74,1648.44 L2673.52,1657.2 L2676.3,1665.95 L2679.32,1674.65 L2682.57,1683.23 L2686.39,1691.58 L2691.03,1699.53 L2697.58,1705.62 L2706.46,1707.88 L2715.68,1708.23 L2724.9,1707.71 L2734.06,1706.84 L2743.22,1705.85 L2752.38,1705.27 L2761.49,1706.2 L2766.36,1712.23 L2764.79,1720.58 L2759.98,1728.41 L2754.59,1735.83 L2749.02,1743.14 L2743.51,1750.5 L2738.35,1758.1 L2733.71,1766.04 L2730.32,1774.16" vector-effect="none"/>
   <path fill-rule="evenodd" d="M2078.95,1523.59 L2079.01,1523.59 L2080.22,1529.73 L2081.44,1538.84 L2082.6,1547.94 L2083.76,1557.05 L2084.98,1566.15 L2086.26,1575.26 L2087.53,1584.36 L2088.92,1593.46 L2090.31,1602.51 L2091.88,1611.56 L2093.45,1620.66 L2095.13,1629.65 L2096.98,1638.7 L2098.95,1647.63 L2101.1,1656.62 L2103.42,1665.49 L2106.03,1674.3 L2108.93,1683 L2112.12,1691.58 L2115.83,1699.99 L2120.06,1708.17 L2124.76,1716.06 L2129.81,1723.71 L2135.2,1731.19 L2140.77,1738.5 L2146.45,1745.69 L2152.31,1752.82 L2158.22,1759.9 L2164.14,1766.91 L2170.05,1773.93 L2175.91,1781.06 L2181.65,1788.19 L2187.22,1795.56 L2192.49,1803.04 L2197.36,1810.81 L2201.66,1818.81 L2205.13,1827.22 L2207.45,1835.86 L2208.5,1844.62 L2208.38,1853.38 L2206.7,1862.07 L2203.74,1870.54 L2199.8,1878.72 L2195.1,1886.55 L2189.94,1894.03 L2184.37,1901.33 L2178.63,1908.52 L2172.78,1915.6 L2166.98,1922.73 L2161.29,1929.98 L2155.84,1937.34 L2150.86,1945.06 L2146.51,1953.06 L2142.68,1961.35 L2139.37,1969.82 L2136.65,1978.58 L2134.73,1987.56 L2133.23,1996.61 L2132.13,2005.72 L2131.31,2014.88 L2130.79,2024.04 L2130.5,2033.2 L2130.5,2042.42 L2130.68,2051.58 L2131.08,2060.75 L2131.72,2069.97 L2132.47,2079.07 L2133.4,2088.23 L2134.5,2097.34 L2135.78,2106.44 L2137.34,2115.49 L2139.14,2124.54 L2141.11,2133.52 L2143.26,2142.46 L2145.64,2151.33 L2148.25,2160.14 L2151.09,2168.84 L2154.22,2177.48 L2157.7,2186.01 L2161.53,2194.36 L2165.76,2202.53 L2170.46,2210.42 L2173.49,2214.88" vector-effect="none"/>
   <path fill-rule="evenodd" d="M1648.2,982.774 L1648.72,977.323 L1650.98,968.45 L1653.48,959.636 L1656.03,950.821 L1658.58,942.007 L1661.02,933.134 L1663.28,924.204 L1665.48,915.273 L1667.39,906.285 L1669.08,897.297 L1670.35,888.192 L1671.11,879.03 L1671.05,869.809 L1670.41,860.705 L1668.55,851.658 L1665.71,842.96 L1662.12,834.493 L1658.06,826.259 L1653.65,818.14 L1649.13,810.138 L1644.55,802.193 L1640.08,794.133 L1635.85,786.014 L1632.02,777.663 L1628.89,769.023 L1626.74,760.092 L1626.45,750.872 L1627.32,741.768 L1629.06,732.721 L1631.5,723.849 L1634.22,715.092 L1637.12,706.394 L1640.02,697.637 L1642.57,688.823 L1644.6,679.892 L1645.71,670.788 L1645.36,661.626 L1643.73,652.637 L1640.54,643.997 L1640.23,643.329" vector-effect="none"/>
   <path fill-rule="evenodd" d="M1377.91,709.931 L1373.5,702.509 L1369.73,694.158 L1365.96,685.749 L1362.08,677.399 L1357.96,669.222 L1353.44,661.162 L1348.39,653.507 L1342.36,646.664 L1334.71,641.677 L1325.66,640.227 L1316.44,640.575 L1307.34,641.735 L1298.23,643.185 L1289.13,644.519 L1279.96,645.331 L1270.8,644.403 L1263.9,638.836 L1263.32,629.789 L1265.76,620.975 L1269.12,612.392 L1272.95,604.042 L1276.89,595.749 L1280.89,587.457 L1284.78,579.164 L1288.6,570.756 L1292.08,562.289 L1295.16,553.591 L1297.48,544.718 L1298.69,535.614 L1298.29,526.451 L1296.61,517.463 L1293.88,508.648 L1290.52,500.124 L1286.63,491.773 L1282.52,483.539 L1278.22,475.42 L1273.99,467.244 L1269.93,459.009 L1266.16,450.659 L1263.03,442.018 L1260.89,433.088 L1259.96,423.983 L1260.94,414.879 L1263.2,405.948 L1266.34,397.308 L1270.05,388.899 L1273.99,380.607 L1278.05,372.314 L1281.88,363.964 L1285.3,355.439 L1288.02,346.683 L1289.59,337.636 L1289.65,328.474 L1288.78,319.311 L1286.86,310.323 L1284.2,301.509 L1284.09,301.219" vector-effect="none"/>
   <path fill-rule="evenodd" d="M798.648,715.324 L797.198,714.57 L790.703,708.134 L784.382,701.465 L778.062,694.796 L771.567,688.301 L764.898,681.922 L757.997,675.833 L750.748,670.208 L742.92,665.395 L734.627,661.568 L725.871,658.784 L716.824,657.044 L707.662,656.523 L698.441,656.928 L689.337,658.204 L680.349,660.118 L671.418,662.496 L662.604,665.163 L653.905,668.063 L645.091,670.672 L636.392,673.804 L627.81,677.109 L619.285,680.588 L610.819,684.242 L602.468,688.011 L594.118,691.954 L585.883,696.072 L577.765,700.363 L569.704,704.828 L561.759,709.467 L553.873,714.28 L546.218,719.326 L538.679,724.603 L531.315,730.112 L524.124,735.911 L517.223,742 L510.496,748.263 L510.097,748.648" vector-effect="none"/>
  </g>
  <g stroke-linejoin="bevel" transform="matrix(0.999751,0,0,0.999751,0,0)" font-weight="400" font-style="normal" fill="none" stroke="#000000" stroke-width="1" stroke-linecap="square" font-size="32.5" font-family="MS Shell Dlg 2" stroke-opacity="1"/>
  <g stroke-linejoin="bevel" transform="matrix(11.8081,0,0,11.8081,0,0)" font-weight="400" font-style="normal" fill="none" stroke="#000000" stroke-width="1" stroke-linecap="square" font-size="32.5" font-family="MS Shell Dlg 2" stroke-opacity="1"/>
  <g stroke-linejoin="bevel" transform="matrix(11.8081,0,0,11.8081,0,0)" font-weight="400" font-style="normal" fill="none" stroke="#000000" stroke-width="1" stroke-linecap="square" font-size="32.5" font-family="MS Shell Dlg 2" stroke-opacity="1"/>
  <g stroke-linejoin="bevel" transform="matrix(11.8081,0,0,11.8081,0,0)" font-weight="400" font-style="normal" fill="none" stroke="#000000" stroke-width="1" stroke-linecap="square" font-size="32.5" font-family="MS Shell Dlg 2" stroke-opacity="1"/>
  <g stroke-linejoin="bevel" transform="matrix(1,0,0,1,0,0)" font-weight="400" font-style="normal" fill="none" stroke="#000000" stroke-width="1" stroke-linecap="square" font-size="32.5" font-family="MS Shell Dlg 2" stroke-opacity="1"/>
  <g stroke-linejoin="bevel" transform="matrix(11.8081,0,0,11.8081,0,0)" font-weight="400" font-style="normal" fill="none" stroke="#000000" stroke-width="1" stroke-linecap="square" font-size="32.5" font-family="MS Shell Dlg 2" stroke-opacity="1"/>
  <g stroke-linejoin="bevel" transform="matrix(11.8081,0,0,11.8081,0,0)" font-weight="400" font-style="normal" fill="none" stroke="#000000" stroke-width="1" stroke-linecap="square" font-size="32.5" font-family="MS Shell Dlg 2" stroke-opacity="1"/>
  <g stroke-linejoin="bevel" transform="matrix(1,0,0,1,0,0)" font-weight="400" font-style="normal" fill="none" stroke="#000000" stroke-width="1" stroke-linecap="square" font-size="32.5" font-family="MS Shell Dlg 2" stroke-opacity="1"/>
 </g>
</svg>
