<?xml version='1.0' encoding='UTF-8' standalone='no'?>
<svg xmlns:xlink="http://www.w3.org/1999/xlink" xmlns:inkscape="http://www.inkscape.org/namespaces/inkscape" viewBox="0 0 3507 2480" height="209.973mm" version="1.2" xmlns="http://www.w3.org/2000/svg" xmlns:cc="http://creativecommons.org/ns#" baseProfile="tiny" width="296.926mm">
 <defs/>
 <g inkscape:label="Page" fill-rule="evenodd" stroke-linecap="square" stroke-linejoin="bevel" id="Page" fill="none" stroke="black" stroke-width="1" inkscape:groupmode="layer">
  <g stroke-opacity="1" stroke-linecap="square" font-size="32.5" stroke-linejoin="bevel" transform="matrix(1,0,0,1,0,0)" font-weight="400" font-family="MS Shell Dlg 2" fill="none" stroke="#000000" font-style="normal" stroke-width="1"/>
  <g stroke-opacity="1" stroke-linecap="square" font-size="32.5" stroke-linejoin="bevel" transform="matrix(1,0,0,1,0,0)" font-weight="400" font-family="MS Shell Dlg 2" fill="none" stroke="#000000" font-style="normal" stroke-width="1"/>
  <g stroke-opacity="1" stroke-linecap="square" font-size="32.5" stroke-linejoin="bevel" transform="matrix(11.8081,0,0,11.8081,0,0)" font-weight="400" font-family="MS Shell Dlg 2" fill="none" stroke="#000000" font-style="normal" stroke-width="1"/>
  <g stroke-opacity="1" stroke-linecap="square" font-size="32.5" stroke-linejoin="bevel" transform="matrix(0.999751,0,0,0.999751,0,0)" font-weight="400" font-family="MS Shell Dlg 2" fill="none" stroke="#000000" font-style="normal" stroke-width="1"/>
  <g fill-opacity="1" font-size="32.5" transform="matrix(0.999751,0,0,0.999751,0,0)" font-weight="400" font-family="MS Shell Dlg 2" fill="#ffffff" stroke="none" font-style="normal">
   <path fill-rule="evenodd" vector-effect="none" d="M-2,-2 L3510,-2 L3510,2483 L-2,2483 L-2,-2"/>
  </g>
  <g stroke-opacity="1" stroke-linecap="square" font-size="32.5" stroke-linejoin="bevel" transform="matrix(0.999751,0,0,0.999751,0,0)" font-weight="400" font-family="MS Shell Dlg 2" fill="none" stroke="#000000" font-style="normal" stroke-width="1"/>
  <g stroke-opacity="1" stroke-linecap="square" font-size="32.5" stroke-linejoin="bevel" transform="matrix(11.8081,0,0,11.8081,0,0)" font-weight="400" font-family="MS Shell Dlg 2" fill="none" stroke="#000000" font-style="normal" stroke-width="1"/>
  <g stroke-opacity="1" stroke-linecap="square" font-size="32.5" stroke-linejoin="bevel" transform="matrix(11.8081,0,0,11.8081,0,0)" font-weight="400" font-family="MS Shell Dlg 2" fill="none" stroke="#000000" font-style="normal" stroke-width="1"/>
  <g stroke-opacity="1" stroke-linecap="square" font-size="32.5" stroke-linejoin="bevel" transform="matrix(1,0,0,1,0,0)" font-weight="400" font-family="MS Shell Dlg 2" fill="none" stroke="#000000" font-style="normal" stroke-width="1"/>
 </g>
 <defs/>
 <g inkscape:label="Map 1: Background" fill-rule="evenodd" stroke-linecap="square" stroke-linejoin="bevel" id="Map 1: Background" fill="none" stroke="black" stroke-width="1" inkscape:groupmode="layer">
  <g stroke-opacity="1" stroke-linecap="square" font-size="32.5" stroke-linejoin="bevel" transform="matrix(1,0,0,1,0,0)" font-weight="400" font-family="MS Shell Dlg 2" fill="none" stroke="#000000" font-style="normal" stroke-width="1"/>
  <g stroke-opacity="1" stroke-linecap="square" font-size="32.5" stroke-linejoin="bevel" transform="matrix(1,0,0,1,0,0)" font-weight="400" font-family="MS Shell Dlg 2" fill="none" stroke="#000000" font-style="normal" stroke-width="1"/>
  <g stroke-opacity="1" stroke-linecap="square" font-size="32.5" stroke-linejoin="bevel" transform="matrix(11.8081,0,0,11.8081,0,0)" font-weight="400" font-family="MS Shell Dlg 2" fill="none" stroke="#000000" font-style="normal" stroke-width="1"/>
  <g fill-opacity="1" font-size="32.5" transform="matrix(11.8081,0,0,11.8081,0,0)" font-weight="400" font-family="MS Shell Dlg 2" fill="#ffffff" stroke="none" font-style="normal">
   <path fill-rule="evenodd" vector-effect="none" d="M0,0 L297,0 L297,210 L0,210 L0,0"/>
  </g>
  <g stroke-opacity="1" stroke-linecap="square" font-size="32.5" stroke-linejoin="bevel" transform="matrix(11.8081,0,0,11.8081,0,0)" font-weight="400" font-family="MS Shell Dlg 2" fill="none" stroke="#000000" font-style="normal" stroke-width="1"/>
  <g stroke-opacity="1" stroke-linecap="square" font-size="32.5" stroke-linejoin="bevel" transform="matrix(11.8081,0,0,11.8081,0,0)" font-weight="400" font-family="MS Shell Dlg 2" fill="none" stroke="#000000" font-style="normal" stroke-width="1"/>
  <g stroke-opacity="1" stroke-linecap="square" font-size="32.5" stroke-linejoin="bevel" transform="matrix(11.8081,0,0,11.8081,0,0)" font-weight="400" font-family="MS Shell Dlg 2" fill="none" stroke="#000000" font-style="normal" stroke-width="1"/>
  <g stroke-opacity="1" stroke-linecap="square" font-size="32.5" stroke-linejoin="bevel" transform="matrix(11.8081,0,0,11.8081,0,0)" font-weight="400" font-family="MS Shell Dlg 2" fill="none" stroke="#000000" font-style="normal" stroke-width="1"/>
  <g stroke-opacity="1" stroke-linecap="square" font-size="32.5" stroke-linejoin="bevel" transform="matrix(1,0,0,1,0,0)" font-weight="400" font-family="MS Shell Dlg 2" fill="none" stroke="#000000" font-style="normal" stroke-width="1"/>
  <g stroke-opacity="1" stroke-linecap="square" font-size="32.5" stroke-linejoin="bevel" transform="matrix(11.8081,0,0,11.8081,0,0)" font-weight="400" font-family="MS Shell Dlg 2" fill="none" stroke="#000000" font-style="normal" stroke-width="1"/>
  <g stroke-opacity="1" stroke-linecap="square" font-size="32.5" stroke-linejoin="bevel" transform="matrix(11.8081,0,0,11.8081,0,0)" font-weight="400" font-family="MS Shell Dlg 2" fill="none" stroke="#000000" font-style="normal" stroke-width="1"/>
  <g stroke-opacity="1" stroke-linecap="square" font-size="32.5" stroke-linejoin="bevel" transform="matrix(1,0,0,1,0,0)" font-weight="400" font-family="MS Shell Dlg 2" fill="none" stroke="#000000" font-style="normal" stroke-width="1"/>
 </g>
 <defs/>
 <g inkscape:label="Map 1: DurlanLand" fill-rule="evenodd" stroke-linecap="square" stroke-linejoin="bevel" id="Map 1: DurlanLand" fill="none" stroke="black" stroke-width="1" inkscape:groupmode="layer">
  <g stroke-opacity="1" stroke-linecap="square" font-size="32.5" stroke-linejoin="bevel" transform="matrix(1,0,0,1,0,0)" font-weight="400" font-family="MS Shell Dlg 2" fill="none" stroke="#000000" font-style="normal" stroke-width="1"/>
  <g stroke-opacity="1" stroke-linecap="square" font-size="32.5" stroke-linejoin="bevel" transform="matrix(1,0,0,1,0,0)" font-weight="400" font-family="MS Shell Dlg 2" fill="none" stroke="#000000" font-style="normal" stroke-width="1"/>
  <g stroke-opacity="1" stroke-linecap="square" font-size="32.5" stroke-linejoin="bevel" transform="matrix(11.8081,0,0,11.8081,0,0)" font-weight="400" font-family="MS Shell Dlg 2" fill="none" stroke="#000000" font-style="normal" stroke-width="1"/>
  <g stroke-opacity="1" stroke-linecap="square" font-size="32.5" stroke-linejoin="bevel" transform="matrix(11.8081,0,0,11.8081,0,0)" font-weight="400" font-family="MS Shell Dlg 2" fill="none" stroke="#000000" font-style="normal" stroke-width="1"/>
  <g fill-opacity="0" font-size="32.5" transform="matrix(0.999751,0,0,0.999751,0,0)" font-weight="400" font-family="MS Shell Dlg 2" fill="#000000" stroke="none" font-style="normal">
   <rect y="0" height="2480" x="0" width="3508"/>
  </g>
  <g stroke-opacity="1" stroke-linecap="square" font-size="32.5" stroke-linejoin="bevel" transform="matrix(0.999751,0,0,0.999751,0,0)" font-weight="400" font-family="MS Shell Dlg 2" fill="none" stroke="#000000" font-style="normal" stroke-width="1"/>
  <g fill-opacity="1" stroke-opacity="1" stroke-linecap="square" font-size="32.5" stroke-linejoin="bevel" transform="matrix(0.999751,0,0,0.999751,0,0)" font-weight="400" font-family="MS Shell Dlg 2" fill="#adcf29" stroke="#232323" font-style="normal" stroke-width="5.90551">
   <path fill-rule="evenodd" vector-effect="none" d="M359.199,1945.09 L350.995,1936.88 L315.443,1928.68 L307.238,1893.13 L307.238,1884.92 L307.238,1841.17 L297.667,1832.96 L281.258,1832.96 L255.277,1806.98 L263.482,1781 L211.52,1763.22 L211.52,1755.02 L263.482,1729.04 L271.686,1711.26 L263.482,1685.28 L229.297,1685.28 L211.52,1668.87 L203.316,1641.53 L219.725,1625.12 L211.52,1581.36 L203.316,1573.16 L175.968,1563.58 L159.559,1563.58 L141.783,1537.6 L167.764,1477.44 L175.968,1477.44 L141.783,1417.27 L124.007,1417.27 L107.598,1407.7 L81.6176,1373.52 L124.007,1339.33 L133.579,1329.76 L107.598,1295.57 L55.6371,1235.41 L63.8415,1225.84 L37.8609,1183.45 L37.8609,1165.67 L46.0653,1113.71 L55.6371,1104.14 L98.0264,1113.71 L107.598,1104.14 L159.559,1095.93 L159.559,1052.18 L211.52,1043.97 L211.52,1000.22 L203.316,992.011 L203.316,966.031 L211.52,931.846 L175.968,905.865 L175.968,896.293 L219.725,879.885 L229.297,836.128 L219.725,827.923 L237.501,792.371 L255.277,784.167 L255.277,732.206 L263.482,732.206 L315.443,740.41 L315.443,732.206 L359.199,732.206 L367.404,706.225 L402.956,696.653 L419.365,680.244 L463.122,706.225 L472.693,696.653 L515.083,706.225 L515.083,644.692 L541.063,636.488 L524.655,584.527 L532.859,566.75 L550.635,540.77 L532.859,532.565 L515.083,498.38 L532.859,462.828 L576.616,480.604 L593.025,472.4 L576.616,436.848 L602.596,420.439 L628.577,410.867 L628.577,402.663 L662.762,376.682 L680.538,350.701 L672.334,342.497 L680.538,306.945 L698.314,298.74 L706.519,272.76 L732.499,238.575 L724.295,211.227 L724.295,203.022 L724.295,159.266 L740.704,142.857 L758.48,142.857 L758.48,133.285 L776.256,142.857 L802.236,168.837 L820.013,168.837 L828.217,159.266 L845.993,168.837 L862.402,151.061 L880.178,159.266 L889.75,168.837 L915.73,177.042 L941.711,185.246 L967.692,177.042 L975.896,177.042 L993.672,168.837 L1027.86,151.061 L1045.63,159.266 L1053.84,159.266 L1079.82,168.837 L1089.39,168.837 L1105.8,177.042 L1115.37,168.837 L1123.57,177.042 L1141.35,177.042 L1175.54,203.022 L1167.33,220.799 L1131.78,229.003 L1105.8,229.003 L1105.8,238.575 L1089.39,238.575 L1071.61,254.984 L1053.84,254.984 L1045.63,280.964 L1053.84,316.516 L1063.41,316.516 L1079.82,316.516 L1097.59,290.536 L1105.8,272.76 L1149.56,272.76 L1167.33,280.964 L1185.11,272.76 L1193.31,272.76 L1211.09,246.779 L1211.09,220.799 L1227.5,203.022 L1253.48,238.575 L1263.05,238.575 L1271.25,229.003 L1263.05,185.246 L1271.25,168.837 L1279.46,168.837 L1289.03,168.837 L1315.01,168.837 L1340.99,151.061 L1349.2,133.285 L1366.97,125.081 L1392.95,142.857 L1401.16,151.061 L1401.16,159.266 L1401.16,185.246 L1418.93,194.818 L1418.93,220.799 L1454.49,238.575 L1454.49,254.984 L1427.14,272.76 L1418.93,290.536 L1427.14,306.945 L1444.91,324.721 L1454.49,358.906 L1444.91,368.478 L1470.89,394.458 L1488.67,394.458 L1506.45,410.867 L1522.86,420.439 L1540.63,428.643 L1558.41,420.439 L1584.39,394.458 L1602.16,394.458 L1610.37,402.663 L1618.57,420.439 L1644.55,428.643 L1662.33,420.439 L1688.31,436.848 L1696.51,436.848 L1714.29,446.419 L1723.86,454.624 L1749.84,472.4 L1749.84,480.604 L1766.25,488.809 L1775.82,488.809 L1801.8,506.585 L1827.79,498.38 L1835.99,498.38 L1853.77,498.38 L1887.95,462.828 L1905.73,446.419 L1913.93,446.419 L1931.71,454.624 L1939.91,488.809 L1957.69,498.38 L1957.69,532.565 L1983.67,540.77 L2001.44,532.565 L2001.44,506.585 L1983.67,488.809 L1983.67,462.828 L1975.46,446.419 L1975.46,420.439 L1993.24,402.663 L2009.65,410.867 L2045.2,394.458 L2061.61,384.886 L2061.61,376.682 L2087.59,358.906 L2087.59,350.701 L2105.37,316.516 L2097.16,306.945 L2113.57,298.74 L2131.35,280.964 L2131.35,254.984 L2140.92,246.779 L2140.92,229.003 L2157.33,220.799 L2183.31,229.003 L2201.08,220.799 L2209.29,229.003 L2218.86,229.003 L2244.84,238.575 L2253.05,264.555 L2270.82,272.76 L2279.03,272.76 L2296.8,280.964 L2322.78,264.555 L2348.76,280.964 L2366.54,272.76 L2382.95,290.536 L2400.72,290.536 L2418.5,280.964 L2426.71,272.76 L2444.48,272.76 L2452.69,280.964 L2488.24,272.76 L2514.22,272.76 L2548.4,272.76 L2574.38,272.76 L2609.94,272.76 L2609.94,280.964 L2635.92,272.76 L2644.12,280.964 L2661.9,272.76 L2678.31,290.536 L2661.9,306.945 L2687.88,324.721 L2705.65,316.516 L2722.06,316.516 L2731.64,350.701 L2722.06,368.478 L2731.64,394.458 L2739.84,394.458 L2757.62,394.458 L2774.02,410.867 L2774.02,428.643 L2800.01,446.419 L2774.02,462.828 L2774.02,480.604 L2800.01,498.38 L2817.78,506.585 L2827.35,524.361 L2827.35,540.77 L2774.02,566.75 L2774.02,592.731 L2765.82,610.507 L2765.82,636.488 L2800.01,654.264 L2800.01,688.449 L2843.76,696.653 L2809.58,740.41 L2835.56,766.39 L2827.35,810.147 L2869.74,792.371 L2895.72,810.147 L2905.29,844.332 L2931.28,853.904 L2931.28,879.885 L2965.46,914.069 L3001.01,896.293 L3026.99,905.865 L3035.2,948.254 L3061.18,948.254 L3069.38,966.031 L3078.95,992.011 L3113.14,983.807 L3139.12,1009.79 L3174.67,1009.79 L3191.08,1043.97 L3226.63,1061.75 L3226.63,1104.14 L3278.59,1113.71 L3278.59,1156.1 L3296.37,1156.1 L3338.76,1165.67 L3338.76,1173.88 L3338.76,1217.63 L3400.29,1243.61 L3400.29,1277.8 L3400.29,1287.37 L3408.5,1313.35 L3460.46,1339.33 L3452.25,1365.31 L3444.05,1381.72 L3452.25,1399.5 L3452.25,1425.48 L3460.46,1451.46 L3478.23,1459.66 L3486.44,1477.44 L3460.46,1521.19 L3444.05,1511.62 L3426.27,1503.42 L3392.09,1511.62 L3392.09,1521.19 L3382.52,1537.6 L3392.09,1563.58 L3382.52,1573.16 L3364.74,1589.56 L3348.33,1581.36 L3322.35,1589.56 L3312.78,1589.56 L3304.57,1581.36 L3278.59,1599.14 L3278.59,1615.54 L3244.41,1625.12 L3234.84,1615.54 L3234.84,1599.14 L3244.41,1581.36 L3244.41,1555.38 L3252.61,1547.17 L3252.61,1529.4 L3244.41,1503.42 L3234.84,1503.42 L3208.86,1485.64 L3191.08,1495.21 L3174.67,1477.44 L3148.69,1495.21 L3139.12,1521.19 L3156.9,1537.6 L3174.67,1573.16 L3122.71,1589.56 L3113.14,1615.54 L3087.16,1625.12 L3052.97,1625.12 L3043.4,1641.53 L3017.42,1651.1 L3035.2,1685.28 L3026.99,1711.26 L3017.42,1711.26 L3017.42,1729.04 L3001.01,1737.24 L2983.24,1772.8 L2965.46,1781 L2947.68,1789.2 L2931.28,1789.2 L2921.7,1798.78 L2905.29,1815.18 L2887.52,1841.17 L2879.31,1841.17 L2861.54,1832.96 L2853.33,1841.17 L2827.35,1841.17 L2817.78,1858.94 L2800.01,1858.94 L2791.8,1884.92 L2774.02,1884.92 L2757.62,1893.13 L2757.62,1919.11 L2748.04,1936.88 L2757.62,1954.66 L2757.62,1971.07 L2722.06,1997.05 L2705.65,2006.62 L2696.08,2006.62 L2687.88,2006.62 L2661.9,1980.64 L2652.33,1971.07 L2644.12,1962.86 L2626.35,1971.07 L2626.35,1980.64 L2592.16,1988.84 L2583.96,1980.64 L2557.98,1988.84 L2557.98,2014.82 L2574.38,2032.6 L2583.96,2032.6 L2600.36,2032.6 L2618.14,2032.6 L2626.35,2032.6 L2644.12,2040.81 L2661.9,2058.58 L2644.12,2084.56 L2618.14,2092.77 L2600.36,2118.75 L2618.14,2136.52 L2618.14,2144.73 L2635.92,2170.71 L2635.92,2188.48 L2618.14,2196.69 L2592.16,2206.26 L2557.98,2206.26 L2548.4,2206.26 L2548.4,2232.24 L2574.38,2248.65 L2583.96,2248.65 L2592.16,2258.22 L2626.35,2258.22 L2652.33,2266.43 L2687.88,2248.65 L2687.88,2240.45 L2696.08,2240.45 L2731.64,2248.65 L2748.04,2258.22 L2757.62,2266.43 L2783.6,2292.41 L2783.6,2300.61 L2783.6,2326.59 L2783.6,2378.55 L2722.06,2388.12 L2644.12,2378.55 L2626.35,2396.33 L2566.18,2362.14 L2514.22,2404.53 L2470.46,2370.35 L2452.69,2362.14 L2418.5,2378.55 L2408.93,2378.55 L2340.56,2378.55 L2314.58,2404.53 L2261.25,2370.35 L2296.8,2326.59 L2322.78,2318.39 L2330.99,2318.39 L2356.97,2310.18 L2392.52,2326.59 L2400.72,2292.41 L2418.5,2284.2 L2436.28,2266.43 L2444.48,2266.43 L2470.46,2258.22 L2478.67,2258.22 L2496.44,2248.65 L2504.65,2222.67 L2488.24,2206.26 L2478.67,2206.26 L2470.46,2188.48 L2444.48,2180.28 L2436.28,2162.5 L2426.71,2162.5 L2400.72,2144.73 L2408.93,2126.95 L2374.74,2110.54 L2356.97,2110.54 L2348.76,2136.52 L2322.78,2144.73 L2314.58,2144.73 L2296.8,2126.95 L2296.8,2118.75 L2314.58,2092.77 L2314.58,2066.79 L2296.8,2049.01 L2288.6,2049.01 L2279.03,2049.01 L2253.05,2049.01 L2244.84,2023.03 L2253.05,2006.62 L2235.27,1971.07 L2218.86,1997.05 L2218.86,2014.82 L2209.29,2023.03 L2201.08,2040.81 L2192.88,2049.01 L2166.9,2040.81 L2157.33,2014.82 L2149.12,2014.82 L2131.35,1997.05 L2131.35,1988.84 L2123.14,1962.86 L2087.59,1954.66 L2087.59,1945.09 L2053.41,1928.68 L2027.43,1945.09 L2019.22,1936.88 L2009.65,1936.88 L2009.65,1945.09 L1993.24,1962.86 L1983.67,1962.86 L1949.48,1988.84 L1939.91,1988.84 L1923.5,2014.82 L1913.93,2014.82 L1905.73,2049.01 L1887.95,2032.6 L1861.97,2049.01 L1853.77,2049.01 L1827.79,2049.01 L1818.21,2040.81 L1810.01,2049.01 L1784.03,2032.6 L1766.25,2049.01 L1732.07,2032.6 L1732.07,2023.03 L1706.09,2006.62 L1688.31,1988.84 L1680.11,1988.84 L1644.55,1980.64 L1636.35,1988.84 L1618.57,1988.84 L1592.59,1997.05 L1584.39,1988.84 L1566.61,1988.84 L1548.84,1988.84 L1506.45,1980.64 L1506.45,1954.66 L1488.67,1945.09 L1470.89,1945.09 L1462.69,1954.66 L1444.91,1954.66 L1436.71,1962.86 L1401.16,1971.07 L1349.2,1980.64 L1340.99,1997.05 L1323.22,1997.05 L1306.81,2006.62 L1279.46,1997.05 L1263.05,2006.62 L1245.27,1997.05 L1227.5,1997.05 L1219.29,2040.81 L1219.29,2049.01 L1211.09,2074.99 L1201.52,2092.77 L1185.11,2110.54 L1175.54,2110.54 L1149.56,2126.95 L1159.13,2136.52 L1185.11,2144.73 L1185.11,2154.3 L1219.29,2144.73 L1237.07,2154.3 L1237.07,2162.5 L1263.05,2162.5 L1279.46,2188.48 L1289.03,2188.48 L1306.81,2222.67 L1315.01,2222.67 L1332.79,2258.22 L1323.22,2266.43 L1349.2,2284.2 L1358.77,2284.2 L1384.75,2258.22 L1410.73,2266.43 L1410.73,2292.41 L1418.93,2300.61 L1410.73,2318.39 L1436.71,2362.14 L1462.69,2326.59 L1470.89,2284.2 L1462.69,2284.2 L1462.69,2274.63 L1470.89,2266.43 L1470.89,2240.45 L1470.89,2222.67 L1444.91,2196.69 L1436.71,2196.69 L1427.14,2188.48 L1401.16,2196.69 L1384.75,2188.48 L1366.97,2214.47 L1358.77,2214.47 L1340.99,2196.69 L1340.99,2188.48 L1323.22,2170.71 L1306.81,2170.71 L1289.03,2126.95 L1279.46,2126.95 L1263.05,2118.75 L1263.05,2092.77 L1263.05,2084.56 L1245.27,2040.81 L1263.05,2032.6 L1289.03,2040.81 L1323.22,2049.01 L1349.2,2049.01 L1358.77,2074.99 L1375.18,2074.99 L1392.95,2100.97 L1410.73,2092.77 L1436.71,2110.54 L1444.91,2110.54 L1470.89,2110.54 L1480.47,2100.97 L1506.45,2118.75 L1514.65,2126.95 L1496.87,2162.5 L1522.86,2180.28 L1522.86,2188.48 L1522.86,2196.69 L1532.43,2214.47 L1522.86,2232.24 L1522.86,2240.45 L1522.86,2258.22 L1532.43,2284.2 L1522.86,2300.61 L1532.43,2326.59 L1522.86,2336.16 L1532.43,2370.35 L1470.89,2396.33 L1436.71,2370.35 L1358.77,2388.12 L1349.2,2370.35 L1315.01,2362.14 L1253.48,2388.12 L1237.07,2370.35 L1149.56,2396.33 L1131.78,2370.35 L1159.13,2344.37 L1159.13,2300.61 L1149.56,2300.61 L1141.35,2266.43 L1149.56,2266.43 L1149.56,2222.67 L1149.56,2196.69 L1141.35,2180.28 L1141.35,2170.71 L1141.35,2154.3 L1115.37,2136.52 L1105.8,2180.28 L1089.39,2196.69 L1079.82,2196.69 L1063.41,2180.28 L1053.84,2180.28 L1027.86,2154.3 L1027.86,2144.73 L1027.86,2126.95 L1053.84,2110.54 L1053.84,2084.56 L1045.63,2084.56 L1010.08,2084.56 L975.896,2092.77 L958.12,2126.95 L958.12,2144.73 L949.915,2162.5 L923.935,2154.3 L915.73,2136.52 L889.75,2136.52 L880.178,2118.75 L845.993,2110.54 L836.421,2136.52 L836.421,2162.5 L820.013,2214.47 L794.032,2214.47 L776.256,2206.26 L768.051,2180.28 L776.256,2170.71 L750.275,2126.95 L776.256,2118.75 L784.46,2100.97 L784.46,2084.56 L802.236,2074.99 L810.441,2058.58 L836.421,2049.01 L836.421,2006.62 L820.013,2006.62 L802.236,2006.62 L794.032,2023.03 L758.48,2040.81 L740.704,2040.81 L724.295,2066.79 L732.499,2084.56 L724.295,2100.97 L714.723,2100.97 L688.742,2084.56 L672.334,2084.56 L662.762,2110.54 L662.762,2118.75 L646.353,2136.52 L646.353,2144.73 L628.577,2154.3 L593.025,2144.73 L584.82,2154.3 L584.82,2170.71 L576.616,2180.28 L576.616,2188.48 L550.635,2206.26 L541.063,2222.67 L524.655,2232.24 L515.083,2258.22 L498.674,2258.22 L472.693,2232.24 L498.674,2214.47 L498.674,2188.48 L489.102,2170.71 L480.898,2170.71 L454.917,2136.52 L428.937,2144.73 L419.365,2144.73 L402.956,2084.56 L376.976,2084.56 L367.404,2032.6 L376.976,2014.82 L385.18,1988.84 L367.404,1980.64 L359.199,1945.09 M1332.79,1061.75 L1340.99,1026.2 L1332.79,1017.99 L1315.01,1009.79 L1297.23,1026.2 L1297.23,1061.75 L1306.81,1061.75 L1332.79,1061.75 M2305.01,1165.67 L2288.6,1156.1 L2261.25,1165.67 L2227.07,1165.67 L2218.86,1173.88 L2209.29,1173.88 L2183.31,1165.67 L2192.88,1130.12 L2201.08,1130.12 L2192.88,1095.93 L2166.9,1104.14 L2166.9,1121.91 L2157.33,1121.91 L2149.12,1147.89 L2140.92,1165.67 L2105.37,1156.1 L2105.37,1183.45 L2071.18,1183.45 L2053.41,1199.86 L2045.2,1199.86 L2027.43,1199.86 L2001.44,1217.63 L2001.44,1225.84 L1983.67,1243.61 L1983.67,1251.82 L1975.46,1251.82 L1949.48,1261.39 L1939.91,1277.8 L1965.89,1313.35 L1983.67,1313.35 L1993.24,1329.76 L2001.44,1355.74 L2027.43,1365.31 L2027.43,1373.52 L2053.41,1391.29 L2079.39,1373.52 L2071.18,1355.74 L2087.59,1329.76 L2113.57,1329.76 L2131.35,1321.55 L2157.33,1321.55 L2166.9,1321.55 L2183.31,1295.57 L2183.31,1261.39 L2192.88,1251.82 L2209.29,1235.41 L2235.27,1225.84 L2270.82,1209.43 L2296.8,1199.86 L2314.58,1191.65 L2330.99,1199.86 L2348.76,1199.86 L2348.76,1173.88 L2340.56,1156.1 L2314.58,1156.1 L2305.01,1165.67 M1835.99,550.342 L1810.01,550.342 L1784.03,584.527 L1792.23,584.527 L1818.21,610.507 L1835.99,602.303 L1844.19,566.75 L1844.19,558.546 L1835.99,550.342 M2566.18,1919.11 L2574.38,1928.68 L2592.16,1936.88 L2626.35,1919.11 L2626.35,1902.7 L2618.14,1876.72 L2609.94,1876.72 L2583.96,1884.92 L2566.18,1919.11 M2895.72,1381.72 L2869.74,1391.29 L2869.74,1425.48 L2879.31,1459.66 L2905.29,1469.23 L2913.5,1469.23 L2947.68,1477.44 L2975.03,1477.44 L2983.24,1469.23 L3009.22,1477.44 L3035.2,1459.66 L3043.4,1443.25 L3052.97,1433.68 L3061.18,1407.7 L3052.97,1391.29 L3043.4,1381.72 L3035.2,1381.72 L3017.42,1365.31 L3001.01,1355.74 L2983.24,1347.53 L2975.03,1347.53 L2957.26,1339.33 L2947.68,1321.55 L2931.28,1321.55 L2913.5,1295.57 L2895.72,1313.35 L2895.72,1347.53 L2905.29,1365.31 L2895.72,1381.72"/>
   <path fill-rule="evenodd" vector-effect="none" d="M2696.08,2144.73 L2722.06,2154.3 L2731.64,2154.3 L2739.84,2162.5 L2757.62,2154.3 L2774.02,2162.5 L2791.8,2162.5 L2800.01,2170.71 L2835.56,2144.73 L2843.76,2154.3 L2879.31,2144.73 L2895.72,2154.3 L2895.72,2170.71 L2887.52,2180.28 L2853.33,2196.69 L2809.58,2196.69 L2800.01,2206.26 L2765.82,2188.48 L2748.04,2206.26 L2748.04,2214.47 L2739.84,2206.26 L2705.65,2196.69 L2678.31,2188.48 L2678.31,2180.28 L2652.33,2154.3 L2670.1,2126.95 L2678.31,2126.95 L2696.08,2144.73"/>
   <path fill-rule="evenodd" vector-effect="none" d="M2235.27,2162.5 L2235.27,2180.28 L2227.07,2196.69 L2218.86,2196.69 L2201.08,2196.69 L2192.88,2196.69 L2183.31,2180.28 L2183.31,2162.5 L2209.29,2136.52 L2218.86,2144.73 L2235.27,2162.5"/>
   <path fill-rule="evenodd" vector-effect="none" d="M1644.55,2170.71 L1602.16,2188.48 L1592.59,2188.48 L1584.39,2170.71 L1610.37,2144.73 L1644.55,2170.71"/>
   <path fill-rule="evenodd" vector-effect="none" d="M3217.06,1746.81 L3191.08,1729.04 L3191.08,1720.83 L3208.86,1694.85 L3226.63,1694.85 L3234.84,1746.81 L3226.63,1746.81 L3217.06,1746.81"/>
   <path fill-rule="evenodd" vector-effect="none" d="M802.236,55.3435 L828.217,73.1196 L828.217,90.8958 L810.441,99.1002 L784.46,90.8958 L784.46,64.9152 L802.236,55.3435"/>
  </g>
  <g stroke-opacity="1" stroke-linecap="square" font-size="32.5" stroke-linejoin="bevel" transform="matrix(0.999751,0,0,0.999751,0,0)" font-weight="400" font-family="MS Shell Dlg 2" fill="none" stroke="#000000" font-style="normal" stroke-width="1"/>
  <g stroke-opacity="1" stroke-linecap="square" font-size="32.5" stroke-linejoin="bevel" transform="matrix(11.8081,0,0,11.8081,0,0)" font-weight="400" font-family="MS Shell Dlg 2" fill="none" stroke="#000000" font-style="normal" stroke-width="1"/>
  <g stroke-opacity="1" stroke-linecap="square" font-size="32.5" stroke-linejoin="bevel" transform="matrix(11.8081,0,0,11.8081,0,0)" font-weight="400" font-family="MS Shell Dlg 2" fill="none" stroke="#000000" font-style="normal" stroke-width="1"/>
  <g stroke-opacity="1" stroke-linecap="square" font-size="32.5" stroke-linejoin="bevel" transform="matrix(11.8081,0,0,11.8081,0,0)" font-weight="400" font-family="MS Shell Dlg 2" fill="none" stroke="#000000" font-style="normal" stroke-width="1"/>
  <g stroke-opacity="1" stroke-linecap="square" font-size="32.5" stroke-linejoin="bevel" transform="matrix(1,0,0,1,0,0)" font-weight="400" font-family="MS Shell Dlg 2" fill="none" stroke="#000000" font-style="normal" stroke-width="1"/>
  <g stroke-opacity="1" stroke-linecap="square" font-size="32.5" stroke-linejoin="bevel" transform="matrix(11.8081,0,0,11.8081,0,0)" font-weight="400" font-family="MS Shell Dlg 2" fill="none" stroke="#000000" font-style="normal" stroke-width="1"/>
  <g stroke-opacity="1" stroke-linecap="square" font-size="32.5" stroke-linejoin="bevel" transform="matrix(11.8081,0,0,11.8081,0,0)" font-weight="400" font-family="MS Shell Dlg 2" fill="none" stroke="#000000" font-style="normal" stroke-width="1"/>
  <g stroke-opacity="1" stroke-linecap="square" font-size="32.5" stroke-linejoin="bevel" transform="matrix(1,0,0,1,0,0)" font-weight="400" font-family="MS Shell Dlg 2" fill="none" stroke="#000000" font-style="normal" stroke-width="1"/>
 </g>
 <defs/>
 <g inkscape:label="Map 1: DurlanLand (Labels)" fill-rule="evenodd" stroke-linecap="square" stroke-linejoin="bevel" id="Map 1: DurlanLand (Labels)" fill="none" stroke="black" stroke-width="1" inkscape:groupmode="layer">
  <g stroke-opacity="1" stroke-linecap="square" font-size="32.5" stroke-linejoin="bevel" transform="matrix(1,0,0,1,0,0)" font-weight="400" font-family="MS Shell Dlg 2" fill="none" stroke="#000000" font-style="normal" stroke-width="1"/>
  <g stroke-opacity="1" stroke-linecap="square" font-size="32.5" stroke-linejoin="bevel" transform="matrix(1,0,0,1,0,0)" font-weight="400" font-family="MS Shell Dlg 2" fill="none" stroke="#000000" font-style="normal" stroke-width="1"/>
  <g stroke-opacity="1" stroke-linecap="square" font-size="32.5" stroke-linejoin="bevel" transform="matrix(11.8081,0,0,11.8081,0,0)" font-weight="400" font-family="MS Shell Dlg 2" fill="none" stroke="#000000" font-style="normal" stroke-width="1"/>
  <g stroke-opacity="1" stroke-linecap="square" font-size="32.5" stroke-linejoin="bevel" transform="matrix(11.8081,0,0,11.8081,0,0)" font-weight="400" font-family="MS Shell Dlg 2" fill="none" stroke="#000000" font-style="normal" stroke-width="1"/>
  <g fill-opacity="0" font-size="32.5" transform="matrix(0.999751,0,0,0.999751,0,0)" font-weight="400" font-family="MS Shell Dlg 2" fill="#000000" stroke="none" font-style="normal">
   <rect y="0" height="2480" x="0" width="3508"/>
  </g>
  <g stroke-opacity="1" stroke-linecap="square" font-size="32.5" stroke-linejoin="bevel" transform="matrix(0.999751,0,0,0.999751,0,0)" font-weight="400" font-family="MS Shell Dlg 2" fill="none" stroke="#000000" font-style="normal" stroke-width="1"/>
  <g stroke-opacity="1" stroke-linecap="square" font-size="32.5" stroke-linejoin="bevel" transform="matrix(0.3999,0,0,0.3999,1570.15,1255.68)" font-weight="400" font-family="MS Shell Dlg 2" fill="none" stroke="#000000" font-style="normal" stroke-width="1"/>
  <g fill-opacity="1" font-size="32.5" transform="matrix(0.999751,0,0,0.999751,1570.15,1255.68)" font-weight="400" font-family="MS Shell Dlg 2" fill="#323232" stroke="none" font-style="normal">
   <path fill-rule="nonzero" vector-effect="none" d="M4.284,0.714 C4.956,-2.338 5.292,-6.727 5.292,-12.453 C5.292,-18.179 5.166,-22.4 4.914,-25.116 C1.806,-25.06 -0.182,-24.612 -1.05,-23.772 C-1.246,-23.38 -1.344,-22.764 -1.344,-21.924 C-1.344,-21.084 -1.204,-20.51 -0.924,-20.202 L-0.966,-19.908 C-1.666,-19.488 -2.366,-18.9 -3.066,-18.144 C-3.402,-18.172 -3.675,-18.312 -3.885,-18.564 C-4.095,-18.816 -4.2,-19.11 -4.2,-19.446 C-4.2,-20.734 -3.465,-22.26 -1.995,-24.024 C-0.525,-25.788 0.882,-27.006 2.226,-27.678 C4.606,-27.454 8.134,-27.342 12.81,-27.342 C20.454,-27.342 24.276,-23.632 24.276,-16.212 C24.276,-12.32 23.254,-8.792 21.21,-5.628 C19.166,-2.464 16.394,-0.378 12.894,0.63 C10.878,0.63 8.624,0.098 6.132,-0.966 C5.656,-0.238 5.334,0.392 5.166,0.924 L4.284,0.714 M12.138,-25.368 C10.85,-25.368 9.772,-25.298 8.904,-25.158 C8.652,-22.526 8.526,-18.886 8.526,-14.238 C8.526,-9.59 8.596,-6.034 8.736,-3.57 C10.248,-2.786 11.97,-2.394 13.902,-2.394 C15.834,-2.394 17.332,-2.87 18.396,-3.822 C19.824,-6.426 20.538,-9.646 20.538,-13.482 C20.538,-17.318 19.943,-20.258 18.753,-22.302 C17.563,-24.346 15.358,-25.368 12.138,-25.368 M45.362,-11.928 L45.362,-9.954 C45.362,-6.118 45.502,-3.248 45.782,-1.344 C47.07,-1.176 48.134,-0.98 48.974,-0.756 L48.848,0.294 C47.476,0.098 46.069,0 44.627,0 C43.185,0 42.198,0.042 41.666,0.126 L41.498,-0.42 C41.75,-0.7 41.918,-1.498 42.002,-2.814 C40.546,-1.302 38.866,-0.196 36.962,0.504 C32.146,0.504 29.738,-2.366 29.738,-8.106 C29.738,-9.366 29.836,-11.382 30.032,-14.154 C30.228,-16.926 30.326,-18.55 30.326,-19.026 C30.326,-19.502 30.242,-19.964 30.074,-20.412 L30.074,-20.454 C28.898,-20.65 27.96,-20.86 27.26,-21.084 L27.428,-22.218 C29.052,-21.994 30.522,-21.882 31.838,-21.882 C33.154,-21.882 34.232,-21.952 35.072,-22.092 L35.24,-21.378 C34.232,-20.846 33.644,-19.88 33.476,-18.48 C33.14,-15.792 32.972,-13.034 32.972,-10.206 C32.972,-7.378 33.301,-5.369 33.959,-4.179 C34.617,-2.989 35.849,-2.394 37.655,-2.394 C39.461,-2.394 40.924,-2.912 42.044,-3.948 C42.156,-6.188 42.212,-8.834 42.212,-11.886 C42.212,-14.938 42.1,-17.808 41.876,-20.496 C40.616,-20.636 39.454,-20.846 38.39,-21.126 L38.516,-22.176 C39.972,-21.98 41.603,-21.882 43.409,-21.882 C45.215,-21.882 46.832,-21.994 48.26,-22.218 L48.428,-21.126 C47.644,-20.874 46.762,-20.664 45.782,-20.496 C45.502,-18.62 45.362,-15.764 45.362,-11.928 M51.806,-21.798 L61.466,-22.092 C63.986,-22.092 65.876,-21.721 67.136,-20.979 C68.396,-20.237 69.026,-18.886 69.026,-16.926 C69.026,-15.582 68.613,-14.392 67.787,-13.356 C66.961,-12.32 65.876,-11.55 64.532,-11.046 L69.236,-1.428 C70.188,-1.26 71.084,-1.064 71.924,-0.84 L71.756,0.294 C70.58,0.098 69.257,0 67.787,0 C66.317,0 65.162,0.07 64.322,0.21 L64.154,-0.462 C64.518,-0.826 64.7,-1.428 64.7,-2.268 C64.7,-3.976 63.72,-6.72 61.76,-10.5 C61.172,-10.612 60.486,-10.668 59.702,-10.668 L59.786,-11.886 L60.206,-11.886 C63.51,-11.886 65.162,-13.398 65.162,-16.422 C65.162,-19.222 63.748,-20.622 60.92,-20.622 C59.968,-20.622 59.114,-20.468 58.358,-20.16 C58.162,-18.312 58.064,-15.148 58.064,-10.668 C58.064,-6.188 58.19,-3.094 58.442,-1.386 C59.674,-1.246 60.822,-1.036 61.886,-0.756 L61.76,0.294 C60.304,0.098 58.673,0 56.867,0 C55.061,0 53.444,0.112 52.016,0.336 L51.848,-0.756 C52.632,-1.008 53.514,-1.218 54.494,-1.386 C54.774,-3.486 54.914,-6.755 54.914,-11.193 C54.914,-15.631 54.788,-18.704 54.536,-20.412 C53.444,-20.776 52.534,-20.958 51.806,-20.958 L51.806,-21.798 M89.178,0.462 C87.358,0.154 84.887,0 81.765,0 C78.643,0 76.032,0.14 73.932,0.42 L73.806,-0.63 C74.59,-0.938 75.486,-1.19 76.494,-1.386 C76.774,-3.066 76.914,-5.922 76.914,-9.954 L76.914,-11.928 C76.914,-15.4 76.774,-18.256 76.494,-20.496 C75.57,-20.636 74.688,-20.846 73.848,-21.126 L74.016,-22.218 C75.444,-21.994 77.124,-21.882 79.056,-21.882 C80.988,-21.882 82.64,-21.994 84.012,-22.218 L84.138,-21.168 C82.878,-20.86 81.632,-20.636 80.4,-20.496 C80.176,-18.984 80.064,-15.869 80.064,-11.151 C80.064,-6.433 80.176,-3.29 80.4,-1.722 C81.072,-1.61 82.024,-1.554 83.256,-1.554 C84.488,-1.554 85.594,-1.792 86.574,-2.268 C86.966,-3.22 87.162,-4.34 87.162,-5.628 L88.212,-5.628 C88.324,-3.472 88.716,-1.722 89.388,-0.378 L89.178,0.462 M93.536,-22.344 C96.168,-22.036 98.828,-21.882 101.516,-21.882 C104.204,-21.882 106.85,-22.036 109.454,-22.344 L109.622,-21.252 C108.782,-20.916 107.914,-20.664 107.018,-20.496 C106.71,-18.2 106.556,-15.008 106.556,-10.92 C106.556,-6.832 106.71,-3.64 107.018,-1.344 C107.578,-1.26 108.614,-1.05 110.126,-0.714 L109.958,0.336 C108.614,0.112 106.892,0 104.792,0 C102.692,0 101.082,0.112 99.962,0.336 L99.794,-0.756 C100.746,-1.064 101.824,-1.288 103.028,-1.428 C103.196,-3.052 103.322,-5.306 103.406,-8.19 C102.09,-8.33 100.774,-8.4 99.458,-8.4 C98.142,-8.4 96.994,-8.33 96.014,-8.19 C95.454,-5.894 95.174,-4.298 95.174,-3.402 C95.174,-2.03 95.664,-1.064 96.644,-0.504 L96.476,0.21 C95.832,0.07 94.614,0 92.822,0 C91.03,0 89.616,0.112 88.58,0.336 L88.412,-0.756 C89.084,-1.008 90.008,-1.232 91.184,-1.428 L96.644,-20.58 C95.412,-20.776 94.334,-21 93.41,-21.252 L93.536,-22.344 M96.35,-10.164 C97.442,-9.996 98.653,-9.912 99.983,-9.912 C101.313,-9.912 102.454,-9.996 103.406,-10.164 C103.406,-15.344 103.294,-18.69 103.07,-20.202 C102.118,-20.258 101.411,-20.286 100.949,-20.286 C100.487,-20.286 99.78,-20.258 98.828,-20.202 L96.35,-10.164 M122.928,0.294 C121.472,0.098 119.841,0 118.035,0 C116.229,0 114.612,0.112 113.184,0.336 L113.016,-0.756 C113.912,-1.036 114.752,-1.246 115.536,-1.386 C115.788,-3.57 115.914,-6.426 115.914,-9.954 L115.914,-11.928 C115.914,-15.68 115.774,-18.564 115.494,-20.58 C114.738,-20.664 113.828,-20.888 112.764,-21.252 L112.89,-22.344 C114.486,-22.036 116.159,-21.882 117.909,-21.882 C119.659,-21.882 120.912,-21.98 121.668,-22.176 L121.752,-21.462 C120.996,-21.266 120.618,-20.944 120.618,-20.496 C120.618,-20.16 120.947,-19.453 121.605,-18.375 C122.263,-17.297 122.9,-16.254 123.516,-15.246 C125.364,-12.306 127.548,-8.694 130.068,-4.41 L130.194,-4.494 L130.194,-9.618 C130.194,-13.37 129.998,-16.191 129.606,-18.081 C129.214,-19.971 128.542,-21.07 127.59,-21.378 L127.674,-22.092 C128.402,-21.952 129.494,-21.882 130.95,-21.882 C132.406,-21.882 133.904,-22.036 135.444,-22.344 L135.57,-21.252 C134.422,-20.888 133.456,-20.664 132.672,-20.58 C132.392,-18.34 132.252,-15.456 132.252,-11.928 L132.252,-9.954 C132.252,-5.698 132.392,-2.814 132.672,-1.302 C133.848,-1.106 134.786,-0.882 135.486,-0.63 L135.36,0.462 C133.96,0.154 132.644,0 131.412,0 C130.18,0 129.228,0.056 128.556,0.168 C128.556,-0.448 128.129,-1.484 127.275,-2.94 C126.421,-4.396 125.644,-5.684 124.944,-6.804 C122.676,-10.472 120.45,-14.196 118.266,-17.976 L118.098,-17.892 L118.098,-12.264 C118.098,-6.692 118.518,-3.066 119.358,-1.386 C120.618,-1.246 121.85,-1.036 123.054,-0.756 L122.928,0.294"/>
  </g>
  <g stroke-opacity="1" stroke-linecap="square" font-size="32.5" stroke-linejoin="bevel" transform="matrix(0.3999,0,0,0.3999,1570.15,1255.68)" font-weight="400" font-family="MS Shell Dlg 2" fill="none" stroke="#000000" font-style="normal" stroke-width="1"/>
  <g stroke-opacity="1" stroke-linecap="square" font-size="32.5" stroke-linejoin="bevel" transform="matrix(0.999751,0,0,0.999751,0,0)" font-weight="400" font-family="MS Shell Dlg 2" fill="none" stroke="#000000" font-style="normal" stroke-width="1"/>
  <g stroke-opacity="1" stroke-linecap="square" font-size="32.5" stroke-linejoin="bevel" transform="matrix(11.8081,0,0,11.8081,0,0)" font-weight="400" font-family="MS Shell Dlg 2" fill="none" stroke="#000000" font-style="normal" stroke-width="1"/>
  <g stroke-opacity="1" stroke-linecap="square" font-size="32.5" stroke-linejoin="bevel" transform="matrix(11.8081,0,0,11.8081,0,0)" font-weight="400" font-family="MS Shell Dlg 2" fill="none" stroke="#000000" font-style="normal" stroke-width="1"/>
  <g stroke-opacity="1" stroke-linecap="square" font-size="32.5" stroke-linejoin="bevel" transform="matrix(11.8081,0,0,11.8081,0,0)" font-weight="400" font-family="MS Shell Dlg 2" fill="none" stroke="#000000" font-style="normal" stroke-width="1"/>
  <g stroke-opacity="1" stroke-linecap="square" font-size="32.5" stroke-linejoin="bevel" transform="matrix(1,0,0,1,0,0)" font-weight="400" font-family="MS Shell Dlg 2" fill="none" stroke="#000000" font-style="normal" stroke-width="1"/>
  <g stroke-opacity="1" stroke-linecap="square" font-size="32.5" stroke-linejoin="bevel" transform="matrix(11.8081,0,0,11.8081,0,0)" font-weight="400" font-family="MS Shell Dlg 2" fill="none" stroke="#000000" font-style="normal" stroke-width="1"/>
  <g stroke-opacity="1" stroke-linecap="square" font-size="32.5" stroke-linejoin="bevel" transform="matrix(11.8081,0,0,11.8081,0,0)" font-weight="400" font-family="MS Shell Dlg 2" fill="none" stroke="#000000" font-style="normal" stroke-width="1"/>
  <g stroke-opacity="1" stroke-linecap="square" font-size="32.5" stroke-linejoin="bevel" transform="matrix(1,0,0,1,0,0)" font-weight="400" font-family="MS Shell Dlg 2" fill="none" stroke="#000000" font-style="normal" stroke-width="1"/>
 </g>
 <metadata>
  <rdf:RDF xmlns:rdf="http://www.w3.org/1999/02/22-rdf-syntax-ns#" xmlns:rdfs="http://www.w3.org/2000/01/rdf-schema#" xmlns:dc="http://purl.org/dc/elements/1.1/">
   <rdf:Description dc:format="image/svg+xml" dc:identifier="" dc:title="" dc:description="" dc:date="2023-06-16T04:42:37">
    <dc:creator>
     <rdf:Bag>
      <rdf:li>Shivraj Jodha</rdf:li>
     </rdf:Bag>
    </dc:creator>
    <dc:publisher>
     <rdf:Bag>
      <rdf:li>QGIS 3.30.3-'s-Hertogenbosch</rdf:li>
     </rdf:Bag>
    </dc:publisher>
    <dc:subject>
     <rdf:Bag/>
    </dc:subject>
   </rdf:Description>
   <cc:Work rdf:about="">
    <dc:format>image/svg+xml</dc:format>
    <dc:title></dc:title>
    <dc:date>2023-06-16T04:42:37</dc:date>
    <dc:identifier></dc:identifier>
    <dc:description></dc:description>
    <dc:creator>
     <cc:Agent>
      <dc:title>Shivraj Jodha</dc:title>
     </cc:Agent>
    </dc:creator>
    <dc:publisher>
     <cc:Agent>
      <dc:title>QGIS 3.30.3-'s-Hertogenbosch</dc:title>
     </cc:Agent>
    </dc:publisher>
   </cc:Work>
  </rdf:RDF>
 </metadata>
</svg>
