<?xml version='1.0' encoding='UTF-8' standalone='no'?>
<svg xmlns:xlink="http://www.w3.org/1999/xlink" xmlns:inkscape="http://www.inkscape.org/namespaces/inkscape" viewBox="0 0 3507 2480" height="209.973mm" version="1.2" xmlns="http://www.w3.org/2000/svg" xmlns:cc="http://creativecommons.org/ns#" baseProfile="tiny" width="296.926mm">
 <defs/>
 <g inkscape:label="Page" fill-rule="evenodd" stroke-linecap="square" stroke-linejoin="bevel" id="Page" fill="none" stroke="black" stroke-width="1" inkscape:groupmode="layer">
  <g stroke-opacity="1" stroke-linecap="square" font-size="32.5" stroke-linejoin="bevel" transform="matrix(1,0,0,1,0,0)" font-weight="400" font-family="MS Shell Dlg 2" fill="none" stroke="#000000" font-style="normal" stroke-width="1"/>
  <g stroke-opacity="1" stroke-linecap="square" font-size="32.5" stroke-linejoin="bevel" transform="matrix(1,0,0,1,0,0)" font-weight="400" font-family="MS Shell Dlg 2" fill="none" stroke="#000000" font-style="normal" stroke-width="1"/>
  <g stroke-opacity="1" stroke-linecap="square" font-size="32.5" stroke-linejoin="bevel" transform="matrix(11.8081,0,0,11.8081,0,0)" font-weight="400" font-family="MS Shell Dlg 2" fill="none" stroke="#000000" font-style="normal" stroke-width="1"/>
  <g stroke-opacity="1" stroke-linecap="square" font-size="32.5" stroke-linejoin="bevel" transform="matrix(0.999751,0,0,0.999751,0,0)" font-weight="400" font-family="MS Shell Dlg 2" fill="none" stroke="#000000" font-style="normal" stroke-width="1"/>
  <g fill-opacity="1" font-size="32.5" transform="matrix(0.999751,0,0,0.999751,0,0)" font-weight="400" font-family="MS Shell Dlg 2" fill="#ffffff" stroke="none" font-style="normal">
   <path fill-rule="evenodd" vector-effect="none" d="M-2,-2 L3510,-2 L3510,2483 L-2,2483 L-2,-2"/>
  </g>
  <g stroke-opacity="1" stroke-linecap="square" font-size="32.5" stroke-linejoin="bevel" transform="matrix(0.999751,0,0,0.999751,0,0)" font-weight="400" font-family="MS Shell Dlg 2" fill="none" stroke="#000000" font-style="normal" stroke-width="1"/>
  <g stroke-opacity="1" stroke-linecap="square" font-size="32.5" stroke-linejoin="bevel" transform="matrix(11.8081,0,0,11.8081,0,0)" font-weight="400" font-family="MS Shell Dlg 2" fill="none" stroke="#000000" font-style="normal" stroke-width="1"/>
  <g stroke-opacity="1" stroke-linecap="square" font-size="32.5" stroke-linejoin="bevel" transform="matrix(11.8081,0,0,11.8081,0,0)" font-weight="400" font-family="MS Shell Dlg 2" fill="none" stroke="#000000" font-style="normal" stroke-width="1"/>
  <g stroke-opacity="1" stroke-linecap="square" font-size="32.5" stroke-linejoin="bevel" transform="matrix(1,0,0,1,0,0)" font-weight="400" font-family="MS Shell Dlg 2" fill="none" stroke="#000000" font-style="normal" stroke-width="1"/>
 </g>
 <defs/>
 <g inkscape:label="Map 1: Background" fill-rule="evenodd" stroke-linecap="square" stroke-linejoin="bevel" id="Map 1: Background" fill="none" stroke="black" stroke-width="1" inkscape:groupmode="layer">
  <g stroke-opacity="1" stroke-linecap="square" font-size="32.5" stroke-linejoin="bevel" transform="matrix(1,0,0,1,0,0)" font-weight="400" font-family="MS Shell Dlg 2" fill="none" stroke="#000000" font-style="normal" stroke-width="1"/>
  <g stroke-opacity="1" stroke-linecap="square" font-size="32.5" stroke-linejoin="bevel" transform="matrix(1,0,0,1,0,0)" font-weight="400" font-family="MS Shell Dlg 2" fill="none" stroke="#000000" font-style="normal" stroke-width="1"/>
  <g stroke-opacity="1" stroke-linecap="square" font-size="32.5" stroke-linejoin="bevel" transform="matrix(11.8081,0,0,11.8081,0,0)" font-weight="400" font-family="MS Shell Dlg 2" fill="none" stroke="#000000" font-style="normal" stroke-width="1"/>
  <g fill-opacity="1" font-size="32.5" transform="matrix(11.8081,0,0,11.8081,0,0)" font-weight="400" font-family="MS Shell Dlg 2" fill="#ffffff" stroke="none" font-style="normal">
   <path fill-rule="evenodd" vector-effect="none" d="M0,0 L297,0 L297,210 L0,210 L0,0"/>
  </g>
  <g stroke-opacity="1" stroke-linecap="square" font-size="32.5" stroke-linejoin="bevel" transform="matrix(11.8081,0,0,11.8081,0,0)" font-weight="400" font-family="MS Shell Dlg 2" fill="none" stroke="#000000" font-style="normal" stroke-width="1"/>
  <g stroke-opacity="1" stroke-linecap="square" font-size="32.5" stroke-linejoin="bevel" transform="matrix(11.8081,0,0,11.8081,0,0)" font-weight="400" font-family="MS Shell Dlg 2" fill="none" stroke="#000000" font-style="normal" stroke-width="1"/>
  <g stroke-opacity="1" stroke-linecap="square" font-size="32.5" stroke-linejoin="bevel" transform="matrix(11.8081,0,0,11.8081,0,0)" font-weight="400" font-family="MS Shell Dlg 2" fill="none" stroke="#000000" font-style="normal" stroke-width="1"/>
  <g stroke-opacity="1" stroke-linecap="square" font-size="32.5" stroke-linejoin="bevel" transform="matrix(11.8081,0,0,11.8081,0,0)" font-weight="400" font-family="MS Shell Dlg 2" fill="none" stroke="#000000" font-style="normal" stroke-width="1"/>
  <g stroke-opacity="1" stroke-linecap="square" font-size="32.5" stroke-linejoin="bevel" transform="matrix(1,0,0,1,0,0)" font-weight="400" font-family="MS Shell Dlg 2" fill="none" stroke="#000000" font-style="normal" stroke-width="1"/>
  <g stroke-opacity="1" stroke-linecap="square" font-size="32.5" stroke-linejoin="bevel" transform="matrix(11.8081,0,0,11.8081,0,0)" font-weight="400" font-family="MS Shell Dlg 2" fill="none" stroke="#000000" font-style="normal" stroke-width="1"/>
  <g stroke-opacity="1" stroke-linecap="square" font-size="32.5" stroke-linejoin="bevel" transform="matrix(11.8081,0,0,11.8081,0,0)" font-weight="400" font-family="MS Shell Dlg 2" fill="none" stroke="#000000" font-style="normal" stroke-width="1"/>
  <g stroke-opacity="1" stroke-linecap="square" font-size="32.5" stroke-linejoin="bevel" transform="matrix(1,0,0,1,0,0)" font-weight="400" font-family="MS Shell Dlg 2" fill="none" stroke="#000000" font-style="normal" stroke-width="1"/>
 </g>
 <defs/>
 <g inkscape:label="Map 1: DurlanProvinces" fill-rule="evenodd" stroke-linecap="square" stroke-linejoin="bevel" id="Map 1: DurlanProvinces" fill="none" stroke="black" stroke-width="1" inkscape:groupmode="layer">
  <g stroke-opacity="1" stroke-linecap="square" font-size="32.5" stroke-linejoin="bevel" transform="matrix(1,0,0,1,0,0)" font-weight="400" font-family="MS Shell Dlg 2" fill="none" stroke="#000000" font-style="normal" stroke-width="1"/>
  <g stroke-opacity="1" stroke-linecap="square" font-size="32.5" stroke-linejoin="bevel" transform="matrix(1,0,0,1,0,0)" font-weight="400" font-family="MS Shell Dlg 2" fill="none" stroke="#000000" font-style="normal" stroke-width="1"/>
  <g stroke-opacity="1" stroke-linecap="square" font-size="32.5" stroke-linejoin="bevel" transform="matrix(11.8081,0,0,11.8081,0,0)" font-weight="400" font-family="MS Shell Dlg 2" fill="none" stroke="#000000" font-style="normal" stroke-width="1"/>
  <g stroke-opacity="1" stroke-linecap="square" font-size="32.5" stroke-linejoin="bevel" transform="matrix(11.8081,0,0,11.8081,0,0)" font-weight="400" font-family="MS Shell Dlg 2" fill="none" stroke="#000000" font-style="normal" stroke-width="1"/>
  <g fill-opacity="0" font-size="32.5" transform="matrix(0.999751,0,0,0.999751,0,0)" font-weight="400" font-family="MS Shell Dlg 2" fill="#000000" stroke="none" font-style="normal">
   <rect y="0" height="2480" x="0" width="3508"/>
  </g>
  <g stroke-opacity="1" stroke-linecap="square" font-size="32.5" stroke-linejoin="bevel" transform="matrix(0.999751,0,0,0.999751,0,0)" font-weight="400" font-family="MS Shell Dlg 2" fill="none" stroke="#000000" font-style="normal" stroke-width="1"/>
  <g fill-opacity="1" stroke-opacity="1" stroke-linecap="square" font-size="32.5" stroke-linejoin="bevel" transform="matrix(0.999751,0,0,0.999751,0,0)" font-weight="400" font-family="MS Shell Dlg 2" fill="#a6d732" stroke="#232323" font-style="normal" stroke-width="2.95276">
   <path fill-rule="evenodd" vector-effect="none" d="M1332.79,644.692 L1297.23,628.283 L1289.03,610.507 L1315.01,566.75 L1315.01,558.546 L1271.25,550.342 L1263.05,532.565 L1271.25,498.38 L1315.01,498.38 L1297.23,428.643 L1315.01,410.867 L1323.22,394.458 L1245.27,376.682 L1253.48,332.925 L1237.07,280.964 L1245.27,272.76 L1237.07,246.779 L1253.48,238.575 L1263.05,238.575 L1271.25,229.003 L1263.05,185.246 L1271.25,168.837 L1279.46,168.837 L1289.03,168.837 L1315.01,168.837 L1340.99,151.061 L1349.2,133.285 L1366.97,125.081 L1392.95,142.857 L1401.16,151.061 L1401.16,159.266 L1401.16,185.246 L1418.93,194.818 L1418.93,220.799 L1454.49,238.575 L1454.49,254.984 L1427.14,272.76 L1418.93,290.536 L1427.14,306.945 L1444.91,324.721 L1454.49,358.906 L1444.91,368.478 L1470.89,394.458 L1488.67,394.458 L1506.45,410.867 L1522.86,420.439 L1540.63,428.643 L1558.41,420.439 L1584.39,394.458 L1602.16,394.458 L1610.37,402.663 L1618.57,420.439 L1644.55,428.643 L1662.33,420.439 L1688.31,436.848 L1696.51,436.848 L1714.29,446.419 L1723.86,454.624 L1749.84,472.4 L1749.84,480.604 L1766.25,488.809 L1775.82,488.809 L1801.8,506.585 L1827.79,498.38 L1835.99,498.38 L1853.77,498.38 L1887.95,462.828 L1905.73,446.419 L1913.93,446.419 L1931.71,454.624 L1939.91,488.809 L1957.69,498.38 L1957.69,532.565 L1983.67,540.77 L2001.44,532.565 L2001.44,506.585 L1983.67,488.809 L1983.67,462.828 L1975.46,446.419 L1975.46,420.439 L1993.24,402.663 L2009.65,410.867 L2045.2,394.458 L2061.61,384.886 L2061.61,376.682 L2087.59,358.906 L2087.59,350.701 L2105.37,316.516 L2097.16,306.945 L2113.57,298.74 L2131.35,280.964 L2131.35,254.984 L2140.92,246.779 L2140.92,229.003 L2157.33,220.799 L2183.31,229.003 L2201.08,220.799 L2209.29,229.003 L2218.86,229.003 L2244.84,238.575 L2253.05,264.555 L2270.82,272.76 L2279.03,272.76 L2296.8,280.964 L2322.78,264.555 L2348.76,280.964 L2366.54,272.76 L2382.95,290.536 L2400.72,290.536 L2418.5,280.964 L2426.71,272.76 L2444.48,272.76 L2452.69,280.964 L2488.24,272.76 L2514.22,272.76 L2548.4,272.76 L2574.38,272.76 L2574.38,324.721 L2592.16,324.721 L2609.94,358.906 L2566.18,402.663 L2566.18,420.439 L2600.36,446.419 L2618.14,472.4 L2574.38,488.809 L2548.4,550.342 L2557.98,550.342 L2557.98,584.527 L2504.65,592.731 L2496.44,584.527 L2470.46,602.303 L2478.67,636.488 L2452.69,654.264 L2426.71,654.264 L2408.93,662.468 L2392.52,662.468 L2356.97,628.283 L2330.99,654.264 L2296.8,654.264 L2270.82,688.449 L2253.05,680.244 L2235.27,696.653 L2227.07,740.41 L2209.29,749.982 L2201.08,775.962 L2192.88,784.167 L2157.33,792.371 L2123.14,749.982 L2105.37,749.982 L2071.18,792.371 L2035.63,784.167 L2035.63,792.371 L1983.67,792.371 L1975.46,818.352 L1931.71,810.147 L1913.93,827.923 L1879.75,836.128 L1871.54,844.332 L1835.99,844.332 L1818.21,844.332 L1792.23,836.128 L1784.03,810.147 L1775.82,801.943 L1732.07,784.167 L1723.86,792.371 L1670.53,818.352 L1644.55,801.943 L1636.35,792.371 L1610.37,801.943 L1592.59,801.943 L1576.18,784.167 L1566.61,775.962 L1558.41,758.186 L1532.43,749.982 L1514.65,758.186 L1462.69,740.41 L1410.73,732.206 L1392.95,740.41 L1366.97,724.001 L1358.77,714.429 L1358.77,688.449 L1332.79,644.692 M1792.23,584.527 L1818.21,610.507 L1835.99,602.303 L1844.19,566.75 L1844.19,558.546 L1835.99,550.342 L1810.01,550.342 L1784.03,584.527 L1792.23,584.527"/>
   <path fill-rule="evenodd" vector-effect="none" d="M2991.44,1607.34 L2983.24,1589.56 L3001.01,1563.58 L3001.01,1555.38 L2991.44,1529.4 L2983.24,1521.19 L2939.48,1521.19 L2947.68,1477.44 L2975.03,1477.44 L2983.24,1469.23 L3009.22,1477.44 L3035.2,1459.66 L3043.4,1443.25 L3052.97,1433.68 L3061.18,1407.7 L3052.97,1391.29 L3043.4,1381.72 L3035.2,1381.72 L3017.42,1365.31 L3001.01,1355.74 L2983.24,1347.53 L3001.01,1303.78 L2975.03,1277.8 L2975.03,1261.39 L2975.03,1225.84 L2965.46,1217.63 L2931.28,1209.43 L2931.28,1147.89 L2921.7,1121.91 L2939.48,1113.71 L2939.48,1061.75 L2869.74,1078.16 L2861.54,1061.75 L2895.72,1017.99 L2887.52,992.011 L2887.52,983.807 L2869.74,966.031 L2835.56,948.254 L2835.56,940.05 L2853.33,914.069 L2827.35,862.108 L2827.35,844.332 L2817.78,844.332 L2765.82,844.332 L2757.62,836.128 L2757.62,775.962 L2774.02,766.39 L2783.6,740.41 L2765.82,724.001 L2774.02,706.225 L2800.01,688.449 L2843.76,696.653 L2809.58,740.41 L2835.56,766.39 L2827.35,810.147 L2869.74,792.371 L2895.72,810.147 L2905.29,844.332 L2931.28,853.904 L2931.28,879.885 L2965.46,914.069 L3001.01,896.293 L3026.99,905.865 L3035.2,948.254 L3061.18,948.254 L3069.38,966.031 L3078.95,992.011 L3113.14,983.807 L3139.12,1009.79 L3174.67,1009.79 L3191.08,1043.97 L3226.63,1061.75 L3226.63,1104.14 L3278.59,1113.71 L3278.59,1156.1 L3296.37,1156.1 L3338.76,1165.67 L3338.76,1173.88 L3338.76,1217.63 L3400.29,1243.61 L3400.29,1277.8 L3400.29,1287.37 L3408.5,1313.35 L3460.46,1339.33 L3452.25,1365.31 L3444.05,1381.72 L3452.25,1399.5 L3452.25,1425.48 L3460.46,1451.46 L3478.23,1459.66 L3486.44,1477.44 L3460.46,1521.19 L3444.05,1511.62 L3426.27,1503.42 L3392.09,1511.62 L3392.09,1521.19 L3382.52,1537.6 L3392.09,1563.58 L3382.52,1573.16 L3364.74,1589.56 L3348.33,1581.36 L3322.35,1589.56 L3312.78,1589.56 L3304.57,1581.36 L3278.59,1599.14 L3278.59,1615.54 L3244.41,1625.12 L3234.84,1615.54 L3234.84,1599.14 L3244.41,1581.36 L3244.41,1555.38 L3252.61,1547.17 L3252.61,1529.4 L3244.41,1503.42 L3234.84,1503.42 L3208.86,1485.64 L3191.08,1495.21 L3174.67,1477.44 L3148.69,1495.21 L3139.12,1521.19 L3156.9,1537.6 L3174.67,1573.16 L3122.71,1589.56 L3113.14,1615.54 L3087.16,1625.12 L3052.97,1625.12 L3043.4,1641.53 L3017.42,1651.1 L2991.44,1651.1 L2983.24,1651.1 L2991.44,1607.34"/>
   <path fill-rule="evenodd" vector-effect="none" d="M133.579,1329.76 L107.598,1295.57 L55.6371,1235.41 L63.8415,1225.84 L37.8609,1183.45 L37.8609,1165.67 L46.0653,1113.71 L55.6371,1104.14 L98.0264,1113.71 L107.598,1104.14 L159.559,1095.93 L159.559,1052.18 L211.52,1043.97 L211.52,1000.22 L203.316,992.011 L203.316,966.031 L211.52,931.846 L175.968,905.865 L175.968,896.293 L219.725,879.885 L229.297,836.128 L219.725,827.923 L237.501,792.371 L255.277,784.167 L255.277,732.206 L263.482,732.206 L315.443,740.41 L315.443,732.206 L359.199,732.206 L367.404,706.225 L402.956,696.653 L419.365,680.244 L463.122,706.225 L472.693,696.653 L515.083,706.225 L515.083,644.692 L541.063,636.488 L524.655,584.527 L532.859,566.75 L550.635,540.77 L567.044,540.77 L584.82,532.565 L646.353,532.565 L672.334,540.77 L698.314,524.361 L732.499,532.565 L740.704,550.342 L758.48,558.546 L768.051,610.507 L758.48,628.283 L732.499,636.488 L740.704,670.673 L758.48,696.653 L724.295,732.206 L740.704,758.186 L732.499,775.962 L714.723,784.167 L706.519,792.371 L698.314,836.128 L688.742,896.293 L636.781,888.089 L628.577,896.293 L620.372,931.846 L593.025,940.05 L558.84,957.826 L576.616,983.807 L558.84,1009.79 L593.025,1061.75 L584.82,1078.16 L541.063,1069.95 L515.083,1113.71 L480.898,1121.91 L472.693,1121.91 L472.693,1147.89 L489.102,1173.88 L498.674,1199.86 L437.141,1217.63 L445.346,1243.61 L411.161,1269.59 L402.956,1303.78 L385.18,1313.35 L359.199,1303.78 L333.219,1313.35 L315.443,1329.76 L315.443,1365.31 L255.277,1365.31 L219.725,1407.7 L211.52,1407.7 L203.316,1391.29 L175.968,1365.31 L167.764,1329.76 L133.579,1329.76"/>
   <path fill-rule="evenodd" vector-effect="none" d="M845.993,1407.7 L854.198,1365.31 L845.993,1339.33 L897.954,1303.78 L889.75,1295.57 L854.198,1277.8 L836.421,1251.82 L836.421,1243.61 L880.178,1217.63 L889.75,1191.65 L880.178,1183.45 L897.954,1147.89 L932.139,1147.89 L932.139,1121.91 L906.159,1095.93 L906.159,1087.73 L923.935,1069.95 L941.711,1043.97 L975.896,1035.77 L1027.86,992.011 L1037.43,992.011 L1037.43,1043.97 L1053.84,1052.18 L1089.39,1052.18 L1089.39,1095.93 L1037.43,1113.71 L1053.84,1156.1 L1063.41,1156.1 L1063.41,1209.43 L1115.37,1209.43 L1123.57,1199.86 L1141.35,1199.86 L1159.13,1217.63 L1159.13,1251.82 L1149.56,1261.39 L1123.57,1313.35 L1159.13,1329.76 L1201.52,1303.78 L1227.5,1313.35 L1237.07,1313.35 L1253.48,1321.55 L1297.23,1365.31 L1289.03,1373.52 L1263.05,1407.7 L1271.25,1433.68 L1271.25,1469.23 L1245.27,1469.23 L1227.5,1469.23 L1193.31,1495.21 L1167.33,1495.21 L1149.56,1469.23 L1123.57,1469.23 L1105.8,1495.21 L1063.41,1477.44 L1045.63,1511.62 L1001.88,1511.62 L975.896,1529.4 L949.915,1529.4 L932.139,1511.62 L923.935,1477.44 L923.935,1469.23 L862.402,1417.27 L862.402,1425.48 L854.198,1407.7 L845.993,1407.7"/>
   <path fill-rule="evenodd" vector-effect="none" d="M1688.31,1988.84 L1696.51,1945.09 L1696.51,1936.88 L1706.09,1902.7 L1680.11,1867.15 L1680.11,1858.94 L1706.09,1841.17 L1706.09,1832.96 L1758.05,1789.2 L1758.05,1781 L1801.8,1729.04 L1827.79,1746.81 L1835.99,1737.24 L1861.97,1694.85 L1887.95,1685.28 L1897.52,1677.08 L1939.91,1694.85 L1939.91,1685.28 L1957.69,1641.53 L1975.46,1633.32 L1983.67,1641.53 L2027.43,1641.53 L2035.63,1694.85 L2045.2,1694.85 L2087.59,1677.08 L2097.16,1685.28 L2087.59,1729.04 L2079.39,1746.81 L2105.37,1789.2 L2087.59,1798.78 L2087.59,1832.96 L2097.16,1841.17 L2113.57,1876.72 L2105.37,1902.7 L2071.18,1902.7 L2053.41,1928.68 L2027.43,1945.09 L2019.22,1936.88 L2009.65,1936.88 L2009.65,1945.09 L1993.24,1962.86 L1983.67,1962.86 L1949.48,1988.84 L1939.91,1988.84 L1923.5,2014.82 L1913.93,2014.82 L1905.73,2049.01 L1887.95,2032.6 L1861.97,2049.01 L1853.77,2049.01 L1827.79,2049.01 L1818.21,2040.81 L1810.01,2049.01 L1784.03,2032.6 L1766.25,2049.01 L1732.07,2032.6 L1732.07,2023.03 L1706.09,2006.62 L1688.31,1988.84"/>
   <path fill-rule="evenodd" vector-effect="none" d="M810.441,428.643 L820.013,420.439 L802.236,368.478 L802.236,358.906 L802.236,350.701 L820.013,306.945 L802.236,298.74 L836.421,246.779 L836.421,229.003 L828.217,229.003 L820.013,168.837 L828.217,159.266 L845.993,168.837 L862.402,151.061 L880.178,159.266 L889.75,168.837 L915.73,177.042 L941.711,185.246 L967.692,177.042 L975.896,177.042 L993.672,168.837 L1027.86,151.061 L1045.63,159.266 L1053.84,159.266 L1079.82,168.837 L1089.39,168.837 L1105.8,177.042 L1115.37,168.837 L1123.57,177.042 L1141.35,177.042 L1175.54,203.022 L1167.33,220.799 L1131.78,229.003 L1105.8,229.003 L1105.8,238.575 L1089.39,238.575 L1071.61,254.984 L1053.84,254.984 L1045.63,280.964 L1053.84,316.516 L1063.41,316.516 L1079.82,316.516 L1097.59,290.536 L1105.8,272.76 L1149.56,272.76 L1167.33,280.964 L1185.11,332.925 L1185.11,358.906 L1167.33,368.478 L1149.56,428.643 L1141.35,428.643 L1149.56,480.604 L1105.8,498.38 L1115.37,540.77 L1045.63,532.565 L1063.41,592.731 L1053.84,602.303 L1001.88,592.731 L949.915,576.322 L941.711,540.77 L897.954,540.77 L897.954,550.342 L845.993,514.789 L845.993,480.604 L845.993,472.4 L810.441,428.643"/>
   <path fill-rule="evenodd" vector-effect="none" d="M776.256,2170.71 L750.275,2126.95 L776.256,2118.75 L784.46,2100.97 L784.46,2084.56 L802.236,2074.99 L810.441,2058.58 L836.421,2049.01 L836.421,2006.62 L820.013,2006.62 L820.013,1971.07 L784.46,1945.09 L784.46,1936.88 L784.46,1928.68 L776.256,1893.13 L776.256,1884.92 L836.421,1867.15 L845.993,1841.17 L836.421,1832.96 L828.217,1789.2 L845.993,1737.24 L836.421,1720.83 L845.993,1703.06 L889.75,1694.85 L897.954,1677.08 L941.711,1685.28 L958.12,1720.83 L984.1,1729.04 L984.1,1772.8 L941.711,1789.2 L949.915,1824.76 L993.672,1841.17 L984.1,1867.15 L958.12,1884.92 L949.915,1902.7 L949.915,1936.88 L984.1,1945.09 L993.672,1980.64 L1001.88,2006.62 L1045.63,2006.62 L1053.84,2032.6 L1071.61,2049.01 L1071.61,2074.99 L1053.84,2084.56 L1045.63,2084.56 L1010.08,2084.56 L975.896,2092.77 L958.12,2126.95 L958.12,2144.73 L949.915,2162.5 L923.935,2154.3 L915.73,2136.52 L889.75,2136.52 L880.178,2118.75 L845.993,2110.54 L836.421,2136.52 L836.421,2162.5 L820.013,2214.47 L794.032,2214.47 L776.256,2206.26 L768.051,2180.28 L776.256,2170.71"/>
   <path fill-rule="evenodd" vector-effect="none" d="M1871.54,1391.29 L1827.79,1365.31 L1827.79,1347.53 L1818.21,1339.33 L1784.03,1329.76 L1766.25,1313.35 L1801.8,1261.39 L1766.25,1225.84 L1766.25,1217.63 L1732.07,1199.86 L1732.07,1191.65 L1732.07,1165.67 L1784.03,1130.12 L1784.03,1104.14 L1853.77,1104.14 L1853.77,1095.93 L1853.77,1061.75 L1905.73,1061.75 L1905.73,1052.18 L1939.91,1026.2 L1939.91,1017.99 L1975.46,1009.79 L1983.67,1009.79 L2001.44,1061.75 L2027.43,1052.18 L2045.2,1087.73 L2087.59,1087.73 L2087.59,1104.14 L2087.59,1113.71 L2061.61,1139.69 L2045.2,1147.89 L2045.2,1199.86 L2027.43,1199.86 L2001.44,1217.63 L2001.44,1225.84 L1983.67,1243.61 L1983.67,1251.82 L1975.46,1251.82 L1949.48,1261.39 L1939.91,1277.8 L1965.89,1313.35 L1983.67,1313.35 L1993.24,1329.76 L2001.44,1355.74 L1965.89,1391.29 L1949.48,1381.72 L1939.91,1391.29 L1931.71,1399.5 L1913.93,1417.27 L1897.52,1433.68 L1871.54,1407.7 L1871.54,1391.29"/>
   <path fill-rule="evenodd" vector-effect="none" d="M2574.38,1659.3 L2574.38,1641.53 L2530.63,1607.34 L2548.4,1589.56 L2522.42,1555.38 L2557.98,1521.19 L2557.98,1503.42 L2566.18,1495.21 L2574.38,1433.68 L2566.18,1425.48 L2566.18,1391.29 L2557.98,1373.52 L2557.98,1355.74 L2600.36,1313.35 L2626.35,1329.76 L2644.12,1329.76 L2678.31,1321.55 L2713.86,1339.33 L2722.06,1365.31 L2757.62,1373.52 L2774.02,1417.27 L2791.8,1433.68 L2809.58,1425.48 L2817.78,1433.68 L2827.35,1485.64 L2835.56,1485.64 L2843.76,1485.64 L2887.52,1521.19 L2869.74,1547.17 L2869.74,1563.58 L2827.35,1581.36 L2827.35,1633.32 L2791.8,1633.32 L2774.02,1651.1 L2765.82,1677.08 L2722.06,1685.28 L2696.08,1677.08 L2678.31,1677.08 L2670.1,1703.06 L2618.14,1694.85 L2609.94,1685.28 L2574.38,1659.3"/>
   <path fill-rule="evenodd" vector-effect="none" d="M532.859,1902.7 L506.878,1884.92 L489.102,1893.13 L437.141,1884.92 L437.141,1841.17 L419.365,1815.18 L419.365,1798.78 L411.161,1789.2 L454.917,1729.04 L419.365,1711.26 L419.365,1703.06 L472.693,1651.1 L515.083,1633.32 L524.655,1615.54 L576.616,1625.12 L610.801,1633.32 L628.577,1589.56 L680.538,1599.14 L680.538,1607.34 L680.538,1615.54 L698.314,1677.08 L714.723,1677.08 L714.723,1737.24 L732.499,1746.81 L732.499,1755.02 L680.538,1806.98 L680.538,1815.18 L672.334,1841.17 L688.742,1884.92 L662.762,1910.9 L714.723,1936.88 L714.723,1945.09 L680.538,1962.86 L662.762,1980.64 L646.353,1980.64 L620.372,1954.66 L584.82,1971.07 L567.044,1945.09 L532.859,1919.11 L532.859,1902.7"/>
   <path fill-rule="evenodd" vector-effect="none" d="M1141.35,1954.66 L1105.8,1919.11 L1105.8,1902.7 L1071.61,1867.15 L1053.84,1867.15 L1053.84,1858.94 L1105.8,1824.76 L1089.39,1789.2 L1097.59,1772.8 L1115.37,1763.22 L1149.56,1737.24 L1193.31,1720.83 L1219.29,1729.04 L1237.07,1720.83 L1253.48,1694.85 L1279.46,1677.08 L1306.81,1729.04 L1323.22,1746.81 L1358.77,1737.24 L1366.97,1746.81 L1349.2,1806.98 L1358.77,1815.18 L1384.75,1824.76 L1384.75,1832.96 L1358.77,1876.72 L1366.97,1884.92 L1366.97,1919.11 L1375.18,1919.11 L1349.2,1971.07 L1349.2,1980.64 L1340.99,1997.05 L1323.22,1997.05 L1306.81,2006.62 L1279.46,1997.05 L1263.05,2006.62 L1245.27,1997.05 L1253.48,1954.66 L1227.5,1936.88 L1211.09,1954.66 L1149.56,1962.86 L1149.56,1954.66 L1141.35,1954.66"/>
   <path fill-rule="evenodd" vector-effect="none" d="M2183.31,1503.42 L2183.31,1495.21 L2201.08,1469.23 L2201.08,1417.27 L2149.12,1425.48 L2131.35,1407.7 L2131.35,1391.29 L2113.57,1365.31 L2113.57,1329.76 L2131.35,1321.55 L2157.33,1321.55 L2166.9,1321.55 L2183.31,1295.57 L2183.31,1261.39 L2192.88,1251.82 L2209.29,1235.41 L2235.27,1225.84 L2270.82,1209.43 L2296.8,1199.86 L2314.58,1191.65 L2330.99,1199.86 L2348.76,1199.86 L2356.97,1199.86 L2356.97,1217.63 L2400.72,1225.84 L2408.93,1243.61 L2408.93,1261.39 L2408.93,1269.59 L2408.93,1295.57 L2400.72,1321.55 L2400.72,1365.31 L2400.72,1373.52 L2366.54,1373.52 L2356.97,1399.5 L2366.54,1443.25 L2348.76,1459.66 L2366.54,1485.64 L2356.97,1521.19 L2348.76,1521.19 L2322.78,1503.42 L2305.01,1547.17 L2261.25,1547.17 L2253.05,1529.4 L2227.07,1537.6 L2183.31,1503.42"/>
   <path fill-rule="evenodd" vector-effect="none" d="M1366.97,1095.93 L1349.2,1087.73 L1332.79,1061.75 L1340.99,1026.2 L1332.79,1017.99 L1315.01,1009.79 L1306.81,966.031 L1340.99,957.826 L1340.99,940.05 L1410.73,948.254 L1436.71,957.826 L1462.69,1000.22 L1514.65,1000.22 L1522.86,1009.79 L1548.84,1009.79 L1584.39,1017.99 L1592.59,1043.97 L1636.35,1061.75 L1618.57,1095.93 L1610.37,1104.14 L1618.57,1139.69 L1584.39,1165.67 L1566.61,1156.1 L1522.86,1156.1 L1506.45,1121.91 L1454.49,1139.69 L1444.91,1121.91 L1436.71,1113.71 L1375.18,1121.91 L1366.97,1095.93"/>
   <path fill-rule="evenodd" vector-effect="none" d="M1680.11,1615.54 L1680.11,1599.14 L1628.14,1589.56 L1636.35,1547.17 L1592.59,1529.4 L1584.39,1495.21 L1592.59,1477.44 L1610.37,1477.44 L1644.55,1443.25 L1670.53,1433.68 L1688.31,1485.64 L1732.07,1477.44 L1740.27,1477.44 L1740.27,1495.21 L1792.23,1521.19 L1801.8,1521.19 L1775.82,1555.38 L1732.07,1563.58 L1749.84,1615.54 L1732.07,1625.12 L1680.11,1615.54"/>
   <path fill-rule="evenodd" vector-effect="none" d="M2470.46,2058.58 L2436.28,2040.81 L2426.71,2049.01 L2400.72,2032.6 L2356.97,2006.62 L2348.76,1980.64 L2374.74,1936.88 L2348.76,1910.9 L2348.76,1902.7 L2356.97,1876.72 L2426.71,1884.92 L2462.26,1884.92 L2470.46,1893.13 L2504.65,1893.13 L2504.65,1928.68 L2504.65,1936.88 L2522.42,1954.66 L2530.63,1971.07 L2514.22,2006.62 L2496.44,2006.62 L2496.44,2049.01 L2470.46,2058.58"/>
   <path fill-rule="evenodd" vector-effect="none" d="M1444.91,1615.54 L1427.14,1633.32 L1410.73,1625.12 L1392.95,1573.16 L1366.97,1573.16 L1375.18,1511.62 L1436.71,1521.19 L1418.93,1485.64 L1470.89,1443.25 L1470.89,1451.46 L1470.89,1511.62 L1506.45,1521.19 L1514.65,1521.19 L1540.63,1581.36 L1522.86,1599.14 L1480.47,1633.32 L1444.91,1615.54"/>
   <path fill-rule="evenodd" vector-effect="none" d="M2478.67,1052.18 L2470.46,1061.75 L2452.69,1009.79 L2514.22,974.235 L2462.26,957.826 L2452.69,948.254 L2462.26,905.865 L2478.67,888.089 L2496.44,896.293 L2514.22,888.089 L2548.4,888.089 L2566.18,905.865 L2557.98,940.05 L2609.94,948.254 L2618.14,948.254 L2600.36,1009.79 L2592.16,1069.95 L2548.4,1069.95 L2530.63,1078.16 L2478.67,1052.18"/>
   <path fill-rule="evenodd" vector-effect="none" d="M211.52,1581.36 L203.316,1573.16 L245.705,1529.4 L281.258,1477.44 L323.647,1503.42 L323.647,1529.4 L359.199,1537.6 L393.384,1573.16 L393.384,1581.36 L323.647,1581.36 L333.219,1633.32 L263.482,1625.12 L219.725,1625.12 L211.52,1581.36"/>
   <path fill-rule="evenodd" vector-effect="none" d="M2817.78,1165.67 L2757.62,1173.88 L2757.62,1209.43 L2705.65,1199.86 L2696.08,1173.88 L2661.9,1165.67 L2670.1,1121.91 L2652.33,1095.93 L2705.65,1052.18 L2713.86,1052.18 L2757.62,1052.18 L2765.82,1052.18 L2809.58,1061.75 L2800.01,1121.91 L2800.01,1130.12 L2817.78,1165.67"/>
  </g>
  <g stroke-opacity="1" stroke-linecap="square" font-size="32.5" stroke-linejoin="bevel" transform="matrix(0.999751,0,0,0.999751,0,0)" font-weight="400" font-family="MS Shell Dlg 2" fill="none" stroke="#000000" font-style="normal" stroke-width="1"/>
  <g stroke-opacity="1" stroke-linecap="square" font-size="32.5" stroke-linejoin="bevel" transform="matrix(11.8081,0,0,11.8081,0,0)" font-weight="400" font-family="MS Shell Dlg 2" fill="none" stroke="#000000" font-style="normal" stroke-width="1"/>
  <g stroke-opacity="1" stroke-linecap="square" font-size="32.5" stroke-linejoin="bevel" transform="matrix(11.8081,0,0,11.8081,0,0)" font-weight="400" font-family="MS Shell Dlg 2" fill="none" stroke="#000000" font-style="normal" stroke-width="1"/>
  <g stroke-opacity="1" stroke-linecap="square" font-size="32.5" stroke-linejoin="bevel" transform="matrix(11.8081,0,0,11.8081,0,0)" font-weight="400" font-family="MS Shell Dlg 2" fill="none" stroke="#000000" font-style="normal" stroke-width="1"/>
  <g stroke-opacity="1" stroke-linecap="square" font-size="32.5" stroke-linejoin="bevel" transform="matrix(1,0,0,1,0,0)" font-weight="400" font-family="MS Shell Dlg 2" fill="none" stroke="#000000" font-style="normal" stroke-width="1"/>
  <g stroke-opacity="1" stroke-linecap="square" font-size="32.5" stroke-linejoin="bevel" transform="matrix(11.8081,0,0,11.8081,0,0)" font-weight="400" font-family="MS Shell Dlg 2" fill="none" stroke="#000000" font-style="normal" stroke-width="1"/>
  <g stroke-opacity="1" stroke-linecap="square" font-size="32.5" stroke-linejoin="bevel" transform="matrix(11.8081,0,0,11.8081,0,0)" font-weight="400" font-family="MS Shell Dlg 2" fill="none" stroke="#000000" font-style="normal" stroke-width="1"/>
  <g stroke-opacity="1" stroke-linecap="square" font-size="32.5" stroke-linejoin="bevel" transform="matrix(1,0,0,1,0,0)" font-weight="400" font-family="MS Shell Dlg 2" fill="none" stroke="#000000" font-style="normal" stroke-width="1"/>
 </g>
 <metadata>
  <rdf:RDF xmlns:rdf="http://www.w3.org/1999/02/22-rdf-syntax-ns#" xmlns:rdfs="http://www.w3.org/2000/01/rdf-schema#" xmlns:dc="http://purl.org/dc/elements/1.1/">
   <rdf:Description dc:format="image/svg+xml" dc:identifier="" dc:title="" dc:description="" dc:date="2023-06-16T04:42:37">
    <dc:creator>
     <rdf:Bag>
      <rdf:li>Shivraj Jodha</rdf:li>
     </rdf:Bag>
    </dc:creator>
    <dc:publisher>
     <rdf:Bag>
      <rdf:li>QGIS 3.30.3-'s-Hertogenbosch</rdf:li>
     </rdf:Bag>
    </dc:publisher>
    <dc:subject>
     <rdf:Bag/>
    </dc:subject>
   </rdf:Description>
   <cc:Work rdf:about="">
    <dc:format>image/svg+xml</dc:format>
    <dc:title></dc:title>
    <dc:date>2023-06-16T04:42:37</dc:date>
    <dc:identifier></dc:identifier>
    <dc:description></dc:description>
    <dc:creator>
     <cc:Agent>
      <dc:title>Shivraj Jodha</dc:title>
     </cc:Agent>
    </dc:creator>
    <dc:publisher>
     <cc:Agent>
      <dc:title>QGIS 3.30.3-'s-Hertogenbosch</dc:title>
     </cc:Agent>
    </dc:publisher>
   </cc:Work>
  </rdf:RDF>
 </metadata>
</svg>
