<?xml version='1.0' encoding='UTF-8' standalone='no'?>
<svg height="209.973mm" width="296.926mm" viewBox="0 0 3507 2480" xmlns:xlink="http://www.w3.org/1999/xlink" xmlns:inkscape="http://www.inkscape.org/namespaces/inkscape" xmlns="http://www.w3.org/2000/svg" version="1.2" baseProfile="tiny">
 <defs/>
 <g stroke-linejoin="bevel" inkscape:label="Page" inkscape:groupmode="layer" fill="none" stroke="black" fill-rule="evenodd" stroke-width="1" stroke-linecap="square" id="Page">
  <g stroke-linejoin="bevel" transform="matrix(1,0,0,1,0,0)" font-weight="400" font-style="normal" fill="none" stroke="#000000" stroke-width="1" stroke-linecap="square" font-size="32.5" font-family="MS Shell Dlg 2" stroke-opacity="1"/>
  <g stroke-linejoin="bevel" transform="matrix(1,0,0,1,0,0)" font-weight="400" font-style="normal" fill="none" stroke="#000000" stroke-width="1" stroke-linecap="square" font-size="32.5" font-family="MS Shell Dlg 2" stroke-opacity="1"/>
  <g stroke-linejoin="bevel" transform="matrix(11.8081,0,0,11.8081,0,0)" font-weight="400" font-style="normal" fill="none" stroke="#000000" stroke-width="1" stroke-linecap="square" font-size="32.5" font-family="MS Shell Dlg 2" stroke-opacity="1"/>
  <g stroke-linejoin="bevel" transform="matrix(0.999751,0,0,0.999751,0,0)" font-weight="400" font-style="normal" fill="none" stroke="#000000" stroke-width="1" stroke-linecap="square" font-size="32.5" font-family="MS Shell Dlg 2" stroke-opacity="1"/>
  <g transform="matrix(0.999751,0,0,0.999751,0,0)" font-weight="400" font-style="normal" fill="#ffffff" stroke="none" fill-opacity="1" font-size="32.5" font-family="MS Shell Dlg 2">
   <path fill-rule="evenodd" d="M-2,-2 L3510,-2 L3510,2483 L-2,2483 L-2,-2" vector-effect="none"/>
  </g>
  <g stroke-linejoin="bevel" transform="matrix(0.999751,0,0,0.999751,0,0)" font-weight="400" font-style="normal" fill="none" stroke="#000000" stroke-width="1" stroke-linecap="square" font-size="32.5" font-family="MS Shell Dlg 2" stroke-opacity="1"/>
  <g stroke-linejoin="bevel" transform="matrix(11.8081,0,0,11.8081,0,0)" font-weight="400" font-style="normal" fill="none" stroke="#000000" stroke-width="1" stroke-linecap="square" font-size="32.5" font-family="MS Shell Dlg 2" stroke-opacity="1"/>
  <g stroke-linejoin="bevel" transform="matrix(11.8081,0,0,11.8081,0,0)" font-weight="400" font-style="normal" fill="none" stroke="#000000" stroke-width="1" stroke-linecap="square" font-size="32.5" font-family="MS Shell Dlg 2" stroke-opacity="1"/>
  <g stroke-linejoin="bevel" transform="matrix(1,0,0,1,0,0)" font-weight="400" font-style="normal" fill="none" stroke="#000000" stroke-width="1" stroke-linecap="square" font-size="32.5" font-family="MS Shell Dlg 2" stroke-opacity="1"/>
 </g>
 <defs/>
 <g stroke-linejoin="bevel" inkscape:label="Map 1: Background" inkscape:groupmode="layer" fill="none" stroke="black" fill-rule="evenodd" stroke-width="1" stroke-linecap="square" id="Map 1: Background">
  <g stroke-linejoin="bevel" transform="matrix(1,0,0,1,0,0)" font-weight="400" font-style="normal" fill="none" stroke="#000000" stroke-width="1" stroke-linecap="square" font-size="32.5" font-family="MS Shell Dlg 2" stroke-opacity="1"/>
  <g stroke-linejoin="bevel" transform="matrix(1,0,0,1,0,0)" font-weight="400" font-style="normal" fill="none" stroke="#000000" stroke-width="1" stroke-linecap="square" font-size="32.5" font-family="MS Shell Dlg 2" stroke-opacity="1"/>
  <g stroke-linejoin="bevel" transform="matrix(11.8081,0,0,11.8081,0,0)" font-weight="400" font-style="normal" fill="none" stroke="#000000" stroke-width="1" stroke-linecap="square" font-size="32.5" font-family="MS Shell Dlg 2" stroke-opacity="1"/>
  <g transform="matrix(11.8081,0,0,11.8081,0,0)" font-weight="400" font-style="normal" fill="#ffffff" stroke="none" fill-opacity="1" font-size="32.5" font-family="MS Shell Dlg 2">
   <path fill-rule="evenodd" d="M0,0 L297,0 L297,210 L0,210 L0,0" vector-effect="none"/>
  </g>
  <g stroke-linejoin="bevel" transform="matrix(11.8081,0,0,11.8081,0,0)" font-weight="400" font-style="normal" fill="none" stroke="#000000" stroke-width="1" stroke-linecap="square" font-size="32.5" font-family="MS Shell Dlg 2" stroke-opacity="1"/>
  <g stroke-linejoin="bevel" transform="matrix(11.8081,0,0,11.8081,0,0)" font-weight="400" font-style="normal" fill="none" stroke="#000000" stroke-width="1" stroke-linecap="square" font-size="32.5" font-family="MS Shell Dlg 2" stroke-opacity="1"/>
  <g stroke-linejoin="bevel" transform="matrix(11.8081,0,0,11.8081,0,0)" font-weight="400" font-style="normal" fill="none" stroke="#000000" stroke-width="1" stroke-linecap="square" font-size="32.5" font-family="MS Shell Dlg 2" stroke-opacity="1"/>
  <g stroke-linejoin="bevel" transform="matrix(11.8081,0,0,11.8081,0,0)" font-weight="400" font-style="normal" fill="none" stroke="#000000" stroke-width="1" stroke-linecap="square" font-size="32.5" font-family="MS Shell Dlg 2" stroke-opacity="1"/>
  <g stroke-linejoin="bevel" transform="matrix(1,0,0,1,0,0)" font-weight="400" font-style="normal" fill="none" stroke="#000000" stroke-width="1" stroke-linecap="square" font-size="32.5" font-family="MS Shell Dlg 2" stroke-opacity="1"/>
  <g stroke-linejoin="bevel" transform="matrix(11.8081,0,0,11.8081,0,0)" font-weight="400" font-style="normal" fill="none" stroke="#000000" stroke-width="1" stroke-linecap="square" font-size="32.5" font-family="MS Shell Dlg 2" stroke-opacity="1"/>
  <g stroke-linejoin="bevel" transform="matrix(11.8081,0,0,11.8081,0,0)" font-weight="400" font-style="normal" fill="none" stroke="#000000" stroke-width="1" stroke-linecap="square" font-size="32.5" font-family="MS Shell Dlg 2" stroke-opacity="1"/>
  <g stroke-linejoin="bevel" transform="matrix(1,0,0,1,0,0)" font-weight="400" font-style="normal" fill="none" stroke="#000000" stroke-width="1" stroke-linecap="square" font-size="32.5" font-family="MS Shell Dlg 2" stroke-opacity="1"/>
 </g>
 <defs/>
 <g stroke-linejoin="bevel" inkscape:label="Map 1: EdomProvinces" inkscape:groupmode="layer" fill="none" stroke="black" fill-rule="evenodd" stroke-width="1" stroke-linecap="square" id="Map 1: EdomProvinces">
  <g stroke-linejoin="bevel" transform="matrix(1,0,0,1,0,0)" font-weight="400" font-style="normal" fill="none" stroke="#000000" stroke-width="1" stroke-linecap="square" font-size="32.5" font-family="MS Shell Dlg 2" stroke-opacity="1"/>
  <g stroke-linejoin="bevel" transform="matrix(1,0,0,1,0,0)" font-weight="400" font-style="normal" fill="none" stroke="#000000" stroke-width="1" stroke-linecap="square" font-size="32.5" font-family="MS Shell Dlg 2" stroke-opacity="1"/>
  <g stroke-linejoin="bevel" transform="matrix(11.8081,0,0,11.8081,0,0)" font-weight="400" font-style="normal" fill="none" stroke="#000000" stroke-width="1" stroke-linecap="square" font-size="32.5" font-family="MS Shell Dlg 2" stroke-opacity="1"/>
  <g stroke-linejoin="bevel" transform="matrix(11.8081,0,0,11.8081,0,0)" font-weight="400" font-style="normal" fill="none" stroke="#000000" stroke-width="1" stroke-linecap="square" font-size="32.5" font-family="MS Shell Dlg 2" stroke-opacity="1"/>
  <g transform="matrix(0.999751,0,0,0.999751,0,0)" font-weight="400" font-style="normal" fill="#000000" stroke="none" fill-opacity="0" font-size="32.5" font-family="MS Shell Dlg 2">
   <rect height="2480" x="0" width="3508" y="0"/>
  </g>
  <g stroke-linejoin="bevel" transform="matrix(0.999751,0,0,0.999751,0,0)" font-weight="400" font-style="normal" fill="none" stroke="#000000" stroke-width="1" stroke-linecap="square" font-size="32.5" font-family="MS Shell Dlg 2" stroke-opacity="1"/>
  <g stroke-linejoin="bevel" transform="matrix(0.999751,0,0,0.999751,0,0)" font-weight="400" font-style="normal" fill="#cf8448" stroke="#232323" fill-opacity="1" stroke-width="2.95276" stroke-linecap="square" font-size="32.5" font-family="MS Shell Dlg 2" stroke-opacity="1">
   <path fill-rule="evenodd" d="M1489.28,292.016 L1458.61,292.016 L1427.93,313.003 L1408.56,313.003 L1397.26,292.016 L1408.56,272.644 L1439.23,261.343 L1439.23,241.97 L1469.91,241.97 L1479.59,211.297 L1479.59,190.31 L1479.59,180.624 L1489.28,169.323 L1489.28,159.636 L1510.27,138.649 L1540.94,138.649 L1550.63,138.649 L1561.93,169.323 L1582.92,180.624 L1582.92,190.31 L1613.59,199.996 L1632.96,199.996 L1663.63,169.323 L1663.63,138.649 L1663.63,119.277 L1663.63,98.2897 L1674.94,88.6034 L1724.98,57.93 L1745.97,57.93 L1745.97,67.6164 L1787.94,77.3027 L1797.63,119.277 L1807.32,119.277 L1837.99,128.963 L1889.65,119.277 L1900.95,128.963 L1931.62,128.963 L1941.31,138.649 L1971.98,149.95 L1992.97,138.649 L2012.34,138.649 L2033.33,128.963 L2043.02,138.649 L2054.32,128.963 L2084.99,138.649 L2084.99,180.624 L2105.98,211.297 L2136.65,220.983 L2146.34,241.97 L2186.7,251.657 L2198,251.657 L2218.98,272.644 L2228.67,282.33 L2249.66,313.003 L2259.34,313.003 L2290.02,322.69 L2299.7,322.69 L2299.7,333.99 L2330.38,343.677 L2341.68,374.35 L2361.05,374.35 L2393.34,343.677 L2412.71,313.003 L2433.7,313.003 L2433.7,322.69 L2454.68,343.677 L2474.06,343.677 L2485.36,364.664 L2495.04,374.35 L2546.7,364.664 L2546.7,354.977 L2577.38,364.664 L2587.06,364.664 L2617.74,364.664 L2629.04,374.35 L2638.73,405.024 L2648.41,426.011 L2648.41,435.697 L2669.4,446.998 L2700.07,487.357 L2690.39,508.344 L2711.37,527.717 L2690.39,569.691 L2711.37,600.364 L2700.07,631.038 L2721.06,661.711 L2700.07,692.385 L2721.06,702.071 L2742.05,702.071 L2761.42,723.058 L2761.42,732.744 L2730.75,753.731 L2721.06,753.731 L2700.07,794.091 L2700.07,803.777 L2742.05,824.764 L2761.42,815.078 L2772.72,815.078 L2792.09,834.451 L2803.39,834.451 L2843.75,845.752 L2843.75,876.425 L2822.77,886.111 L2803.39,907.098 L2813.08,928.085 L2813.08,947.458 L2822.77,968.445 L2843.75,1008.8 L2813.08,1029.79 L2782.41,1050.78 L2772.72,1060.47 L2761.42,1070.15 L2761.42,1081.45 L2772.72,1100.82 L2761.42,1121.81 L2782.41,1152.49 L2761.42,1183.16 L2742.05,1183.16 L2730.75,1173.47 L2711.37,1183.16 L2700.07,1204.15 L2721.06,1244.51 L2679.08,1254.19 L2648.41,1254.19 L2638.73,1275.18 L2648.41,1296.17 L2638.73,1326.84 L2648.41,1336.53 L2648.41,1346.21 L2629.04,1357.51 L2577.38,1346.21 L2577.38,1388.19 L2598.37,1397.87 L2577.38,1428.55 L2587.06,1438.23 L2567.69,1468.91 L2556.39,1468.91 L2535.4,1468.91 L2525.72,1480.21 L2495.04,1468.91 L2474.06,1501.19 L2454.68,1501.19 L2443.38,1520.57 L2424.01,1541.55 L2412.71,1572.23 L2403.02,1593.21 L2403.02,1602.9 L2403.02,1612.59 L2403.02,1623.89 L2403.02,1654.56 L2393.34,1673.93 L2341.68,1673.93 L2320.69,1694.92 L2330.38,1715.91 L2341.68,1725.59 L2341.68,1777.25 L2341.68,1807.93 L2341.68,1817.61 L2341.68,1848.29 L2311,1857.97 L2299.7,1857.97 L2290.02,1869.27 L2259.34,1869.27 L2249.66,1878.96 L2238.36,1878.96 L2218.98,1848.29 L2218.98,1827.3 L2207.68,1807.93 L2207.68,1777.25 L2198,1765.95 L2186.7,1735.28 L2177.01,1725.59 L2136.65,1715.91 L2125.35,1756.27 L2136.65,1765.95 L2115.66,1807.93 L2084.99,1777.25 L2064,1786.94 L2043.02,1777.25 L2023.64,1765.95 L2012.34,1746.58 L2023.64,1715.91 L2012.34,1694.92 L2023.64,1664.25 L2012.34,1654.56 L1981.67,1643.26 L1951,1643.26 L1941.31,1654.56 L1920.32,1685.23 L1900.95,1685.23 L1900.95,1673.93 L1868.66,1664.25 L1868.66,1654.56 L1837.99,1633.57 L1818.62,1623.89 L1807.32,1612.59 L1787.94,1602.9 L1766.96,1612.59 L1736.28,1593.21 L1724.98,1612.59 L1684.62,1602.9 L1694.31,1551.24 L1715.29,1541.55 L1715.29,1501.19 L1787.94,1480.21 L1797.63,1468.91 L1828.3,1480.21 L1889.65,1428.55 L1900.95,1428.55 L1910.64,1418.86 L1931.62,1428.55 L1962.3,1418.86 L2012.34,1428.55 L2023.64,1418.86 L2075.3,1428.55 L2105.98,1388.19 L2146.34,1428.55 L2156.02,1428.55 L2156.02,1376.89 L2177.01,1367.2 L2177.01,1357.51 L2207.68,1367.2 L2228.67,1346.21 L2228.67,1326.84 L2259.34,1296.17 L2280.33,1296.17 L2290.02,1296.17 L2341.68,1265.49 L2341.68,1254.19 L2382.04,1234.82 L2424.01,1213.83 L2412.71,1183.16 L2382.04,1173.47 L2393.34,1121.81 L2424.01,1112.13 L2433.7,1112.13 L2443.38,1039.48 L2454.68,1029.79 L2454.68,1008.8 L2474.06,989.432 L2454.68,928.085 L2412.71,865.124 L2454.68,824.764 L2403.02,794.091 L2424.01,753.731 L2403.02,732.744 L2341.68,763.418 L2330.38,753.731 L2311,692.385 L2280.33,692.385 L2259.34,671.398 L2207.68,661.711 L2198,631.038 L2156.02,619.737 L2146.34,610.051 L2167.32,569.691 L2146.34,518.031 L2136.65,527.717 L2094.68,527.717 L2054.32,497.044 L2094.68,446.998 L2084.99,416.324 L2023.64,426.011 L2002.66,435.697 L1971.98,435.697 L1962.3,446.998 L1920.32,426.011 L1868.66,435.697 L1849.29,385.651 L1837.99,385.651 L1858.98,313.003 L1889.65,303.317 L1889.65,272.644 L1837.99,230.67 L1828.3,292.016 L1787.94,303.317 L1776.64,313.003 L1715.29,313.003 L1705.61,322.69 L1674.94,313.003 L1653.95,322.69 L1653.95,395.337 L1613.59,385.651 L1592.6,374.35 L1582.92,374.35 L1571.61,395.337 L1571.61,446.998 L1540.94,446.998 L1519.95,416.324 L1519.95,405.024 L1510.27,374.35 L1500.58,374.35 L1500.58,333.99 L1489.28,333.99 L1489.28,303.317 L1489.28,292.016" vector-effect="none"/>
   <path fill-rule="evenodd" d="M1479.59,1234.82 L1439.23,1254.19 L1439.23,1265.49 L1397.26,1204.15 L1408.56,1183.16 L1356.9,1162.17 L1366.59,1091.14 L1356.9,1081.45 L1376.27,1029.79 L1335.91,978.131 L1345.6,958.759 L1366.59,937.772 L1345.6,895.798 L1366.59,865.124 L1418.25,886.111 L1408.56,815.078 L1427.93,803.777 L1448.92,815.078 L1489.28,763.418 L1500.58,763.418 L1519.95,742.431 L1582.92,753.731 L1592.6,742.431 L1663.63,742.431 L1674.94,753.731 L1705.61,753.731 L1724.98,794.091 L1787.94,794.091 L1807.32,753.731 L1879.96,794.091 L1879.96,803.777 L1849.29,865.124 L1858.98,876.425 L1858.98,916.785 L1920.32,947.458 L1900.95,978.131 L1900.95,1008.8 L1889.65,1039.48 L1879.96,1060.47 L1837.99,1060.47 L1849.29,1121.81 L1828.3,1121.81 L1797.63,1100.82 L1776.64,1121.81 L1787.94,1173.47 L1715.29,1183.16 L1724.98,1244.51 L1724.98,1254.19 L1663.63,1223.52 L1644.26,1234.82 L1592.6,1213.83 L1571.61,1254.19 L1519.95,1244.51 L1510.27,1244.51 L1479.59,1234.82" vector-effect="none"/>
   <path fill-rule="evenodd" d="M546.478,395.337 L525.491,385.651 L473.83,435.697 L433.471,395.337 L412.484,374.35 L360.823,354.977 L360.823,313.003 L320.463,303.317 L299.476,282.33 L299.476,251.657 L289.79,241.97 L289.79,230.67 L268.803,199.996 L259.117,199.996 L259.117,169.323 L259.117,159.636 L280.104,138.649 L289.79,138.649 L320.463,169.323 L310.777,180.624 L320.463,211.297 L351.137,211.297 L360.823,211.297 L391.497,199.996 L412.484,190.31 L433.471,190.31 L454.458,180.624 L473.83,180.624 L504.504,159.636 L504.504,149.95 L525.491,128.963 L546.478,128.963 L556.164,159.636 L565.85,169.323 L565.85,199.996 L598.138,211.297 L617.511,180.624 L638.498,138.649 L669.171,149.95 L699.845,128.963 L720.832,149.95 L761.191,138.649 L782.179,149.95 L822.538,149.95 L853.212,138.649 L883.885,159.636 L895.186,190.31 L904.872,190.31 L904.872,241.97 L895.186,251.657 L895.186,261.343 L864.512,282.33 L853.212,313.003 L883.885,343.677 L895.186,343.677 L916.173,322.69 L946.846,322.69 L966.219,354.977 L946.846,385.651 L904.872,385.651 L895.186,395.337 L864.512,405.024 L833.839,385.651 L822.538,385.651 L812.852,385.651 L761.191,395.337 L730.518,374.35 L699.845,385.651 L669.171,446.998 L648.184,446.998 L628.812,395.337 L617.511,395.337 L565.85,385.651 L546.478,395.337" vector-effect="none"/>
   <path fill-rule="evenodd" d="M249.43,999.118 L228.443,999.118 L207.456,999.118 L217.143,937.772 L249.43,937.772 L259.117,937.772 L280.104,937.772 L299.476,907.098 L299.476,895.798 L268.803,855.438 L299.476,824.764 L351.137,834.451 L372.124,815.078 L330.15,763.418 L341.451,753.731 L372.124,692.385 L360.823,619.737 L381.81,610.051 L412.484,610.051 L412.484,600.364 L412.484,539.018 L433.471,527.717 L485.131,579.377 L504.504,558.39 L577.151,558.39 L565.85,600.364 L586.838,640.724 L535.177,671.398 L556.164,702.071 L535.177,753.731 L535.177,824.764 L485.131,824.764 L464.144,845.752 L485.131,895.798 L473.83,928.085 L473.83,937.772 L412.484,978.131 L402.797,968.445 L402.797,937.772 L372.124,916.785 L341.451,947.458 L341.451,958.759 L320.463,978.131 L320.463,989.432 L310.777,989.432 L280.104,1008.8 L259.117,1008.8 L249.43,999.118" vector-effect="none"/>
   <path fill-rule="evenodd" d="M1366.59,1694.92 L1356.9,1685.23 L1345.6,1664.25 L1314.93,1664.25 L1305.24,1602.9 L1314.93,1593.21 L1326.23,1593.21 L1366.59,1531.87 L1397.26,1531.87 L1418.25,1501.19 L1479.59,1501.19 L1500.58,1531.87 L1519.95,1531.87 L1531.25,1489.89 L1550.63,1480.21 L1540.94,1449.53 L1540.94,1438.23 L1582.92,1449.53 L1602.29,1418.86 L1644.26,1418.86 L1663.63,1388.19 L1705.61,1449.53 L1694.31,1480.21 L1715.29,1501.19 L1715.29,1541.55 L1694.31,1551.24 L1684.62,1602.9 L1663.63,1623.89 L1653.95,1643.26 L1632.96,1654.56 L1582.92,1664.25 L1571.61,1654.56 L1540.94,1694.92 L1500.58,1685.23 L1500.58,1673.93 L1439.23,1673.93 L1427.93,1704.61 L1427.93,1715.91 L1418.25,1725.59 L1376.27,1725.59 L1366.59,1694.92" vector-effect="none"/>
   <path fill-rule="evenodd" d="M925.859,1254.19 L935.545,1223.52 L895.186,1204.15 L883.885,1204.15 L864.512,1223.52 L843.525,1234.82 L822.538,1234.82 L791.865,1234.82 L791.865,1244.51 L751.505,1234.82 L740.204,1204.15 L772.492,1192.84 L772.492,1204.15 L803.166,1192.84 L812.852,1173.47 L833.839,1173.47 L853.212,1152.49 L833.839,1112.13 L883.885,1091.14 L916.173,1112.13 L916.173,1131.5 L925.859,1131.5 L996.892,1091.14 L1008.19,1112.13 L996.892,1173.47 L1008.19,1183.16 L1038.87,1192.84 L1048.55,1223.52 L1121.2,1244.51 L1121.2,1284.87 L1130.89,1305.85 L1079.23,1336.53 L1090.53,1367.2 L1130.89,1376.89 L1130.89,1407.56 L1109.9,1428.55 L1079.23,1428.55 L1058.24,1407.56 L1048.55,1407.56 L1038.87,1428.55 L996.892,1418.86 L1008.19,1388.19 L996.892,1376.89 L996.892,1357.51 L946.846,1357.51 L946.846,1346.21 L904.872,1336.53 L916.173,1296.17 L904.872,1275.18 L904.872,1265.49 L925.859,1254.19" vector-effect="none"/>
   <path fill-rule="evenodd" d="M853.212,947.458 L833.839,937.772 L822.538,937.772 L761.191,865.124 L751.505,865.124 L740.204,865.124 L740.204,803.777 L751.505,803.777 L772.492,742.431 L812.852,763.418 L843.525,742.431 L853.212,711.757 L904.872,753.731 L895.186,815.078 L916.173,815.078 L956.532,865.124 L956.532,876.425 L935.545,907.098 L925.859,907.098 L925.859,947.458 L853.212,947.458" vector-effect="none"/>
   <path fill-rule="evenodd" d="M2454.68,928.085 L2393.34,958.759 L2372.35,937.772 L2361.05,947.458 L2320.69,916.785 L2280.33,978.131 L2269.03,958.759 L2280.33,876.425 L2249.66,865.124 L2259.34,834.451 L2299.7,794.091 L2330.38,794.091 L2341.68,763.418 L2403.02,732.744 L2424.01,753.731 L2403.02,794.091 L2454.68,824.764 L2412.71,865.124 L2454.68,928.085" vector-effect="none"/>
   <path fill-rule="evenodd" d="M2167.32,742.431 L2094.68,773.104 L2094.68,803.777 L2084.99,815.078 L2023.64,803.777 L2012.34,794.091 L2023.64,732.744 L1971.98,732.744 L1951,692.385 L1962.3,671.398 L2033.33,702.071 L2023.64,640.724 L2043.02,619.737 L2075.3,619.737 L2105.98,600.364 L2146.34,610.051 L2156.02,619.737 L2136.65,681.084 L2105.98,692.385 L2167.32,742.431" vector-effect="none"/>
   <path fill-rule="evenodd" d="M1828.3,640.724 L1797.63,619.737 L1787.94,640.724 L1724.98,619.737 L1715.29,610.051 L1663.63,619.737 L1663.63,589.064 L1674.94,569.691 L1736.28,548.704 L1715.29,508.344 L1736.28,487.357 L1807.32,508.344 L1818.62,477.671 L1828.3,466.37 L1868.66,435.697 L1879.96,477.671 L1849.29,539.018 L1879.96,548.704 L1889.65,569.691 L1889.65,610.051 L1868.66,619.737 L1828.3,640.724" vector-effect="none"/>
   <path fill-rule="evenodd" d="M1234.21,640.724 L1253.58,681.084 L1213.22,723.058 L1171.25,702.071 L1161.56,661.711 L1130.89,671.398 L1100.21,640.724 L1069.54,640.724 L1058.24,610.051 L1090.53,589.064 L1079.23,548.704 L1090.53,539.018 L1130.89,548.704 L1151.87,518.031 L1192.23,518.031 L1192.23,539.018 L1222.91,589.064 L1213.22,631.038 L1234.21,640.724" vector-effect="none"/>
   <path fill-rule="evenodd" d="M2136.65,1244.51 L2084.99,1234.82 L2075.3,1244.51 L2043.02,1244.51 L2012.34,1223.52 L2012.34,1173.47 L2084.99,1183.16 L2084.99,1112.13 L2115.66,1112.13 L2146.34,1081.45 L2177.01,1112.13 L2177.01,1173.47 L2167.32,1183.16 L2146.34,1204.15 L2136.65,1244.51" vector-effect="none"/>
   <path fill-rule="evenodd" d="M1397.26,395.337 L1397.26,374.35 L1448.92,354.977 L1458.61,395.337 L1458.61,416.324 L1427.93,426.011 L1397.26,405.024 L1397.26,395.337" vector-effect="none"/>
  </g>
  <g stroke-linejoin="bevel" transform="matrix(0.999751,0,0,0.999751,0,0)" font-weight="400" font-style="normal" fill="none" stroke="#000000" stroke-width="1" stroke-linecap="square" font-size="32.5" font-family="MS Shell Dlg 2" stroke-opacity="1"/>
  <g stroke-linejoin="bevel" transform="matrix(11.8081,0,0,11.8081,0,0)" font-weight="400" font-style="normal" fill="none" stroke="#000000" stroke-width="1" stroke-linecap="square" font-size="32.5" font-family="MS Shell Dlg 2" stroke-opacity="1"/>
  <g stroke-linejoin="bevel" transform="matrix(11.8081,0,0,11.8081,0,0)" font-weight="400" font-style="normal" fill="none" stroke="#000000" stroke-width="1" stroke-linecap="square" font-size="32.5" font-family="MS Shell Dlg 2" stroke-opacity="1"/>
  <g stroke-linejoin="bevel" transform="matrix(11.8081,0,0,11.8081,0,0)" font-weight="400" font-style="normal" fill="none" stroke="#000000" stroke-width="1" stroke-linecap="square" font-size="32.5" font-family="MS Shell Dlg 2" stroke-opacity="1"/>
  <g stroke-linejoin="bevel" transform="matrix(1,0,0,1,0,0)" font-weight="400" font-style="normal" fill="none" stroke="#000000" stroke-width="1" stroke-linecap="square" font-size="32.5" font-family="MS Shell Dlg 2" stroke-opacity="1"/>
  <g stroke-linejoin="bevel" transform="matrix(11.8081,0,0,11.8081,0,0)" font-weight="400" font-style="normal" fill="none" stroke="#000000" stroke-width="1" stroke-linecap="square" font-size="32.5" font-family="MS Shell Dlg 2" stroke-opacity="1"/>
  <g stroke-linejoin="bevel" transform="matrix(11.8081,0,0,11.8081,0,0)" font-weight="400" font-style="normal" fill="none" stroke="#000000" stroke-width="1" stroke-linecap="square" font-size="32.5" font-family="MS Shell Dlg 2" stroke-opacity="1"/>
  <g stroke-linejoin="bevel" transform="matrix(1,0,0,1,0,0)" font-weight="400" font-style="normal" fill="none" stroke="#000000" stroke-width="1" stroke-linecap="square" font-size="32.5" font-family="MS Shell Dlg 2" stroke-opacity="1"/>
 </g>
</svg>
