<?xml version='1.0' encoding='UTF-8' standalone='no'?>
<svg height="209.973mm" width="296.926mm" viewBox="0 0 3507 2480" xmlns:xlink="http://www.w3.org/1999/xlink" xmlns:inkscape="http://www.inkscape.org/namespaces/inkscape" xmlns="http://www.w3.org/2000/svg" version="1.2" baseProfile="tiny">
 <defs/>
 <g stroke-linejoin="bevel" inkscape:label="Page" inkscape:groupmode="layer" fill="none" stroke="black" fill-rule="evenodd" stroke-width="1" stroke-linecap="square" id="Page">
  <g stroke-linejoin="bevel" transform="matrix(1,0,0,1,0,0)" font-weight="400" font-style="normal" fill="none" stroke="#000000" stroke-width="1" stroke-linecap="square" font-size="32.5" font-family="MS Shell Dlg 2" stroke-opacity="1"/>
  <g stroke-linejoin="bevel" transform="matrix(1,0,0,1,0,0)" font-weight="400" font-style="normal" fill="none" stroke="#000000" stroke-width="1" stroke-linecap="square" font-size="32.5" font-family="MS Shell Dlg 2" stroke-opacity="1"/>
  <g stroke-linejoin="bevel" transform="matrix(11.8081,0,0,11.8081,0,0)" font-weight="400" font-style="normal" fill="none" stroke="#000000" stroke-width="1" stroke-linecap="square" font-size="32.5" font-family="MS Shell Dlg 2" stroke-opacity="1"/>
  <g stroke-linejoin="bevel" transform="matrix(0.999751,0,0,0.999751,0,0)" font-weight="400" font-style="normal" fill="none" stroke="#000000" stroke-width="1" stroke-linecap="square" font-size="32.5" font-family="MS Shell Dlg 2" stroke-opacity="1"/>
  <g transform="matrix(0.999751,0,0,0.999751,0,0)" font-weight="400" font-style="normal" fill="#ffffff" stroke="none" fill-opacity="1" font-size="32.5" font-family="MS Shell Dlg 2">
   <path fill-rule="evenodd" d="M-2,-2 L3510,-2 L3510,2483 L-2,2483 L-2,-2" vector-effect="none"/>
  </g>
  <g stroke-linejoin="bevel" transform="matrix(0.999751,0,0,0.999751,0,0)" font-weight="400" font-style="normal" fill="none" stroke="#000000" stroke-width="1" stroke-linecap="square" font-size="32.5" font-family="MS Shell Dlg 2" stroke-opacity="1"/>
  <g stroke-linejoin="bevel" transform="matrix(11.8081,0,0,11.8081,0,0)" font-weight="400" font-style="normal" fill="none" stroke="#000000" stroke-width="1" stroke-linecap="square" font-size="32.5" font-family="MS Shell Dlg 2" stroke-opacity="1"/>
  <g stroke-linejoin="bevel" transform="matrix(11.8081,0,0,11.8081,0,0)" font-weight="400" font-style="normal" fill="none" stroke="#000000" stroke-width="1" stroke-linecap="square" font-size="32.5" font-family="MS Shell Dlg 2" stroke-opacity="1"/>
  <g stroke-linejoin="bevel" transform="matrix(1,0,0,1,0,0)" font-weight="400" font-style="normal" fill="none" stroke="#000000" stroke-width="1" stroke-linecap="square" font-size="32.5" font-family="MS Shell Dlg 2" stroke-opacity="1"/>
 </g>
 <defs/>
 <g stroke-linejoin="bevel" inkscape:label="Map 1: Background" inkscape:groupmode="layer" fill="none" stroke="black" fill-rule="evenodd" stroke-width="1" stroke-linecap="square" id="Map 1: Background">
  <g stroke-linejoin="bevel" transform="matrix(1,0,0,1,0,0)" font-weight="400" font-style="normal" fill="none" stroke="#000000" stroke-width="1" stroke-linecap="square" font-size="32.5" font-family="MS Shell Dlg 2" stroke-opacity="1"/>
  <g stroke-linejoin="bevel" transform="matrix(1,0,0,1,0,0)" font-weight="400" font-style="normal" fill="none" stroke="#000000" stroke-width="1" stroke-linecap="square" font-size="32.5" font-family="MS Shell Dlg 2" stroke-opacity="1"/>
  <g stroke-linejoin="bevel" transform="matrix(11.8081,0,0,11.8081,0,0)" font-weight="400" font-style="normal" fill="none" stroke="#000000" stroke-width="1" stroke-linecap="square" font-size="32.5" font-family="MS Shell Dlg 2" stroke-opacity="1"/>
  <g transform="matrix(11.8081,0,0,11.8081,0,0)" font-weight="400" font-style="normal" fill="#ffffff" stroke="none" fill-opacity="1" font-size="32.5" font-family="MS Shell Dlg 2">
   <path fill-rule="evenodd" d="M0,0 L297,0 L297,210 L0,210 L0,0" vector-effect="none"/>
  </g>
  <g stroke-linejoin="bevel" transform="matrix(11.8081,0,0,11.8081,0,0)" font-weight="400" font-style="normal" fill="none" stroke="#000000" stroke-width="1" stroke-linecap="square" font-size="32.5" font-family="MS Shell Dlg 2" stroke-opacity="1"/>
  <g stroke-linejoin="bevel" transform="matrix(11.8081,0,0,11.8081,0,0)" font-weight="400" font-style="normal" fill="none" stroke="#000000" stroke-width="1" stroke-linecap="square" font-size="32.5" font-family="MS Shell Dlg 2" stroke-opacity="1"/>
  <g stroke-linejoin="bevel" transform="matrix(11.8081,0,0,11.8081,0,0)" font-weight="400" font-style="normal" fill="none" stroke="#000000" stroke-width="1" stroke-linecap="square" font-size="32.5" font-family="MS Shell Dlg 2" stroke-opacity="1"/>
  <g stroke-linejoin="bevel" transform="matrix(11.8081,0,0,11.8081,0,0)" font-weight="400" font-style="normal" fill="none" stroke="#000000" stroke-width="1" stroke-linecap="square" font-size="32.5" font-family="MS Shell Dlg 2" stroke-opacity="1"/>
  <g stroke-linejoin="bevel" transform="matrix(1,0,0,1,0,0)" font-weight="400" font-style="normal" fill="none" stroke="#000000" stroke-width="1" stroke-linecap="square" font-size="32.5" font-family="MS Shell Dlg 2" stroke-opacity="1"/>
  <g stroke-linejoin="bevel" transform="matrix(11.8081,0,0,11.8081,0,0)" font-weight="400" font-style="normal" fill="none" stroke="#000000" stroke-width="1" stroke-linecap="square" font-size="32.5" font-family="MS Shell Dlg 2" stroke-opacity="1"/>
  <g stroke-linejoin="bevel" transform="matrix(11.8081,0,0,11.8081,0,0)" font-weight="400" font-style="normal" fill="none" stroke="#000000" stroke-width="1" stroke-linecap="square" font-size="32.5" font-family="MS Shell Dlg 2" stroke-opacity="1"/>
  <g stroke-linejoin="bevel" transform="matrix(1,0,0,1,0,0)" font-weight="400" font-style="normal" fill="none" stroke="#000000" stroke-width="1" stroke-linecap="square" font-size="32.5" font-family="MS Shell Dlg 2" stroke-opacity="1"/>
 </g>
 <defs/>
 <g stroke-linejoin="bevel" inkscape:label="Map 1: EdomLand" inkscape:groupmode="layer" fill="none" stroke="black" fill-rule="evenodd" stroke-width="1" stroke-linecap="square" id="Map 1: EdomLand">
  <g stroke-linejoin="bevel" transform="matrix(1,0,0,1,0,0)" font-weight="400" font-style="normal" fill="none" stroke="#000000" stroke-width="1" stroke-linecap="square" font-size="32.5" font-family="MS Shell Dlg 2" stroke-opacity="1"/>
  <g stroke-linejoin="bevel" transform="matrix(1,0,0,1,0,0)" font-weight="400" font-style="normal" fill="none" stroke="#000000" stroke-width="1" stroke-linecap="square" font-size="32.5" font-family="MS Shell Dlg 2" stroke-opacity="1"/>
  <g stroke-linejoin="bevel" transform="matrix(11.8081,0,0,11.8081,0,0)" font-weight="400" font-style="normal" fill="none" stroke="#000000" stroke-width="1" stroke-linecap="square" font-size="32.5" font-family="MS Shell Dlg 2" stroke-opacity="1"/>
  <g stroke-linejoin="bevel" transform="matrix(11.8081,0,0,11.8081,0,0)" font-weight="400" font-style="normal" fill="none" stroke="#000000" stroke-width="1" stroke-linecap="square" font-size="32.5" font-family="MS Shell Dlg 2" stroke-opacity="1"/>
  <g transform="matrix(0.999751,0,0,0.999751,0,0)" font-weight="400" font-style="normal" fill="#000000" stroke="none" fill-opacity="0" font-size="32.5" font-family="MS Shell Dlg 2">
   <rect height="2480" x="0" width="3508" y="0"/>
  </g>
  <g stroke-linejoin="bevel" transform="matrix(0.999751,0,0,0.999751,0,0)" font-weight="400" font-style="normal" fill="none" stroke="#000000" stroke-width="1" stroke-linecap="square" font-size="32.5" font-family="MS Shell Dlg 2" stroke-opacity="1"/>
  <g stroke-linejoin="bevel" transform="matrix(0.999751,0,0,0.999751,0,0)" font-weight="400" font-style="normal" fill="#df6844" stroke="#232323" fill-opacity="1" stroke-width="5.90551" stroke-linecap="square" font-size="32.5" font-family="MS Shell Dlg 2" stroke-opacity="1">
   <path fill-rule="evenodd" d="M565.85,978.131 L556.164,989.432 L525.491,989.432 L515.804,999.118 L485.131,989.432 L473.83,989.432 L443.157,999.118 L423.784,989.432 L412.484,978.131 L402.797,968.445 L402.797,937.772 L372.124,916.785 L341.451,947.458 L341.451,958.759 L320.463,978.131 L320.463,989.432 L310.777,989.432 L280.104,1008.8 L259.117,1008.8 L249.43,999.118 L228.443,999.118 L207.456,999.118 L217.143,937.772 L249.43,937.772 L259.117,937.772 L280.104,937.772 L299.476,907.098 L299.476,895.798 L268.803,855.438 L299.476,824.764 L351.137,834.451 L372.124,815.078 L330.15,763.418 L341.451,753.731 L372.124,692.385 L360.823,619.737 L381.81,610.051 L372.124,558.39 L381.81,539.018 L360.823,508.344 L351.137,497.044 L330.15,497.044 L320.463,466.37 L372.124,435.697 L330.15,385.651 L360.823,354.977 L360.823,313.003 L320.463,303.317 L299.476,282.33 L299.476,251.657 L289.79,241.97 L289.79,230.67 L268.803,199.996 L259.117,199.996 L259.117,169.323 L259.117,159.636 L280.104,138.649 L289.79,138.649 L320.463,169.323 L310.777,180.624 L320.463,211.297 L351.137,211.297 L360.823,211.297 L391.497,199.996 L412.484,190.31 L433.471,190.31 L454.458,180.624 L473.83,180.624 L504.504,159.636 L504.504,149.95 L525.491,128.963 L546.478,128.963 L556.164,159.636 L565.85,169.323 L565.85,199.996 L598.138,211.297 L617.511,180.624 L638.498,138.649 L669.171,149.95 L699.845,128.963 L720.832,149.95 L761.191,138.649 L782.179,149.95 L822.538,149.95 L853.212,138.649 L883.885,159.636 L895.186,190.31 L904.872,190.31 L904.872,241.97 L895.186,251.657 L895.186,261.343 L864.512,282.33 L853.212,313.003 L883.885,343.677 L895.186,343.677 L916.173,322.69 L946.846,322.69 L966.219,354.977 L946.846,385.651 L904.872,385.651 L895.186,395.337 L904.872,426.011 L895.186,456.684 L895.186,466.37 L883.885,487.357 L895.186,497.044 L935.545,487.357 L946.846,508.344 L925.859,527.717 L925.859,558.39 L935.545,579.377 L966.219,569.691 L987.206,539.018 L996.892,527.717 L1027.57,508.344 L1069.54,539.018 L1079.23,548.704 L1090.53,539.018 L1100.21,508.344 L1130.89,497.044 L1151.87,518.031 L1192.23,518.031 L1201.92,508.344 L1234.21,487.357 L1253.58,487.357 L1284.25,508.344 L1284.25,518.031 L1326.23,548.704 L1345.6,539.018 L1356.9,539.018 L1387.57,518.031 L1408.56,508.344 L1439.23,518.031 L1458.61,497.044 L1479.59,508.344 L1500.58,508.344 L1519.95,518.031 L1531.25,518.031 L1531.25,508.344 L1582.92,518.031 L1592.6,508.344 L1602.29,477.671 L1592.6,456.684 L1571.61,446.998 L1540.94,446.998 L1519.95,416.324 L1519.95,405.024 L1510.27,374.35 L1500.58,374.35 L1500.58,333.99 L1489.28,333.99 L1489.28,303.317 L1489.28,292.016 L1458.61,292.016 L1427.93,313.003 L1408.56,313.003 L1397.26,292.016 L1408.56,272.644 L1439.23,261.343 L1439.23,241.97 L1469.91,241.97 L1479.59,211.297 L1479.59,190.31 L1479.59,180.624 L1489.28,169.323 L1489.28,159.636 L1510.27,138.649 L1540.94,138.649 L1550.63,138.649 L1561.93,169.323 L1582.92,180.624 L1582.92,190.31 L1613.59,199.996 L1632.96,199.996 L1663.63,169.323 L1663.63,138.649 L1663.63,119.277 L1663.63,98.2897 L1674.94,88.6034 L1724.98,57.93 L1745.97,57.93 L1745.97,67.6164 L1787.94,77.3027 L1797.63,119.277 L1807.32,119.277 L1837.99,128.963 L1889.65,119.277 L1900.95,128.963 L1931.62,128.963 L1941.31,138.649 L1971.98,149.95 L1992.97,138.649 L2012.34,138.649 L2033.33,128.963 L2043.02,138.649 L2054.32,128.963 L2084.99,138.649 L2084.99,180.624 L2105.98,211.297 L2136.65,220.983 L2146.34,241.97 L2186.7,251.657 L2198,251.657 L2218.98,272.644 L2228.67,282.33 L2249.66,313.003 L2259.34,313.003 L2290.02,322.69 L2299.7,322.69 L2299.7,333.99 L2330.38,343.677 L2341.68,374.35 L2361.05,374.35 L2393.34,343.677 L2412.71,313.003 L2433.7,313.003 L2433.7,322.69 L2454.68,343.677 L2474.06,343.677 L2485.36,364.664 L2495.04,374.35 L2546.7,364.664 L2546.7,354.977 L2577.38,364.664 L2587.06,364.664 L2617.74,364.664 L2629.04,374.35 L2638.73,405.024 L2648.41,426.011 L2648.41,435.697 L2669.4,446.998 L2700.07,487.357 L2690.39,508.344 L2711.37,527.717 L2690.39,569.691 L2711.37,600.364 L2700.07,631.038 L2721.06,661.711 L2700.07,692.385 L2721.06,702.071 L2742.05,702.071 L2761.42,723.058 L2761.42,732.744 L2730.75,753.731 L2721.06,753.731 L2700.07,794.091 L2700.07,803.777 L2742.05,824.764 L2761.42,815.078 L2772.72,815.078 L2792.09,834.451 L2803.39,834.451 L2843.75,845.752 L2843.75,876.425 L2822.77,886.111 L2803.39,907.098 L2813.08,928.085 L2813.08,947.458 L2822.77,968.445 L2843.75,1008.8 L2813.08,1029.79 L2782.41,1050.78 L2772.72,1060.47 L2761.42,1070.15 L2761.42,1081.45 L2772.72,1100.82 L2761.42,1121.81 L2782.41,1152.49 L2761.42,1183.16 L2742.05,1183.16 L2730.75,1173.47 L2711.37,1183.16 L2700.07,1204.15 L2721.06,1244.51 L2679.08,1254.19 L2648.41,1254.19 L2638.73,1275.18 L2648.41,1296.17 L2638.73,1326.84 L2648.41,1336.53 L2648.41,1346.21 L2629.04,1357.51 L2577.38,1346.21 L2577.38,1388.19 L2598.37,1397.87 L2577.38,1428.55 L2587.06,1438.23 L2567.69,1468.91 L2556.39,1468.91 L2535.4,1468.91 L2525.72,1480.21 L2495.04,1468.91 L2474.06,1501.19 L2454.68,1501.19 L2443.38,1520.57 L2424.01,1541.55 L2412.71,1572.23 L2403.02,1593.21 L2403.02,1602.9 L2403.02,1612.59 L2403.02,1623.89 L2403.02,1654.56 L2393.34,1673.93 L2341.68,1673.93 L2320.69,1694.92 L2330.38,1715.91 L2341.68,1725.59 L2341.68,1777.25 L2341.68,1807.93 L2341.68,1817.61 L2341.68,1848.29 L2311,1857.97 L2299.7,1857.97 L2290.02,1869.27 L2259.34,1869.27 L2249.66,1878.96 L2238.36,1878.96 L2218.98,1848.29 L2218.98,1827.3 L2207.68,1807.93 L2207.68,1777.25 L2198,1765.95 L2186.7,1735.28 L2177.01,1725.59 L2136.65,1715.91 L2125.35,1756.27 L2136.65,1765.95 L2115.66,1807.93 L2084.99,1777.25 L2064,1786.94 L2043.02,1777.25 L2023.64,1765.95 L2012.34,1746.58 L2023.64,1715.91 L2012.34,1694.92 L2023.64,1664.25 L2012.34,1654.56 L1981.67,1643.26 L1951,1643.26 L1941.31,1654.56 L1920.32,1685.23 L1900.95,1685.23 L1900.95,1673.93 L1868.66,1664.25 L1868.66,1654.56 L1837.99,1633.57 L1818.62,1623.89 L1807.32,1612.59 L1787.94,1602.9 L1766.96,1612.59 L1736.28,1593.21 L1724.98,1612.59 L1684.62,1602.9 L1663.63,1623.89 L1653.95,1643.26 L1674.94,1664.25 L1715.29,1664.25 L1736.28,1694.92 L1724.98,1715.91 L1715.29,1725.59 L1715.29,1756.27 L1684.62,1777.25 L1705.61,1817.61 L1705.61,1827.3 L1705.61,1848.29 L1724.98,1869.27 L1745.97,1869.27 L1766.96,1888.65 L1766.96,1909.63 L1776.64,1930.62 L1766.96,1949.99 L1787.94,1970.98 L1818.62,1961.29 L1818.62,1940.31 L1828.3,1919.32 L1849.29,1919.32 L1868.66,1909.63 L1889.65,1909.63 L1910.64,1899.95 L1920.32,1899.95 L1951,1888.65 L1951,1848.29 L1962.3,1838.6 L1992.97,1838.6 L2002.66,1848.29 L2043.02,1857.97 L2054.32,1857.97 L2064,1857.97 L2084.99,1848.29 L2115.66,1838.6 L2125.35,1838.6 L2136.65,1848.29 L2156.02,1857.97 L2167.32,1869.27 L2177.01,1869.27 L2207.68,1899.95 L2207.68,1919.32 L2238.36,1930.62 L2249.66,1961.29 L2259.34,1961.29 L2259.34,1970.98 L2290.02,1980.67 L2311,1970.98 L2341.68,1980.67 L2351.36,1970.98 L2382.04,1980.67 L2403.02,1970.98 L2433.7,1949.99 L2443.38,1930.62 L2474.06,1919.32 L2485.36,1909.63 L2535.4,1909.63 L2546.7,1878.96 L2567.69,1857.97 L2577.38,1857.97 L2587.06,1878.96 L2577.38,1909.63 L2587.06,1919.32 L2608.05,1919.32 L2638.73,1899.95 L2648.41,1899.95 L2648.41,1888.65 L2659.71,1869.27 L2669.4,1869.27 L2679.08,1857.97 L2711.37,1869.27 L2721.06,1857.97 L2772.72,1857.97 L2782.41,1838.6 L2782.41,1827.3 L2772.72,1796.63 L2761.42,1786.94 L2751.73,1765.95 L2751.73,1756.27 L2761.42,1735.28 L2792.09,1725.59 L2813.08,1735.28 L2843.75,1735.28 L2885.73,1746.58 L2905.1,1715.91 L2916.4,1715.91 L2935.77,1746.58 L2935.77,1765.95 L2966.45,1786.94 L2977.75,1786.94 L3018.11,1807.93 L3027.79,1838.6 L3048.78,1848.29 L3060.08,1848.29 L3079.45,1857.97 L3110.13,1848.29 L3131.11,1857.97 L3152.1,1838.6 L3182.77,1869.27 L3182.77,1888.65 L3171.47,1899.95 L3152.1,1909.63 L3140.8,1930.62 L3161.79,1970.98 L3192.46,1970.98 L3223.13,1961.29 L3234.43,1961.29 L3253.81,1991.97 L3253.81,2011.34 L3274.79,2032.33 L3274.79,2043.63 L3284.48,2053.31 L3315.15,2053.31 L3336.14,2093.67 L3305.47,2104.97 L3295.78,2104.97 L3274.79,2124.35 L3265.11,2135.65 L3253.81,2176.01 L3274.79,2196.99 L3274.79,2237.35 L3265.11,2247.04 L3265.11,2258.34 L3265.11,2268.03 L3253.81,2298.7 L3253.81,2308.39 L3244.12,2319.69 L3244.12,2350.36 L3213.45,2360.05 L3182.77,2339.06 L3161.79,2360.05 L3152.1,2381.03 L3140.8,2390.72 L3100.44,2390.72 L3100.44,2381.03 L3100.44,2350.36 L3121.43,2319.69 L3079.45,2277.71 L3060.08,2319.69 L3060.08,2329.37 L3039.09,2360.05 L3008.42,2360.05 L2997.12,2350.36 L2956.76,2350.36 L2935.77,2381.03 L2935.77,2390.72 L2916.4,2421.39 L2885.73,2421.39 L2874.43,2400.41 L2905.1,2369.73 L2864.74,2339.06 L2822.77,2329.37 L2813.08,2329.37 L2822.77,2277.71 L2822.77,2247.04 L2792.09,2227.67 L2772.72,2237.35 L2761.42,2237.35 L2730.75,2277.71 L2700.07,2277.71 L2690.39,2308.39 L2721.06,2329.37 L2730.75,2360.05 L2711.37,2369.73 L2700.07,2390.72 L2679.08,2400.41 L2669.4,2400.41 L2648.41,2411.71 L2629.04,2400.41 L2587.06,2411.71 L2556.39,2400.41 L2546.7,2411.71 L2516.03,2390.72 L2516.03,2381.03 L2485.36,2339.06 L2443.38,2350.36 L2433.7,2400.41 L2412.71,2400.41 L2382.04,2390.72 L2351.36,2411.71 L2351.36,2400.41 L2320.69,2431.08 L2299.7,2421.39 L2280.33,2390.72 L2269.03,2381.03 L2259.34,2369.73 L2249.66,2369.73 L2249.66,2360.05 L2228.67,2350.36 L2177.01,2339.06 L2167.32,2350.36 L2125.35,2350.36 L2105.98,2360.05 L2094.68,2350.36 L2054.32,2360.05 L2043.02,2329.37 L1992.97,2350.36 L1992.97,2339.06 L1971.98,2339.06 L1951,2329.37 L1941.31,2329.37 L1910.64,2289.01 L1920.32,2268.03 L1910.64,2237.35 L1900.95,2237.35 L1868.66,2237.35 L1858.98,2227.67 L1849.29,2227.67 L1828.3,2216.37 L1828.3,2196.99 L1849.29,2155.02 L1837.99,2155.02 L1807.32,2155.02 L1797.63,2104.97 L1828.3,2104.97 L1868.66,2104.97 L1879.96,2104.97 L1910.64,2093.67 L1910.64,2104.97 L1962.3,2083.99 L1941.31,2043.63 L1931.62,2043.63 L1920.32,2011.34 L1889.65,1991.97 L1889.65,1980.67 L1879.96,1980.67 L1828.3,1980.67 L1818.62,2001.65 L1797.63,2011.34 L1776.64,2001.65 L1757.27,2001.65 L1745.97,1970.98 L1715.29,1980.67 L1694.31,1970.98 L1684.62,1970.98 L1674.94,1970.98 L1653.95,1930.62 L1653.95,1919.32 L1632.96,1899.95 L1632.96,1888.65 L1644.26,1869.27 L1653.95,1857.97 L1653.95,1817.61 L1613.59,1817.61 L1602.29,1827.3 L1582.92,1838.6 L1582.92,1848.29 L1531.25,1848.29 L1519.95,1838.6 L1531.25,1796.63 L1519.95,1786.94 L1531.25,1756.27 L1531.25,1746.58 L1500.58,1735.28 L1500.58,1704.61 L1500.58,1685.23 L1500.58,1673.93 L1439.23,1673.93 L1427.93,1704.61 L1427.93,1715.91 L1418.25,1725.59 L1376.27,1725.59 L1366.59,1694.92 L1356.9,1685.23 L1345.6,1664.25 L1314.93,1664.25 L1284.25,1685.23 L1284.25,1694.92 L1264.88,1735.28 L1243.89,1746.58 L1222.91,1735.28 L1213.22,1715.91 L1201.92,1715.91 L1182.55,1685.23 L1182.55,1664.25 L1161.56,1654.56 L1151.87,1654.56 L1130.89,1673.93 L1109.9,1664.25 L1109.9,1654.56 L1121.2,1623.89 L1151.87,1593.21 L1130.89,1562.54 L1121.2,1562.54 L1109.9,1510.88 L1109.9,1480.21 L1130.89,1459.22 L1109.9,1428.55 L1079.23,1428.55 L1058.24,1407.56 L1048.55,1407.56 L1038.87,1428.55 L996.892,1418.86 L1008.19,1388.19 L996.892,1376.89 L996.892,1357.51 L946.846,1357.51 L946.846,1346.21 L904.872,1336.53 L916.173,1296.17 L904.872,1275.18 L904.872,1265.49 L925.859,1254.19 L935.545,1223.52 L895.186,1204.15 L883.885,1204.15 L864.512,1223.52 L843.525,1234.82 L822.538,1234.82 L791.865,1234.82 L791.865,1244.51 L751.505,1234.82 L740.204,1204.15 L772.492,1192.84 L772.492,1204.15 L803.166,1192.84 L812.852,1173.47 L833.839,1173.47 L853.212,1152.49 L833.839,1112.13 L812.852,1081.45 L803.166,1070.15 L791.865,1070.15 L772.492,1050.78 L740.204,1050.78 L720.832,1039.48 L699.845,1020.11 L690.158,1008.8 L659.485,1008.8 L617.511,978.131 L586.838,989.432 L565.85,978.131 M1479.59,1305.85 L1458.61,1326.84 L1479.59,1346.21 L1458.61,1367.2 L1469.91,1388.19 L1458.61,1407.56 L1479.59,1438.23 L1479.59,1449.53 L1489.28,1468.91 L1500.58,1468.91 L1531.25,1489.89 L1550.63,1480.21 L1540.94,1449.53 L1540.94,1438.23 L1540.94,1418.86 L1550.63,1388.19 L1561.93,1346.21 L1550.63,1315.54 L1519.95,1315.54 L1500.58,1296.17 L1479.59,1305.85 M2228.67,1183.16 L2207.68,1183.16 L2177.01,1173.47 L2167.32,1183.16 L2146.34,1204.15 L2136.65,1244.51 L2156.02,1265.49 L2156.02,1305.85 L2167.32,1315.54 L2167.32,1336.53 L2177.01,1357.51 L2207.68,1367.2 L2228.67,1346.21 L2228.67,1326.84 L2259.34,1296.17 L2280.33,1296.17 L2290.02,1296.17 L2341.68,1265.49 L2341.68,1254.19 L2382.04,1234.82 L2424.01,1213.83 L2412.71,1183.16 L2382.04,1173.47 L2361.05,1183.16 L2330.38,1173.47 L2299.7,1183.16 L2290.02,1173.47 L2280.33,1173.47 L2228.67,1183.16" vector-effect="none"/>
   <path fill-rule="evenodd" d="M1171.25,2032.33 L1140.57,2001.65 L1140.57,1980.67 L1109.9,1970.98 L1100.21,1940.31 L1100.21,1930.62 L1090.53,1919.32 L1100.21,1899.95 L1100.21,1888.65 L1100.21,1869.27 L1121.2,1848.29 L1130.89,1838.6 L1130.89,1807.93 L1151.87,1786.94 L1161.56,1786.94 L1161.56,1827.3 L1192.23,1827.3 L1201.92,1838.6 L1213.22,1869.27 L1213.22,1878.96 L1222.91,1909.63 L1253.58,1919.32 L1264.88,1909.63 L1295.55,1919.32 L1305.24,1919.32 L1305.24,1930.62 L1326.23,1970.98 L1335.91,1970.98 L1335.91,2001.65 L1356.9,2011.34 L1356.9,2043.63 L1326.23,2053.31 L1305.24,2032.33 L1274.57,2032.33 L1234.21,2032.33 L1201.92,2043.63 L1182.55,2022.64 L1171.25,2032.33" vector-effect="none"/>
   <path fill-rule="evenodd" d="M1458.61,395.337 L1458.61,416.324 L1427.93,426.011 L1397.26,405.024 L1397.26,395.337 L1397.26,374.35 L1448.92,354.977 L1458.61,395.337" vector-effect="none"/>
   <path fill-rule="evenodd" d="M2813.08,1572.23 L2803.39,1593.21 L2772.72,1612.59 L2761.42,1572.23 L2772.72,1551.24 L2782.41,1541.55 L2782.41,1551.24 L2813.08,1572.23" vector-effect="none"/>
   <path fill-rule="evenodd" d="M822.538,1376.89 L812.852,1397.87 L772.492,1367.2 L803.166,1346.21 L822.538,1376.89" vector-effect="none"/>
  </g>
  <g stroke-linejoin="bevel" transform="matrix(0.999751,0,0,0.999751,0,0)" font-weight="400" font-style="normal" fill="none" stroke="#000000" stroke-width="1" stroke-linecap="square" font-size="32.5" font-family="MS Shell Dlg 2" stroke-opacity="1"/>
  <g stroke-linejoin="bevel" transform="matrix(11.8081,0,0,11.8081,0,0)" font-weight="400" font-style="normal" fill="none" stroke="#000000" stroke-width="1" stroke-linecap="square" font-size="32.5" font-family="MS Shell Dlg 2" stroke-opacity="1"/>
  <g stroke-linejoin="bevel" transform="matrix(11.8081,0,0,11.8081,0,0)" font-weight="400" font-style="normal" fill="none" stroke="#000000" stroke-width="1" stroke-linecap="square" font-size="32.5" font-family="MS Shell Dlg 2" stroke-opacity="1"/>
  <g stroke-linejoin="bevel" transform="matrix(11.8081,0,0,11.8081,0,0)" font-weight="400" font-style="normal" fill="none" stroke="#000000" stroke-width="1" stroke-linecap="square" font-size="32.5" font-family="MS Shell Dlg 2" stroke-opacity="1"/>
  <g stroke-linejoin="bevel" transform="matrix(1,0,0,1,0,0)" font-weight="400" font-style="normal" fill="none" stroke="#000000" stroke-width="1" stroke-linecap="square" font-size="32.5" font-family="MS Shell Dlg 2" stroke-opacity="1"/>
  <g stroke-linejoin="bevel" transform="matrix(11.8081,0,0,11.8081,0,0)" font-weight="400" font-style="normal" fill="none" stroke="#000000" stroke-width="1" stroke-linecap="square" font-size="32.5" font-family="MS Shell Dlg 2" stroke-opacity="1"/>
  <g stroke-linejoin="bevel" transform="matrix(11.8081,0,0,11.8081,0,0)" font-weight="400" font-style="normal" fill="none" stroke="#000000" stroke-width="1" stroke-linecap="square" font-size="32.5" font-family="MS Shell Dlg 2" stroke-opacity="1"/>
  <g stroke-linejoin="bevel" transform="matrix(1,0,0,1,0,0)" font-weight="400" font-style="normal" fill="none" stroke="#000000" stroke-width="1" stroke-linecap="square" font-size="32.5" font-family="MS Shell Dlg 2" stroke-opacity="1"/>
 </g>
 <defs/>
 <g stroke-linejoin="bevel" inkscape:label="Map 1: EdomLand (Labels)" inkscape:groupmode="layer" fill="none" stroke="black" fill-rule="evenodd" stroke-width="1" stroke-linecap="square" id="Map 1: EdomLand (Labels)">
  <g stroke-linejoin="bevel" transform="matrix(1,0,0,1,0,0)" font-weight="400" font-style="normal" fill="none" stroke="#000000" stroke-width="1" stroke-linecap="square" font-size="32.5" font-family="MS Shell Dlg 2" stroke-opacity="1"/>
  <g stroke-linejoin="bevel" transform="matrix(1,0,0,1,0,0)" font-weight="400" font-style="normal" fill="none" stroke="#000000" stroke-width="1" stroke-linecap="square" font-size="32.5" font-family="MS Shell Dlg 2" stroke-opacity="1"/>
  <g stroke-linejoin="bevel" transform="matrix(11.8081,0,0,11.8081,0,0)" font-weight="400" font-style="normal" fill="none" stroke="#000000" stroke-width="1" stroke-linecap="square" font-size="32.5" font-family="MS Shell Dlg 2" stroke-opacity="1"/>
  <g stroke-linejoin="bevel" transform="matrix(11.8081,0,0,11.8081,0,0)" font-weight="400" font-style="normal" fill="none" stroke="#000000" stroke-width="1" stroke-linecap="square" font-size="32.5" font-family="MS Shell Dlg 2" stroke-opacity="1"/>
  <g transform="matrix(0.999751,0,0,0.999751,0,0)" font-weight="400" font-style="normal" fill="#000000" stroke="none" fill-opacity="0" font-size="32.5" font-family="MS Shell Dlg 2">
   <rect height="2480" x="0" width="3508" y="0"/>
  </g>
  <g stroke-linejoin="bevel" transform="matrix(0.999751,0,0,0.999751,0,0)" font-weight="400" font-style="normal" fill="none" stroke="#000000" stroke-width="1" stroke-linecap="square" font-size="32.5" font-family="MS Shell Dlg 2" stroke-opacity="1"/>
  <g stroke-linejoin="bevel" transform="matrix(0.3999,0,0,0.3999,1760.65,1158.82)" font-weight="400" font-style="normal" fill="none" stroke="#000000" stroke-width="1" stroke-linecap="square" font-size="32.5" font-family="MS Shell Dlg 2" stroke-opacity="1"/>
  <g transform="matrix(0.999751,0,0,0.999751,1760.65,1158.82)" font-weight="400" font-style="normal" fill="#323232" stroke="none" fill-opacity="1" font-size="32.5" font-family="MS Shell Dlg 2">
   <path fill-rule="nonzero" d="M16.548,-23.772 C15.204,-24.556 13.608,-24.948 11.76,-24.948 C9.912,-24.948 8.414,-24.472 7.266,-23.52 C7.238,-23.128 7.224,-22.75 7.224,-22.386 C7.224,-17.906 9.618,-15.666 14.406,-15.666 L14.196,-14.112 L13.692,-14.112 C11.48,-14.112 9.653,-13.671 8.211,-12.789 C6.769,-11.907 6.048,-10.486 6.048,-8.526 C6.048,-6.566 6.72,-5.047 8.064,-3.969 C9.408,-2.891 10.99,-2.352 12.81,-2.352 C14.63,-2.352 16.058,-2.688 17.094,-3.36 C17.29,-3.752 17.388,-4.368 17.388,-5.208 C17.388,-6.048 17.248,-6.622 16.968,-6.93 L17.01,-7.224 C17.71,-7.644 18.41,-8.232 19.11,-8.988 C19.446,-8.96 19.719,-8.82 19.929,-8.568 C20.139,-8.316 20.244,-8.022 20.244,-7.686 C20.244,-5.978 19.439,-4.319 17.829,-2.709 C16.219,-1.099 14.462,0.014 12.558,0.63 C9.562,0.63 7.07,-0.098 5.082,-1.554 C3.094,-3.01 2.1,-5.082 2.1,-7.77 C2.1,-9.702 2.912,-11.312 4.536,-12.6 C6.16,-13.888 8.008,-14.532 10.08,-14.532 L10.08,-14.7 C8.176,-14.812 6.587,-15.344 5.313,-16.296 C4.039,-17.248 3.402,-18.564 3.402,-20.244 C4.41,-22.036 5.747,-23.646 7.413,-25.074 C9.079,-26.502 10.864,-27.468 12.768,-27.972 C14.756,-27.972 16.716,-27.706 18.648,-27.174 C19.096,-27.398 19.67,-27.832 20.37,-28.476 L21.252,-27.888 C19.404,-25.648 18.27,-22.974 17.85,-19.866 L16.758,-19.866 C16.758,-21.406 16.688,-22.708 16.548,-23.772 M23.512,-21.798 L33.172,-22.092 C36.364,-22.092 38.821,-21.336 40.543,-19.824 C42.265,-18.312 43.126,-16.051 43.126,-13.041 C43.126,-10.031 42.181,-7.224 40.291,-4.62 C38.401,-2.016 36.056,-0.308 33.256,0.504 C32.528,0.504 31.583,0.371 30.421,0.105 C29.259,-0.161 28.3,-0.448 27.544,-0.756 C27.236,-0.392 26.956,0.126 26.704,0.798 L25.822,0.588 C26.354,-1.904 26.62,-5.425 26.62,-9.975 C26.62,-14.525 26.494,-17.934 26.242,-20.202 C25.29,-20.566 24.38,-20.748 23.512,-20.748 L23.512,-21.798 M37.96,-17.598 C37.456,-18.55 36.749,-19.292 35.839,-19.824 C34.929,-20.356 33.935,-20.622 32.857,-20.622 C31.779,-20.622 30.848,-20.468 30.064,-20.16 C29.868,-18.34 29.77,-15.435 29.77,-11.445 C29.77,-7.455 29.826,-4.69 29.938,-3.15 C31.338,-2.506 32.773,-2.184 34.243,-2.184 C35.713,-2.184 36.882,-2.562 37.75,-3.318 C38.814,-5.334 39.346,-7.812 39.346,-10.752 C39.346,-13.496 38.884,-15.778 37.96,-17.598 M56.046,0.504 C53.274,0.504 51.034,-0.371 49.326,-2.121 C47.618,-3.871 46.764,-6.216 46.764,-9.156 C46.764,-12.096 47.66,-14.854 49.452,-17.43 C51.244,-20.006 53.582,-21.658 56.466,-22.386 C59.35,-22.386 61.548,-21.567 63.06,-19.929 C64.572,-18.291 65.328,-15.96 65.328,-12.936 C65.328,-9.912 64.509,-7.182 62.871,-4.746 C61.233,-2.31 58.958,-0.56 56.046,0.504 M55.332,-19.824 C54.072,-19.824 52.98,-19.474 52.056,-18.774 C50.908,-16.814 50.334,-14.35 50.334,-11.382 C50.334,-7.966 51.286,-5.348 53.19,-3.528 C54.198,-2.548 55.388,-2.058 56.76,-2.058 C58.132,-2.058 59.238,-2.422 60.078,-3.15 C61.198,-5.11 61.758,-7.504 61.758,-10.332 C61.758,-13.16 61.254,-15.449 60.246,-17.199 C59.238,-18.949 57.6,-19.824 55.332,-19.824 M79.684,-2.352 C79.684,-4.088 79.25,-6.685 78.382,-10.143 C77.514,-13.601 76.548,-16.954 75.484,-20.202 L75.316,-20.16 L74.266,-12.348 C73.818,-9.128 73.594,-6.23 73.594,-3.654 C73.594,-2.086 74.084,-1.036 75.064,-0.504 L74.896,0.21 C74.056,0.07 72.957,0 71.599,0 C70.241,0 68.75,0.112 67.126,0.336 L66.958,-0.756 C67.91,-1.064 68.806,-1.288 69.646,-1.428 L73.552,-20.58 C72.096,-20.832 71.018,-21.056 70.318,-21.252 L70.444,-22.344 C72.46,-22.036 74.329,-21.882 76.051,-21.882 C77.773,-21.882 79.11,-21.98 80.062,-22.176 L80.146,-21.462 C79.39,-21.266 79.012,-20.944 79.012,-20.496 C79.012,-19.88 79.88,-16.324 81.616,-9.828 L82.54,-6.678 L82.834,-6.762 C82.834,-7.49 84.108,-12.054 86.656,-20.454 C86.656,-20.93 86.278,-21.266 85.522,-21.462 L85.606,-22.176 C86.558,-21.98 87.909,-21.882 89.659,-21.882 C91.409,-21.882 93.278,-22.036 95.266,-22.344 L95.392,-21.252 C94.636,-21.056 93.67,-20.846 92.494,-20.622 C92.41,-19.95 92.368,-18.963 92.368,-17.661 C92.368,-16.359 92.55,-13.692 92.914,-9.66 C93.278,-5.628 93.614,-2.856 93.922,-1.344 C94.958,-1.204 96.022,-1.008 97.114,-0.756 L96.988,0.294 C95.532,0.098 93.915,0 92.137,0 C90.359,0 88.756,0.112 87.328,0.336 L87.16,-0.756 C88.084,-1.036 89.078,-1.246 90.142,-1.386 C90.058,-7.994 89.61,-14.224 88.798,-20.076 L88.672,-20.076 C85.788,-11.564 84.248,-6.048 84.052,-3.528 C83.464,-3.332 82.778,-2.975 81.994,-2.457 C81.21,-1.939 80.608,-1.428 80.188,-0.924 L79.684,-1.26 L79.684,-2.352" vector-effect="none"/>
  </g>
  <g stroke-linejoin="bevel" transform="matrix(0.3999,0,0,0.3999,1760.65,1158.82)" font-weight="400" font-style="normal" fill="none" stroke="#000000" stroke-width="1" stroke-linecap="square" font-size="32.5" font-family="MS Shell Dlg 2" stroke-opacity="1"/>
  <g stroke-linejoin="bevel" transform="matrix(0.999751,0,0,0.999751,0,0)" font-weight="400" font-style="normal" fill="none" stroke="#000000" stroke-width="1" stroke-linecap="square" font-size="32.5" font-family="MS Shell Dlg 2" stroke-opacity="1"/>
  <g stroke-linejoin="bevel" transform="matrix(11.8081,0,0,11.8081,0,0)" font-weight="400" font-style="normal" fill="none" stroke="#000000" stroke-width="1" stroke-linecap="square" font-size="32.5" font-family="MS Shell Dlg 2" stroke-opacity="1"/>
  <g stroke-linejoin="bevel" transform="matrix(11.8081,0,0,11.8081,0,0)" font-weight="400" font-style="normal" fill="none" stroke="#000000" stroke-width="1" stroke-linecap="square" font-size="32.5" font-family="MS Shell Dlg 2" stroke-opacity="1"/>
  <g stroke-linejoin="bevel" transform="matrix(11.8081,0,0,11.8081,0,0)" font-weight="400" font-style="normal" fill="none" stroke="#000000" stroke-width="1" stroke-linecap="square" font-size="32.5" font-family="MS Shell Dlg 2" stroke-opacity="1"/>
  <g stroke-linejoin="bevel" transform="matrix(1,0,0,1,0,0)" font-weight="400" font-style="normal" fill="none" stroke="#000000" stroke-width="1" stroke-linecap="square" font-size="32.5" font-family="MS Shell Dlg 2" stroke-opacity="1"/>
  <g stroke-linejoin="bevel" transform="matrix(11.8081,0,0,11.8081,0,0)" font-weight="400" font-style="normal" fill="none" stroke="#000000" stroke-width="1" stroke-linecap="square" font-size="32.5" font-family="MS Shell Dlg 2" stroke-opacity="1"/>
  <g stroke-linejoin="bevel" transform="matrix(11.8081,0,0,11.8081,0,0)" font-weight="400" font-style="normal" fill="none" stroke="#000000" stroke-width="1" stroke-linecap="square" font-size="32.5" font-family="MS Shell Dlg 2" stroke-opacity="1"/>
  <g stroke-linejoin="bevel" transform="matrix(1,0,0,1,0,0)" font-weight="400" font-style="normal" fill="none" stroke="#000000" stroke-width="1" stroke-linecap="square" font-size="32.5" font-family="MS Shell Dlg 2" stroke-opacity="1"/>
 </g>
</svg>
