<?xml version='1.0' encoding='UTF-8' standalone='no'?>
<svg height="209.973mm" width="296.926mm" viewBox="0 0 3507 2480" xmlns:xlink="http://www.w3.org/1999/xlink" xmlns:inkscape="http://www.inkscape.org/namespaces/inkscape" xmlns="http://www.w3.org/2000/svg" version="1.2" baseProfile="tiny">
 <defs/>
 <g stroke-linejoin="bevel" inkscape:label="Page" inkscape:groupmode="layer" fill="none" stroke="black" fill-rule="evenodd" stroke-width="1" stroke-linecap="square" id="Page">
  <g stroke-linejoin="bevel" transform="matrix(1,0,0,1,0,0)" font-weight="400" font-style="normal" fill="none" stroke="#000000" stroke-width="1" stroke-linecap="square" font-size="32.5" font-family="MS Shell Dlg 2" stroke-opacity="1"/>
  <g stroke-linejoin="bevel" transform="matrix(1,0,0,1,0,0)" font-weight="400" font-style="normal" fill="none" stroke="#000000" stroke-width="1" stroke-linecap="square" font-size="32.5" font-family="MS Shell Dlg 2" stroke-opacity="1"/>
  <g stroke-linejoin="bevel" transform="matrix(11.8081,0,0,11.8081,0,0)" font-weight="400" font-style="normal" fill="none" stroke="#000000" stroke-width="1" stroke-linecap="square" font-size="32.5" font-family="MS Shell Dlg 2" stroke-opacity="1"/>
  <g stroke-linejoin="bevel" transform="matrix(0.999751,0,0,0.999751,0,0)" font-weight="400" font-style="normal" fill="none" stroke="#000000" stroke-width="1" stroke-linecap="square" font-size="32.5" font-family="MS Shell Dlg 2" stroke-opacity="1"/>
  <g transform="matrix(0.999751,0,0,0.999751,0,0)" font-weight="400" font-style="normal" fill="#ffffff" stroke="none" fill-opacity="1" font-size="32.5" font-family="MS Shell Dlg 2">
   <path fill-rule="evenodd" d="M-2,-2 L3510,-2 L3510,2483 L-2,2483 L-2,-2" vector-effect="none"/>
  </g>
  <g stroke-linejoin="bevel" transform="matrix(0.999751,0,0,0.999751,0,0)" font-weight="400" font-style="normal" fill="none" stroke="#000000" stroke-width="1" stroke-linecap="square" font-size="32.5" font-family="MS Shell Dlg 2" stroke-opacity="1"/>
  <g stroke-linejoin="bevel" transform="matrix(11.8081,0,0,11.8081,0,0)" font-weight="400" font-style="normal" fill="none" stroke="#000000" stroke-width="1" stroke-linecap="square" font-size="32.5" font-family="MS Shell Dlg 2" stroke-opacity="1"/>
  <g stroke-linejoin="bevel" transform="matrix(11.8081,0,0,11.8081,0,0)" font-weight="400" font-style="normal" fill="none" stroke="#000000" stroke-width="1" stroke-linecap="square" font-size="32.5" font-family="MS Shell Dlg 2" stroke-opacity="1"/>
  <g stroke-linejoin="bevel" transform="matrix(1,0,0,1,0,0)" font-weight="400" font-style="normal" fill="none" stroke="#000000" stroke-width="1" stroke-linecap="square" font-size="32.5" font-family="MS Shell Dlg 2" stroke-opacity="1"/>
 </g>
 <defs/>
 <g stroke-linejoin="bevel" inkscape:label="Map 1: Background" inkscape:groupmode="layer" fill="none" stroke="black" fill-rule="evenodd" stroke-width="1" stroke-linecap="square" id="Map 1: Background">
  <g stroke-linejoin="bevel" transform="matrix(1,0,0,1,0,0)" font-weight="400" font-style="normal" fill="none" stroke="#000000" stroke-width="1" stroke-linecap="square" font-size="32.5" font-family="MS Shell Dlg 2" stroke-opacity="1"/>
  <g stroke-linejoin="bevel" transform="matrix(1,0,0,1,0,0)" font-weight="400" font-style="normal" fill="none" stroke="#000000" stroke-width="1" stroke-linecap="square" font-size="32.5" font-family="MS Shell Dlg 2" stroke-opacity="1"/>
  <g stroke-linejoin="bevel" transform="matrix(11.8081,0,0,11.8081,0,0)" font-weight="400" font-style="normal" fill="none" stroke="#000000" stroke-width="1" stroke-linecap="square" font-size="32.5" font-family="MS Shell Dlg 2" stroke-opacity="1"/>
  <g transform="matrix(11.8081,0,0,11.8081,0,0)" font-weight="400" font-style="normal" fill="#ffffff" stroke="none" fill-opacity="1" font-size="32.5" font-family="MS Shell Dlg 2">
   <path fill-rule="evenodd" d="M0,0 L297,0 L297,210 L0,210 L0,0" vector-effect="none"/>
  </g>
  <g stroke-linejoin="bevel" transform="matrix(11.8081,0,0,11.8081,0,0)" font-weight="400" font-style="normal" fill="none" stroke="#000000" stroke-width="1" stroke-linecap="square" font-size="32.5" font-family="MS Shell Dlg 2" stroke-opacity="1"/>
  <g stroke-linejoin="bevel" transform="matrix(11.8081,0,0,11.8081,0,0)" font-weight="400" font-style="normal" fill="none" stroke="#000000" stroke-width="1" stroke-linecap="square" font-size="32.5" font-family="MS Shell Dlg 2" stroke-opacity="1"/>
  <g stroke-linejoin="bevel" transform="matrix(11.8081,0,0,11.8081,0,0)" font-weight="400" font-style="normal" fill="none" stroke="#000000" stroke-width="1" stroke-linecap="square" font-size="32.5" font-family="MS Shell Dlg 2" stroke-opacity="1"/>
  <g stroke-linejoin="bevel" transform="matrix(11.8081,0,0,11.8081,0,0)" font-weight="400" font-style="normal" fill="none" stroke="#000000" stroke-width="1" stroke-linecap="square" font-size="32.5" font-family="MS Shell Dlg 2" stroke-opacity="1"/>
  <g stroke-linejoin="bevel" transform="matrix(1,0,0,1,0,0)" font-weight="400" font-style="normal" fill="none" stroke="#000000" stroke-width="1" stroke-linecap="square" font-size="32.5" font-family="MS Shell Dlg 2" stroke-opacity="1"/>
  <g stroke-linejoin="bevel" transform="matrix(11.8081,0,0,11.8081,0,0)" font-weight="400" font-style="normal" fill="none" stroke="#000000" stroke-width="1" stroke-linecap="square" font-size="32.5" font-family="MS Shell Dlg 2" stroke-opacity="1"/>
  <g stroke-linejoin="bevel" transform="matrix(11.8081,0,0,11.8081,0,0)" font-weight="400" font-style="normal" fill="none" stroke="#000000" stroke-width="1" stroke-linecap="square" font-size="32.5" font-family="MS Shell Dlg 2" stroke-opacity="1"/>
  <g stroke-linejoin="bevel" transform="matrix(1,0,0,1,0,0)" font-weight="400" font-style="normal" fill="none" stroke="#000000" stroke-width="1" stroke-linecap="square" font-size="32.5" font-family="MS Shell Dlg 2" stroke-opacity="1"/>
 </g>
 <defs/>
 <g stroke-linejoin="bevel" inkscape:label="Map 1: GuineveresConquestLand" inkscape:groupmode="layer" fill="none" stroke="black" fill-rule="evenodd" stroke-width="1" stroke-linecap="square" id="Map 1: GuineveresConquestLand">
  <g stroke-linejoin="bevel" transform="matrix(1,0,0,1,0,0)" font-weight="400" font-style="normal" fill="none" stroke="#000000" stroke-width="1" stroke-linecap="square" font-size="32.5" font-family="MS Shell Dlg 2" stroke-opacity="1"/>
  <g stroke-linejoin="bevel" transform="matrix(1,0,0,1,0,0)" font-weight="400" font-style="normal" fill="none" stroke="#000000" stroke-width="1" stroke-linecap="square" font-size="32.5" font-family="MS Shell Dlg 2" stroke-opacity="1"/>
  <g stroke-linejoin="bevel" transform="matrix(11.8081,0,0,11.8081,0,0)" font-weight="400" font-style="normal" fill="none" stroke="#000000" stroke-width="1" stroke-linecap="square" font-size="32.5" font-family="MS Shell Dlg 2" stroke-opacity="1"/>
  <g stroke-linejoin="bevel" transform="matrix(11.8081,0,0,11.8081,0,0)" font-weight="400" font-style="normal" fill="none" stroke="#000000" stroke-width="1" stroke-linecap="square" font-size="32.5" font-family="MS Shell Dlg 2" stroke-opacity="1"/>
  <g transform="matrix(0.999751,0,0,0.999751,0,0)" font-weight="400" font-style="normal" fill="#000000" stroke="none" fill-opacity="0" font-size="32.5" font-family="MS Shell Dlg 2">
   <rect height="2480" x="0" width="3508" y="0"/>
  </g>
  <g stroke-linejoin="bevel" transform="matrix(0.999751,0,0,0.999751,0,0)" font-weight="400" font-style="normal" fill="none" stroke="#000000" stroke-width="1" stroke-linecap="square" font-size="32.5" font-family="MS Shell Dlg 2" stroke-opacity="1"/>
  <g stroke-linejoin="bevel" transform="matrix(0.999751,0,0,0.999751,0,0)" font-weight="400" font-style="normal" fill="#1ce2d1" stroke="#232323" fill-opacity="1" stroke-width="5.90551" stroke-linecap="square" font-size="32.5" font-family="MS Shell Dlg 2" stroke-opacity="1">
   <path fill-rule="evenodd" d="M1333.06,1913.12 L1318.38,1913.12 L1293.21,1913.12 L1278.52,1885.85 L1278.52,1845.99 L1253.35,1833.41 L1226.08,1833.41 L1213.49,1778.86 L1171.53,1793.55 L1158.94,1766.28 L1146.36,1766.28 L1119.09,1726.42 L1131.67,1686.56 L1131.67,1659.29 L1158.94,1646.7 L1186.22,1606.84 L1213.49,1606.84 L1238.66,1554.39 L1265.93,1554.39 L1278.52,1527.12 L1293.21,1512.44 L1293.21,1472.58 L1253.35,1447.41 L1238.66,1447.41 L1238.66,1487.26 L1198.8,1527.12 L1186.22,1527.12 L1146.36,1487.26 L1131.67,1447.41 L1131.67,1407.55 L1171.53,1367.69 L1213.49,1367.69 L1226.08,1367.69 L1238.66,1340.42 L1226.08,1313.14 L1226.08,1287.97 L1213.49,1273.29 L1226.08,1248.11 L1198.8,1220.84 L1226.08,1193.57 L1253.35,1193.57 L1278.52,1180.98 L1305.79,1168.39 L1318.38,1168.39 L1333.06,1168.39 L1358.24,1101.26 L1358.24,1073.99 L1372.92,1061.4 L1385.51,1048.82 L1385.51,1034.13 L1412.78,1034.13 L1440.05,1034.13 L1465.23,1073.99 L1465.23,1101.26 L1479.91,1128.53 L1492.5,1128.53 L1532.36,1113.85 L1544.95,1101.26 L1544.95,1061.4 L1559.63,1048.82 L1572.22,1034.13 L1612.08,1034.13 L1666.62,1034.13 L1679.21,1034.13 L1719.07,1073.99 L1758.92,1073.99 L1786.2,1048.82 L1798.78,1048.82 L1811.37,1034.13 L1826.06,1008.96 L1865.91,994.273 L1865.91,954.415 L1905.77,941.828 L1918.36,901.969 L1893.19,889.382 L1893.19,874.697 L1838.64,849.523 L1865.91,809.664 L1838.64,794.979 L1893.19,742.533 L1905.77,715.262 L1933.04,727.849 L1958.22,715.262 L2012.76,727.849 L2037.94,755.12 L2037.94,767.707 L2079.89,794.979 L2119.75,794.979 L2105.07,742.533 L2132.34,727.849 L2172.2,767.707 L2239.33,742.533 L2239.33,727.849 L2266.6,687.99 L2291.77,662.816 L2291.77,648.131 L2266.6,622.957 L2251.92,583.098 L2279.19,568.413 L2291.77,543.239 L2306.46,528.555 L2331.63,488.696 L2331.63,476.109 L2358.9,463.522 L2358.9,423.663 L2346.32,408.978 L2358.9,369.119 L2358.9,356.532 L2371.49,329.26 L2358.9,304.086 L2358.9,289.402 L2346.32,249.543 L2358.9,236.956 L2319.05,184.51 L2346.32,157.238 L2371.49,157.238 L2411.35,184.51 L2411.35,209.684 L2426.04,264.228 L2465.89,264.228 L2478.48,264.228 L2518.34,276.815 L2533.03,264.228 L2558.2,276.815 L2598.06,249.543 L2585.47,184.51 L2585.47,117.379 L2572.88,117.379 L2572.88,77.5206 L2585.47,64.9336 L2625.33,37.6618 L2665.19,50.2488 L2677.78,90.1076 L2665.19,117.379 L2677.78,129.966 L2677.78,184.51 L2677.78,236.956 L2692.46,249.543 L2732.32,264.228 L2759.59,289.402 L2759.59,304.086 L2784.76,329.26 L2784.76,343.945 L2799.45,369.119 L2799.45,396.391 L2839.31,436.25 L2824.62,463.522 L2839.31,488.696 L2879.17,503.381 L2879.17,515.968 L2904.34,555.826 L2879.17,595.685 L2851.9,608.272 L2839.31,622.957 L2839.31,675.403 L2824.62,702.675 L2824.62,727.849 L2824.62,755.12 L2839.31,809.664 L2891.75,834.838 L2891.75,849.523 L2904.34,849.523 L2919.03,862.11 L2931.61,862.11 L2998.74,862.11 L3011.33,822.251 L3051.19,794.979 L3065.87,794.979 L3078.46,794.979 L3065.87,727.849 L3091.05,727.849 L3118.32,767.707 L3118.32,794.979 L3118.32,849.523 L3133.01,901.969 L3158.18,914.556 L3198.04,889.382 L3198.04,874.697 L3252.58,874.697 L3277.76,901.969 L3292.44,914.556 L3292.44,941.828 L3317.61,969.099 L3332.3,969.099 L3372.16,994.273 L3399.43,1034.13 L3439.29,1048.82 L3439.29,1061.4 L3479.15,1088.68 L3491.73,1141.12 L3491.73,1153.71 L3464.46,1168.39 L3439.29,1168.39 L3412.02,1180.98 L3384.74,1180.98 L3359.57,1193.57 L3344.89,1193.57 L3317.61,1180.98 L3305.03,1153.71 L3277.76,1141.12 L3265.17,1128.53 L3237.9,1101.26 L3212.72,1128.53 L3212.72,1168.39 L3172.86,1180.98 L3158.18,1208.25 L3118.32,1220.84 L3118.32,1233.43 L3133.01,1260.7 L3133.01,1287.97 L3145.59,1313.14 L3133.01,1340.42 L3145.59,1367.69 L3133.01,1392.86 L3145.59,1420.13 L3118.32,1447.41 L3118.32,1459.99 L3065.87,1512.44 L3051.19,1539.71 L3038.6,1579.57 L3026.02,1594.25 L3011.33,1634.11 L2986.16,1659.29 L2986.16,1686.56 L2946.3,1699.15 L2931.61,1726.42 L2904.34,1739 L2904.34,1766.28 L2879.17,1778.86 L2851.9,1778.86 L2839.31,1806.13 L2799.45,1806.13 L2784.76,1845.99 L2799.45,1858.58 L2851.9,1858.58 L2864.48,1858.58 L2904.34,1845.99 L2919.03,1845.99 L2931.61,1858.58 L2958.89,1873.27 L2971.47,1913.12 L2919.03,1925.71 L2904.34,1952.98 L2919.03,1965.57 L2958.89,1978.16 L2971.47,1978.16 L2986.16,1992.84 L2998.74,2057.87 L2971.47,2085.15 L2971.47,2112.42 L2946.3,2137.59 L2931.61,2164.86 L2919.03,2177.45 L2891.75,2217.31 L2851.9,2231.99 L2839.31,2244.58 L2812.04,2244.58 L2799.45,2244.58 L2744.91,2244.58 L2719.73,2259.27 L2692.46,2244.58 L2652.6,2271.85 L2637.92,2271.85 L2598.06,2299.13 L2558.2,2324.3 L2558.2,2364.16 L2545.61,2404.02 L2505.75,2404.02 L2493.17,2431.29 L2438.62,2418.7 L2411.35,2431.29 L2386.18,2418.7 L2346.32,2404.02 L2331.63,2391.43 L2291.77,2391.43 L2266.6,2378.84 L2251.92,2378.84 L2239.33,2364.16 L2212.06,2378.84 L2172.2,2364.16 L2159.61,2351.57 L2132.34,2338.98 L2105.07,2311.71 L2092.48,2311.71 L2065.21,2284.44 L2012.76,2299.13 L1998.08,2338.98 L1972.9,2351.57 L1933.04,2338.98 L1905.77,2338.98 L1893.19,2324.3 L1878.5,2324.3 L1838.64,2351.57 L1811.37,2324.3 L1798.78,2271.85 L1811.37,2259.27 L1826.06,2259.27 L1838.64,2244.58 L1853.33,2204.72 L1826.06,2177.45 L1771.51,2164.86 L1758.92,2125.01 L1771.51,2097.73 L1786.2,2057.87 L1771.51,2045.29 L1758.92,2045.29 L1706.48,2045.29 L1666.62,2057.87 L1639.35,2057.87 L1612.08,2072.56 L1572.22,2072.56 L1544.95,2018.02 L1519.77,2018.02 L1505.09,1992.84 L1492.5,1978.16 L1465.23,1952.98 L1425.37,1913.12 L1385.51,1925.71 L1385.51,1952.98 L1345.65,1965.57 L1333.06,1913.12 M2037.94,1273.29 L2025.35,1273.29 L2025.35,1327.83 L2012.76,1327.83 L2012.76,1380.27 L2025.35,1392.86 L2037.94,1407.55 L2065.21,1447.41 L2079.89,1447.41 L2092.48,1432.72 L2105.07,1367.69 L2092.48,1353 L2092.48,1340.42 L2105.07,1313.14 L2105.07,1287.97 L2119.75,1287.97 L2105.07,1220.84 L2092.48,1208.25 L2037.94,1233.43 L2037.94,1273.29 M2904.34,1113.85 L2946.3,1113.85 L2971.47,1088.68 L2958.89,1048.82 L2931.61,1034.13 L2904.34,1048.82 L2891.75,1073.99 L2904.34,1113.85" vector-effect="none"/>
   <path fill-rule="evenodd" d="M1758.92,675.403 L1758.92,662.816 L1811.37,635.544 L1838.64,662.816 L1838.64,687.99 L1811.37,715.262 L1771.51,702.675 L1758.92,675.403" vector-effect="none"/>
  </g>
  <g stroke-linejoin="bevel" transform="matrix(0.999751,0,0,0.999751,0,0)" font-weight="400" font-style="normal" fill="none" stroke="#000000" stroke-width="1" stroke-linecap="square" font-size="32.5" font-family="MS Shell Dlg 2" stroke-opacity="1"/>
  <g stroke-linejoin="bevel" transform="matrix(11.8081,0,0,11.8081,0,0)" font-weight="400" font-style="normal" fill="none" stroke="#000000" stroke-width="1" stroke-linecap="square" font-size="32.5" font-family="MS Shell Dlg 2" stroke-opacity="1"/>
  <g stroke-linejoin="bevel" transform="matrix(11.8081,0,0,11.8081,0,0)" font-weight="400" font-style="normal" fill="none" stroke="#000000" stroke-width="1" stroke-linecap="square" font-size="32.5" font-family="MS Shell Dlg 2" stroke-opacity="1"/>
  <g stroke-linejoin="bevel" transform="matrix(11.8081,0,0,11.8081,0,0)" font-weight="400" font-style="normal" fill="none" stroke="#000000" stroke-width="1" stroke-linecap="square" font-size="32.5" font-family="MS Shell Dlg 2" stroke-opacity="1"/>
  <g stroke-linejoin="bevel" transform="matrix(1,0,0,1,0,0)" font-weight="400" font-style="normal" fill="none" stroke="#000000" stroke-width="1" stroke-linecap="square" font-size="32.5" font-family="MS Shell Dlg 2" stroke-opacity="1"/>
  <g stroke-linejoin="bevel" transform="matrix(11.8081,0,0,11.8081,0,0)" font-weight="400" font-style="normal" fill="none" stroke="#000000" stroke-width="1" stroke-linecap="square" font-size="32.5" font-family="MS Shell Dlg 2" stroke-opacity="1"/>
  <g stroke-linejoin="bevel" transform="matrix(11.8081,0,0,11.8081,0,0)" font-weight="400" font-style="normal" fill="none" stroke="#000000" stroke-width="1" stroke-linecap="square" font-size="32.5" font-family="MS Shell Dlg 2" stroke-opacity="1"/>
  <g stroke-linejoin="bevel" transform="matrix(1,0,0,1,0,0)" font-weight="400" font-style="normal" fill="none" stroke="#000000" stroke-width="1" stroke-linecap="square" font-size="32.5" font-family="MS Shell Dlg 2" stroke-opacity="1"/>
 </g>
 <defs/>
 <g stroke-linejoin="bevel" inkscape:label="Map 1: GuineveresConquestLand (Labels)" inkscape:groupmode="layer" fill="none" stroke="black" fill-rule="evenodd" stroke-width="1" stroke-linecap="square" id="Map 1: GuineveresConquestLand (Labels)">
  <g stroke-linejoin="bevel" transform="matrix(1,0,0,1,0,0)" font-weight="400" font-style="normal" fill="none" stroke="#000000" stroke-width="1" stroke-linecap="square" font-size="32.5" font-family="MS Shell Dlg 2" stroke-opacity="1"/>
  <g stroke-linejoin="bevel" transform="matrix(1,0,0,1,0,0)" font-weight="400" font-style="normal" fill="none" stroke="#000000" stroke-width="1" stroke-linecap="square" font-size="32.5" font-family="MS Shell Dlg 2" stroke-opacity="1"/>
  <g stroke-linejoin="bevel" transform="matrix(11.8081,0,0,11.8081,0,0)" font-weight="400" font-style="normal" fill="none" stroke="#000000" stroke-width="1" stroke-linecap="square" font-size="32.5" font-family="MS Shell Dlg 2" stroke-opacity="1"/>
  <g stroke-linejoin="bevel" transform="matrix(11.8081,0,0,11.8081,0,0)" font-weight="400" font-style="normal" fill="none" stroke="#000000" stroke-width="1" stroke-linecap="square" font-size="32.5" font-family="MS Shell Dlg 2" stroke-opacity="1"/>
  <g transform="matrix(0.999751,0,0,0.999751,0,0)" font-weight="400" font-style="normal" fill="#000000" stroke="none" fill-opacity="0" font-size="32.5" font-family="MS Shell Dlg 2">
   <rect height="2480" x="0" width="3508" y="0"/>
  </g>
  <g stroke-linejoin="bevel" transform="matrix(0.999751,0,0,0.999751,0,0)" font-weight="400" font-style="normal" fill="none" stroke="#000000" stroke-width="1" stroke-linecap="square" font-size="32.5" font-family="MS Shell Dlg 2" stroke-opacity="1"/>
  <g stroke-linejoin="bevel" transform="matrix(0.3999,0,0,0.3999,2085.75,1427.3)" font-weight="400" font-style="normal" fill="none" stroke="#000000" stroke-width="1" stroke-linecap="square" font-size="32.5" font-family="MS Shell Dlg 2" stroke-opacity="1"/>
  <g transform="matrix(0.999751,0,0,0.999751,2085.75,1427.3)" font-weight="400" font-style="normal" fill="#323232" stroke="none" fill-opacity="1" font-size="32.5" font-family="MS Shell Dlg 2">
   <path fill-rule="nonzero" d="M12.81,-2.772 C14.126,-2.772 15.498,-3.164 16.926,-3.948 L16.926,-7.392 C16.926,-8.036 16.87,-8.974 16.758,-10.206 C15.778,-10.486 14.504,-10.766 12.936,-11.046 L13.062,-11.928 C13.706,-11.844 14.322,-11.802 14.91,-11.802 C17.374,-11.802 19.628,-12.488 21.672,-13.86 L22.05,-13.104 C21.406,-12.6 20.902,-12.096 20.538,-11.592 C20.006,-6.72 19.726,-2.17 19.698,2.058 C18.886,3.542 17.549,4.97 15.687,6.342 C13.825,7.714 12.124,8.4 10.584,8.4 C10.164,8.4 9.814,8.288 9.534,8.064 C9.254,7.84 9.114,7.532 9.114,7.14 C9.926,6.524 10.612,5.81 11.172,4.998 L11.466,4.956 C12.082,5.432 12.796,5.67 13.608,5.67 C14.42,5.67 14.98,5.586 15.288,5.418 C16.436,3.878 17.01,1.358 17.01,-2.142 C15.47,-0.938 13.762,-0.014 11.886,0.63 C8.526,0.63 5.999,-0.427 4.305,-2.541 C2.611,-4.655 1.764,-7.581 1.764,-11.319 C1.764,-15.057 2.793,-18.529 4.851,-21.735 C6.909,-24.941 9.674,-27.02 13.146,-27.972 C16.058,-27.972 18.984,-27.706 21.924,-27.174 L21.882,-26.25 C21.182,-26.25 20.51,-26.124 19.866,-25.872 C19.11,-24.108 18.648,-22.134 18.48,-19.95 L17.43,-19.95 C17.178,-21.098 17.052,-22.4 17.052,-23.856 C15.736,-24.584 14.126,-24.948 12.222,-24.948 C10.318,-24.948 8.792,-24.472 7.644,-23.52 C6.216,-21.084 5.502,-17.99 5.502,-14.238 C5.502,-6.594 7.938,-2.772 12.81,-2.772 M42.362,-11.928 L42.362,-9.954 C42.362,-6.118 42.502,-3.248 42.782,-1.344 C44.07,-1.176 45.134,-0.98 45.974,-0.756 L45.848,0.294 C44.476,0.098 43.069,0 41.627,0 C40.185,0 39.198,0.042 38.666,0.126 L38.498,-0.42 C38.75,-0.7 38.918,-1.498 39.002,-2.814 C37.546,-1.302 35.866,-0.196 33.962,0.504 C29.146,0.504 26.738,-2.366 26.738,-8.106 C26.738,-9.366 26.836,-11.382 27.032,-14.154 C27.228,-16.926 27.326,-18.55 27.326,-19.026 C27.326,-19.502 27.242,-19.964 27.074,-20.412 L27.074,-20.454 C25.898,-20.65 24.96,-20.86 24.26,-21.084 L24.428,-22.218 C26.052,-21.994 27.522,-21.882 28.838,-21.882 C30.154,-21.882 31.232,-21.952 32.072,-22.092 L32.24,-21.378 C31.232,-20.846 30.644,-19.88 30.476,-18.48 C30.14,-15.792 29.972,-13.034 29.972,-10.206 C29.972,-7.378 30.301,-5.369 30.959,-4.179 C31.617,-2.989 32.849,-2.394 34.655,-2.394 C36.461,-2.394 37.924,-2.912 39.044,-3.948 C39.156,-6.188 39.212,-8.834 39.212,-11.886 C39.212,-14.938 39.1,-17.808 38.876,-20.496 C37.616,-20.636 36.454,-20.846 35.39,-21.126 L35.516,-22.176 C36.972,-21.98 38.603,-21.882 40.409,-21.882 C42.215,-21.882 43.832,-21.994 45.26,-22.218 L45.428,-21.126 C44.644,-20.874 43.762,-20.664 42.782,-20.496 C42.502,-18.62 42.362,-15.764 42.362,-11.928 M55.4,-20.496 C55.176,-18.984 55.064,-15.89 55.064,-11.214 C55.064,-6.538 55.19,-3.262 55.442,-1.386 C56.702,-1.246 57.864,-1.036 58.928,-0.756 L58.802,0.294 C57.346,0.098 55.715,0 53.909,0 C52.103,0 50.486,0.112 49.058,0.336 L48.89,-0.756 C49.674,-1.008 50.556,-1.218 51.536,-1.386 C51.788,-3.402 51.914,-6.258 51.914,-9.954 L51.914,-11.928 C51.914,-15.624 51.774,-18.48 51.494,-20.496 C50.514,-20.664 49.632,-20.874 48.848,-21.126 L49.016,-22.218 C50.444,-21.994 52.061,-21.882 53.867,-21.882 C55.673,-21.882 57.304,-21.98 58.76,-22.176 L58.886,-21.126 C57.822,-20.846 56.66,-20.636 55.4,-20.496 M71.928,0.294 C70.472,0.098 68.841,0 67.035,0 C65.229,0 63.612,0.112 62.184,0.336 L62.016,-0.756 C62.912,-1.036 63.752,-1.246 64.536,-1.386 C64.788,-3.57 64.914,-6.426 64.914,-9.954 L64.914,-11.928 C64.914,-15.68 64.774,-18.564 64.494,-20.58 C63.738,-20.664 62.828,-20.888 61.764,-21.252 L61.89,-22.344 C63.486,-22.036 65.159,-21.882 66.909,-21.882 C68.659,-21.882 69.912,-21.98 70.668,-22.176 L70.752,-21.462 C69.996,-21.266 69.618,-20.944 69.618,-20.496 C69.618,-20.16 69.947,-19.453 70.605,-18.375 C71.263,-17.297 71.9,-16.254 72.516,-15.246 C74.364,-12.306 76.548,-8.694 79.068,-4.41 L79.194,-4.494 L79.194,-9.618 C79.194,-13.37 78.998,-16.191 78.606,-18.081 C78.214,-19.971 77.542,-21.07 76.59,-21.378 L76.674,-22.092 C77.402,-21.952 78.494,-21.882 79.95,-21.882 C81.406,-21.882 82.904,-22.036 84.444,-22.344 L84.57,-21.252 C83.422,-20.888 82.456,-20.664 81.672,-20.58 C81.392,-18.34 81.252,-15.456 81.252,-11.928 L81.252,-9.954 C81.252,-5.698 81.392,-2.814 81.672,-1.302 C82.848,-1.106 83.786,-0.882 84.486,-0.63 L84.36,0.462 C82.96,0.154 81.644,0 80.412,0 C79.18,0 78.228,0.056 77.556,0.168 C77.556,-0.448 77.129,-1.484 76.275,-2.94 C75.421,-4.396 74.644,-5.684 73.944,-6.804 C71.676,-10.472 69.45,-14.196 67.266,-17.976 L67.098,-17.892 L67.098,-12.264 C67.098,-6.692 67.518,-3.066 68.358,-1.386 C69.618,-1.246 70.85,-1.036 72.054,-0.756 L71.928,0.294 M91.502,-10.374 C91.586,-7.882 92.048,-5.936 92.888,-4.536 C93.728,-3.136 95.156,-2.436 97.172,-2.436 C99.188,-2.436 101.05,-3.29 102.758,-4.998 L103.346,-4.41 C101.47,-2.03 99.216,-0.392 96.584,0.504 C93.868,0.504 91.74,-0.357 90.2,-2.079 C88.66,-3.801 87.89,-6.125 87.89,-9.051 C87.89,-11.977 88.8,-14.728 90.62,-17.304 C92.44,-19.88 94.764,-21.574 97.592,-22.386 C99.636,-22.386 101.946,-22.176 104.522,-21.756 L104.48,-20.832 C103.948,-20.832 103.444,-20.734 102.968,-20.538 C102.436,-19.278 102.086,-17.78 101.918,-16.044 L100.868,-16.044 C100.644,-16.996 100.532,-17.976 100.532,-18.984 C99.468,-19.516 98.208,-19.782 96.752,-19.782 C95.296,-19.782 94.092,-19.39 93.14,-18.606 C92.188,-16.87 91.642,-14.798 91.502,-12.39 C92.678,-12.194 93.938,-12.096 95.282,-12.096 C97.606,-12.096 99.006,-12.586 99.482,-13.566 L100.364,-13.44 C100.112,-12.6 99.986,-11.774 99.986,-10.962 C99.986,-10.15 100.084,-9.156 100.28,-7.98 L99.272,-7.812 C98.964,-8.652 98.74,-9.52 98.6,-10.416 C97.48,-10.528 96.367,-10.584 95.261,-10.584 C94.155,-10.584 92.902,-10.514 91.502,-10.374 M119.826,0.252 C118.622,0.084 117.117,0 115.311,0 C113.505,0 112.196,0.056 111.384,0.168 L111.258,-0.504 C111.51,-0.56 111.755,-0.707 111.993,-0.945 C112.231,-1.183 112.35,-1.4 112.35,-1.596 C112.35,-3.192 110.88,-8.582 107.94,-17.766 C107.548,-18.998 107.212,-19.894 106.932,-20.454 C106.008,-20.566 105,-20.79 103.908,-21.126 L104.076,-22.218 C105.196,-21.994 106.806,-21.882 108.906,-21.882 C111.006,-21.882 112.728,-21.994 114.072,-22.218 L114.24,-21.168 C112.728,-20.832 111.692,-20.622 111.132,-20.538 C111.328,-18.69 111.909,-15.96 112.875,-12.348 C113.841,-8.736 114.884,-5.39 116.004,-2.31 C117.88,-6.482 119.133,-9.646 119.763,-11.802 C120.393,-13.958 120.708,-15.932 120.708,-17.724 C120.708,-19.516 120.134,-20.72 118.986,-21.336 L119.154,-22.05 C119.994,-21.91 121.065,-21.84 122.367,-21.84 C123.669,-21.84 125.132,-21.952 126.756,-22.176 L126.924,-21.084 C125.972,-20.776 125.076,-20.552 124.236,-20.412 C124.348,-19.572 124.404,-18.809 124.404,-18.123 C124.404,-17.437 124.299,-16.611 124.089,-15.645 C123.879,-14.679 123.396,-13.356 122.64,-11.676 C121.66,-9.604 119.896,-6.174 117.348,-1.386 C117.908,-1.33 118.804,-1.092 120.036,-0.672 L119.826,0.252 M131.502,-10.374 C131.586,-7.882 132.048,-5.936 132.888,-4.536 C133.728,-3.136 135.156,-2.436 137.172,-2.436 C139.188,-2.436 141.05,-3.29 142.758,-4.998 L143.346,-4.41 C141.47,-2.03 139.216,-0.392 136.584,0.504 C133.868,0.504 131.74,-0.357 130.2,-2.079 C128.66,-3.801 127.89,-6.125 127.89,-9.051 C127.89,-11.977 128.8,-14.728 130.62,-17.304 C132.44,-19.88 134.764,-21.574 137.592,-22.386 C139.636,-22.386 141.946,-22.176 144.522,-21.756 L144.48,-20.832 C143.948,-20.832 143.444,-20.734 142.968,-20.538 C142.436,-19.278 142.086,-17.78 141.918,-16.044 L140.868,-16.044 C140.644,-16.996 140.532,-17.976 140.532,-18.984 C139.468,-19.516 138.208,-19.782 136.752,-19.782 C135.296,-19.782 134.092,-19.39 133.14,-18.606 C132.188,-16.87 131.642,-14.798 131.502,-12.39 C132.678,-12.194 133.938,-12.096 135.282,-12.096 C137.606,-12.096 139.006,-12.586 139.482,-13.566 L140.364,-13.44 C140.112,-12.6 139.986,-11.774 139.986,-10.962 C139.986,-10.15 140.084,-9.156 140.28,-7.98 L139.272,-7.812 C138.964,-8.652 138.74,-9.52 138.6,-10.416 C137.48,-10.528 136.367,-10.584 135.261,-10.584 C134.155,-10.584 132.902,-10.514 131.502,-10.374 M146.806,-21.798 L156.466,-22.092 C158.986,-22.092 160.876,-21.721 162.136,-20.979 C163.396,-20.237 164.026,-18.886 164.026,-16.926 C164.026,-15.582 163.613,-14.392 162.787,-13.356 C161.961,-12.32 160.876,-11.55 159.532,-11.046 L164.236,-1.428 C165.188,-1.26 166.084,-1.064 166.924,-0.84 L166.756,0.294 C165.58,0.098 164.257,0 162.787,0 C161.317,0 160.162,0.07 159.322,0.21 L159.154,-0.462 C159.518,-0.826 159.7,-1.428 159.7,-2.268 C159.7,-3.976 158.72,-6.72 156.76,-10.5 C156.172,-10.612 155.486,-10.668 154.702,-10.668 L154.786,-11.886 L155.206,-11.886 C158.51,-11.886 160.162,-13.398 160.162,-16.422 C160.162,-19.222 158.748,-20.622 155.92,-20.622 C154.968,-20.622 154.114,-20.468 153.358,-20.16 C153.162,-18.312 153.064,-15.148 153.064,-10.668 C153.064,-6.188 153.19,-3.094 153.442,-1.386 C154.674,-1.246 155.822,-1.036 156.886,-0.756 L156.76,0.294 C155.304,0.098 153.673,0 151.867,0 C150.061,0 148.444,0.112 147.016,0.336 L146.848,-0.756 C147.632,-1.008 148.514,-1.218 149.494,-1.386 C149.774,-3.486 149.914,-6.755 149.914,-11.193 C149.914,-15.631 149.788,-18.704 149.536,-20.412 C148.444,-20.776 147.534,-20.958 146.806,-20.958 L146.806,-21.798 M172.502,-10.374 C172.586,-7.882 173.048,-5.936 173.888,-4.536 C174.728,-3.136 176.156,-2.436 178.172,-2.436 C180.188,-2.436 182.05,-3.29 183.758,-4.998 L184.346,-4.41 C182.47,-2.03 180.216,-0.392 177.584,0.504 C174.868,0.504 172.74,-0.357 171.2,-2.079 C169.66,-3.801 168.89,-6.125 168.89,-9.051 C168.89,-11.977 169.8,-14.728 171.62,-17.304 C173.44,-19.88 175.764,-21.574 178.592,-22.386 C180.636,-22.386 182.946,-22.176 185.522,-21.756 L185.48,-20.832 C184.948,-20.832 184.444,-20.734 183.968,-20.538 C183.436,-19.278 183.086,-17.78 182.918,-16.044 L181.868,-16.044 C181.644,-16.996 181.532,-17.976 181.532,-18.984 C180.468,-19.516 179.208,-19.782 177.752,-19.782 C176.296,-19.782 175.092,-19.39 174.14,-18.606 C173.188,-16.87 172.642,-14.798 172.502,-12.39 C173.678,-12.194 174.938,-12.096 176.282,-12.096 C178.606,-12.096 180.006,-12.586 180.482,-13.566 L181.364,-13.44 C181.112,-12.6 180.986,-11.774 180.986,-10.962 C180.986,-10.15 181.084,-9.156 181.28,-7.98 L180.272,-7.812 C179.964,-8.652 179.74,-9.52 179.6,-10.416 C178.48,-10.528 177.367,-10.584 176.261,-10.584 C175.155,-10.584 173.902,-10.514 172.502,-10.374 M188.646,-27.258 C188.982,-27.426 189.486,-27.587 190.158,-27.741 C190.83,-27.895 191.271,-27.972 191.481,-27.972 C191.691,-27.972 191.824,-27.972 191.88,-27.972 L192.384,-27.426 C191.516,-25.186 190.872,-22.12 190.452,-18.228 L189.192,-18.144 L188.646,-27.258 M198.662,-3.192 C199.95,-2.66 201.224,-2.394 202.484,-2.394 C203.744,-2.394 204.752,-2.688 205.508,-3.276 C206.264,-3.864 206.642,-4.704 206.642,-5.796 C206.642,-6.916 205.06,-8.302 201.896,-9.954 C200.692,-10.57 199.593,-11.319 198.599,-12.201 C197.605,-13.083 197.108,-13.958 197.108,-14.826 C197.108,-16.31 197.892,-17.808 199.46,-19.32 C201.028,-20.832 202.638,-21.854 204.29,-22.386 C206.362,-22.386 208.238,-22.176 209.918,-21.756 L209.918,-21 C208.742,-19.824 208.084,-18.214 207.944,-16.17 L206.894,-16.17 C206.894,-16.954 206.824,-17.934 206.684,-19.11 C205.704,-19.558 204.654,-19.782 203.534,-19.782 C202.414,-19.782 201.483,-19.537 200.741,-19.047 C199.999,-18.557 199.628,-17.85 199.628,-16.926 C199.628,-16.282 200.125,-15.582 201.119,-14.826 C202.113,-14.07 203.198,-13.398 204.374,-12.81 C205.55,-12.222 206.635,-11.494 207.629,-10.626 C208.623,-9.758 209.12,-8.89 209.12,-8.022 C209.12,-6.342 208.378,-4.669 206.894,-3.003 C205.41,-1.337 203.772,-0.168 201.98,0.504 C200.216,0.504 198.564,0.294 197.024,-0.126 C196.576,0.07 196.114,0.392 195.638,0.84 L194.882,0.294 C196.45,-1.414 197.318,-3.528 197.486,-6.048 L198.536,-6.048 C198.536,-5.068 198.578,-4.116 198.662,-3.192 M227.476,-1.47 C227.98,-0.63 228.687,0.063 229.597,0.609 C230.507,1.155 231.571,1.428 232.789,1.428 C234.007,1.428 235.239,1.071 236.485,0.357 C237.731,-0.357 238.774,-1.246 239.614,-2.31 L240.202,-1.722 C238.158,1.47 235.386,3.654 231.886,4.83 C229.478,4.83 227.504,4.214 225.964,2.982 C224.424,1.75 223.339,0.168 222.709,-1.764 C222.079,-3.696 221.764,-6.076 221.764,-8.904 C221.764,-11.732 222.121,-14.413 222.835,-16.947 C223.549,-19.481 224.788,-21.763 226.552,-23.793 C228.316,-25.823 230.514,-27.216 233.146,-27.972 C235.974,-27.972 238.858,-27.706 241.798,-27.174 L241.756,-26.25 C241.028,-26.25 240.356,-26.124 239.74,-25.872 C239.04,-24.22 238.578,-22.246 238.354,-19.95 L237.304,-19.95 C237.052,-21.266 236.926,-22.526 236.926,-23.73 C235.442,-24.542 233.811,-24.948 232.033,-24.948 C230.255,-24.948 228.792,-24.416 227.644,-23.352 C226.216,-20.468 225.502,-16.758 225.502,-12.222 C225.502,-7.154 226.16,-3.57 227.476,-1.47 M252.046,0.504 C249.274,0.504 247.034,-0.371 245.326,-2.121 C243.618,-3.871 242.764,-6.216 242.764,-9.156 C242.764,-12.096 243.66,-14.854 245.452,-17.43 C247.244,-20.006 249.582,-21.658 252.466,-22.386 C255.35,-22.386 257.548,-21.567 259.06,-19.929 C260.572,-18.291 261.328,-15.96 261.328,-12.936 C261.328,-9.912 260.509,-7.182 258.871,-4.746 C257.233,-2.31 254.958,-0.56 252.046,0.504 M251.332,-19.824 C250.072,-19.824 248.98,-19.474 248.056,-18.774 C246.908,-16.814 246.334,-14.35 246.334,-11.382 C246.334,-7.966 247.286,-5.348 249.19,-3.528 C250.198,-2.548 251.388,-2.058 252.76,-2.058 C254.132,-2.058 255.238,-2.422 256.078,-3.15 C257.198,-5.11 257.758,-7.504 257.758,-10.332 C257.758,-13.16 257.254,-15.449 256.246,-17.199 C255.238,-18.949 253.6,-19.824 251.332,-19.824 M274.928,0.294 C273.472,0.098 271.841,0 270.035,0 C268.229,0 266.612,0.112 265.184,0.336 L265.016,-0.756 C265.912,-1.036 266.752,-1.246 267.536,-1.386 C267.788,-3.57 267.914,-6.426 267.914,-9.954 L267.914,-11.928 C267.914,-15.68 267.774,-18.564 267.494,-20.58 C266.738,-20.664 265.828,-20.888 264.764,-21.252 L264.89,-22.344 C266.486,-22.036 268.159,-21.882 269.909,-21.882 C271.659,-21.882 272.912,-21.98 273.668,-22.176 L273.752,-21.462 C272.996,-21.266 272.618,-20.944 272.618,-20.496 C272.618,-20.16 272.947,-19.453 273.605,-18.375 C274.263,-17.297 274.9,-16.254 275.516,-15.246 C277.364,-12.306 279.548,-8.694 282.068,-4.41 L282.194,-4.494 L282.194,-9.618 C282.194,-13.37 281.998,-16.191 281.606,-18.081 C281.214,-19.971 280.542,-21.07 279.59,-21.378 L279.674,-22.092 C280.402,-21.952 281.494,-21.882 282.95,-21.882 C284.406,-21.882 285.904,-22.036 287.444,-22.344 L287.57,-21.252 C286.422,-20.888 285.456,-20.664 284.672,-20.58 C284.392,-18.34 284.252,-15.456 284.252,-11.928 L284.252,-9.954 C284.252,-5.698 284.392,-2.814 284.672,-1.302 C285.848,-1.106 286.786,-0.882 287.486,-0.63 L287.36,0.462 C285.96,0.154 284.644,0 283.412,0 C282.18,0 281.228,0.056 280.556,0.168 C280.556,-0.448 280.129,-1.484 279.275,-2.94 C278.421,-4.396 277.644,-5.684 276.944,-6.804 C274.676,-10.472 272.45,-14.196 270.266,-17.976 L270.098,-17.892 L270.098,-12.264 C270.098,-6.692 270.518,-3.066 271.358,-1.386 C272.618,-1.246 273.85,-1.036 275.054,-0.756 L274.928,0.294 M299.29,0.462 C296.742,0.294 294.684,-0.644 293.116,-2.352 C291.548,-4.06 290.764,-6.356 290.764,-9.24 C290.764,-12.124 291.66,-14.854 293.452,-17.43 C295.244,-20.006 297.582,-21.658 300.466,-22.386 C303.35,-22.386 305.548,-21.567 307.06,-19.929 C308.572,-18.291 309.328,-16.009 309.328,-13.083 C309.328,-10.157 308.593,-7.511 307.123,-5.145 C305.653,-2.779 303.602,-1.022 300.97,0.126 C302.034,0.154 303.714,0.672 306.01,1.68 C308.306,2.688 309.762,3.276 310.378,3.444 C311.274,3.108 312.1,2.716 312.856,2.268 L313.36,3.024 C312.044,3.976 310.854,5.446 309.79,7.434 C305.562,4.354 302.062,2.814 299.29,2.814 C297.946,2.814 296.742,3.22 295.678,4.032 L294.964,3.36 C296.14,2.128 297.582,1.162 299.29,0.462 M299.332,-19.824 C298.072,-19.824 296.98,-19.474 296.056,-18.774 C294.908,-16.814 294.334,-14.35 294.334,-11.382 C294.334,-7.966 295.286,-5.348 297.19,-3.528 C298.198,-2.548 299.388,-2.058 300.76,-2.058 C302.132,-2.058 303.238,-2.422 304.078,-3.15 C305.198,-5.11 305.758,-7.504 305.758,-10.332 C305.758,-13.16 305.254,-15.449 304.246,-17.199 C303.238,-18.949 301.6,-19.824 299.332,-19.824 M330.362,-11.928 L330.362,-9.954 C330.362,-6.118 330.502,-3.248 330.782,-1.344 C332.07,-1.176 333.134,-0.98 333.974,-0.756 L333.848,0.294 C332.476,0.098 331.069,0 329.627,0 C328.185,0 327.198,0.042 326.666,0.126 L326.498,-0.42 C326.75,-0.7 326.918,-1.498 327.002,-2.814 C325.546,-1.302 323.866,-0.196 321.962,0.504 C317.146,0.504 314.738,-2.366 314.738,-8.106 C314.738,-9.366 314.836,-11.382 315.032,-14.154 C315.228,-16.926 315.326,-18.55 315.326,-19.026 C315.326,-19.502 315.242,-19.964 315.074,-20.412 L315.074,-20.454 C313.898,-20.65 312.96,-20.86 312.26,-21.084 L312.428,-22.218 C314.052,-21.994 315.522,-21.882 316.838,-21.882 C318.154,-21.882 319.232,-21.952 320.072,-22.092 L320.24,-21.378 C319.232,-20.846 318.644,-19.88 318.476,-18.48 C318.14,-15.792 317.972,-13.034 317.972,-10.206 C317.972,-7.378 318.301,-5.369 318.959,-4.179 C319.617,-2.989 320.849,-2.394 322.655,-2.394 C324.461,-2.394 325.924,-2.912 327.044,-3.948 C327.156,-6.188 327.212,-8.834 327.212,-11.886 C327.212,-14.938 327.1,-17.808 326.876,-20.496 C325.616,-20.636 324.454,-20.846 323.39,-21.126 L323.516,-22.176 C324.972,-21.98 326.603,-21.882 328.409,-21.882 C330.215,-21.882 331.832,-21.994 333.26,-22.218 L333.428,-21.126 C332.644,-20.874 331.762,-20.664 330.782,-20.496 C330.502,-18.62 330.362,-15.764 330.362,-11.928 M340.502,-10.374 C340.586,-7.882 341.048,-5.936 341.888,-4.536 C342.728,-3.136 344.156,-2.436 346.172,-2.436 C348.188,-2.436 350.05,-3.29 351.758,-4.998 L352.346,-4.41 C350.47,-2.03 348.216,-0.392 345.584,0.504 C342.868,0.504 340.74,-0.357 339.2,-2.079 C337.66,-3.801 336.89,-6.125 336.89,-9.051 C336.89,-11.977 337.8,-14.728 339.62,-17.304 C341.44,-19.88 343.764,-21.574 346.592,-22.386 C348.636,-22.386 350.946,-22.176 353.522,-21.756 L353.48,-20.832 C352.948,-20.832 352.444,-20.734 351.968,-20.538 C351.436,-19.278 351.086,-17.78 350.918,-16.044 L349.868,-16.044 C349.644,-16.996 349.532,-17.976 349.532,-18.984 C348.468,-19.516 347.208,-19.782 345.752,-19.782 C344.296,-19.782 343.092,-19.39 342.14,-18.606 C341.188,-16.87 340.642,-14.798 340.502,-12.39 C341.678,-12.194 342.938,-12.096 344.282,-12.096 C346.606,-12.096 348.006,-12.586 348.482,-13.566 L349.364,-13.44 C349.112,-12.6 348.986,-11.774 348.986,-10.962 C348.986,-10.15 349.084,-9.156 349.28,-7.98 L348.272,-7.812 C347.964,-8.652 347.74,-9.52 347.6,-10.416 C346.48,-10.528 345.367,-10.584 344.261,-10.584 C343.155,-10.584 341.902,-10.514 340.502,-10.374 M358.662,-3.192 C359.95,-2.66 361.224,-2.394 362.484,-2.394 C363.744,-2.394 364.752,-2.688 365.508,-3.276 C366.264,-3.864 366.642,-4.704 366.642,-5.796 C366.642,-6.916 365.06,-8.302 361.896,-9.954 C360.692,-10.57 359.593,-11.319 358.599,-12.201 C357.605,-13.083 357.108,-13.958 357.108,-14.826 C357.108,-16.31 357.892,-17.808 359.46,-19.32 C361.028,-20.832 362.638,-21.854 364.29,-22.386 C366.362,-22.386 368.238,-22.176 369.918,-21.756 L369.918,-21 C368.742,-19.824 368.084,-18.214 367.944,-16.17 L366.894,-16.17 C366.894,-16.954 366.824,-17.934 366.684,-19.11 C365.704,-19.558 364.654,-19.782 363.534,-19.782 C362.414,-19.782 361.483,-19.537 360.741,-19.047 C359.999,-18.557 359.628,-17.85 359.628,-16.926 C359.628,-16.282 360.125,-15.582 361.119,-14.826 C362.113,-14.07 363.198,-13.398 364.374,-12.81 C365.55,-12.222 366.635,-11.494 367.629,-10.626 C368.623,-9.758 369.12,-8.89 369.12,-8.022 C369.12,-6.342 368.378,-4.669 366.894,-3.003 C365.41,-1.337 363.772,-0.168 361.98,0.504 C360.216,0.504 358.564,0.294 357.024,-0.126 C356.576,0.07 356.114,0.392 355.638,0.84 L354.882,0.294 C356.45,-1.414 357.318,-3.528 357.486,-6.048 L358.536,-6.048 C358.536,-5.068 358.578,-4.116 358.662,-3.192 M387.54,-19.614 C386.56,-20.09 385.622,-20.328 384.726,-20.328 C383.83,-20.328 383.228,-20.272 382.92,-20.16 C382.696,-18.648 382.584,-15.722 382.584,-11.382 C382.584,-7.042 382.738,-3.71 383.046,-1.386 C384.306,-1.246 385.468,-1.036 386.532,-0.756 L386.406,0.294 C384.95,0.098 383.277,0 381.387,0 C379.497,0 377.838,0.112 376.41,0.336 L376.242,-0.756 C376.802,-0.924 377.768,-1.134 379.14,-1.386 C379.392,-3.402 379.518,-6.258 379.518,-9.954 L379.518,-11.928 C379.518,-13.888 379.364,-16.632 379.056,-20.16 C378.748,-20.272 378.174,-20.328 377.334,-20.328 C376.494,-20.328 375.598,-20.132 374.646,-19.74 C374.366,-18.872 374.17,-17.71 374.058,-16.254 L372.966,-16.254 C372.966,-18.55 372.588,-20.328 371.832,-21.588 L372.042,-22.302 C374.198,-22.022 377.222,-21.882 381.114,-21.882 C385.006,-21.882 388.142,-22.036 390.522,-22.344 L390.774,-21.546 C390.074,-20.762 389.598,-19.999 389.346,-19.257 C389.094,-18.515 388.94,-17.514 388.884,-16.254 L387.834,-16.254 C387.638,-17.178 387.54,-18.298 387.54,-19.614 " vector-effect="none"/>
  </g>
  <g stroke-linejoin="bevel" transform="matrix(0.3999,0,0,0.3999,2085.75,1427.3)" font-weight="400" font-style="normal" fill="none" stroke="#000000" stroke-width="1" stroke-linecap="square" font-size="32.5" font-family="MS Shell Dlg 2" stroke-opacity="1"/>
  <g stroke-linejoin="bevel" transform="matrix(0.999751,0,0,0.999751,0,0)" font-weight="400" font-style="normal" fill="none" stroke="#000000" stroke-width="1" stroke-linecap="square" font-size="32.5" font-family="MS Shell Dlg 2" stroke-opacity="1"/>
  <g stroke-linejoin="bevel" transform="matrix(11.8081,0,0,11.8081,0,0)" font-weight="400" font-style="normal" fill="none" stroke="#000000" stroke-width="1" stroke-linecap="square" font-size="32.5" font-family="MS Shell Dlg 2" stroke-opacity="1"/>
  <g stroke-linejoin="bevel" transform="matrix(11.8081,0,0,11.8081,0,0)" font-weight="400" font-style="normal" fill="none" stroke="#000000" stroke-width="1" stroke-linecap="square" font-size="32.5" font-family="MS Shell Dlg 2" stroke-opacity="1"/>
  <g stroke-linejoin="bevel" transform="matrix(11.8081,0,0,11.8081,0,0)" font-weight="400" font-style="normal" fill="none" stroke="#000000" stroke-width="1" stroke-linecap="square" font-size="32.5" font-family="MS Shell Dlg 2" stroke-opacity="1"/>
  <g stroke-linejoin="bevel" transform="matrix(1,0,0,1,0,0)" font-weight="400" font-style="normal" fill="none" stroke="#000000" stroke-width="1" stroke-linecap="square" font-size="32.5" font-family="MS Shell Dlg 2" stroke-opacity="1"/>
  <g stroke-linejoin="bevel" transform="matrix(11.8081,0,0,11.8081,0,0)" font-weight="400" font-style="normal" fill="none" stroke="#000000" stroke-width="1" stroke-linecap="square" font-size="32.5" font-family="MS Shell Dlg 2" stroke-opacity="1"/>
  <g stroke-linejoin="bevel" transform="matrix(11.8081,0,0,11.8081,0,0)" font-weight="400" font-style="normal" fill="none" stroke="#000000" stroke-width="1" stroke-linecap="square" font-size="32.5" font-family="MS Shell Dlg 2" stroke-opacity="1"/>
  <g stroke-linejoin="bevel" transform="matrix(1,0,0,1,0,0)" font-weight="400" font-style="normal" fill="none" stroke="#000000" stroke-width="1" stroke-linecap="square" font-size="32.5" font-family="MS Shell Dlg 2" stroke-opacity="1"/>
 </g>
</svg>
