<?xml version='1.0' encoding='UTF-8' standalone='no'?>
<svg height="209.973mm" width="296.926mm" viewBox="0 0 3507 2480" xmlns:xlink="http://www.w3.org/1999/xlink" xmlns:inkscape="http://www.inkscape.org/namespaces/inkscape" xmlns="http://www.w3.org/2000/svg" version="1.2" baseProfile="tiny">
 <defs/>
 <g stroke-linejoin="bevel" inkscape:label="Page" inkscape:groupmode="layer" fill="none" stroke="black" fill-rule="evenodd" stroke-width="1" stroke-linecap="square" id="Page">
  <g stroke-linejoin="bevel" transform="matrix(1,0,0,1,0,0)" font-weight="400" font-style="normal" fill="none" stroke="#000000" stroke-width="1" stroke-linecap="square" font-size="32.5" font-family="MS Shell Dlg 2" stroke-opacity="1"/>
  <g stroke-linejoin="bevel" transform="matrix(1,0,0,1,0,0)" font-weight="400" font-style="normal" fill="none" stroke="#000000" stroke-width="1" stroke-linecap="square" font-size="32.5" font-family="MS Shell Dlg 2" stroke-opacity="1"/>
  <g stroke-linejoin="bevel" transform="matrix(11.8081,0,0,11.8081,0,0)" font-weight="400" font-style="normal" fill="none" stroke="#000000" stroke-width="1" stroke-linecap="square" font-size="32.5" font-family="MS Shell Dlg 2" stroke-opacity="1"/>
  <g stroke-linejoin="bevel" transform="matrix(0.999751,0,0,0.999751,0,0)" font-weight="400" font-style="normal" fill="none" stroke="#000000" stroke-width="1" stroke-linecap="square" font-size="32.5" font-family="MS Shell Dlg 2" stroke-opacity="1"/>
  <g transform="matrix(0.999751,0,0,0.999751,0,0)" font-weight="400" font-style="normal" fill="#ffffff" stroke="none" fill-opacity="1" font-size="32.5" font-family="MS Shell Dlg 2">
   <path fill-rule="evenodd" d="M-2,-2 L3510,-2 L3510,2483 L-2,2483 L-2,-2" vector-effect="none"/>
  </g>
  <g stroke-linejoin="bevel" transform="matrix(0.999751,0,0,0.999751,0,0)" font-weight="400" font-style="normal" fill="none" stroke="#000000" stroke-width="1" stroke-linecap="square" font-size="32.5" font-family="MS Shell Dlg 2" stroke-opacity="1"/>
  <g stroke-linejoin="bevel" transform="matrix(11.8081,0,0,11.8081,0,0)" font-weight="400" font-style="normal" fill="none" stroke="#000000" stroke-width="1" stroke-linecap="square" font-size="32.5" font-family="MS Shell Dlg 2" stroke-opacity="1"/>
  <g stroke-linejoin="bevel" transform="matrix(11.8081,0,0,11.8081,0,0)" font-weight="400" font-style="normal" fill="none" stroke="#000000" stroke-width="1" stroke-linecap="square" font-size="32.5" font-family="MS Shell Dlg 2" stroke-opacity="1"/>
  <g stroke-linejoin="bevel" transform="matrix(1,0,0,1,0,0)" font-weight="400" font-style="normal" fill="none" stroke="#000000" stroke-width="1" stroke-linecap="square" font-size="32.5" font-family="MS Shell Dlg 2" stroke-opacity="1"/>
 </g>
 <defs/>
 <g stroke-linejoin="bevel" inkscape:label="Map 1: Background" inkscape:groupmode="layer" fill="none" stroke="black" fill-rule="evenodd" stroke-width="1" stroke-linecap="square" id="Map 1: Background">
  <g stroke-linejoin="bevel" transform="matrix(1,0,0,1,0,0)" font-weight="400" font-style="normal" fill="none" stroke="#000000" stroke-width="1" stroke-linecap="square" font-size="32.5" font-family="MS Shell Dlg 2" stroke-opacity="1"/>
  <g stroke-linejoin="bevel" transform="matrix(1,0,0,1,0,0)" font-weight="400" font-style="normal" fill="none" stroke="#000000" stroke-width="1" stroke-linecap="square" font-size="32.5" font-family="MS Shell Dlg 2" stroke-opacity="1"/>
  <g stroke-linejoin="bevel" transform="matrix(11.8081,0,0,11.8081,0,0)" font-weight="400" font-style="normal" fill="none" stroke="#000000" stroke-width="1" stroke-linecap="square" font-size="32.5" font-family="MS Shell Dlg 2" stroke-opacity="1"/>
  <g transform="matrix(11.8081,0,0,11.8081,0,0)" font-weight="400" font-style="normal" fill="#ffffff" stroke="none" fill-opacity="1" font-size="32.5" font-family="MS Shell Dlg 2">
   <path fill-rule="evenodd" d="M0,0 L297,0 L297,210 L0,210 L0,0" vector-effect="none"/>
  </g>
  <g stroke-linejoin="bevel" transform="matrix(11.8081,0,0,11.8081,0,0)" font-weight="400" font-style="normal" fill="none" stroke="#000000" stroke-width="1" stroke-linecap="square" font-size="32.5" font-family="MS Shell Dlg 2" stroke-opacity="1"/>
  <g stroke-linejoin="bevel" transform="matrix(11.8081,0,0,11.8081,0,0)" font-weight="400" font-style="normal" fill="none" stroke="#000000" stroke-width="1" stroke-linecap="square" font-size="32.5" font-family="MS Shell Dlg 2" stroke-opacity="1"/>
  <g stroke-linejoin="bevel" transform="matrix(11.8081,0,0,11.8081,0,0)" font-weight="400" font-style="normal" fill="none" stroke="#000000" stroke-width="1" stroke-linecap="square" font-size="32.5" font-family="MS Shell Dlg 2" stroke-opacity="1"/>
  <g stroke-linejoin="bevel" transform="matrix(11.8081,0,0,11.8081,0,0)" font-weight="400" font-style="normal" fill="none" stroke="#000000" stroke-width="1" stroke-linecap="square" font-size="32.5" font-family="MS Shell Dlg 2" stroke-opacity="1"/>
  <g stroke-linejoin="bevel" transform="matrix(1,0,0,1,0,0)" font-weight="400" font-style="normal" fill="none" stroke="#000000" stroke-width="1" stroke-linecap="square" font-size="32.5" font-family="MS Shell Dlg 2" stroke-opacity="1"/>
  <g stroke-linejoin="bevel" transform="matrix(11.8081,0,0,11.8081,0,0)" font-weight="400" font-style="normal" fill="none" stroke="#000000" stroke-width="1" stroke-linecap="square" font-size="32.5" font-family="MS Shell Dlg 2" stroke-opacity="1"/>
  <g stroke-linejoin="bevel" transform="matrix(11.8081,0,0,11.8081,0,0)" font-weight="400" font-style="normal" fill="none" stroke="#000000" stroke-width="1" stroke-linecap="square" font-size="32.5" font-family="MS Shell Dlg 2" stroke-opacity="1"/>
  <g stroke-linejoin="bevel" transform="matrix(1,0,0,1,0,0)" font-weight="400" font-style="normal" fill="none" stroke="#000000" stroke-width="1" stroke-linecap="square" font-size="32.5" font-family="MS Shell Dlg 2" stroke-opacity="1"/>
 </g>
 <defs/>
 <g stroke-linejoin="bevel" inkscape:label="Map 1: GuineveresConquestRivers" inkscape:groupmode="layer" fill="none" stroke="black" fill-rule="evenodd" stroke-width="1" stroke-linecap="square" id="Map 1: GuineveresConquestRivers">
  <g stroke-linejoin="bevel" transform="matrix(1,0,0,1,0,0)" font-weight="400" font-style="normal" fill="none" stroke="#000000" stroke-width="1" stroke-linecap="square" font-size="32.5" font-family="MS Shell Dlg 2" stroke-opacity="1"/>
  <g stroke-linejoin="bevel" transform="matrix(1,0,0,1,0,0)" font-weight="400" font-style="normal" fill="none" stroke="#000000" stroke-width="1" stroke-linecap="square" font-size="32.5" font-family="MS Shell Dlg 2" stroke-opacity="1"/>
  <g stroke-linejoin="bevel" transform="matrix(11.8081,0,0,11.8081,0,0)" font-weight="400" font-style="normal" fill="none" stroke="#000000" stroke-width="1" stroke-linecap="square" font-size="32.5" font-family="MS Shell Dlg 2" stroke-opacity="1"/>
  <g stroke-linejoin="bevel" transform="matrix(11.8081,0,0,11.8081,0,0)" font-weight="400" font-style="normal" fill="none" stroke="#000000" stroke-width="1" stroke-linecap="square" font-size="32.5" font-family="MS Shell Dlg 2" stroke-opacity="1"/>
  <g transform="matrix(0.999751,0,0,0.999751,0,0)" font-weight="400" font-style="normal" fill="#000000" stroke="none" fill-opacity="0" font-size="32.5" font-family="MS Shell Dlg 2">
   <rect height="2480" x="0" width="3508" y="0"/>
  </g>
  <g stroke-linejoin="bevel" transform="matrix(0.999751,0,0,0.999751,0,0)" font-weight="400" font-style="normal" fill="none" stroke="#000000" stroke-width="1" stroke-linecap="square" font-size="32.5" font-family="MS Shell Dlg 2" stroke-opacity="1"/>
  <g stroke-linejoin="bevel" transform="matrix(0.999751,0,0,0.999751,0,0)" font-weight="400" font-style="normal" fill="none" stroke="#1f78b4" stroke-width="3.07087" stroke-linecap="square" font-size="32.5" font-family="MS Shell Dlg 2" stroke-opacity="1">
   <path fill-rule="evenodd" d="M2461.17,1713.56 L2461.2,1713.56 L2463.1,1715.21 L2465.27,1717.73 L2467.38,1720.31 L2469.48,1722.89 L2471.58,1725.47 L2473.7,1728.03 L2475.86,1730.57 L2478.04,1733.09 L2480.26,1735.56 L2482.55,1737.98 L2484.9,1740.33 L2487.36,1742.57 L2490.02,1744.54 L2492.83,1746.28 L2495.81,1747.75 L2498.89,1748.99 L2502.06,1750.02 L2505.27,1750.88 L2508.52,1751.59 L2511.79,1752.24 L2515.07,1752.81 L2518.36,1753.37 L2521.65,1753.94 L2524.93,1754.55 L2528.18,1755.22 L2531.41,1756.04 L2534.6,1757.05 L2537.72,1758.16 L2540.87,1759.27 L2543.98,1760.46 L2547.06,1761.7 L2550.14,1762.98 L2553.21,1764.28 L2556.27,1765.56 L2559.37,1766.8 L2562.48,1768 L2565.63,1769.11 L2568.79,1770.09 L2572.02,1770.93 L2575.28,1771.6 L2578.57,1771.92 L2581.88,1771.92 L2585.2,1771.54 L2588.47,1770.91 L2591.7,1770.14 L2594.91,1769.21 L2598.08,1768.21 L2601.25,1767.16 L2604.39,1766.09 L2607.56,1765.02 L2610.73,1764.01 L2613.92,1763.07 L2617.13,1762.23 L2620.38,1761.53 L2623.67,1761.03 L2626.99,1760.76 L2630.32,1760.72 L2633.64,1760.88 L2636.97,1761.18 L2640.27,1761.56 L2643.58,1762 L2646.87,1762.44 L2650.19,1762.84 L2653.5,1763.17 L2656.82,1763.38 L2660.15,1763.38 L2663.47,1763.15 L2666.74,1762.6 L2669.95,1761.7 L2673.01,1760.42 L2675.91,1758.81 L2678.66,1756.96 L2681.32,1754.95 L2683.88,1752.83 L2686.42,1750.67 L2688.91,1748.47 L2691.41,1746.28 L2693.97,1744.14 L2696.63,1742.15 L2699.49,1740.47 L2702.51,1739.65 L2705.32,1739.93 L2707.84,1741.02 L2710.04,1743.01 L2711.8,1745.7 L2713.14,1748.67 L2714.24,1751.78 L2715.2,1754.97 L2716.06,1758.16 L2716.88,1761.39 L2717.7,1764.6 L2718.52,1767.83 L2719.4,1771.04 L2720.36,1774.23 L2721.41,1777.37 L2722.65,1780.44 L2724.05,1783.41 L2725.61,1786.33 L2727.28,1789.16 L2729.13,1791.91 L2731.25,1794.47 L2733.54,1796.88 L2735.91,1799.23 L2738.34,1801.48 L2740.86,1803.68 L2743.42,1805.8 L2746.02,1807.88 L2748.64,1809.91 L2751.3,1811.9 L2754.01,1813.88 L2756.7,1815.81 L2759.42,1817.74 L2762.13,1819.67 L2764.79,1821.66 L2767.44,1823.67 L2770.06,1825.69 L2772.66,1827.76 L2775.22,1829.88 L2777.82,1831.98 L2780.42,1834.04 L2783.11,1836.01 L2785.86,1837.85 L2787.43,1838.77" vector-effect="none"/>
   <path fill-rule="evenodd" d="M2392.87,1949.75 L2390.27,1950.23 L2386.97,1950.68 L2383.66,1951.12 L2380.37,1951.56 L2377.05,1952.02 L2373.76,1952.48 L2370.46,1952.96 L2367.17,1953.44 L2363.88,1953.97 L2360.58,1954.51 L2357.31,1955.1 L2354.04,1955.71 L2350.77,1956.34 L2347.49,1957.01 L2344.24,1957.74 L2341.01,1958.52 L2337.78,1959.36 L2334.57,1960.26 L2331.4,1961.27 L2328.28,1962.4 L2325.21,1963.7 L2322.17,1965.09 L2319.17,1966.56 L2316.21,1968.09 L2313.3,1969.66 L2310.4,1971.32 L2307.55,1973.02 L2304.72,1974.78 L2301.91,1976.56 L2299.14,1978.41 L2296.37,1980.28 L2293.64,1982.21 L2290.96,1984.14 L2288.27,1986.13 L2285.63,1988.14 L2282.98,1990.18 L2280.38,1992.25 L2277.8,1994.35 L2275.24,1996.49 L2272.73,1998.67 L2270.23,2000.88 L2267.78,2003.1 L2265.32,2005.34 L2262.93,2007.65 L2260.56,2010 L2258.27,2012.44 L2256.09,2014.93 L2254.01,2017.53 L2252.08,2020.24 L2250.32,2023.05 L2248.79,2026.01 L2247.49,2029.07 L2246.44,2032.2 L2245.5,2035.39 L2245.01,2038.68 L2244.99,2041.99 L2245.29,2045.31 L2245.75,2048.6 L2246.29,2051.87 L2246.82,2055.17 L2247.24,2058.46 L2247.55,2061.78 L2247.7,2065.09 L2247.7,2068.41 L2247.55,2071.74 L2247.24,2075.03 L2246.75,2078.33 L2246.21,2081.6 L2245.6,2084.87 L2244.97,2088.15 L2244.32,2091.4 L2243.65,2094.65 L2242.96,2097.92 L2242.29,2101.17 L2241.62,2104.43 L2240.94,2107.68 L2240.29,2110.95 L2239.66,2114.2 L2239.06,2117.47 L2238.49,2120.75 L2237.94,2124.04 L2237.44,2127.31 L2236.98,2130.61 L2236.58,2133.9 L2236.24,2137.21 L2235.95,2140.53 L2235.74,2143.84 L2235.64,2147.16 L2235.59,2150.49 L2235.59,2153.81 L2235.72,2157.12 L2235.95,2160.44 L2236.29,2163.75 L2236.71,2167.05 L2237.21,2170.34 L2237.78,2173.61 L2238.41,2176.88 L2239.08,2180.14 L2239.79,2183.39 L2240.55,2186.62 L2241.32,2189.85 L2242.12,2193.08 L2242.92,2196.31 L2243.71,2199.54 L2244.51,2202.75 L2245.31,2205.98 L2246.06,2209.23 L2246.8,2212.46 L2247.47,2215.74 L2248.1,2218.99 L2248.64,2222.28 L2249.08,2225.58 L2249.38,2228.87 L2249.52,2232.2 L2249.46,2235.52 L2249.15,2238.83 L2248.6,2242.11 L2247.8,2245.34 L2246.78,2248.48 L2245.56,2251.59 L2244.24,2254.63 L2242.83,2257.65 L2241.45,2260.67 L2240.17,2263.73 L2239.06,2266.86 L2238.26,2270.07 L2237.84,2273.32 L2237.71,2276.62 L2238.07,2279.91 L2238.93,2283.1 L2240.15,2286.2 L2241.59,2289.18 L2243.19,2292.1 L2244.85,2294.99 L2246.5,2297.87 L2248.12,2300.78 L2249.61,2303.74 L2250.89,2306.82 L2251.83,2310.01 L2252.29,2313.29 L2252.08,2316.6 L2251.12,2319.77 L2249.48,2322.64 L2247.43,2325.26 L2245.12,2327.66 L2242.66,2329.88 L2240.08,2332 L2237.44,2333.99 L2234.73,2335.94 L2232.01,2337.85 L2229.26,2339.72 L2226.49,2341.59 L2223.74,2343.45 L2220.99,2345.34 L2218.27,2347.25 L2215.58,2349.22 L2212.96,2351.28 L2210.42,2353.42 L2208.01,2355.7 L2205.76,2358.16 L2203.69,2360.76 L2201.86,2363.53 L2200.25,2366.44 L2198.78,2369.42 L2197.46,2372.47 L2197.11,2373.33" vector-effect="none"/>
   <path fill-rule="evenodd" d="M2147.11,1842.28 L2146.65,1843.48 L2145.01,1846.37 L2143.33,1849.22 L2141.63,1852.1 L2139.95,1854.95 L2138.28,1857.83 L2136.62,1860.7 L2134.98,1863.59 L2133.37,1866.51 L2131.77,1869.43 L2130.22,1872.38 L2128.73,1875.34 L2127.28,1878.34 L2125.92,1881.36 L2124.64,1884.45 L2123.49,1887.55 L2122.5,1890.74 L2121.6,1893.93 L2120.76,1897.16 L2119.98,1900.39 L2119.25,1903.62 L2118.6,1906.89 L2118.01,1910.17 L2117.49,1913.44 L2117.05,1916.73 L2116.67,1920.05 L2116.37,1923.36 L2116.14,1926.68 L2116.02,1929.99 L2115.98,1933.33 L2116.04,1936.64 L2116.21,1939.96 L2116.48,1943.27 L2116.88,1946.58 L2117.49,1949.84 L2118.43,1953.02 L2119.58,1956.15 L2120.93,1959.19 L2122.42,1962.17 L2123.97,1965.09 L2125.6,1968 L2127.28,1970.88 L2128.96,1973.75 L2130.62,1976.63 L2132.26,1979.52 L2133.83,1982.46 L2135.28,1985.44 L2136.56,1988.52 L2137.56,1991.67 L2138.13,1994.92 L2138.07,1998.19 L2137.1,2001.27 L2135.23,2003.92 L2132.74,2006.04 L2129.93,2007.74 L2126.91,2009.14 L2123.8,2010.32 L2120.63,2011.34 L2117.44,2012.27 L2114.23,2013.17 L2111.03,2014.03 L2107.79,2014.89 L2104.61,2015.79 L2101.42,2016.76 L2098.25,2017.81 L2095.12,2018.98 L2092.08,2020.3 L2089.12,2021.85 L2086.38,2023.72 L2083.86,2025.86 L2081.49,2028.17 L2079.28,2030.64 L2077.21,2033.25 L2075.26,2035.93 L2073.37,2038.68 L2071.54,2041.45 L2069.76,2044.26 L2068,2047.09 L2066.24,2049.9 L2064.45,2052.71 L2062.61,2055.46 L2060.68,2058.17 L2058.6,2060.77 L2056.33,2063.14 L2053.78,2065.11 L2050.99,2066.43 L2048.11,2066.9 L2045.2,2066.6 L2042.32,2065.74 L2039.53,2064.23 L2036.91,2062.3 L2034.41,2060.14 L2032,2057.87 L2029.61,2055.57 L2027.17,2053.3 L2024.64,2051.14 L2021.97,2049.17 L2019.14,2047.55 L2016.2,2046.21 L2013.16,2045.12 L2010.01,2044.3 L2006.76,2043.82 L2003.45,2043.59 L2000.13,2043.57 L1996.8,2043.67 L1993.48,2043.86 L1990.15,2044.09 L1986.83,2044.32 L1983.52,2044.51 L1980.2,2044.6 L1976.91,2044.55 L1973.62,2044.43 L1970.34,2044.05 L1967.11,2043.46 L1963.93,2042.64 L1960.78,2041.6 L1957.69,2040.36 L1954.63,2039.04 L1951.61,2037.65 L1948.57,2036.29 L1945.51,2035.01 L1942.38,2033.9 L1939.17,2033.1 L1935.94,2032.7 L1932.65,2032.6 L1929.35,2032.85 L1926.1,2033.56 L1922.91,2034.53 L1919.81,2035.68 L1916.72,2036.92 L1913.68,2038.24 L1910.64,2039.52 L1907.58,2040.78 L1904.49,2041.95 L1901.37,2043 L1898.22,2044.05 L1895.05,2045.04 L1891.84,2045.87 L1888.59,2046.61 L1885.32,2047.3 L1882.07,2047.97 L1878.8,2048.64 L1875.52,2049.29 L1872.27,2049.92 L1869,2050.55 L1865.73,2051.18 L1862.45,2051.81 L1859.18,2052.42 L1855.89,2053.05 L1852.61,2053.66 L1849.34,2054.27 L1846.07,2054.9 L1842.8,2055.5 L1839.52,2056.11 L1836.23,2056.59 L1832.92,2057.04 L1829.62,2057.43 L1826.31,2057.77 L1822.97,2058.06 L1819.66,2058.34 L1816.34,2058.61 L1813.01,2058.88 L1809.69,2059.18 L1806.38,2059.51 L1803.08,2059.93 L1799.79,2060.41 L1796.52,2061.02 L1793.27,2061.76 L1790.06,2062.64 L1786.91,2063.71 L1783.83,2064.97 L1783.53,2065.12" vector-effect="none"/>
   <path fill-rule="evenodd" d="M2396.69,2102.26 L2396.39,2105.12 L2395.85,2108.41 L2395.28,2111.68 L2394.74,2114.96 L2394.19,2118.25 L2393.69,2121.52 L2393.18,2124.82 L2392.7,2128.11 L2392.28,2131.4 L2391.88,2134.7 L2391.53,2138.01 L2391.21,2141.33 L2390.98,2144.64 L2390.83,2147.96 L2390.77,2151.27 L2390.98,2154.58 L2391.4,2157.86 L2392.05,2161.11 L2392.97,2164.3 L2394.04,2167.44 L2395.24,2170.55 L2396.52,2173.61 L2397.88,2176.65 L2399.29,2179.67 L2400.71,2182.67 L2402.16,2185.65 L2403.63,2188.65 L2405.08,2191.65 L2406.48,2194.65 L2407.83,2197.69 L2409.04,2200.78 L2410.09,2203.93 L2410.81,2207.14 L2410.97,2210.37 L2410.43,2213.47 L2409.17,2216.34 L2407.26,2218.92 L2404.89,2221.17 L2402.31,2223.23 L2399.64,2225.24 L2397.17,2227.44 L2395.28,2230 L2394.34,2232.85 L2394.3,2235.9 L2395.09,2239 L2396.39,2242.04 L2397.84,2245.02 L2399.16,2248.06 L2400.19,2251.19 L2400.86,2254.42 L2401.32,2257.69 L2401.55,2261.01 L2401.57,2264.32 L2401.45,2267.64 L2401.22,2270.95 L2400.95,2274.27 L2400.61,2277.58 L2400.27,2280.89 L2399.92,2284.19 L2399.58,2287.5 L2399.27,2290.82 L2398.97,2294.11 L2398.72,2297.43 L2398.51,2300.76 L2398.39,2304.08 L2398.32,2307.39 L2398.34,2310.73 L2398.49,2314.04 L2398.76,2317.36 L2399.18,2320.65 L2399.69,2323.94 L2400.27,2327.22 L2400.97,2330.47 L2401.81,2333.68 L2402.75,2336.87 L2403.8,2340.01 L2404.93,2343.14 L2406.13,2346.24 L2407.39,2349.33 L2408.69,2352.39 L2410.01,2355.43 L2411.37,2358.47 L2412.74,2361.51 L2414.1,2364.54 L2415.44,2367.58 L2416.76,2370.64 L2418.04,2373.7 L2419.26,2376.81 L2420.39,2379.91 L2421.36,2383.1 L2422.15,2386.31 L2422.78,2389.58 L2423.27,2392.86 L2423.64,2396.15 L2423.92,2399.46 L2424.13,2402.78 L2424.29,2406.11 L2424.48,2409.43 L2424.73,2412.74 L2425.05,2416.06 L2425.51,2419.33 L2426.16,2422.6 L2426.61,2424.24" vector-effect="none"/>
   <path fill-rule="evenodd" d="M2419.34,1067.87 L2418.71,1067.82 L2415.69,1066.52 L2412.74,1065.01 L2409.8,1063.46 L2406.84,1061.91 L2403.88,1060.4 L2400.9,1058.91 L2397.9,1057.46 L2394.86,1056.1 L2391.78,1054.82 L2388.65,1053.68 L2385.48,1052.74 L2382.25,1051.98 L2378.94,1051.63 L2375.6,1051.71 L2372.31,1052.05 L2369.02,1052.61 L2365.76,1053.35 L2362.53,1054.19 L2359.35,1055.09 L2356.14,1056.01 L2352.93,1056.94 L2349.72,1057.82 L2346.51,1058.66 L2343.26,1059.37 L2339.96,1059.96 L2336.67,1060.42 L2333.35,1060.75 L2330.04,1061.01 L2326.7,1061.19 L2323.39,1061.34 L2320.05,1061.47 L2316.72,1061.59 L2313.38,1061.74 L2310.07,1061.91 L2306.73,1062.12 L2303.42,1062.39 L2300.1,1062.73 L2296.79,1063.17 L2293.52,1063.71 L2290.24,1064.4 L2287.03,1065.24 L2283.87,1066.27 L2280.78,1067.53 L2277.8,1069.02 L2274.95,1070.74 L2272.18,1072.59 L2269.5,1074.56 L2266.87,1076.61 L2264.29,1078.71 L2261.75,1080.85 L2259.24,1083.03 L2256.7,1085.19 L2254.18,1087.35 L2251.62,1089.49 L2249.02,1091.57 L2246.31,1093.52 L2243.52,1095.3 L2240.55,1096.75 L2237.38,1097.51 L2234.34,1097.19 L2231.69,1095.77 L2229.57,1093.44 L2228.04,1090.58 L2226.89,1087.52 L2225.97,1084.33 L2225.17,1081.12 L2224.45,1077.87 L2223.76,1074.64 L2223.05,1071.39 L2222.29,1068.14 L2221.45,1064.93 L2220.47,1061.76 L2219.29,1058.66 L2217.89,1055.66 L2216.23,1052.8 L2214.43,1050.03 L2212.41,1047.39 L2210.23,1044.89 L2207.94,1042.46 L2205.57,1040.13 L2203.14,1037.87 L2200.62,1035.68 L2198.02,1033.59 L2195.38,1031.57 L2192.67,1029.64 L2189.92,1027.75 L2187.11,1025.97 L2184.28,1024.23 L2181.39,1022.57 L2178.47,1020.98 L2175.53,1019.41 L2172.53,1017.96 L2169.49,1016.62 L2166.43,1015.31 L2163.32,1014.06 L2160.22,1012.86 L2157.09,1011.73 L2153.95,1010.64 L2150.78,1009.61 L2147.59,1008.62 L2144.4,1007.7 L2141.17,1006.84 L2137.94,1006.04 L2134.69,1005.31 L2131.42,1004.66 L2128.14,1004.07 L2124.85,1003.57 L2121.56,1003.15 L2118.24,1002.81 L2114.91,1002.62 L2111.57,1002.6 L2108.26,1002.81 L2104.94,1003.21 L2101.67,1003.78 L2098.42,1004.45 L2095.17,1005.2 L2091.93,1006.02 L2088.73,1006.86 L2085.52,1007.7 L2082.31,1008.54 L2079.08,1009.34 L2075.82,1010.07 L2072.57,1010.68 L2069.3,1011.14 L2066.01,1011.41 L2062.71,1011.43 L2059.48,1011.1 L2056.36,1010.28 L2053.36,1009.08 L2050.52,1007.51 L2047.86,1005.64 L2045.36,1003.5 L2043.01,1001.2 L2040.81,998.742 L2038.69,996.182 L2036.66,993.56 L2034.68,990.896 L2032.71,988.211 L2030.74,985.525 L2028.75,982.861 L2026.69,980.26 L2024.57,977.7 L2022.33,975.246 L2019.98,972.917 L2017.59,970.652 L2015.07,968.491 L2012.45,966.477 L2009.7,964.61 L2006.85,962.911 L2003.91,961.358 L2000.93,959.89 L1997.89,958.505 L1994.83,957.205 L1991.72,955.967 L1988.62,954.792 L1985.49,953.638 L1982.36,952.505 L1979.22,951.394 L1976.07,950.282 L1972.95,949.17 L1969.8,948.037 L1966.69,946.841 L1963.61,945.604 L1960.53,944.324 L1957.51,942.96 L1954.51,941.513 L1951.55,939.981 L1948.63,938.366 L1945.76,936.688 L1942.88,934.989 L1940.03,933.289 L1937.16,931.611 L1934.24,929.996 L1931.28,928.485 L1928.26,927.122 L1925.16,925.947 L1921.99,925.003 L1918.74,924.29 L1915.44,923.891 L1912.13,923.765 L1911.47,923.778" vector-effect="none"/>
   <path fill-rule="evenodd" d="M2655.03,1823.27 L2656.17,1823.82 L2658.92,1825.69 L2661.64,1827.6 L2664.37,1829.48 L2667.14,1831.35 L2669.93,1833.18 L2672.74,1834.94 L2675.61,1836.64 L2678.55,1838.21 L2681.55,1839.66 L2684.64,1840.9 L2687.85,1841.8 L2691.14,1842.26 L2694.45,1842.45 L2697.79,1842.32 L2701.08,1841.94 L2704.38,1841.4 L2707.65,1840.73 L2710.88,1839.99 L2714.13,1839.22 L2717.38,1838.46 L2720.63,1837.75 L2723.91,1837.16 L2727.22,1836.76 L2730.54,1836.74 L2733.83,1837.22 L2737,1838.19 L2740.1,1839.45 L2743.14,1840.77 L2746.27,1841.92 L2749.52,1842.41 L2752.67,1841.57 L2755.31,1839.57 L2757.54,1837.12 L2759.55,1834.48 L2761.44,1831.73 L2763.2,1828.92 L2764.9,1826.04 L2766.51,1823.15" vector-effect="none"/>
   <path fill-rule="evenodd" d="M2372.25,1458.06 L2372.25,1458.08 L2372.23,1458.15 L2369.16,1458.65 L2365.85,1458.63 L2362.51,1458.52 L2359.2,1458.4 L2355.86,1458.29 L2352.53,1458.21 L2349.19,1458.17 L2345.86,1458.17 L2342.54,1458.25 L2339.21,1458.44 L2335.91,1458.75 L2332.64,1459.26 L2329.43,1459.99 L2326.3,1460.92 L2323.22,1462.05 L2320.2,1463.37 L2317.28,1464.92 L2314.43,1466.64 L2311.66,1468.45 L2308.91,1470.33 L2306.19,1472.24 L2303.48,1474.17 L2300.73,1476.08 L2297.96,1477.89 L2295.09,1479.54 L2292.09,1480.82 L2289.13,1481.24 L2286.76,1480.72 L2284.79,1479.84 L2282.92,1478.64 L2281.12,1476.94 L2279.61,1474.4 L2278.66,1471.32 L2277.99,1468.09 L2277.47,1464.82 L2276.96,1461.54 L2276.38,1458.27 L2275.64,1455.04 L2274.61,1451.94 L2273.31,1448.98 L2271.8,1446.17 L2270.06,1443.5 L2268.11,1440.99 L2265.87,1438.64 L2263.39,1436.5 L2260.75,1434.5 L2257.98,1432.66 L2255.17,1430.87 L2252.34,1429.11 L2249.54,1427.33 L2246.78,1425.46 L2244.11,1423.53 L2241.49,1421.48 L2238.97,1419.36 L2236.5,1417.13 L2234.1,1414.83 L2231.73,1412.52 L2229.38,1410.15 L2227.08,1407.76 L2224.77,1405.34 L2222.48,1402.95 L2220.18,1400.54 L2217.87,1398.15 L2215.52,1395.8 L2213.13,1393.47 L2210.69,1391.2 L2208.2,1389.02 L2205.64,1386.92 L2202.99,1384.91 L2200.31,1382.96 L2197.6,1381.05 L2194.81,1379.23 L2191.98,1377.48 L2189.06,1375.85 L2186.15,1374.27 L2183.19,1372.72 L2180.21,1371.23 L2177.21,1369.81 L2174.17,1368.46 L2171.09,1367.18 L2167.96,1366.03 L2164.81,1364.98 L2161.6,1364.08 L2158.35,1363.37 L2155.08,1362.82 L2151.76,1362.55 L2148.43,1362.55 L2145.14,1362.9 L2141.95,1363.74 L2138.95,1365.04 L2136.14,1366.76 L2133.56,1368.82 L2131.12,1371.09 L2128.84,1373.48 L2126.65,1375.97 L2124.56,1378.55 L2122.5,1381.16 L2120.47,1383.8 L2118.45,1386.42 L2116.42,1389.06 L2114.36,1391.67 L2112.24,1394.23 L2110.04,1396.72 L2107.71,1399.09 L2105.21,1401.29 L2102.49,1403.16 L2099.42,1404.48 L2097.92,1404.64" vector-effect="none"/>
   <path fill-rule="evenodd" d="M2022.93,1327.83 L2021.03,1325.16 L2019.08,1322.48 L2017.08,1319.81 L2015.07,1317.17 L2013.01,1314.57 L2010.9,1312.01 L2008.73,1309.49 L2006.55,1306.98 L2004.31,1304.52 L2001.96,1302.15 L1999.61,1299.8 L1997.26,1297.45 L1994.87,1295.14 L1992.46,1292.84 L1990.04,1290.55 L1987.59,1288.31 L1985.11,1286.08 L1982.6,1283.9 L1980.06,1281.74 L1977.48,1279.62 L1974.88,1277.56 L1972.21,1275.55 L1969.53,1273.6 L1966.8,1271.69 L1964.01,1269.87 L1961.18,1268.1 L1958.32,1266.43 L1955.34,1264.91 L1952.3,1263.55 L1949.2,1262.33 L1946.05,1261.24 L1942.88,1260.24 L1939.67,1259.33 L1936.46,1258.47 L1933.23,1257.68 L1929.98,1256.9 L1926.73,1256.12 L1923.5,1255.37 L1920.27,1254.57 L1917.04,1253.75 L1913.83,1252.85 L1910.64,1251.87 L1907.49,1250.78 L1904.41,1249.52 L1901.43,1248.05 L1898.56,1246.35 L1895.79,1244.5 L1893.19,1242.43 L1890.82,1240.12 L1888.61,1237.6 L1886.58,1234.98 L1884.69,1232.23 L1882.89,1229.44 L1881.12,1226.63 L1879.36,1223.82 L1877.54,1221.03 L1875.61,1218.32 L1873.51,1215.74 L1871.2,1213.33 L1868.64,1211.21 L1865.89,1209.36 L1862.89,1207.92 L1859.77,1206.8 L1856.58,1205.9 L1853.35,1205.17 L1850.08,1204.54 L1846.8,1203.95 L1843.53,1203.32 L1840.28,1202.63 L1837.07,1201.75 L1833.96,1200.57 L1831.11,1198.98 L1828.64,1196.94 L1826.6,1194.57 L1825.01,1191.93 L1823.81,1189.04 L1822.95,1185.99 L1822.38,1182.85 L1822.11,1179.62 L1822.03,1176.32 L1822.07,1173.03 L1822.17,1169.72 L1822.3,1166.4 L1822.36,1163.09 L1822.36,1159.75 L1822.17,1156.46 L1821.78,1153.18 L1821.17,1149.97 L1820.43,1146.81 L1819.59,1143.68 L1818.63,1140.58 L1817.5,1137.49 L1816.22,1134.47 L1814.75,1131.51 L1813.15,1128.6 L1811.5,1125.72 L1809.76,1122.89 L1807.95,1120.1 L1806.15,1117.31 L1804.32,1114.52 L1802.52,1111.73 L1800.76,1108.94 L1799.06,1106.09 L1797.44,1103.19 L1795.91,1100.28 L1794.44,1097.32 L1793.1,1094.3 L1791.82,1091.24 L1790.62,1088.15 L1789.53,1085 L1788.53,1081.84 L1787.54,1078.67 L1786.53,1075.5 L1785.44,1072.38 L1784.22,1069.31 L1782.82,1066.31 L1781.04,1063.56 L1778.98,1061.01 L1776.71,1058.59 L1776.17,1058.07" vector-effect="none"/>
   <path fill-rule="evenodd" d="M2589.27,990.266 L2589.31,990.225 L2589.35,989.784 L2586.81,987.623 L2584.3,985.441 L2581.8,983.26 L2579.3,981.057 L2576.83,978.833 L2574.35,976.61 L2571.88,974.365 L2569.42,972.12 L2566.97,969.855 L2564.53,967.589 L2562.12,965.302 L2559.73,962.995 L2557.32,960.708 L2554.93,958.4 L2552.58,956.03 L2550.27,953.638 L2548,951.205 L2545.78,948.708 L2543.6,946.212 L2541.44,943.674 L2539.3,941.135 L2537.16,938.576 L2535.02,936.017 L2532.88,933.478 L2530.72,930.94 L2528.54,928.422 L2526.33,925.947 L2524.09,923.471 L2521.82,921.059 L2519.47,918.688 L2517.1,916.381 L2514.65,914.136 L2512.09,911.975 L2509.42,910.003 L2506.68,908.157 L2503.84,906.437 L2500.95,904.822 L2498.03,903.269 L2495.03,901.822 L2491.99,900.5 L2488.91,899.242 L2485.8,898.046 L2482.68,896.913 L2479.53,895.801 L2476.38,894.731 L2473.22,893.661 L2470.07,892.612 L2466.9,891.542 L2463.78,890.431 L2460.65,889.277 L2457.57,888.018 L2454.55,886.655 L2451.67,885.039 L2449.2,883.004 L2447.71,880.571 L2447.08,878.095 L2447.24,875.41 L2448.71,872.641 L2450.98,870.249 L2453.56,868.152 L2456.29,866.243 L2459.08,864.438 L2461.93,862.697 L2464.78,860.998 L2467.66,859.32 L2470.51,857.621 L2473.36,855.9 L2476.19,854.159 L2478.98,852.355 L2481.73,850.467 L2484.38,848.474 L2486.94,846.334 L2489.31,844.027 L2491.45,841.509 L2493.42,838.824 L2495.24,836.055 L2496.94,833.202 L2498.54,830.286 L2500.05,827.307 L2501.47,824.307 L2502.84,821.286 L2504.14,818.223 L2505.42,815.139 L2506.66,812.056 L2507.87,808.972 L2509.09,805.867 L2510.33,802.783 L2511.56,799.699 L2512.84,796.637 L2514.19,793.595 L2515.55,790.553 L2516.96,787.532 L2518.53,784.616 L2520.21,781.742 L2521.95,778.91 L2523.73,776.099 L2525.54,773.309 L2527.34,770.498 L2529.12,767.707 L2530.89,764.875 L2532.58,762.022 L2534.18,759.106 L2535.67,756.148 L2537.01,753.107 L2538.14,750.002 L2538.98,746.834 L2539.57,743.603 L2539.93,740.352 L2539.97,737.037 L2539.76,733.723 L2539.38,730.429 L2538.9,727.135 L2538.33,723.863 L2537.75,720.59 L2537.16,717.318 L2536.63,714.045 L2536.19,710.751 L2535.96,707.458 L2536.07,704.143 L2536.74,700.933 L2538.4,698.122 L2541.16,696.402 L2544.46,695.983 L2547.77,696.255 L2551.02,696.885 L2554.23,697.724 L2557.42,698.668 L2560.59,699.696 L2563.74,700.766 L2566.88,701.835 L2570.05,702.884 L2573.22,703.87 L2576.41,704.814 L2579.64,705.633 L2582.91,706.304 L2586.21,706.744 L2589.54,706.87 L2592.83,706.577 L2596.11,705.989 L2599.32,705.129 L2602.48,704.059 L2605.57,702.842 L2608.63,701.521 L2611.65,700.115 L2614.67,698.689 L2617.67,697.262 L2620.69,695.857 L2623.74,694.514 L2626.84,693.297 L2629.99,692.227 L2633.22,691.43 L2636.51,690.969 L2639.78,691.053 L2643.01,691.724 L2646.1,692.773 L2649.06,694.22 L2651.85,696.004 L2654.47,698.038 L2656.96,700.22 L2659.4,702.486 L2661.77,704.814 L2664.14,707.143 L2666.55,709.43 L2669.05,711.653 L2671.63,713.751 L2674.34,715.66 L2677.21,717.297 L2680.23,718.597 L2683.38,719.604 L2686.61,720.317 L2689.9,720.779 L2693.24,721.01 L2696.55,721.115 L2699.89,721.136 L2703.22,721.094 L2706.54,721.052 L2709.87,721.073 L2713.17,721.219 L2716.42,721.597 L2719.54,722.289 L2722.5,723.296 L2725.12,724.744 L2727.47,726.506 L2729.55,728.625 L2731.42,731.079 L2733.05,733.785 L2734.48,736.722 L2735.78,739.743 L2737.06,742.827 L2738.42,745.848 L2739.98,748.701 L2741.78,751.323 L2743.65,753.841 L2745.64,756.295 L2747.78,758.624 L2750.17,760.785 L2752.86,762.652 L2755.71,764.309 L2758.67,765.84 L2761.69,767.246 L2764.75,768.526 L2767.86,769.742 L2770.98,770.896 L2774.09,772.113 L2777.15,773.393 L2780.21,774.714 L2783.28,776.015 L2786.38,777.211 L2789.49,778.448 L2792.57,779.707 L2795.65,780.945 L2798.76,782.162 L2801.86,783.357 L2804.99,784.49 L2808.16,785.539 L2811.34,786.525 L2814.55,787.406 L2817.78,788.14 L2821.06,788.749 L2824.37,789.168 L2827.69,789.399 L2831,789.441 L2833.84,789.352" vector-effect="none"/>
   <path fill-rule="evenodd" d="M2078.91,1655.32 L2078.74,1654.25 L2077.52,1651.15 L2076.31,1648.06 L2075.07,1644.98 L2073.83,1641.9 L2072.55,1638.81 L2071.25,1635.77 L2069.91,1632.71 L2068.52,1629.69 L2067.1,1626.69 L2065.59,1623.73 L2064.01,1620.79 L2062.31,1617.94 L2060.43,1615.21 L2058.26,1612.71 L2055.81,1610.51 L2053.12,1608.54 L2050.31,1606.76 L2047.42,1605.1 L2044.48,1603.57 L2041.48,1602.08 L2038.48,1600.65 L2035.48,1599.23 L2032.48,1597.78 L2029.5,1596.29 L2026.59,1594.67 L2023.8,1592.85 L2021.3,1590.69 L2019.54,1588 L2019.12,1584.92 L2020.15,1581.88 L2022.14,1579.23 L2024.53,1576.93 L2027.07,1574.79 L2029.69,1572.71 L2032.31,1570.67 L2034.89,1568.55 L2037.37,1566.35 L2039.68,1563.94 L2041.63,1561.28 L2042.91,1558.25 L2043.66,1555.02 L2044.06,1551.75 L2044.19,1548.44 L2044.1,1545.1 L2043.85,1541.79 L2043.5,1538.49 L2043.1,1535.18 L2042.68,1531.88 L2042.3,1528.59 L2041.96,1525.28 L2041.67,1521.98 L2041.48,1518.67 L2041.54,1515.33 L2041.73,1512.02 L2041.99,1508.7 L2042.24,1505.39 L2042.47,1502.07 L2042.64,1498.76 L2042.7,1495.42 L2042.59,1492.11 L2042.3,1488.8 L2041.73,1485.54 L2040.77,1482.38 L2039.3,1479.44 L2037.35,1476.77 L2035.13,1474.32 L2032.73,1472.01 L2030.26,1469.77 L2027.74,1467.59 L2025.22,1465.43 L2022.73,1463.2 L2020.34,1460.92 L2018.13,1458.44 L2016.41,1455.61 L2016.27,1452.42 L2018.51,1450.05 L2021.55,1448.73 L2024.76,1447.85 L2028.03,1447.17 L2031.31,1446.63 L2034.6,1446.15 L2037.89,1445.66 L2041.19,1445.2 L2044.48,1444.7 L2047.78,1444.13 L2051.05,1443.48 L2054.28,1442.71 L2057.47,1441.74 L2060.52,1440.55" vector-effect="none"/>
   <path fill-rule="evenodd" d="M2684.32,2152.09 L2685.96,2151.92 L2689.27,2152.19 L2692.59,2152.57 L2695.88,2152.93 L2699.19,2153.28 L2702.53,2153.6 L2705.84,2153.87 L2709.18,2154.06 L2712.49,2154.16 L2715.83,2154.16 L2719.17,2154.02 L2722.48,2153.64 L2725.69,2152.8 L2728.69,2151.37 L2731.48,2149.59 L2734.12,2147.56 L2736.64,2145.37 L2739.07,2143.11 L2741.47,2140.8 L2743.88,2138.52 L2746.33,2136.27 L2748.89,2134.15 L2751.62,2132.24 L2754.54,2130.65 L2757.68,2129.56 L2760.95,2129.18 L2764.27,2129.49 L2767.5,2130.29 L2770.63,2131.42 L2773.67,2132.79 L2776.65,2134.26 L2779.6,2135.79 L2782.54,2137.34 L2785.52,2138.83 L2788.54,2140.26 L2791.62,2141.47 L2794.81,2142.46 L2798.09,2143.03 L2801.4,2143.11 L2804.72,2142.82 L2807.97,2142.14 L2811.16,2141.18 L2814.28,2140.05 L2817.37,2138.77 L2820.41,2137.42 L2823.43,2136.02 L2826.45,2134.63 L2829.51,2133.29 L2832.62,2132.1 L2835.81,2131.17 L2839.06,2130.84 L2842.08,2131.66 L2844.36,2133.77 L2845.79,2136.65 L2846.59,2139.84 L2847.03,2143.13 L2847.32,2146.42 L2847.53,2149.74 L2847.74,2153.05 L2848.04,2156.37 L2848.48,2159.66 L2849.17,2162.91 L2850.26,2166.04 L2851.92,2168.87 L2854.04,2171.41 L2856.47,2173.67 L2859.05,2175.77 L2861.76,2177.72 L2864.52,2179.55 L2867.34,2181.33 L2870.17,2183.09 L2872.98,2184.86 L2875.75,2186.7 L2878.43,2188.67 L2880.99,2190.77 L2883.43,2193.04 L2885.73,2195.45 L2887.83,2198.03 L2889.8,2200.69 L2891.69,2203.44 L2893.56,2206.19 L2895.47,2208.92 L2896.55,2210.3" vector-effect="none"/>
   <path fill-rule="evenodd" d="M2628.73,1156.81 L2628.75,1156.79 L2628.77,1156.75 L2628.83,1156.67 L2628.92,1156.54 L2629.02,1156.37 L2629.17,1156.16 L2629.34,1155.89 L2629.57,1155.53 L2629.82,1155.05 L2630.76,1154.74 L2633.83,1155.97 L2636.83,1157.25 L2639.85,1158.49 L2642.85,1159.69 L2645.87,1160.84 L2648.89,1162 L2651.93,1163.11 L2654.97,1164.2 L2658.01,1165.27 L2661.06,1166.34 L2664.12,1167.39 L2667.2,1168.44 L2670.29,1169.48 L2673.39,1170.53 L2676.5,1171.58 L2679.62,1172.65 L2682.79,1173.62 L2685.98,1174.58 L2689.17,1175.53 L2692.38,1176.45 L2695.59,1177.33 L2698.77,1178.19 L2702.01,1178.97 L2705.22,1179.72 L2708.45,1180.39 L2711.7,1181 L2714.99,1181.48 L2718.28,1181.88 L2721.6,1182.16 L2724.93,1182.3 L2728.25,1182.32 L2731.58,1182.26 L2734.9,1182.13 L2738.19,1181.97 L2741.47,1181.78 L2744.7,1181.69 L2747.89,1181.69 L2751.05,1181.71 L2754.2,1181.76 L2757.33,1181.8 L2760.45,1181.86 L2763.56,1181.9 L2766.7,1181.92 L2769.85,1181.92 L2773,1181.8 L2776.18,1181.61 L2779.39,1181.32 L2782.63,1180.9 L2785.86,1180.33 L2789.11,1179.72 L2792.34,1178.99 L2795.55,1178.13 L2798.74,1177.14 L2801.88,1176.05 L2804.99,1174.88 L2808.07,1173.64 L2811.13,1172.32 L2814.18,1170.93 L2817.18,1169.51 L2820.13,1167.99 L2823.05,1166.46 L2825.9,1164.85 L2828.65,1163.09 L2831.29,1161.22 L2833.9,1159.31 L2836.48,1157.42 L2839.01,1155.49 L2841.53,1153.58 L2844.03,1151.65 L2846.55,1149.72 L2849.06,1147.77 L2851.6,1145.84 L2854.18,1143.89 L2856.78,1141.96 L2859.47,1140.05 L2862.2,1138.18 L2865.01,1136.38 L2867.8,1134.58 L2870.65,1132.88 L2873.5,1131.22 L2876.31,1129.54 L2879.04,1127.84 L2881.73,1126.14 L2884.37,1124.42 L2886.97,1122.72 L2889.55,1121 L2892.13,1119.33 L2894.69,1117.67 L2897.27,1116.01 L2899.87,1114.4 L2902.5,1112.78 L2903.76,1112" vector-effect="none"/>
   <path fill-rule="evenodd" d="M2969.64,1090.51 L2972.33,1089.87 L2975.5,1089.1 L2978.67,1088.28 L2981.84,1087.42 L2984.96,1086.52 L2988.09,1085.57 L2991.17,1084.56 L2994.23,1083.49 L2997.25,1082.36 L3000.23,1081.12 L3003.15,1079.76 L3006,1078.27 L3008.75,1076.66 L3011.41,1074.93 L3013.93,1073.15 L3016.26,1071.24 L3018.36,1069.25 L3020.08,1067.13 L3021.53,1064.99 L3022.72,1062.79 L3023.77,1060.52 L3024.63,1058.17 L3025.32,1055.66 L3025.76,1052.93 L3025.83,1049.97 L3025.39,1046.87 L3024.48,1043.74 L3023.29,1040.66 L3021.92,1037.61 L3020.48,1034.64 L3018.99,1031.66 L3017.5,1028.7 L3016.01,1025.72 L3014.6,1022.72 L3013.28,1019.7 L3012.09,1016.64 L3011.12,1013.55 L3010.26,1010.45 L3009.55,1007.3 L3009.04,1004.18 L3008.75,1001.03 L3008.67,997.882 L3008.81,994.735 L3009.19,991.588 L3009.82,988.462 L3010.64,985.316 L3011.58,982.211 L3012.61,979.106 L3013.7,975.98 L3014.81,972.875 L3015.93,969.729 L3016.99,966.582 L3018.13,963.456 L3019.32,960.351 L3020.58,957.268 L3021.84,954.205 L3023.12,951.121 L3024.38,948.058 L3025.64,944.974 L3026.85,941.869 L3028.01,938.765 L3029.08,935.618 L3030.13,932.45 L3031.18,929.303 L3032.16,926.136 L3033.09,922.968 L3033.92,919.779 L3034.64,916.591 L3035.2,913.381 L3035.62,910.171 L3035.92,906.962 L3036.09,903.773 L3036.13,900.563 L3036,897.333 L3035.71,894.123 L3035.2,890.913 L3034.32,887.724 L3033.25,884.599 L3032.04,881.515 L3030.67,878.494 L3029.18,875.515 L3027.59,872.599 L3025.87,869.746 L3024.09,866.956 L3022.2,864.208 L3020.25,861.523 L3018.25,858.858 L3016.16,856.278 L3013.85,853.886 L3011.41,851.6 L3008.92,849.418 L3006.34,847.32 L3003.99,845.483" vector-effect="none"/>
   <path fill-rule="evenodd" d="M2943.07,1307.69 L2945.31,1309.33 L2947.81,1311.51 L2950.3,1313.71 L2952.82,1315.89 L2955.32,1318.09 L2957.84,1320.26 L2960.4,1322.42 L2962.95,1324.54 L2965.54,1326.63 L2968.14,1328.69 L2970.8,1330.72 L2973.46,1332.7 L2976.21,1334.58 L2979,1336.41 L2981.86,1338.11 L2984.81,1339.66 L2987.9,1340.9 L2991.04,1341.97 L2994.25,1342.89 L2997.49,1343.69 L3000.76,1344.36 L3004.03,1344.95 L3007.32,1345.45 L3010.62,1345.89 L3013.93,1346.27 L3017.25,1346.6 L3020.56,1346.9 L3023.9,1347.19 L3027.21,1347.49 L3030.53,1347.76 L3033.84,1348.07 L3037.16,1348.41 L3040.47,1348.72 L3043.78,1349.08 L3047.1,1349.46 L3050.41,1349.86 L3053.71,1350.28 L3057.02,1350.7 L3060.34,1351.07 L3063.65,1351.43 L3066.97,1351.72 L3070.28,1351.95 L3073.62,1352.1 L3076.95,1352.12 L3080.29,1352.02 L3083.6,1351.74 L3086.89,1351.28 L3090.08,1350.36 L3093.17,1349.1 L3096.17,1347.63 L3099.08,1346.02 L3101.94,1344.3 L3104.73,1342.49 L3107.5,1340.65 L3110.26,1338.78 L3113.01,1336.89 L3115.76,1335.02 L3118.55,1333.2 L3121.38,1331.46 L3124.3,1329.86 L3127.36,1328.58 L3130.63,1327.95 L3133.8,1328.79 L3136.13,1331.12 L3136.74,1332.32" vector-effect="none"/>
   <path fill-rule="evenodd" d="M2764.23,1680.68 L2766.03,1680.96 L2769.37,1681.15 L2772.68,1681.31 L2776.02,1681.44 L2779.33,1681.52 L2782.67,1681.54 L2786,1681.48 L2789.34,1681.31 L2792.65,1681.02 L2795.95,1680.56 L2799.2,1679.82 L2802.22,1678.5 L2804.97,1676.7 L2807.42,1674.5 L2809.6,1672 L2811.64,1669.38 L2813.57,1666.67 L2815.52,1663.96 L2817.55,1661.32 L2819.74,1658.85 L2822.19,1656.6 L2824.96,1654.8 L2828.04,1653.6 L2831.32,1653.18 L2834.61,1653.58 L2837.82,1654.46 L2840.92,1655.64 L2843.97,1657.02 L2846.92,1658.53 L2849.86,1660.13 L2852.76,1661.78 L2855.63,1663.46 L2858.48,1665.16 L2861.36,1666.86 L2864.23,1668.54 L2867.13,1670.17 L2870.06,1671.77 L2873.02,1673.3 L2876.02,1674.73 L2879.06,1676.05 L2882.19,1677.22 L2885.36,1678.23 L2888.59,1679.03 L2891.86,1679.74 L2895.15,1680.22 L2898.47,1680.5 L2901.8,1680.64 L2905.12,1680.64 L2908.45,1680.56 L2911.79,1680.39 L2915.1,1680.16 L2918.44,1679.91 L2921.75,1679.59 L2925.07,1679.28 L2928.38,1678.96 L2931.7,1678.67 L2935.03,1678.4 L2938.35,1678.19 L2941.68,1678.1 L2945.02,1678.17 L2948.31,1678.54 L2951.52,1679.45 L2953.93,1681.67 L2954.92,1684.8 L2954.84,1688.11 L2954.16,1691.36 L2953.24,1694.55 L2952.39,1697.22" vector-effect="none"/>
   <path fill-rule="evenodd" d="M1998.06,1908.15 L1997.03,1908.28 L1993.69,1908.19 L1990.38,1908.07 L1987.04,1908.01 L1983.71,1907.98 L1980.37,1908.07 L1977.06,1908.24 L1973.72,1908.55 L1970.43,1909.05 L1967.2,1909.81 L1964.05,1910.92 L1961.03,1912.28 L1958.11,1913.9 L1955.39,1915.81 L1952.85,1917.95 L1950.48,1920.28 L1948.21,1922.71 L1946.03,1925.25 L1943.93,1927.81 L1941.83,1930.39 L1939.74,1932.97 L1937.62,1935.55 L1935.65,1938.23 L1933.7,1940.92 L1931.7,1943.58 L1929.73,1946.25 L1927.74,1948.91 L1925.74,1951.6 L1923.77,1954.26 L1921.82,1956.97 L1919.91,1959.67 L1918,1962.42 L1916.16,1965.19 L1914.37,1967.98 L1912.63,1970.81 L1910.95,1973.69 L1909.36,1976.6 L1907.85,1979.58 L1906.47,1982.6 L1905.21,1985.67 L1904.01,1988.77 L1903,1991.94 L1902.14,1995.15 L1901.39,1998.4 L1900.72,2001.65 L1900.13,2004.93 L1899.61,2008.2 L1899.12,2011.49 L1898.7,2014.78 L1898.3,2018.1 L1897.95,2021.39 L1897.63,2024.71 L1897.34,2028.02 L1897.09,2031.34 L1896.84,2034.65 L1896.65,2037.97 L1896.46,2041.28 L1896.31,2044.62" vector-effect="none"/>
   <path fill-rule="evenodd" d="M2310.63,862.718 L2309,862.55 L2305.72,861.858 L2302.47,861.166 L2299.22,860.495 L2295.95,859.844 L2292.66,859.257 L2289.38,858.711 L2286.09,858.229 L2282.77,857.851 L2279.44,857.6 L2276.12,857.495 L2272.79,857.642 L2269.54,858.355 L2266.39,859.425 L2263.35,860.788 L2260.41,862.341 L2257.56,864.061 L2254.79,865.907 L2252.04,867.774 L2249.31,869.683 L2246.57,871.592 L2243.82,873.459 L2241.01,875.242 L2238.15,876.942 L2235.24,878.515 L2232.17,879.816 L2229.05,880.99 L2225.92,882.102 L2222.76,883.172 L2219.59,884.2 L2216.42,885.249 L2213.25,886.277 L2210.11,887.326 L2206.96,888.417 L2203.81,889.55 L2200.71,890.745 L2197.62,892.004 L2194.58,893.368 L2191.6,894.836 L2188.67,896.43 L2185.83,898.172 L2183.11,900.081 L2180.53,902.178 L2178.11,904.465 L2175.83,906.899 L2173.69,909.437 L2171.65,912.059 L2169.68,914.745 L2167.77,917.472 L2165.88,920.22 L2164.02,922.968 L2162.11,925.695 L2160.16,928.401 L2158.14,931.045 L2156.04,933.625 L2153.82,936.079 L2151.45,938.429 L2148.93,940.59 L2146.29,942.625 L2143.54,944.513 L2140.69,946.212 L2137.71,947.722 L2134.69,949.107 L2131.58,950.345 L2128.48,951.52 L2125.33,952.61 L2122.16,953.659 L2119,954.687 L2115.83,955.715 L2112.66,956.764 L2109.51,957.855 L2106.39,959.03 L2103.31,960.288 L2100.28,961.673 L2097.35,963.225 L2094.49,964.946 L2091.85,966.981 L2089.38,969.204 L2086.96,971.491 L2084.63,973.861 L2082.35,976.295 L2080.12,978.77 L2077.92,981.267 L2075.76,983.784 L2073.62,986.344 L2071.5,988.924 L2069.43,991.504 L2067.37,994.126 L2065.33,996.749 L2063.3,999.392 L2061.31,1002.06 L2059.31,1004.72 L2057.36,1007.41 L2055.41,1010.11" vector-effect="none"/>
   <path fill-rule="evenodd" d="M1920.19,2168.37 L1920.16,2168.39 L1918.44,2167.09 L1916.07,2164.76 L1913.7,2162.41 L1911.31,2160.1 L1908.88,2157.84 L1906.36,2155.65 L1903.72,2153.64 L1900.82,2152.11 L1897.74,2151.02 L1894.51,2150.45 L1891.19,2150.3 L1887.88,2150.54 L1884.59,2151.02 L1881.33,2151.73 L1878.1,2152.59 L1874.91,2153.56 L1871.75,2154.61 L1868.6,2155.68 L1865.45,2156.75 L1862.29,2157.79 L1859.12,2158.84 L1855.97,2159.91 L1852.82,2161.02 L1849.72,2162.2 L1846.61,2163.42 L1843.55,2164.74 L1840.53,2166.12 L1837.55,2167.61 L1834.64,2169.23 L1831.8,2170.99 L1829.08,2172.9 L1826.5,2174.98 L1824.36,2177.06" vector-effect="none"/>
   <path fill-rule="evenodd" d="M2299.58,1336.49 L2296.93,1336.45 L2293.62,1336.18 L2290.31,1335.93 L2286.97,1335.74 L2283.66,1335.65 L2280.32,1335.65 L2276.98,1335.82 L2273.67,1336.18 L2270.42,1336.87 L2267.31,1338.05 L2264.78,1340.18 L2262.91,1342.91 L2261.4,1345.87 L2260.03,1348.91 L2258.69,1351.95 L2257.2,1354.93 L2255.42,1357.74 L2253.17,1360.18 L2250.36,1361.92 L2247.13,1362.65 L2243.82,1362.61 L2240.52,1362.15 L2237.27,1361.39 L2234.06,1360.49 L2230.9,1359.48 L2227.73,1358.42 L2224.58,1357.32 L2221.45,1356.21 L2218.31,1355.12 L2215.14,1354.07 L2211.97,1353.07 L2208.76,1352.12 L2205.53,1351.3 L2202.28,1350.63 L2198.99,1350.15 L2195.65,1349.92 L2192.34,1349.98 L2189,1350.3 L2185.71,1350.78 L2182.44,1351.37 L2179.16,1352.04 L2175.93,1352.79 L2172.7,1353.61 L2169.47,1354.49 L2166.28,1355.39 L2163.07,1356.34 L2159.9,1357.32 L2156.74,1358.35 L2153.57,1359.4 L2150.42,1360.49 L2147.28,1361.6 L2144.15,1362.74" vector-effect="none"/>
   <path fill-rule="evenodd" d="M2281.52,2288.66 L2281.73,2290.75 L2281.81,2294.07 L2281.89,2297.4 L2281.98,2300.72 L2282.1,2304.03 L2282.27,2307.37 L2282.46,2310.68 L2282.71,2314 L2283.03,2317.31 L2283.4,2320.61 L2283.89,2323.9 L2284.47,2327.17 L2285.23,2330.4 L2286.19,2333.59 L2287.45,2336.66 L2289.01,2339.61 L2290.85,2342.36 L2292.91,2344.98 L2295.09,2347.48 L2297.38,2349.91 L2299.73,2352.26 L2302.1,2354.61 L2304.47,2356.96 L2306.79,2359.31 L2309.08,2361.75 L2311.24,2364.26 L2313.24,2366.93 L2314.93,2369.78 L2316.09,2372.88 L2316.51,2376.18 L2316.05,2379.45 L2314.96,2382.58 L2313.49,2385.56 L2311.83,2388.43 L2310.11,2391.28 L2310.03,2391.43" vector-effect="none"/>
   <path fill-rule="evenodd" d="M1839.48,1722.31 L1839.46,1722.31 L1839.44,1722.31 L1839.38,1722.33 L1839.29,1722.35 L1839.19,1722.37 L1838.16,1720.4 L1837.11,1717.25 L1836.13,1714.06 L1835.14,1710.89 L1834.15,1707.7 L1833.15,1704.54 L1832.1,1701.39 L1831.01,1698.24 L1829.87,1695.14 L1828.66,1692.05 L1827.4,1688.99 L1826.12,1685.93 L1824.84,1682.89 L1823.52,1679.84 L1822.17,1676.8 L1820.81,1673.8 L1819.38,1670.8 L1817.94,1667.82 L1816.41,1664.89 L1814.79,1661.97 L1813.09,1659.12 L1811.31,1656.31 L1809.5,1653.54 L1807.64,1650.79 L1805.73,1648.08 L1803.76,1645.44 L1801.7,1642.86 L1799.58,1640.38 L1797.34,1637.99 L1795.01,1635.75 L1792.57,1633.67 L1790.04,1631.78 L1787.39,1630.13 L1784.67,1628.7 L1781.9,1627.48 L1779.06,1626.48 L1776.17,1625.64 L1773.21,1625.01 L1770.19,1624.57 L1767.09,1624.34 L1763.92,1624.38 L1760.75,1624.59 L1757.54,1625.05 L1754.35,1625.72 L1751.18,1626.58 L1748.04,1627.59 L1744.91,1628.7 L1741.83,1629.9 L1738.76,1631.2 L1735.72,1632.54 L1732.7,1633.94 L1729.72,1635.39 L1726.74,1636.88 L1723.79,1638.39 L1720.83,1639.92 L1717.87,1641.48 L1714.98,1643.11 L1712.12,1644.81 L1709.31,1646.57 L1706.52,1648.4 L1703.77,1650.24 L1701.05,1652.11 L1698.36,1654.04 L1695.74,1656.08 L1693.16,1658.17 L1690.64,1660.34 L1688.14,1662.54 L1685.67,1664.76 L1683.21,1667.01 L1680.78,1669.27 L1678.33,1671.54 L1675.89,1673.78 L1673.42,1676.03 L1670.92,1678.21 L1668.36,1680.35 L1665.76,1682.38 L1663.1,1684.29 L1660.33,1686.03 L1657.49,1687.59 L1654.64,1688.97 L1651.73,1690.17 L1648.79,1691.24 L1645.81,1692.16 L1642.79,1692.98 L1639.73,1693.69 L1636.52,1694.22 L1633.26,1694.68 L1629.97,1695.14 L1626.7,1695.68 L1623.49,1696.35 L1620.43,1697.15 L1617.47,1698.05 L1614.59,1699.06 L1611.8,1700.13 L1609.01,1701.31 L1606.27,1702.63 L1603.5,1704.16 L1600.77,1705.9 L1598.11,1707.85 L1595.48,1709.86 L1592.84,1711.88 L1590.18,1713.75 L1587.45,1715.28 L1584.72,1716.56 L1581.99,1717.67 L1579.27,1718.63 L1576.5,1719.49 L1573.64,1720.21 L1570.71,1720.77 L1567.67,1721.15 L1564.5,1721.32 L1561.25,1721.21 L1557.95,1720.96 L1554.64,1720.63 L1551.32,1720.29 L1548.01,1720.02 L1544.72,1719.91 L1541.46,1719.89 L1538.25,1720.08 L1535.11,1720.46 L1532,1720.94 L1528.94,1721.57 L1525.88,1722.28 L1522.81,1723.1 L1519.73,1724.05 L1516.65,1725.1 L1513.56,1726.27 L1510.46,1727.51 L1507.35,1728.66 L1504.25,1729.65 L1501.16,1730.38 L1498.21,1730.74 L1495.35,1730.84 L1492.63,1730.76 L1489.94,1730.57 L1487.3,1730.26 L1484.65,1729.84 L1481.99,1729.27 L1479.26,1728.51 L1476.51,1727.53 L1473.75,1726.27 L1471,1724.72 L1468.31,1722.89 L1465.69,1720.9 L1463.09,1718.84 L1460.53,1716.72 L1457.93,1714.65 L1455.31,1712.61 L1452.7,1710.54 L1450.14,1708.46 L1447.56,1706.38 L1444.96,1704.37 L1442.34,1702.38 L1439.68,1700.45 L1436.99,1698.58 L1434.24,1696.82 L1431.43,1695.16 L1428.56,1693.65 L1425.6,1692.31 L1422.54,1691.19 L1419.43,1690.21 L1416.33,1689.37 L1413.18,1688.59 L1410.03,1687.9 L1406.87,1687.29 L1403.68,1686.79 L1400.47,1686.41 L1397.26,1686.18 L1394.01,1686.12 L1390.78,1686.2 L1387.55,1686.52 L1384.31,1687.1 L1381.15,1687.77 L1378,1688.57 L1374.92,1689.52 L1371.9,1690.65 L1369.06,1692.14 L1366.34,1693.84 L1363.71,1695.75 L1361.26,1697.89 L1358.91,1700.21 L1356.73,1702.69 L1354.61,1705.23 L1352.6,1707.85 L1350.67,1710.56 L1348.82,1713.33 L1347.04,1716.12 L1345.32,1718.97 L1343.66,1721.84 L1342.04,1724.74 L1340.47,1727.68 L1338.94,1730.63 L1337.45,1733.61 L1336.02,1736.61 L1334.64,1739.63 L1333.3,1742.68 L1331.99,1745.74 L1330.8,1748.84 L1329.73,1751.99 L1328.79,1755.16 L1327.93,1758.37 L1327.19,1761.6 L1326.58,1764.85 L1326.08,1768.14 L1325.64,1771.44 L1325.28,1774.73 L1324.97,1778.04 L1324.67,1781.36 L1324.42,1784.67 L1324.15,1787.99 L1323.88,1791.3 L1323.54,1794.6 L1323.16,1797.91 L1322.66,1801.18 L1321.99,1804.44 L1321.02,1807.56 L1319.51,1810.27 L1317.56,1812.16 L1315.53,1813.41 L1313.43,1814.36 L1311.18,1815.07 L1308.67,1815.51 L1305.81,1815.55 L1302.73,1815.18 L1299.58,1814.53 L1296.35,1813.81 L1293.08,1813.23 L1289.81,1813.08 L1286.7,1813.41 L1283.7,1813.88 L1280.77,1814.46 L1277.87,1815.16 L1275.04,1816.02 L1272.23,1817.09 L1269.46,1818.51 L1266.84,1820.34 L1264.38,1822.48 L1262.14,1824.89 L1260.1,1827.51 L1258.28,1830.3 L1256.62,1833.2 L1255.9,1834.68" vector-effect="none"/>
   <path fill-rule="evenodd" d="M1763.48,1503.65 L1762.13,1501.76 L1760.08,1499.14 L1758.04,1496.52 L1756.01,1493.89 L1753.95,1491.25 L1751.9,1488.65 L1749.84,1486.03 L1747.76,1483.42 L1745.69,1480.82 L1743.61,1478.24 L1741.49,1475.66 L1739.37,1473.1 L1737.23,1470.54 L1735.07,1468.03 L1732.89,1465.51 L1730.69,1463.01 L1728.46,1460.54 L1726.22,1458.08 L1723.93,1455.65 L1721.63,1453.28 L1719.25,1450.93 L1716.84,1448.62 L1714.39,1446.4 L1711.85,1444.24 L1709.29,1442.12 L1706.67,1440.06 L1703.94,1438.13 L1701.17,1436.31 L1698.32,1434.59 L1695.42,1432.93 L1692.51,1431.31 L1689.55,1429.78 L1686.59,1428.27 L1683.59,1426.8 L1680.59,1425.38 L1677.57,1423.95 L1674.57,1422.55 L1671.55,1421.12 L1668.53,1419.69 L1665.53,1418.27 L1662.53,1416.8 L1659.55,1415.31 L1656.61,1413.76 L1653.7,1412.12 L1650.87,1410.4 L1648.1,1408.55 L1645.43,1406.54 L1642.98,1404.29 L1640.84,1401.76 L1639.2,1398.88 L1638.38,1395.67 L1638.43,1392.36 L1639.14,1389.11 L1640.31,1386 L1641.78,1383.02 L1643.4,1380.11 L1645.1,1377.25 L1646.82,1374.4 L1648.47,1371.53 L1650.01,1368.57 L1651.31,1365.51 L1652.17,1362.3 L1652.35,1359 L1652.08,1355.69 L1651.58,1352.39 L1650.87,1349.16 L1649.96,1345.95 L1648.91,1342.81 L1647.74,1339.7 L1646.48,1336.62 L1645.18,1333.56 L1643.86,1330.51 L1642.54,1327.45 L1641.22,1324.41 L1639.96,1321.33 L1638.74,1318.24 L1637.59,1315.12 L1636.52,1311.97 L1635.47,1308.82 L1634.44,1305.65 L1633.43,1302.49 L1632.4,1299.32 L1631.38,1296.17 L1630.33,1293 L1629.26,1289.86 L1628.15,1286.73 L1626.97,1283.61 L1625.75,1280.52 L1624.47,1277.46 L1623.13,1274.42 L1621.71,1271.42 L1620.17,1268.46 L1618.54,1265.57 L1616.78,1262.73 L1614.87,1260.01 L1612.77,1257.43 L1610.52,1254.97 L1608.15,1252.64 L1605.7,1250.38 L1603.18,1248.22 L1600.62,1246.1 L1598.02,1244.02 L1595.4,1241.96 L1592.76,1239.93 L1590.11,1237.89 L1587.49,1235.84 L1584.91,1233.76 L1582.35,1231.62 L1579.87,1229.4 L1577.5,1227.07 L1575.28,1224.59 L1573.29,1221.93 L1571.53,1219.1 L1570.06,1216.12 L1568.95,1212.99 L1568.13,1209.76 L1567.54,1206.49 L1567.16,1203.2 L1566.85,1199.88 L1566.53,1196.59 L1566.13,1193.29 L1565.53,1190.02 L1564.6,1186.85 L1563.24,1183.85 L1561.48,1181.04 L1559.4,1178.46 L1557.03,1176.13 L1554.43,1174.06 L1551.72,1172.15 L1548.93,1170.34 L1546.12,1168.56 L1543.31,1166.76 L1540.58,1164.87 L1537.94,1162.86 L1535.42,1160.65 L1533.11,1158.26 L1531.04,1155.66 L1529.21,1152.89 L1527.47,1150.06 L1525.79,1147.18 L1524.18,1144.27 L1522.6,1141.33 L1521.05,1138.39 L1519.54,1135.44 L1518.03,1132.48 L1516.54,1129.5 L1515.07,1126.5 L1513.63,1123.52 L1512.49,1121.17" vector-effect="none"/>
   <path fill-rule="evenodd" d="M2931.26,1478.14 L2931.07,1479.36 L2930.06,1482.52 L2929.03,1485.67 L2928.03,1488.84 L2927.1,1492.05 L2926.26,1495.26 L2925.61,1498.51 L2925.17,1501.8 L2925.17,1505.12 L2925.95,1508.33 L2927.12,1511.41 L2928.72,1514.31 L2930.63,1517.03 L2932.77,1519.59 L2935.03,1522.03 L2937.38,1524.37 L2939.79,1526.68 L2942.19,1528.99 L2944.58,1531.3 L2946.99,1533.58 L2949.44,1535.85 L2951.9,1538.09 L2954.4,1540.3 L2956.95,1542.42 L2959.62,1544.41 L2962.39,1546.28 L2965.28,1547.91 L2968.33,1549.28 L2971.49,1550.26 L2974.77,1550.87 L2978.08,1551.12 L2981.39,1550.81 L2984.65,1550.07 L2987.84,1549.13 L2991,1548.1 L2994.19,1547.09 L2997.4,1546.26 L3000.67,1545.65 L3003.99,1545.46 L3007.3,1545.79 L3010.53,1546.55 L3013.62,1547.83 L3016.51,1549.46 L3019.26,1551.31 L3021.92,1553.32 L3024.51,1555.42 L3027.04,1557.58 L3029.58,1559.74 L3032.12,1561.88 L3034.7,1563.98 L3037.36,1566 L3040.11,1567.86 L3041.96,1568.92" vector-effect="none"/>
   <path fill-rule="evenodd" d="M2228.02,1218.53 L2226.59,1219.62 L2224.31,1222.04 L2222,1224.43 L2219.67,1226.8 L2217.34,1229.19 L2215.01,1231.56 L2212.69,1233.95 L2210.38,1236.34 L2208.09,1238.75 L2205.81,1241.19 L2203.56,1243.64 L2201.34,1246.12 L2199.15,1248.64 L2197.02,1251.17 L2194.94,1253.78 L2192.95,1256.44 L2191.04,1259.17 L2189.3,1262 L2187.76,1264.94 L2186.48,1268.02 L2185.44,1271.17 L2184.53,1274.35 L2183.78,1277.61 L2183.15,1280.86 L2182.58,1284.13 L2182.06,1287.42 L2181.58,1290.72 L2181.09,1294.01 L2180.61,1297.28 L2180.06,1300.58 L2179.44,1303.83 L2178.68,1307.06 L2177.72,1310.25 L2176.44,1313.31 L2174.65,1316.12 L2172.18,1318.33 L2169.07,1319.42 L2165.76,1319.56 L2162.48,1319.04 L2159.3,1318.05 L2156.19,1316.84 L2153.17,1315.45 L2150.19,1313.96 L2147.23,1312.41 L2144.32,1310.84 L2141.38,1309.26 L2138.42,1307.71 L2135.46,1306.2 L2132.46,1304.75 L2129.42,1303.39 L2126.32,1302.17 L2123.15,1301.14 L2119.92,1300.39 L2116.61,1299.97 L2113.29,1299.89 L2109.96,1299.95 L2106.62,1300.12 L2105.07,1300.23" vector-effect="none"/>
   <path fill-rule="evenodd" d="M2916.15,981.372 L2918.5,983.344 L2920.79,985.735 L2923.08,988.169 L2925.4,990.539 L2927.77,992.868 L2930.27,995.091 L2932.89,997.105 L2935.83,998.637 L2939.1,998.637 L2942.27,997.63 L2945.31,996.287 L2948.29,994.777 L2951.23,993.203 L2954.16,991.651 L2957.16,990.225 L2960.35,989.469 L2961.13,992.217 L2959.81,995.259 L2958.15,998.133 L2956.37,1000.94 L2954.5,1003.69 L2952.61,1006.44 L2950.72,1009.17 L2948.82,1011.92 L2946.95,1014.64 L2945.08,1017.41 L2943.26,1020.18 L2941.47,1022.99 L2939.75,1025.85 L2938.12,1028.74 L2936.56,1031.68 L2935.16,1034.7 L2934.72,1035.8" vector-effect="none"/>
   <path fill-rule="evenodd" d="M2480.14,732.38 L2479.38,731.625 L2477.2,729.107 L2475.06,726.548 L2472.92,724.01 L2470.76,721.471 L2468.58,718.954 L2466.4,716.457 L2464.2,713.961 L2461.97,711.486 L2459.71,709.052 L2457.42,706.619 L2455.09,704.248 L2452.74,701.898 L2450.33,699.591 L2447.85,697.367 L2445.29,695.227 L2442.63,693.255 L2439.82,691.472 L2436.9,689.857 L2433.92,688.388 L2430.86,687.046 L2427.78,685.829 L2424.63,684.696 L2421.48,683.626 L2418.29,682.64 L2415.11,681.696 L2411.9,680.794 L2408.69,679.913 L2405.48,679.032 L2402.27,678.13 L2399.06,677.207 L2395.89,676.221 L2392.74,675.13 L2389.64,673.934 L2386.58,672.634 L2383.62,671.123 L2380.76,669.403 L2378.02,667.515 L2375.35,665.522 L2372.69,663.529 L2369.94,661.662 L2366.98,660.131 L2363.79,659.187 L2360.48,659.019 L2357.27,659.879 L2354.31,661.368 L2351.5,663.151 L2348.75,665.019 L2345.96,666.865 L2343.09,668.522 L2340.05,669.865 L2336.84,670.704 L2333.54,670.788 L2330.31,670.074 L2327.19,668.9 L2324.19,667.473 L2321.23,665.942 L2318.31,664.326 L2315.42,662.669 L2312.52,661.054 L2309.58,659.459 L2306.61,657.991 L2303.56,656.648 L2300.42,655.515 L2297.19,654.718 L2293.87,654.383 L2291.77,654.422" vector-effect="none"/>
   <path fill-rule="evenodd" d="M1696.2,1977.09 L1696.05,1977.36 L1693.22,1978.93 L1690.14,1980.21 L1687.07,1981.49 L1684.01,1982.81 L1681.01,1984.24 L1678.12,1985.9 L1675.72,1988.08 L1673.98,1990.76 L1672.98,1993.89 L1672.56,1997.18 L1672.52,2000.52 L1672.62,2003.83 L1672.79,2007.15 L1672.93,2010.48 L1673.02,2013.8 L1672.83,2017.11 L1672.6,2020.43 L1672.33,2023.74 L1672.05,2027.06 L1671.8,2030.37 L1671.57,2033.69 L1671.4,2037 L1671.3,2040.34 L1671.26,2043.65 L1671.32,2046.99 L1671.49,2050.3 L1671.76,2053.62 L1672.1,2056.14" vector-effect="none"/>
   <path fill-rule="evenodd" d="M2082.58,1154.51 L2082.56,1154.53 L2081.89,1154.07 L2079.26,1151.99 L2076.62,1149.97 L2073.94,1148 L2071.21,1146.09 L2068.44,1144.23 L2065.63,1142.46 L2062.73,1140.81 L2059.78,1139.34 L2056.71,1138.12 L2053.61,1137.03 L2050.44,1136.07 L2047.21,1135.33 L2043.92,1134.85 L2040.62,1134.49 L2037.31,1134.24 L2033.97,1134.16 L2030.66,1134.26 L2027.36,1134.6 L2024.11,1135.21 L2020.97,1136.17 L2018.01,1137.53 L2015.43,1139.46 L2013.25,1141.81 L2011.38,1144.5 L2009.85,1147.42 L2008.55,1150.46 L2007.43,1153.58 L2006.47,1156.77 L2005.63,1159.98 L2004.9,1163.21 L2004.27,1166.48 L2003.7,1169.76 L2003.24,1173.05 L2002.82,1176.34 L2002.46,1179.66 L2002.19,1182.97 L2001.96,1186.29 L2001.79,1189.6 L2001.69,1192.92 L2001.67,1196.25 L2001.73,1199.57 L2001.98,1202.88 L2002.36,1206.2 L2002.82,1209.49 L2003.36,1212.76 L2003.97,1216.04 L2004.64,1219.29 L2005.38,1222.52 L2006.2,1225.75 L2007.08,1228.96 L2008.02,1232.15 L2009.03,1235.31 L2010.12,1238.44 L2011.32,1241.54 L2012.59,1244.61 L2014,1247.63 L2015.53,1250.57 L2017.21,1253.42 L2019.2,1256.06 L2021.55,1258.41 L2024.17,1260.45 L2027.05,1262.12 L2030.09,1263.45 L2033.26,1264.47 L2036.51,1265.21 L2037.94,1265.44" vector-effect="none"/>
   <path fill-rule="evenodd" d="M1563.34,1532.41 L1561.46,1533.37 L1558.35,1534.57 L1555.23,1535.72 L1552.1,1536.9 L1548.99,1538.09 L1545.91,1539.35 L1542.85,1540.65 L1539.81,1542.02 L1536.81,1543.46 L1533.87,1545.04 L1531.04,1546.76 L1528.37,1548.77 L1526.32,1551.37 L1524.68,1554.27 L1523.32,1557.29 L1522.12,1560.39 L1521.03,1563.54 L1520.02,1566.69 L1519.02,1569.86 L1517.99,1573.02 L1516.9,1576.17 L1515.62,1579.23 L1513.9,1582.07 L1511.25,1583.53 L1508.34,1582.8 L1505.93,1580.62 L1504,1577.91 L1502.3,1575.06 L1500.72,1572.14 L1499.21,1569.16 L1497.72,1566.21 L1496.23,1563.23 L1494.72,1560.25 L1493.19,1557.31 L1491.58,1554.39 L1489.88,1551.54 L1488.07,1548.75 L1486.1,1546.07 L1483.94,1543.55 L1481.57,1541.22 L1478.97,1539.14 L1476.2,1537.32 L1473.26,1535.77 L1470.2,1534.44 L1467.07,1533.29 L1463.93,1532.24 L1460.74,1531.23 L1457.57,1530.23 L1454.4,1529.16 L1451.3,1527.98 L1448.26,1526.64 L1445.34,1525.05 L1442.63,1523.14 L1440.22,1520.89 L1438.19,1518.29 L1436.55,1515.44 L1435.25,1512.4 L1434.24,1509.25 L1433.53,1506.02 L1433.05,1502.72 L1432.73,1499.43 L1432.57,1496.12 L1432.48,1492.78 L1432.44,1489.47 L1432.46,1486.13 L1432.5,1482.82 L1432.54,1479.5 L1432.57,1476.17 L1432.57,1472.85 L1432.5,1469.52 L1432.38,1466.2 L1432.17,1462.89 L1431.85,1459.57 L1431.37,1456.28 L1430.74,1453.03 L1429.98,1449.8 L1429.15,1446.57 L1428.16,1443.4 L1427.15,1440.23 L1426.1,1437.08 L1425.03,1433.94 L1423.92,1430.79 L1422.77,1427.66 L1421.57,1424.56 L1420.33,1421.48 L1419.03,1418.41 L1417.69,1415.37 L1416.29,1412.37 L1414.8,1409.39 L1413.24,1406.46 L1411.59,1403.56 L1409.8,1400.75 L1407.92,1398.02 L1405.84,1395.42 L1403.57,1392.99 L1401.06,1390.81 L1398.24,1389.02 L1395.16,1387.78 L1391.91,1387.09 L1388.59,1386.88 L1385.26,1387.03 L1381.97,1387.45 L1378.69,1388.1 L1375.48,1388.92 L1372.29,1389.9 L1369.17,1391.02 L1366.06,1392.23 L1363.02,1393.55 L1360,1394.98 L1357.04,1396.49 L1354.15,1398.11 L1351.27,1399.78 L1348.48,1401.57 L1345.78,1403.48 L1343.16,1405.51 L1340.68,1407.69 L1338.33,1410 L1336.11,1412.48 L1334.01,1415.04 L1332.04,1417.7 L1330.15,1420.43 L1328.39,1423.24 L1326.71,1426.09 L1325.11,1429.01 L1323.6,1431.97 L1322.18,1434.96 L1320.81,1437.99 L1319.62,1441.07 L1318.63,1444.22 L1317.79,1447.41 L1317.08,1450.61 L1316.53,1453.85 L1316.2,1457.14 L1316.01,1460.45 L1315.97,1463.77 L1315.99,1467.08 L1316.05,1470.42 L1316.11,1473.73 L1316.18,1477.07 L1316.16,1480.38 L1316.01,1483.68 L1315.65,1486.95 L1314.96,1490.12 L1313.66,1492.93 L1311.86,1495.19 L1309.63,1497.04 L1306.84,1498.34 L1303.57,1498.76 L1300.25,1498.66 L1296.94,1498.28 L1293.65,1497.73 L1293.21,1497.64" vector-effect="none"/>
   <path fill-rule="evenodd" d="M1724.33,1275.36 L1727.44,1274.42 L1730.67,1273.6 L1733.9,1272.78 L1737.13,1271.96 L1740.34,1271.12 L1743.57,1270.29 L1746.78,1269.4 L1749.99,1268.5 L1753.2,1267.58 L1756.39,1266.63 L1759.58,1265.65 L1762.74,1264.6 L1765.89,1263.51 L1769.02,1262.36 L1772.1,1261.12 L1775.16,1259.8 L1778.14,1258.33 L1781.04,1256.67 L1783.87,1254.93 L1786.68,1253.15 L1789.45,1251.28 L1792.18,1249.37 L1794.86,1247.4 L1797.5,1245.38 L1800.11,1243.31 L1802.66,1241.19 L1805.18,1239.01 L1807.64,1236.76 L1810.05,1234.45 L1812.38,1232.08 L1814.62,1229.63 L1816.76,1227.09 L1818.78,1224.43 L1820.6,1221.66 L1822.17,1218.72 L1823.41,1215.64 L1824.21,1212.43 L1824.44,1209.13 L1824.19,1205.82 L1823.5,1202.59 L1822.49,1199.42 L1821.23,1196.36 L1819.74,1193.38 L1818.1,1190.5 L1816.32,1187.67 L1814.45,1184.92 L1812.5,1182.24 L1810.34,1179.72 L1807.97,1177.41 L1805.37,1175.36 L1802.58,1173.55 L1799.69,1171.94 L1796.71,1170.47 L1793.69,1169.04 L1790.67,1167.64 L1787.69,1166.17 L1784.75,1164.6 L1781.92,1162.83 L1779.23,1160.9 L1776.69,1158.74 L1774.39,1156.35 L1772.23,1153.81 L1770.17,1151.21 L1768.18,1148.55 L1766.23,1145.84 L1764.32,1143.14 L1762.39,1140.43 L1760.44,1137.72 L1758.44,1135.08 L1756.39,1132.46 L1754.25,1129.92 L1752.02,1127.46 L1749.65,1125.12 L1747.16,1122.93 L1744.49,1120.96 L1741.68,1119.18 L1738.76,1117.63 L1735.72,1116.28 L1732.6,1115.11 L1729.45,1114.06 L1726.24,1113.12 L1723.03,1112.26 L1719.8,1111.44 L1716.57,1110.66 L1713.32,1109.88 L1710.09,1109.09 L1706.88,1108.23 L1703.69,1107.26 L1700.58,1106.07 L1697.75,1104.37 L1696.3,1101.6 L1697.82,1098.72 L1700.42,1096.67 L1703.27,1094.97 L1706.21,1093.44 L1709.19,1091.97 L1712.16,1090.54 L1715.16,1089.1 L1718.14,1087.63 L1721.1,1086.12 L1724,1084.48 L1726.81,1082.72 L1729.49,1080.75 L1731.84,1078.42 L1733.79,1075.73 L1734.81,1073.99" vector-effect="none"/>
   <path fill-rule="evenodd" d="M2605.11,606.174 L2607.25,607.223 L2610.31,608.503 L2613.35,609.825 L2616.41,611.146 L2619.48,612.447 L2622.56,613.727 L2625.64,614.964 L2628.77,616.139 L2631.92,617.251 L2635.08,618.258 L2638.27,619.16 L2641.52,619.873 L2644.82,620.314 L2648.13,620.356 L2651.41,619.726 L2654.57,618.719 L2657.66,617.461 L2660.68,616.055 L2663.66,614.566 L2666.61,613.034 L2669.57,611.524 L2672.57,610.055 L2675.64,608.776 L2678.8,607.748 L2682.1,607.265 L2685.35,607.811 L2688.03,609.741 L2689.71,612.594 L2690.74,615.761 L2691.35,619.034 L2691.73,622.328 L2691.96,625.642 L2692.08,628.957 L2692.15,632.292 L2692.19,635.607 L2692.21,638.942 L2692.23,642.257 L2692.27,645.593 L2692.36,648.907 L2692.48,652.243 L2692.69,655.557 L2692.98,658.872 L2693.4,662.165 L2693.97,665.438 L2694.73,668.669 L2695.71,671.836 L2696.91,674.941 L2698.25,677.983 L2699.7,680.983 L2701.25,683.941 L2702.84,686.836 L2704.52,689.731 L2706.22,692.584 L2707.96,695.416 L2709.75,698.227 L2711.55,701.017 L2713.4,703.786 L2715.26,706.556 L2717.13,709.283 L2719.04,712.01 L2720.97,714.737 L2722.92,717.422 L2724.89,720.108 L2726.89,722.772" vector-effect="none"/>
   <path fill-rule="evenodd" d="M2549.2,389.888 L2549.47,388.44 L2551.09,385.608 L2552.93,382.86 L2554.84,380.133 L2556.73,377.406 L2558.6,374.637 L2560.42,371.846 L2562.14,369.014 L2563.76,366.119 L2565.21,363.119 L2566.38,359.994 L2567.03,356.763 L2566.97,353.427 L2566.44,350.155 L2565.63,346.945 L2564.62,343.756 L2563.57,340.61 L2562.54,337.442 L2561.64,334.253 L2560.91,331.002 L2560.49,327.708 L2560.44,324.393 L2560.8,321.1 L2561.45,317.827 L2562.42,314.66 L2563.65,311.576 L2565.08,308.555 L2566.59,305.618 L2568.18,302.681 L2569.8,299.765 L2571.37,296.849 L2572.9,293.891 L2574.35,290.912 L2575.65,287.849 L2576.76,284.703 L2577.6,281.493 L2578.13,278.22 L2578.51,274.906 L2578.59,271.591 L2578.44,268.276 L2578.15,264.962 L2577.94,263.308" vector-effect="none"/>
   <path fill-rule="evenodd" d="M1515.16,1911.53 L1513.23,1913.77 L1511.07,1916.29 L1508.95,1918.85 L1506.91,1921.49 L1505.07,1924.24 L1503.62,1927.22 L1503.26,1930.41 L1504.77,1933.31 L1507.14,1935.61 L1509.72,1937.71 L1512.35,1939.77 L1514.86,1941.95 L1516.81,1944.59 L1515.91,1947.55 L1513.02,1949.14 L1509.83,1950.11 L1506.58,1950.82 L1503.3,1951.43 L1500.01,1952 L1496.74,1952.56 L1493.44,1953.13 L1490.17,1953.78 L1486.92,1954.49 L1483.71,1955.35 L1480.54,1956.38 L1477.46,1957.66 L1474.58,1959.32 L1473.24,1960.38" vector-effect="none"/>
   <path fill-rule="evenodd" d="M1525.71,1400.92 L1525.14,1398.61 L1524.79,1395.32 L1524.47,1392 L1524.2,1388.69 L1523.93,1385.37 L1523.61,1382.06 L1523.32,1378.74 L1522.98,1375.45 L1522.63,1372.13 L1522.23,1368.84 L1521.79,1365.55 L1521.3,1362.25 L1520.76,1358.98 L1520.13,1355.71 L1519.42,1352.46 L1518.6,1349.25 L1517.55,1346.08 L1516.16,1343.06 L1514.53,1340.16 L1512.72,1337.37 L1510.75,1334.69 L1508.7,1332.07 L1506.56,1329.53 L1504.35,1327.03 L1502.13,1324.56 L1499.88,1322.08 L1497.66,1319.63 L1495.44,1317.15 L1493.28,1314.61 L1491.2,1312.01 L1489.25,1309.33 L1487.51,1306.49 L1486.06,1303.51 L1485.03,1300.35 L1484.49,1297.1 L1484.57,1293.78 L1485.18,1290.53 L1486.19,1287.36 L1487.44,1284.28 L1488.83,1281.26 L1490.26,1278.26 L1491.62,1275.22 L1492.79,1272.11 L1493.63,1268.9 L1493.95,1265.61 L1493.53,1262.31 L1492.63,1259.12 L1491.28,1256.08 L1489.61,1253.21 L1487.78,1250.44 L1485.83,1247.73 L1483.84,1245.07 L1481.86,1242.38 L1480,1239.64 L1478.32,1236.76 L1477.04,1233.7 L1476.49,1230.45 L1476.96,1227.2 L1478.28,1224.17 L1480.14,1221.45 L1482.33,1218.93 L1484.65,1216.58 L1487.05,1214.27 L1489.44,1211.94 L1491.72,1209.53 L1493.76,1206.91 L1495.29,1203.97 L1495.84,1200.74 L1495.56,1197.45 L1494.87,1194.2 L1493.95,1191.01 L1492.9,1187.84 L1491.83,1184.69 L1490.82,1181.53 L1489.98,1178.32 L1489.48,1175.04 L1489.48,1171.75 L1490.17,1168.52 L1491.35,1165.46 L1493.02,1162.6 L1495,1159.92 L1497.14,1157.38 L1499.36,1154.9 L1501.58,1152.43 L1503.77,1149.91 L1505.78,1147.27 L1507.54,1144.46 L1508.84,1141.39 L1509.62,1138.18 L1509.95,1134.87 L1509.95,1131.53 L1509.72,1128.22 L1509.37,1124.93 L1509,1122.45" vector-effect="none"/>
   <path fill-rule="evenodd" d="M3232.11,1002.62 L3233.47,999.937 L3235.21,997.105 L3236.95,994.294 L3238.65,991.42 L3240.27,988.525 L3241.78,985.567 L3243.1,982.525 L3244.15,979.358 L3244.61,976.106 L3243.83,972.896 L3242.11,970.043 L3240.06,967.442 L3237.85,964.946 L3235.65,962.47 L3233.53,959.89 L3231.71,957.121 L3230.62,953.995 L3231.18,950.785 L3233.34,948.289 L3236.13,946.485 L3239.13,945.037 L3242.22,943.82 L3245.36,942.709 L3248.55,941.702 L3251.74,940.737 L3254.93,939.814 L3258.14,938.912 L3261.35,938.03 L3264.56,937.128 L3267.77,936.205 L3270.96,935.282 L3274.15,934.296 L3277.31,933.268 L3280.46,932.177 L3283.59,931.003 L3286.67,929.723 L3289.67,928.317 L3292.44,926.814" vector-effect="none"/>
   <path fill-rule="evenodd" d="M1313.18,1581.02 L1310.66,1580.37 L1307.53,1579.25 L1304.41,1578.12 L1301.24,1577.03 L1298.07,1576.02 L1294.88,1575.08 L1291.65,1574.26 L1288.38,1573.61 L1285.07,1573.23 L1281.75,1573.36 L1278.71,1574.66 L1275.92,1576.46 L1273.32,1578.56 L1270.84,1580.79 L1268.45,1583.09 L1266.06,1585.42 L1263.65,1587.71 L1261.15,1589.91 L1258.4,1591.76 L1255.32,1592.2 L1252.89,1590.2 L1251.42,1587.25 L1250.31,1584.1 L1249.28,1580.95 L1248.17,1577.81 L1246.78,1574.79 L1244.79,1572.18 L1241.85,1570.86 L1238.54,1570.65 L1235.22,1570.9 L1231.93,1571.43 L1230.32,1571.77" vector-effect="none"/>
   <path fill-rule="evenodd" d="M1933.42,1092.77 L1931.98,1090.38 L1930.4,1087.46 L1928.81,1084.54 L1927.19,1081.63 L1925.56,1078.73 L1923.9,1075.86 L1922.18,1073 L1920.42,1070.19 L1918.59,1067.4 L1916.68,1064.68 L1914.67,1062.03 L1912.55,1059.47 L1910.22,1057.08 L1907.64,1054.98 L1904.81,1053.24 L1901.83,1051.77 L1898.72,1050.54 L1895.58,1049.47 L1892.39,1048.5 L1889.18,1047.62 L1885.95,1046.78 L1882.74,1045.92 L1879.53,1045.02 L1876.34,1044.03 L1873.24,1042.84 L1870.26,1041.35 L1867.59,1039.36 L1865.85,1036.57 L1865.18,1033.33 L1865.26,1030.04 L1865.79,1026.75 L1866.5,1023.52 L1867.3,1020.29 L1868.08,1017.06 L1868.68,1013.78 L1869,1010.47 L1868.77,1007.15 L1867.68,1004.05 L1865.96,1001.2 L1863.92,998.574 L1861.72,996.098 L1861.52,995.893" vector-effect="none"/>
   <path fill-rule="evenodd" d="M1374.96,1299.38 L1372.15,1300.49 L1368.92,1301.31 L1365.69,1302.11 L1362.46,1302.86 L1359.2,1303.64 L1355.97,1304.42 L1352.74,1305.21 L1349.51,1306.03 L1346.28,1306.87 L1343.07,1307.75 L1339.86,1308.65 L1336.67,1309.6 L1333.48,1310.61 L1330.34,1311.65 L1327.19,1312.79 L1324.11,1314.02 L1321.04,1315.35 L1318.09,1316.86 L1315.25,1318.62 L1312.59,1320.63 L1310.05,1322.77 L1307.62,1325.06 L1305.29,1327.41 L1303,1329.84 L1300.76,1332.3 L1298.53,1334.77 L1296.33,1337.27 L1294.13,1339.77 L1291.93,1342.24 L1289.66,1344.7 L1287.33,1347.09 L1284.92,1349.37 L1282.36,1351.49 L1279.61,1353.38 L1276.61,1354.81 L1273.36,1355.31 L1270.11,1354.68 L1267.15,1353.17 L1264.53,1351.14 L1262.14,1348.85 L1259.87,1346.42 L1257.65,1343.92 L1255.42,1341.46 L1253.1,1339.07 L1250.62,1336.85 L1247.89,1334.94 L1244.87,1333.58 L1241.64,1332.78 L1238.33,1332.4 L1234.99,1332.28 L1234.91,1332.28" vector-effect="none"/>
   <path fill-rule="evenodd" d="M2019.87,893.284 L2019.2,893.095 L2016.54,891.165 L2013.98,889.046 L2011.44,886.906 L2008.86,884.787 L2006.28,882.711 L2003.66,880.655 L2000.97,878.662 L1998.25,876.774 L1995.43,874.991 L1992.52,873.375 L1989.46,872.096 L1986.27,871.235 L1982.95,870.879 L1979.62,870.858 L1976.28,871.089 L1972.99,871.466 L1969.69,871.949 L1966.4,872.473 L1963.11,872.977 L1959.79,873.438 L1956.48,873.774 L1953.16,873.942 L1949.83,873.9 L1946.51,873.585 L1943.22,873.061 L1939.97,872.41 L1936.72,871.634 L1933.49,870.816 L1930.28,869.956 L1927.05,869.096 L1923.84,868.257 L1920.58,867.48 L1917.33,866.788 L1914.04,866.201 L1910.74,865.781 L1907.43,865.592 L1904.09,865.655 L1900.78,865.928 L1897.49,866.452 L1894.26,867.229 L1891.05,868.152 L1887.9,869.222 L1884.77,870.375 L1884.26,870.577" vector-effect="none"/>
   <path fill-rule="evenodd" d="M1944.77,808.196 L1945.93,807.44 L1949.01,806.203 L1952.11,805.028 L1955.24,803.853 L1958.32,802.615 L1961.39,801.294 L1964.37,799.825 L1967.24,798.168 L1969.88,796.175 L1972.25,793.867 L1973.87,790.993 L1974.94,787.847 L1975.65,784.595 L1976.18,781.301 L1976.66,778.029 L1977.2,774.735 L1977.9,771.505 L1978.84,768.316 L1980.08,765.232 L1981.57,762.253 L1983.25,759.4 L1985.13,756.652 L1987.17,754.03 L1989.27,751.449 L1991.41,748.89 L1993.55,746.352 L1995.62,743.75 L1997.64,741.086 L1999.48,738.338 L2001.14,735.443 L2002.46,732.401 L2003.28,729.191 L2003.74,725.898 L2003.75,725.769" vector-effect="none"/>
   <path fill-rule="evenodd" d="M1932.65,834.083 L1932.63,834.104 L1929.98,833.957 L1926.73,833.286 L1923.48,832.593 L1920.21,831.901 L1916.93,831.293 L1913.64,830.789 L1910.33,830.412 L1907.01,830.307 L1903.76,830.768 L1900.59,831.649 L1897.55,832.866 L1894.65,834.502 L1891.95,836.432 L1889.35,838.509 L1886.83,840.67 L1884.33,842.873 L1881.84,845.075 L1879.28,847.194 L1876.63,849.208 L1873.89,851.054 L1870.93,852.544 L1867.8,853.74 L1864.66,854.809 L1861.51,855.921 L1858.51,857.306 L1857.39,858.175" vector-effect="none"/>
  </g>
  <g stroke-linejoin="bevel" transform="matrix(0.999751,0,0,0.999751,0,0)" font-weight="400" font-style="normal" fill="none" stroke="#000000" stroke-width="1" stroke-linecap="square" font-size="32.5" font-family="MS Shell Dlg 2" stroke-opacity="1"/>
  <g stroke-linejoin="bevel" transform="matrix(11.8081,0,0,11.8081,0,0)" font-weight="400" font-style="normal" fill="none" stroke="#000000" stroke-width="1" stroke-linecap="square" font-size="32.5" font-family="MS Shell Dlg 2" stroke-opacity="1"/>
  <g stroke-linejoin="bevel" transform="matrix(11.8081,0,0,11.8081,0,0)" font-weight="400" font-style="normal" fill="none" stroke="#000000" stroke-width="1" stroke-linecap="square" font-size="32.5" font-family="MS Shell Dlg 2" stroke-opacity="1"/>
  <g stroke-linejoin="bevel" transform="matrix(11.8081,0,0,11.8081,0,0)" font-weight="400" font-style="normal" fill="none" stroke="#000000" stroke-width="1" stroke-linecap="square" font-size="32.5" font-family="MS Shell Dlg 2" stroke-opacity="1"/>
  <g stroke-linejoin="bevel" transform="matrix(1,0,0,1,0,0)" font-weight="400" font-style="normal" fill="none" stroke="#000000" stroke-width="1" stroke-linecap="square" font-size="32.5" font-family="MS Shell Dlg 2" stroke-opacity="1"/>
  <g stroke-linejoin="bevel" transform="matrix(11.8081,0,0,11.8081,0,0)" font-weight="400" font-style="normal" fill="none" stroke="#000000" stroke-width="1" stroke-linecap="square" font-size="32.5" font-family="MS Shell Dlg 2" stroke-opacity="1"/>
  <g stroke-linejoin="bevel" transform="matrix(11.8081,0,0,11.8081,0,0)" font-weight="400" font-style="normal" fill="none" stroke="#000000" stroke-width="1" stroke-linecap="square" font-size="32.5" font-family="MS Shell Dlg 2" stroke-opacity="1"/>
  <g stroke-linejoin="bevel" transform="matrix(1,0,0,1,0,0)" font-weight="400" font-style="normal" fill="none" stroke="#000000" stroke-width="1" stroke-linecap="square" font-size="32.5" font-family="MS Shell Dlg 2" stroke-opacity="1"/>
 </g>
</svg>
