<?xml version='1.0' encoding='UTF-8' standalone='no'?>
<svg height="209.973mm" width="296.926mm" viewBox="0 0 3507 2480" xmlns:xlink="http://www.w3.org/1999/xlink" xmlns:inkscape="http://www.inkscape.org/namespaces/inkscape" xmlns="http://www.w3.org/2000/svg" version="1.2" baseProfile="tiny">
 <defs/>
 <g stroke-linejoin="bevel" inkscape:label="Page" inkscape:groupmode="layer" fill="none" stroke="black" fill-rule="evenodd" stroke-width="1" stroke-linecap="square" id="Page">
  <g stroke-linejoin="bevel" transform="matrix(1,0,0,1,0,0)" font-weight="400" font-style="normal" fill="none" stroke="#000000" stroke-width="1" stroke-linecap="square" font-size="32.5" font-family="MS Shell Dlg 2" stroke-opacity="1"/>
  <g stroke-linejoin="bevel" transform="matrix(1,0,0,1,0,0)" font-weight="400" font-style="normal" fill="none" stroke="#000000" stroke-width="1" stroke-linecap="square" font-size="32.5" font-family="MS Shell Dlg 2" stroke-opacity="1"/>
  <g stroke-linejoin="bevel" transform="matrix(11.8081,0,0,11.8081,0,0)" font-weight="400" font-style="normal" fill="none" stroke="#000000" stroke-width="1" stroke-linecap="square" font-size="32.5" font-family="MS Shell Dlg 2" stroke-opacity="1"/>
  <g stroke-linejoin="bevel" transform="matrix(0.999751,0,0,0.999751,0,0)" font-weight="400" font-style="normal" fill="none" stroke="#000000" stroke-width="1" stroke-linecap="square" font-size="32.5" font-family="MS Shell Dlg 2" stroke-opacity="1"/>
  <g transform="matrix(0.999751,0,0,0.999751,0,0)" font-weight="400" font-style="normal" fill="#ffffff" stroke="none" fill-opacity="1" font-size="32.5" font-family="MS Shell Dlg 2">
   <path fill-rule="evenodd" d="M-2,-2 L3510,-2 L3510,2483 L-2,2483 L-2,-2" vector-effect="none"/>
  </g>
  <g stroke-linejoin="bevel" transform="matrix(0.999751,0,0,0.999751,0,0)" font-weight="400" font-style="normal" fill="none" stroke="#000000" stroke-width="1" stroke-linecap="square" font-size="32.5" font-family="MS Shell Dlg 2" stroke-opacity="1"/>
  <g stroke-linejoin="bevel" transform="matrix(11.8081,0,0,11.8081,0,0)" font-weight="400" font-style="normal" fill="none" stroke="#000000" stroke-width="1" stroke-linecap="square" font-size="32.5" font-family="MS Shell Dlg 2" stroke-opacity="1"/>
  <g stroke-linejoin="bevel" transform="matrix(11.8081,0,0,11.8081,0,0)" font-weight="400" font-style="normal" fill="none" stroke="#000000" stroke-width="1" stroke-linecap="square" font-size="32.5" font-family="MS Shell Dlg 2" stroke-opacity="1"/>
  <g stroke-linejoin="bevel" transform="matrix(1,0,0,1,0,0)" font-weight="400" font-style="normal" fill="none" stroke="#000000" stroke-width="1" stroke-linecap="square" font-size="32.5" font-family="MS Shell Dlg 2" stroke-opacity="1"/>
 </g>
 <defs/>
 <g stroke-linejoin="bevel" inkscape:label="Map 1: Background" inkscape:groupmode="layer" fill="none" stroke="black" fill-rule="evenodd" stroke-width="1" stroke-linecap="square" id="Map 1: Background">
  <g stroke-linejoin="bevel" transform="matrix(1,0,0,1,0,0)" font-weight="400" font-style="normal" fill="none" stroke="#000000" stroke-width="1" stroke-linecap="square" font-size="32.5" font-family="MS Shell Dlg 2" stroke-opacity="1"/>
  <g stroke-linejoin="bevel" transform="matrix(1,0,0,1,0,0)" font-weight="400" font-style="normal" fill="none" stroke="#000000" stroke-width="1" stroke-linecap="square" font-size="32.5" font-family="MS Shell Dlg 2" stroke-opacity="1"/>
  <g stroke-linejoin="bevel" transform="matrix(11.8081,0,0,11.8081,0,0)" font-weight="400" font-style="normal" fill="none" stroke="#000000" stroke-width="1" stroke-linecap="square" font-size="32.5" font-family="MS Shell Dlg 2" stroke-opacity="1"/>
  <g transform="matrix(11.8081,0,0,11.8081,0,0)" font-weight="400" font-style="normal" fill="#ffffff" stroke="none" fill-opacity="1" font-size="32.5" font-family="MS Shell Dlg 2">
   <path fill-rule="evenodd" d="M0,0 L297,0 L297,210 L0,210 L0,0" vector-effect="none"/>
  </g>
  <g stroke-linejoin="bevel" transform="matrix(11.8081,0,0,11.8081,0,0)" font-weight="400" font-style="normal" fill="none" stroke="#000000" stroke-width="1" stroke-linecap="square" font-size="32.5" font-family="MS Shell Dlg 2" stroke-opacity="1"/>
  <g stroke-linejoin="bevel" transform="matrix(11.8081,0,0,11.8081,0,0)" font-weight="400" font-style="normal" fill="none" stroke="#000000" stroke-width="1" stroke-linecap="square" font-size="32.5" font-family="MS Shell Dlg 2" stroke-opacity="1"/>
  <g stroke-linejoin="bevel" transform="matrix(11.8081,0,0,11.8081,0,0)" font-weight="400" font-style="normal" fill="none" stroke="#000000" stroke-width="1" stroke-linecap="square" font-size="32.5" font-family="MS Shell Dlg 2" stroke-opacity="1"/>
  <g stroke-linejoin="bevel" transform="matrix(11.8081,0,0,11.8081,0,0)" font-weight="400" font-style="normal" fill="none" stroke="#000000" stroke-width="1" stroke-linecap="square" font-size="32.5" font-family="MS Shell Dlg 2" stroke-opacity="1"/>
  <g stroke-linejoin="bevel" transform="matrix(1,0,0,1,0,0)" font-weight="400" font-style="normal" fill="none" stroke="#000000" stroke-width="1" stroke-linecap="square" font-size="32.5" font-family="MS Shell Dlg 2" stroke-opacity="1"/>
  <g stroke-linejoin="bevel" transform="matrix(11.8081,0,0,11.8081,0,0)" font-weight="400" font-style="normal" fill="none" stroke="#000000" stroke-width="1" stroke-linecap="square" font-size="32.5" font-family="MS Shell Dlg 2" stroke-opacity="1"/>
  <g stroke-linejoin="bevel" transform="matrix(11.8081,0,0,11.8081,0,0)" font-weight="400" font-style="normal" fill="none" stroke="#000000" stroke-width="1" stroke-linecap="square" font-size="32.5" font-family="MS Shell Dlg 2" stroke-opacity="1"/>
  <g stroke-linejoin="bevel" transform="matrix(1,0,0,1,0,0)" font-weight="400" font-style="normal" fill="none" stroke="#000000" stroke-width="1" stroke-linecap="square" font-size="32.5" font-family="MS Shell Dlg 2" stroke-opacity="1"/>
 </g>
 <defs/>
 <g stroke-linejoin="bevel" inkscape:label="Map 1: KaiWingWoodsRivers" inkscape:groupmode="layer" fill="none" stroke="black" fill-rule="evenodd" stroke-width="1" stroke-linecap="square" id="Map 1: KaiWingWoodsRivers">
  <g stroke-linejoin="bevel" transform="matrix(1,0,0,1,0,0)" font-weight="400" font-style="normal" fill="none" stroke="#000000" stroke-width="1" stroke-linecap="square" font-size="32.5" font-family="MS Shell Dlg 2" stroke-opacity="1"/>
  <g stroke-linejoin="bevel" transform="matrix(1,0,0,1,0,0)" font-weight="400" font-style="normal" fill="none" stroke="#000000" stroke-width="1" stroke-linecap="square" font-size="32.5" font-family="MS Shell Dlg 2" stroke-opacity="1"/>
  <g stroke-linejoin="bevel" transform="matrix(11.8081,0,0,11.8081,0,0)" font-weight="400" font-style="normal" fill="none" stroke="#000000" stroke-width="1" stroke-linecap="square" font-size="32.5" font-family="MS Shell Dlg 2" stroke-opacity="1"/>
  <g stroke-linejoin="bevel" transform="matrix(11.8081,0,0,11.8081,0,0)" font-weight="400" font-style="normal" fill="none" stroke="#000000" stroke-width="1" stroke-linecap="square" font-size="32.5" font-family="MS Shell Dlg 2" stroke-opacity="1"/>
  <g transform="matrix(0.999751,0,0,0.999751,0,0)" font-weight="400" font-style="normal" fill="#000000" stroke="none" fill-opacity="0" font-size="32.5" font-family="MS Shell Dlg 2">
   <rect height="2480" x="0" width="3508" y="0"/>
  </g>
  <g stroke-linejoin="bevel" transform="matrix(0.999751,0,0,0.999751,0,0)" font-weight="400" font-style="normal" fill="none" stroke="#000000" stroke-width="1" stroke-linecap="square" font-size="32.5" font-family="MS Shell Dlg 2" stroke-opacity="1"/>
  <g stroke-linejoin="bevel" transform="matrix(0.999751,0,0,0.999751,0,0)" font-weight="400" font-style="normal" fill="none" stroke="#1f78b4" stroke-width="3.07087" stroke-linecap="square" font-size="32.5" font-family="MS Shell Dlg 2" stroke-opacity="1">
   <path fill-rule="evenodd" d="M1124.15,646.754 L1124.53,648.879 L1124.95,651.705 L1125.31,654.549 L1125.62,657.432 L1125.85,660.354 L1126.03,663.295 L1126.16,666.293 L1126.33,669.311 L1126.58,672.329 L1126.93,675.365 L1127.31,678.364 L1127.79,681.343 L1128.37,684.284 L1129.04,687.167 L1129.74,690.031 L1130.45,692.876 L1131.14,695.739 L1131.77,698.623 L1132.37,701.544 L1132.89,704.485 L1133.33,707.464 L1133.64,710.482 L1133.83,713.519 L1133.98,716.556 L1134.18,719.593 L1134.41,722.629 L1134.69,725.628 L1135.14,728.607 L1135.75,731.49 L1136.48,734.335 L1137.31,737.103 L1138.23,739.813 L1139.23,742.446 L1140.33,745.041 L1141.5,747.559 L1142.75,750.019 L1144.07,752.441 L1145.5,754.805 L1147.05,757.112 L1148.76,759.36 L1150.69,761.494 L1152.86,763.474 L1155.32,765.223 L1158.01,766.684 L1160.83,767.818 L1163.74,768.702 L1164.76,768.962" vector-effect="none"/>
   <path fill-rule="evenodd" d="M1167.02,782.046 L1164.72,783.348 L1162.28,785.174 L1160.07,787.288 L1158.05,789.556 L1156.16,791.959 L1154.36,794.4 L1152.57,796.86 L1150.71,799.282 L1148.75,801.589 L1146.57,803.722 L1144.15,805.587 L1141.48,807.047 L1138.62,808.047 L1135.64,808.623 L1132.6,808.912 L1129.56,808.95 L1126.53,808.835 L1123.47,808.623 L1120.43,808.335 L1117.42,808.008 L1114.38,807.662 L1111.34,807.336 L1108.3,807.047 L1105.25,806.817 L1102.21,806.663 L1099.16,806.624 L1096.12,806.701 L1093.08,806.932 L1090.06,807.278 L1087.05,807.701 L1084.03,808.124 L1081.01,808.508 L1077.97,808.873 L1074.96,809.258 L1071.94,809.681 L1068.94,810.142 L1065.94,810.68 L1062.94,811.334 L1060,812.102 L1057.12,813.083 L1054.33,814.294 L1051.72,815.812 L1049.43,817.657 L1047.49,819.733 L1045.76,821.963 L1044.26,824.308 L1042.93,826.768 L1041.78,829.324 L1040.82,831.996 L1040.05,834.783 L1039.46,837.647 L1038.99,840.549 L1038.67,843.509 L1038.46,846.488 L1038.3,849.487 L1038.24,852.485 L1038.23,855.503 L1038.24,858.521 L1038.28,861.558 L1038.4,864.575 L1038.61,867.593 L1038.92,870.611 L1039.3,873.609 L1039.74,876.588 L1040.22,879.567 L1040.76,882.547 L1041.3,885.526 L1041.88,888.486 L1042.47,891.446 L1043.07,894.425 L1043.68,897.404 L1044.26,900.364 L1044.82,903.363 L1045.38,906.342 L1045.97,909.341 L1046.59,912.32 L1047.18,915.28 L1047.72,918.24 L1048.14,921.161 L1048.37,924.044 L1048.37,926.831 L1048.14,929.484 L1047.74,932.002 L1047.2,934.404 L1046.51,936.73 L1045.7,938.96 L1044.72,941.17 L1043.55,943.342 L1042.09,945.476 L1040.28,947.532 L1037.99,949.358 L1035.36,950.857 L1032.57,952.088 L1029.73,953.183 L1026.87,954.202 L1024.02,955.221 L1021.2,956.297 L1018.41,957.431 L1015.7,958.7 L1013.08,960.122 L1010.6,961.736 L1008.22,963.466 L1005.92,965.35 L1003.7,967.349 L1001.61,969.521 L999.63,971.827 L997.746,974.192 L995.92,976.613 L994.152,979.093 L992.461,981.611 L990.827,984.167 L989.231,986.762 L987.675,989.376 L986.156,992.009 L984.676,994.681 L983.235,997.353 L981.812,1000.04 L980.428,1002.75 L979.044,1005.46 L977.699,1008.19 L976.373,1010.94 L975.162,1013.73 L973.989,1016.54 L972.836,1019.34 L971.74,1022.17 L970.664,1025.01 L969.607,1027.86 L968.569,1030.72 L967.55,1033.56 L966.57,1036.45 L965.571,1039.31 L964.629,1042.19 L963.706,1045.1 L962.822,1048 L961.976,1050.92 L961.131,1053.86 L960.304,1056.78 L959.497,1059.72 L958.67,1062.67 L957.863,1065.59 L957.017,1068.53 L956.152,1071.43 L955.23,1074.33 L954.365,1077.25 L953.404,1080.14 L952.366,1082.98 L951.251,1085.77 L950.04,1088.52 L948.791,1091.25 L947.541,1093.98 L946.369,1096.76 L945.273,1099.59 L944.255,1102.45 L943.294,1105.35 L942.41,1108.22 L941.564,1111.08 L940.718,1113.93 L939.872,1116.73 L939.027,1119.52 L938.162,1122.31 L937.297,1125.08 L936.451,1127.88 L935.644,1130.73 L934.894,1133.65 L934.279,1136.61 L933.799,1139.61 L933.587,1142.53 L933.376,1145.2 L932.972,1147.51 L932.434,1149.45 L931.8,1150.97 L931.127,1152.29 L929.878,1153.58 L926.918,1153.39 L924.073,1152.43 L921.267,1151.33 L918.48,1150.2 L915.673,1149.08 L912.848,1148.01 L909.984,1146.99 L907.062,1146.1 L904.083,1145.43 L901.066,1145.01 L898.029,1144.76 L894.992,1144.76 L893.665,1144.89" vector-effect="none"/>
   <path fill-rule="evenodd" d="M2523.58,261.882 L2522.61,262.406 L2520,263.944 L2517.42,265.597 L2514.9,267.307 L2512.4,269.056 L2509.96,270.882 L2507.58,272.766 L2505.24,274.727 L2502.99,276.764 L2500.8,278.897 L2498.72,281.108 L2496.74,283.395 L2494.88,285.798 L2493.15,288.296 L2491.59,290.891 L2490.22,293.582 L2489.05,296.369 L2488.01,299.214 L2487.24,302.135 L2486.69,305.134 L2486.25,308.152 L2485.94,311.169 L2485.71,314.206 L2485.55,317.243 L2485.48,320.299 L2485.48,323.336 L2485.51,326.392 L2485.61,329.429 L2485.76,332.466 L2485.94,335.522 L2486.17,338.559 L2486.44,341.577 L2486.75,344.613 L2487.09,347.65 L2487.48,350.668 L2487.94,353.666 L2488.49,356.665 L2489.11,359.644 L2489.78,362.604 L2490.53,365.564 L2491.36,368.486 L2492.28,371.388 L2493.28,374.271 L2494.39,377.116 L2495.59,379.903 L2496.89,382.671 L2498.32,385.362 L2499.82,388.014 L2501.45,390.59 L2503.18,393.108 L2505.08,395.472 L2507.22,397.605 L2509.56,399.508 L2512.1,401.161 L2514.75,402.66 L2517.48,404.025 L2520.25,405.313 L2523.01,406.581 L2525.78,407.85 L2528.53,409.157 L2531.24,410.599 L2533.82,412.213 L2536.14,414.116 L2537.93,416.384 L2538.99,418.902 L2539.31,421.497 L2539.01,424.168 L2537.95,426.821 L2536.37,429.358 L2534.55,431.741 L2532.55,434.01 L2530.43,436.22 L2528.28,438.373 L2526.11,440.487 L2523.9,442.601 L2521.71,444.716 L2519.54,446.868 L2517.4,449.04 L2515.33,451.27 L2513.35,453.576 L2511.46,455.96 L2509.73,458.439 L2508.04,460.957 L2506.5,463.552 L2505.1,466.243 L2503.87,469.011 L2502.85,471.894 L2501.95,474.796 L2501.12,477.737 L2500.39,480.678 L2499.72,483.657 L2499.08,486.636 L2498.49,489.615 L2497.89,492.614 L2497.32,495.593 L2496.74,498.592 L2496.12,501.571 L2495.45,504.55 L2494.72,507.491 L2493.88,510.412 L2492.93,513.315 L2492.01,516.217 L2491.03,519.1 L2490.11,522.002 L2489.17,524.905 L2488.13,527.769 L2486.9,530.537 L2485.44,533.151 L2483.75,535.592 L2481.88,537.821 L2479.79,539.743 L2477.5,541.377 L2475.08,542.799 L2472.5,544.03 L2469.79,545.067 L2466.97,545.932 L2464.06,546.605 L2461.09,547.086 L2458.07,547.432 L2455.03,547.681 L2451.97,547.874 L2448.94,548.047 L2445.88,548.22 L2442.84,548.412 L2439.81,548.681 L2436.79,549.027 L2433.79,549.469 L2430.83,550.046 L2427.89,550.738 L2425.05,551.622 L2422.24,552.64 L2419.49,553.813 L2416.82,555.101 L2414.19,556.562 L2411.63,558.157 L2409.11,559.867 L2406.65,561.655 L2404.23,563.481 L2401.81,565.326 L2399.37,567.171 L2396.89,568.959 L2394.37,570.65 L2391.76,572.169 L2389.08,573.437 L2386.35,574.322 L2383.66,574.802 L2381.09,574.937 L2378.59,574.802 L2376.17,574.437 L2373.77,573.879 L2371.34,573.072 L2368.92,571.957 L2366.52,570.554 L2364.17,568.882 L2361.93,566.96 L2359.75,564.865 L2357.66,562.693 L2355.56,560.483 L2353.47,558.253 L2351.35,556.062 L2349.18,553.947 L2346.91,551.968 L2344.61,550.046 L2342.3,548.143 L2339.96,546.259 L2337.57,544.433 L2335.15,542.665 L2332.67,540.973 L2330.1,539.378 L2327.46,537.898 L2324.71,536.572 L2321.96,535.303 L2319.18,534.092 L2316.37,532.939 L2313.55,531.863 L2310.68,530.882 L2307.82,529.998 L2304.9,529.249 L2301.98,528.634 L2299.03,528.192 L2296.07,527.884 L2293.11,527.807 L2290.17,527.961 L2287.25,528.345 L2284.37,528.941 L2281.52,529.806 L2278.74,530.882 L2276.01,532.17 L2273.36,533.612 L2270.8,535.207 L2268.28,536.937 L2265.86,538.744 L2263.5,540.666 L2261.19,542.646 L2258.94,544.702 L2256.73,546.817 L2254.58,548.969 L2252.46,551.18 L2250.39,553.409 L2248.33,555.658 L2246.33,557.945 L2244.39,560.31 L2242.43,562.635 L2240.53,564.999 L2238.7,567.44 L2236.93,569.939 L2235.26,572.476 L2233.65,575.052 L2232.07,577.666 L2230.57,580.318 L2229.13,583.009 L2227.73,585.719 L2226.38,588.449 L2225.07,591.197 L2223.8,593.965 L2222.59,596.771 L2221.42,599.578 L2220.31,602.403 L2219.27,605.267 L2218.33,608.169 L2217.46,611.091 L2216.69,614.032 L2215.96,616.992 L2215.33,619.971 L2214.77,622.969 L2214.27,625.968 L2213.85,628.986 L2213.48,632.022 L2213.21,635.04 L2212.98,638.096 L2212.85,641.133 L2212.77,644.17 L2212.83,647.226 L2213.18,650.244 L2213.66,653.242 L2214.23,656.241 L2214.92,659.201 L2215.67,662.161 L2216.5,665.082 L2217.4,668.004 L2218.36,670.887 L2219.38,673.77 L2220.42,676.615 L2221.52,679.459 L2222.65,682.285 L2223.8,685.11 L2225,687.917 L2226.19,690.723 L2227.44,693.491 L2228.78,696.239 L2230.15,698.949 L2231.55,701.66 L2232.99,704.35 L2234.45,707.022 L2235.97,709.675 L2237.53,712.289 L2239.12,714.883 L2240.8,717.44 L2242.51,719.939 L2244.29,722.418 L2246.16,724.821 L2248.08,727.185 L2250.1,729.453 L2252.25,731.586 L2254.52,733.605 L2256.86,735.507 L2259.34,737.256 L2261.96,738.833 L2264.65,740.274 L2267.38,741.62 L2270.15,742.888 L2272.93,744.138 L2275.72,745.348 L2278.51,746.598 L2281.27,747.866 L2283.98,749.231 L2286.62,750.711 L2289.12,752.402 L2291.37,754.401 L2293.13,756.823 L2294.04,759.668 L2293.73,762.686 L2292.61,765.511 L2291.02,768.106 L2289.19,770.528 L2287.19,772.834 L2285.1,775.045 L2282.97,777.197 L2280.77,779.331 L2278.58,781.445 L2276.37,783.559 L2274.2,785.693 L2272.07,787.846 L2269.97,790.075 L2267.95,792.363 L2266.03,794.727 L2264.26,797.206 L2262.67,799.801 L2261.17,802.434 L2259.86,805.183 L2258.69,808.008 L2257.61,810.853 L2256.63,813.736 L2255.71,816.638 L2254.85,819.56 L2254.04,822.501 L2253.27,825.461 L2252.56,828.421 L2251.91,831.381 L2251.25,834.36 L2250.64,837.359 L2250.06,840.338 L2249.48,843.336 L2248.91,846.315 L2248.35,849.314 L2247.75,852.312 L2247.27,855.311 L2246.89,858.328 L2246.58,861.365 L2246.31,864.402 L2246.08,867.439 L2245.95,869.312" vector-effect="none"/>
   <path fill-rule="evenodd" d="M2120.44,356.861 L2120.38,356.896 L2117.84,358.587 L2115.36,360.355 L2112.92,362.181 L2110.52,364.065 L2108.15,365.987 L2105.83,367.967 L2103.54,369.966 L2101.27,372.003 L2099.02,374.079 L2096.81,376.174 L2094.64,378.308 L2092.55,380.518 L2090.49,382.767 L2088.47,385.054 L2086.49,387.38 L2084.49,389.667 L2082.55,392.012 L2080.69,394.434 L2078.92,396.894 L2077.23,399.431 L2075.65,402.045 L2074.19,404.717 L2072.88,407.466 L2071.71,410.272 L2070.71,413.136 L2069.96,416.077 L2069.61,419.094 L2069.58,422.15 L2069.73,425.187 L2070,428.224 L2070.33,431.242 L2070.65,434.279 L2070.9,437.316 L2071.02,440.352 L2070.96,443.389 L2070.67,446.426 L2070.13,449.425 L2069.33,452.346 L2068.33,455.229 L2067.15,458.036 L2065.89,460.803 L2064.54,463.533 L2063.14,466.243 L2061.71,468.934 L2060.27,471.625 L2058.85,474.316 L2057.43,477.026 L2056.06,479.736 L2054.76,482.484 L2053.53,485.271 L2052.9,486.848" vector-effect="none"/>
   <path fill-rule="evenodd" d="M1452.63,604.229 L1452.72,604.671 L1453.49,607.612 L1454.47,610.495 L1455.68,613.301 L1457.14,615.973 L1458.8,618.529 L1460.6,620.99 L1462.51,623.373 L1464.49,625.699 L1466.5,627.967 L1468.58,630.196 L1470.67,632.426 L1472.75,634.656 L1474.83,636.885 L1476.86,639.153 L1478.82,641.479 L1480.67,643.901 L1482.32,646.457 L1483.65,649.187 L1484.59,652.07 L1484.65,655.087 L1483.94,658.047 L1482.81,660.505" vector-effect="none"/>
   <path fill-rule="evenodd" d="M1273.42,661.485 L1272.8,664.294 L1272.28,667.293 L1271.85,670.291 L1271.55,673.309 L1271.35,676.346 L1271.24,679.383 L1271.2,682.439 L1271.2,685.476 L1271.26,688.512 L1271.34,691.569 L1271.43,694.605 L1271.51,697.662 L1271.57,700.698 L1271.59,703.755 L1271.57,706.791 L1271.47,709.828 L1271.28,712.884 L1270.95,715.902 L1270.57,718.92 L1270.09,721.937 L1269.64,724.955 L1269.24,727.973 L1268.82,730.99 L1268.36,733.989 L1267.84,736.987 L1267.2,739.967 L1266.45,742.927 L1265.53,745.81 L1264.38,748.635 L1262.99,751.345 L1261.32,753.882 L1259.38,756.208 L1257.11,758.246 L1254.61,759.975 L1251.92,761.379 L1249.1,762.57 L1246.23,763.608 L1243.33,764.531 L1240.39,765.377 L1237.45,766.145 L1234.47,766.876 L1231.49,767.548 L1228.89,768.085" vector-effect="none"/>
   <path fill-rule="evenodd" d="M2661.23,657.99 L2661.21,657.99 L2661.23,658.47 L2662.25,661.334 L2663.29,664.198 L2664.36,667.062 L2665.46,669.887 L2666.59,672.713 L2667.77,675.538 L2668.98,678.325 L2670.23,681.093 L2671.55,683.842 L2672.94,686.533 L2674.42,689.185 L2675.99,691.761 L2677.7,694.24 L2679.55,696.585 L2681.49,698.834 L2683.53,700.987 L2684.7,702.14" vector-effect="none"/>
   <path fill-rule="evenodd" d="M2685.38,781.703 L2684.35,783.809 L2683.14,786.558 L2682.07,789.383 L2681.11,792.247 L2680.22,795.15 L2679.41,798.071 L2678.68,801.012 L2678.03,803.972 L2677.42,806.951 L2676.84,809.95 L2676.3,812.929 L2675.78,815.927 L2675.26,818.926 L2674.74,821.943 L2674.22,824.942 L2673.67,827.921 L2673.07,830.92 L2672.42,833.899 L2671.73,836.859 L2670.92,839.8 L2670.07,842.721 L2669.17,845.623 L2668.23,848.526 L2667.21,851.39 L2666.17,854.254 L2665.15,857.137 L2664.11,860.001 L2663.04,862.845 L2661.94,865.69 L2660.79,868.515 L2659.58,871.303 L2658.29,874.07 L2656.93,876.8 L2655.47,879.471 L2653.89,882.066 L2652.2,884.603 L2650.33,887.006 L2648.3,889.255 L2646.01,891.215 L2643.53,892.945 L2640.9,894.387 L2638.09,895.521 L2635.17,896.366 L2632.19,896.982 L2629.17,897.424 L2626.15,897.75 L2623.1,898.039 L2620.06,898.308 L2617.02,898.596 L2614.01,899 L2611.01,899.538 L2608.07,900.288 L2605.22,901.306 L2602.47,902.536 L2599.86,904.016 L2597.42,905.804 L2595.13,907.803 L2592.98,909.936 L2590.92,912.166 L2588.92,914.472 L2586.94,916.798 L2584.98,919.105 L2582.96,921.392 L2580.87,923.622 L2578.68,925.736 L2576.35,927.716 L2573.89,929.503 L2571.26,931.041 L2568.55,932.444 L2565.74,933.597 L2562.84,934.539 L2559.9,935.346 L2556.92,936.057 L2553.94,936.692 L2550.94,937.268 L2547.92,937.787 L2544.91,938.268 L2541.89,938.691 L2540.08,938.933" vector-effect="none"/>
   <path fill-rule="evenodd" d="M620.864,864.748 L620.172,867.381 L619.404,870.322 L618.635,873.263 L617.924,876.223 L617.289,879.202 L616.713,882.201 L616.232,885.199 L615.886,888.236 L615.694,891.273 L615.732,894.31 L616.117,897.327 L617.078,900.191 L618.712,902.748 L620.711,905.016 L622.959,907.072 L625.362,908.956 L627.88,910.648 L630.494,912.204 L633.185,913.646 L635.933,914.953 L638.74,916.164 L641.584,917.24 L644.487,918.221 L647.408,919.066 L650.388,919.701 L653.405,920.027 L656.442,919.95 L659.46,919.547 L662.458,918.912 L665.399,918.163 L668.34,917.317 L671.261,916.471 L674.202,915.645 L677.162,914.895 L680.161,914.338 L683.178,914.107 L686.177,914.569 L688.675,916.222 L689.906,918.951 L690.136,921.988 L689.867,925.005 L689.348,928.023 L688.695,930.983 L687.964,933.943 L687.176,936.884 L686.35,939.825 L685.523,942.746 L684.697,945.687 L683.909,948.628 L683.14,951.569 L682.429,954.548 L681.775,957.527 L681.237,960.506 L680.814,963.524 L680.564,966.561 L680.564,969.617 L680.66,972.654 L680.814,975.691 L681.006,978.728 L681.237,981.784 L681.525,984.801 L681.852,987.838 L682.256,990.856 L682.736,993.854 L683.294,996.853 L683.928,999.832 L684.658,1002.79 L685.504,1005.71 L686.484,1008.62 L687.58,1011.44 L688.848,1014.21 L690.271,1016.9 L691.866,1019.5 L693.654,1021.96 L695.653,1024.22 L697.959,1026.16 L700.592,1027.7 L703.36,1028.93 L706.243,1029.97 L709.165,1030.82 L712.144,1031.53 L715.123,1032.16 L718.122,1032.72 L721.139,1033.24 L724.138,1033.76 L727.155,1034.26 L730.154,1034.78 L733.152,1035.35 L736.151,1036.01 L739.092,1036.77 L742.013,1037.7 L744.839,1038.83 L747.491,1040.31 L749.875,1042.21 L751.7,1044.64 L752.758,1047.48 L753.123,1050.5 L752.969,1053.55 L752.45,1056.55 L751.7,1059.49 L750.797,1062.42 L749.798,1065.28 L748.721,1068.12 L747.587,1070.95 L746.472,1073.79 L745.358,1076.62 L744.281,1079.46 L743.263,1082.35 L742.321,1085.23 L741.513,1088.17 L740.898,1091.15 L740.495,1094.17 L740.418,1097.22 L740.437,1097.67" vector-effect="none"/>
   <path fill-rule="evenodd" d="M2572.89,753.171 L2574.07,754.824 L2575.74,757.381 L2577.41,759.918 L2579.12,762.455 L2580.89,764.934 L2582.68,767.414 L2584.52,769.836 L2586.41,772.219 L2588.38,774.545 L2590.44,776.794 L2592.63,778.927 L2594.96,780.888 L2597.48,782.598 L2600.17,784.04 L2603.01,785.136 L2605.95,785.943 L2608.95,786.539 L2611.97,787.038 L2614.99,787.442 L2618.02,787.846 L2621.04,788.249 L2624.06,788.749 L2627.04,789.422 L2629.94,790.344 L2632.69,791.651 L2635.07,793.535 L2636.86,795.976 L2638.03,798.782 L2638.7,801.742 L2639.07,804.76 L2639.24,807.797 L2639.32,810.834 L2639.4,813.89 L2639.55,816.927 L2639.9,819.944 L2640.59,822.924 L2641.82,825.691 L2643.66,828.113 L2645.78,830.304 L2648.07,832.303 L2650.47,834.206 L2652.93,835.994 L2655.45,837.724 L2658,839.396 L2660.58,841.01 L2663.19,842.587 L2665.84,844.124 L2668.5,845.604" vector-effect="none"/>
   <path fill-rule="evenodd" d="M2710.71,786.827 L2710.65,786.885 L2708.44,788.98 L2706.32,791.171 L2704.27,793.439 L2702.31,795.765 L2700.38,798.129 L2698.54,800.551 L2696.71,802.992 L2694.93,805.471 L2693.18,807.97 L2691.45,810.469 L2689.74,813.006 L2688.06,815.543 L2686.41,818.099 L2684.76,820.675 L2683.12,823.25 L2681.53,825.826 L2679.91,828.421 L2678.34,831.035 L2676.78,833.649 L2675.22,836.263 L2673.67,838.896 L2672.15,841.529 L2670.63,844.182" vector-effect="none"/>
   <path fill-rule="evenodd" d="M364.362,649.34 L362.767,648.783 L359.98,647.514 L357.212,646.265 L354.406,645.054 L351.581,643.92 L348.717,642.825 L345.834,641.844 L342.912,640.96 L339.933,640.249 L336.934,639.788 L333.897,639.653 L330.899,640.134 L328.054,641.229 L325.344,642.652 L322.749,644.247 L320.193,645.919 L317.675,647.63 L315.099,649.283 L312.485,650.84 L309.756,652.185 L306.873,653.165 L303.875,653.511 L300.915,653.012 L298.185,651.724 L295.667,649.994 L293.341,648.033 L291.131,645.938 L288.959,643.805 L286.787,641.652 L284.558,639.576 L282.213,637.616 L279.695,635.905 L276.946,634.636 L274.005,633.906 L270.968,633.695 L267.932,633.868 L264.914,634.348 L261.935,635.021 L258.975,635.771 L256.034,636.578 L253.093,637.347 L250.114,638.039 L247.115,638.596 L244.079,638.923 L241.042,638.865 L238.024,638.481 L235.026,637.885 L232.085,637.116 L229.144,636.251 L226.242,635.328 L223.339,634.406 L220.418,633.483 L217.477,632.657 L214.517,631.926 L211.518,631.369 L208.482,631.042 L205.445,631.023 L202.427,631.446 L199.505,632.349 L196.68,633.502 L193.951,634.848 L191.279,636.328 L188.646,637.885 L186.051,639.461 L183.456,641.075 L180.842,642.652 L178.209,644.189 L175.499,645.592 L172.673,646.765 L169.713,647.399 L166.811,646.899 L164.293,645.323 L162.294,643.074 L160.622,640.537 L159.103,637.904 L157.546,635.29 L155.74,632.849 L153.472,630.869 L150.704,629.697 L147.853,629.313" vector-effect="none"/>
   <path fill-rule="evenodd" d="M358.981,865.94 L356.655,864.71 L353.926,863.345 L351.196,862 L348.467,860.654 L345.699,859.347 L342.912,858.098 L340.087,856.945 L337.242,855.868 L334.32,854.965 L331.341,854.311 L328.304,854.119 L325.306,854.504 L322.423,855.503 L319.693,856.868 L317.079,858.425 L314.504,860.078 L311.966,861.769 L309.41,863.422 L306.758,864.94 L303.99,866.19 L301.011,866.862 L298.012,866.478 L295.533,864.767 L293.764,862.288 L292.419,859.539 L291.343,856.695 L290.42,853.792 L289.613,850.852 L288.882,847.911 L288.171,844.932 L287.498,841.972 L286.806,838.992 L286.134,836.032 L285.423,833.072 L284.673,830.112 L283.885,827.171 L283.02,824.25 L282.078,821.348 L281.002,818.503 L279.81,815.697 L278.445,812.967 L276.869,810.372 L275.159,807.835 L273.352,805.394 L271.43,803.03 L269.45,800.704 L267.393,798.456 L265.298,796.226 L263.165,794.054 L260.993,791.92 L258.802,789.806 L256.591,787.711 L254.381,785.597 L252.151,783.502 L249.941,781.407 L247.75,779.292 L245.578,777.14 L243.463,774.968 L241.368,772.738 L239.369,770.451 L237.409,768.106 L235.506,765.723 L233.68,763.281 L231.893,760.802 L230.163,758.303 L228.49,755.766 L226.818,753.21 L225.165,750.653 L223.474,748.116 L221.763,745.598 L219.976,743.119 L218.13,740.697 L216.189,738.333 L214.171,736.046 L212.095,733.816 L210,731.606 L207.905,729.395 L205.791,727.204 L203.638,725.032 L201.485,722.879 L199.275,720.784 L197.026,718.708 L194.739,716.709 L192.375,714.749 L189.972,712.884 L187.492,711.116 L184.936,709.444 L182.322,707.887 L179.612,706.484 L176.786,705.292 L173.884,704.408 L170.905,703.735 L167.887,703.236 L164.87,702.851 L161.833,702.563 L158.777,702.332 L155.74,702.14 L152.684,701.948 L149.647,701.756 L146.591,701.506 L143.554,701.179 L140.555,700.679 L137.595,699.91 L134.827,698.642 L132.867,696.412 L132.386,693.51 L132.828,690.55 L133.77,687.686 L134.923,684.899 L136.192,682.15 L137.518,679.402 L138.806,676.653 L139.998,673.866 L141.036,671.002 L141.747,668.042 L141.824,665.025 L141.42,662.026 L140.613,659.105 L139.575,656.241 L138.402,653.415 L137.569,651.596" vector-effect="none"/>
   <path fill-rule="evenodd" d="M1608.26,468.103 L1608.2,468.184 L1606.45,470.683 L1604.8,473.258 L1603.24,475.872 L1601.78,478.544 L1600.4,481.254 L1599.09,484.003 L1597.86,486.79 L1596.69,489.615 L1595.59,492.441 L1594.53,495.305 L1593.5,498.169 L1592.52,501.052 L1591.55,503.954 L1590.59,506.837 L1589.67,509.74 L1588.73,512.642 L1587.81,515.544 L1586.92,518.466 L1586.06,521.387 L1585.25,524.309 L1584.44,527.25 L1583.69,530.21 L1582.98,533.17 L1582.29,536.13 L1581.66,539.109 L1581.06,542.107 L1580.5,545.106 L1580,548.104 L1579.56,551.122 L1579.18,554.14 L1578.83,557.157 L1578.56,560.194 L1578.37,563.231 L1578.25,566.287 L1578.22,569.324 L1578.29,572.361 L1578.52,575.398 L1578.95,578.416 L1579.52,581.414 L1580.21,584.374 L1580.98,587.315 L1581.85,590.236 L1582.75,593.158 L1583.71,596.041 L1584.69,598.924 L1585.69,601.807 L1586.67,604.69 L1587.67,607.574 L1588.61,610.457 L1589.54,613.378 L1590.36,616.3 L1591.11,619.26 L1591.69,622.239 L1592.03,625.276 L1592.03,628.313 L1591.5,631.311 L1590.21,634.041 L1588.15,636.289 L1585.65,638.019 L1582.92,639.365 L1580.08,640.46 L1577.2,641.441 L1574.31,642.44 L1571.47,643.555 L1568.76,644.977 L1568.73,645.004" vector-effect="none"/>
   <path fill-rule="evenodd" d="M3137.44,1636.1 L3137.35,1636.27 L3136.12,1639.06 L3135.08,1641.92 L3134.33,1644.88 L3133.87,1647.88 L3133.64,1650.92 L3133.66,1653.96 L3133.83,1657.01 L3134.16,1660.03 L3134.56,1663.05 L3135.04,1666.06 L3135.56,1669.06 L3136.1,1672.06 L3136.62,1675.06 L3137.08,1678.08 L3137.47,1681.1 L3137.72,1684.13 L3137.77,1687.17 L3137.56,1690.21 L3136.95,1693.18 L3135.81,1695.99 L3134.29,1698.61 L3132.39,1700.97 L3130.24,1703.1 L3127.89,1705.06 L3125.45,1706.87 L3122.95,1708.62 L3120.44,1710.37 L3117.98,1712.16 L3115.59,1714.06 L3113.36,1716.12 L3111.36,1718.4 L3110.2,1720.13" vector-effect="none"/>
   <path fill-rule="evenodd" d="M804.788,805.836 L804.808,805.836 L805.673,808.047 L806.537,810.949 L807.402,813.871 L808.267,816.792 L809.152,819.714 L810.055,822.635 L810.997,825.518 L811.958,828.421 L812.957,831.285 L814.014,834.149 L815.129,836.993 L816.302,839.8 L817.57,842.567 L818.973,845.258 L820.588,847.834 L822.337,850.313 L824.278,852.658 L826.335,854.907 L828.488,857.06 L830.717,859.136 L832.985,861.173 L835.33,863.134 L837.675,865.075 L840.059,866.978 L842.461,868.861 L844.864,870.745 L847.266,872.629 L849.65,874.512 L852.014,876.454 L854.32,878.433 L856.531,880.528 L858.703,882.662 L860.798,884.872 L862.874,887.121 L864.892,889.389 L866.91,891.677 L868.948,893.945 L871.004,896.193 L873.118,898.385 L875.31,900.518 L877.597,902.517 L880.019,904.382 L882.556,906.054 L885.189,907.553 L887.938,908.841 L890.802,909.802 L893.781,910.436 L896.798,910.84 L899.855,911.07 L902.891,911.205 L905.948,911.263 L909.004,911.301 L912.06,911.378 L915.097,911.532 L918.134,911.858 L921.055,912.531 L923.535,913.896 L925.149,915.856 L926.149,918.163 L926.437,920.892 L925.976,923.795 L925.072,926.658 L923.938,929.465 L922.67,932.233 L921.343,934.981 L919.998,937.71 L918.672,940.459 L917.384,943.208 L916.173,946.014 L915.097,948.859 L914.232,951.761 L913.751,954.702 L913.54,957.642 L913.578,960.602 L913.867,963.543 L914.559,966.484 L915.423,969.386 L916.442,972.25 L917.538,975.095 L918.691,977.901 L919.825,980.727 L920.959,983.571 L921.997,986.435 L922.823,989.338 L923.189,992.259 L922.67,994.796 L921.593,996.603 L920.344,998.064 L918.845,999.371 L916.903,1000.49 L914.328,1001.14 L911.406,1001.18 L908.427,1000.89 L905.429,1000.39 L902.449,999.794 L899.489,999.121 L896.51,998.429 L893.531,997.756 L890.552,997.084 L887.572,996.469 L884.574,995.911 L881.556,995.45 L878.539,995.123 L875.521,995.008 L872.503,994.95 L869.466,994.95 L866.449,994.989 L863.412,995.123 L860.375,995.354 L857.357,995.796 L854.34,996.276 L851.322,996.795 L848.324,997.353 L845.344,997.949 L842.365,998.621 L839.405,999.371 L836.484,1000.22 L833.6,1001.16 L830.756,1002.23 L827.969,1003.46 L825.278,1004.85 L822.721,1006.44 L820.319,1008.27 L818.128,1010.31 L816.206,1012.59 L814.629,1015.15 L813.476,1017.94 L812.63,1020.84 L812.073,1023.82 L811.708,1026.86 L811.516,1029.89 L811.439,1032.93 L811.439,1035.99 L811.516,1039.02 L811.631,1042.06 L811.746,1045.12 L811.862,1048.15 L811.939,1051.19 L811.977,1054.25 L811.939,1057.28 L811.785,1060.32 L811.477,1063.34 L810.958,1066.34 L810.209,1069.28 L809.248,1072.16 L808.19,1075.02 L807.037,1077.85 L805.846,1080.66 L804.615,1083.42 L803.366,1086.21 L802.136,1089 L800.963,1091.8 L799.849,1094.65 L798.849,1097.53 L797.965,1100.43 L797.273,1103.39 L797.185,1103.97" vector-effect="none"/>
   <path fill-rule="evenodd" d="M1183.65,1235.31 L1183.65,1235.34 L1181.5,1235.98 L1178.52,1236.65 L1175.56,1237.32 L1172.58,1238.04 L1169.62,1238.8 L1166.7,1239.65 L1163.79,1240.59 L1160.95,1241.69 L1158.2,1242.99 L1155.72,1244.67 L1153.43,1246.59 L1151.44,1248.86 L1149.73,1251.36 L1148.25,1254.01 L1146.9,1256.74 L1145.65,1259.52 L1144.42,1262.31 L1143.19,1265.1 L1141.9,1267.85 L1140.54,1270.58 L1139.12,1273.27 L1137.58,1275.9 L1135.94,1278.46 L1134.25,1281.01 L1132.56,1283.53 L1130.85,1286.07 L1129.16,1288.59 L1127.47,1291.12 L1125.8,1293.68 L1124.18,1296.26 L1122.6,1298.87 L1121.09,1301.52 L1119.64,1304.21 L1118.32,1306.94 L1117.09,1309.73 L1116.01,1312.59 L1115.2,1315.51 L1114.55,1318.49 L1113.99,1321.49 L1113.53,1324.51 L1113.15,1327.53 L1112.86,1330.55 L1112.63,1333.58 L1112.48,1336.64 L1112.42,1339.68 L1112.42,1342.73 L1112.51,1345.77 L1112.71,1348.81 L1113.01,1351.84 L1113.46,1354.86 L1114.05,1357.84 L1114.9,1360.76 L1115.97,1363.61 L1117.43,1366.28 L1119.3,1368.68 L1121.49,1370.79 L1123.93,1372.6 L1126.56,1374.16 L1129.29,1375.46 L1132.12,1376.62 L1135,1377.62 L1137.9,1378.52 L1140.88,1379.04 L1143.88,1378.98 L1146.84,1378.27 L1149.71,1377.23 L1152.51,1376.04 L1155.28,1374.77 L1158.07,1373.54 L1160.89,1372.41 L1163.81,1371.52 L1166.83,1371.26 L1169.58,1372.41 L1171.1,1375.02 L1171.79,1377.98 L1172.08,1381 L1172.16,1384.04 L1172.14,1387.09 L1172.04,1390.13 L1171.93,1393.17 L1171.83,1396.22 L1171.75,1399.26 L1171.75,1402.32 L1171.85,1405.35 L1171.92,1406.21" vector-effect="none"/>
   <path fill-rule="evenodd" d="M2024.2,1570.56 L2024.48,1571.69 L2024.93,1574.71 L2025.33,1577.73 L2025.73,1580.74 L2026.16,1583.76 L2026.6,1586.78 L2027.06,1589.78 L2027.56,1592.79 L2028.1,1595.79 L2028.69,1598.77 L2029.33,1601.75 L2030.04,1604.71 L2030.83,1607.65 L2031.73,1610.57 L2032.81,1613.42 L2034.11,1616.17 L2035.67,1618.78 L2037.38,1621.3 L2039.21,1623.74 L2041.13,1626.1 L2043.13,1628.41 L2045.2,1630.66 L2047.32,1632.85 L2049.47,1635 L2051.66,1637.12 L2053.87,1639.21 L2056.1,1641.31 L2058.33,1643.38 L2060.56,1645.48 L2062.75,1647.59 L2064.92,1649.73 L2066.98,1651.98 L2069,1654.26 L2071,1656.57 L2072.98,1658.88 L2075.02,1661.16 L2077.11,1663.37 L2079.28,1665.51 L2081.57,1667.53 L2082.09,1667.92" vector-effect="none"/>
   <path fill-rule="evenodd" d="M1694.32,526.875 L1695.21,529.691 L1696.27,532.535 L1697.5,535.322 L1699.08,537.937 L1701.07,540.224 L1703.32,542.28 L1705.73,544.164 L1708.24,545.894 L1710.82,547.508 L1713.43,549.065 L1716.09,550.603 L1718.7,552.16 L1721.29,553.774 L1723.81,555.485 L1726.22,557.369 L1728.39,559.502 L1730.19,561.943 L1731.52,564.653 L1732.44,567.556 L1733.02,570.554 L1733.37,573.572 L1733.62,576.609 L1733.83,579.646 L1734.15,582.683 L1734.66,585.406" vector-effect="none"/>
   <path fill-rule="evenodd" d="M1899.91,928.946 L1897.93,927.85 L1895.22,926.466 L1892.49,925.102 L1889.75,923.775 L1886.98,922.507 L1884.19,921.257 L1881.37,920.104 L1878.52,919.028 L1875.62,918.067 L1872.66,917.317 L1869.66,916.914 L1866.62,917.087 L1863.7,917.913 L1860.92,919.162 L1858.28,920.681 L1855.71,922.353 L1853.19,924.044 L1850.63,925.736 L1848.02,927.293 L1845.29,928.638 L1842.39,929.599 L1839.37,929.926 L1836.37,929.388 L1833.54,928.273 L1830.91,926.735 L1828.47,924.909 L1826.16,922.91 L1823.95,920.815 L1821.8,918.663 L1819.67,916.471 L1817.55,914.28 L1815.42,912.089 L1813.25,909.956 L1811.02,907.861 L1808.71,905.881 L1806.29,904.016 L1803.75,902.344 L1801.02,900.96 L1798.14,899.98 L1795.18,899.269 L1792.18,898.769 L1789.14,898.423 L1786.09,898.212 L1783.05,898.077 L1780,897.981 L1776.94,897.923 L1773.88,897.866 L1770.83,897.75 L1767.79,897.558 L1764.75,897.251 L1761.74,896.77 L1758.79,896.001 L1755.95,894.886 L1753.34,893.33 L1750.99,891.388 L1748.93,889.139 L1747.09,886.698 L1745.44,884.161 L1743.84,881.566 L1742.23,878.972 L1740.48,876.473 L1738.52,874.147 L1736.21,872.167 L1733.56,870.707 L1730.6,870.053 L1727.54,869.976 L1724.5,870.265 L1721.49,870.707 L1718.47,871.168 L1715.43,871.514 L1712.38,871.629 L1709.36,871.341 L1706.44,870.476 L1703.8,868.958 L1701.5,866.959 L1699.54,864.633 L1697.81,862.115 L1696.25,859.501 L1694.83,856.81 L1693.46,854.061 L1692.18,851.313 L1690.89,848.545 L1689.62,845.777 L1688.33,843.029 L1686.99,840.28 L1685.6,837.57 L1684.14,834.898 L1682.56,832.284 L1680.85,829.766 L1678.97,827.364 L1676.88,825.153 L1674.61,823.135 L1672.22,821.232 L1669.78,819.406 L1667.28,817.638 L1664.77,815.927 L1662.21,814.255 L1659.63,812.641 L1657.02,811.045 L1654.41,809.488 L1651.77,807.951 L1649.12,806.432 L1646.45,804.952 L1643.78,803.491 L1641.09,802.05 L1638.38,800.628 L1635.67,799.244" vector-effect="none"/>
   <path fill-rule="evenodd" d="M1643.11,732.408 L1643.01,732.451 L1640.63,733.624 L1638.26,734.931 L1635.97,736.507 L1633.82,738.41 L1631.8,740.524 L1629.92,742.831 L1628.23,745.272 L1626.67,747.828 L1625.31,750.48 L1624.13,753.229 L1623.33,756.054 L1622.92,758.899 L1622.85,761.705 L1623.04,764.492 L1623.44,767.26 L1624.04,770.028 L1624.98,772.777 L1626.27,775.506 L1627.73,778.178 L1629.21,780.83 L1630.55,783.54 L1631.55,786.308 L1632.09,789.018 L1632.34,791.69 L1632.4,794.304 L1632.26,796.899 L1631.92,799.494 L1631.36,802.108 L1630.53,804.722 L1629.42,807.336 L1628,809.873 L1626.4,812.333 L1624.67,814.755 L1622.87,817.119 L1620.98,819.425 L1619.04,821.674 L1617.04,823.904 L1614.98,826.076 L1612.89,828.209 L1610.76,830.285 L1608.47,832.15 L1606.14,833.899 L1603.74,835.552 L1601.32,837.109 L1598.86,838.608 L1596.38,840.049 L1593.86,841.453 L1591.34,842.836 L1588.79,844.201 L1586.21,845.566 L1583.64,846.93 L1581.02,848.353 L1578.41,849.794 L1575.75,851.236 L1573.06,852.658 L1570.37,854.1 L1567.78,855.599 L1565.28,857.137 L1562.88,858.674 L1560.55,860.231 L1558.28,861.788 L1556.05,863.364 L1553.86,864.96 L1551.71,866.593 L1549.54,868.304 L1547.38,870.072 L1545.23,871.937 L1543.06,873.917 L1540.89,875.973 L1538.62,878.03 L1536.22,879.798 L1533.76,881.067 L1531.41,881.893 L1529.22,882.489 L1527.15,882.97 L1525.15,883.412 L1523.19,883.815 L1521.23,884.238 L1519.23,884.68 L1517.17,885.199 L1515.02,885.814 L1512.71,886.641 L1510.25,887.813 L1507.73,889.255 L1505.14,890.773 L1502.45,892.196 L1499.68,893.387 L1496.89,894.271 L1494.16,894.925 L1491.47,895.425 L1488.84,895.79 L1486.21,896.059 L1483.59,896.251 L1480.92,896.366 L1478.21,896.424 L1475.42,896.366 L1472.56,896.213 L1469.6,895.963 L1466.58,895.636 L1463.54,895.386 L1460.6,895.405 L1457.76,895.559 L1455.01,895.847 L1452.34,896.27 L1449.72,896.789 L1447.11,897.462 L1444.5,898.308 L1441.88,899.365 L1439.27,900.672 L1436.67,902.19 L1434.08,903.747 L1431.43,905.266 L1428.72,906.65 L1425.97,907.88 L1423.18,908.956 L1420.43,909.84 L1417.7,910.551 L1415.03,911.186 L1412.4,911.762 L1409.82,912.32 L1407.28,912.896 L1404.77,913.511 L1402.29,914.184 L1399.83,914.972 L1397.4,915.991 L1395.04,917.394 L1392.81,919.162 L1390.83,921.219 L1389.2,923.622 L1387.99,926.255 L1387.14,929.042 L1386.62,931.944 L1386.43,934.904 L1386.64,937.903 L1387.1,940.92 L1387.64,943.919 L1388.22,946.898 L1388.76,949.896 L1389.2,952.914 L1389.43,955.913 L1389.37,958.892 L1389.14,961.852 L1388.54,964.716 L1387.62,967.445 L1386.39,970.04 L1384.8,972.5 L1382.89,974.826 L1380.8,977.036 L1378.66,979.208 L1376.57,981.419 L1374.61,983.706 L1372.84,986.108 L1371.32,988.626 L1370.02,991.26 L1368.92,994.008 L1368.09,996.911 L1367.52,999.89 L1367.06,1002.89 L1366.71,1005.91 L1366.5,1008.94 L1366.4,1012 L1366.42,1015.04 L1366.54,1018.07 L1366.73,1021.11 L1367.02,1024.15 L1367.38,1027.16 L1367.84,1030.18 L1368.36,1033.18 L1368.96,1036.16 L1369.88,1039.04 L1370.96,1041.83 L1372.19,1044.58 L1373.59,1047.23 L1375.13,1049.81 L1376.78,1052.34 L1378.53,1054.8 L1380.34,1057.24 L1382.2,1059.67 L1384.07,1062.07 L1385.93,1064.47 L1387.78,1066.89 L1389.56,1069.37 L1391.27,1071.87 L1392.89,1074.47 L1394.35,1077.1 L1395.69,1079.79 L1396.92,1082.54 L1398.04,1085.35 L1399.04,1088.19 L1399.92,1091.07 L1400.71,1093.99 L1401.44,1096.95 L1402.17,1099.91 L1402.88,1102.87 L1403.65,1105.82 L1404.48,1108.74 L1405.4,1111.62 L1406.44,1114.45 L1407.59,1117.19 L1408.9,1119.83 L1410.34,1122.4 L1411.9,1124.88 L1413.57,1127.3 L1415.36,1129.65 L1417.34,1131.9 L1419.59,1133.94 L1421.95,1135.86 L1424.39,1137.7 L1426.87,1139.47 L1429.37,1141.22 L1431.85,1142.95 L1434.33,1144.72 L1436.73,1146.53 L1439.02,1148.43 L1441.11,1150.47 L1442.82,1152.71 L1443.92,1155.16 L1443.82,1157.92 L1441.67,1159.79 L1439.23,1161.15 L1436.69,1162.38 L1434.1,1163.57 L1431.48,1164.79 L1428.85,1166.11 L1426.27,1167.61 L1423.85,1169.44 L1421.89,1171.72 L1421.27,1172.68" vector-effect="none"/>
   <path fill-rule="evenodd" d="M1482.89,820.356 L1483.38,820.694 L1486.36,821.155 L1489.2,820.156 L1491.64,818.349 L1493.8,816.216 L1495.82,813.909 L1497.7,811.526 L1499.54,809.085 L1501.33,806.624 L1503.12,804.164 L1504.93,801.704 L1506.73,799.263 L1508.62,796.86 L1510.6,794.535 L1512.73,792.363 L1515.13,790.498 L1517.94,789.441 L1520.96,789.499 L1523.8,790.575 L1526.3,792.266 L1528.55,794.285 L1530.66,796.437 L1532.68,798.686 L1534.68,800.954 L1536.7,803.242 L1538.52,805.663 L1540.22,808.162 L1541.81,810.738 L1543.19,813.429 L1544.46,816.196 L1545.66,819.003 L1546.79,821.828 L1547.96,824.634 L1549.17,827.421 L1550.48,830.17 L1551.94,832.842 L1553.57,835.398 L1555.48,837.762 L1557.71,839.819 L1560.28,841.395 L1563.09,842.529 L1566.03,843.336 L1569.03,843.932 L1572.05,844.374 L1575.08,844.701 L1578.12,844.932 L1581.18,845.085 L1584.23,845.181 L1587.29,845.201 L1590.34,845.181 L1593.38,845.105 L1596.44,844.97" vector-effect="none"/>
   <path fill-rule="evenodd" d="M2053.68,1444.31 L2053.68,1444.28 L2056.29,1444.45 L2059.31,1444.83 L2062.35,1445.2 L2065.37,1445.58 L2068.4,1445.93 L2071.44,1446.26 L2074.48,1446.56 L2077.51,1446.85 L2080.57,1447.08 L2083.61,1447.29 L2086.66,1447.45 L2089.72,1447.54 L2092.76,1447.56 L2095.81,1447.5 L2098.85,1447.33 L2101.89,1446.99 L2104.87,1446.47 L2107.83,1445.79 L2110.77,1444.99 L2113.65,1444.08 L2116.51,1443.03 L2119.32,1441.87 L2122.11,1440.62 L2124.86,1439.32 L2127.6,1437.99 L2130.33,1436.63 L2133.08,1435.28 L2135.83,1433.95 L2138.6,1432.69 L2141.4,1431.47 L2144.25,1430.4 L2147.13,1429.49 L2150.07,1428.84 L2153.03,1428.4 L2155.99,1428.21 L2158.95,1428.32 L2161.86,1428.76 L2164.68,1429.48 L2165.59,1429.79" vector-effect="none"/>
   <path fill-rule="evenodd" d="M2237.2,1472.92 L2237.24,1472.93 L2240.12,1473.93 L2243.04,1474.82 L2245.99,1475.64 L2248.95,1476.37 L2251.91,1477.07 L2254.9,1477.66 L2257.9,1478.2 L2260.92,1478.66 L2263.94,1479.05 L2266.97,1479.33 L2270.03,1479.55 L2273.07,1479.64 L2276.12,1479.62 L2279.16,1479.47 L2282.18,1479.14 L2285.18,1478.62 L2288.1,1477.83 L2290.94,1476.76 L2293.56,1475.22 L2296.04,1473.43 L2298.32,1471.42 L2300.44,1469.22 L2302.38,1466.88 L2304.19,1464.42 L2305.84,1461.86 L2307.38,1459.23 L2308.78,1456.54 L2310.07,1453.79 L2311.28,1450.98 L2312.37,1448.16 L2313.47,1445.31 L2314.3,1442.39 L2314.74,1439.39 L2314.93,1436.36 L2314.95,1433.3 L2314.85,1430.26 L2314.7,1427.23 L2314.51,1424.19 L2314.35,1421.13 L2314.28,1418.1 L2314.37,1415.06 L2314.91,1412.06 L2316.29,1409.5 L2318.47,1407.95 L2321.14,1407.47 L2324,1407.72 L2326.89,1408.41 L2329.75,1409.33 L2332.59,1410.37 L2335.44,1411.47 L2338.3,1412.52 L2341.19,1413.5 L2344.13,1414.31 L2347.11,1414.89 L2350.1,1415.21 L2353.08,1415.29 L2356.06,1415.06 L2359.02,1414.52 L2361.91,1413.58 L2364.71,1412.43 L2367.48,1411.16 L2370.21,1409.79 L2372.92,1408.39 L2375.61,1406.93 L2378.3,1405.51 L2381.03,1404.14 L2383.78,1402.85 L2386.57,1401.61 L2389.39,1400.45 L2392.26,1399.41 L2395.16,1398.49 L2398.08,1397.61 L2401.02,1396.76 L2403.96,1395.92 L2406.9,1395.09 L2409.82,1394.24 L2412.74,1393.36 L2415.65,1392.44 L2418.53,1391.44 L2421.39,1390.36 L2424.22,1389.19 L2426.97,1387.9 L2429.68,1386.48 L2432.27,1384.88 L2434.75,1383.11 L2437.14,1381.21 L2439.42,1379.19 L2441.63,1377.1 L2443.79,1374.95 L2445.9,1372.74 L2447.98,1370.51 L2450.01,1368.24 L2452.03,1365.95 L2454.01,1363.62 L2455.97,1361.3 L2457.91,1358.95 L2459.84,1356.57 L2461.72,1354.19 L2463.58,1351.77" vector-effect="none"/>
   <path fill-rule="evenodd" d="M1948.35,1365.57 L1948.33,1365.57 L1948.2,1364.28 L1948.64,1361.28 L1949.16,1358.28 L1949.66,1355.28 L1950.14,1352.27 L1950.54,1349.25 L1950.85,1346.23 L1951.04,1343.19 L1951.02,1340.16 L1950.73,1337.16 L1950.18,1334.2 L1949.29,1331.31 L1948.12,1328.53 L1946.74,1325.84 L1945.18,1323.22 L1943.45,1320.72 L1941.62,1318.28 L1939.72,1315.9 L1937.76,1313.57 L1935.76,1311.27 L1933.74,1308.98 L1931.72,1306.69 L1929.71,1304.41 L1927.65,1302.16 L1925.57,1299.95 L1923.48,1297.72 L1921.38,1295.51 L1919.25,1293.31 L1917.12,1291.14 L1914.93,1289.01 L1912.72,1286.91 L1910.47,1284.88 L1908.14,1282.88 L1905.78,1280.96 L1903.35,1279.13 L1900.86,1277.38 L1898.28,1275.75 L1895.7,1274.13 L1893.05,1272.61 L1890.32,1271.27 L1887.52,1270.04 L1884.67,1268.94 L1881.79,1267.94 L1878.87,1267.06 L1875.93,1266.27 L1872.95,1265.58 L1869.97,1264.96 L1866.95,1264.43 L1863.93,1263.98 L1860.9,1263.6 L1857.86,1263.31 L1854.82,1263.1 L1851.77,1262.95 L1848.73,1262.83 L1845.67,1262.79 L1842.62,1262.89 L1839.58,1263.14 L1836.54,1263.56 L1833.56,1264.14 L1830.6,1264.87 L1827.68,1265.77 L1824.84,1266.87 L1822.05,1268.12 L1819.34,1269.52 L1816.75,1271.11 L1814.27,1272.88 L1812.07,1275 L1810.33,1277.5 L1808.88,1280.17 L1807.63,1282.95 L1806.48,1285.76 L1805.33,1288.59 L1804.1,1291.37 L1802.7,1294.08 L1801.04,1296.64 L1799.02,1298.93 L1796.58,1300.71 L1793.8,1301.89 L1790.86,1302.6 L1787.82,1302.89 L1784.78,1302.87 L1781.74,1302.66 L1778.71,1302.31 L1775.69,1301.89 L1772.65,1301.45 L1769.64,1301.02 L1766.62,1300.64 L1763.58,1300.33 L1760.52,1300.16 L1757.47,1300.16 L1754.43,1300.41 L1751.43,1300.96 L1748.49,1301.77 L1745.61,1302.79 L1742.84,1304.06 L1740.15,1305.5 L1737.52,1307.06 L1734.96,1308.71 L1732.42,1310.4 L1729.91,1312.13 L1727.41,1313.86 L1724.87,1315.57 L1722.31,1317.23 L1719.7,1318.8 L1717.01,1320.24 L1714.24,1321.53 L1711.36,1322.53 L1708.4,1323.24 L1705.42,1323.8 L1702.38,1324.18 L1699.34,1324.39 L1696.29,1324.51 L1693.25,1324.55 L1690.2,1324.57 L1687.14,1324.59 L1684.08,1324.64 L1681.05,1324.8 L1678.01,1325.09 L1674.99,1325.57 L1672.03,1326.28 L1669.15,1327.26 L1666.87,1328.19" vector-effect="none"/>
   <path fill-rule="evenodd" d="M2892.63,1374.22 L2892.55,1374.29 L2892.82,1375.58 L2894.55,1378.08 L2896.3,1380.56 L2898.09,1383.04 L2899.88,1385.5 L2901.72,1387.94 L2903.59,1390.34 L2905.51,1392.71 L2907.51,1395.01 L2909.56,1397.24 L2911.74,1399.38 L2913.99,1401.37 L2916.33,1403.3 L2918.79,1405.01 L2921.39,1406.53 L2924.11,1407.81 L2926.94,1408.89 L2929.84,1409.81 L2932.76,1410.64 L2935.72,1411.39 L2938.68,1412.1 L2941.64,1412.85 L2944.6,1413.66 L2947.51,1414.58 L2950.35,1415.64 L2953.12,1416.87 L2955.73,1418.37 L2958.19,1420.08 L2960.52,1421.96 L2962.67,1424.05 L2964.65,1426.36 L2966.5,1428.76 L2968.27,1431.26 L2969.96,1433.78 L2971.61,1436.34 L2973.26,1438.91 L2974.92,1441.47 L2976.61,1444.01 L2978.38,1446.49 L2980.22,1448.91 L2981.94,1450.93" vector-effect="none"/>
   <path fill-rule="evenodd" d="M3077.15,1600.68 L3077.21,1602.65 L3077.5,1605.67 L3078.04,1608.65 L3079.02,1611.5 L3080.3,1614.23 L3081.78,1616.86 L3083.49,1619.36 L3085.36,1621.76 L3087.34,1624.09 L3089.38,1626.35 L3091.45,1628.58 L3093.51,1630.83 L3095.55,1633.1 L3097.51,1635.43 L3099.37,1637.85 L3101.06,1640.39 L3102.46,1643.08 L3103.43,1645.96 L3103.73,1648.98 L3103.25,1651.98 L3102.04,1654.78 L3100.35,1657.3 L3098.37,1659.63 L3096.2,1661.76 L3093.93,1663.78 L3091.59,1665.72 L3089.2,1667.62 L3086.8,1669.5 L3084.4,1671.39 L3082.03,1673.31 L3079.73,1675.31 L3077.5,1677.39 L3075.38,1679.58 L3073.46,1681.94 L3071.79,1684.48 L3070.4,1687.19 L3069.23,1689.99 L3069.16,1690.21" vector-effect="none"/>
   <path fill-rule="evenodd" d="M1779.15,1163.21 L1779.17,1163.23 L1779.21,1163.52 L1777.61,1165.98 L1775.61,1168.28 L1773.59,1170.55 L1771.62,1172.88 L1769.75,1175.28 L1768.1,1177.78 L1766.87,1180.45 L1766.08,1183.2 L1765.64,1186.02 L1765.58,1188.95 L1765.96,1191.93 L1766.56,1194.9 L1767.25,1197.86 L1767.91,1200.84 L1768.31,1203.84 L1767.71,1206.26 L1766.54,1207.51 L1765.33,1208.47 L1763.89,1209.34 L1761.68,1209.88 L1758.79,1209.36 L1755.93,1208.34 L1753.11,1207.22 L1750.26,1206.11 L1747.38,1205.11 L1744.48,1204.32 L1741.53,1203.78 L1738.59,1203.44 L1735.67,1203.42 L1732.75,1203.75 L1729.85,1204.46 L1727.02,1205.48 L1724.24,1206.69 L1721.51,1208.03 L1718.83,1209.49 L1716.18,1211.01 L1713.53,1212.51 L1710.86,1213.97 L1708.17,1215.37 L1705.42,1216.7 L1702.65,1217.97 L1699.84,1219.14 L1697,1220.22 L1694.14,1221.28 L1691.25,1222.31 L1688.39,1223.33 L1685.51,1224.37 L1682.64,1225.41 L1679.78,1226.48 L1676.93,1227.58 L1674.11,1228.71 L1671.28,1229.91 L1668.5,1231.14 L1665.75,1232.42 L1663.02,1233.81 L1660.35,1235.25 L1657.73,1236.81 L1655.14,1238.42 L1652.6,1240.09 L1650.12,1241.86 L1647.74,1243.76 L1645.39,1245.72 L1643.09,1247.72 L1640.84,1249.76 L1638.61,1251.84 L1636.42,1253.97 L1634.28,1256.14 L1632.19,1258.35 L1630.13,1260.62 L1628.13,1262.91 L1626.19,1265.27 L1624.31,1267.66 L1622.5,1270.12 L1620.77,1272.61 L1619.14,1275.19 L1617.62,1277.82 L1616.27,1280.55 L1615.1,1283.36 L1614.04,1286.2 L1613.16,1289.11 L1612.47,1292.07 L1611.97,1295.06 L1611.66,1298.1 L1611.52,1301.14 L1611.58,1304.19 L1611.81,1307.23 L1612.22,1310.25 L1612.77,1313.23 L1613.01,1314.22" vector-effect="none"/>
   <path fill-rule="evenodd" d="M2905.36,1610.57 L2904.43,1611.27 L2901.61,1612.4 L2898.74,1613.44 L2895.88,1614.46 L2893.02,1615.51 L2890.15,1616.61 L2887.33,1617.76 L2884.54,1618.97 L2881.77,1620.26 L2879.06,1621.68 L2876.45,1623.26 L2873.97,1625.03 L2871.74,1627.1 L2869.7,1629.35 L2867.93,1631.83 L2866.36,1634.43 L2864.93,1637.12 L2863.59,1639.87 L2862.32,1642.63 L2861.07,1645.4 L2859.82,1648.19 L2858.51,1650.94 L2857.07,1653.61 L2855.36,1656.11 L2853.13,1658.01 L2850.54,1658.26 L2848.02,1656.84 L2845.89,1654.7 L2843.89,1652.42 L2841.7,1650.3 L2839.14,1649.78 L2836.62,1651 L2834.97,1652.79" vector-effect="none"/>
   <path fill-rule="evenodd" d="M532.468,1140.3 L532.449,1140.3 L532.429,1140.28 L531.199,1142.34 L529.45,1144.81 L527.624,1147.28 L525.779,1149.68 L523.915,1152.08 L521.992,1154.46 L520.051,1156.81 L518.091,1159.13 L516.092,1161.44 L514.035,1163.69 L511.94,1165.9 L509.768,1168.03 L507.5,1170.03 L505.04,1171.7 L502.503,1172.49 L500.369,1172.42 L498.524,1172.03 L496.736,1171.49 L494.91,1170.67 L492.988,1169.09 L491.335,1166.78 L489.971,1164.11 L488.779,1161.33 L487.626,1158.52 L486.434,1155.71 L485.146,1152.95 L483.685,1150.31 L481.975,1147.87 L480.129,1145.56 L478.15,1143.39 L476.016,1141.36 L473.652,1139.51 L471.907,1138.59" vector-effect="none"/>
   <path fill-rule="evenodd" d="M422.773,1159.41 L421.986,1161.29 L421.025,1164.11 L420.257,1167.01 L419.795,1169.97 L419.603,1173.01 L419.584,1176.05 L419.699,1179.09 L419.853,1182.14 L420.026,1185.18 L420.16,1188.22 L420.18,1191.25 L420.007,1194.27 L419.545,1197.23 L418.834,1200.09 L417.854,1202.86 L416.585,1205.49 L415.029,1207.99 L413.222,1210.36 L411.242,1212.61 L409.147,1214.8 L406.994,1216.95 L404.861,1219.12 L402.785,1221.35 L400.709,1223.58 L398.633,1225.81 L396.615,1228.1 L394.751,1230.5 L392.828,1232.87 L390.906,1235.25 L389.061,1237.65 L387.293,1240.13 L385.601,1242.65 L383.91,1245.17 L382.295,1247.76 L380.796,1250.41 L379.432,1253.12 L378.221,1255.93 L377.067,1258.74 L375.953,1261.56 L374.934,1264.43 L374.011,1267.33 L373.204,1270.25 L372.531,1273.23 L372.228,1275.04" vector-effect="none"/>
   <path fill-rule="evenodd" d="M2756.8,1144.33 L2756.51,1141.66 L2756.16,1138.63 L2755.76,1135.61 L2755.36,1132.59 L2754.91,1129.57 L2754.45,1126.57 L2753.95,1123.56 L2753.41,1120.56 L2752.84,1117.58 L2752.2,1114.6 L2751.53,1111.62 L2750.78,1108.68 L2749.94,1105.74 L2748.99,1102.86 L2747.86,1100.01 L2746.5,1097.3 L2744.96,1094.67 L2743.58,1092.5" vector-effect="none"/>
   <path fill-rule="evenodd" d="M2654.78,1014.39 L2654.2,1013.09 L2652.6,1010.5 L2650.76,1008.08 L2648.8,1005.73 L2646.78,1003.46 L2644.66,1001.25 L2642.51,999.083 L2640.32,996.968 L2638.11,994.873 L2635.86,992.817 L2633.57,990.798 L2631.29,988.78 L2629,986.762 L2626.69,984.763 L2624.39,982.783 L2622.06,980.784 L2619.75,978.785 L2617.45,976.806 L2615.16,974.787 L2612.87,972.769 L2610.6,970.732 L2608.36,968.675 L2606.11,966.599 L2603.88,964.543 L2601.63,962.467 L2599.4,960.372 L2597.17,958.296 L2594.96,956.22 L2592.73,954.125 L2590.5,952.03 L2588.29,949.954 L2586.06,947.859 L2583.85,945.764 L2581.62,943.669 L2579.41,941.574 L2577.2,939.479 L2574.99,937.384 L2572.78,935.269 L2570.55,933.174" vector-effect="none"/>
   <path fill-rule="evenodd" d="M2755.34,912.863 L2754.91,913.031 L2752.18,914.415 L2749.57,915.972 L2747.03,917.663 L2744.55,919.431 L2742.09,921.257 L2739.65,923.083 L2737.19,924.89 L2734.71,926.658 L2732.14,928.311 L2729.48,929.811 L2726.7,931.06 L2723.78,931.887 L2720.74,932.098 L2717.76,931.483 L2715.05,930.08 L2712.63,928.235 L2710.46,926.101 L2708.44,923.814 L2706.52,921.45 L2704.67,919.009 L2702.84,916.568 L2701.02,914.126 L2699.17,911.724 L2697.23,909.36 L2695.21,907.072 L2693.04,904.939 L2690.68,903.017 L2688.1,901.383 L2685.32,900.115 L2682.47,899.057 L2679.55,898.154 L2676.61,897.366 L2673.63,896.655 L2670.65,896.02 L2667.65,895.444 L2664.63,894.906 L2661.62,894.425 L2658.6,893.983 L2655.58,893.579 L2652.54,893.214 L2649.51,892.887 L2646.47,892.58" vector-effect="none"/>
   <path fill-rule="evenodd" d="M2405.65,1190.46 L2407.92,1191.96 L2410.21,1193.25 L2412.51,1194.44 L2414.82,1195.54 L2417.13,1196.6 L2419.47,1197.6 L2421.82,1198.56 L2424.2,1199.5 L2426.6,1200.42 L2429.06,1201.32 L2431.58,1202.19 L2434.18,1203.02 L2436.92,1203.77 L2439.9,1204.17 L2442.92,1204.32 L2445.69,1204.78 L2447.48,1205.73 L2448.51,1206.59 L2449.25,1207.3 L2449.82,1207.88 L2450.32,1208.4 L2450.78,1208.84 L2451.21,1209.28 L2451.61,1209.69 L2452.03,1210.11 L2452.28,1211.11 L2450.19,1213.2 L2448.07,1215.26 L2446.02,1217.32 L2444.04,1219.43 L2442.19,1221.62 L2440.54,1223.91 L2439.19,1226.25 L2438.19,1228.66 L2437.52,1231.06 L2437.12,1233.5 L2437.04,1236.04 L2437.5,1238.75 L2438.58,1241.48 L2439.96,1244.11 L2441.54,1246.69 L2443.19,1249.24 L2444.88,1251.76 L2446.55,1254.32 L2448.13,1256.93 L2449.57,1259.6 L2450.74,1262.35 L2451.57,1265.16 L2452.03,1267.94 L2452.22,1270.67 L2452.19,1273.38 L2451.99,1276.05 L2451.61,1278.76 L2450.99,1281.51 L2450.07,1284.28 L2448.84,1287.03 L2447.48,1289.74 L2446.13,1292.47 L2445.06,1295.22 L2444.44,1297.95 L2444.13,1300.6 L2444.06,1303.18 L2444.17,1305.75 L2444.52,1308.31 L2445.11,1310.9 L2445.96,1313.5 L2447.09,1316.07 L2448.3,1318.63 L2449.65,1321.15 L2451.07,1323.65 L2452.57,1326.14 L2454.13,1328.62 L2455.7,1331.12 L2457.09,1333.79 L2458.39,1336.54 L2459.7,1339.29 L2461.03,1342.04 L2462.47,1344.69 L2464.12,1347.21 L2466.01,1349.5 L2468.06,1351.53 L2470.29,1353.05 L2472.54,1354.32 L2474.79,1355.46 L2477.06,1356.49 L2479.33,1357.51 L2481.63,1358.49 L2484.02,1359.45 L2486.42,1360.47 L2488.88,1361.53 L2491.36,1362.7 L2493.86,1364.01 L2496.36,1365.49 L2498.82,1367.16 L2501.26,1368.91 L2503.62,1370.81 L2505.91,1372.81 L2508.16,1374.89 L2510.35,1376.98 L2512.56,1379.08 L2514.75,1381.15 L2516.98,1383.17 L2519.25,1385.13 L2521.61,1386.94 L2524.09,1388.44 L2526.65,1389.65 L2529.26,1390.63 L2531.91,1391.4 L2534.6,1392.01 L2537.37,1392.51 L2540.2,1392.97 L2543.06,1393.42 L2546,1393.92 L2548.96,1394.61 L2551.87,1395.51 L2554.71,1396.57 L2557.48,1397.78 L2560.13,1399.11 L2562.69,1400.53 L2565.19,1402.01 L2567.63,1403.53 L2570.03,1405.08 L2572.41,1406.66 L2574.8,1408.26 L2577.18,1409.89 L2579.56,1411.54 L2581.95,1413.21 L2584.37,1414.94 L2586.79,1416.75 L2589.19,1418.62 L2591.46,1420.61 L2593.48,1422.54 L2595.04,1424.36 L2596.21,1426.02 L2597.15,1427.48 L2597.96,1428.8 L2598.69,1430.01 L2599.36,1431.13 L2599.99,1432.19 L2600.59,1433.2 L2601.19,1434.17 L2601.76,1435.11 L2602.34,1436.03 L2600.99,1437.2 L2598.57,1438.26 L2596.19,1439.34 L2593.84,1440.47 L2591.58,1441.7 L2589.4,1443.03 L2587.39,1444.49 L2585.58,1446.12 L2583.96,1447.95 L2582.6,1450.08 L2581.73,1452.71 L2581.56,1455.67 L2581.75,1458.69 L2582.18,1461.71 L2582.68,1464.71 L2583.21,1467.71 L2583.69,1470.7 L2584.08,1473.72 L2584.25,1476.76 L2584.1,1479.74 L2583.62,1482.62 L2582.87,1485.39 L2581.85,1488.02 L2580.64,1490.56 L2579.22,1493 L2577.56,1495.38 L2575.7,1497.71 L2573.76,1500.02 L2571.84,1502.38 L2570.11,1504.86 L2568.76,1507.43 L2567.82,1510.01 L2567.13,1512.55 L2566.63,1515.05 L2566.26,1517.53 L2566.01,1520.06 L2565.92,1522.64 L2565.97,1525.33 L2566.22,1528.1 L2566.82,1530.96 L2567.65,1533.86 L2568.55,1536.77 L2569.45,1539.67 L2570.26,1542.59 L2570.95,1545.51 L2571.51,1548.39 L2571.91,1551.28 L2572.2,1554.1 L2572.35,1556.93 L2572.41,1559.72 L2572.37,1562.52 L2572.24,1565.33 L2572.01,1568.17 L2571.66,1571.06 L2571.14,1573.98 L2570.34,1576.88 L2569.45,1579.8 L2568.53,1582.7 L2567.61,1585.59 L2566.74,1588.49 L2565.93,1591.39 L2565.24,1594.27 L2564.69,1597.16 L2564.22,1600.02 L2563.86,1602.89 L2563.57,1605.75 L2563.36,1608.63 L2563.24,1611.53 L2563.24,1614.48 L2563.44,1617.44 L2563.88,1620.41 L2564.53,1623.39 L2565.34,1626.33 L2566.2,1629.26 L2567.11,1632.14 L2568.03,1635 L2568.89,1637.87 L2569.64,1640.71 L2570.24,1643.54 L2570.59,1646.29 L2570.59,1648.9 L2570.3,1651.36 L2569.03,1653.53 L2566.51,1653.28 L2564.07,1652.69 L2561.59,1651.99 L2559.05,1651.25 L2556.42,1650.53 L2553.67,1649.9 L2550.77,1649.5 L2547.75,1649.52 L2544.79,1650.15 L2541.95,1651.11 L2539.18,1652.17 L2536.43,1653.28 L2533.74,1654.49 L2533.26,1654.73" vector-effect="none"/>
   <path fill-rule="evenodd" d="M1773.06,1498.46 L1773.11,1500.86 L1773.29,1503.9 L1773.48,1506.94 L1773.73,1509.95 L1773.75,1510.09" vector-effect="none"/>
   <path fill-rule="evenodd" d="M1766.02,1530.12 L1764.6,1531.15 L1762.31,1533.17 L1760.12,1535.31 L1757.97,1537.46 L1755.8,1539.59 L1753.53,1541.63 L1751.07,1543.44 L1748.28,1544.65 L1745.36,1545.45 L1742.34,1545.82 L1739.29,1545.93 L1736.25,1546.03 L1733.23,1546.55 L1730.81,1548.26 L1730.25,1551.16 L1730.81,1554.16 L1731.62,1557.08 L1732.33,1560.04 L1732.52,1563.08 L1731.37,1565.79 L1728.75,1567.23 L1725.77,1567.79 L1722.74,1567.96 L1719.7,1567.96 L1716.64,1567.88 L1713.61,1567.79 L1710.55,1567.73 L1707.49,1567.77 L1704.44,1567.9 L1701.42,1568.25 L1699.02,1568.76" vector-effect="none"/>
   <path fill-rule="evenodd" d="M2954.04,1796.02 L2954.08,1795.98 L2955.5,1796.61 L2957.96,1798.44 L2960.42,1800.23 L2963,1801.86 L2965.73,1803.15 L2968.59,1803.82 L2971.51,1804.09 L2974.49,1803.84 L2977.41,1803.17 L2980.22,1801.99 L2982.8,1800.42 L2985.08,1798.42 L2987.01,1796.09 L2988.52,1793.48 L2989.73,1790.69 L2990.68,1787.79 L2991.45,1784.85 L2992.08,1781.87 L2992.62,1778.87 L2993.06,1775.85 L2993.43,1772.82 L2993.71,1769.8 L2993.94,1766.76 L2994.08,1763.71 L2994.14,1760.67 L2994.12,1757.61 L2993.98,1754.58 L2993.75,1751.54 L2993.37,1748.52 L2992.77,1745.54 L2992.13,1743.37" vector-effect="none"/>
   <path fill-rule="evenodd" d="M3004.25,1884.37 L3005.19,1885.03 L3008.01,1886.18 L3010.84,1887.35 L3013.65,1888.53 L3016.47,1889.7 L3019.3,1890.85 L3022.12,1892.01 L3024.95,1893.14 L3027.79,1894.25 L3030.64,1895.37 L3033.48,1896.45 L3036.35,1897.5 L3039.23,1898.54 L3042.11,1899.56 L3044.99,1900.52 L3047.9,1901.44 L3050.84,1902.33 L3053.78,1903.13 L3056.74,1903.88 L3059.72,1904.5 L3062.72,1905.06 L3065.73,1905.46 L3068.77,1905.75 L3071.83,1905.9 L3074.88,1905.96 L3077.92,1905.92 L3080.98,1905.84 L3084.03,1905.71 L3087.07,1905.52 L3090.13,1905.29 L3093.16,1905.04 L3096.2,1904.77 L3099.24,1904.46 L3102.27,1904.15 L3105.31,1903.85 L3108.35,1903.56 L3111.38,1903.27 L3114.44,1903.02 L3117.48,1902.83 L3120.53,1902.73 L3123.59,1902.85 L3126.49,1903.52 L3128.93,1905.11 L3130.26,1907.77 L3130.28,1910.78 L3129.59,1913.74 L3128.51,1916.59 L3127.16,1919.32" vector-effect="none"/>
   <path fill-rule="evenodd" d="M305.758,1172.72 L307.507,1175.03 L309.141,1177.59 L310.794,1180.14 L312.485,1182.68 L314.215,1185.2 L316.022,1187.64 L317.963,1189.98 L320.078,1192.19 L322.442,1194.1 L325.229,1195.29 L328.247,1195.77 L331.283,1195.83 L334.34,1195.63 L337.376,1195.33 L340.394,1194.92 L343.431,1194.52 L346.449,1194.15 L349.505,1194.1 L350.6,1196.08 L348.39,1198.11 L345.891,1199.82 L343.335,1201.48 L340.798,1203.17 L338.337,1205 L336.108,1207.05 L334.493,1209.59 L334.513,1212.59 L335.666,1215.37 L337.28,1217.97 L338.933,1220.53 L340.433,1223.16 L341.586,1225.97 L342.201,1228.94 L342.162,1231.96 L341.374,1234.9 L340.24,1237.73 L338.914,1240.46 L337.453,1243.15 L335.935,1245.78 L334.397,1248.42 L332.879,1251.05 L331.36,1253.7 L329.919,1256.39 L328.573,1259.12 L327.343,1261.91 L326.776,1263.5" vector-effect="none"/>
  </g>
  <g stroke-linejoin="bevel" transform="matrix(0.999751,0,0,0.999751,0,0)" font-weight="400" font-style="normal" fill="none" stroke="#000000" stroke-width="1" stroke-linecap="square" font-size="32.5" font-family="MS Shell Dlg 2" stroke-opacity="1"/>
  <g stroke-linejoin="bevel" transform="matrix(11.8081,0,0,11.8081,0,0)" font-weight="400" font-style="normal" fill="none" stroke="#000000" stroke-width="1" stroke-linecap="square" font-size="32.5" font-family="MS Shell Dlg 2" stroke-opacity="1"/>
  <g stroke-linejoin="bevel" transform="matrix(11.8081,0,0,11.8081,0,0)" font-weight="400" font-style="normal" fill="none" stroke="#000000" stroke-width="1" stroke-linecap="square" font-size="32.5" font-family="MS Shell Dlg 2" stroke-opacity="1"/>
  <g stroke-linejoin="bevel" transform="matrix(11.8081,0,0,11.8081,0,0)" font-weight="400" font-style="normal" fill="none" stroke="#000000" stroke-width="1" stroke-linecap="square" font-size="32.5" font-family="MS Shell Dlg 2" stroke-opacity="1"/>
  <g stroke-linejoin="bevel" transform="matrix(1,0,0,1,0,0)" font-weight="400" font-style="normal" fill="none" stroke="#000000" stroke-width="1" stroke-linecap="square" font-size="32.5" font-family="MS Shell Dlg 2" stroke-opacity="1"/>
  <g stroke-linejoin="bevel" transform="matrix(11.8081,0,0,11.8081,0,0)" font-weight="400" font-style="normal" fill="none" stroke="#000000" stroke-width="1" stroke-linecap="square" font-size="32.5" font-family="MS Shell Dlg 2" stroke-opacity="1"/>
  <g stroke-linejoin="bevel" transform="matrix(11.8081,0,0,11.8081,0,0)" font-weight="400" font-style="normal" fill="none" stroke="#000000" stroke-width="1" stroke-linecap="square" font-size="32.5" font-family="MS Shell Dlg 2" stroke-opacity="1"/>
  <g stroke-linejoin="bevel" transform="matrix(1,0,0,1,0,0)" font-weight="400" font-style="normal" fill="none" stroke="#000000" stroke-width="1" stroke-linecap="square" font-size="32.5" font-family="MS Shell Dlg 2" stroke-opacity="1"/>
 </g>
</svg>
