<?xml version='1.0' encoding='UTF-8' standalone='no'?>
<svg height="209.973mm" width="296.926mm" viewBox="0 0 3507 2480" xmlns:xlink="http://www.w3.org/1999/xlink" xmlns:inkscape="http://www.inkscape.org/namespaces/inkscape" xmlns="http://www.w3.org/2000/svg" version="1.2" baseProfile="tiny">
 <defs/>
 <g stroke-linejoin="bevel" inkscape:label="Page" inkscape:groupmode="layer" fill="none" stroke="black" fill-rule="evenodd" stroke-width="1" stroke-linecap="square" id="Page">
  <g stroke-linejoin="bevel" transform="matrix(1,0,0,1,0,0)" font-weight="400" font-style="normal" fill="none" stroke="#000000" stroke-width="1" stroke-linecap="square" font-size="32.5" font-family="MS Shell Dlg 2" stroke-opacity="1"/>
  <g stroke-linejoin="bevel" transform="matrix(1,0,0,1,0,0)" font-weight="400" font-style="normal" fill="none" stroke="#000000" stroke-width="1" stroke-linecap="square" font-size="32.5" font-family="MS Shell Dlg 2" stroke-opacity="1"/>
  <g stroke-linejoin="bevel" transform="matrix(11.8081,0,0,11.8081,0,0)" font-weight="400" font-style="normal" fill="none" stroke="#000000" stroke-width="1" stroke-linecap="square" font-size="32.5" font-family="MS Shell Dlg 2" stroke-opacity="1"/>
  <g stroke-linejoin="bevel" transform="matrix(0.999751,0,0,0.999751,0,0)" font-weight="400" font-style="normal" fill="none" stroke="#000000" stroke-width="1" stroke-linecap="square" font-size="32.5" font-family="MS Shell Dlg 2" stroke-opacity="1"/>
  <g transform="matrix(0.999751,0,0,0.999751,0,0)" font-weight="400" font-style="normal" fill="#ffffff" stroke="none" fill-opacity="1" font-size="32.5" font-family="MS Shell Dlg 2">
   <path fill-rule="evenodd" d="M-2,-2 L3510,-2 L3510,2483 L-2,2483 L-2,-2" vector-effect="none"/>
  </g>
  <g stroke-linejoin="bevel" transform="matrix(0.999751,0,0,0.999751,0,0)" font-weight="400" font-style="normal" fill="none" stroke="#000000" stroke-width="1" stroke-linecap="square" font-size="32.5" font-family="MS Shell Dlg 2" stroke-opacity="1"/>
  <g stroke-linejoin="bevel" transform="matrix(11.8081,0,0,11.8081,0,0)" font-weight="400" font-style="normal" fill="none" stroke="#000000" stroke-width="1" stroke-linecap="square" font-size="32.5" font-family="MS Shell Dlg 2" stroke-opacity="1"/>
  <g stroke-linejoin="bevel" transform="matrix(11.8081,0,0,11.8081,0,0)" font-weight="400" font-style="normal" fill="none" stroke="#000000" stroke-width="1" stroke-linecap="square" font-size="32.5" font-family="MS Shell Dlg 2" stroke-opacity="1"/>
  <g stroke-linejoin="bevel" transform="matrix(1,0,0,1,0,0)" font-weight="400" font-style="normal" fill="none" stroke="#000000" stroke-width="1" stroke-linecap="square" font-size="32.5" font-family="MS Shell Dlg 2" stroke-opacity="1"/>
 </g>
 <defs/>
 <g stroke-linejoin="bevel" inkscape:label="Map 1: Background" inkscape:groupmode="layer" fill="none" stroke="black" fill-rule="evenodd" stroke-width="1" stroke-linecap="square" id="Map 1: Background">
  <g stroke-linejoin="bevel" transform="matrix(1,0,0,1,0,0)" font-weight="400" font-style="normal" fill="none" stroke="#000000" stroke-width="1" stroke-linecap="square" font-size="32.5" font-family="MS Shell Dlg 2" stroke-opacity="1"/>
  <g stroke-linejoin="bevel" transform="matrix(1,0,0,1,0,0)" font-weight="400" font-style="normal" fill="none" stroke="#000000" stroke-width="1" stroke-linecap="square" font-size="32.5" font-family="MS Shell Dlg 2" stroke-opacity="1"/>
  <g stroke-linejoin="bevel" transform="matrix(11.8081,0,0,11.8081,0,0)" font-weight="400" font-style="normal" fill="none" stroke="#000000" stroke-width="1" stroke-linecap="square" font-size="32.5" font-family="MS Shell Dlg 2" stroke-opacity="1"/>
  <g transform="matrix(11.8081,0,0,11.8081,0,0)" font-weight="400" font-style="normal" fill="#ffffff" stroke="none" fill-opacity="1" font-size="32.5" font-family="MS Shell Dlg 2">
   <path fill-rule="evenodd" d="M0,0 L297,0 L297,210 L0,210 L0,0" vector-effect="none"/>
  </g>
  <g stroke-linejoin="bevel" transform="matrix(11.8081,0,0,11.8081,0,0)" font-weight="400" font-style="normal" fill="none" stroke="#000000" stroke-width="1" stroke-linecap="square" font-size="32.5" font-family="MS Shell Dlg 2" stroke-opacity="1"/>
  <g stroke-linejoin="bevel" transform="matrix(11.8081,0,0,11.8081,0,0)" font-weight="400" font-style="normal" fill="none" stroke="#000000" stroke-width="1" stroke-linecap="square" font-size="32.5" font-family="MS Shell Dlg 2" stroke-opacity="1"/>
  <g stroke-linejoin="bevel" transform="matrix(11.8081,0,0,11.8081,0,0)" font-weight="400" font-style="normal" fill="none" stroke="#000000" stroke-width="1" stroke-linecap="square" font-size="32.5" font-family="MS Shell Dlg 2" stroke-opacity="1"/>
  <g stroke-linejoin="bevel" transform="matrix(11.8081,0,0,11.8081,0,0)" font-weight="400" font-style="normal" fill="none" stroke="#000000" stroke-width="1" stroke-linecap="square" font-size="32.5" font-family="MS Shell Dlg 2" stroke-opacity="1"/>
  <g stroke-linejoin="bevel" transform="matrix(1,0,0,1,0,0)" font-weight="400" font-style="normal" fill="none" stroke="#000000" stroke-width="1" stroke-linecap="square" font-size="32.5" font-family="MS Shell Dlg 2" stroke-opacity="1"/>
  <g stroke-linejoin="bevel" transform="matrix(11.8081,0,0,11.8081,0,0)" font-weight="400" font-style="normal" fill="none" stroke="#000000" stroke-width="1" stroke-linecap="square" font-size="32.5" font-family="MS Shell Dlg 2" stroke-opacity="1"/>
  <g stroke-linejoin="bevel" transform="matrix(11.8081,0,0,11.8081,0,0)" font-weight="400" font-style="normal" fill="none" stroke="#000000" stroke-width="1" stroke-linecap="square" font-size="32.5" font-family="MS Shell Dlg 2" stroke-opacity="1"/>
  <g stroke-linejoin="bevel" transform="matrix(1,0,0,1,0,0)" font-weight="400" font-style="normal" fill="none" stroke="#000000" stroke-width="1" stroke-linecap="square" font-size="32.5" font-family="MS Shell Dlg 2" stroke-opacity="1"/>
 </g>
 <defs/>
 <g stroke-linejoin="bevel" inkscape:label="Map 1: KaiWingWoodsLand" inkscape:groupmode="layer" fill="none" stroke="black" fill-rule="evenodd" stroke-width="1" stroke-linecap="square" id="Map 1: KaiWingWoodsLand">
  <g stroke-linejoin="bevel" transform="matrix(1,0,0,1,0,0)" font-weight="400" font-style="normal" fill="none" stroke="#000000" stroke-width="1" stroke-linecap="square" font-size="32.5" font-family="MS Shell Dlg 2" stroke-opacity="1"/>
  <g stroke-linejoin="bevel" transform="matrix(1,0,0,1,0,0)" font-weight="400" font-style="normal" fill="none" stroke="#000000" stroke-width="1" stroke-linecap="square" font-size="32.5" font-family="MS Shell Dlg 2" stroke-opacity="1"/>
  <g stroke-linejoin="bevel" transform="matrix(11.8081,0,0,11.8081,0,0)" font-weight="400" font-style="normal" fill="none" stroke="#000000" stroke-width="1" stroke-linecap="square" font-size="32.5" font-family="MS Shell Dlg 2" stroke-opacity="1"/>
  <g stroke-linejoin="bevel" transform="matrix(11.8081,0,0,11.8081,0,0)" font-weight="400" font-style="normal" fill="none" stroke="#000000" stroke-width="1" stroke-linecap="square" font-size="32.5" font-family="MS Shell Dlg 2" stroke-opacity="1"/>
  <g transform="matrix(0.999751,0,0,0.999751,0,0)" font-weight="400" font-style="normal" fill="#000000" stroke="none" fill-opacity="0" font-size="32.5" font-family="MS Shell Dlg 2">
   <rect height="2480" x="0" width="3508" y="0"/>
  </g>
  <g stroke-linejoin="bevel" transform="matrix(0.999751,0,0,0.999751,0,0)" font-weight="400" font-style="normal" fill="none" stroke="#000000" stroke-width="1" stroke-linecap="square" font-size="32.5" font-family="MS Shell Dlg 2" stroke-opacity="1"/>
  <g stroke-linejoin="bevel" transform="matrix(0.999751,0,0,0.999751,0,0)" font-weight="400" font-style="normal" fill="#ffd92f" stroke="#232323" fill-opacity="1" stroke-width="5.90551" stroke-linecap="square" font-size="32.5" font-family="MS Shell Dlg 2" stroke-opacity="1">
   <path fill-rule="evenodd" d="M307.43,1263.5 L293.976,1250.05 L245.924,1238.52 L184.417,1250.05 L122.91,1238.52 L136.365,1202 L111.378,1190.46 L111.378,1153.94 L86.3909,1140.49 L38.3388,1117.43 L49.8713,1092.44 L38.3388,1067.45 L63.3259,1055.92 L63.3259,1019.4 L74.8584,1007.87 L74.8584,994.412 L111.378,971.347 L111.378,957.892 L99.8455,934.827 L111.378,921.373 L99.8455,884.853 L122.91,848.334 L86.3909,836.801 L86.3909,800.282 L74.8584,800.282 L38.3388,775.294 L49.8713,738.775 L38.3388,727.242 L38.3388,702.255 L63.3259,665.736 L86.3909,665.736 L99.8455,665.736 L136.365,654.203 L147.898,629.216 L111.378,592.697 L184.417,592.697 L184.417,567.71 L197.872,556.177 L184.417,519.658 L220.937,508.125 L184.417,458.151 L209.404,435.086 L209.404,410.099 L270.911,398.566 L293.976,435.086 L330.495,446.618 L343.95,458.151 L343.95,494.67 L355.482,508.125 L405.457,508.125 L453.509,592.697 L465.041,592.697 L478.496,592.697 L574.6,556.177 L599.587,592.697 L649.561,592.697 L661.094,592.697 L709.146,592.697 L722.6,665.736 L795.639,654.203 L807.172,604.229 L857.146,617.684 L857.146,604.229 L930.185,592.697 L941.718,592.697 L978.237,581.164 L1003.22,640.749 L1064.73,640.749 L1076.26,654.203 L1162.76,640.749 L1162.76,654.203 L1210.81,654.203 L1222.34,654.203 L1235.8,654.203 L1295.38,665.736 L1308.84,677.268 L1370.34,690.723 L1381.87,677.268 L1393.41,592.697 L1443.38,604.229 L1454.91,604.229 L1502.97,617.684 L1527.95,592.697 L1491.43,531.19 L1527.95,494.67 L1539.49,471.605 L1552.94,435.086 L1577.93,435.086 L1600.99,458.151 L1637.51,508.125 L1637.51,531.19 L1662.5,531.19 L1687.49,531.19 L1724.01,508.125 L1735.54,494.67 L1735.54,471.605 L1797.04,458.151 L1822.03,435.086 L1833.56,435.086 L1858.55,421.631 L1870.08,385.112 L1943.12,398.566 L1979.64,362.047 L2004.63,362.047 L2016.16,373.579 L2114.19,337.06 L2125.72,373.579 L2200.68,362.047 L2212.21,373.579 L2223.75,373.579 L2237.2,348.592 L2237.2,275.553 L2260.27,275.553 L2310.24,289.008 L2321.77,202.514 L2394.81,190.981 L2408.27,252.488 L2431.33,275.553 L2517.83,252.488 L2554.34,312.073 L2542.81,325.527 L2615.85,410.099 L2652.37,458.151 L2638.92,471.605 L2579.33,519.658 L2615.85,567.71 L2638.92,581.164 L2663.9,581.164 L2711.96,665.736 L2700.42,665.736 L2663.9,750.307 L2688.89,786.827 L2711.96,786.827 L2750.4,800.282 L2761.93,811.814 L2773.46,873.321 L2750.4,896.386 L2761.93,934.827 L2786.92,957.892 L2834.97,957.892 L2846.5,994.412 L2834.97,1019.4 L2761.93,1055.92 L2750.4,1030.93 L2711.96,1007.87 L2700.42,1019.4 L2675.44,1007.87 L2638.92,1019.4 L2652.37,1067.45 L2663.9,1080.91 L2688.89,1092.44 L2725.41,1103.97 L2761.93,1080.91 L2761.93,1067.45 L2834.97,1092.44 L2823.44,1128.96 L2859.96,1165.48 L2883.02,1165.48 L2896.48,1177.01 L2896.48,1238.52 L2896.48,1250.05 L2908.01,1300.02 L2957.98,1311.56 L2969.51,1323.09 L2981.05,1373.06 L3006.03,1384.59 L2994.5,1421.11 L2981.05,1446.1 L2994.5,1519.14 L3031.02,1519.14 L3054.09,1603.71 L3067.54,1603.71 L3104.06,1592.18 L3140.58,1640.23 L3152.11,1640.23 L3165.57,1665.22 L3165.57,1701.74 L3129.05,1726.73 L3090.61,1713.27 L3079.07,1690.21 L3042.55,1690.21 L3006.03,1665.22 L2994.5,1676.75 L2957.98,1665.22 L2944.53,1676.75 L2908.01,1676.75 L2908.01,1713.27 L2944.53,1713.27 L2969.51,1749.79 L2981.05,1738.26 L3006.03,1749.79 L3017.57,1749.79 L3054.09,1763.24 L3067.54,1799.76 L3090.61,1799.76 L3129.05,1822.83 L3129.05,1836.28 L3188.63,1847.82 L3238.61,1836.28 L3261.67,1847.82 L3275.13,1895.87 L3261.67,1920.86 L3213.62,1932.39 L3188.63,1957.38 L3140.58,1945.84 L3054.09,1945.84 L3042.55,1945.84 L2957.98,1920.86 L2944.53,1920.86 L2908.01,1968.91 L2846.5,1932.39 L2761.93,1945.84 L2736.94,1932.39 L2725.41,1920.86 L2627.38,1932.39 L2615.85,1872.8 L2602.4,1859.35 L2615.85,1822.83 L2602.4,1822.83 L2615.85,1774.78 L2638.92,1763.24 L2663.9,1774.78 L2675.44,1774.78 L2711.96,1786.31 L2761.93,1763.24 L2786.92,1774.78 L2823.44,1763.24 L2834.97,1763.24 L2834.97,1749.79 L2859.96,1726.73 L2871.49,1676.75 L2834.97,1676.75 L2834.97,1628.7 L2846.5,1617.17 L2823.44,1592.18 L2809.98,1592.18 L2786.92,1617.17 L2773.46,1653.69 L2773.46,1665.22 L2750.4,1676.75 L2725.41,1665.22 L2725.41,1653.69 L2688.89,1628.7 L2663.9,1628.7 L2638.92,1665.22 L2615.85,1676.75 L2602.4,1690.21 L2542.81,1690.21 L2529.36,1640.23 L2492.84,1628.7 L2467.85,1640.23 L2456.32,1653.69 L2444.79,1665.22 L2408.27,1653.69 L2408.27,1617.17 L2358.29,1628.7 L2358.29,1653.69 L2321.77,1676.75 L2285.25,1690.21 L2248.73,1676.75 L2223.75,1676.75 L2212.21,1676.75 L2187.23,1665.22 L2164.16,1665.22 L2125.72,1640.23 L2089.2,1653.69 L2077.67,1676.75 L2052.68,1676.75 L2029.62,1701.74 L2004.63,1701.74 L1968.11,1676.75 L1968.11,1665.22 L1931.59,1617.17 L1918.14,1617.17 L1881.62,1628.7 L1858.55,1617.17 L1833.56,1628.7 L1808.58,1665.22 L1772.06,1665.22 L1748.99,1640.23 L1735.54,1617.17 L1699.02,1592.18 L1699.02,1567.19 L1650.97,1567.19 L1662.5,1505.69 L1650.97,1494.15 L1625.98,1457.63 L1625.98,1446.1 L1600.99,1409.58 L1600.99,1396.13 L1614.45,1384.59 L1650.97,1373.06 L1674.03,1336.54 L1662.5,1323.09 L1637.51,1300.02 L1614.45,1311.56 L1600.99,1336.54 L1564.47,1348.08 L1527.95,1311.56 L1527.95,1286.57 L1527.95,1263.5 L1527.95,1250.05 L1491.43,1213.53 L1466.45,1226.98 L1429.93,1202 L1429.93,1177.01 L1406.86,1165.48 L1356.89,1190.46 L1356.89,1213.53 L1345.35,1226.98 L1320.37,1238.52 L1308.84,1263.5 L1295.38,1275.04 L1258.86,1300.02 L1235.8,1311.56 L1222.34,1359.61 L1199.28,1396.13 L1162.76,1409.58 L1149.3,1421.11 L1124.32,1432.65 L1112.78,1446.1 L1101.25,1446.1 L1051.28,1457.63 L1028.21,1446.1 L1039.74,1396.13 L1014.76,1373.06 L1014.76,1359.61 L1003.22,1348.08 L966.705,1336.54 L966.705,1323.09 L916.73,1311.56 L916.73,1300.02 L930.185,1263.5 L930.185,1202 L916.73,1190.46 L893.665,1165.48 L893.665,1140.49 L857.146,1103.97 L843.691,1092.44 L832.159,1103.97 L770.652,1103.97 L759.12,1092.44 L745.665,1092.44 L709.146,1128.96 L722.6,1177.01 L697.613,1190.46 L697.613,1226.98 L697.613,1238.52 L697.613,1263.5 L672.626,1263.5 L636.106,1263.5 L613.041,1275.04 L613.041,1286.57 L588.054,1311.56 L563.067,1300.02 L538.08,1323.09 L515.015,1323.09 L490.028,1311.56 L465.041,1311.56 L441.976,1275.04 L405.457,1286.57 L392.002,1275.04 L355.482,1275.04 L343.95,1263.5 L307.43,1263.5 M1724.01,592.697 L1710.55,581.164 L1687.49,604.229 L1674.03,604.229 L1662.5,617.684 L1650.97,654.203 L1650.97,665.736 L1637.51,702.255 L1650.97,702.255 L1637.51,727.242 L1662.5,750.307 L1699.02,763.762 L1710.55,750.307 L1735.54,713.788 L1735.54,702.255 L1748.99,677.268 L1760.52,665.736 L1772.06,665.736 L1797.04,665.736 L1845.1,654.203 L1895.07,654.203 L1918.14,654.203 L1918.14,640.749 L1956.58,617.684 L1968.11,604.229 L1943.12,581.164 L1979.64,556.177 L2004.63,581.164 L2029.62,581.164 L2052.68,592.697 L2066.14,592.697 L2089.2,581.164 L2114.19,544.645 L2114.19,519.658 L2077.67,494.67 L2041.15,483.138 L2016.16,508.125 L1993.1,508.125 L1968.11,519.658 L1943.12,519.658 L1931.59,519.658 L1881.62,508.125 L1870.08,508.125 L1822.03,519.658 L1808.58,531.19 L1772.06,567.71 L1760.52,567.71 L1724.01,592.697 M1797.04,1494.15 L1760.52,1519.14 L1772.06,1542.21 L1808.58,1555.66 L1808.58,1505.69 L1797.04,1494.15 M392.002,1128.96 L405.457,1140.49 L405.457,1153.94 L441.976,1165.48 L453.509,1165.48 L478.496,1128.96 L465.041,1103.97 L441.976,1092.44 L392.002,1117.43 L392.002,1128.96 M1443.38,750.307 L1429.93,775.294 L1443.38,823.347 L1479.9,823.347 L1491.43,811.814 L1502.97,775.294 L1516.42,750.307 L1527.95,727.242 L1527.95,713.788 L1564.47,713.788 L1589.46,690.723 L1577.93,654.203 L1564.47,640.749 L1516.42,654.203 L1454.91,665.736 L1443.38,690.723 L1454.91,702.255 L1443.38,727.242 L1443.38,750.307 M1174.29,738.775 L1162.76,775.294 L1185.82,811.814 L1222.34,800.282 L1235.8,786.827 L1222.34,750.307 L1185.82,738.775 L1174.29,738.775 M2371.75,811.814 L2335.23,823.347 L2335.23,848.334 L2310.24,859.866 L2310.24,884.853 L2260.27,884.853 L2260.27,873.321 L2212.21,859.866 L2200.68,873.321 L2187.23,884.853 L2200.68,921.373 L2187.23,946.36 L2212.21,982.879 L2212.21,1019.4 L2175.69,1030.93 L2150.71,1019.4 L2139.17,1030.93 L2102.66,1030.93 L2089.2,1055.92 L2114.19,1080.91 L2102.66,1103.97 L2125.72,1117.43 L2114.19,1140.49 L2164.16,1153.94 L2175.69,1153.94 L2212.21,1177.01 L2212.21,1190.46 L2237.2,1202 L2260.27,1213.53 L2260.27,1202 L2310.24,1213.53 L2335.23,1202 L2358.29,1213.53 L2371.75,1190.46 L2419.8,1190.46 L2419.8,1177.01 L2444.79,1165.48 L2444.79,1140.49 L2481.31,1117.43 L2456.32,1080.91 L2481.31,1067.45 L2517.83,1067.45 L2542.81,1080.91 L2554.34,1067.45 L2565.88,1044.39 L2542.81,1007.87 L2542.81,994.412 L2529.36,971.347 L2542.81,946.36 L2529.36,909.84 L2542.81,896.386 L2529.36,859.866 L2542.81,836.801 L2542.81,823.347 L2517.83,811.814 L2481.31,811.814 L2444.79,848.334 L2419.8,859.866 L2408.27,848.334 L2394.81,848.334 L2371.75,811.814 M2237.2,1457.63 L2212.21,1409.58 L2175.69,1409.58 L2164.16,1432.65 L2187.23,1469.17 L2175.69,1469.17 L2187.23,1519.14 L2223.75,1505.69 L2237.2,1482.62 L2237.2,1469.17 L2237.2,1457.63 M2237.2,1359.61 L2273.72,1384.59 L2310.24,1373.06 L2310.24,1323.09 L2285.25,1311.56 L2260.27,1311.56 L2237.2,1359.61" vector-effect="none"/>
   <path fill-rule="evenodd" d="M1516.42,1555.66 L1516.42,1542.21 L1502.97,1530.67 L1479.9,1519.14 L1454.91,1469.17 L1454.91,1457.63 L1454.91,1446.1 L1491.43,1409.58 L1527.95,1421.11 L1552.94,1432.65 L1552.94,1457.63 L1564.47,1469.17 L1564.47,1494.15 L1614.45,1519.14 L1600.99,1542.21 L1589.46,1542.21 L1564.47,1578.72 L1577.93,1603.71 L1527.95,1617.17 L1539.49,1653.69 L1527.95,1665.22 L1516.42,1701.74 L1479.9,1713.27 L1466.45,1701.74 L1454.91,1665.22 L1454.91,1653.69 L1479.9,1640.23 L1491.43,1617.17 L1502.97,1603.71 L1516.42,1555.66" vector-effect="none"/>
   <path fill-rule="evenodd" d="M3482.71,1836.28 L3457.72,1836.28 L3409.67,1811.3 L3421.2,1763.24 L3457.72,1749.79 L3494.24,1799.76 L3482.71,1836.28" vector-effect="none"/>
  </g>
  <g stroke-linejoin="bevel" transform="matrix(0.999751,0,0,0.999751,0,0)" font-weight="400" font-style="normal" fill="none" stroke="#000000" stroke-width="1" stroke-linecap="square" font-size="32.5" font-family="MS Shell Dlg 2" stroke-opacity="1"/>
  <g stroke-linejoin="bevel" transform="matrix(11.8081,0,0,11.8081,0,0)" font-weight="400" font-style="normal" fill="none" stroke="#000000" stroke-width="1" stroke-linecap="square" font-size="32.5" font-family="MS Shell Dlg 2" stroke-opacity="1"/>
  <g stroke-linejoin="bevel" transform="matrix(11.8081,0,0,11.8081,0,0)" font-weight="400" font-style="normal" fill="none" stroke="#000000" stroke-width="1" stroke-linecap="square" font-size="32.5" font-family="MS Shell Dlg 2" stroke-opacity="1"/>
  <g stroke-linejoin="bevel" transform="matrix(11.8081,0,0,11.8081,0,0)" font-weight="400" font-style="normal" fill="none" stroke="#000000" stroke-width="1" stroke-linecap="square" font-size="32.5" font-family="MS Shell Dlg 2" stroke-opacity="1"/>
  <g stroke-linejoin="bevel" transform="matrix(1,0,0,1,0,0)" font-weight="400" font-style="normal" fill="none" stroke="#000000" stroke-width="1" stroke-linecap="square" font-size="32.5" font-family="MS Shell Dlg 2" stroke-opacity="1"/>
  <g stroke-linejoin="bevel" transform="matrix(11.8081,0,0,11.8081,0,0)" font-weight="400" font-style="normal" fill="none" stroke="#000000" stroke-width="1" stroke-linecap="square" font-size="32.5" font-family="MS Shell Dlg 2" stroke-opacity="1"/>
  <g stroke-linejoin="bevel" transform="matrix(11.8081,0,0,11.8081,0,0)" font-weight="400" font-style="normal" fill="none" stroke="#000000" stroke-width="1" stroke-linecap="square" font-size="32.5" font-family="MS Shell Dlg 2" stroke-opacity="1"/>
  <g stroke-linejoin="bevel" transform="matrix(1,0,0,1,0,0)" font-weight="400" font-style="normal" fill="none" stroke="#000000" stroke-width="1" stroke-linecap="square" font-size="32.5" font-family="MS Shell Dlg 2" stroke-opacity="1"/>
 </g>
 <defs/>
 <g stroke-linejoin="bevel" inkscape:label="Map 1: KaiWingWoodsLand (Labels)" inkscape:groupmode="layer" fill="none" stroke="black" fill-rule="evenodd" stroke-width="1" stroke-linecap="square" id="Map 1: KaiWingWoodsLand (Labels)">
  <g stroke-linejoin="bevel" transform="matrix(1,0,0,1,0,0)" font-weight="400" font-style="normal" fill="none" stroke="#000000" stroke-width="1" stroke-linecap="square" font-size="32.5" font-family="MS Shell Dlg 2" stroke-opacity="1"/>
  <g stroke-linejoin="bevel" transform="matrix(1,0,0,1,0,0)" font-weight="400" font-style="normal" fill="none" stroke="#000000" stroke-width="1" stroke-linecap="square" font-size="32.5" font-family="MS Shell Dlg 2" stroke-opacity="1"/>
  <g stroke-linejoin="bevel" transform="matrix(11.8081,0,0,11.8081,0,0)" font-weight="400" font-style="normal" fill="none" stroke="#000000" stroke-width="1" stroke-linecap="square" font-size="32.5" font-family="MS Shell Dlg 2" stroke-opacity="1"/>
  <g stroke-linejoin="bevel" transform="matrix(11.8081,0,0,11.8081,0,0)" font-weight="400" font-style="normal" fill="none" stroke="#000000" stroke-width="1" stroke-linecap="square" font-size="32.5" font-family="MS Shell Dlg 2" stroke-opacity="1"/>
  <g transform="matrix(0.999751,0,0,0.999751,0,0)" font-weight="400" font-style="normal" fill="#000000" stroke="none" fill-opacity="0" font-size="32.5" font-family="MS Shell Dlg 2">
   <rect height="2480" x="0" width="3508" y="0"/>
  </g>
  <g stroke-linejoin="bevel" transform="matrix(0.999751,0,0,0.999751,0,0)" font-weight="400" font-style="normal" fill="none" stroke="#000000" stroke-width="1" stroke-linecap="square" font-size="32.5" font-family="MS Shell Dlg 2" stroke-opacity="1"/>
  <g stroke-linejoin="bevel" transform="matrix(0.3999,0,0,0.3999,1549.72,1059.92)" font-weight="400" font-style="normal" fill="none" stroke="#000000" stroke-width="1" stroke-linecap="square" font-size="32.5" font-family="MS Shell Dlg 2" stroke-opacity="1"/>
  <g transform="matrix(0.999751,0,0,0.999751,1549.72,1059.92)" font-weight="400" font-style="normal" fill="#323232" stroke="none" fill-opacity="1" font-size="32.5" font-family="MS Shell Dlg 2">
   <path fill-rule="nonzero" d="M8.694,-14.7 L8.694,-12.39 C11.13,-14.966 13.013,-17.15 14.343,-18.942 C15.673,-20.734 16.485,-22.008 16.779,-22.764 C17.073,-23.52 17.22,-24.283 17.22,-25.053 C17.22,-25.823 16.982,-26.446 16.506,-26.922 L16.674,-27.51 C17.542,-27.398 18.781,-27.342 20.391,-27.342 C22.001,-27.342 23.632,-27.454 25.284,-27.678 L25.452,-26.628 C24.192,-26.236 22.848,-25.942 21.42,-25.746 C21.168,-23.366 19.124,-20.342 15.288,-16.674 L22.596,-0.966 C23.688,1.386 24.878,2.856 26.166,3.444 C26.67,3.444 27.286,3.262 28.014,2.898 C28.742,2.534 29.19,2.17 29.358,1.806 L29.61,1.722 C30.366,2.226 31.206,2.618 32.13,2.898 C32.214,3.066 32.256,3.297 32.256,3.591 C32.256,3.885 32.025,4.165 31.563,4.431 C31.101,4.697 30.45,4.83 29.61,4.83 C27.846,4.83 25.767,4.34 23.373,3.36 C20.979,2.38 19.32,1.372 18.396,0.336 C17.78,-2.38 17.094,-4.746 16.338,-6.762 C15.582,-8.778 14.434,-11.34 12.894,-14.448 C11.326,-13.02 9.926,-11.802 8.694,-10.794 C8.778,-6.538 8.96,-3.43 9.24,-1.47 C10.724,-1.33 12.264,-1.064 13.86,-0.672 L13.734,0.336 C11.662,0.112 9.415,0 6.993,0 C4.571,0 2.618,0.112 1.134,0.336 L0.966,-0.714 C2.226,-1.106 3.57,-1.4 4.998,-1.596 C5.306,-3.892 5.46,-7.504 5.46,-12.432 L5.46,-14.91 C5.46,-18.578 5.306,-21.952 4.998,-25.032 L4.956,-25.032 C1.652,-25.032 -0.462,-24.584 -1.386,-23.688 C-1.582,-23.296 -1.68,-22.68 -1.68,-21.84 C-1.68,-21 -1.54,-20.426 -1.26,-20.118 L-1.302,-19.824 C-2.002,-19.404 -2.702,-18.816 -3.402,-18.06 C-3.738,-18.088 -4.011,-18.228 -4.221,-18.48 C-4.431,-18.732 -4.536,-19.026 -4.536,-19.362 C-4.536,-20.734 -3.71,-22.372 -2.058,-24.276 C-0.406,-26.18 1.134,-27.384 2.562,-27.888 C2.786,-27.888 3.794,-27.797 5.586,-27.615 C7.378,-27.433 8.785,-27.342 9.807,-27.342 C10.829,-27.342 11.774,-27.426 12.642,-27.594 L12.81,-26.544 C11.718,-26.124 10.472,-25.746 9.072,-25.41 C8.82,-22.834 8.694,-19.264 8.694,-14.7 M29.536,-22.344 C32.168,-22.036 34.828,-21.882 37.516,-21.882 C40.204,-21.882 42.85,-22.036 45.454,-22.344 L45.622,-21.252 C44.782,-20.916 43.914,-20.664 43.018,-20.496 C42.71,-18.2 42.556,-15.008 42.556,-10.92 C42.556,-6.832 42.71,-3.64 43.018,-1.344 C43.578,-1.26 44.614,-1.05 46.126,-0.714 L45.958,0.336 C44.614,0.112 42.892,0 40.792,0 C38.692,0 37.082,0.112 35.962,0.336 L35.794,-0.756 C36.746,-1.064 37.824,-1.288 39.028,-1.428 C39.196,-3.052 39.322,-5.306 39.406,-8.19 C38.09,-8.33 36.774,-8.4 35.458,-8.4 C34.142,-8.4 32.994,-8.33 32.014,-8.19 C31.454,-5.894 31.174,-4.298 31.174,-3.402 C31.174,-2.03 31.664,-1.064 32.644,-0.504 L32.476,0.21 C31.832,0.07 30.614,0 28.822,0 C27.03,0 25.616,0.112 24.58,0.336 L24.412,-0.756 C25.084,-1.008 26.008,-1.232 27.184,-1.428 L32.644,-20.58 C31.412,-20.776 30.334,-21 29.41,-21.252 L29.536,-22.344 M32.35,-10.164 C33.442,-9.996 34.653,-9.912 35.983,-9.912 C37.313,-9.912 38.454,-9.996 39.406,-10.164 C39.406,-15.344 39.294,-18.69 39.07,-20.202 C38.118,-20.258 37.411,-20.286 36.949,-20.286 C36.487,-20.286 35.78,-20.258 34.828,-20.202 L32.35,-10.164 M55.4,-20.496 C55.176,-18.984 55.064,-15.89 55.064,-11.214 C55.064,-6.538 55.19,-3.262 55.442,-1.386 C56.702,-1.246 57.864,-1.036 58.928,-0.756 L58.802,0.294 C57.346,0.098 55.715,0 53.909,0 C52.103,0 50.486,0.112 49.058,0.336 L48.89,-0.756 C49.674,-1.008 50.556,-1.218 51.536,-1.386 C51.788,-3.402 51.914,-6.258 51.914,-9.954 L51.914,-11.928 C51.914,-15.624 51.774,-18.48 51.494,-20.496 C50.514,-20.664 49.632,-20.874 48.848,-21.126 L49.016,-22.218 C50.444,-21.994 52.061,-21.882 53.867,-21.882 C55.673,-21.882 57.304,-21.98 58.76,-22.176 L58.886,-21.126 C57.822,-20.846 56.66,-20.636 55.4,-20.496 M83.666,0.168 C82.322,0.056 80.908,0 79.424,0 C77.94,0 76.764,0.056 75.896,0.168 L75.728,-0.42 C76.064,-0.532 76.386,-0.707 76.694,-0.945 C77.002,-1.183 77.156,-1.442 77.156,-1.722 C77.156,-3.766 75.294,-10.598 71.57,-22.218 C71.234,-23.282 70.898,-24.22 70.562,-25.032 C67.286,-25.032 65.186,-24.584 64.262,-23.688 C64.066,-23.296 63.968,-22.68 63.968,-21.84 C63.968,-21 64.108,-20.426 64.388,-20.118 L64.346,-19.824 C63.646,-19.404 62.946,-18.816 62.246,-18.06 C61.91,-18.088 61.637,-18.228 61.427,-18.48 C61.217,-18.732 61.112,-19.026 61.112,-19.362 C61.112,-20.734 61.938,-22.372 63.59,-24.276 C65.242,-26.18 66.782,-27.384 68.21,-27.888 C68.434,-27.888 69.442,-27.797 71.234,-27.615 C73.026,-27.433 74.454,-27.342 75.518,-27.342 L80.432,-27.342 C86.48,-27.342 90.862,-27.482 93.578,-27.762 L93.746,-26.712 C92.514,-26.32 91.17,-25.998 89.714,-25.746 C89.854,-24.766 89.924,-23.877 89.924,-23.079 C89.924,-22.281 89.812,-21.28 89.588,-20.076 C90.652,-15.316 92.332,-9.59 94.628,-2.898 C96.7,-8.134 98.065,-12.103 98.723,-14.805 C99.381,-17.507 99.71,-19.824 99.71,-21.756 C99.71,-24.388 99.01,-26.11 97.61,-26.922 L97.778,-27.51 C98.646,-27.398 100.039,-27.342 101.957,-27.342 C103.875,-27.342 105.66,-27.454 107.312,-27.678 L107.48,-26.628 C106.22,-26.236 104.876,-25.942 103.448,-25.746 C103.588,-24.766 103.658,-23.954 103.658,-23.31 C103.658,-20.958 103.077,-18.256 101.915,-15.204 C100.753,-12.152 98.646,-7.56 95.594,-1.428 C96.07,-1.176 96.714,-0.938 97.526,-0.714 L97.4,0.168 C96.056,0.056 94.642,0 93.158,0 C91.674,0 90.498,0.056 89.63,0.168 L89.462,-0.42 C89.798,-0.532 90.12,-0.707 90.428,-0.945 C90.736,-1.183 90.89,-1.442 90.89,-1.722 C90.89,-3.374 89.896,-7.56 87.908,-14.28 L87.74,-14.28 C86.424,-10.892 84.464,-6.608 81.86,-1.428 C82.336,-1.176 82.98,-0.938 83.792,-0.714 L83.666,0.168 M80.894,-2.898 C82.966,-8.134 84.331,-12.103 84.989,-14.805 C85.647,-17.507 85.976,-19.817 85.976,-21.735 C85.976,-23.653 85.626,-24.899 84.926,-25.473 C84.226,-26.047 82.791,-26.334 80.621,-26.334 C78.451,-26.334 76.54,-26.082 74.888,-25.578 C75.14,-23.282 75.861,-19.88 77.051,-15.372 C78.241,-10.864 79.522,-6.706 80.894,-2.898 M114.4,-20.496 C114.176,-18.984 114.064,-15.89 114.064,-11.214 C114.064,-6.538 114.19,-3.262 114.442,-1.386 C115.702,-1.246 116.864,-1.036 117.928,-0.756 L117.802,0.294 C116.346,0.098 114.715,0 112.909,0 C111.103,0 109.486,0.112 108.058,0.336 L107.89,-0.756 C108.674,-1.008 109.556,-1.218 110.536,-1.386 C110.788,-3.402 110.914,-6.258 110.914,-9.954 L110.914,-11.928 C110.914,-15.624 110.774,-18.48 110.494,-20.496 C109.514,-20.664 108.632,-20.874 107.848,-21.126 L108.016,-22.218 C109.444,-21.994 111.061,-21.882 112.867,-21.882 C114.673,-21.882 116.304,-21.98 117.76,-22.176 L117.886,-21.126 C116.822,-20.846 115.66,-20.636 114.4,-20.496 M130.928,0.294 C129.472,0.098 127.841,0 126.035,0 C124.229,0 122.612,0.112 121.184,0.336 L121.016,-0.756 C121.912,-1.036 122.752,-1.246 123.536,-1.386 C123.788,-3.57 123.914,-6.426 123.914,-9.954 L123.914,-11.928 C123.914,-15.68 123.774,-18.564 123.494,-20.58 C122.738,-20.664 121.828,-20.888 120.764,-21.252 L120.89,-22.344 C122.486,-22.036 124.159,-21.882 125.909,-21.882 C127.659,-21.882 128.912,-21.98 129.668,-22.176 L129.752,-21.462 C128.996,-21.266 128.618,-20.944 128.618,-20.496 C128.618,-20.16 128.947,-19.453 129.605,-18.375 C130.263,-17.297 130.9,-16.254 131.516,-15.246 C133.364,-12.306 135.548,-8.694 138.068,-4.41 L138.194,-4.494 L138.194,-9.618 C138.194,-13.37 137.998,-16.191 137.606,-18.081 C137.214,-19.971 136.542,-21.07 135.59,-21.378 L135.674,-22.092 C136.402,-21.952 137.494,-21.882 138.95,-21.882 C140.406,-21.882 141.904,-22.036 143.444,-22.344 L143.57,-21.252 C142.422,-20.888 141.456,-20.664 140.672,-20.58 C140.392,-18.34 140.252,-15.456 140.252,-11.928 L140.252,-9.954 C140.252,-5.698 140.392,-2.814 140.672,-1.302 C141.848,-1.106 142.786,-0.882 143.486,-0.63 L143.36,0.462 C141.96,0.154 140.644,0 139.412,0 C138.18,0 137.228,0.056 136.556,0.168 C136.556,-0.448 136.129,-1.484 135.275,-2.94 C134.421,-4.396 133.644,-5.684 132.944,-6.804 C130.676,-10.472 128.45,-14.196 126.266,-17.976 L126.098,-17.892 L126.098,-12.264 C126.098,-6.692 126.518,-3.066 127.358,-1.386 C128.618,-1.246 129.85,-1.036 131.054,-0.756 L130.928,0.294 M156.298,-2.436 C157.502,-2.436 158.692,-2.786 159.868,-3.486 L159.658,-7.98 C158.874,-8.232 157.922,-8.456 156.802,-8.652 L156.928,-9.534 C157.6,-9.478 158.09,-9.45 158.398,-9.45 C160.33,-9.45 162.08,-9.968 163.648,-11.004 L164.068,-10.248 C163.732,-9.94 163.424,-9.618 163.144,-9.282 C162.752,-5.474 162.5,-2.338 162.388,0.126 L161.506,0.126 C161.282,-0.91 160.946,-1.764 160.498,-2.436 C158.874,-1.008 157.236,-0.028 155.584,0.504 C152.868,0.504 150.74,-0.357 149.2,-2.079 C147.66,-3.801 146.89,-6.125 146.89,-9.051 C146.89,-11.977 147.8,-14.728 149.62,-17.304 C151.44,-19.88 153.764,-21.574 156.592,-22.386 C158.636,-22.386 160.946,-22.176 163.522,-21.756 L163.48,-20.832 C162.948,-20.832 162.444,-20.734 161.968,-20.538 C161.436,-19.278 161.086,-17.78 160.918,-16.044 L159.868,-16.044 C159.644,-16.996 159.532,-17.976 159.532,-18.984 C158.468,-19.516 157.208,-19.782 155.752,-19.782 C154.296,-19.782 153.092,-19.39 152.14,-18.606 C151.02,-16.562 150.46,-14.147 150.46,-11.361 C150.46,-8.575 150.873,-6.391 151.699,-4.809 C152.525,-3.227 154.058,-2.436 156.298,-2.436 M189.666,0.168 C188.322,0.056 186.908,0 185.424,0 C183.94,0 182.764,0.056 181.896,0.168 L181.728,-0.42 C182.064,-0.532 182.386,-0.707 182.694,-0.945 C183.002,-1.183 183.156,-1.442 183.156,-1.722 C183.156,-3.766 181.294,-10.598 177.57,-22.218 C177.234,-23.282 176.898,-24.22 176.562,-25.032 C173.286,-25.032 171.186,-24.584 170.262,-23.688 C170.066,-23.296 169.968,-22.68 169.968,-21.84 C169.968,-21 170.108,-20.426 170.388,-20.118 L170.346,-19.824 C169.646,-19.404 168.946,-18.816 168.246,-18.06 C167.91,-18.088 167.637,-18.228 167.427,-18.48 C167.217,-18.732 167.112,-19.026 167.112,-19.362 C167.112,-20.734 167.938,-22.372 169.59,-24.276 C171.242,-26.18 172.782,-27.384 174.21,-27.888 C174.434,-27.888 175.442,-27.797 177.234,-27.615 C179.026,-27.433 180.454,-27.342 181.518,-27.342 L186.432,-27.342 C192.48,-27.342 196.862,-27.482 199.578,-27.762 L199.746,-26.712 C198.514,-26.32 197.17,-25.998 195.714,-25.746 C195.854,-24.766 195.924,-23.877 195.924,-23.079 C195.924,-22.281 195.812,-21.28 195.588,-20.076 C196.652,-15.316 198.332,-9.59 200.628,-2.898 C202.7,-8.134 204.065,-12.103 204.723,-14.805 C205.381,-17.507 205.71,-19.824 205.71,-21.756 C205.71,-24.388 205.01,-26.11 203.61,-26.922 L203.778,-27.51 C204.646,-27.398 206.039,-27.342 207.957,-27.342 C209.875,-27.342 211.66,-27.454 213.312,-27.678 L213.48,-26.628 C212.22,-26.236 210.876,-25.942 209.448,-25.746 C209.588,-24.766 209.658,-23.954 209.658,-23.31 C209.658,-20.958 209.077,-18.256 207.915,-15.204 C206.753,-12.152 204.646,-7.56 201.594,-1.428 C202.07,-1.176 202.714,-0.938 203.526,-0.714 L203.4,0.168 C202.056,0.056 200.642,0 199.158,0 C197.674,0 196.498,0.056 195.63,0.168 L195.462,-0.42 C195.798,-0.532 196.12,-0.707 196.428,-0.945 C196.736,-1.183 196.89,-1.442 196.89,-1.722 C196.89,-3.374 195.896,-7.56 193.908,-14.28 L193.74,-14.28 C192.424,-10.892 190.464,-6.608 187.86,-1.428 C188.336,-1.176 188.98,-0.938 189.792,-0.714 L189.666,0.168 M186.894,-2.898 C188.966,-8.134 190.331,-12.103 190.989,-14.805 C191.647,-17.507 191.976,-19.817 191.976,-21.735 C191.976,-23.653 191.626,-24.899 190.926,-25.473 C190.226,-26.047 188.791,-26.334 186.621,-26.334 C184.451,-26.334 182.54,-26.082 180.888,-25.578 C181.14,-23.282 181.861,-19.88 183.051,-15.372 C184.241,-10.864 185.522,-6.706 186.894,-2.898 M223.046,0.504 C220.274,0.504 218.034,-0.371 216.326,-2.121 C214.618,-3.871 213.764,-6.216 213.764,-9.156 C213.764,-12.096 214.66,-14.854 216.452,-17.43 C218.244,-20.006 220.582,-21.658 223.466,-22.386 C226.35,-22.386 228.548,-21.567 230.06,-19.929 C231.572,-18.291 232.328,-15.96 232.328,-12.936 C232.328,-9.912 231.509,-7.182 229.871,-4.746 C228.233,-2.31 225.958,-0.56 223.046,0.504 M222.332,-19.824 C221.072,-19.824 219.98,-19.474 219.056,-18.774 C217.908,-16.814 217.334,-14.35 217.334,-11.382 C217.334,-7.966 218.286,-5.348 220.19,-3.528 C221.198,-2.548 222.388,-2.058 223.76,-2.058 C225.132,-2.058 226.238,-2.422 227.078,-3.15 C228.198,-5.11 228.758,-7.504 228.758,-10.332 C228.758,-13.16 228.254,-15.449 227.246,-17.199 C226.238,-18.949 224.6,-19.824 222.332,-19.824 M245.046,0.504 C242.274,0.504 240.034,-0.371 238.326,-2.121 C236.618,-3.871 235.764,-6.216 235.764,-9.156 C235.764,-12.096 236.66,-14.854 238.452,-17.43 C240.244,-20.006 242.582,-21.658 245.466,-22.386 C248.35,-22.386 250.548,-21.567 252.06,-19.929 C253.572,-18.291 254.328,-15.96 254.328,-12.936 C254.328,-9.912 253.509,-7.182 251.871,-4.746 C250.233,-2.31 247.958,-0.56 245.046,0.504 M244.332,-19.824 C243.072,-19.824 241.98,-19.474 241.056,-18.774 C239.908,-16.814 239.334,-14.35 239.334,-11.382 C239.334,-7.966 240.286,-5.348 242.19,-3.528 C243.198,-2.548 244.388,-2.058 245.76,-2.058 C247.132,-2.058 248.238,-2.422 249.078,-3.15 C250.198,-5.11 250.758,-7.504 250.758,-10.332 C250.758,-13.16 250.254,-15.449 249.246,-17.199 C248.238,-18.949 246.6,-19.824 244.332,-19.824 M257.512,-21.798 L267.172,-22.092 C270.364,-22.092 272.821,-21.336 274.543,-19.824 C276.265,-18.312 277.126,-16.051 277.126,-13.041 C277.126,-10.031 276.181,-7.224 274.291,-4.62 C272.401,-2.016 270.056,-0.308 267.256,0.504 C266.528,0.504 265.583,0.371 264.421,0.105 C263.259,-0.161 262.3,-0.448 261.544,-0.756 C261.236,-0.392 260.956,0.126 260.704,0.798 L259.822,0.588 C260.354,-1.904 260.62,-5.425 260.62,-9.975 C260.62,-14.525 260.494,-17.934 260.242,-20.202 C259.29,-20.566 258.38,-20.748 257.512,-20.748 L257.512,-21.798 M271.96,-17.598 C271.456,-18.55 270.749,-19.292 269.839,-19.824 C268.929,-20.356 267.935,-20.622 266.857,-20.622 C265.779,-20.622 264.848,-20.468 264.064,-20.16 C263.868,-18.34 263.77,-15.435 263.77,-11.445 C263.77,-7.455 263.826,-4.69 263.938,-3.15 C265.338,-2.506 266.773,-2.184 268.243,-2.184 C269.713,-2.184 270.882,-2.562 271.75,-3.318 C272.814,-5.334 273.346,-7.812 273.346,-10.752 C273.346,-13.496 272.884,-15.778 271.96,-17.598 M283.662,-3.192 C284.95,-2.66 286.224,-2.394 287.484,-2.394 C288.744,-2.394 289.752,-2.688 290.508,-3.276 C291.264,-3.864 291.642,-4.704 291.642,-5.796 C291.642,-6.916 290.06,-8.302 286.896,-9.954 C285.692,-10.57 284.593,-11.319 283.599,-12.201 C282.605,-13.083 282.108,-13.958 282.108,-14.826 C282.108,-16.31 282.892,-17.808 284.46,-19.32 C286.028,-20.832 287.638,-21.854 289.29,-22.386 C291.362,-22.386 293.238,-22.176 294.918,-21.756 L294.918,-21 C293.742,-19.824 293.084,-18.214 292.944,-16.17 L291.894,-16.17 C291.894,-16.954 291.824,-17.934 291.684,-19.11 C290.704,-19.558 289.654,-19.782 288.534,-19.782 C287.414,-19.782 286.483,-19.537 285.741,-19.047 C284.999,-18.557 284.628,-17.85 284.628,-16.926 C284.628,-16.282 285.125,-15.582 286.119,-14.826 C287.113,-14.07 288.198,-13.398 289.374,-12.81 C290.55,-12.222 291.635,-11.494 292.629,-10.626 C293.623,-9.758 294.12,-8.89 294.12,-8.022 C294.12,-6.342 293.378,-4.669 291.894,-3.003 C290.41,-1.337 288.772,-0.168 286.98,0.504 C285.216,0.504 283.564,0.294 282.024,-0.126 C281.576,0.07 281.114,0.392 280.638,0.84 L279.882,0.294 C281.45,-1.414 282.318,-3.528 282.486,-6.048 L283.536,-6.048 C283.536,-5.068 283.578,-4.116 283.662,-3.192 " vector-effect="none"/>
  </g>
  <g stroke-linejoin="bevel" transform="matrix(0.3999,0,0,0.3999,1549.72,1059.92)" font-weight="400" font-style="normal" fill="none" stroke="#000000" stroke-width="1" stroke-linecap="square" font-size="32.5" font-family="MS Shell Dlg 2" stroke-opacity="1"/>
  <g stroke-linejoin="bevel" transform="matrix(0.999751,0,0,0.999751,0,0)" font-weight="400" font-style="normal" fill="none" stroke="#000000" stroke-width="1" stroke-linecap="square" font-size="32.5" font-family="MS Shell Dlg 2" stroke-opacity="1"/>
  <g stroke-linejoin="bevel" transform="matrix(11.8081,0,0,11.8081,0,0)" font-weight="400" font-style="normal" fill="none" stroke="#000000" stroke-width="1" stroke-linecap="square" font-size="32.5" font-family="MS Shell Dlg 2" stroke-opacity="1"/>
  <g stroke-linejoin="bevel" transform="matrix(11.8081,0,0,11.8081,0,0)" font-weight="400" font-style="normal" fill="none" stroke="#000000" stroke-width="1" stroke-linecap="square" font-size="32.5" font-family="MS Shell Dlg 2" stroke-opacity="1"/>
  <g stroke-linejoin="bevel" transform="matrix(11.8081,0,0,11.8081,0,0)" font-weight="400" font-style="normal" fill="none" stroke="#000000" stroke-width="1" stroke-linecap="square" font-size="32.5" font-family="MS Shell Dlg 2" stroke-opacity="1"/>
  <g stroke-linejoin="bevel" transform="matrix(1,0,0,1,0,0)" font-weight="400" font-style="normal" fill="none" stroke="#000000" stroke-width="1" stroke-linecap="square" font-size="32.5" font-family="MS Shell Dlg 2" stroke-opacity="1"/>
  <g stroke-linejoin="bevel" transform="matrix(11.8081,0,0,11.8081,0,0)" font-weight="400" font-style="normal" fill="none" stroke="#000000" stroke-width="1" stroke-linecap="square" font-size="32.5" font-family="MS Shell Dlg 2" stroke-opacity="1"/>
  <g stroke-linejoin="bevel" transform="matrix(11.8081,0,0,11.8081,0,0)" font-weight="400" font-style="normal" fill="none" stroke="#000000" stroke-width="1" stroke-linecap="square" font-size="32.5" font-family="MS Shell Dlg 2" stroke-opacity="1"/>
  <g stroke-linejoin="bevel" transform="matrix(1,0,0,1,0,0)" font-weight="400" font-style="normal" fill="none" stroke="#000000" stroke-width="1" stroke-linecap="square" font-size="32.5" font-family="MS Shell Dlg 2" stroke-opacity="1"/>
 </g>
</svg>
