<?xml version='1.0' encoding='UTF-8' standalone='no'?>
<svg height="209.973mm" width="296.926mm" viewBox="0 0 3507 2480" xmlns:xlink="http://www.w3.org/1999/xlink" xmlns:inkscape="http://www.inkscape.org/namespaces/inkscape" xmlns="http://www.w3.org/2000/svg" version="1.2" baseProfile="tiny">
 <defs/>
 <g stroke-linejoin="bevel" inkscape:label="Page" inkscape:groupmode="layer" fill="none" stroke="black" fill-rule="evenodd" stroke-width="1" stroke-linecap="square" id="Page">
  <g stroke-linejoin="bevel" transform="matrix(1,0,0,1,0,0)" font-weight="400" font-style="normal" fill="none" stroke="#000000" stroke-width="1" stroke-linecap="square" font-size="32.5" font-family="MS Shell Dlg 2" stroke-opacity="1"/>
  <g stroke-linejoin="bevel" transform="matrix(1,0,0,1,0,0)" font-weight="400" font-style="normal" fill="none" stroke="#000000" stroke-width="1" stroke-linecap="square" font-size="32.5" font-family="MS Shell Dlg 2" stroke-opacity="1"/>
  <g stroke-linejoin="bevel" transform="matrix(11.8081,0,0,11.8081,0,0)" font-weight="400" font-style="normal" fill="none" stroke="#000000" stroke-width="1" stroke-linecap="square" font-size="32.5" font-family="MS Shell Dlg 2" stroke-opacity="1"/>
  <g stroke-linejoin="bevel" transform="matrix(0.999751,0,0,0.999751,0,0)" font-weight="400" font-style="normal" fill="none" stroke="#000000" stroke-width="1" stroke-linecap="square" font-size="32.5" font-family="MS Shell Dlg 2" stroke-opacity="1"/>
  <g transform="matrix(0.999751,0,0,0.999751,0,0)" font-weight="400" font-style="normal" fill="#ffffff" stroke="none" fill-opacity="1" font-size="32.5" font-family="MS Shell Dlg 2">
   <path fill-rule="evenodd" d="M-2,-2 L3510,-2 L3510,2483 L-2,2483 L-2,-2" vector-effect="none"/>
  </g>
  <g stroke-linejoin="bevel" transform="matrix(0.999751,0,0,0.999751,0,0)" font-weight="400" font-style="normal" fill="none" stroke="#000000" stroke-width="1" stroke-linecap="square" font-size="32.5" font-family="MS Shell Dlg 2" stroke-opacity="1"/>
  <g stroke-linejoin="bevel" transform="matrix(11.8081,0,0,11.8081,0,0)" font-weight="400" font-style="normal" fill="none" stroke="#000000" stroke-width="1" stroke-linecap="square" font-size="32.5" font-family="MS Shell Dlg 2" stroke-opacity="1"/>
  <g stroke-linejoin="bevel" transform="matrix(11.8081,0,0,11.8081,0,0)" font-weight="400" font-style="normal" fill="none" stroke="#000000" stroke-width="1" stroke-linecap="square" font-size="32.5" font-family="MS Shell Dlg 2" stroke-opacity="1"/>
  <g stroke-linejoin="bevel" transform="matrix(1,0,0,1,0,0)" font-weight="400" font-style="normal" fill="none" stroke="#000000" stroke-width="1" stroke-linecap="square" font-size="32.5" font-family="MS Shell Dlg 2" stroke-opacity="1"/>
 </g>
 <defs/>
 <g stroke-linejoin="bevel" inkscape:label="Map 1: Background" inkscape:groupmode="layer" fill="none" stroke="black" fill-rule="evenodd" stroke-width="1" stroke-linecap="square" id="Map 1: Background">
  <g stroke-linejoin="bevel" transform="matrix(1,0,0,1,0,0)" font-weight="400" font-style="normal" fill="none" stroke="#000000" stroke-width="1" stroke-linecap="square" font-size="32.5" font-family="MS Shell Dlg 2" stroke-opacity="1"/>
  <g stroke-linejoin="bevel" transform="matrix(1,0,0,1,0,0)" font-weight="400" font-style="normal" fill="none" stroke="#000000" stroke-width="1" stroke-linecap="square" font-size="32.5" font-family="MS Shell Dlg 2" stroke-opacity="1"/>
  <g stroke-linejoin="bevel" transform="matrix(11.8081,0,0,11.8081,0,0)" font-weight="400" font-style="normal" fill="none" stroke="#000000" stroke-width="1" stroke-linecap="square" font-size="32.5" font-family="MS Shell Dlg 2" stroke-opacity="1"/>
  <g transform="matrix(11.8081,0,0,11.8081,0,0)" font-weight="400" font-style="normal" fill="#ffffff" stroke="none" fill-opacity="1" font-size="32.5" font-family="MS Shell Dlg 2">
   <path fill-rule="evenodd" d="M0,0 L297,0 L297,210 L0,210 L0,0" vector-effect="none"/>
  </g>
  <g stroke-linejoin="bevel" transform="matrix(11.8081,0,0,11.8081,0,0)" font-weight="400" font-style="normal" fill="none" stroke="#000000" stroke-width="1" stroke-linecap="square" font-size="32.5" font-family="MS Shell Dlg 2" stroke-opacity="1"/>
  <g stroke-linejoin="bevel" transform="matrix(11.8081,0,0,11.8081,0,0)" font-weight="400" font-style="normal" fill="none" stroke="#000000" stroke-width="1" stroke-linecap="square" font-size="32.5" font-family="MS Shell Dlg 2" stroke-opacity="1"/>
  <g stroke-linejoin="bevel" transform="matrix(11.8081,0,0,11.8081,0,0)" font-weight="400" font-style="normal" fill="none" stroke="#000000" stroke-width="1" stroke-linecap="square" font-size="32.5" font-family="MS Shell Dlg 2" stroke-opacity="1"/>
  <g stroke-linejoin="bevel" transform="matrix(11.8081,0,0,11.8081,0,0)" font-weight="400" font-style="normal" fill="none" stroke="#000000" stroke-width="1" stroke-linecap="square" font-size="32.5" font-family="MS Shell Dlg 2" stroke-opacity="1"/>
  <g stroke-linejoin="bevel" transform="matrix(1,0,0,1,0,0)" font-weight="400" font-style="normal" fill="none" stroke="#000000" stroke-width="1" stroke-linecap="square" font-size="32.5" font-family="MS Shell Dlg 2" stroke-opacity="1"/>
  <g stroke-linejoin="bevel" transform="matrix(11.8081,0,0,11.8081,0,0)" font-weight="400" font-style="normal" fill="none" stroke="#000000" stroke-width="1" stroke-linecap="square" font-size="32.5" font-family="MS Shell Dlg 2" stroke-opacity="1"/>
  <g stroke-linejoin="bevel" transform="matrix(11.8081,0,0,11.8081,0,0)" font-weight="400" font-style="normal" fill="none" stroke="#000000" stroke-width="1" stroke-linecap="square" font-size="32.5" font-family="MS Shell Dlg 2" stroke-opacity="1"/>
  <g stroke-linejoin="bevel" transform="matrix(1,0,0,1,0,0)" font-weight="400" font-style="normal" fill="none" stroke="#000000" stroke-width="1" stroke-linecap="square" font-size="32.5" font-family="MS Shell Dlg 2" stroke-opacity="1"/>
 </g>
 <defs/>
 <g stroke-linejoin="bevel" inkscape:label="Map 1: KaiWingWoodsProvinces" inkscape:groupmode="layer" fill="none" stroke="black" fill-rule="evenodd" stroke-width="1" stroke-linecap="square" id="Map 1: KaiWingWoodsProvinces">
  <g stroke-linejoin="bevel" transform="matrix(1,0,0,1,0,0)" font-weight="400" font-style="normal" fill="none" stroke="#000000" stroke-width="1" stroke-linecap="square" font-size="32.5" font-family="MS Shell Dlg 2" stroke-opacity="1"/>
  <g stroke-linejoin="bevel" transform="matrix(1,0,0,1,0,0)" font-weight="400" font-style="normal" fill="none" stroke="#000000" stroke-width="1" stroke-linecap="square" font-size="32.5" font-family="MS Shell Dlg 2" stroke-opacity="1"/>
  <g stroke-linejoin="bevel" transform="matrix(11.8081,0,0,11.8081,0,0)" font-weight="400" font-style="normal" fill="none" stroke="#000000" stroke-width="1" stroke-linecap="square" font-size="32.5" font-family="MS Shell Dlg 2" stroke-opacity="1"/>
  <g stroke-linejoin="bevel" transform="matrix(11.8081,0,0,11.8081,0,0)" font-weight="400" font-style="normal" fill="none" stroke="#000000" stroke-width="1" stroke-linecap="square" font-size="32.5" font-family="MS Shell Dlg 2" stroke-opacity="1"/>
  <g transform="matrix(0.999751,0,0,0.999751,0,0)" font-weight="400" font-style="normal" fill="#000000" stroke="none" fill-opacity="0" font-size="32.5" font-family="MS Shell Dlg 2">
   <rect height="2480" x="0" width="3508" y="0"/>
  </g>
  <g stroke-linejoin="bevel" transform="matrix(0.999751,0,0,0.999751,0,0)" font-weight="400" font-style="normal" fill="none" stroke="#000000" stroke-width="1" stroke-linecap="square" font-size="32.5" font-family="MS Shell Dlg 2" stroke-opacity="1"/>
  <g stroke-linejoin="bevel" transform="matrix(0.999751,0,0,0.999751,0,0)" font-weight="400" font-style="normal" fill="#1d921a" stroke="#232323" fill-opacity="1" stroke-width="2.95276" stroke-linecap="square" font-size="32.5" font-family="MS Shell Dlg 2" stroke-opacity="1">
   <path fill-rule="evenodd" d="M86.3909,836.801 L86.3909,800.282 L74.8584,800.282 L38.3388,775.294 L49.8713,738.775 L38.3388,727.242 L38.3388,702.255 L63.3259,665.736 L86.3909,665.736 L99.8455,665.736 L136.365,654.203 L147.898,629.216 L111.378,592.697 L184.417,592.697 L184.417,567.71 L197.872,556.177 L184.417,519.658 L220.937,508.125 L184.417,458.151 L209.404,435.086 L245.924,471.605 L293.976,435.086 L330.495,446.618 L343.95,458.151 L343.95,494.67 L355.482,508.125 L405.457,508.125 L453.509,592.697 L465.041,592.697 L478.496,592.697 L574.6,556.177 L599.587,592.697 L574.6,640.749 L636.106,677.268 L722.6,677.268 L722.6,665.736 L795.639,654.203 L807.172,604.229 L857.146,617.684 L857.146,665.736 L880.211,677.268 L905.198,690.723 L916.73,727.242 L941.718,738.775 L1003.22,727.242 L1014.76,727.242 L1064.73,702.255 L1087.8,713.788 L1101.25,775.294 L1087.8,811.814 L1087.8,836.801 L1174.29,811.814 L1185.82,811.814 L1222.34,800.282 L1235.8,786.827 L1247.33,786.827 L1283.85,738.775 L1308.84,763.762 L1370.34,738.775 L1381.87,775.294 L1429.93,775.294 L1443.38,823.347 L1479.9,823.347 L1479.9,884.853 L1539.49,848.334 L1552.94,859.866 L1637.51,836.801 L1600.99,800.282 L1625.98,775.294 L1650.97,763.762 L1662.5,750.307 L1699.02,763.762 L1710.55,750.307 L1735.54,713.788 L1735.54,702.255 L1748.99,677.268 L1760.52,665.736 L1772.06,665.736 L1797.04,665.736 L1845.1,654.203 L1895.07,654.203 L1918.14,654.203 L1918.14,640.749 L1956.58,617.684 L1968.11,604.229 L1943.12,581.164 L1979.64,556.177 L2004.63,581.164 L2029.62,581.164 L2052.68,592.697 L2066.14,592.697 L2089.2,581.164 L2114.19,592.697 L2125.72,654.203 L2164.16,677.268 L2164.16,727.242 L2139.17,727.242 L2125.72,738.775 L2077.67,786.827 L2125.72,836.801 L2114.19,873.321 L2114.19,884.853 L2114.19,909.84 L2102.66,934.827 L2139.17,971.347 L2150.71,1019.4 L2139.17,1030.93 L2102.66,1030.93 L2089.2,1055.92 L2114.19,1080.91 L2102.66,1103.97 L2125.72,1117.43 L2114.19,1140.49 L2164.16,1153.94 L2175.69,1153.94 L2212.21,1177.01 L2212.21,1190.46 L2237.2,1202 L2260.27,1213.53 L2260.27,1202 L2310.24,1213.53 L2321.77,1263.5 L2346.76,1275.04 L2371.75,1250.05 L2408.27,1263.5 L2444.79,1250.05 L2419.8,1190.46 L2419.8,1177.01 L2444.79,1165.48 L2481.31,1177.01 L2492.84,1128.96 L2517.83,1128.96 L2542.81,1080.91 L2554.34,1067.45 L2579.33,1080.91 L2615.85,1103.97 L2638.92,1103.97 L2663.9,1080.91 L2688.89,1092.44 L2725.41,1103.97 L2761.93,1080.91 L2773.46,1117.43 L2773.46,1165.48 L2725.41,1190.46 L2736.94,1250.05 L2761.93,1263.5 L2773.46,1263.5 L2786.92,1323.09 L2846.5,1336.54 L2846.5,1396.13 L2859.96,1409.58 L2859.96,1469.17 L2834.97,1505.69 L2834.97,1519.14 L2846.5,1530.67 L2823.44,1592.18 L2809.98,1592.18 L2773.46,1555.66 L2761.93,1555.66 L2761.93,1592.18 L2736.94,1603.71 L2725.41,1653.69 L2688.89,1628.7 L2663.9,1628.7 L2638.92,1665.22 L2615.85,1676.75 L2602.4,1690.21 L2542.81,1690.21 L2529.36,1640.23 L2492.84,1628.7 L2467.85,1640.23 L2456.32,1653.69 L2444.79,1665.22 L2408.27,1653.69 L2408.27,1617.17 L2358.29,1628.7 L2358.29,1653.69 L2321.77,1676.75 L2285.25,1690.21 L2248.73,1676.75 L2223.75,1676.75 L2212.21,1676.75 L2237.2,1603.71 L2248.73,1603.71 L2248.73,1567.19 L2237.2,1555.66 L2223.75,1505.69 L2237.2,1482.62 L2237.2,1469.17 L2237.2,1457.63 L2212.21,1409.58 L2175.69,1409.58 L2164.16,1432.65 L2187.23,1469.17 L2175.69,1469.17 L2187.23,1519.14 L2150.71,1530.67 L2114.19,1505.69 L2125.72,1494.15 L2102.66,1457.63 L2102.66,1446.1 L2029.62,1469.17 L2004.63,1446.1 L1993.1,1446.1 L1956.58,1457.63 L1906.6,1432.65 L1906.6,1396.13 L1881.62,1373.06 L1845.1,1373.06 L1822.03,1311.56 L1833.56,1286.57 L1881.62,1286.57 L1906.6,1238.52 L1895.07,1213.53 L1808.58,1213.53 L1808.58,1190.46 L1735.54,1165.48 L1724.01,1177.01 L1650.97,1177.01 L1637.51,1153.94 L1662.5,1092.44 L1662.5,1067.45 L1674.03,1030.93 L1625.98,957.892 L1589.46,982.879 L1577.93,1007.87 L1577.93,1019.4 L1564.47,1080.91 L1552.94,1092.44 L1527.95,1103.97 L1516.42,1140.49 L1502.97,1153.94 L1479.9,1153.94 L1429.93,1177.01 L1406.86,1165.48 L1356.89,1190.46 L1356.89,1177.01 L1283.85,1165.48 L1272.32,1190.46 L1235.8,1202 L1199.28,1177.01 L1162.76,1177.01 L1149.3,1190.46 L1076.26,1153.94 L1076.26,1128.96 L1014.76,1092.44 L1014.76,1044.39 L1003.22,1030.93 L1039.74,971.347 L1014.76,934.827 L1028.21,873.321 L1014.76,873.321 L953.25,896.386 L953.25,946.36 L941.718,957.892 L978.237,1019.4 L916.73,1044.39 L868.678,1007.87 L832.159,1030.93 L784.107,1030.93 L770.652,1007.87 L722.6,994.412 L722.6,982.879 L672.626,971.347 L661.094,971.347 L636.106,946.36 L613.041,946.36 L563.067,982.879 L551.535,1007.87 L538.08,1030.93 L526.548,1030.93 L478.496,1007.87 L428.522,1019.4 L416.989,1019.4 L405.457,1019.4 L318.963,1007.87 L307.43,1007.87 L293.976,994.412 L270.911,994.412 L220.937,934.827 L184.417,946.36 L172.885,1019.4 L111.378,971.347 L111.378,957.892 L99.8455,934.827 L111.378,921.373 L99.8455,884.853 L122.91,848.334 L86.3909,836.801 M355.482,921.373 L318.963,896.386 L293.976,896.386 L282.443,909.84 L293.976,994.412 L355.482,921.373 M2273.72,1384.59 L2310.24,1373.06 L2310.24,1323.09 L2285.25,1311.56 L2260.27,1311.56 L2237.2,1359.61 L2273.72,1384.59" vector-effect="none"/>
   <path fill-rule="evenodd" d="M2212.21,373.579 L2223.75,373.579 L2237.2,348.592 L2237.2,275.553 L2260.27,275.553 L2310.24,289.008 L2321.77,300.54 L2408.27,252.488 L2431.33,275.553 L2517.83,252.488 L2554.34,312.073 L2542.81,325.527 L2615.85,410.099 L2652.37,458.151 L2638.92,471.605 L2579.33,519.658 L2615.85,567.71 L2638.92,581.164 L2663.9,581.164 L2711.96,665.736 L2700.42,665.736 L2663.9,750.307 L2688.89,786.827 L2627.38,823.347 L2627.38,848.334 L2615.85,859.866 L2542.81,836.801 L2542.81,823.347 L2517.83,811.814 L2529.36,775.294 L2481.31,713.788 L2456.32,727.242 L2444.79,775.294 L2419.8,786.827 L2408.27,848.334 L2394.81,848.334 L2371.75,811.814 L2335.23,823.347 L2310.24,786.827 L2335.23,750.307 L2321.77,713.788 L2335.23,690.723 L2296.79,654.203 L2346.76,604.229 L2321.77,567.71 L2273.72,581.164 L2248.73,556.177 L2237.2,519.658 L2223.75,494.67 L2200.68,494.67 L2125.72,519.658 L2114.19,519.658 L2077.67,494.67 L2102.66,421.631 L2125.72,410.099 L2125.72,373.579 L2200.68,362.047 L2212.21,373.579" vector-effect="none"/>
   <path fill-rule="evenodd" d="M1735.54,471.605 L1797.04,458.151 L1822.03,435.086 L1833.56,435.086 L1858.55,421.631 L1906.6,458.151 L1931.59,446.618 L1943.12,519.658 L1931.59,519.658 L1881.62,508.125 L1870.08,508.125 L1822.03,519.658 L1808.58,531.19 L1772.06,567.71 L1760.52,567.71 L1724.01,592.697 L1710.55,581.164 L1687.49,604.229 L1674.03,604.229 L1662.5,617.684 L1650.97,654.203 L1600.99,640.749 L1600.99,567.71 L1637.51,531.19 L1662.5,531.19 L1687.49,531.19 L1724.01,508.125 L1735.54,494.67 L1735.54,471.605" vector-effect="none"/>
  </g>
  <g stroke-linejoin="bevel" transform="matrix(0.999751,0,0,0.999751,0,0)" font-weight="400" font-style="normal" fill="none" stroke="#000000" stroke-width="1" stroke-linecap="square" font-size="32.5" font-family="MS Shell Dlg 2" stroke-opacity="1"/>
  <g stroke-linejoin="bevel" transform="matrix(11.8081,0,0,11.8081,0,0)" font-weight="400" font-style="normal" fill="none" stroke="#000000" stroke-width="1" stroke-linecap="square" font-size="32.5" font-family="MS Shell Dlg 2" stroke-opacity="1"/>
  <g stroke-linejoin="bevel" transform="matrix(11.8081,0,0,11.8081,0,0)" font-weight="400" font-style="normal" fill="none" stroke="#000000" stroke-width="1" stroke-linecap="square" font-size="32.5" font-family="MS Shell Dlg 2" stroke-opacity="1"/>
  <g stroke-linejoin="bevel" transform="matrix(11.8081,0,0,11.8081,0,0)" font-weight="400" font-style="normal" fill="none" stroke="#000000" stroke-width="1" stroke-linecap="square" font-size="32.5" font-family="MS Shell Dlg 2" stroke-opacity="1"/>
  <g stroke-linejoin="bevel" transform="matrix(1,0,0,1,0,0)" font-weight="400" font-style="normal" fill="none" stroke="#000000" stroke-width="1" stroke-linecap="square" font-size="32.5" font-family="MS Shell Dlg 2" stroke-opacity="1"/>
  <g stroke-linejoin="bevel" transform="matrix(11.8081,0,0,11.8081,0,0)" font-weight="400" font-style="normal" fill="none" stroke="#000000" stroke-width="1" stroke-linecap="square" font-size="32.5" font-family="MS Shell Dlg 2" stroke-opacity="1"/>
  <g stroke-linejoin="bevel" transform="matrix(11.8081,0,0,11.8081,0,0)" font-weight="400" font-style="normal" fill="none" stroke="#000000" stroke-width="1" stroke-linecap="square" font-size="32.5" font-family="MS Shell Dlg 2" stroke-opacity="1"/>
  <g stroke-linejoin="bevel" transform="matrix(1,0,0,1,0,0)" font-weight="400" font-style="normal" fill="none" stroke="#000000" stroke-width="1" stroke-linecap="square" font-size="32.5" font-family="MS Shell Dlg 2" stroke-opacity="1"/>
 </g>
</svg>
