<?xml version="1.0" encoding="UTF-8" standalone="no"?>
<svg
   xmlns:dc="http://purl.org/dc/elements/1.1/"
   xmlns:cc="http://creativecommons.org/ns#"
   xmlns:rdf="http://www.w3.org/1999/02/22-rdf-syntax-ns#"
   xmlns:svg="http://www.w3.org/2000/svg"
   xmlns="http://www.w3.org/2000/svg"
   xmlns:sodipodi="http://sodipodi.sourceforge.net/DTD/sodipodi-0.dtd"
   xmlns:inkscape="http://www.inkscape.org/namespaces/inkscape"
   height="209.973mm"
   width="296.926mm"
   viewBox="0 0 3507 2480"
   version="1.2"
   id="svg3155"
   sodipodi:docname="NewFrontierLand.svg"
   inkscape:version="1.0.1 (3bc2e813f5, 2020-09-07)">
  <metadata
     id="metadata3159">
    <rdf:RDF>
      <cc:Work
         rdf:about="">
        <dc:format>image/svg+xml</dc:format>
        <dc:type
           rdf:resource="http://purl.org/dc/dcmitype/StillImage" />
      </cc:Work>
    </rdf:RDF>
  </metadata>
  <sodipodi:namedview
     pagecolor="#ffffff"
     bordercolor="#666666"
     borderopacity="1"
     objecttolerance="10"
     gridtolerance="10"
     guidetolerance="10"
     inkscape:pageopacity="0"
     inkscape:pageshadow="2"
     inkscape:window-width="1920"
     inkscape:window-height="1028"
     id="namedview3157"
     showgrid="false"
     inkscape:zoom="1.0798908"
     inkscape:cx="462.96192"
     inkscape:cy="423.65395"
     inkscape:window-x="-9"
     inkscape:window-y="14"
     inkscape:window-maximized="1"
     inkscape:current-layer="svg3155" />
  <defs
     id="defs2991" />
  <defs
     id="defs3014" />
  <defs
     id="defs3043" />
  <defs
     id="defs3114" />
  <g
     stroke-linejoin="bevel"
     transform="scale(0.999751)"
     font-weight="400"
     font-style="normal"
     fill="#e36daf"
     stroke="#232323"
     fill-opacity="1"
     stroke-width="5.90551"
     stroke-linecap="square"
     font-size="32.5px"
     font-family="'MS Shell Dlg 2'"
     stroke-opacity="1"
     id="g3095"
     inkscape:label="Land">
    <path
       fill-rule="evenodd"
       d="m 586.345,1644.67 -15.033,-15.03 -30.068,15.03 v -37 l -6.938,-28.91 v -8.1 l -21.972,-13.87 h -6.939 l -8.095,21.97 -28.911,6.94 -8.095,6.93 -28.91,-6.93 H 416.35 l -13.877,-6.94 -8.095,-8.1 v -13.87 l 30.067,-21.98 21.972,-15.03 v -21.97 l -8.095,-6.94 v -21.97 l 15.034,-21.98 21.972,13.88 8.095,21.97 h 6.939 l 6.938,21.98 8.095,8.09 21.972,-8.09 6.939,-13.88 -6.939,-21.97 6.939,-15.04 h 15.033 l 21.973,-15.03 h 6.938 l 15.034,-13.88 h 6.938 l 21.973,6.94 43.944,-6.94 h 8.095 l 21.972,-8.09 15.034,-6.94 v -37.01 -21.97 -6.94 l -8.095,-21.97 15.033,-8.1 21.972,8.1 h 6.939 v -8.1 -28.91 l 8.095,-15.03 v -6.94 h 6.939 l 28.91,6.94 15.034,-21.97 -15.034,-21.97 v -6.94 l 8.095,-28.91 13.878,-21.98 -6.939,-8.09 -21.972,-21.97 -6.939,8.09 -15.033,-15.03 v -6.94 l 6.938,-21.97 h 30.067 l 21.973,6.94 21.972,-6.94 h 6.938 21.972 l 15.034,-15.04 6.939,-15.03 30.067,-13.88 13.877,6.94 h 8.095 l 6.939,-28.91 h 15.033 l 15.034,21.97 h 13.877 l 8.092,21.98 13.88,-8.1 8.1,21.97 h 13.87 v 37.01 l 15.04,21.97 37,-6.94 h 37.01 28.91 v -8.09 l 6.94,-28.91 23.13,-15.04 6.93,-6.94 v -6.93 l 21.98,-21.98 28.91,6.94 v 15.04 l 15.03,13.87 h 21.97 l 8.1,8.1 h 13.87 l 8.1,13.88 21.97,8.09 6.94,13.88 -15.03,8.09 15.03,28.91 15.03,-6.94 13.88,21.98 h 8.1 l 21.97,13.87 -15.04,30.07 h -21.97 v 6.94 l -21.97,6.94 v 8.09 l -15.03,13.88 15.03,21.97 15.03,-13.87 h 13.88 l 8.1,21.97 v 13.87 8.1 21.97 6.94 l 6.93,15.03 15.04,15.04 28.91,-8.1 h 15.03 l 6.94,-6.94 30.07,6.94 28.91,-6.94 6.94,21.98 -13.88,15.03 6.94,13.88 -6.94,15.03 v 6.94 l 21.97,21.97 21.98,30.07 6.93,6.94 15.04,6.94 21.97,-6.94 15.03,6.94 21.98,-6.94 6.93,6.94 6.94,30.06 h -6.94 v 28.91 l 6.94,15.04 -6.94,13.87 6.94,15.04 v 6.94 l 8.1,15.03 -8.1,50.88 h 8.1 l -8.1,15.04 8.1,6.94 28.91,15.03 h 30.07 6.93 15.04 13.87 8.1 l 15.03,-28.91 v -15.04 -6.93 -15.04 l 13.88,-6.94 8.1,-8.09 13.87,-13.88 21.97,21.97 15.04,-30.06 21.97,-13.88 v 6.94 l 6.94,21.97 v 15.03 l 8.09,13.88 v 8.1 l 21.98,13.87 6.93,-6.94 v -21.97 h 8.1 l 6.94,-15.03 h 15.03 l 13.88,-13.88 -6.94,-21.97 h 6.94 l 8.09,-21.97 21.98,13.87 15.03,-21.97 13.88,30.07 h 15.03 l 15.03,13.88 h 6.94 l 21.98,21.97 15.03,21.97 6.94,8.1 h 37 l 6.94,-8.1 15.04,-13.88 21.97,13.88 21.97,15.03 h 6.94 8.09 l 28.91,-6.93 8.1,6.93 6.94,15.04 15.03,6.94 6.94,15.03 28.91,6.94 h 30.07 v 6.94 l 21.97,-6.94 15.03,6.94 13.88,8.09 h 8.1 l 21.97,28.91 h 13.87 8.1 l 21.97,6.94 15.04,-6.94 v -6.94 -30.06 l 28.91,-6.94 21.97,21.97 6.94,6.94 8.09,8.09 28.91,13.88 15.04,-13.88 21.97,6.94 21.97,-6.94 v -15.03 -6.94 -21.97 l 15.03,-15.03 h 6.94 l 15.04,-6.94 13.87,6.94 h 23.13 l 6.94,21.97 -15.03,6.94 15.03,21.97 -6.94,8.09 v 6.94 l -15.03,15.04 -21.97,-21.98 -8.1,6.94 v 21.98 l 15.04,8.09 v 6.94 l 6.93,15.03 h 23.13 l 6.94,13.88 37.01,-21.97 h 21.97 v 8.09 h 28.91 6.94 l 23.13,21.97 6.94,21.98 v 6.94 6.93 l 15.03,15.04 6.94,15.03 21.97,6.94 21.97,6.94 6.94,-6.94 30.07,6.94 v -6.94 l 28.91,6.94 h 8.09 l 13.88,21.97 h 8.1 l 6.93,8.1 h 28.91 l 8.1,21.97 v 13.87 l -30.07,8.1 -6.94,21.97 -21.97,13.88 -15.03,-6.94 v -28.91 l -28.91,-15.03 -8.1,6.93 -6.94,15.04 6.94,21.97 -13.87,15.03 6.93,21.98 -15.03,13.87 15.03,21.98 -6.93,21.97 28.91,15.03 8.09,-6.94 21.97,6.94 6.94,-6.94 v 6.94 l 28.91,-21.97 8.1,-15.03 v -6.94 l 13.87,-28.91 h 23.13 l 6.94,6.93 -6.94,21.98 6.94,21.97 6.94,6.94 h 21.97 v 8.09 h 15.04 v -8.09 h 21.97 l 6.94,8.09 37,-8.09 30.07,15.03 6.94,-6.94 6.94,6.94 30.06,-15.03 21.98,-6.94 6.94,-21.97 h 6.93 8.1 l 28.91,-6.94 15.03,21.97 v 13.88 l 15.04,8.09 v 6.94 h 21.97 6.94 15.03 l 6.94,-6.94 21.97,6.94 15.04,-21.97 h 15.03 6.94 l 6.94,6.94 15.03,8.09 6.94,21.98 -6.94,13.87 6.94,15.04 -6.94,15.03 -6.94,6.94 -8.09,15.03 -6.94,6.94 -6.94,15.03 -30.07,6.94 -6.94,15.04 -15.03,6.93 -21.97,-6.93 -15.04,6.93 -6.93,-6.93 h -21.98 l -15.03,-6.94 v -15.04 l 15.03,-21.97 v -15.03 l 6.94,-15.04 v -13.87 l -6.94,-8.1 -21.97,-6.94 h -15.03 l -6.94,6.94 h -15.03 l -6.94,15.04 h -21.98 l -15.03,21.97 h -21.97 l -15.03,15.03 -13.88,-6.94 h -8.1 l -15.03,-8.09 -28.91,15.03 h -6.94 l -8.09,6.94 -13.88,-6.94 -8.1,6.94 h -21.97 l -13.88,-28.91 6.94,-8.1 -15.03,-13.87 -28.91,13.87 v 30.07 h -8.1 -21.97 l -6.94,-6.94 h -28.91 l -8.09,6.94 -21.98,6.94 -21.97,-6.94 -15.03,-6.94 v -15.03 l -6.94,-8.1 -6.94,-28.91 -37,15.04 -6.94,21.97 6.94,6.94 v 21.97 8.1 l -15.04,28.91 h -15.03 l -6.94,-6.94 h -21.97 l -15.04,-8.1 h -13.87 l -8.1,30.07 h 8.1 l -8.1,13.88 15.04,15.03 -6.94,15.03 6.94,6.94 -6.94,21.97 -8.1,6.94 -28.91,-13.87 -6.94,6.93 -30.06,-6.93 -15.04,6.93 v 6.94 21.98 l -21.97,21.97 -21.97,-28.91 8.09,-15.04 -8.09,-13.87 -28.91,6.93 -8.1,15.04 -21.97,-30.07 -13.88,15.03 -8.09,-6.93 -13.88,6.93 -8.1,6.94 -13.87,8.1 -8.1,13.88 v 8.09 h -6.94 l -37,6.94 -21.97,6.94 h -21.98 l -6.93,-21.97 13.87,-13.88 15.04,-21.97 15.03,-21.98 -8.1,-15.03 h -13.87 l -8.1,6.94 v 8.09 l -13.87,6.94 -8.1,15.04 -21.97,6.93 h -6.94 -30.07 l -21.97,-6.93 -6.94,6.93 h -21.97 l -21.97,6.94 h -15.04 l -15.03,21.98 -6.94,8.09 -15.03,6.94 -21.97,-6.94 -6.94,-30.07 v -6.94 l -6.94,-15.03 v -13.88 -8.09 -21.97 l 6.94,-6.94 -6.94,-28.91 -21.97,-8.1 -21.98,15.04 -30.06,6.93 -6.94,15.04 -21.97,6.94 -8.1,21.97 -28.91,-6.94 -6.94,-15.03 -21.97,-13.88 -23.13,-8.1 -6.94,-6.93 h -6.94 l -21.97,-6.94 h -8.09 v -8.1 l -28.91,-21.97 v -13.88 l 28.91,-8.09 8.09,8.09 h 21.97 v -8.09 -28.91 l 6.94,-30.07 -6.94,-6.94 13.88,-28.91 v -8.09 l -13.88,-6.94 -8.09,-15.04 v -6.94 l 30.07,-21.97 h 6.93 l 8.1,-21.97 -8.1,-21.97 -6.93,-6.94 v -21.97 l -15.04,-15.04 -15.03,-28.91 -6.94,-8.09 v 8.09 l -28.91,-15.03 -37.01,-6.94 h -15.03 -15.03 -6.94 -6.94 -15.03 -6.94 -15.04 l -21.97,6.94 -30.07,6.94 -6.93,8.09 -15.04,6.94 -13.87,6.94 -15.04,8.1 h -15.03 l -21.97,6.93 -15.04,-15.03 -13.87,8.1 -15.04,-15.04 h -21.97 l -15.03,-6.94 21.97,-30.06 -6.94,-13.88 -37.01,6.94 -6.93,6.94 v 15.03 6.94 30.07 l -15.04,6.93 -15.03,-6.93 h -6.94 -21.97 l -6.94,6.93 h -21.97 l -8.1,15.04 v 6.94 l -28.91,15.03 -21.97,-8.1 v -6.93 l 6.94,-15.04 v -13.87 l -15.04,-15.04 -28.91,28.91 -15.03,-13.87 v -21.98 l -6.94,-8.09 -15.03,-13.88 h -21.98 -37 l -6.94,-15.03 -6.94,-6.94 -8.09,-15.03 -6.94,-6.94 h -15.04 l -13.87,-8.1 -21.97,15.04 -15.04,-6.94 -8.09,-30.07 -6.94,-6.94 v -15.03 l -28.91,-13.88 -8.1,-8.09 -6.94,-6.94 -6.93,-21.98 6.93,-8.09 -6.93,-21.97 -8.1,-6.94 h -6.94 l -21.97,-21.97 v -15.04 l 21.97,-6.94 6.94,-21.97 v -6.94 l 8.1,-15.03 -8.1,-15.03 8.1,-13.88 v -8.1 -28.91 l -8.1,-6.93 -6.94,-8.1 -15.03,-13.88 v -15.03 l 8.09,-6.94 -8.09,-30.07 8.09,-6.94 13.88,-6.93 8.1,-21.98 v -8.09 l -21.98,-21.97 -21.97,30.06 6.94,6.94 -30.07,6.94 -6.94,-13.88 v -8.09 h -6.93 l 6.93,-21.97 v -13.88 l -6.93,-8.1 -8.1,-21.97 h -28.911 -6.938 l -21.972,-6.94 h -8.095 l -21.973,-8.09 -15.033,8.09 -6.939,43.95 -37.006,21.97 -21.972,-15.03 -6.938,8.09 -21.972,-15.03 -15.034,15.03 h -6.939 -8.095 l -6.938,13.88 -21.972,15.03 -28.911,15.04 -8.095,6.93 -28.911,-6.93 -30.067,-8.1 -6.939,8.1 -6.938,21.97 6.938,6.94 v 21.97 h 6.939 v 6.94 l -13.877,21.97 h -30.067 l -6.939,8.1 v 21.97 l 6.939,6.94 8.095,15.03 6.938,13.88 v 8.09 6.94 l -15.033,6.94 -21.973,-13.88 -13.877,21.97"
       vector-effect="none"
       id="path3059" />
    <path
       fill-rule="evenodd"
       d="m 1158.78,808.575 15.03,-6.939 6.94,-8.095 15.03,-13.877 v -15.034 -6.938 -30.067 l 15.04,-13.878 h 6.94 21.97 l 6.94,6.939 21.97,-15.034 V 683.68 h -6.94 l -15.03,-13.877 h -6.94 l -21.97,-15.033 -28.91,-21.973 v -15.033 l 6.93,-13.877 v -8.095 l 6.94,-21.973 -28.91,-28.91 -8.09,-8.095 h -21.98 -13.87 l -15.04,-6.939 -15.03,-21.972 15.03,-21.972 h 21.98 6.93 8.1 l 6.94,-21.972 -15.04,-15.034 v -6.939 l -13.87,-15.033 -15.04,-21.972 -15.03,-21.973 v -6.938 l -13.88,-21.972 21.98,-15.034 13.87,15.034 -6.94,15.033 28.91,13.877 h 8.1 l 13.88,15.034 h 8.09 6.94 l 21.97,-6.939 8.1,-30.067 -8.1,-13.877 h -21.97 l -28.91,6.939 -8.1,-6.939 v -21.972 l -13.87,-21.972 -15.04,-8.095 -21.97,15.033 h -21.97 l -21.97,-6.938 v -21.972 l 6.94,-15.034 30.06,15.034 v -8.095 h 21.98 l 13.87,-13.878 -6.94,-15.033 v -21.972 l -6.93,-6.939 v -30.067 l 28.91,-13.877 15.03,21.972 h 6.94 l 21.97,21.972 h 8.1 l 21.97,6.939 6.94,15.033 15.03,6.939 35.85,-15.034 15.03,15.034 v 21.972 l 21.97,15.034 h 30.07 6.94 6.94 l 15.03,-15.034 h 15.04 l 21.97,-28.911 28.91,-15.033 15.03,15.033 21.97,-8.095 V 207.231 178.32 l 28.92,-6.938 h 30.06 l 15.04,21.972 h 13.87 l 15.04,13.877 h 15.03 l 13.88,-6.938 V 178.32 l 8.09,-15.033 -8.09,-15.034 21.97,-13.877 21.97,-21.972 30.07,-8.095 h 15.03 6.94 21.97 l 6.94,-6.9388 30.07,-6.9386 21.97,6.9386 6.94,-15.0336 21.97,-13.8771 h 8.1 l 13.87,-21.9722 h 8.1 l 28.91,13.8772 21.97,15.0336 h 8.1 l 13.87,15.0335 -6.93,28.9104 -15.04,6.939 -15.03,-6.939 -13.88,15.034 -21.97,-8.095 -8.1,30.067 v 6.939 l -21.97,15.033 8.1,21.973 -8.1,6.938 -13.87,8.095 -8.1,21.972 8.1,13.877 13.87,8.095 h 21.97 l 8.1,13.878 21.97,-6.939 6.94,15.034 -15.03,13.877 15.03,21.972 v 15.034 l 6.94,6.938 23.13,8.095 v 6.939 l 28.91,21.972 -6.94,15.033 6.94,21.973 -6.94,6.938 6.94,21.972 h -6.94 l -15.03,6.939 -21.98,-13.877 v -15.034 l -15.03,-15.033 -15.03,-6.939 h -28.91 l -6.94,21.972 6.94,15.034 6.93,21.972 h -6.93 l 6.93,13.877 8.1,8.095 -8.1,21.972 8.1,13.877 -15.03,30.068 -21.98,-8.095 -37,-6.939 v 21.972 15.034 6.938 l 8.09,15.034 -30.06,15.034 h -6.94 l -15.04,6.938 v -6.938 l -28.91,6.938 -8.09,6.939 v 21.972 l 21.97,15.034 15.03,-6.939 15.04,6.939 13.87,-6.939 23.13,6.939 v 28.91 l 28.91,8.095 6.94,-8.095 h 21.97 l 8.1,-6.938 13.88,-6.939 h 8.09 l 21.97,-15.033 15.04,15.033 21.97,-15.033 v -6.939 l -15.03,-15.034 v -28.91 l 6.93,-8.095 8.1,-6.939 6.94,-15.034 15.03,-15.033 h 6.94 l 15.03,-21.972 28.91,-6.939 8.1,-6.938 21.97,-21.973 h 6.94 l 15.03,6.939 21.98,-6.939 13.87,6.939 h 8.1 l 13.88,6.938 8.09,8.096 h 15.03 l 13.88,13.877 -6.94,21.972 -21.97,8.095 -8.09,-8.095 -28.91,-13.877 h -6.94 l -15.04,-8.095 -15.03,8.095 -13.88,21.972 h -21.97 v 6.938 l -23.13,15.034 -28.91,21.972 15.03,21.972 h 13.88 l 15.03,-21.972 21.98,6.939 v 15.033 l 21.97,15.034 v 13.877 21.972 l 8.09,8.095 21.98,6.939 6.94,15.033 h 28.91 l 23.12,-15.033 v -6.939 l 6.94,-21.972 h 6.94 l 37.01,13.877 -6.94,21.972 -8.1,15.034 v 21.972 l 15.04,6.939 h 21.97 v 8.095 l 37.01,-8.095 28.91,-6.939 8.09,-21.972 13.88,-6.939 15.03,-30.067 15.04,-6.938 28.91,6.938 8.09,30.067 6.94,6.939 h 6.94 l 15.03,-6.939 h 15.04 6.93 15.04 l 13.87,-8.095 8.1,-13.877 v -15.033 l -8.1,-15.034 v -6.938 l -6.93,-15.034 v -13.877 l 21.97,-21.972 30.07,13.877 v 8.095 6.938 l 6.93,6.939 v 21.972 l 6.94,8.095 v 13.877 l 15.04,21.972 21.97,-6.938 v -28.911 l -15.04,-21.972 15.04,-15.034 h 21.97 l 15.03,-6.938 6.94,6.938 30.07,28.911 6.94,15.034 15.03,28.91 h 6.94 21.97 l 21.98,-13.877 v -8.095 l 21.97,-6.938 8.09,-15.034 v -6.938 l -8.09,-28.911 h 30.06 v 21.972 l 13.88,6.939 21.97,-6.939 8.1,13.877 h 21.97 l 6.94,-28.911 v -21.972 l -6.94,-6.938 v -8.095 l 21.97,-21.973 21.98,21.973 h -6.94 l 13.87,21.972 21.98,8.095 h 30.06 6.94 l 21.97,13.877 v 30.067 l 6.94,13.877 v 8.095 l 8.1,21.972 -15.04,21.973 v 28.91 6.939 l -6.93,8.095 -15.04,6.939 -6.94,-6.939 -21.97,6.939 v 21.972 21.972 l -15.03,6.939 -6.94,21.972 13.88,15.033 v 21.972 l 8.09,37.006 v 6.939 l -37,6.938 h -6.94 -15.04 l -15.03,-28.91 h -6.94 l -15.03,-21.973 -28.91,-15.033 -15.04,30.067 15.04,6.939 6.94,6.938 15.03,8.095 -8.1,28.911 -13.87,6.939 -8.1,8.095 h -6.94 l -15.03,6.938 h -13.88 l -8.09,-15.033 -15.04,-6.939 v -6.939 l -13.87,-8.095 -8.1,-13.877 8.1,-15.033 v -15.034 -6.939 l -15.04,-21.972 -21.97,6.939 -21.97,8.095 h -6.94 l -23.13,-8.095 -6.94,-6.939 h -15.03 l -13.88,-15.033 -21.97,15.033 h -8.1 l -13.87,15.034 -15.04,-8.095 -21.97,15.033 -15.03,21.973 h -15.04 l -13.87,-21.973 6.94,-6.938 -28.91,-15.034 v -6.938 l -21.98,-15.034 -15.03,-15.033 -15.03,8.095 -21.98,-8.095 -6.93,8.095 h -21.98 v -8.095 l -21.97,-13.878 h -15.03 l -30.07,13.878 -6.94,-6.939 -6.94,6.939 -8.09,21.972 15.03,15.033 -6.94,6.939 h -15.03 l -21.97,15.033 6.94,15.034 -21.98,13.877 v 15.034 H 2151 v 6.938 l 6.93,15.034 8.1,15.034 28.91,-8.095 v 15.033 l 37.01,8.095 -8.1,21.973 -28.91,13.88 -15.03,-13.88 H 2151 l -15.04,6.94 v 21.97 l -21.97,15.03 h -15.03 l -6.94,6.94 -21.97,-6.94 -15.04,6.94 h -6.94 l -28.91,21.97 v 15.04 l 6.94,6.94 15.03,28.91 -30.06,8.09 h -6.94 -21.97 -8.1 -6.94 l -6.94,13.88 v 8.09 l -15.03,21.98 h -21.97 -6.94 l -21.97,-8.1 -8.1,8.1 -15.03,-8.1 -6.94,8.1 -15.03,21.97 v 6.94 l -13.88,21.97 -8.1,6.94 -6.93,15.03 v 6.94 l -6.94,15.03 6.94,6.94 -6.94,15.04 -30.07,15.03 -6.94,-8.1 h -15.03 l -6.94,-6.93 -21.97,-6.94 v -15.04 h -30.07 v -6.93 h -28.91 -6.94 -23.13 l -6.94,-21.98 6.94,-21.97 -13.87,-8.09 -21.98,8.09 -21.97,-15.03 -15.03,-15.04 v -6.93 l -6.94,-6.94 h -8.1 l -28.91,-15.04 -21.97,6.94 -8.09,21.97 v 8.1 l -6.94,21.97 h -15.04 -6.94 l -21.97,-21.97 v -15.03 l 15.04,-21.98 v -21.97 h 6.93 l -15.03,-28.91 -13.88,-30.07 h -15.03 l -6.94,-13.87 6.94,-15.04 v -6.94 -8.09 l -15.03,-21.97 h -6.94 l -21.97,-13.88 -8.1,-21.973 v -23.128 l 15.03,-13.878 -15.03,-21.972 h -13.88 l -15.03,-8.095 -15.03,-6.938 -6.94,-6.939 v -8.095 l -28.91,-6.939 h -15.04 l -8.09,-6.938 h -28.91 -28.91 -8.1 -21.97 l -15.03,-21.972 -6.94,-21.972 v -8.095 l -6.94,-28.911 h 6.94 m 367.74,278.695 v -21.97 l -15.03,-6.94 -28.91,6.94 -8.1,15.04 8.1,13.87 6.94,15.04 37,-21.98"
       vector-effect="none"
       id="path3061" />
    <path
       fill-rule="evenodd"
       d="m 2209.97,1212.17 v -15.03 l 21.98,-6.94 15.03,6.94 21.97,-6.94 v -15.04 l 6.94,-28.91 6.94,-8.09 15.03,-6.94 6.94,-15.03 21.97,-6.94 15.04,6.94 21.97,-6.94 8.09,6.94 v 8.09 l 28.91,6.94 v 15.03 h -37 l -6.94,13.88 v 8.09 l 15.03,13.88 h 6.94 6.94 l 21.97,-13.88 h 21.97 l 8.1,21.98 -15.03,21.97 v 13.88 l 28.91,8.09 8.09,6.94 h 21.97 l 6.94,28.91 -6.94,15.03 -30.06,6.94 -6.94,-6.94 h -28.91 l -15.04,-6.93 -28.91,-30.07 v -6.94 l -30.06,-21.97 -15.04,21.97 8.1,15.03 -30.07,21.98 h -6.94 -15.03 l -6.94,-8.1 h -21.97 l -15.04,-21.97 -21.97,-13.88 -6.94,-21.97"
       vector-effect="none"
       id="path3063" />
    <path
       fill-rule="evenodd"
       d="m 2011.07,251.175 -13.88,-21.972 v -6.938 l 13.88,-15.034 h 8.09 l 21.97,21.972 v 15.034 6.938 21.973 15.033 6.939 l -8.09,21.972 v 8.095 28.911 l 21.97,6.938 8.1,30.067 h 6.94 l 6.93,21.973 8.1,6.938 v 6.939 l 21.97,8.095 6.94,6.938 15.03,15.034 v 21.972 l -6.94,6.939 h -8.09 l -21.97,-6.939 v -15.033 h -21.97 l -6.94,-6.939 -15.04,-8.095 -6.94,-13.877 6.94,-15.034 -15.03,-21.972 h -21.97 -6.94 l -6.94,-15.034 6.94,-21.972 -15.04,-13.877 v -8.095 l 8.1,-13.877 -8.1,-8.095 8.1,-21.972 6.94,-6.939 -6.94,-21.972 13.88,-15.034"
       vector-effect="none"
       id="path3065" />
    <path
       fill-rule="evenodd"
       d="m 1842.23,2040.17 v -6.94 l 15.03,6.94 13.88,-15.03 v -21.97 l 23.13,-6.94 6.94,6.94 v 30.06 6.94 l -6.94,28.91 -15.04,21.98 h -8.09 l -13.88,-28.92 -15.03,6.94 -6.94,-13.87 -15.03,6.93 -15.04,-15.03 15.04,-13.88 21.97,6.94"
       vector-effect="none"
       id="path3067" />
    <path
       fill-rule="evenodd"
       d="m 563.217,1190.2 23.128,6.94 h 13.877 l 21.973,15.03 v 13.88 l -6.939,15.03 -15.034,6.94 -6.938,8.09 -15.034,6.94 -21.972,15.04 -6.939,-8.1 -15.033,-21.97 21.972,-13.88 v -8.09 l -28.911,-13.88 13.877,-21.97 h 8.095 13.878"
       vector-effect="none"
       id="path3069" />
    <path
       fill-rule="evenodd"
       d="m 1724.27,2025.14 h 21.97 l 8.1,8.09 h 15.03 l 13.88,21.98 v 21.97 l -37.01,6.94 -6.93,-15.04 h -15.04 l -6.94,-13.87 h -21.97 l -6.94,-21.98 6.94,-15.03 21.97,-6.94 6.94,13.88"
       vector-effect="none"
       id="path3071" />
    <path
       fill-rule="evenodd"
       d="m 1099.8,1050.27 30.07,15.03 v 6.94 h 6.94 l 15.03,37.01 -21.97,15.03 -21.97,-21.97 h -21.98 -8.09 l -6.94,-15.04 15.03,-28.91 13.88,-8.09"
       vector-effect="none"
       id="path3073" />
    <path
       fill-rule="evenodd"
       d="m 3135.12,2025.14 v -13.88 -8.09 l 15.03,-21.98 21.97,8.1 8.1,21.97 -8.1,13.88 h 8.1 v 30.07 l -15.04,6.93 h -15.03 l -15.03,-6.93 v -8.1 -21.97"
       vector-effect="none"
       id="path3075" />
    <path
       fill-rule="evenodd"
       d="m 996.878,1585.7 -13.877,-15.04 6.938,-28.91 15.031,-6.94 21.98,28.91 -30.072,28.91 v -6.93"
       vector-effect="none"
       id="path3077" />
    <path
       fill-rule="evenodd"
       d="m 2378.81,1028.3 15.04,8.09 v 6.94 15.03 l -21.98,13.88 h -15.03 l -15.03,-6.94 v -15.03 l 15.03,-21.97 h 21.97"
       vector-effect="none"
       id="path3079" />
    <path
       fill-rule="evenodd"
       d="m 2584.66,1732.56 h -8.1 -6.94 l -15.03,-37 8.09,-15.04 28.92,15.04 v 6.94 l -6.94,30.06"
       vector-effect="none"
       id="path3081" />
    <path
       fill-rule="evenodd"
       d="m 1048.92,1006.32 h 21.97 l 6.94,15.04 -13.88,21.97 -37,-6.94 21.97,-30.07"
       vector-effect="none"
       id="path3083" />
    <path
       fill-rule="evenodd"
       d="m 1158.78,82.3366 30.07,21.9724 -8.1,15.033 h -21.97 l -15.04,-15.033 15.04,-21.9724"
       vector-effect="none"
       id="path3085" />
    <path
       fill-rule="evenodd"
       d="m 1327.62,237.298 -6.94,-30.067 15.03,-13.877 21.97,13.877 v 8.095 l -8.09,13.877 -21.97,8.095"
       vector-effect="none"
       id="path3087" />
    <path
       fill-rule="evenodd"
       d="m 637.228,1313.93 v -21.97 l 15.034,-13.87 21.972,6.93 -8.095,37.01 h -13.877 l -15.034,-8.1"
       vector-effect="none"
       id="path3089" />
    <path
       fill-rule="evenodd"
       d="m 1423.6,1124.28 -15.03,13.88 h -6.94 -8.1 l -6.94,-6.94 6.94,-28.91 h 23.13 l 6.94,21.97"
       vector-effect="none"
       id="path3091" />
    <path
       fill-rule="evenodd"
       d="m 1857.26,1269.99 v -13.88 l 13.88,-8.09 15.03,15.03 v 6.94 h -28.91"
       vector-effect="none"
       id="path3093" />
  </g>
  <g
     transform="matrix(5.3383222,0,0,5.3383222,49.078898,2456.6019)"
     font-weight="400"
     font-style="normal"
     fill="#323232"
     stroke="none"
     fill-opacity="1"
     font-size="32.5px"
     font-family="'MS Shell Dlg 2'"
     id="g3134"
     inkscape:label="Label">
    <path
       fill-rule="nonzero"
       d="m 21.966,-12.432 c 0,-4.788 -0.21,-8.295 -0.63,-10.521 -0.42,-2.226 -1.218,-3.549 -2.394,-3.969 l 0.168,-0.588 c 0.868,0.112 2.282,0.168 4.242,0.168 1.96,0 3.766,-0.112 5.418,-0.336 l 0.126,0.966 c -1.988,0.476 -3.374,0.756 -4.158,0.84 -0.364,2.744 -0.546,6.398 -0.546,10.962 v 2.478 c 0,5.236 0.182,8.89 0.546,10.962 1.428,0.168 2.772,0.42 4.032,0.756 l -0.168,1.05 C 27.118,0.112 25.627,0 24.129,0 22.631,0 21.42,0.042 20.496,0.126 c 0,-0.924 -0.91,-2.982 -2.73,-6.174 -1.82,-3.192 -5.124,-8.526 -9.912,-16.002 l -0.168,0.084 v 7.056 c 0,6.86 0.518,11.34 1.554,13.44 1.54,0.14 3.066,0.406 4.578,0.798 L 13.734,0.336 C 11.662,0.112 9.415,0 6.993,0 4.571,0 2.618,0.112 1.134,0.336 L 0.966,-0.714 C 2.226,-1.106 3.57,-1.4 4.998,-1.596 5.306,-3.892 5.46,-7.504 5.46,-12.432 v -2.478 c 0,-3.948 -0.168,-7.322 -0.504,-10.122 -3.304,0 -5.418,0.448 -6.342,1.344 -0.196,0.392 -0.294,1.008 -0.294,1.848 0,0.84 0.14,1.414 0.42,1.722 l -0.042,0.294 c -0.7,0.42 -1.4,1.008 -2.1,1.764 -0.336,-0.028 -0.609,-0.168 -0.819,-0.42 -0.21,-0.252 -0.315,-0.546 -0.315,-0.882 0,-1.372 0.826,-3.01 2.478,-4.914 1.652,-1.904 3.192,-3.108 4.62,-3.612 0.336,0.028 1.281,0.126 2.835,0.294 1.554,0.168 2.835,0.252 3.843,0.252 1.008,0 1.946,-0.084 2.814,-0.252 l 0.168,1.05 c -1.148,0.476 -1.722,0.938 -1.722,1.386 0.14,0.756 0.938,2.345 2.394,4.767 1.456,2.422 4.424,7.119 8.904,14.091 l 0.168,-0.084 v -6.048 m 13.536,2.058 c 0.084,2.492 0.546,4.438 1.386,5.838 0.84,1.4 2.268,2.1 4.284,2.1 2.016,0 3.878,-0.854 5.586,-2.562 l 0.588,0.588 c -1.876,2.38 -4.13,4.018 -6.762,4.914 -2.716,0 -4.844,-0.861 -6.384,-2.583 -1.54,-1.722 -2.31,-4.046 -2.31,-6.972 0,-2.926 0.91,-5.677 2.73,-8.253 1.82,-2.576 4.144,-4.27 6.972,-5.082 2.044,0 4.354,0.21 6.93,0.63 l -0.042,0.924 c -0.532,0 -1.036,0.098 -1.512,0.294 -0.532,1.26 -0.882,2.758 -1.05,4.494 h -1.05 c -0.224,-0.952 -0.336,-1.932 -0.336,-2.94 -1.064,-0.532 -2.324,-0.798 -3.78,-0.798 -1.456,0 -2.66,0.392 -3.612,1.176 -0.952,1.736 -1.498,3.808 -1.638,6.216 1.176,0.196 2.436,0.294 3.78,0.294 2.324,0 3.724,-0.49 4.2,-1.47 l 0.882,0.126 c -0.252,0.84 -0.378,1.666 -0.378,2.478 0,0.812 0.098,1.806 0.294,2.982 l -1.008,0.168 c -0.308,-0.84 -0.532,-1.708 -0.672,-2.604 -1.12,-0.112 -2.233,-0.168 -3.339,-0.168 -1.106,0 -2.359,0.07 -3.759,0.21 M 62.734,0.252 C 61.726,0.084 60.403,0 58.765,0 57.127,0 55.902,0.056 55.09,0.168 l -0.126,-0.672 c 0.252,-0.056 0.497,-0.203 0.735,-0.441 0.238,-0.238 0.357,-0.455 0.357,-0.651 0,-1.596 -1.47,-6.986 -4.41,-16.17 -0.392,-1.232 -0.728,-2.128 -1.008,-2.688 -0.588,-0.084 -1.498,-0.322 -2.73,-0.714 l 0.168,-1.092 c 2.464,0.252 6.125,0.378 10.983,0.378 4.858,0 8.379,-0.112 10.563,-0.336 l 0.168,1.092 c -1.232,0.42 -2.058,0.658 -2.478,0.714 0.056,0.42 0.084,1.183 0.084,2.289 0,1.106 -0.182,2.429 -0.546,3.969 0.952,3.724 2.184,7.672 3.696,11.844 1.68,-4.172 2.8,-7.336 3.36,-9.492 0.56,-2.156 0.84,-4.13 0.84,-5.922 0,-1.792 -0.574,-2.996 -1.722,-3.612 l 0.168,-0.714 c 0.84,0.14 1.862,0.21 3.066,0.21 1.204,0 2.618,-0.112 4.242,-0.336 l 0.168,1.092 c -1.12,0.364 -1.918,0.588 -2.394,0.672 0.112,0.84 0.168,1.428 0.168,1.764 0,2.044 -0.462,4.228 -1.386,6.552 -0.924,2.324 -2.674,5.894 -5.25,10.71 0.532,0.252 1.176,0.49 1.932,0.714 l -0.21,0.924 C 72.52,0.084 71.225,0 69.643,0 68.061,0 66.864,0.056 66.052,0.168 l -0.126,-0.672 c 0.252,-0.056 0.497,-0.203 0.735,-0.441 0.238,-0.238 0.357,-0.455 0.357,-0.651 0,-1.036 -0.686,-3.864 -2.058,-8.484 -1.736,4.004 -3.052,6.902 -3.948,8.694 0.532,0.252 1.176,0.49 1.932,0.714 l -0.21,0.924 M 59.71,-2.31 c 1.652,-4.116 2.751,-7.252 3.297,-9.408 0.546,-2.156 0.819,-3.99 0.819,-5.502 0,-1.512 -0.28,-2.506 -0.84,-2.982 -0.56,-0.476 -1.659,-0.714 -3.297,-0.714 -1.638,0 -3.255,0.154 -4.851,0.462 0.196,1.848 0.777,4.564 1.743,8.148 0.966,3.584 2.009,6.916 3.129,9.996 m 43.62,-24.78 c 2.212,0 3.738,-0.434 4.578,-1.302 l 0.798,0.42 c -1.204,2.184 -1.904,4.732 -2.1,7.644 h -1.05 c -0.252,-1.204 -0.378,-2.73 -0.378,-4.578 -0.728,0.224 -1.638,0.336 -2.73,0.336 -1.092,0 -2.898,-0.112 -5.418,-0.336 -0.224,2.072 -0.336,5.25 -0.336,9.534 1.204,0.224 2.38,0.336 3.528,0.336 2.184,0 3.57,-0.602 4.158,-1.806 l 0.84,0.168 c -0.252,0.896 -0.378,1.967 -0.378,3.213 0,1.246 0.084,2.471 0.252,3.675 l -0.966,0.168 c -0.42,-1.064 -0.7,-2.31 -0.84,-3.738 -1.036,-0.084 -2.114,-0.126 -3.234,-0.126 -1.12,0 -2.24,0.07 -3.36,0.21 0.028,5.712 0.21,9.646 0.546,11.802 1.4,0.14 2.94,0.406 4.62,0.798 l -0.126,1.008 C 99.662,0.112 97.415,0 94.993,0 92.571,0 90.618,0.112 89.134,0.336 l -0.168,-1.05 c 1.26,-0.392 2.604,-0.686 4.032,-0.882 0.308,-2.296 0.462,-5.908 0.462,-10.836 v -2.478 c 0,-2.772 -0.168,-6.174 -0.504,-10.206 h -0.084 c -3.304,0 -5.418,0.448 -6.342,1.344 -0.196,0.392 -0.294,1.008 -0.294,1.848 0,0.84 0.14,1.414 0.42,1.722 l -0.042,0.294 c -0.7,0.42 -1.4,1.008 -2.1,1.764 -0.336,-0.028 -0.609,-0.168 -0.819,-0.42 -0.21,-0.252 -0.315,-0.546 -0.315,-0.882 0,-1.372 0.826,-3.01 2.478,-4.914 1.652,-1.904 3.192,-3.108 4.62,-3.612 1.96,0.084 4.249,0.252 6.867,0.504 2.618,0.252 4.613,0.378 5.985,0.378 m 7.476,5.292 9.66,-0.294 c 2.52,0 4.41,0.371 5.67,1.113 1.26,0.742 1.89,2.093 1.89,4.053 0,1.344 -0.413,2.534 -1.239,3.57 -0.826,1.036 -1.911,1.806 -3.255,2.31 l 4.704,9.618 c 0.952,0.168 1.848,0.364 2.688,0.588 l -0.168,1.134 C 129.58,0.098 128.257,0 126.787,0 c -1.47,0 -2.625,0.07 -3.465,0.21 l -0.168,-0.672 c 0.364,-0.364 0.546,-0.966 0.546,-1.806 0,-1.708 -0.98,-4.452 -2.94,-8.232 -0.588,-0.112 -1.274,-0.168 -2.058,-0.168 l 0.084,-1.218 h 0.42 c 3.304,0 4.956,-1.512 4.956,-4.536 0,-2.8 -1.414,-4.2 -4.242,-4.2 -0.952,0 -1.806,0.154 -2.562,0.462 -0.196,1.848 -0.294,5.012 -0.294,9.492 0,4.48 0.126,7.574 0.378,9.282 1.232,0.14 2.38,0.35 3.444,0.63 l -0.126,1.05 C 119.304,0.098 117.673,0 115.867,0 c -1.806,0 -3.423,0.112 -4.851,0.336 l -0.168,-1.092 c 0.784,-0.252 1.666,-0.462 2.646,-0.63 0.28,-2.1 0.42,-5.369 0.42,-9.807 0,-4.438 -0.126,-7.511 -0.378,-9.219 -1.092,-0.364 -2.002,-0.546 -2.73,-0.546 v -0.84 m 31.24,22.302 c -2.772,0 -5.012,-0.875 -6.72,-2.625 -1.708,-1.75 -2.562,-4.095 -2.562,-7.035 0,-2.94 0.896,-5.698 2.688,-8.274 1.792,-2.576 4.13,-4.228 7.014,-4.956 2.884,0 5.082,0.819 6.594,2.457 1.512,1.638 2.268,3.969 2.268,6.993 0,3.024 -0.819,5.754 -2.457,8.19 -1.638,2.436 -3.913,4.186 -6.825,5.25 m -0.714,-20.328 c -1.26,0 -2.352,0.35 -3.276,1.05 -1.148,1.96 -1.722,4.424 -1.722,7.392 0,3.416 0.952,6.034 2.856,7.854 1.008,0.98 2.198,1.47 3.57,1.47 1.372,0 2.478,-0.364 3.318,-1.092 1.12,-1.96 1.68,-4.354 1.68,-7.182 0,-2.828 -0.504,-5.117 -1.512,-6.867 -1.008,-1.75 -2.646,-2.625 -4.914,-2.625 M 164.928,0.294 C 163.472,0.098 161.841,0 160.035,0 c -1.806,0 -3.423,0.112 -4.851,0.336 l -0.168,-1.092 c 0.896,-0.28 1.736,-0.49 2.52,-0.63 0.252,-2.184 0.378,-5.04 0.378,-8.568 v -1.974 c 0,-3.752 -0.14,-6.636 -0.42,-8.652 -0.756,-0.084 -1.666,-0.308 -2.73,-0.672 l 0.126,-1.092 c 1.596,0.308 3.269,0.462 5.019,0.462 1.75,0 3.003,-0.098 3.759,-0.294 l 0.084,0.714 c -0.756,0.196 -1.134,0.518 -1.134,0.966 0,0.336 0.329,1.043 0.987,2.121 0.658,1.078 1.295,2.121 1.911,3.129 1.848,2.94 4.032,6.552 6.552,10.836 l 0.126,-0.084 v -5.124 c 0,-3.752 -0.196,-6.573 -0.588,-8.463 -0.392,-1.89 -1.064,-2.989 -2.016,-3.297 l 0.084,-0.714 c 0.728,0.14 1.82,0.21 3.276,0.21 1.456,0 2.954,-0.154 4.494,-0.462 l 0.126,1.092 c -1.148,0.364 -2.114,0.588 -2.898,0.672 -0.28,2.24 -0.42,5.124 -0.42,8.652 v 1.974 c 0,4.256 0.14,7.14 0.42,8.652 1.176,0.196 2.114,0.42 2.814,0.672 L 177.36,0.462 C 175.96,0.154 174.644,0 173.412,0 c -1.232,0 -2.184,0.056 -2.856,0.168 0,-0.616 -0.427,-1.652 -1.281,-3.108 -0.854,-1.456 -1.631,-2.744 -2.331,-3.864 -2.268,-3.668 -4.494,-7.392 -6.678,-11.172 l -0.168,0.084 v 5.628 c 0,5.572 0.42,9.198 1.26,10.878 1.26,0.14 2.492,0.35 3.696,0.63 l -0.126,1.05 m 29.612,-19.908 c -0.98,-0.476 -1.918,-0.714 -2.814,-0.714 -0.896,0 -1.498,0.056 -1.806,0.168 -0.224,1.512 -0.336,4.438 -0.336,8.778 0,4.34 0.154,7.672 0.462,9.996 1.26,0.14 2.422,0.35 3.486,0.63 l -0.126,1.05 C 191.95,0.098 190.277,0 188.387,0 c -1.89,0 -3.549,0.112 -4.977,0.336 l -0.168,-1.092 c 0.56,-0.168 1.526,-0.378 2.898,-0.63 0.252,-2.016 0.378,-4.872 0.378,-8.568 v -1.974 c 0,-1.96 -0.154,-4.704 -0.462,-8.232 -0.308,-0.112 -0.882,-0.168 -1.722,-0.168 -0.84,0 -1.736,0.196 -2.688,0.588 -0.28,0.868 -0.476,2.03 -0.588,3.486 h -1.092 c 0,-2.296 -0.378,-4.074 -1.134,-5.334 l 0.21,-0.714 c 2.156,0.28 5.18,0.42 9.072,0.42 3.892,0 7.028,-0.154 9.408,-0.462 l 0.252,0.798 c -0.7,0.784 -1.176,1.547 -1.428,2.289 -0.252,0.742 -0.406,1.743 -0.462,3.003 h -1.05 c -0.196,-0.924 -0.294,-2.044 -0.294,-3.36 m 10.86,-0.882 c -0.224,1.512 -0.336,4.606 -0.336,9.282 0,4.676 0.126,7.952 0.378,9.828 1.26,0.14 2.422,0.35 3.486,0.63 l -0.126,1.05 C 207.346,0.098 205.715,0 203.909,0 c -1.806,0 -3.423,0.112 -4.851,0.336 l -0.168,-1.092 c 0.784,-0.252 1.666,-0.462 2.646,-0.63 0.252,-2.016 0.378,-4.872 0.378,-8.568 v -1.974 c 0,-3.696 -0.14,-6.552 -0.42,-8.568 -0.98,-0.168 -1.862,-0.378 -2.646,-0.63 l 0.168,-1.092 c 1.428,0.224 3.045,0.336 4.851,0.336 1.806,0 3.437,-0.098 4.893,-0.294 l 0.126,1.05 c -1.064,0.28 -2.226,0.49 -3.486,0.63 m 10.102,10.122 c 0.084,2.492 0.546,4.438 1.386,5.838 0.84,1.4 2.268,2.1 4.284,2.1 2.016,0 3.878,-0.854 5.586,-2.562 l 0.588,0.588 c -1.876,2.38 -4.13,4.018 -6.762,4.914 -2.716,0 -4.844,-0.861 -6.384,-2.583 -1.54,-1.722 -2.31,-4.046 -2.31,-6.972 0,-2.926 0.91,-5.677 2.73,-8.253 1.82,-2.576 4.144,-4.27 6.972,-5.082 2.044,0 4.354,0.21 6.93,0.63 l -0.042,0.924 c -0.532,0 -1.036,0.098 -1.512,0.294 -0.532,1.26 -0.882,2.758 -1.05,4.494 h -1.05 c -0.224,-0.952 -0.336,-1.932 -0.336,-2.94 -1.064,-0.532 -2.324,-0.798 -3.78,-0.798 -1.456,0 -2.66,0.392 -3.612,1.176 -0.952,1.736 -1.498,3.808 -1.638,6.216 1.176,0.196 2.436,0.294 3.78,0.294 2.324,0 3.724,-0.49 4.2,-1.47 l 0.882,0.126 c -0.252,0.84 -0.378,1.666 -0.378,2.478 0,0.812 0.098,1.806 0.294,2.982 l -1.008,0.168 c -0.308,-0.84 -0.532,-1.708 -0.672,-2.604 -1.12,-0.112 -2.233,-0.168 -3.339,-0.168 -1.106,0 -2.359,0.07 -3.759,0.21 m 15.304,-11.424 9.66,-0.294 c 2.52,0 4.41,0.371 5.67,1.113 1.26,0.742 1.89,2.093 1.89,4.053 0,1.344 -0.413,2.534 -1.239,3.57 -0.826,1.036 -1.911,1.806 -3.255,2.31 l 4.704,9.618 c 0.952,0.168 1.848,0.364 2.688,0.588 l -0.168,1.134 C 249.58,0.098 248.257,0 246.787,0 c -1.47,0 -2.625,0.07 -3.465,0.21 l -0.168,-0.672 c 0.364,-0.364 0.546,-0.966 0.546,-1.806 0,-1.708 -0.98,-4.452 -2.94,-8.232 -0.588,-0.112 -1.274,-0.168 -2.058,-0.168 l 0.084,-1.218 h 0.42 c 3.304,0 4.956,-1.512 4.956,-4.536 0,-2.8 -1.414,-4.2 -4.242,-4.2 -0.952,0 -1.806,0.154 -2.562,0.462 -0.196,1.848 -0.294,5.012 -0.294,9.492 0,4.48 0.126,7.574 0.378,9.282 1.232,0.14 2.38,0.35 3.444,0.63 l -0.126,1.05 C 239.304,0.098 237.673,0 235.867,0 c -1.806,0 -3.423,0.112 -4.851,0.336 l -0.168,-1.092 c 0.784,-0.252 1.666,-0.462 2.646,-0.63 0.28,-2.1 0.42,-5.369 0.42,-9.807 0,-4.438 -0.126,-7.511 -0.378,-9.219 -1.092,-0.364 -2.002,-0.546 -2.73,-0.546 v -0.84"
       vector-effect="none"
       id="path3132" />
  </g>
</svg>
