<?xml version='1.0' encoding='UTF-8' standalone='no'?>
<svg height="209.973mm" width="296.926mm" viewBox="0 0 3507 2480" xmlns:xlink="http://www.w3.org/1999/xlink" xmlns:inkscape="http://www.inkscape.org/namespaces/inkscape" xmlns="http://www.w3.org/2000/svg" version="1.2" baseProfile="tiny">
 <defs/>
 <g stroke-linejoin="bevel" inkscape:label="Page" inkscape:groupmode="layer" fill="none" stroke="black" fill-rule="evenodd" stroke-width="1" stroke-linecap="square" id="Page">
  <g stroke-linejoin="bevel" transform="matrix(1,0,0,1,0,0)" font-weight="400" font-style="normal" fill="none" stroke="#000000" stroke-width="1" stroke-linecap="square" font-size="32.5" font-family="MS Shell Dlg 2" stroke-opacity="1"/>
  <g stroke-linejoin="bevel" transform="matrix(1,0,0,1,0,0)" font-weight="400" font-style="normal" fill="none" stroke="#000000" stroke-width="1" stroke-linecap="square" font-size="32.5" font-family="MS Shell Dlg 2" stroke-opacity="1"/>
  <g stroke-linejoin="bevel" transform="matrix(11.8081,0,0,11.8081,0,0)" font-weight="400" font-style="normal" fill="none" stroke="#000000" stroke-width="1" stroke-linecap="square" font-size="32.5" font-family="MS Shell Dlg 2" stroke-opacity="1"/>
  <g stroke-linejoin="bevel" transform="matrix(0.999751,0,0,0.999751,0,0)" font-weight="400" font-style="normal" fill="none" stroke="#000000" stroke-width="1" stroke-linecap="square" font-size="32.5" font-family="MS Shell Dlg 2" stroke-opacity="1"/>
  <g transform="matrix(0.999751,0,0,0.999751,0,0)" font-weight="400" font-style="normal" fill="#ffffff" stroke="none" fill-opacity="1" font-size="32.5" font-family="MS Shell Dlg 2">
   <path fill-rule="evenodd" d="M-2,-2 L3510,-2 L3510,2483 L-2,2483 L-2,-2" vector-effect="none"/>
  </g>
  <g stroke-linejoin="bevel" transform="matrix(0.999751,0,0,0.999751,0,0)" font-weight="400" font-style="normal" fill="none" stroke="#000000" stroke-width="1" stroke-linecap="square" font-size="32.5" font-family="MS Shell Dlg 2" stroke-opacity="1"/>
  <g stroke-linejoin="bevel" transform="matrix(11.8081,0,0,11.8081,0,0)" font-weight="400" font-style="normal" fill="none" stroke="#000000" stroke-width="1" stroke-linecap="square" font-size="32.5" font-family="MS Shell Dlg 2" stroke-opacity="1"/>
  <g stroke-linejoin="bevel" transform="matrix(11.8081,0,0,11.8081,0,0)" font-weight="400" font-style="normal" fill="none" stroke="#000000" stroke-width="1" stroke-linecap="square" font-size="32.5" font-family="MS Shell Dlg 2" stroke-opacity="1"/>
  <g stroke-linejoin="bevel" transform="matrix(1,0,0,1,0,0)" font-weight="400" font-style="normal" fill="none" stroke="#000000" stroke-width="1" stroke-linecap="square" font-size="32.5" font-family="MS Shell Dlg 2" stroke-opacity="1"/>
 </g>
 <defs/>
 <g stroke-linejoin="bevel" inkscape:label="Map 1: Background" inkscape:groupmode="layer" fill="none" stroke="black" fill-rule="evenodd" stroke-width="1" stroke-linecap="square" id="Map 1: Background">
  <g stroke-linejoin="bevel" transform="matrix(1,0,0,1,0,0)" font-weight="400" font-style="normal" fill="none" stroke="#000000" stroke-width="1" stroke-linecap="square" font-size="32.5" font-family="MS Shell Dlg 2" stroke-opacity="1"/>
  <g stroke-linejoin="bevel" transform="matrix(1,0,0,1,0,0)" font-weight="400" font-style="normal" fill="none" stroke="#000000" stroke-width="1" stroke-linecap="square" font-size="32.5" font-family="MS Shell Dlg 2" stroke-opacity="1"/>
  <g stroke-linejoin="bevel" transform="matrix(11.8081,0,0,11.8081,0,0)" font-weight="400" font-style="normal" fill="none" stroke="#000000" stroke-width="1" stroke-linecap="square" font-size="32.5" font-family="MS Shell Dlg 2" stroke-opacity="1"/>
  <g transform="matrix(11.8081,0,0,11.8081,0,0)" font-weight="400" font-style="normal" fill="#ffffff" stroke="none" fill-opacity="1" font-size="32.5" font-family="MS Shell Dlg 2">
   <path fill-rule="evenodd" d="M0,0 L297,0 L297,210 L0,210 L0,0" vector-effect="none"/>
  </g>
  <g stroke-linejoin="bevel" transform="matrix(11.8081,0,0,11.8081,0,0)" font-weight="400" font-style="normal" fill="none" stroke="#000000" stroke-width="1" stroke-linecap="square" font-size="32.5" font-family="MS Shell Dlg 2" stroke-opacity="1"/>
  <g stroke-linejoin="bevel" transform="matrix(11.8081,0,0,11.8081,0,0)" font-weight="400" font-style="normal" fill="none" stroke="#000000" stroke-width="1" stroke-linecap="square" font-size="32.5" font-family="MS Shell Dlg 2" stroke-opacity="1"/>
  <g stroke-linejoin="bevel" transform="matrix(11.8081,0,0,11.8081,0,0)" font-weight="400" font-style="normal" fill="none" stroke="#000000" stroke-width="1" stroke-linecap="square" font-size="32.5" font-family="MS Shell Dlg 2" stroke-opacity="1"/>
  <g stroke-linejoin="bevel" transform="matrix(11.8081,0,0,11.8081,0,0)" font-weight="400" font-style="normal" fill="none" stroke="#000000" stroke-width="1" stroke-linecap="square" font-size="32.5" font-family="MS Shell Dlg 2" stroke-opacity="1"/>
  <g stroke-linejoin="bevel" transform="matrix(1,0,0,1,0,0)" font-weight="400" font-style="normal" fill="none" stroke="#000000" stroke-width="1" stroke-linecap="square" font-size="32.5" font-family="MS Shell Dlg 2" stroke-opacity="1"/>
  <g stroke-linejoin="bevel" transform="matrix(11.8081,0,0,11.8081,0,0)" font-weight="400" font-style="normal" fill="none" stroke="#000000" stroke-width="1" stroke-linecap="square" font-size="32.5" font-family="MS Shell Dlg 2" stroke-opacity="1"/>
  <g stroke-linejoin="bevel" transform="matrix(11.8081,0,0,11.8081,0,0)" font-weight="400" font-style="normal" fill="none" stroke="#000000" stroke-width="1" stroke-linecap="square" font-size="32.5" font-family="MS Shell Dlg 2" stroke-opacity="1"/>
  <g stroke-linejoin="bevel" transform="matrix(1,0,0,1,0,0)" font-weight="400" font-style="normal" fill="none" stroke="#000000" stroke-width="1" stroke-linecap="square" font-size="32.5" font-family="MS Shell Dlg 2" stroke-opacity="1"/>
 </g>
 <defs/>
 <g stroke-linejoin="bevel" inkscape:label="Map 1: NightChasersProvinces" inkscape:groupmode="layer" fill="none" stroke="black" fill-rule="evenodd" stroke-width="1" stroke-linecap="square" id="Map 1: NightChasersProvinces">
  <g stroke-linejoin="bevel" transform="matrix(1,0,0,1,0,0)" font-weight="400" font-style="normal" fill="none" stroke="#000000" stroke-width="1" stroke-linecap="square" font-size="32.5" font-family="MS Shell Dlg 2" stroke-opacity="1"/>
  <g stroke-linejoin="bevel" transform="matrix(1,0,0,1,0,0)" font-weight="400" font-style="normal" fill="none" stroke="#000000" stroke-width="1" stroke-linecap="square" font-size="32.5" font-family="MS Shell Dlg 2" stroke-opacity="1"/>
  <g stroke-linejoin="bevel" transform="matrix(11.8081,0,0,11.8081,0,0)" font-weight="400" font-style="normal" fill="none" stroke="#000000" stroke-width="1" stroke-linecap="square" font-size="32.5" font-family="MS Shell Dlg 2" stroke-opacity="1"/>
  <g stroke-linejoin="bevel" transform="matrix(11.8081,0,0,11.8081,0,0)" font-weight="400" font-style="normal" fill="none" stroke="#000000" stroke-width="1" stroke-linecap="square" font-size="32.5" font-family="MS Shell Dlg 2" stroke-opacity="1"/>
  <g transform="matrix(0.999751,0,0,0.999751,0,0)" font-weight="400" font-style="normal" fill="#000000" stroke="none" fill-opacity="0" font-size="32.5" font-family="MS Shell Dlg 2">
   <rect height="2480" x="0" width="3508" y="0"/>
  </g>
  <g stroke-linejoin="bevel" transform="matrix(0.999751,0,0,0.999751,0,0)" font-weight="400" font-style="normal" fill="none" stroke="#000000" stroke-width="1" stroke-linecap="square" font-size="32.5" font-family="MS Shell Dlg 2" stroke-opacity="1"/>
  <g stroke-linejoin="bevel" transform="matrix(0.999751,0,0,0.999751,0,0)" font-weight="400" font-style="normal" fill="#24683b" stroke="#232323" fill-opacity="1" stroke-width="2.95276" stroke-linecap="square" font-size="32.5" font-family="MS Shell Dlg 2" stroke-opacity="1">
   <path fill-rule="evenodd" d="M1692.46,507.993 L1712.8,497.822 L1734.84,453.749 L1712.8,433.408 L1648.39,433.408 L1626.35,368.994 L1594.14,379.165 L1573.8,336.787 L1594.14,304.58 L1573.8,272.373 L1606.01,240.166 L1561.94,218.13 L1551.77,218.13 L1519.56,260.507 L1519.56,272.373 L1433.11,260.507 L1455.14,218.13 L1443.28,196.093 L1455.14,163.886 L1443.28,143.545 L1487.35,121.508 L1497.52,143.545 L1529.73,131.679 L1551.77,143.545 L1561.94,143.545 L1606.01,131.679 L1638.22,121.508 L1658.56,143.545 L1658.56,163.886 L1670.42,207.959 L1680.59,207.959 L1702.63,185.922 L1712.8,153.715 L1734.84,153.715 L1767.04,131.679 L1777.22,121.508 L1809.42,121.508 L1821.29,131.679 L1841.63,131.679 L1863.67,153.715 L1885.7,153.715 L1917.91,196.093 L1939.95,196.093 L1972.15,218.13 L1992.49,207.959 L2026.4,207.959 L2090.81,196.093 L2111.15,218.13 L2100.98,260.507 L2143.36,272.373 L2197.6,250.337 L2229.81,272.373 L2251.85,240.166 L2273.88,240.166 L2306.09,240.166 L2316.26,250.337 L2326.43,260.507 L2316.26,292.714 L2338.3,346.958 L2360.33,357.128 L2326.43,443.579 L2348.47,465.615 L2392.54,519.859 L2412.88,540.2 L2424.75,594.443 L2489.16,572.407 L2489.16,519.859 L2543.4,487.652 L2575.61,507.993 L2585.78,519.859 L2617.99,540.2 L2628.16,584.273 L2704.44,584.273 L2704.44,616.48 L2736.65,636.821 L2758.68,636.821 L2790.89,636.821 L2801.06,648.687 L2779.02,691.065 L2768.85,701.235 L2746.82,755.479 L2736.65,765.649 L2714.61,755.479 L2682.4,745.308 L2672.23,787.686 L2672.23,819.893 L2672.23,830.063 L2672.23,852.1 L2682.4,862.27 L2714.61,884.307 L2714.61,916.514 L2736.65,926.685 L2736.65,948.721 L2768.85,958.892 L2779.02,958.892 L2823.1,991.099 L2801.06,1035.17 L2758.68,1035.17 L2758.68,1023.31 L2714.61,1023.31 L2682.4,1035.17 L2682.4,1045.34 L2682.4,1089.41 L2682.4,1131.79 L2660.37,1141.96 L2650.2,1131.79 L2628.16,1141.96 L2607.82,1153.83 L2553.57,1164 L2543.4,1196.21 L2521.37,1196.21 L2489.16,1228.41 L2477.29,1228.41 L2456.95,1238.58 L2412.88,1196.21 L2412.88,1164 L2412.88,1153.83 L2370.5,1153.83 L2348.47,1109.76 L2338.3,1109.76 L2316.26,1089.41 L2284.05,1109.76 L2262.02,1089.41 L2262.02,1067.38 L2273.88,1057.21 L2273.88,1035.17 L2294.22,1023.31 L2294.22,991.099 L2284.05,980.928 L2284.05,916.514 L2348.47,916.514 L2348.47,906.343 L2360.33,852.1 L2338.3,830.063 L2360.33,797.856 L2294.22,755.479 L2306.09,723.272 L2294.22,713.101 L2241.67,713.101 L2229.81,691.065 L2251.85,648.687 L2219.64,616.48 L2175.57,648.687 L2143.36,626.65 L2133.19,584.273 L2090.81,572.407 L2090.81,540.2 L2026.4,519.859 L2004.36,519.859 L1982.32,519.859 L1982.32,530.029 L1950.12,562.236 L1907.74,562.236 L1885.7,507.993 L1863.67,519.859 L1831.46,540.2 L1831.46,552.066 L1831.46,648.687 L1809.42,648.687 L1789.08,626.65 L1767.04,572.407 L1734.84,584.273 L1692.46,552.066 L1692.46,507.993 M1734.84,250.337 L1724.67,260.507 L1745.01,292.714 L1724.67,336.787 L1658.56,324.921 L1638.22,368.994 L1712.8,411.372 L1734.84,357.128 L1789.08,357.128 L1789.08,368.994 L1821.29,379.165 L1853.49,357.128 L1895.87,357.128 L1875.53,314.751 L1853.49,304.58 L1831.46,260.507 L1809.42,250.337 L1756.87,218.13 L1734.84,250.337 M1895.87,433.408 L1972.15,421.542 L1982.32,401.201 L1950.12,368.994 L1895.87,357.128 L1895.87,433.408" vector-effect="none"/>
   <path fill-rule="evenodd" d="M1724.67,1884.42 L1692.46,1862.38 L1702.63,1797.97 L1702.63,1787.8 L1712.8,1723.39 L1767.04,1723.39 L1809.42,1723.39 L1821.29,1658.97 L1853.49,1647.11 L1863.67,1604.73 L1831.46,1592.86 L1821.29,1550.48 L1831.46,1540.31 L1895.87,1550.48 L1907.74,1540.31 L1907.74,1528.45 L1917.91,1496.24 L1895.87,1431.83 L1907.74,1421.66 L1972.15,1464.03 L1982.32,1464.03 L2026.4,1464.03 L2036.57,1421.66 L2036.57,1399.62 L2068.77,1379.28 L2068.77,1357.24 L2090.81,1357.24 L2111.15,1335.21 L2133.19,1379.28 L2165.39,1379.28 L2165.39,1367.41 L2155.22,1325.03 L2143.36,1325.03 L2155.22,1282.66 L2197.6,1282.66 L2209.47,1250.45 L2229.81,1238.58 L2294.22,1260.62 L2306.09,1218.24 L2338.3,1196.21 L2380.67,1218.24 L2380.67,1238.58 L2360.33,1270.79 L2402.71,1303 L2380.67,1335.21 L2360.33,1357.24 L2348.47,1367.41 L2316.26,1399.62 L2306.09,1399.62 L2273.88,1421.66 L2262.02,1431.83 L2229.81,1443.69 L2219.64,1453.86 L2187.43,1464.03 L2175.57,1464.03 L2155.22,1475.9 L2155.22,1496.24 L2165.39,1518.28 L2209.47,1518.28 L2219.64,1528.45 L2219.64,1572.52 L2219.64,1614.9 L2219.64,1625.07 L2251.85,1658.97 L2262.02,1658.97 L2284.05,1625.07 L2262.02,1604.73 L2273.88,1572.52 L2262.02,1560.65 L2273.88,1540.31 L2273.88,1528.45 L2284.05,1496.24 L2294.22,1475.9 L2326.43,1475.9 L2360.33,1486.07 L2370.5,1486.07 L2392.54,1496.24 L2412.88,1508.11 L2424.75,1508.11 L2456.95,1528.45 L2456.95,1550.48 L2434.92,1592.86 L2392.54,1582.69 L2370.5,1614.9 L2370.5,1636.93 L2392.54,1658.97 L2392.54,1691.18 L2380.67,1711.52 L2380.67,1755.59 L2370.5,1765.76 L2338.3,1765.76 L2316.26,1787.8 L2294.22,1787.8 L2284.05,1797.97 L2251.85,1820.01 L2229.81,1830.18 L2219.64,1872.55 L2197.6,1894.59 L2197.6,1916.63 L2219.64,1926.8 L2219.64,1969.18 L2229.81,1981.04 L2229.81,2013.25 L2241.67,2013.25 L2241.67,2055.63 L2219.64,2065.8 L2219.64,2077.66 L2241.67,2109.87 L2241.67,2120.04 L2197.6,2142.08 L2197.6,2152.25 L2155.22,2142.08 L2133.19,2130.21 L2123.02,2130.21 L2100.98,2120.04 L2068.77,2120.04 L2046.74,2109.87 L2014.53,2120.04 L1992.49,2109.87 L1972.15,2109.87 L1939.95,2109.87 L1928.08,2109.87 L1885.7,2045.46 L1853.49,2065.8 L1831.46,2065.8 L1821.29,2055.63 L1841.63,1959.01 L1767.04,2013.25 L1756.87,1991.21 L1777.22,1926.8 L1767.04,1916.63 L1756.87,1884.42 L1724.67,1884.42 M2143.36,1582.69 L2090.81,1604.73 L2100.98,1636.93 L2143.36,1647.11 L2155.22,1647.11 L2155.22,1625.07 L2143.36,1582.69" vector-effect="none"/>
   <path fill-rule="evenodd" d="M1390.73,519.859 L1368.69,453.749 L1326.32,453.749 L1326.32,497.822 L1292.41,519.859 L1260.21,519.859 L1250.04,507.993 L1272.07,443.579 L1239.87,411.372 L1260.21,379.165 L1250.04,357.128 L1250.04,324.921 L1239.87,314.751 L1228,292.714 L1228,260.507 L1250.04,240.166 L1272.07,240.166 L1292.41,272.373 L1304.28,272.373 L1314.45,240.166 L1368.69,240.166 L1368.69,250.337 L1336.49,304.58 L1336.49,314.751 L1326.32,379.165 L1390.73,389.335 L1400.9,389.335 L1443.28,379.165 L1455.14,389.335 L1487.35,389.335 L1497.52,401.201 L1583.97,401.201 L1583.97,443.579 L1638.22,443.579 L1658.56,507.993 L1616.18,519.859 L1583.97,530.029 L1519.56,519.859 L1509.39,497.822 L1487.35,497.822 L1433.11,487.652 L1390.73,519.859" vector-effect="none"/>
   <path fill-rule="evenodd" d="M2445.09,1314.86 L2477.29,1303 L2509.5,1303 L2553.57,1335.21 L2521.37,1367.41 L2489.16,1367.41 L2477.29,1357.24 L2467.12,1367.41 L2424.75,1357.24 L2445.09,1314.86" vector-effect="none"/>
  </g>
  <g stroke-linejoin="bevel" transform="matrix(0.999751,0,0,0.999751,0,0)" font-weight="400" font-style="normal" fill="none" stroke="#000000" stroke-width="1" stroke-linecap="square" font-size="32.5" font-family="MS Shell Dlg 2" stroke-opacity="1"/>
  <g stroke-linejoin="bevel" transform="matrix(11.8081,0,0,11.8081,0,0)" font-weight="400" font-style="normal" fill="none" stroke="#000000" stroke-width="1" stroke-linecap="square" font-size="32.5" font-family="MS Shell Dlg 2" stroke-opacity="1"/>
  <g stroke-linejoin="bevel" transform="matrix(11.8081,0,0,11.8081,0,0)" font-weight="400" font-style="normal" fill="none" stroke="#000000" stroke-width="1" stroke-linecap="square" font-size="32.5" font-family="MS Shell Dlg 2" stroke-opacity="1"/>
  <g stroke-linejoin="bevel" transform="matrix(11.8081,0,0,11.8081,0,0)" font-weight="400" font-style="normal" fill="none" stroke="#000000" stroke-width="1" stroke-linecap="square" font-size="32.5" font-family="MS Shell Dlg 2" stroke-opacity="1"/>
  <g stroke-linejoin="bevel" transform="matrix(1,0,0,1,0,0)" font-weight="400" font-style="normal" fill="none" stroke="#000000" stroke-width="1" stroke-linecap="square" font-size="32.5" font-family="MS Shell Dlg 2" stroke-opacity="1"/>
  <g stroke-linejoin="bevel" transform="matrix(11.8081,0,0,11.8081,0,0)" font-weight="400" font-style="normal" fill="none" stroke="#000000" stroke-width="1" stroke-linecap="square" font-size="32.5" font-family="MS Shell Dlg 2" stroke-opacity="1"/>
  <g stroke-linejoin="bevel" transform="matrix(11.8081,0,0,11.8081,0,0)" font-weight="400" font-style="normal" fill="none" stroke="#000000" stroke-width="1" stroke-linecap="square" font-size="32.5" font-family="MS Shell Dlg 2" stroke-opacity="1"/>
  <g stroke-linejoin="bevel" transform="matrix(1,0,0,1,0,0)" font-weight="400" font-style="normal" fill="none" stroke="#000000" stroke-width="1" stroke-linecap="square" font-size="32.5" font-family="MS Shell Dlg 2" stroke-opacity="1"/>
 </g>
</svg>
