<?xml version='1.0' encoding='UTF-8' standalone='no'?>
<svg height="209.973mm" width="296.926mm" viewBox="0 0 3507 2480" xmlns:xlink="http://www.w3.org/1999/xlink" xmlns:inkscape="http://www.inkscape.org/namespaces/inkscape" xmlns="http://www.w3.org/2000/svg" version="1.2" baseProfile="tiny">
 <defs/>
 <g stroke-linejoin="bevel" inkscape:label="Page" inkscape:groupmode="layer" fill="none" stroke="black" fill-rule="evenodd" stroke-width="1" stroke-linecap="square" id="Page">
  <g stroke-linejoin="bevel" transform="matrix(1,0,0,1,0,0)" font-weight="400" font-style="normal" fill="none" stroke="#000000" stroke-width="1" stroke-linecap="square" font-size="32.5" font-family="MS Shell Dlg 2" stroke-opacity="1"/>
  <g stroke-linejoin="bevel" transform="matrix(1,0,0,1,0,0)" font-weight="400" font-style="normal" fill="none" stroke="#000000" stroke-width="1" stroke-linecap="square" font-size="32.5" font-family="MS Shell Dlg 2" stroke-opacity="1"/>
  <g stroke-linejoin="bevel" transform="matrix(11.8081,0,0,11.8081,0,0)" font-weight="400" font-style="normal" fill="none" stroke="#000000" stroke-width="1" stroke-linecap="square" font-size="32.5" font-family="MS Shell Dlg 2" stroke-opacity="1"/>
  <g stroke-linejoin="bevel" transform="matrix(0.999751,0,0,0.999751,0,0)" font-weight="400" font-style="normal" fill="none" stroke="#000000" stroke-width="1" stroke-linecap="square" font-size="32.5" font-family="MS Shell Dlg 2" stroke-opacity="1"/>
  <g transform="matrix(0.999751,0,0,0.999751,0,0)" font-weight="400" font-style="normal" fill="#ffffff" stroke="none" fill-opacity="1" font-size="32.5" font-family="MS Shell Dlg 2">
   <path fill-rule="evenodd" d="M-2,-2 L3510,-2 L3510,2483 L-2,2483 L-2,-2" vector-effect="none"/>
  </g>
  <g stroke-linejoin="bevel" transform="matrix(0.999751,0,0,0.999751,0,0)" font-weight="400" font-style="normal" fill="none" stroke="#000000" stroke-width="1" stroke-linecap="square" font-size="32.5" font-family="MS Shell Dlg 2" stroke-opacity="1"/>
  <g stroke-linejoin="bevel" transform="matrix(11.8081,0,0,11.8081,0,0)" font-weight="400" font-style="normal" fill="none" stroke="#000000" stroke-width="1" stroke-linecap="square" font-size="32.5" font-family="MS Shell Dlg 2" stroke-opacity="1"/>
  <g stroke-linejoin="bevel" transform="matrix(11.8081,0,0,11.8081,0,0)" font-weight="400" font-style="normal" fill="none" stroke="#000000" stroke-width="1" stroke-linecap="square" font-size="32.5" font-family="MS Shell Dlg 2" stroke-opacity="1"/>
  <g stroke-linejoin="bevel" transform="matrix(1,0,0,1,0,0)" font-weight="400" font-style="normal" fill="none" stroke="#000000" stroke-width="1" stroke-linecap="square" font-size="32.5" font-family="MS Shell Dlg 2" stroke-opacity="1"/>
 </g>
 <defs/>
 <g stroke-linejoin="bevel" inkscape:label="Map 1: Background" inkscape:groupmode="layer" fill="none" stroke="black" fill-rule="evenodd" stroke-width="1" stroke-linecap="square" id="Map 1: Background">
  <g stroke-linejoin="bevel" transform="matrix(1,0,0,1,0,0)" font-weight="400" font-style="normal" fill="none" stroke="#000000" stroke-width="1" stroke-linecap="square" font-size="32.5" font-family="MS Shell Dlg 2" stroke-opacity="1"/>
  <g stroke-linejoin="bevel" transform="matrix(1,0,0,1,0,0)" font-weight="400" font-style="normal" fill="none" stroke="#000000" stroke-width="1" stroke-linecap="square" font-size="32.5" font-family="MS Shell Dlg 2" stroke-opacity="1"/>
  <g stroke-linejoin="bevel" transform="matrix(11.8081,0,0,11.8081,0,0)" font-weight="400" font-style="normal" fill="none" stroke="#000000" stroke-width="1" stroke-linecap="square" font-size="32.5" font-family="MS Shell Dlg 2" stroke-opacity="1"/>
  <g transform="matrix(11.8081,0,0,11.8081,0,0)" font-weight="400" font-style="normal" fill="#ffffff" stroke="none" fill-opacity="1" font-size="32.5" font-family="MS Shell Dlg 2">
   <path fill-rule="evenodd" d="M0,0 L297,0 L297,210 L0,210 L0,0" vector-effect="none"/>
  </g>
  <g stroke-linejoin="bevel" transform="matrix(11.8081,0,0,11.8081,0,0)" font-weight="400" font-style="normal" fill="none" stroke="#000000" stroke-width="1" stroke-linecap="square" font-size="32.5" font-family="MS Shell Dlg 2" stroke-opacity="1"/>
  <g stroke-linejoin="bevel" transform="matrix(11.8081,0,0,11.8081,0,0)" font-weight="400" font-style="normal" fill="none" stroke="#000000" stroke-width="1" stroke-linecap="square" font-size="32.5" font-family="MS Shell Dlg 2" stroke-opacity="1"/>
  <g stroke-linejoin="bevel" transform="matrix(11.8081,0,0,11.8081,0,0)" font-weight="400" font-style="normal" fill="none" stroke="#000000" stroke-width="1" stroke-linecap="square" font-size="32.5" font-family="MS Shell Dlg 2" stroke-opacity="1"/>
  <g stroke-linejoin="bevel" transform="matrix(11.8081,0,0,11.8081,0,0)" font-weight="400" font-style="normal" fill="none" stroke="#000000" stroke-width="1" stroke-linecap="square" font-size="32.5" font-family="MS Shell Dlg 2" stroke-opacity="1"/>
  <g stroke-linejoin="bevel" transform="matrix(1,0,0,1,0,0)" font-weight="400" font-style="normal" fill="none" stroke="#000000" stroke-width="1" stroke-linecap="square" font-size="32.5" font-family="MS Shell Dlg 2" stroke-opacity="1"/>
  <g stroke-linejoin="bevel" transform="matrix(11.8081,0,0,11.8081,0,0)" font-weight="400" font-style="normal" fill="none" stroke="#000000" stroke-width="1" stroke-linecap="square" font-size="32.5" font-family="MS Shell Dlg 2" stroke-opacity="1"/>
  <g stroke-linejoin="bevel" transform="matrix(11.8081,0,0,11.8081,0,0)" font-weight="400" font-style="normal" fill="none" stroke="#000000" stroke-width="1" stroke-linecap="square" font-size="32.5" font-family="MS Shell Dlg 2" stroke-opacity="1"/>
  <g stroke-linejoin="bevel" transform="matrix(1,0,0,1,0,0)" font-weight="400" font-style="normal" fill="none" stroke="#000000" stroke-width="1" stroke-linecap="square" font-size="32.5" font-family="MS Shell Dlg 2" stroke-opacity="1"/>
 </g>
 <defs/>
 <g stroke-linejoin="bevel" inkscape:label="Map 1: NightChasersLand" inkscape:groupmode="layer" fill="none" stroke="black" fill-rule="evenodd" stroke-width="1" stroke-linecap="square" id="Map 1: NightChasersLand">
  <g stroke-linejoin="bevel" transform="matrix(1,0,0,1,0,0)" font-weight="400" font-style="normal" fill="none" stroke="#000000" stroke-width="1" stroke-linecap="square" font-size="32.5" font-family="MS Shell Dlg 2" stroke-opacity="1"/>
  <g stroke-linejoin="bevel" transform="matrix(1,0,0,1,0,0)" font-weight="400" font-style="normal" fill="none" stroke="#000000" stroke-width="1" stroke-linecap="square" font-size="32.5" font-family="MS Shell Dlg 2" stroke-opacity="1"/>
  <g stroke-linejoin="bevel" transform="matrix(11.8081,0,0,11.8081,0,0)" font-weight="400" font-style="normal" fill="none" stroke="#000000" stroke-width="1" stroke-linecap="square" font-size="32.5" font-family="MS Shell Dlg 2" stroke-opacity="1"/>
  <g stroke-linejoin="bevel" transform="matrix(11.8081,0,0,11.8081,0,0)" font-weight="400" font-style="normal" fill="none" stroke="#000000" stroke-width="1" stroke-linecap="square" font-size="32.5" font-family="MS Shell Dlg 2" stroke-opacity="1"/>
  <g transform="matrix(0.999751,0,0,0.999751,0,0)" font-weight="400" font-style="normal" fill="#000000" stroke="none" fill-opacity="0" font-size="32.5" font-family="MS Shell Dlg 2">
   <rect height="2480" x="0" width="3508" y="0"/>
  </g>
  <g stroke-linejoin="bevel" transform="matrix(0.999751,0,0,0.999751,0,0)" font-weight="400" font-style="normal" fill="none" stroke="#000000" stroke-width="1" stroke-linecap="square" font-size="32.5" font-family="MS Shell Dlg 2" stroke-opacity="1"/>
  <g stroke-linejoin="bevel" transform="matrix(0.999751,0,0,0.999751,0,0)" font-weight="400" font-style="normal" fill="#c2a766" stroke="#232323" fill-opacity="1" stroke-width="5.90551" stroke-linecap="square" font-size="32.5" font-family="MS Shell Dlg 2" stroke-opacity="1">
   <path fill-rule="evenodd" d="M1066.96,2023.42 L1077.14,2001.38 L1077.14,1959.01 L1077.14,1926.8 L1099.17,1916.63 L1109.34,1904.76 L1121.21,1872.55 L1163.59,1872.55 L1185.62,1884.42 L1195.79,1884.42 L1239.87,1884.42 L1250.04,1916.63 L1260.21,1926.8 L1272.07,1926.8 L1304.28,1936.97 L1336.49,1936.97 L1346.66,1948.83 L1346.66,1969.18 L1378.86,1981.04 L1400.9,1969.18 L1400.9,1936.97 L1400.9,1926.8 L1390.73,1904.76 L1346.66,1894.59 L1346.66,1872.55 L1336.49,1872.55 L1326.32,1872.55 L1304.28,1852.21 L1282.24,1852.21 L1260.21,1820.01 L1272.07,1808.14 L1260.21,1775.93 L1239.87,1775.93 L1260.21,1733.56 L1292.41,1755.59 L1304.28,1755.59 L1314.45,1755.59 L1304.28,1691.18 L1304.28,1679.31 L1336.49,1679.31 L1368.69,1679.31 L1390.73,1701.35 L1422.94,1679.31 L1443.28,1691.18 L1465.32,1679.31 L1475.49,1691.18 L1497.52,1679.31 L1509.39,1647.11 L1541.6,1625.07 L1541.6,1614.9 L1551.77,1604.73 L1573.8,1592.86 L1594.14,1572.52 L1594.14,1550.48 L1638.22,1528.45 L1626.35,1496.24 L1606.01,1486.07 L1594.14,1475.9 L1626.35,1421.66 L1616.18,1399.62 L1594.14,1389.45 L1583.97,1357.24 L1583.97,1325.03 L1573.8,1303 L1583.97,1282.66 L1594.14,1250.45 L1529.73,1218.24 L1519.56,1186.04 L1519.56,1174.17 L1519.56,1131.79 L1443.28,1099.59 L1443.28,1045.34 L1443.28,1035.17 L1390.73,1023.31 L1368.69,1023.31 L1368.69,970.757 L1304.28,958.892 L1304.28,906.343 L1260.21,884.307 L1239.87,841.929 L1195.79,841.929 L1163.59,809.722 L1121.21,819.893 L1109.34,787.686 L1099.17,765.649 L1066.96,765.649 L1056.79,713.101 L1024.59,701.235 L980.514,723.272 L938.137,680.894 L938.137,648.687 L905.93,636.821 L894.064,594.443 L861.857,572.407 L809.309,594.443 L819.479,540.2 L787.272,507.993 L829.65,453.749 L775.406,443.579 L775.406,401.201 L733.029,379.165 L733.029,346.958 L743.199,324.921 L743.199,292.714 L809.309,260.507 L809.309,240.166 L797.443,218.13 L775.406,207.959 L743.199,185.922 L743.199,163.886 L775.406,143.545 L743.199,121.508 L743.199,99.472 L722.858,79.1307 L743.199,35.0579 L775.406,57.0943 L775.406,89.3013 L787.272,89.3013 L797.443,121.508 L819.479,121.508 L829.65,111.338 L861.857,121.508 L883.893,143.545 L905.93,143.545 L916.1,153.715 L938.137,153.715 L948.307,163.886 L1002.55,185.922 L1012.72,175.752 L1024.59,185.922 L1044.93,207.959 L1077.14,218.13 L1089,228.3 L1099.17,240.166 L1121.21,228.3 L1141.55,207.959 L1153.42,207.959 L1175.45,185.922 L1175.45,175.752 L1207.66,196.093 L1217.83,196.093 L1239.87,207.959 L1250.04,240.166 L1272.07,240.166 L1292.41,272.373 L1304.28,272.373 L1314.45,240.166 L1368.69,240.166 L1368.69,250.337 L1390.73,250.337 L1422.94,272.373 L1433.11,272.373 L1433.11,260.507 L1455.14,218.13 L1443.28,196.093 L1455.14,163.886 L1443.28,143.545 L1487.35,121.508 L1497.52,143.545 L1529.73,131.679 L1551.77,143.545 L1561.94,143.545 L1606.01,131.679 L1638.22,121.508 L1658.56,143.545 L1658.56,163.886 L1670.42,207.959 L1680.59,207.959 L1702.63,185.922 L1712.8,153.715 L1734.84,153.715 L1767.04,131.679 L1777.22,121.508 L1809.42,121.508 L1821.29,131.679 L1841.63,131.679 L1863.67,153.715 L1885.7,153.715 L1895.87,131.679 L1917.91,121.508 L1928.08,121.508 L1960.29,99.472 L1960.29,89.3013 L2004.36,79.1307 L2026.4,99.472 L2046.74,111.338 L2058.6,121.508 L2068.77,131.679 L2078.94,121.508 L2123.02,131.679 L2143.36,121.508 L2165.39,121.508 L2197.6,111.338 L2219.64,153.715 L2197.6,175.752 L2209.47,196.093 L2229.81,196.093 L2262.02,163.886 L2284.05,163.886 L2306.09,163.886 L2316.26,185.922 L2348.47,196.093 L2360.33,196.093 L2392.54,207.959 L2402.71,196.093 L2434.92,185.922 L2499.33,163.886 L2521.37,185.922 L2531.54,196.093 L2531.54,207.959 L2531.54,218.13 L2531.54,260.507 L2543.4,272.373 L2575.61,282.544 L2595.95,240.166 L2640.02,250.337 L2650.2,272.373 L2692.57,260.507 L2704.44,272.373 L2726.48,260.507 L2746.82,272.373 L2758.68,282.544 L2768.85,324.921 L2779.02,336.787 L2779.02,346.958 L2790.89,357.128 L2790.89,368.994 L2811.23,379.165 L2843.44,379.165 L2855.3,357.128 L2875.64,357.128 L2887.51,368.994 L2897.68,389.335 L2929.89,389.335 L2951.92,411.372 L2962.1,411.372 L2994.3,433.408 L3006.17,433.408 L3016.34,411.372 L3016.34,389.335 L2973.96,379.165 L2973.96,346.958 L2994.3,336.787 L3016.34,346.958 L3038.38,336.787 L3080.75,368.994 L3102.79,357.128 L3102.79,346.958 L3102.79,336.787 L3124.83,314.751 L3167.2,336.787 L3167.2,357.128 L3189.24,368.994 L3189.24,389.335 L3199.41,401.201 L3231.62,443.579 L3243.48,443.579 L3275.69,433.408 L3285.86,433.408 L3307.9,433.408 L3318.07,433.408 L3340.1,475.786 L3340.1,497.822 L3296.03,497.822 L3285.86,497.822 L3253.65,497.822 L3243.48,497.822 L3231.62,507.993 L3199.41,487.652 L3199.41,475.786 L3157.03,453.749 L3135,487.652 L3124.83,487.652 L3124.83,507.993 L3124.83,552.066 L3135,552.066 L3124.83,594.443 L3135,604.614 L3135,626.65 L3145.17,648.687 L3135,691.065 L3102.79,691.065 L3092.62,680.894 L3080.75,658.858 L3070.58,648.687 L3038.38,648.687 L3026.51,648.687 L2994.3,658.858 L2984.13,648.687 L2973.96,658.858 L2951.92,680.894 L2941.75,713.101 L2962.1,723.272 L2994.3,723.272 L3026.51,723.272 L3048.55,723.272 L3060.41,755.479 L3070.58,765.649 L3092.62,787.686 L3102.79,787.686 L3124.83,819.893 L3112.96,841.929 L3092.62,852.1 L3060.41,819.893 L3048.55,819.893 L3026.51,841.929 L3016.34,830.063 L2973.96,852.1 L2962.1,841.929 L2929.89,841.929 L2909.55,830.063 L2887.51,874.136 L2875.64,874.136 L2865.47,894.477 L2843.44,906.343 L2790.89,884.307 L2790.89,862.27 L2779.02,830.063 L2811.23,797.856 L2801.06,765.649 L2790.89,765.649 L2779.02,765.649 L2746.82,755.479 L2736.65,765.649 L2714.61,755.479 L2682.4,745.308 L2672.23,787.686 L2672.23,819.893 L2672.23,830.063 L2672.23,852.1 L2682.4,862.27 L2714.61,884.307 L2714.61,916.514 L2736.65,926.685 L2736.65,948.721 L2768.85,958.892 L2779.02,958.892 L2823.1,991.099 L2801.06,1035.17 L2758.68,1035.17 L2758.68,1023.31 L2714.61,1023.31 L2682.4,1035.17 L2682.4,1045.34 L2682.4,1089.41 L2682.4,1131.79 L2660.37,1141.96 L2650.2,1131.79 L2628.16,1141.96 L2607.82,1153.83 L2553.57,1164 L2543.4,1196.21 L2521.37,1196.21 L2489.16,1228.41 L2477.29,1228.41 L2456.95,1238.58 L2412.88,1260.62 L2402.71,1292.83 L2402.71,1303 L2380.67,1335.21 L2360.33,1357.24 L2348.47,1367.41 L2316.26,1399.62 L2306.09,1399.62 L2273.88,1421.66 L2262.02,1431.83 L2229.81,1443.69 L2219.64,1453.86 L2187.43,1464.03 L2175.57,1464.03 L2155.22,1475.9 L2155.22,1496.24 L2165.39,1518.28 L2209.47,1518.28 L2219.64,1528.45 L2219.64,1572.52 L2219.64,1614.9 L2219.64,1625.07 L2251.85,1658.97 L2262.02,1658.97 L2284.05,1625.07 L2262.02,1604.73 L2273.88,1572.52 L2262.02,1560.65 L2273.88,1540.31 L2273.88,1528.45 L2284.05,1496.24 L2294.22,1475.9 L2326.43,1475.9 L2360.33,1486.07 L2370.5,1486.07 L2392.54,1496.24 L2412.88,1508.11 L2424.75,1508.11 L2456.95,1528.45 L2456.95,1550.48 L2489.16,1560.65 L2499.33,1592.86 L2489.16,1614.9 L2456.95,1614.9 L2434.92,1592.86 L2392.54,1582.69 L2370.5,1614.9 L2370.5,1636.93 L2392.54,1658.97 L2392.54,1691.18 L2424.75,1701.35 L2412.88,1743.73 L2402.71,1755.59 L2380.67,1755.59 L2370.5,1765.76 L2338.3,1765.76 L2316.26,1787.8 L2294.22,1787.8 L2284.05,1797.97 L2251.85,1820.01 L2229.81,1830.18 L2219.64,1872.55 L2197.6,1894.59 L2197.6,1916.63 L2219.64,1926.8 L2219.64,1969.18 L2229.81,1981.04 L2229.81,2013.25 L2241.67,2013.25 L2241.67,2055.63 L2219.64,2065.8 L2219.64,2077.66 L2241.67,2109.87 L2273.88,2098 L2284.05,2087.83 L2284.05,2055.63 L2284.05,2045.46 L2284.05,2001.38 L2294.22,2001.38 L2284.05,1981.04 L2316.26,1959.01 L2338.3,1916.63 L2360.33,1926.8 L2380.67,1916.63 L2402.71,1916.63 L2412.88,1916.63 L2424.75,1894.59 L2434.92,1884.42 L2456.95,1862.38 L2477.29,1862.38 L2489.16,1862.38 L2489.16,1884.42 L2489.16,1904.76 L2521.37,1936.97 L2521.37,1969.18 L2499.33,1981.04 L2489.16,2001.38 L2509.5,2045.46 L2477.29,2065.8 L2445.09,2065.8 L2434.92,2077.66 L2424.75,2087.83 L2424.75,2098 L2434.92,2109.87 L2467.12,2130.21 L2509.5,2120.04 L2521.37,2120.04 L2531.54,2142.08 L2531.54,2152.25 L2499.33,2194.63 L2477.29,2194.63 L2456.95,2216.66 L2434.92,2206.49 L2412.88,2238.7 L2392.54,2238.7 L2370.5,2216.66 L2360.33,2216.66 L2326.43,2174.28 L2306.09,2174.28 L2273.88,2216.66 L2284.05,2238.7 L2306.09,2248.87 L2326.43,2248.87 L2348.47,2303.11 L2338.3,2313.28 L2294.22,2313.28 L2284.05,2303.11 L2251.85,2292.94 L2229.81,2303.11 L2197.6,2292.94 L2187.43,2303.11 L2165.39,2292.94 L2143.36,2270.9 L2165.39,2238.7 L2175.57,2238.7 L2175.57,2226.83 L2209.47,2216.66 L2209.47,2206.49 L2241.67,2184.45 L2241.67,2174.28 L2197.6,2152.25 L2155.22,2142.08 L2133.19,2130.21 L2123.02,2130.21 L2100.98,2120.04 L2068.77,2120.04 L2046.74,2109.87 L2014.53,2120.04 L1992.49,2109.87 L1972.15,2109.87 L1939.95,2109.87 L1928.08,2109.87 L1917.91,2120.04 L1895.87,2120.04 L1885.7,2130.21 L1863.67,2142.08 L1841.63,2174.28 L1831.46,2174.28 L1809.42,2206.49 L1767.04,2194.63 L1767.04,2184.45 L1724.67,2184.45 L1712.8,2152.25 L1724.67,2130.21 L1724.67,2120.04 L1702.63,2109.87 L1658.56,2130.21 L1658.56,2152.25 L1648.39,2174.28 L1626.35,2174.28 L1616.18,2184.45 L1573.8,2184.45 L1551.77,2174.28 L1519.56,2194.63 L1509.39,2206.49 L1497.52,2216.66 L1475.49,2238.7 L1433.11,2226.83 L1433.11,2206.49 L1455.14,2194.63 L1443.28,2184.45 L1465.32,2162.42 L1455.14,2142.08 L1443.28,2120.04 L1422.94,2130.21 L1411.07,2130.21 L1358.52,2130.21 L1336.49,2130.21 L1314.45,2120.04 L1336.49,2065.8 L1368.69,2077.66 L1378.86,2065.8 L1368.69,2033.59 L1314.45,2023.42 L1314.45,2033.59 L1282.24,2055.63 L1260.21,2045.46 L1250.04,2055.63 L1239.87,2109.87 L1228,2120.04 L1207.66,2120.04 L1163.59,2120.04 L1141.55,2098 L1109.34,2065.8 L1066.96,2023.42 M2026.4,1238.58 L2036.57,1250.45 L2068.77,1270.79 L2090.81,1292.83 L2090.81,1303 L2111.15,1325.03 L2143.36,1325.03 L2155.22,1282.66 L2133.19,1270.79 L2143.36,1250.45 L2165.39,1228.41 L2165.39,1206.38 L2187.43,1186.04 L2187.43,1174.17 L2209.47,1131.79 L2209.47,1121.62 L2187.43,1099.59 L2175.57,1099.59 L2143.36,1109.76 L2133.19,1109.76 L2123.02,1109.76 L2100.98,1131.79 L2090.81,1174.17 L2100.98,1186.04 L2090.81,1228.41 L2036.57,1206.38 L2026.4,1238.58 M2026.4,1389.45 L1982.32,1411.49 L1972.15,1464.03 L1982.32,1464.03 L2026.4,1464.03 L2036.57,1421.66 L2036.57,1399.62 L2026.4,1389.45 M2143.36,1647.11 L2155.22,1647.11 L2155.22,1625.07 L2143.36,1582.69 L2090.81,1604.73 L2100.98,1636.93 L2143.36,1647.11 M2294.22,1131.79 L2316.26,1131.79 L2338.3,1109.76 L2316.26,1089.41 L2284.05,1109.76 L2294.22,1131.79" vector-effect="none"/>
   <path fill-rule="evenodd" d="M2984.13,2045.46 L2994.3,2023.42 L3006.17,2001.38 L3016.34,1991.21 L3016.34,1948.83 L3038.38,1948.83 L3060.41,1948.83 L3070.58,1948.83 L3092.62,1948.83 L3112.96,1936.97 L3145.17,1959.01 L3135,1981.04 L3124.83,2013.25 L3135,2023.42 L3124.83,2055.63 L3124.83,2065.8 L3124.83,2109.87 L3135,2120.04 L3145.17,2120.04 L3167.2,2109.87 L3177.37,2077.66 L3209.58,2065.8 L3231.62,2077.66 L3231.62,2098 L3231.62,2130.21 L3221.45,2130.21 L3243.48,2184.45 L3231.62,2206.49 L3177.37,2194.63 L3167.2,2184.45 L3135,2184.45 L3112.96,2174.28 L3070.58,2184.45 L3048.55,2184.45 L3026.51,2184.45 L3016.34,2184.45 L2984.13,2174.28 L2973.96,2206.49 L2941.75,2194.63 L2929.89,2184.45 L2951.92,2152.25 L2973.96,2142.08 L2994.3,2120.04 L2994.3,2087.83 L2984.13,2055.63 L2984.13,2045.46" vector-effect="none"/>
   <path fill-rule="evenodd" d="M2929.89,240.166 L2962.1,207.959 L2962.1,196.093 L2973.96,207.959 L3026.51,196.093 L3026.51,185.922 L3092.62,196.093 L3080.75,218.13 L3092.62,240.166 L3092.62,250.337 L3092.62,272.373 L3070.58,304.58 L3060.41,304.58 L3038.38,282.544 L3006.17,282.544 L2994.3,260.507 L2951.92,272.373 L2941.75,260.507 L2929.89,240.166" vector-effect="none"/>
   <path fill-rule="evenodd" d="M2897.68,2001.38 L2919.72,2013.25 L2909.55,2033.59 L2887.51,2055.63 L2865.47,2065.8 L2843.44,2077.66 L2833.27,2065.8 L2790.89,2065.8 L2790.89,2055.63 L2758.68,2077.66 L2726.48,2033.59 L2736.65,2023.42 L2758.68,2013.25 L2779.02,2023.42 L2823.1,2001.38 L2855.3,1991.21 L2897.68,2001.38" vector-effect="none"/>
   <path fill-rule="evenodd" d="M2477.29,1303 L2509.5,1303 L2553.57,1335.21 L2521.37,1367.41 L2489.16,1367.41 L2477.29,1357.24 L2467.12,1367.41 L2424.75,1357.24 L2445.09,1314.86 L2477.29,1303" vector-effect="none"/>
   <path fill-rule="evenodd" d="M1002.55,2270.9 L1002.55,2248.87 L1044.93,2226.83 L1066.96,2260.73 L1056.79,2292.94 L1012.72,2303.11 L1002.55,2270.9" vector-effect="none"/>
   <path fill-rule="evenodd" d="M2338.3,1840.35 L2392.54,1808.14 L2402.71,1820.01 L2412.88,1840.35 L2402.71,1862.38 L2370.5,1872.55 L2348.47,1862.38 L2338.3,1852.21 L2338.3,1840.35" vector-effect="none"/>
   <path fill-rule="evenodd" d="M2779.02,2120.04 L2843.44,2087.83 L2811.23,2152.25 L2779.02,2142.08 L2768.85,2120.04 L2779.02,2120.04" vector-effect="none"/>
   <path fill-rule="evenodd" d="M1411.07,2325.15 L1390.73,2313.28 L1378.86,2270.9 L1390.73,2248.87 L1411.07,2248.87 L1433.11,2292.94 L1411.07,2325.15" vector-effect="none"/>
   <path fill-rule="evenodd" d="M2843.44,2226.83 L2855.3,2281.08 L2811.23,2281.08 L2801.06,2238.7 L2823.1,2226.83 L2843.44,2226.83" vector-effect="none"/>
   <path fill-rule="evenodd" d="M3372.31,2377.7 L3350.27,2389.56 L3328.24,2389.56 L3318.07,2357.36 L3328.24,2345.49 L3372.31,2345.49 L3382.48,2345.49 L3372.31,2377.7" vector-effect="none"/>
  </g>
  <g stroke-linejoin="bevel" transform="matrix(0.999751,0,0,0.999751,0,0)" font-weight="400" font-style="normal" fill="none" stroke="#000000" stroke-width="1" stroke-linecap="square" font-size="32.5" font-family="MS Shell Dlg 2" stroke-opacity="1"/>
  <g stroke-linejoin="bevel" transform="matrix(11.8081,0,0,11.8081,0,0)" font-weight="400" font-style="normal" fill="none" stroke="#000000" stroke-width="1" stroke-linecap="square" font-size="32.5" font-family="MS Shell Dlg 2" stroke-opacity="1"/>
  <g stroke-linejoin="bevel" transform="matrix(11.8081,0,0,11.8081,0,0)" font-weight="400" font-style="normal" fill="none" stroke="#000000" stroke-width="1" stroke-linecap="square" font-size="32.5" font-family="MS Shell Dlg 2" stroke-opacity="1"/>
  <g stroke-linejoin="bevel" transform="matrix(11.8081,0,0,11.8081,0,0)" font-weight="400" font-style="normal" fill="none" stroke="#000000" stroke-width="1" stroke-linecap="square" font-size="32.5" font-family="MS Shell Dlg 2" stroke-opacity="1"/>
  <g stroke-linejoin="bevel" transform="matrix(1,0,0,1,0,0)" font-weight="400" font-style="normal" fill="none" stroke="#000000" stroke-width="1" stroke-linecap="square" font-size="32.5" font-family="MS Shell Dlg 2" stroke-opacity="1"/>
  <g stroke-linejoin="bevel" transform="matrix(11.8081,0,0,11.8081,0,0)" font-weight="400" font-style="normal" fill="none" stroke="#000000" stroke-width="1" stroke-linecap="square" font-size="32.5" font-family="MS Shell Dlg 2" stroke-opacity="1"/>
  <g stroke-linejoin="bevel" transform="matrix(11.8081,0,0,11.8081,0,0)" font-weight="400" font-style="normal" fill="none" stroke="#000000" stroke-width="1" stroke-linecap="square" font-size="32.5" font-family="MS Shell Dlg 2" stroke-opacity="1"/>
  <g stroke-linejoin="bevel" transform="matrix(1,0,0,1,0,0)" font-weight="400" font-style="normal" fill="none" stroke="#000000" stroke-width="1" stroke-linecap="square" font-size="32.5" font-family="MS Shell Dlg 2" stroke-opacity="1"/>
 </g>
 <defs/>
 <g stroke-linejoin="bevel" inkscape:label="Map 1: NightChasersLand (Labels)" inkscape:groupmode="layer" fill="none" stroke="black" fill-rule="evenodd" stroke-width="1" stroke-linecap="square" id="Map 1: NightChasersLand (Labels)">
  <g stroke-linejoin="bevel" transform="matrix(1,0,0,1,0,0)" font-weight="400" font-style="normal" fill="none" stroke="#000000" stroke-width="1" stroke-linecap="square" font-size="32.5" font-family="MS Shell Dlg 2" stroke-opacity="1"/>
  <g stroke-linejoin="bevel" transform="matrix(1,0,0,1,0,0)" font-weight="400" font-style="normal" fill="none" stroke="#000000" stroke-width="1" stroke-linecap="square" font-size="32.5" font-family="MS Shell Dlg 2" stroke-opacity="1"/>
  <g stroke-linejoin="bevel" transform="matrix(11.8081,0,0,11.8081,0,0)" font-weight="400" font-style="normal" fill="none" stroke="#000000" stroke-width="1" stroke-linecap="square" font-size="32.5" font-family="MS Shell Dlg 2" stroke-opacity="1"/>
  <g stroke-linejoin="bevel" transform="matrix(11.8081,0,0,11.8081,0,0)" font-weight="400" font-style="normal" fill="none" stroke="#000000" stroke-width="1" stroke-linecap="square" font-size="32.5" font-family="MS Shell Dlg 2" stroke-opacity="1"/>
  <g transform="matrix(0.999751,0,0,0.999751,0,0)" font-weight="400" font-style="normal" fill="#000000" stroke="none" fill-opacity="0" font-size="32.5" font-family="MS Shell Dlg 2">
   <rect height="2480" x="0" width="3508" y="0"/>
  </g>
  <g stroke-linejoin="bevel" transform="matrix(0.999751,0,0,0.999751,0,0)" font-weight="400" font-style="normal" fill="none" stroke="#000000" stroke-width="1" stroke-linecap="square" font-size="32.5" font-family="MS Shell Dlg 2" stroke-opacity="1"/>
  <g stroke-linejoin="bevel" transform="matrix(0.3999,0,0,0.3999,1805.55,1009.92)" font-weight="400" font-style="normal" fill="none" stroke="#000000" stroke-width="1" stroke-linecap="square" font-size="32.5" font-family="MS Shell Dlg 2" stroke-opacity="1"/>
  <g transform="matrix(0.999751,0,0,0.999751,1805.55,1009.92)" font-weight="400" font-style="normal" fill="#323232" stroke="none" fill-opacity="1" font-size="32.5" font-family="MS Shell Dlg 2">
   <path fill-rule="nonzero" d="M21.966,-12.432 C21.966,-17.22 21.756,-20.727 21.336,-22.953 C20.916,-25.179 20.118,-26.502 18.942,-26.922 L19.11,-27.51 C19.978,-27.398 21.392,-27.342 23.352,-27.342 C25.312,-27.342 27.118,-27.454 28.77,-27.678 L28.896,-26.712 C26.908,-26.236 25.522,-25.956 24.738,-25.872 C24.374,-23.128 24.192,-19.474 24.192,-14.91 L24.192,-12.432 C24.192,-7.196 24.374,-3.542 24.738,-1.47 C26.166,-1.302 27.51,-1.05 28.77,-0.714 L28.602,0.336 C27.118,0.112 25.627,0 24.129,0 C22.631,0 21.42,0.042 20.496,0.126 C20.496,-0.798 19.586,-2.856 17.766,-6.048 C15.946,-9.24 12.642,-14.574 7.854,-22.05 L7.686,-21.966 L7.686,-14.91 C7.686,-8.05 8.204,-3.57 9.24,-1.47 C10.78,-1.33 12.306,-1.064 13.818,-0.672 L13.734,0.336 C11.662,0.112 9.415,0 6.993,0 C4.571,0 2.618,0.112 1.134,0.336 L0.966,-0.714 C2.226,-1.106 3.57,-1.4 4.998,-1.596 C5.306,-3.892 5.46,-7.504 5.46,-12.432 L5.46,-14.91 C5.46,-18.858 5.292,-22.232 4.956,-25.032 C1.652,-25.032 -0.462,-24.584 -1.386,-23.688 C-1.582,-23.296 -1.68,-22.68 -1.68,-21.84 C-1.68,-21 -1.54,-20.426 -1.26,-20.118 L-1.302,-19.824 C-2.002,-19.404 -2.702,-18.816 -3.402,-18.06 C-3.738,-18.088 -4.011,-18.228 -4.221,-18.48 C-4.431,-18.732 -4.536,-19.026 -4.536,-19.362 C-4.536,-20.734 -3.71,-22.372 -2.058,-24.276 C-0.406,-26.18 1.134,-27.384 2.562,-27.888 C2.898,-27.86 3.843,-27.762 5.397,-27.594 C6.951,-27.426 8.232,-27.342 9.24,-27.342 C10.248,-27.342 11.186,-27.426 12.054,-27.594 L12.222,-26.544 C11.074,-26.068 10.5,-25.606 10.5,-25.158 C10.64,-24.402 11.438,-22.813 12.894,-20.391 C14.35,-17.969 17.318,-13.272 21.798,-6.3 L21.966,-6.384 L21.966,-12.432 M38.4,-20.496 C38.176,-18.984 38.064,-15.89 38.064,-11.214 C38.064,-6.538 38.19,-3.262 38.442,-1.386 C39.702,-1.246 40.864,-1.036 41.928,-0.756 L41.802,0.294 C40.346,0.098 38.715,0 36.909,0 C35.103,0 33.486,0.112 32.058,0.336 L31.89,-0.756 C32.674,-1.008 33.556,-1.218 34.536,-1.386 C34.788,-3.402 34.914,-6.258 34.914,-9.954 L34.914,-11.928 C34.914,-15.624 34.774,-18.48 34.494,-20.496 C33.514,-20.664 32.632,-20.874 31.848,-21.126 L32.016,-22.218 C33.444,-21.994 35.061,-21.882 36.867,-21.882 C38.673,-21.882 40.304,-21.98 41.76,-22.176 L41.886,-21.126 C40.822,-20.846 39.66,-20.636 38.4,-20.496 M54.298,-2.436 C55.502,-2.436 56.692,-2.786 57.868,-3.486 L57.658,-7.98 C56.874,-8.232 55.922,-8.456 54.802,-8.652 L54.928,-9.534 C55.6,-9.478 56.09,-9.45 56.398,-9.45 C58.33,-9.45 60.08,-9.968 61.648,-11.004 L62.068,-10.248 C61.732,-9.94 61.424,-9.618 61.144,-9.282 C60.752,-5.474 60.5,-2.338 60.388,0.126 L59.506,0.126 C59.282,-0.91 58.946,-1.764 58.498,-2.436 C56.874,-1.008 55.236,-0.028 53.584,0.504 C50.868,0.504 48.74,-0.357 47.2,-2.079 C45.66,-3.801 44.89,-6.125 44.89,-9.051 C44.89,-11.977 45.8,-14.728 47.62,-17.304 C49.44,-19.88 51.764,-21.574 54.592,-22.386 C56.636,-22.386 58.946,-22.176 61.522,-21.756 L61.48,-20.832 C60.948,-20.832 60.444,-20.734 59.968,-20.538 C59.436,-19.278 59.086,-17.78 58.918,-16.044 L57.868,-16.044 C57.644,-16.996 57.532,-17.976 57.532,-18.984 C56.468,-19.516 55.208,-19.782 53.752,-19.782 C52.296,-19.782 51.092,-19.39 50.14,-18.606 C49.02,-16.562 48.46,-14.147 48.46,-11.361 C48.46,-8.575 48.873,-6.391 49.699,-4.809 C50.525,-3.227 52.058,-2.436 54.298,-2.436 M79.078,-22.218 C80.506,-21.994 82.123,-21.882 83.929,-21.882 C85.735,-21.882 87.366,-21.98 88.822,-22.176 L88.948,-21.126 C87.884,-20.846 86.722,-20.636 85.462,-20.496 C85.182,-18.76 85.042,-15.904 85.042,-11.928 L85.042,-9.954 C85.042,-5.922 85.182,-3.066 85.462,-1.386 C86.722,-1.246 87.884,-1.036 88.948,-0.756 L88.822,0.294 C87.366,0.098 85.735,0 83.929,0 C82.123,0 80.506,0.112 79.078,0.336 L78.91,-0.756 C79.694,-1.008 80.576,-1.218 81.556,-1.386 C81.78,-4.55 81.906,-7.714 81.934,-10.878 C80.142,-11.046 78.49,-11.13 76.978,-11.13 C75.466,-11.13 73.828,-11.046 72.064,-10.878 C72.064,-6.258 72.19,-3.094 72.442,-1.386 C73.702,-1.246 74.864,-1.036 75.928,-0.756 L75.802,0.294 C74.346,0.098 72.715,0 70.909,0 C69.103,0 67.486,0.112 66.058,0.336 L65.89,-0.756 C66.674,-1.008 67.556,-1.218 68.536,-1.386 C68.788,-3.402 68.914,-6.258 68.914,-9.954 L68.914,-11.928 C68.914,-15.624 68.774,-18.48 68.494,-20.496 C67.514,-20.664 66.632,-20.874 65.848,-21.126 L66.016,-22.218 C67.444,-21.994 69.061,-21.882 70.867,-21.882 C72.673,-21.882 74.304,-21.98 75.76,-22.176 L75.886,-21.126 C74.822,-20.846 73.66,-20.636 72.4,-20.496 C72.176,-18.872 72.064,-16.366 72.064,-12.978 C73.632,-12.754 75.319,-12.642 77.125,-12.642 C78.931,-12.642 80.534,-12.74 81.934,-12.936 C81.906,-15.316 81.78,-17.836 81.556,-20.496 C80.576,-20.664 79.694,-20.874 78.91,-21.126 L79.078,-22.218 M105.54,-19.614 C104.56,-20.09 103.622,-20.328 102.726,-20.328 C101.83,-20.328 101.228,-20.272 100.92,-20.16 C100.696,-18.648 100.584,-15.722 100.584,-11.382 C100.584,-7.042 100.738,-3.71 101.046,-1.386 C102.306,-1.246 103.468,-1.036 104.532,-0.756 L104.406,0.294 C102.95,0.098 101.277,0 99.387,0 C97.497,0 95.838,0.112 94.41,0.336 L94.242,-0.756 C94.802,-0.924 95.768,-1.134 97.14,-1.386 C97.392,-3.402 97.518,-6.258 97.518,-9.954 L97.518,-11.928 C97.518,-13.888 97.364,-16.632 97.056,-20.16 C96.748,-20.272 96.174,-20.328 95.334,-20.328 C94.494,-20.328 93.598,-20.132 92.646,-19.74 C92.366,-18.872 92.17,-17.71 92.058,-16.254 L90.966,-16.254 C90.966,-18.55 90.588,-20.328 89.832,-21.588 L90.042,-22.302 C92.198,-22.022 95.222,-21.882 99.114,-21.882 C103.006,-21.882 106.142,-22.036 108.522,-22.344 L108.774,-21.546 C108.074,-20.762 107.598,-19.999 107.346,-19.257 C107.094,-18.515 106.94,-17.514 106.884,-16.254 L105.834,-16.254 C105.638,-17.178 105.54,-18.298 105.54,-19.614 M123.476,-1.47 C123.98,-0.63 124.687,0.063 125.597,0.609 C126.507,1.155 127.571,1.428 128.789,1.428 C130.007,1.428 131.239,1.071 132.485,0.357 C133.731,-0.357 134.774,-1.246 135.614,-2.31 L136.202,-1.722 C134.158,1.47 131.386,3.654 127.886,4.83 C125.478,4.83 123.504,4.214 121.964,2.982 C120.424,1.75 119.339,0.168 118.709,-1.764 C118.079,-3.696 117.764,-6.076 117.764,-8.904 C117.764,-11.732 118.121,-14.413 118.835,-16.947 C119.549,-19.481 120.788,-21.763 122.552,-23.793 C124.316,-25.823 126.514,-27.216 129.146,-27.972 C131.974,-27.972 134.858,-27.706 137.798,-27.174 L137.756,-26.25 C137.028,-26.25 136.356,-26.124 135.74,-25.872 C135.04,-24.22 134.578,-22.246 134.354,-19.95 L133.304,-19.95 C133.052,-21.266 132.926,-22.526 132.926,-23.73 C131.442,-24.542 129.811,-24.948 128.033,-24.948 C126.255,-24.948 124.792,-24.416 123.644,-23.352 C122.216,-20.468 121.502,-16.758 121.502,-12.222 C121.502,-7.154 122.16,-3.57 123.476,-1.47 M152.078,-22.218 C153.506,-21.994 155.123,-21.882 156.929,-21.882 C158.735,-21.882 160.366,-21.98 161.822,-22.176 L161.948,-21.126 C160.884,-20.846 159.722,-20.636 158.462,-20.496 C158.182,-18.76 158.042,-15.904 158.042,-11.928 L158.042,-9.954 C158.042,-5.922 158.182,-3.066 158.462,-1.386 C159.722,-1.246 160.884,-1.036 161.948,-0.756 L161.822,0.294 C160.366,0.098 158.735,0 156.929,0 C155.123,0 153.506,0.112 152.078,0.336 L151.91,-0.756 C152.694,-1.008 153.576,-1.218 154.556,-1.386 C154.78,-4.55 154.906,-7.714 154.934,-10.878 C153.142,-11.046 151.49,-11.13 149.978,-11.13 C148.466,-11.13 146.828,-11.046 145.064,-10.878 C145.064,-6.258 145.19,-3.094 145.442,-1.386 C146.702,-1.246 147.864,-1.036 148.928,-0.756 L148.802,0.294 C147.346,0.098 145.715,0 143.909,0 C142.103,0 140.486,0.112 139.058,0.336 L138.89,-0.756 C139.674,-1.008 140.556,-1.218 141.536,-1.386 C141.788,-3.402 141.914,-6.258 141.914,-9.954 L141.914,-11.928 C141.914,-15.624 141.774,-18.48 141.494,-20.496 C140.514,-20.664 139.632,-20.874 138.848,-21.126 L139.016,-22.218 C140.444,-21.994 142.061,-21.882 143.867,-21.882 C145.673,-21.882 147.304,-21.98 148.76,-22.176 L148.886,-21.126 C147.822,-20.846 146.66,-20.636 145.4,-20.496 C145.176,-18.872 145.064,-16.366 145.064,-12.978 C146.632,-12.754 148.319,-12.642 150.125,-12.642 C151.931,-12.642 153.534,-12.74 154.934,-12.936 C154.906,-15.316 154.78,-17.836 154.556,-20.496 C153.576,-20.664 152.694,-20.874 151.91,-21.126 L152.078,-22.218 M167.536,-22.344 C170.168,-22.036 172.828,-21.882 175.516,-21.882 C178.204,-21.882 180.85,-22.036 183.454,-22.344 L183.622,-21.252 C182.782,-20.916 181.914,-20.664 181.018,-20.496 C180.71,-18.2 180.556,-15.008 180.556,-10.92 C180.556,-6.832 180.71,-3.64 181.018,-1.344 C181.578,-1.26 182.614,-1.05 184.126,-0.714 L183.958,0.336 C182.614,0.112 180.892,0 178.792,0 C176.692,0 175.082,0.112 173.962,0.336 L173.794,-0.756 C174.746,-1.064 175.824,-1.288 177.028,-1.428 C177.196,-3.052 177.322,-5.306 177.406,-8.19 C176.09,-8.33 174.774,-8.4 173.458,-8.4 C172.142,-8.4 170.994,-8.33 170.014,-8.19 C169.454,-5.894 169.174,-4.298 169.174,-3.402 C169.174,-2.03 169.664,-1.064 170.644,-0.504 L170.476,0.21 C169.832,0.07 168.614,0 166.822,0 C165.03,0 163.616,0.112 162.58,0.336 L162.412,-0.756 C163.084,-1.008 164.008,-1.232 165.184,-1.428 L170.644,-20.58 C169.412,-20.776 168.334,-21 167.41,-21.252 L167.536,-22.344 M170.35,-10.164 C171.442,-9.996 172.653,-9.912 173.983,-9.912 C175.313,-9.912 176.454,-9.996 177.406,-10.164 C177.406,-15.344 177.294,-18.69 177.07,-20.202 C176.118,-20.258 175.411,-20.286 174.949,-20.286 C174.487,-20.286 173.78,-20.258 172.828,-20.202 L170.35,-10.164 M189.662,-3.192 C190.95,-2.66 192.224,-2.394 193.484,-2.394 C194.744,-2.394 195.752,-2.688 196.508,-3.276 C197.264,-3.864 197.642,-4.704 197.642,-5.796 C197.642,-6.916 196.06,-8.302 192.896,-9.954 C191.692,-10.57 190.593,-11.319 189.599,-12.201 C188.605,-13.083 188.108,-13.958 188.108,-14.826 C188.108,-16.31 188.892,-17.808 190.46,-19.32 C192.028,-20.832 193.638,-21.854 195.29,-22.386 C197.362,-22.386 199.238,-22.176 200.918,-21.756 L200.918,-21 C199.742,-19.824 199.084,-18.214 198.944,-16.17 L197.894,-16.17 C197.894,-16.954 197.824,-17.934 197.684,-19.11 C196.704,-19.558 195.654,-19.782 194.534,-19.782 C193.414,-19.782 192.483,-19.537 191.741,-19.047 C190.999,-18.557 190.628,-17.85 190.628,-16.926 C190.628,-16.282 191.125,-15.582 192.119,-14.826 C193.113,-14.07 194.198,-13.398 195.374,-12.81 C196.55,-12.222 197.635,-11.494 198.629,-10.626 C199.623,-9.758 200.12,-8.89 200.12,-8.022 C200.12,-6.342 199.378,-4.669 197.894,-3.003 C196.41,-1.337 194.772,-0.168 192.98,0.504 C191.216,0.504 189.564,0.294 188.024,-0.126 C187.576,0.07 187.114,0.392 186.638,0.84 L185.882,0.294 C187.45,-1.414 188.318,-3.528 188.486,-6.048 L189.536,-6.048 C189.536,-5.068 189.578,-4.116 189.662,-3.192 M208.502,-10.374 C208.586,-7.882 209.048,-5.936 209.888,-4.536 C210.728,-3.136 212.156,-2.436 214.172,-2.436 C216.188,-2.436 218.05,-3.29 219.758,-4.998 L220.346,-4.41 C218.47,-2.03 216.216,-0.392 213.584,0.504 C210.868,0.504 208.74,-0.357 207.2,-2.079 C205.66,-3.801 204.89,-6.125 204.89,-9.051 C204.89,-11.977 205.8,-14.728 207.62,-17.304 C209.44,-19.88 211.764,-21.574 214.592,-22.386 C216.636,-22.386 218.946,-22.176 221.522,-21.756 L221.48,-20.832 C220.948,-20.832 220.444,-20.734 219.968,-20.538 C219.436,-19.278 219.086,-17.78 218.918,-16.044 L217.868,-16.044 C217.644,-16.996 217.532,-17.976 217.532,-18.984 C216.468,-19.516 215.208,-19.782 213.752,-19.782 C212.296,-19.782 211.092,-19.39 210.14,-18.606 C209.188,-16.87 208.642,-14.798 208.502,-12.39 C209.678,-12.194 210.938,-12.096 212.282,-12.096 C214.606,-12.096 216.006,-12.586 216.482,-13.566 L217.364,-13.44 C217.112,-12.6 216.986,-11.774 216.986,-10.962 C216.986,-10.15 217.084,-9.156 217.28,-7.98 L216.272,-7.812 C215.964,-8.652 215.74,-9.52 215.6,-10.416 C214.48,-10.528 213.367,-10.584 212.261,-10.584 C211.155,-10.584 209.902,-10.514 208.502,-10.374 M223.806,-21.798 L233.466,-22.092 C235.986,-22.092 237.876,-21.721 239.136,-20.979 C240.396,-20.237 241.026,-18.886 241.026,-16.926 C241.026,-15.582 240.613,-14.392 239.787,-13.356 C238.961,-12.32 237.876,-11.55 236.532,-11.046 L241.236,-1.428 C242.188,-1.26 243.084,-1.064 243.924,-0.84 L243.756,0.294 C242.58,0.098 241.257,0 239.787,0 C238.317,0 237.162,0.07 236.322,0.21 L236.154,-0.462 C236.518,-0.826 236.7,-1.428 236.7,-2.268 C236.7,-3.976 235.72,-6.72 233.76,-10.5 C233.172,-10.612 232.486,-10.668 231.702,-10.668 L231.786,-11.886 L232.206,-11.886 C235.51,-11.886 237.162,-13.398 237.162,-16.422 C237.162,-19.222 235.748,-20.622 232.92,-20.622 C231.968,-20.622 231.114,-20.468 230.358,-20.16 C230.162,-18.312 230.064,-15.148 230.064,-10.668 C230.064,-6.188 230.19,-3.094 230.442,-1.386 C231.674,-1.246 232.822,-1.036 233.886,-0.756 L233.76,0.294 C232.304,0.098 230.673,0 228.867,0 C227.061,0 225.444,0.112 224.016,0.336 L223.848,-0.756 C224.632,-1.008 225.514,-1.218 226.494,-1.386 C226.774,-3.486 226.914,-6.755 226.914,-11.193 C226.914,-15.631 226.788,-18.704 226.536,-20.412 C225.444,-20.776 224.534,-20.958 223.806,-20.958 L223.806,-21.798 M248.662,-3.192 C249.95,-2.66 251.224,-2.394 252.484,-2.394 C253.744,-2.394 254.752,-2.688 255.508,-3.276 C256.264,-3.864 256.642,-4.704 256.642,-5.796 C256.642,-6.916 255.06,-8.302 251.896,-9.954 C250.692,-10.57 249.593,-11.319 248.599,-12.201 C247.605,-13.083 247.108,-13.958 247.108,-14.826 C247.108,-16.31 247.892,-17.808 249.46,-19.32 C251.028,-20.832 252.638,-21.854 254.29,-22.386 C256.362,-22.386 258.238,-22.176 259.918,-21.756 L259.918,-21 C258.742,-19.824 258.084,-18.214 257.944,-16.17 L256.894,-16.17 C256.894,-16.954 256.824,-17.934 256.684,-19.11 C255.704,-19.558 254.654,-19.782 253.534,-19.782 C252.414,-19.782 251.483,-19.537 250.741,-19.047 C249.999,-18.557 249.628,-17.85 249.628,-16.926 C249.628,-16.282 250.125,-15.582 251.119,-14.826 C252.113,-14.07 253.198,-13.398 254.374,-12.81 C255.55,-12.222 256.635,-11.494 257.629,-10.626 C258.623,-9.758 259.12,-8.89 259.12,-8.022 C259.12,-6.342 258.378,-4.669 256.894,-3.003 C255.41,-1.337 253.772,-0.168 251.98,0.504 C250.216,0.504 248.564,0.294 247.024,-0.126 C246.576,0.07 246.114,0.392 245.638,0.84 L244.882,0.294 C246.45,-1.414 247.318,-3.528 247.486,-6.048 L248.536,-6.048 C248.536,-5.068 248.578,-4.116 248.662,-3.192 " vector-effect="none"/>
  </g>
  <g stroke-linejoin="bevel" transform="matrix(0.3999,0,0,0.3999,1805.55,1009.92)" font-weight="400" font-style="normal" fill="none" stroke="#000000" stroke-width="1" stroke-linecap="square" font-size="32.5" font-family="MS Shell Dlg 2" stroke-opacity="1"/>
  <g stroke-linejoin="bevel" transform="matrix(0.999751,0,0,0.999751,0,0)" font-weight="400" font-style="normal" fill="none" stroke="#000000" stroke-width="1" stroke-linecap="square" font-size="32.5" font-family="MS Shell Dlg 2" stroke-opacity="1"/>
  <g stroke-linejoin="bevel" transform="matrix(11.8081,0,0,11.8081,0,0)" font-weight="400" font-style="normal" fill="none" stroke="#000000" stroke-width="1" stroke-linecap="square" font-size="32.5" font-family="MS Shell Dlg 2" stroke-opacity="1"/>
  <g stroke-linejoin="bevel" transform="matrix(11.8081,0,0,11.8081,0,0)" font-weight="400" font-style="normal" fill="none" stroke="#000000" stroke-width="1" stroke-linecap="square" font-size="32.5" font-family="MS Shell Dlg 2" stroke-opacity="1"/>
  <g stroke-linejoin="bevel" transform="matrix(11.8081,0,0,11.8081,0,0)" font-weight="400" font-style="normal" fill="none" stroke="#000000" stroke-width="1" stroke-linecap="square" font-size="32.5" font-family="MS Shell Dlg 2" stroke-opacity="1"/>
  <g stroke-linejoin="bevel" transform="matrix(1,0,0,1,0,0)" font-weight="400" font-style="normal" fill="none" stroke="#000000" stroke-width="1" stroke-linecap="square" font-size="32.5" font-family="MS Shell Dlg 2" stroke-opacity="1"/>
  <g stroke-linejoin="bevel" transform="matrix(11.8081,0,0,11.8081,0,0)" font-weight="400" font-style="normal" fill="none" stroke="#000000" stroke-width="1" stroke-linecap="square" font-size="32.5" font-family="MS Shell Dlg 2" stroke-opacity="1"/>
  <g stroke-linejoin="bevel" transform="matrix(11.8081,0,0,11.8081,0,0)" font-weight="400" font-style="normal" fill="none" stroke="#000000" stroke-width="1" stroke-linecap="square" font-size="32.5" font-family="MS Shell Dlg 2" stroke-opacity="1"/>
  <g stroke-linejoin="bevel" transform="matrix(1,0,0,1,0,0)" font-weight="400" font-style="normal" fill="none" stroke="#000000" stroke-width="1" stroke-linecap="square" font-size="32.5" font-family="MS Shell Dlg 2" stroke-opacity="1"/>
 </g>
</svg>
