<?xml version='1.0' encoding='UTF-8' standalone='no'?>
<svg height="209.973mm" width="296.926mm" viewBox="0 0 3507 2480" xmlns:xlink="http://www.w3.org/1999/xlink" xmlns:inkscape="http://www.inkscape.org/namespaces/inkscape" xmlns="http://www.w3.org/2000/svg" version="1.2" baseProfile="tiny">
 <defs/>
 <g stroke-linejoin="bevel" inkscape:label="Page" inkscape:groupmode="layer" fill="none" stroke="black" fill-rule="evenodd" stroke-width="1" stroke-linecap="square" id="Page">
  <g stroke-linejoin="bevel" transform="matrix(1,0,0,1,0,0)" font-weight="400" font-style="normal" fill="none" stroke="#000000" stroke-width="1" stroke-linecap="square" font-size="32.5" font-family="MS Shell Dlg 2" stroke-opacity="1"/>
  <g stroke-linejoin="bevel" transform="matrix(1,0,0,1,0,0)" font-weight="400" font-style="normal" fill="none" stroke="#000000" stroke-width="1" stroke-linecap="square" font-size="32.5" font-family="MS Shell Dlg 2" stroke-opacity="1"/>
  <g stroke-linejoin="bevel" transform="matrix(11.8081,0,0,11.8081,0,0)" font-weight="400" font-style="normal" fill="none" stroke="#000000" stroke-width="1" stroke-linecap="square" font-size="32.5" font-family="MS Shell Dlg 2" stroke-opacity="1"/>
  <g stroke-linejoin="bevel" transform="matrix(0.999751,0,0,0.999751,0,0)" font-weight="400" font-style="normal" fill="none" stroke="#000000" stroke-width="1" stroke-linecap="square" font-size="32.5" font-family="MS Shell Dlg 2" stroke-opacity="1"/>
  <g transform="matrix(0.999751,0,0,0.999751,0,0)" font-weight="400" font-style="normal" fill="#ffffff" stroke="none" fill-opacity="1" font-size="32.5" font-family="MS Shell Dlg 2">
   <path fill-rule="evenodd" d="M-2,-2 L3510,-2 L3510,2483 L-2,2483 L-2,-2" vector-effect="none"/>
  </g>
  <g stroke-linejoin="bevel" transform="matrix(0.999751,0,0,0.999751,0,0)" font-weight="400" font-style="normal" fill="none" stroke="#000000" stroke-width="1" stroke-linecap="square" font-size="32.5" font-family="MS Shell Dlg 2" stroke-opacity="1"/>
  <g stroke-linejoin="bevel" transform="matrix(11.8081,0,0,11.8081,0,0)" font-weight="400" font-style="normal" fill="none" stroke="#000000" stroke-width="1" stroke-linecap="square" font-size="32.5" font-family="MS Shell Dlg 2" stroke-opacity="1"/>
  <g stroke-linejoin="bevel" transform="matrix(11.8081,0,0,11.8081,0,0)" font-weight="400" font-style="normal" fill="none" stroke="#000000" stroke-width="1" stroke-linecap="square" font-size="32.5" font-family="MS Shell Dlg 2" stroke-opacity="1"/>
  <g stroke-linejoin="bevel" transform="matrix(1,0,0,1,0,0)" font-weight="400" font-style="normal" fill="none" stroke="#000000" stroke-width="1" stroke-linecap="square" font-size="32.5" font-family="MS Shell Dlg 2" stroke-opacity="1"/>
 </g>
 <defs/>
 <g stroke-linejoin="bevel" inkscape:label="Map 1: Background" inkscape:groupmode="layer" fill="none" stroke="black" fill-rule="evenodd" stroke-width="1" stroke-linecap="square" id="Map 1: Background">
  <g stroke-linejoin="bevel" transform="matrix(1,0,0,1,0,0)" font-weight="400" font-style="normal" fill="none" stroke="#000000" stroke-width="1" stroke-linecap="square" font-size="32.5" font-family="MS Shell Dlg 2" stroke-opacity="1"/>
  <g stroke-linejoin="bevel" transform="matrix(1,0,0,1,0,0)" font-weight="400" font-style="normal" fill="none" stroke="#000000" stroke-width="1" stroke-linecap="square" font-size="32.5" font-family="MS Shell Dlg 2" stroke-opacity="1"/>
  <g stroke-linejoin="bevel" transform="matrix(11.8081,0,0,11.8081,0,0)" font-weight="400" font-style="normal" fill="none" stroke="#000000" stroke-width="1" stroke-linecap="square" font-size="32.5" font-family="MS Shell Dlg 2" stroke-opacity="1"/>
  <g transform="matrix(11.8081,0,0,11.8081,0,0)" font-weight="400" font-style="normal" fill="#ffffff" stroke="none" fill-opacity="1" font-size="32.5" font-family="MS Shell Dlg 2">
   <path fill-rule="evenodd" d="M0,0 L297,0 L297,210 L0,210 L0,0" vector-effect="none"/>
  </g>
  <g stroke-linejoin="bevel" transform="matrix(11.8081,0,0,11.8081,0,0)" font-weight="400" font-style="normal" fill="none" stroke="#000000" stroke-width="1" stroke-linecap="square" font-size="32.5" font-family="MS Shell Dlg 2" stroke-opacity="1"/>
  <g stroke-linejoin="bevel" transform="matrix(11.8081,0,0,11.8081,0,0)" font-weight="400" font-style="normal" fill="none" stroke="#000000" stroke-width="1" stroke-linecap="square" font-size="32.5" font-family="MS Shell Dlg 2" stroke-opacity="1"/>
  <g stroke-linejoin="bevel" transform="matrix(11.8081,0,0,11.8081,0,0)" font-weight="400" font-style="normal" fill="none" stroke="#000000" stroke-width="1" stroke-linecap="square" font-size="32.5" font-family="MS Shell Dlg 2" stroke-opacity="1"/>
  <g stroke-linejoin="bevel" transform="matrix(11.8081,0,0,11.8081,0,0)" font-weight="400" font-style="normal" fill="none" stroke="#000000" stroke-width="1" stroke-linecap="square" font-size="32.5" font-family="MS Shell Dlg 2" stroke-opacity="1"/>
  <g stroke-linejoin="bevel" transform="matrix(1,0,0,1,0,0)" font-weight="400" font-style="normal" fill="none" stroke="#000000" stroke-width="1" stroke-linecap="square" font-size="32.5" font-family="MS Shell Dlg 2" stroke-opacity="1"/>
  <g stroke-linejoin="bevel" transform="matrix(11.8081,0,0,11.8081,0,0)" font-weight="400" font-style="normal" fill="none" stroke="#000000" stroke-width="1" stroke-linecap="square" font-size="32.5" font-family="MS Shell Dlg 2" stroke-opacity="1"/>
  <g stroke-linejoin="bevel" transform="matrix(11.8081,0,0,11.8081,0,0)" font-weight="400" font-style="normal" fill="none" stroke="#000000" stroke-width="1" stroke-linecap="square" font-size="32.5" font-family="MS Shell Dlg 2" stroke-opacity="1"/>
  <g stroke-linejoin="bevel" transform="matrix(1,0,0,1,0,0)" font-weight="400" font-style="normal" fill="none" stroke="#000000" stroke-width="1" stroke-linecap="square" font-size="32.5" font-family="MS Shell Dlg 2" stroke-opacity="1"/>
 </g>
 <defs/>
 <g stroke-linejoin="bevel" inkscape:label="Map 1: NoMansLandLand" inkscape:groupmode="layer" fill="none" stroke="black" fill-rule="evenodd" stroke-width="1" stroke-linecap="square" id="Map 1: NoMansLandLand">
  <g stroke-linejoin="bevel" transform="matrix(1,0,0,1,0,0)" font-weight="400" font-style="normal" fill="none" stroke="#000000" stroke-width="1" stroke-linecap="square" font-size="32.5" font-family="MS Shell Dlg 2" stroke-opacity="1"/>
  <g stroke-linejoin="bevel" transform="matrix(1,0,0,1,0,0)" font-weight="400" font-style="normal" fill="none" stroke="#000000" stroke-width="1" stroke-linecap="square" font-size="32.5" font-family="MS Shell Dlg 2" stroke-opacity="1"/>
  <g stroke-linejoin="bevel" transform="matrix(11.8081,0,0,11.8081,0,0)" font-weight="400" font-style="normal" fill="none" stroke="#000000" stroke-width="1" stroke-linecap="square" font-size="32.5" font-family="MS Shell Dlg 2" stroke-opacity="1"/>
  <g stroke-linejoin="bevel" transform="matrix(11.8081,0,0,11.8081,0,0)" font-weight="400" font-style="normal" fill="none" stroke="#000000" stroke-width="1" stroke-linecap="square" font-size="32.5" font-family="MS Shell Dlg 2" stroke-opacity="1"/>
  <g transform="matrix(0.999751,0,0,0.999751,0,0)" font-weight="400" font-style="normal" fill="#000000" stroke="none" fill-opacity="0" font-size="32.5" font-family="MS Shell Dlg 2">
   <rect height="2480" x="0" width="3508" y="0"/>
  </g>
  <g stroke-linejoin="bevel" transform="matrix(0.999751,0,0,0.999751,0,0)" font-weight="400" font-style="normal" fill="none" stroke="#000000" stroke-width="1" stroke-linecap="square" font-size="32.5" font-family="MS Shell Dlg 2" stroke-opacity="1"/>
  <g stroke-linejoin="bevel" transform="matrix(0.999751,0,0,0.999751,0,0)" font-weight="400" font-style="normal" fill="#2edee8" stroke="#232323" fill-opacity="1" stroke-width="5.90551" stroke-linecap="square" font-size="32.5" font-family="MS Shell Dlg 2" stroke-opacity="1">
   <path fill-rule="evenodd" d="M487.493,816.195 L498.909,816.195 L535.063,791.459 L535.063,780.042 L510.326,743.889 L498.909,719.152 L474.173,707.736 L462.756,694.416 L426.603,671.583 L401.867,694.416 L379.033,682.999 L354.297,682.999 L329.561,707.736 L268.671,682.999 L268.671,658.263 L221.101,622.11 L209.684,622.11 L173.531,610.693 L160.212,599.276 L137.378,599.276 L112.642,610.693 L87.9056,610.693 L63.1692,622.11 L40.3357,610.693 L27.0161,585.957 L76.4888,549.804 L76.4888,538.387 L112.642,538.387 L124.059,538.387 L173.531,526.97 L184.948,538.387 L209.684,538.387 L245.838,538.387 L257.254,549.804 L293.408,526.97 L318.144,526.97 L365.714,490.817 L354.297,454.664 L354.297,441.344 L354.297,429.928 L365.714,382.358 L415.186,382.358 L415.186,346.205 L415.186,332.885 L426.603,296.732 L390.45,273.898 L415.186,237.745 L438.02,260.579 L474.173,249.162 L474.173,260.579 L510.326,249.162 L523.646,237.745 L559.799,260.579 L584.535,285.315 L595.952,296.732 L620.688,321.468 L632.105,321.468 L656.842,260.579 L632.105,237.745 L632.105,201.592 L632.105,188.272 L668.258,201.592 L679.675,188.272 L717.731,188.272 L729.148,176.856 L753.884,188.272 L790.037,224.426 L801.454,237.745 L837.607,260.579 L849.024,285.315 L862.343,296.732 L862.343,346.205 L862.343,405.191 L898.497,418.511 L923.233,405.191 L934.65,393.774 L970.803,405.191 L982.22,418.511 L1018.37,429.928 L1043.11,393.774 L1067.85,393.774 L1090.68,418.511 L1079.26,466.081 L1067.85,466.081 L1067.85,490.817 L1104,526.97 L1115.42,526.97 L1128.73,526.97 L1164.89,538.387 L1187.72,549.804 L1201.04,538.387 L1223.87,513.651 L1212.46,466.081 L1223.87,466.081 L1273.35,490.817 L1284.76,502.234 L1309.5,502.234 L1334.24,477.497 L1334.24,441.344 L1345.65,418.511 L1345.65,393.774 L1393.22,382.358 L1417.96,418.511 L1442.7,418.511 L1454.11,429.928 L1454.11,454.664 L1465.53,466.081 L1465.53,477.497 L1490.27,502.234 L1539.74,513.651 L1562.57,490.817 L1587.31,466.081 L1598.73,441.344 L1623.46,418.511 L1634.88,418.511 L1634.88,405.191 L1671.03,382.358 L1684.35,382.358 L1720.5,405.191 L1695.77,441.344 L1720.5,490.817 L1720.5,502.234 L1720.5,513.651 L1709.09,549.804 L1709.09,563.123 L1709.09,574.54 L1709.09,622.11 L1745.24,635.429 L1781.39,622.11 L1781.39,610.693 L1792.81,574.54 L1792.81,563.123 L1804.23,538.387 L1840.38,513.651 L1865.12,526.97 L1878.44,563.123 L1865.12,585.957 L1865.12,599.276 L1878.44,610.693 L1926.01,610.693 L1926.01,585.957 L1962.16,574.54 L1973.58,574.54 L1986.9,599.276 L2023.05,599.276 L2023.05,610.693 L2070.62,635.429 L2083.94,622.11 L2095.36,574.54 L2083.94,563.123 L2070.62,526.97 L2131.51,526.97 L2131.51,538.387 L2167.66,549.804 L2215.23,585.957 L2203.81,622.11 L2203.81,671.583 L2192.4,682.999 L2179.08,730.569 L2156.24,766.722 L2167.66,791.459 L2156.24,816.195 L2179.08,852.348 L2203.81,863.765 L2228.55,888.501 L2239.97,888.501 L2264.7,924.654 L2276.12,924.654 L2312.27,960.808 L2312.27,972.224 L2300.86,985.544 L2289.44,985.544 L2251.38,972.224 L2251.38,949.391 L2203.81,924.654 L2203.81,913.238 L2167.66,888.501 L2142.93,888.501 L2142.93,899.918 L2156.24,936.071 L2131.51,960.808 L2106.77,960.808 L2095.36,913.238 L2059.2,888.501 L2045.88,899.918 L2009.73,924.654 L2023.05,949.391 L2009.73,972.224 L2023.05,996.961 L1998.31,1044.53 L1986.9,1044.53 L1962.16,1044.53 L1950.74,1033.11 L1950.74,996.961 L1937.42,985.544 L1937.42,960.808 L1926.01,949.391 L1926.01,924.654 L1889.85,924.654 L1878.44,960.808 L1865.12,985.544 L1840.38,996.961 L1817.55,996.961 L1804.23,996.961 L1781.39,1033.11 L1768.07,1033.11 L1731.92,1008.38 L1709.09,1021.7 L1684.35,985.544 L1659.61,996.961 L1623.46,972.224 L1634.88,949.391 L1598.73,924.654 L1587.31,936.071 L1587.31,972.224 L1551.16,985.544 L1551.16,1008.38 L1526.42,1021.7 L1515,1057.85 L1526.42,1069.27 L1526.42,1094 L1539.74,1105.42 L1575.89,1130.16 L1587.31,1166.31 L1598.73,1225.3 L1598.73,1261.45 L1634.88,1286.19 L1648.2,1274.77 L1671.03,1286.19 L1684.35,1310.92 L1671.03,1333.76 L1648.2,1347.08 L1612.05,1322.34 L1598.73,1333.76 L1587.31,1369.91 L1598.73,1383.23 L1634.88,1394.65 L1648.2,1406.06 L1671.03,1455.53 L1634.88,1480.27 L1648.2,1516.42 L1671.03,1516.42 L1684.35,1516.42 L1695.77,1455.53 L1720.5,1455.53 L1745.24,1455.53 L1781.39,1480.27 L1817.55,1480.27 L1828.96,1455.53 L1853.7,1455.53 L1865.12,1444.12 L1901.27,1444.12 L1901.27,1430.8 L1937.42,1419.38 L1950.74,1406.06 L1962.16,1406.06 L1998.31,1419.38 L2009.73,1419.38 L2045.88,1430.8 L2070.62,1419.38 L2095.36,1430.8 L2131.51,1419.38 L2142.93,1406.06 L2142.93,1394.65 L2156.24,1369.91 L2156.24,1358.49 L2203.81,1347.08 L2215.23,1358.49 L2251.38,1347.08 L2264.7,1347.08 L2289.44,1333.76 L2312.27,1333.76 L2325.59,1369.91 L2300.86,1394.65 L2312.27,1419.38 L2337.01,1430.8 L2348.43,1444.12 L2373.16,1444.12 L2397.9,1466.95 L2409.32,1466.95 L2434.05,1480.27 L2445.47,1480.27 L2470.21,1527.84 L2517.78,1516.42 L2578.67,1491.69 L2590.08,1491.69 L2603.4,1480.27 L2626.24,1480.27 L2650.97,1480.27 L2675.71,1480.27 L2711.86,1480.27 L2736.6,1503.1 L2759.43,1503.1 L2795.58,1516.42 L2831.74,1503.1 L2845.06,1503.1 L2869.79,1527.84 L2869.79,1539.26 L2869.79,1563.99 L2917.36,1588.73 L2928.78,1575.41 L2942.1,1552.58 L2978.25,1527.84 L2978.25,1516.42 L3014.41,1480.27 L2989.67,1444.12 L2964.93,1430.8 L2953.52,1406.06 L2953.52,1394.65 L2978.25,1358.49 L3001.09,1347.08 L3025.82,1358.49 L3050.56,1347.08 L3086.71,1358.49 L3098.13,1394.65 L3098.13,1419.38 L3111.45,1430.8 L3111.45,1455.53 L3111.45,1466.95 L3098.13,1491.69 L3111.45,1527.84 L3159.02,1539.26 L3170.43,1563.99 L3183.75,1563.99 L3219.91,1552.58 L3231.32,1539.26 L3206.59,1491.69 L3183.75,1491.69 L3170.43,1466.95 L3195.17,1430.8 L3244.64,1444.12 L3244.64,1480.27 L3280.8,1491.69 L3292.21,1491.69 L3316.95,1503.1 L3364.52,1491.69 L3389.26,1503.1 L3389.26,1527.84 L3375.94,1552.58 L3364.52,1563.99 L3339.78,1588.73 L3328.37,1588.73 L3292.21,1611.56 L3303.63,1647.72 L3353.1,1661.04 L3353.1,1697.19 L3400.67,1697.19 L3412.09,1697.19 L3425.41,1661.04 L3461.56,1647.72 L3486.3,1683.87 L3486.3,1708.61 L3486.3,1720.02 L3450.15,1756.18 L3450.15,1769.5 L3436.83,1780.91 L3412.09,1805.65 L3389.26,1805.65 L3375.94,1841.8 L3389.26,1877.96 L3353.1,1900.79 L3328.37,1925.53 L3339.78,1961.68 L3328.37,1997.83 L3328.37,2009.25 L3316.95,2033.98 L3303.63,2045.4 L3292.21,2070.14 L3244.64,2081.55 L3231.32,2058.72 L3231.32,2045.4 L3195.17,2009.25 L3170.43,2033.98 L3134.28,2045.4 L3122.86,2058.72 L3086.71,2058.72 L3086.71,2070.14 L3037.24,2094.87 L3037.24,2119.61 L3037.24,2142.44 L3075.3,2142.44 L3098.13,2131.03 L3134.28,2142.44 L3122.86,2203.33 L3086.71,2203.33 L3061.98,2214.75 L3037.24,2203.33 L3001.09,2214.75 L2978.25,2167.18 L2978.25,2155.76 L2978.25,2131.03 L2953.52,2131.03 L2905.95,2142.44 L2869.79,2167.18 L2869.79,2191.92 L2808.9,2203.33 L2808.9,2228.07 L2795.58,2239.49 L2795.58,2275.64 L2759.43,2287.06 L2748.01,2287.06 L2711.86,2300.38 L2700.44,2300.38 L2700.44,2287.06 L2650.97,2275.64 L2650.97,2287.06 L2603.4,2264.22 L2590.08,2239.49 L2578.67,2228.07 L2578.67,2203.33 L2553.93,2191.92 L2542.51,2191.92 L2517.78,2191.92 L2506.36,2167.18 L2506.36,2119.61 L2506.36,2106.29 L2517.78,2070.14 L2531.1,2033.98 L2542.51,2009.25 L2542.51,1986.41 L2542.51,1961.68 L2531.1,1936.94 L2542.51,1925.53 L2578.67,1914.11 L2590.08,1914.11 L2614.82,1900.79 L2614.82,1889.37 L2614.82,1864.64 L2614.82,1853.22 L2664.29,1853.22 L2700.44,1853.22 L2711.86,1841.8 L2723.28,1817.07 L2700.44,1792.33 L2675.71,1769.5 L2664.29,1733.34 L2675.71,1720.02 L2687.12,1697.19 L2675.71,1672.45 L2687.12,1647.72 L2675.71,1624.88 L2687.12,1611.56 L2675.71,1588.73 L2664.29,1563.99 L2639.55,1563.99 L2603.4,1575.41 L2590.08,1588.73 L2603.4,1611.56 L2614.82,1636.3 L2614.82,1683.87 L2603.4,1697.19 L2578.67,1708.61 L2542.51,1661.04 L2531.1,1661.04 L2517.78,1624.88 L2494.94,1624.88 L2481.62,1636.3 L2456.89,1624.88 L2434.05,1636.3 L2397.9,1624.88 L2397.9,1636.3 L2337.01,1611.56 L2312.27,1647.72 L2325.59,1672.45 L2312.27,1683.87 L2325.59,1720.02 L2312.27,1733.34 L2312.27,1756.18 L2300.86,1769.5 L2264.7,1780.91 L2239.97,1744.76 L2239.97,1733.34 L2215.23,1708.61 L2192.4,1683.87 L2179.08,1683.87 L2156.24,1647.72 L2120.09,1647.72 L2106.77,1672.45 L2070.62,1697.19 L2034.47,1661.04 L2034.47,1636.3 L1998.31,1624.88 L1962.16,1647.72 L1950.74,1683.87 L1973.58,1708.61 L1973.58,1720.02 L2023.05,1744.76 L2023.05,1756.18 L2023.05,1769.5 L2034.47,1792.33 L2034.47,1805.65 L2023.05,1853.22 L1986.9,1864.64 L1950.74,1841.8 L1950.74,1828.48 L1950.74,1805.65 L1889.85,1756.18 L1889.85,1733.34 L1878.44,1708.61 L1865.12,1708.61 L1840.38,1708.61 L1804.23,1708.61 L1781.39,1661.04 L1781.39,1647.72 L1781.39,1636.3 L1768.07,1624.88 L1720.5,1611.56 L1695.77,1647.72 L1684.35,1647.72 L1659.61,1636.3 L1623.46,1647.72 L1598.73,1647.72 L1562.57,1683.87 L1551.16,1683.87 L1539.74,1636.3 L1526.42,1611.56 L1478.85,1600.15 L1429.38,1588.73 L1429.38,1552.58 L1429.38,1539.26 L1406.54,1503.1 L1417.96,1466.95 L1429.38,1455.53 L1429.38,1419.38 L1381.81,1406.06 L1381.81,1383.23 L1370.39,1358.49 L1381.81,1347.08 L1381.81,1322.34 L1381.81,1310.92 L1370.39,1274.77 L1334.24,1274.77 L1320.92,1286.19 L1298.08,1261.45 L1248.61,1274.77 L1212.46,1261.45 L1187.72,1274.77 L1176.3,1261.45 L1140.15,1274.77 L1128.73,1297.6 L1140.15,1333.76 L1140.15,1358.49 L1104,1358.49 L1090.68,1347.08 L1079.26,1322.34 L1043.11,1274.77 L995.539,1261.45 L995.539,1238.62 L959.386,1225.3 L946.066,1202.46 L923.233,1202.46 L909.913,1189.14 L923.233,1141.57 L898.497,1116.84 L873.76,1116.84 L837.607,1141.57 L812.871,1116.84 L812.871,1069.27 L826.19,1057.85 L837.607,1057.85 L849.024,1008.38 L837.607,972.224 L849.024,960.808 L849.024,936.071 L862.343,913.238 L849.024,888.501 L873.76,877.085 L862.343,827.612 L837.607,827.612 L826.19,816.195 L812.871,816.195 L790.037,827.612 L753.884,816.195 L740.565,816.195 L729.148,840.931 L668.258,827.612 L668.258,840.931 L607.369,840.931 L595.952,840.931 L584.535,840.931 L548.382,877.085 L559.799,924.654 L548.382,936.071 L535.063,985.544 L510.326,996.961 L487.493,985.544 L474.173,949.391 L474.173,936.071 L462.756,913.238 L487.493,877.085 L462.756,852.348 L487.493,816.195 M946.066,936.071 L909.913,924.654 L898.497,960.808 L909.913,996.961 L946.066,936.071" vector-effect="none"/>
   <path fill-rule="evenodd" d="M2251.38,635.429 L2276.12,585.957 L2312.27,574.54 L2312.27,585.957 L2361.75,610.693 L2373.16,610.693 L2397.9,610.693 L2409.32,599.276 L2397.9,538.387 L2384.58,526.97 L2384.58,513.651 L2397.9,490.817 L2434.05,490.817 L2445.47,526.97 L2506.36,526.97 L2531.1,526.97 L2553.93,490.817 L2603.4,502.234 L2626.24,526.97 L2664.29,563.123 L2664.29,585.957 L2700.44,610.693 L2711.86,635.429 L2736.6,671.583 L2748.01,671.583 L2772.75,707.736 L2736.6,743.889 L2675.71,743.889 L2675.71,730.569 L2650.97,694.416 L2626.24,682.999 L2603.4,658.263 L2590.08,646.846 L2590.08,635.429 L2531.1,646.846 L2517.78,671.583 L2470.21,671.583 L2456.89,671.583 L2445.47,694.416 L2445.47,730.569 L2409.32,755.306 L2384.58,755.306 L2384.58,743.889 L2348.43,743.889 L2312.27,707.736 L2264.7,671.583 L2276.12,658.263 L2251.38,635.429" vector-effect="none"/>
   <path fill-rule="evenodd" d="M2083.94,2022.57 L2131.51,2033.98 L2167.66,2045.4 L2192.4,2033.98 L2228.55,2045.4 L2264.7,2022.57 L2264.7,2009.25 L2289.44,1997.83 L2300.86,1997.83 L2348.43,2009.25 L2373.16,2033.98 L2348.43,2081.55 L2325.59,2142.44 L2337.01,2155.76 L2373.16,2167.18 L2373.16,2191.92 L2348.43,2228.07 L2337.01,2228.07 L2312.27,2275.64 L2312.27,2287.06 L2289.44,2311.79 L2239.97,2300.38 L2228.55,2300.38 L2179.08,2287.06 L2167.66,2275.64 L2179.08,2250.9 L2192.4,2228.07 L2215.23,2214.75 L2228.55,2214.75 L2251.38,2178.6 L2251.38,2167.18 L2289.44,2131.03 L2264.7,2094.87 L2251.38,2094.87 L2228.55,2142.44 L2192.4,2131.03 L2167.66,2142.44 L2156.24,2119.61 L2142.93,2106.29 L2095.36,2131.03 L2095.36,2142.44 L2059.2,2167.18 L2045.88,2167.18 L2009.73,2131.03 L2009.73,2106.29 L2009.73,2058.72 L2023.05,2009.25 L2034.47,1997.83 L2083.94,2022.57" vector-effect="none"/>
   <path fill-rule="evenodd" d="M717.731,924.654 L765.301,960.808 L790.037,972.224 L801.454,1033.11 L753.884,1033.11 L729.148,1021.7 L704.411,1021.7 L679.675,996.961 L643.522,949.391 L643.522,924.654 L692.995,899.918 L717.731,924.654" vector-effect="none"/>
   <path fill-rule="evenodd" d="M2675.71,1406.06 L2664.29,1419.38 L2614.82,1394.65 L2614.82,1369.91 L2603.4,1347.08 L2614.82,1333.76 L2614.82,1310.92 L2626.24,1274.77 L2650.97,1274.77 L2664.29,1274.77 L2687.12,1297.6 L2675.71,1322.34 L2687.12,1347.08 L2664.29,1369.91 L2675.71,1406.06" vector-effect="none"/>
   <path fill-rule="evenodd" d="M2456.89,1900.79 L2470.21,1864.64 L2494.94,1864.64 L2517.78,1864.64 L2517.78,1900.79 L2481.62,1914.11 L2456.89,1900.79" vector-effect="none"/>
  </g>
  <g stroke-linejoin="bevel" transform="matrix(0.999751,0,0,0.999751,0,0)" font-weight="400" font-style="normal" fill="none" stroke="#000000" stroke-width="1" stroke-linecap="square" font-size="32.5" font-family="MS Shell Dlg 2" stroke-opacity="1"/>
  <g stroke-linejoin="bevel" transform="matrix(11.8081,0,0,11.8081,0,0)" font-weight="400" font-style="normal" fill="none" stroke="#000000" stroke-width="1" stroke-linecap="square" font-size="32.5" font-family="MS Shell Dlg 2" stroke-opacity="1"/>
  <g stroke-linejoin="bevel" transform="matrix(11.8081,0,0,11.8081,0,0)" font-weight="400" font-style="normal" fill="none" stroke="#000000" stroke-width="1" stroke-linecap="square" font-size="32.5" font-family="MS Shell Dlg 2" stroke-opacity="1"/>
  <g stroke-linejoin="bevel" transform="matrix(11.8081,0,0,11.8081,0,0)" font-weight="400" font-style="normal" fill="none" stroke="#000000" stroke-width="1" stroke-linecap="square" font-size="32.5" font-family="MS Shell Dlg 2" stroke-opacity="1"/>
  <g stroke-linejoin="bevel" transform="matrix(1,0,0,1,0,0)" font-weight="400" font-style="normal" fill="none" stroke="#000000" stroke-width="1" stroke-linecap="square" font-size="32.5" font-family="MS Shell Dlg 2" stroke-opacity="1"/>
  <g stroke-linejoin="bevel" transform="matrix(11.8081,0,0,11.8081,0,0)" font-weight="400" font-style="normal" fill="none" stroke="#000000" stroke-width="1" stroke-linecap="square" font-size="32.5" font-family="MS Shell Dlg 2" stroke-opacity="1"/>
  <g stroke-linejoin="bevel" transform="matrix(11.8081,0,0,11.8081,0,0)" font-weight="400" font-style="normal" fill="none" stroke="#000000" stroke-width="1" stroke-linecap="square" font-size="32.5" font-family="MS Shell Dlg 2" stroke-opacity="1"/>
  <g stroke-linejoin="bevel" transform="matrix(1,0,0,1,0,0)" font-weight="400" font-style="normal" fill="none" stroke="#000000" stroke-width="1" stroke-linecap="square" font-size="32.5" font-family="MS Shell Dlg 2" stroke-opacity="1"/>
 </g>
 <defs/>
 <g stroke-linejoin="bevel" inkscape:label="Map 1: NoMansLandLand (Labels)" inkscape:groupmode="layer" fill="none" stroke="black" fill-rule="evenodd" stroke-width="1" stroke-linecap="square" id="Map 1: NoMansLandLand (Labels)">
  <g stroke-linejoin="bevel" transform="matrix(1,0,0,1,0,0)" font-weight="400" font-style="normal" fill="none" stroke="#000000" stroke-width="1" stroke-linecap="square" font-size="32.5" font-family="MS Shell Dlg 2" stroke-opacity="1"/>
  <g stroke-linejoin="bevel" transform="matrix(1,0,0,1,0,0)" font-weight="400" font-style="normal" fill="none" stroke="#000000" stroke-width="1" stroke-linecap="square" font-size="32.5" font-family="MS Shell Dlg 2" stroke-opacity="1"/>
  <g stroke-linejoin="bevel" transform="matrix(11.8081,0,0,11.8081,0,0)" font-weight="400" font-style="normal" fill="none" stroke="#000000" stroke-width="1" stroke-linecap="square" font-size="32.5" font-family="MS Shell Dlg 2" stroke-opacity="1"/>
  <g stroke-linejoin="bevel" transform="matrix(11.8081,0,0,11.8081,0,0)" font-weight="400" font-style="normal" fill="none" stroke="#000000" stroke-width="1" stroke-linecap="square" font-size="32.5" font-family="MS Shell Dlg 2" stroke-opacity="1"/>
  <g transform="matrix(0.999751,0,0,0.999751,0,0)" font-weight="400" font-style="normal" fill="#000000" stroke="none" fill-opacity="0" font-size="32.5" font-family="MS Shell Dlg 2">
   <rect height="2480" x="0" width="3508" y="0"/>
  </g>
  <g stroke-linejoin="bevel" transform="matrix(0.999751,0,0,0.999751,0,0)" font-weight="400" font-style="normal" fill="none" stroke="#000000" stroke-width="1" stroke-linecap="square" font-size="32.5" font-family="MS Shell Dlg 2" stroke-opacity="1"/>
  <g stroke-linejoin="bevel" transform="matrix(0.3999,0,0,0.3999,1642.23,1174.82)" font-weight="400" font-style="normal" fill="none" stroke="#000000" stroke-width="1" stroke-linecap="square" font-size="32.5" font-family="MS Shell Dlg 2" stroke-opacity="1"/>
  <g transform="matrix(0.999751,0,0,0.999751,1642.23,1174.82)" font-weight="400" font-style="normal" fill="#323232" stroke="none" fill-opacity="1" font-size="32.5" font-family="MS Shell Dlg 2">
   <path fill-rule="nonzero" d="M21.966,-12.432 C21.966,-17.22 21.756,-20.727 21.336,-22.953 C20.916,-25.179 20.118,-26.502 18.942,-26.922 L19.11,-27.51 C19.978,-27.398 21.392,-27.342 23.352,-27.342 C25.312,-27.342 27.118,-27.454 28.77,-27.678 L28.896,-26.712 C26.908,-26.236 25.522,-25.956 24.738,-25.872 C24.374,-23.128 24.192,-19.474 24.192,-14.91 L24.192,-12.432 C24.192,-7.196 24.374,-3.542 24.738,-1.47 C26.166,-1.302 27.51,-1.05 28.77,-0.714 L28.602,0.336 C27.118,0.112 25.627,0 24.129,0 C22.631,0 21.42,0.042 20.496,0.126 C20.496,-0.798 19.586,-2.856 17.766,-6.048 C15.946,-9.24 12.642,-14.574 7.854,-22.05 L7.686,-21.966 L7.686,-14.91 C7.686,-8.05 8.204,-3.57 9.24,-1.47 C10.78,-1.33 12.306,-1.064 13.818,-0.672 L13.734,0.336 C11.662,0.112 9.415,0 6.993,0 C4.571,0 2.618,0.112 1.134,0.336 L0.966,-0.714 C2.226,-1.106 3.57,-1.4 4.998,-1.596 C5.306,-3.892 5.46,-7.504 5.46,-12.432 L5.46,-14.91 C5.46,-18.858 5.292,-22.232 4.956,-25.032 C1.652,-25.032 -0.462,-24.584 -1.386,-23.688 C-1.582,-23.296 -1.68,-22.68 -1.68,-21.84 C-1.68,-21 -1.54,-20.426 -1.26,-20.118 L-1.302,-19.824 C-2.002,-19.404 -2.702,-18.816 -3.402,-18.06 C-3.738,-18.088 -4.011,-18.228 -4.221,-18.48 C-4.431,-18.732 -4.536,-19.026 -4.536,-19.362 C-4.536,-20.734 -3.71,-22.372 -2.058,-24.276 C-0.406,-26.18 1.134,-27.384 2.562,-27.888 C2.898,-27.86 3.843,-27.762 5.397,-27.594 C6.951,-27.426 8.232,-27.342 9.24,-27.342 C10.248,-27.342 11.186,-27.426 12.054,-27.594 L12.222,-26.544 C11.074,-26.068 10.5,-25.606 10.5,-25.158 C10.64,-24.402 11.438,-22.813 12.894,-20.391 C14.35,-17.969 17.318,-13.272 21.798,-6.3 L21.966,-6.384 L21.966,-12.432 M41.046,0.504 C38.274,0.504 36.034,-0.371 34.326,-2.121 C32.618,-3.871 31.764,-6.216 31.764,-9.156 C31.764,-12.096 32.66,-14.854 34.452,-17.43 C36.244,-20.006 38.582,-21.658 41.466,-22.386 C44.35,-22.386 46.548,-21.567 48.06,-19.929 C49.572,-18.291 50.328,-15.96 50.328,-12.936 C50.328,-9.912 49.509,-7.182 47.871,-4.746 C46.233,-2.31 43.958,-0.56 41.046,0.504 M40.332,-19.824 C39.072,-19.824 37.98,-19.474 37.056,-18.774 C35.908,-16.814 35.334,-14.35 35.334,-11.382 C35.334,-7.966 36.286,-5.348 38.19,-3.528 C39.198,-2.548 40.388,-2.058 41.76,-2.058 C43.132,-2.058 44.238,-2.422 45.078,-3.15 C46.198,-5.11 46.758,-7.504 46.758,-10.332 C46.758,-13.16 46.254,-15.449 45.246,-17.199 C44.238,-18.949 42.6,-19.824 40.332,-19.824 M73.65,-25.242 C73.65,-23.478 74.742,-19.194 76.926,-12.39 L78.27,-8.19 L78.564,-8.274 C78.592,-8.862 80.328,-14.63 83.772,-25.578 C83.772,-25.858 83.618,-26.131 83.31,-26.397 C83.002,-26.663 82.68,-26.838 82.344,-26.922 L82.47,-27.51 C83.87,-27.398 85.788,-27.342 88.224,-27.342 C90.66,-27.342 92.606,-27.454 94.062,-27.678 L94.272,-26.628 C92.928,-26.208 91.57,-25.914 90.198,-25.746 C90.058,-25.074 89.988,-23.877 89.988,-22.155 C89.988,-20.433 90.219,-16.982 90.681,-11.802 C91.143,-6.622 91.57,-3.178 91.962,-1.47 C93.446,-1.33 94.986,-1.064 96.582,-0.672 L96.456,0.336 C94.384,0.112 92.144,0 89.736,0 C87.328,0 85.382,0.112 83.898,0.336 L83.73,-0.714 C84.99,-1.106 86.334,-1.4 87.762,-1.596 C87.762,-4.256 87.608,-7.924 87.3,-12.6 C86.992,-17.276 86.6,-21.28 86.124,-24.612 L85.998,-24.654 C81.994,-13.566 79.894,-6.818 79.698,-4.41 C77.878,-3.318 76.52,-2.254 75.624,-1.218 L75.12,-1.554 C75.176,-2.17 75.204,-2.632 75.204,-2.94 C75.204,-6.216 73.37,-13.454 69.702,-24.654 L69.534,-24.612 L68.232,-15.414 C67.672,-11.41 67.392,-7.798 67.392,-4.578 C67.392,-3.542 67.511,-2.688 67.749,-2.016 C67.987,-1.344 68.47,-0.812 69.198,-0.42 L69.03,0.168 C68.162,0.056 66.685,0 64.599,0 C62.513,0 60.644,0.112 58.992,0.336 L58.824,-0.714 C60.084,-1.106 61.428,-1.4 62.856,-1.596 L67.56,-25.032 C64.256,-25.032 62.142,-24.584 61.218,-23.688 C61.022,-23.296 60.924,-22.68 60.924,-21.84 C60.924,-21 61.064,-20.426 61.344,-20.118 L61.302,-19.824 C60.602,-19.404 59.902,-18.816 59.202,-18.06 C58.866,-18.088 58.593,-18.228 58.383,-18.48 C58.173,-18.732 58.068,-19.026 58.068,-19.362 C58.068,-20.734 58.894,-22.372 60.546,-24.276 C62.198,-26.18 63.738,-27.384 65.166,-27.888 C65.39,-27.888 66.398,-27.797 68.19,-27.615 C69.982,-27.433 71.375,-27.342 72.369,-27.342 C73.363,-27.342 74.308,-27.426 75.204,-27.594 L75.372,-26.544 C74.224,-26.096 73.65,-25.662 73.65,-25.242 M100.536,-22.344 C103.168,-22.036 105.828,-21.882 108.516,-21.882 C111.204,-21.882 113.85,-22.036 116.454,-22.344 L116.622,-21.252 C115.782,-20.916 114.914,-20.664 114.018,-20.496 C113.71,-18.2 113.556,-15.008 113.556,-10.92 C113.556,-6.832 113.71,-3.64 114.018,-1.344 C114.578,-1.26 115.614,-1.05 117.126,-0.714 L116.958,0.336 C115.614,0.112 113.892,0 111.792,0 C109.692,0 108.082,0.112 106.962,0.336 L106.794,-0.756 C107.746,-1.064 108.824,-1.288 110.028,-1.428 C110.196,-3.052 110.322,-5.306 110.406,-8.19 C109.09,-8.33 107.774,-8.4 106.458,-8.4 C105.142,-8.4 103.994,-8.33 103.014,-8.19 C102.454,-5.894 102.174,-4.298 102.174,-3.402 C102.174,-2.03 102.664,-1.064 103.644,-0.504 L103.476,0.21 C102.832,0.07 101.614,0 99.822,0 C98.03,0 96.616,0.112 95.58,0.336 L95.412,-0.756 C96.084,-1.008 97.008,-1.232 98.184,-1.428 L103.644,-20.58 C102.412,-20.776 101.334,-21 100.41,-21.252 L100.536,-22.344 M103.35,-10.164 C104.442,-9.996 105.653,-9.912 106.983,-9.912 C108.313,-9.912 109.454,-9.996 110.406,-10.164 C110.406,-15.344 110.294,-18.69 110.07,-20.202 C109.118,-20.258 108.411,-20.286 107.949,-20.286 C107.487,-20.286 106.78,-20.258 105.828,-20.202 L103.35,-10.164 M129.928,0.294 C128.472,0.098 126.841,0 125.035,0 C123.229,0 121.612,0.112 120.184,0.336 L120.016,-0.756 C120.912,-1.036 121.752,-1.246 122.536,-1.386 C122.788,-3.57 122.914,-6.426 122.914,-9.954 L122.914,-11.928 C122.914,-15.68 122.774,-18.564 122.494,-20.58 C121.738,-20.664 120.828,-20.888 119.764,-21.252 L119.89,-22.344 C121.486,-22.036 123.159,-21.882 124.909,-21.882 C126.659,-21.882 127.912,-21.98 128.668,-22.176 L128.752,-21.462 C127.996,-21.266 127.618,-20.944 127.618,-20.496 C127.618,-20.16 127.947,-19.453 128.605,-18.375 C129.263,-17.297 129.9,-16.254 130.516,-15.246 C132.364,-12.306 134.548,-8.694 137.068,-4.41 L137.194,-4.494 L137.194,-9.618 C137.194,-13.37 136.998,-16.191 136.606,-18.081 C136.214,-19.971 135.542,-21.07 134.59,-21.378 L134.674,-22.092 C135.402,-21.952 136.494,-21.882 137.95,-21.882 C139.406,-21.882 140.904,-22.036 142.444,-22.344 L142.57,-21.252 C141.422,-20.888 140.456,-20.664 139.672,-20.58 C139.392,-18.34 139.252,-15.456 139.252,-11.928 L139.252,-9.954 C139.252,-5.698 139.392,-2.814 139.672,-1.302 C140.848,-1.106 141.786,-0.882 142.486,-0.63 L142.36,0.462 C140.96,0.154 139.644,0 138.412,0 C137.18,0 136.228,0.056 135.556,0.168 C135.556,-0.448 135.129,-1.484 134.275,-2.94 C133.421,-4.396 132.644,-5.684 131.944,-6.804 C129.676,-10.472 127.45,-14.196 125.266,-17.976 L125.098,-17.892 L125.098,-12.264 C125.098,-6.692 125.518,-3.066 126.358,-1.386 C127.618,-1.246 128.85,-1.036 130.054,-0.756 L129.928,0.294 M146.646,-27.258 C146.982,-27.426 147.486,-27.587 148.158,-27.741 C148.83,-27.895 149.271,-27.972 149.481,-27.972 C149.691,-27.972 149.824,-27.972 149.88,-27.972 L150.384,-27.426 C149.516,-25.186 148.872,-22.12 148.452,-18.228 L147.192,-18.144 L146.646,-27.258 M156.662,-3.192 C157.95,-2.66 159.224,-2.394 160.484,-2.394 C161.744,-2.394 162.752,-2.688 163.508,-3.276 C164.264,-3.864 164.642,-4.704 164.642,-5.796 C164.642,-6.916 163.06,-8.302 159.896,-9.954 C158.692,-10.57 157.593,-11.319 156.599,-12.201 C155.605,-13.083 155.108,-13.958 155.108,-14.826 C155.108,-16.31 155.892,-17.808 157.46,-19.32 C159.028,-20.832 160.638,-21.854 162.29,-22.386 C164.362,-22.386 166.238,-22.176 167.918,-21.756 L167.918,-21 C166.742,-19.824 166.084,-18.214 165.944,-16.17 L164.894,-16.17 C164.894,-16.954 164.824,-17.934 164.684,-19.11 C163.704,-19.558 162.654,-19.782 161.534,-19.782 C160.414,-19.782 159.483,-19.537 158.741,-19.047 C157.999,-18.557 157.628,-17.85 157.628,-16.926 C157.628,-16.282 158.125,-15.582 159.119,-14.826 C160.113,-14.07 161.198,-13.398 162.374,-12.81 C163.55,-12.222 164.635,-11.494 165.629,-10.626 C166.623,-9.758 167.12,-8.89 167.12,-8.022 C167.12,-6.342 166.378,-4.669 164.894,-3.003 C163.41,-1.337 161.772,-0.168 159.98,0.504 C158.216,0.504 156.564,0.294 155.024,-0.126 C154.576,0.07 154.114,0.392 153.638,0.84 L152.882,0.294 C154.45,-1.414 155.318,-3.528 155.486,-6.048 L156.536,-6.048 C156.536,-5.068 156.578,-4.116 156.662,-3.192 M187.156,-25.872 C186.792,-23.408 186.61,-19.495 186.61,-14.133 C186.61,-8.771 186.722,-4.83 186.946,-2.31 C187.898,-2.254 188.794,-2.226 189.634,-2.226 C192.938,-2.226 195.052,-2.674 195.976,-3.57 C196.172,-3.962 196.27,-4.578 196.27,-5.418 C196.27,-6.258 196.13,-6.832 195.85,-7.14 L195.892,-7.434 C196.592,-7.854 197.292,-8.442 197.992,-9.198 C198.328,-9.17 198.601,-9.03 198.811,-8.778 C199.021,-8.526 199.126,-8.232 199.126,-7.896 C199.126,-6.524 198.3,-4.886 196.648,-2.982 C194.996,-1.078 193.456,0.126 192.028,0.63 C189.62,0.546 187.016,0.14 184.216,-0.588 C183.824,-0.084 183.502,0.56 183.25,1.344 L182.368,1.092 C182.956,-1.736 183.292,-6.37 183.376,-12.81 L183.376,-14.91 C183.376,-19.81 183.222,-23.422 182.914,-25.746 C181.486,-25.942 180.142,-26.236 178.882,-26.628 L179.05,-27.678 C180.534,-27.454 182.487,-27.342 184.909,-27.342 C187.331,-27.342 189.578,-27.454 191.65,-27.678 L191.776,-26.67 C190.096,-26.278 188.556,-26.012 187.156,-25.872 M201.536,-22.344 C204.168,-22.036 206.828,-21.882 209.516,-21.882 C212.204,-21.882 214.85,-22.036 217.454,-22.344 L217.622,-21.252 C216.782,-20.916 215.914,-20.664 215.018,-20.496 C214.71,-18.2 214.556,-15.008 214.556,-10.92 C214.556,-6.832 214.71,-3.64 215.018,-1.344 C215.578,-1.26 216.614,-1.05 218.126,-0.714 L217.958,0.336 C216.614,0.112 214.892,0 212.792,0 C210.692,0 209.082,0.112 207.962,0.336 L207.794,-0.756 C208.746,-1.064 209.824,-1.288 211.028,-1.428 C211.196,-3.052 211.322,-5.306 211.406,-8.19 C210.09,-8.33 208.774,-8.4 207.458,-8.4 C206.142,-8.4 204.994,-8.33 204.014,-8.19 C203.454,-5.894 203.174,-4.298 203.174,-3.402 C203.174,-2.03 203.664,-1.064 204.644,-0.504 L204.476,0.21 C203.832,0.07 202.614,0 200.822,0 C199.03,0 197.616,0.112 196.58,0.336 L196.412,-0.756 C197.084,-1.008 198.008,-1.232 199.184,-1.428 L204.644,-20.58 C203.412,-20.776 202.334,-21 201.41,-21.252 L201.536,-22.344 M204.35,-10.164 C205.442,-9.996 206.653,-9.912 207.983,-9.912 C209.313,-9.912 210.454,-9.996 211.406,-10.164 C211.406,-15.344 211.294,-18.69 211.07,-20.202 C210.118,-20.258 209.411,-20.286 208.949,-20.286 C208.487,-20.286 207.78,-20.258 206.828,-20.202 L204.35,-10.164 M230.928,0.294 C229.472,0.098 227.841,0 226.035,0 C224.229,0 222.612,0.112 221.184,0.336 L221.016,-0.756 C221.912,-1.036 222.752,-1.246 223.536,-1.386 C223.788,-3.57 223.914,-6.426 223.914,-9.954 L223.914,-11.928 C223.914,-15.68 223.774,-18.564 223.494,-20.58 C222.738,-20.664 221.828,-20.888 220.764,-21.252 L220.89,-22.344 C222.486,-22.036 224.159,-21.882 225.909,-21.882 C227.659,-21.882 228.912,-21.98 229.668,-22.176 L229.752,-21.462 C228.996,-21.266 228.618,-20.944 228.618,-20.496 C228.618,-20.16 228.947,-19.453 229.605,-18.375 C230.263,-17.297 230.9,-16.254 231.516,-15.246 C233.364,-12.306 235.548,-8.694 238.068,-4.41 L238.194,-4.494 L238.194,-9.618 C238.194,-13.37 237.998,-16.191 237.606,-18.081 C237.214,-19.971 236.542,-21.07 235.59,-21.378 L235.674,-22.092 C236.402,-21.952 237.494,-21.882 238.95,-21.882 C240.406,-21.882 241.904,-22.036 243.444,-22.344 L243.57,-21.252 C242.422,-20.888 241.456,-20.664 240.672,-20.58 C240.392,-18.34 240.252,-15.456 240.252,-11.928 L240.252,-9.954 C240.252,-5.698 240.392,-2.814 240.672,-1.302 C241.848,-1.106 242.786,-0.882 243.486,-0.63 L243.36,0.462 C241.96,0.154 240.644,0 239.412,0 C238.18,0 237.228,0.056 236.556,0.168 C236.556,-0.448 236.129,-1.484 235.275,-2.94 C234.421,-4.396 233.644,-5.684 232.944,-6.804 C230.676,-10.472 228.45,-14.196 226.266,-17.976 L226.098,-17.892 L226.098,-12.264 C226.098,-6.692 226.518,-3.066 227.358,-1.386 C228.618,-1.246 229.85,-1.036 231.054,-0.756 L230.928,0.294 M246.512,-21.798 L256.172,-22.092 C259.364,-22.092 261.821,-21.336 263.543,-19.824 C265.265,-18.312 266.126,-16.051 266.126,-13.041 C266.126,-10.031 265.181,-7.224 263.291,-4.62 C261.401,-2.016 259.056,-0.308 256.256,0.504 C255.528,0.504 254.583,0.371 253.421,0.105 C252.259,-0.161 251.3,-0.448 250.544,-0.756 C250.236,-0.392 249.956,0.126 249.704,0.798 L248.822,0.588 C249.354,-1.904 249.62,-5.425 249.62,-9.975 C249.62,-14.525 249.494,-17.934 249.242,-20.202 C248.29,-20.566 247.38,-20.748 246.512,-20.748 L246.512,-21.798 M260.96,-17.598 C260.456,-18.55 259.749,-19.292 258.839,-19.824 C257.929,-20.356 256.935,-20.622 255.857,-20.622 C254.779,-20.622 253.848,-20.468 253.064,-20.16 C252.868,-18.34 252.77,-15.435 252.77,-11.445 C252.77,-7.455 252.826,-4.69 252.938,-3.15 C254.338,-2.506 255.773,-2.184 257.243,-2.184 C258.713,-2.184 259.882,-2.562 260.75,-3.318 C261.814,-5.334 262.346,-7.812 262.346,-10.752 C262.346,-13.496 261.884,-15.778 260.96,-17.598 " vector-effect="none"/>
  </g>
  <g stroke-linejoin="bevel" transform="matrix(0.3999,0,0,0.3999,1642.23,1174.82)" font-weight="400" font-style="normal" fill="none" stroke="#000000" stroke-width="1" stroke-linecap="square" font-size="32.5" font-family="MS Shell Dlg 2" stroke-opacity="1"/>
  <g stroke-linejoin="bevel" transform="matrix(0.999751,0,0,0.999751,0,0)" font-weight="400" font-style="normal" fill="none" stroke="#000000" stroke-width="1" stroke-linecap="square" font-size="32.5" font-family="MS Shell Dlg 2" stroke-opacity="1"/>
  <g stroke-linejoin="bevel" transform="matrix(11.8081,0,0,11.8081,0,0)" font-weight="400" font-style="normal" fill="none" stroke="#000000" stroke-width="1" stroke-linecap="square" font-size="32.5" font-family="MS Shell Dlg 2" stroke-opacity="1"/>
  <g stroke-linejoin="bevel" transform="matrix(11.8081,0,0,11.8081,0,0)" font-weight="400" font-style="normal" fill="none" stroke="#000000" stroke-width="1" stroke-linecap="square" font-size="32.5" font-family="MS Shell Dlg 2" stroke-opacity="1"/>
  <g stroke-linejoin="bevel" transform="matrix(11.8081,0,0,11.8081,0,0)" font-weight="400" font-style="normal" fill="none" stroke="#000000" stroke-width="1" stroke-linecap="square" font-size="32.5" font-family="MS Shell Dlg 2" stroke-opacity="1"/>
  <g stroke-linejoin="bevel" transform="matrix(1,0,0,1,0,0)" font-weight="400" font-style="normal" fill="none" stroke="#000000" stroke-width="1" stroke-linecap="square" font-size="32.5" font-family="MS Shell Dlg 2" stroke-opacity="1"/>
  <g stroke-linejoin="bevel" transform="matrix(11.8081,0,0,11.8081,0,0)" font-weight="400" font-style="normal" fill="none" stroke="#000000" stroke-width="1" stroke-linecap="square" font-size="32.5" font-family="MS Shell Dlg 2" stroke-opacity="1"/>
  <g stroke-linejoin="bevel" transform="matrix(11.8081,0,0,11.8081,0,0)" font-weight="400" font-style="normal" fill="none" stroke="#000000" stroke-width="1" stroke-linecap="square" font-size="32.5" font-family="MS Shell Dlg 2" stroke-opacity="1"/>
  <g stroke-linejoin="bevel" transform="matrix(1,0,0,1,0,0)" font-weight="400" font-style="normal" fill="none" stroke="#000000" stroke-width="1" stroke-linecap="square" font-size="32.5" font-family="MS Shell Dlg 2" stroke-opacity="1"/>
 </g>
</svg>
