<?xml version='1.0' encoding='UTF-8' standalone='no'?>
<svg height="209.973mm" width="296.926mm" viewBox="0 0 3507 2480" xmlns:xlink="http://www.w3.org/1999/xlink" xmlns:inkscape="http://www.inkscape.org/namespaces/inkscape" xmlns="http://www.w3.org/2000/svg" version="1.2" baseProfile="tiny">
 <defs/>
 <g stroke-linejoin="bevel" inkscape:label="Page" inkscape:groupmode="layer" fill="none" stroke="black" fill-rule="evenodd" stroke-width="1" stroke-linecap="square" id="Page">
  <g stroke-linejoin="bevel" transform="matrix(1,0,0,1,0,0)" font-weight="400" font-style="normal" fill="none" stroke="#000000" stroke-width="1" stroke-linecap="square" font-size="32.5" font-family="MS Shell Dlg 2" stroke-opacity="1"/>
  <g stroke-linejoin="bevel" transform="matrix(1,0,0,1,0,0)" font-weight="400" font-style="normal" fill="none" stroke="#000000" stroke-width="1" stroke-linecap="square" font-size="32.5" font-family="MS Shell Dlg 2" stroke-opacity="1"/>
  <g stroke-linejoin="bevel" transform="matrix(11.8081,0,0,11.8081,0,0)" font-weight="400" font-style="normal" fill="none" stroke="#000000" stroke-width="1" stroke-linecap="square" font-size="32.5" font-family="MS Shell Dlg 2" stroke-opacity="1"/>
  <g stroke-linejoin="bevel" transform="matrix(0.999751,0,0,0.999751,0,0)" font-weight="400" font-style="normal" fill="none" stroke="#000000" stroke-width="1" stroke-linecap="square" font-size="32.5" font-family="MS Shell Dlg 2" stroke-opacity="1"/>
  <g transform="matrix(0.999751,0,0,0.999751,0,0)" font-weight="400" font-style="normal" fill="#ffffff" stroke="none" fill-opacity="1" font-size="32.5" font-family="MS Shell Dlg 2">
   <path fill-rule="evenodd" d="M-2,-2 L3510,-2 L3510,2483 L-2,2483 L-2,-2" vector-effect="none"/>
  </g>
  <g stroke-linejoin="bevel" transform="matrix(0.999751,0,0,0.999751,0,0)" font-weight="400" font-style="normal" fill="none" stroke="#000000" stroke-width="1" stroke-linecap="square" font-size="32.5" font-family="MS Shell Dlg 2" stroke-opacity="1"/>
  <g stroke-linejoin="bevel" transform="matrix(11.8081,0,0,11.8081,0,0)" font-weight="400" font-style="normal" fill="none" stroke="#000000" stroke-width="1" stroke-linecap="square" font-size="32.5" font-family="MS Shell Dlg 2" stroke-opacity="1"/>
  <g stroke-linejoin="bevel" transform="matrix(11.8081,0,0,11.8081,0,0)" font-weight="400" font-style="normal" fill="none" stroke="#000000" stroke-width="1" stroke-linecap="square" font-size="32.5" font-family="MS Shell Dlg 2" stroke-opacity="1"/>
  <g stroke-linejoin="bevel" transform="matrix(1,0,0,1,0,0)" font-weight="400" font-style="normal" fill="none" stroke="#000000" stroke-width="1" stroke-linecap="square" font-size="32.5" font-family="MS Shell Dlg 2" stroke-opacity="1"/>
 </g>
 <defs/>
 <g stroke-linejoin="bevel" inkscape:label="Map 1: Background" inkscape:groupmode="layer" fill="none" stroke="black" fill-rule="evenodd" stroke-width="1" stroke-linecap="square" id="Map 1: Background">
  <g stroke-linejoin="bevel" transform="matrix(1,0,0,1,0,0)" font-weight="400" font-style="normal" fill="none" stroke="#000000" stroke-width="1" stroke-linecap="square" font-size="32.5" font-family="MS Shell Dlg 2" stroke-opacity="1"/>
  <g stroke-linejoin="bevel" transform="matrix(1,0,0,1,0,0)" font-weight="400" font-style="normal" fill="none" stroke="#000000" stroke-width="1" stroke-linecap="square" font-size="32.5" font-family="MS Shell Dlg 2" stroke-opacity="1"/>
  <g stroke-linejoin="bevel" transform="matrix(11.8081,0,0,11.8081,0,0)" font-weight="400" font-style="normal" fill="none" stroke="#000000" stroke-width="1" stroke-linecap="square" font-size="32.5" font-family="MS Shell Dlg 2" stroke-opacity="1"/>
  <g transform="matrix(11.8081,0,0,11.8081,0,0)" font-weight="400" font-style="normal" fill="#ffffff" stroke="none" fill-opacity="1" font-size="32.5" font-family="MS Shell Dlg 2">
   <path fill-rule="evenodd" d="M0,0 L297,0 L297,210 L0,210 L0,0" vector-effect="none"/>
  </g>
  <g stroke-linejoin="bevel" transform="matrix(11.8081,0,0,11.8081,0,0)" font-weight="400" font-style="normal" fill="none" stroke="#000000" stroke-width="1" stroke-linecap="square" font-size="32.5" font-family="MS Shell Dlg 2" stroke-opacity="1"/>
  <g stroke-linejoin="bevel" transform="matrix(11.8081,0,0,11.8081,0,0)" font-weight="400" font-style="normal" fill="none" stroke="#000000" stroke-width="1" stroke-linecap="square" font-size="32.5" font-family="MS Shell Dlg 2" stroke-opacity="1"/>
  <g stroke-linejoin="bevel" transform="matrix(11.8081,0,0,11.8081,0,0)" font-weight="400" font-style="normal" fill="none" stroke="#000000" stroke-width="1" stroke-linecap="square" font-size="32.5" font-family="MS Shell Dlg 2" stroke-opacity="1"/>
  <g stroke-linejoin="bevel" transform="matrix(11.8081,0,0,11.8081,0,0)" font-weight="400" font-style="normal" fill="none" stroke="#000000" stroke-width="1" stroke-linecap="square" font-size="32.5" font-family="MS Shell Dlg 2" stroke-opacity="1"/>
  <g stroke-linejoin="bevel" transform="matrix(1,0,0,1,0,0)" font-weight="400" font-style="normal" fill="none" stroke="#000000" stroke-width="1" stroke-linecap="square" font-size="32.5" font-family="MS Shell Dlg 2" stroke-opacity="1"/>
  <g stroke-linejoin="bevel" transform="matrix(11.8081,0,0,11.8081,0,0)" font-weight="400" font-style="normal" fill="none" stroke="#000000" stroke-width="1" stroke-linecap="square" font-size="32.5" font-family="MS Shell Dlg 2" stroke-opacity="1"/>
  <g stroke-linejoin="bevel" transform="matrix(11.8081,0,0,11.8081,0,0)" font-weight="400" font-style="normal" fill="none" stroke="#000000" stroke-width="1" stroke-linecap="square" font-size="32.5" font-family="MS Shell Dlg 2" stroke-opacity="1"/>
  <g stroke-linejoin="bevel" transform="matrix(1,0,0,1,0,0)" font-weight="400" font-style="normal" fill="none" stroke="#000000" stroke-width="1" stroke-linecap="square" font-size="32.5" font-family="MS Shell Dlg 2" stroke-opacity="1"/>
 </g>
 <defs/>
 <g stroke-linejoin="bevel" inkscape:label="Map 1: NoMansLandRivers" inkscape:groupmode="layer" fill="none" stroke="black" fill-rule="evenodd" stroke-width="1" stroke-linecap="square" id="Map 1: NoMansLandRivers">
  <g stroke-linejoin="bevel" transform="matrix(1,0,0,1,0,0)" font-weight="400" font-style="normal" fill="none" stroke="#000000" stroke-width="1" stroke-linecap="square" font-size="32.5" font-family="MS Shell Dlg 2" stroke-opacity="1"/>
  <g stroke-linejoin="bevel" transform="matrix(1,0,0,1,0,0)" font-weight="400" font-style="normal" fill="none" stroke="#000000" stroke-width="1" stroke-linecap="square" font-size="32.5" font-family="MS Shell Dlg 2" stroke-opacity="1"/>
  <g stroke-linejoin="bevel" transform="matrix(11.8081,0,0,11.8081,0,0)" font-weight="400" font-style="normal" fill="none" stroke="#000000" stroke-width="1" stroke-linecap="square" font-size="32.5" font-family="MS Shell Dlg 2" stroke-opacity="1"/>
  <g stroke-linejoin="bevel" transform="matrix(11.8081,0,0,11.8081,0,0)" font-weight="400" font-style="normal" fill="none" stroke="#000000" stroke-width="1" stroke-linecap="square" font-size="32.5" font-family="MS Shell Dlg 2" stroke-opacity="1"/>
  <g transform="matrix(0.999751,0,0,0.999751,0,0)" font-weight="400" font-style="normal" fill="#000000" stroke="none" fill-opacity="0" font-size="32.5" font-family="MS Shell Dlg 2">
   <rect height="2480" x="0" width="3508" y="0"/>
  </g>
  <g stroke-linejoin="bevel" transform="matrix(0.999751,0,0,0.999751,0,0)" font-weight="400" font-style="normal" fill="none" stroke="#000000" stroke-width="1" stroke-linecap="square" font-size="32.5" font-family="MS Shell Dlg 2" stroke-opacity="1"/>
  <g stroke-linejoin="bevel" transform="matrix(0.999751,0,0,0.999751,0,0)" font-weight="400" font-style="normal" fill="none" stroke="#1f78b4" stroke-width="3.07087" stroke-linecap="square" font-size="32.5" font-family="MS Shell Dlg 2" stroke-opacity="1">
   <path fill-rule="evenodd" d="M1260.85,660.28 L1259.63,657.654 L1258.58,654.838 L1257.52,652.022 L1256.45,649.206 L1255.35,646.39 L1254.22,643.592 L1253.06,640.814 L1251.85,638.055 L1250.59,635.315 L1249.26,632.594 L1247.85,629.93 L1246.33,627.324 L1244.67,624.812 L1242.83,622.433 L1240.66,620.321 L1238.22,618.533 L1235.63,616.991 L1232.93,615.64 L1230.17,614.423 L1227.38,613.281 L1224.56,612.158 L1221.76,611.036 L1218.98,609.856 L1216.24,608.562 L1213.62,607.078 L1211.13,605.365 L1208.92,603.31 L1207.15,600.875 L1206.06,598.078 L1205.68,595.09 L1205.78,592.084 L1206.2,589.096 L1206.83,586.147 L1207.59,583.217 L1208.44,580.344 L1209.36,577.451 L1210.31,574.597 L1211.24,571.724 L1212.15,568.851 L1213.03,565.977 L1213.83,563.066 L1214.53,560.136 L1215.08,557.167 L1215.46,554.18 L1215.58,551.155 L1215.41,548.148 L1215.03,545.161 L1214.51,542.192 L1213.88,539.243 L1213.18,536.313 L1212.42,533.383 L1211.6,530.49 L1210.81,527.807" vector-effect="none"/>
   <path fill-rule="evenodd" d="M1417.6,714.681 L1417.54,714.7 L1417.56,716.926 L1417.75,719.933 L1417.94,722.939 L1418.17,725.945 L1418.44,728.952 L1418.7,731.958 L1419.03,734.946 L1419.37,737.933 L1419.75,740.94 L1420.17,743.908 L1420.66,746.895 L1421.21,749.845 L1421.84,752.794 L1422.56,755.705 L1423.46,758.578 L1424.47,761.414 L1425.63,764.192 L1426.86,766.932 L1428.22,769.615 L1429.66,772.26 L1431.2,774.847 L1432.82,777.397 L1434.5,779.89 L1436.25,782.363 L1438.05,784.78 L1439.9,787.158 L1441.8,789.499 L1443.76,791.782 L1445.76,794.047 L1447.81,796.254 L1449.89,798.442 L1451.96,800.63 L1454.07,802.78 L1456.24,804.873 L1458.49,806.871 L1460.79,808.812 L1463.15,810.696 L1465.57,812.523 L1468.02,814.254 L1470.53,815.891 L1473.12,817.451 L1475.75,818.916 L1478.45,820.248 L1481.23,821.333 L1484.08,822.17 L1486.97,822.836 L1489.9,823.331 L1492.87,823.673 L1495.86,823.825 L1498.85,823.825 L1501.85,823.692 L1504.86,823.502 L1507.87,823.235 L1510.87,822.931 L1513.88,822.646 L1516.91,822.379 L1519.91,822.132 L1522.94,821.961 L1525.94,821.846 L1528.97,821.789 L1531.99,821.751 L1535.02,821.675 L1538.05,821.656 L1541.05,821.656 L1544.08,821.694 L1547.1,821.713 L1550.13,821.751 L1553.15,821.751 L1556.16,821.751 L1559.19,821.713 L1562.21,821.637 L1565.22,821.504 L1568.24,821.333 L1571.25,821.066 L1574.24,820.724 L1577.2,820.191 L1580.12,819.506 L1583.01,818.688 L1585.86,817.774 L1588.68,816.728 L1591.48,815.662 L1594.23,814.483 L1596.97,813.246 L1599.7,811.914 L1602.38,810.544 L1605.04,809.136 L1607.69,807.709 L1610.33,806.243 L1612.98,804.778 L1615.6,803.294 L1618.25,801.81 L1620.89,800.364 L1623.56,798.956 L1626.28,797.662 L1629.08,796.882 L1630.79,797.51 L1631.62,798.252 L1632.31,799.013 L1631.91,800.649 L1629.82,802.723 L1627.69,804.778 L1625.57,806.833 L1623.48,808.907 L1621.41,811.019 L1619.39,813.17 L1617.43,815.396 L1615.57,817.679 L1613.83,820.077 L1612.33,822.608 L1611.06,825.29 L1610.05,828.088 L1609.25,830.961 L1608.68,833.91 L1608.32,836.878 L1608.14,839.885 L1608.09,842.891 L1608.14,845.898 L1608.28,848.904 L1608.47,851.911 L1608.7,854.917 L1608.91,857.923 L1609,860.93 L1609.02,863.955 L1609.02,866.962 L1609,869.987 L1609.04,872.994 L1609.15,876 L1609.38,879.006 L1609.72,881.994 L1610.2,884.943 L1610.87,887.854 L1611.7,890.69 L1612.84,893.353 L1614.18,895.865 L1615.66,898.282 L1617.28,900.641 L1619.12,902.886 L1621.39,904.865 L1623.79,906.692 L1626.24,908.443 L1628.64,910.231 L1630.88,912.134 L1632.9,914.208 L1634.5,916.472 L1635.47,918.927 L1635.93,921.572 L1635.7,924.426 L1634.86,927.28 L1633.66,930.039 L1632.27,932.722 L1630.79,935.329 L1629.23,937.917 L1627.61,940.467 L1625.95,942.978 L1625.81,943.188" vector-effect="none"/>
   <path fill-rule="evenodd" d="M1355.15,814.939 L1356.02,815.605 L1358.14,817.755 L1360.19,819.963 L1362.27,822.17 L1364.34,824.358 L1366.43,826.527 L1368.56,828.677 L1370.69,830.809 L1372.88,832.902 L1375.09,834.957 L1377.34,836.955 L1379.64,838.914 L1382.02,840.779 L1384.47,842.549 L1387.04,844.147 L1389.74,845.479 L1392.56,846.564 L1395.45,847.363 L1398.42,847.934 L1401.42,848.314 L1404.43,848.6 L1407.44,848.79 L1410.46,848.961 L1413.47,849.113 L1416.49,849.323 L1419.5,849.608 L1422.49,850.046 L1425.44,850.693 L1428.29,851.663 L1430.94,853.071 L1433.28,854.898 L1435.24,857.143 L1436.74,859.731 L1437.84,862.509 L1438.64,865.42 L1439.2,868.37 L1439.59,871.357 L1439.88,874.364 L1440.13,877.37 L1440.32,880.376 L1440.55,883.383 L1440.79,886.389 L1441.14,889.396 L1441.59,892.364 L1442.22,895.313 L1443.08,898.206 L1444.18,901.003 L1445.51,903.705 L1447.09,906.254 L1448.86,908.709 L1450.76,911.049 L1452.76,913.314 L1454.86,915.502 L1456.99,917.614 L1459.17,919.707 L1461.38,921.781 L1463.59,923.836 L1465.8,925.891 L1467.97,927.984 L1470.1,930.115 L1472.19,932.304 L1474.17,934.568 L1476.01,936.947 L1477.69,939.458 L1479.21,942.046 L1480.64,944.71 L1481.95,947.431 L1483.21,950.171 L1484.42,952.93 L1485.62,955.689 L1486.84,958.448 L1488.12,961.188 L1489.45,963.89 L1490.91,966.535 L1492.53,969.085 L1494.32,971.52 L1496.32,973.766 L1498.54,975.802 L1500.9,977.685 L1503.41,979.341 L1506.04,980.825 L1508.74,982.176 L1511.5,983.413 L1514.28,984.593 L1517.1,985.715 L1519.89,986.857 L1522.69,987.999 L1525.47,989.197 L1528.19,990.491 L1530.81,991.975 L1533.25,993.726 L1535.34,995.857 L1536.73,998.483 L1537.32,1001.39 L1537.32,1004.38 L1536.96,1007.35 L1536.45,1010.3 L1535.93,1013.27 L1535.65,1016.27 L1535.68,1016.71" vector-effect="none"/>
   <path fill-rule="evenodd" d="M688.904,457.613 L688.885,457.613 L688.314,455.425 L687.952,452.438 L687.648,449.431 L687.343,446.444 L687.02,443.437 L686.658,440.45 L686.24,437.463 L685.783,434.475 L685.231,431.526 L684.584,428.577 L683.804,425.684 L682.853,422.83 L681.711,420.071 L680.265,417.445 L678.476,415.029 L676.478,412.764 L674.366,410.614 L672.178,408.54 L669.914,406.542 L667.63,404.563 L665.347,402.584 L663.064,400.605 L660.837,398.569 L658.763,396.4 L657.013,394.003 L656.822,391.738 L657.527,389.988 L658.897,388.237 L661.275,386.829 L664.11,385.878 L667.002,385.06 L669.857,384.089 L672.463,382.7 L674.652,380.854 L676.402,378.59 L677.449,375.831 L678.039,372.901 L678.191,369.894 L678.02,366.888 L677.696,363.881 L677.316,360.894 L676.973,357.907 L676.669,354.9 L676.421,351.894 L676.174,348.887 L675.927,345.881 L675.679,342.894 L675.394,339.887 L675.07,336.881 L674.709,333.893 L674.309,330.906 L673.872,327.919 L673.339,324.95 L672.749,321.982 L672.083,319.052 L671.303,316.14 L670.408,313.267 L669.362,310.432 L668.239,307.635 L666.964,304.895 L665.556,302.25 L664.015,299.643 L662.379,297.093 L660.704,294.601 L658.954,292.146 L657.184,289.711 L655.357,287.294 L653.493,284.915 L651.628,282.556 L649.706,280.216 L649.14,279.537" vector-effect="none"/>
   <path fill-rule="evenodd" d="M669.533,607.839 L669.571,607.82 L668.468,606.012 L666.774,603.52 L665.062,601.027 L663.349,598.553 L661.637,596.061 L659.905,593.606 L658.154,591.132 L656.404,588.678 L654.634,586.242 L652.865,583.807 L651.057,581.371 L649.23,578.974 L647.404,576.576 L645.539,574.198 L643.655,571.838 L641.733,569.517 L639.792,567.214 L637.795,564.95 L635.759,562.724 L633.646,560.573 L631.458,558.499 L629.194,556.502 L626.853,554.618 L624.418,552.81 L621.944,551.098 L619.433,549.442 L616.864,547.844 L614.276,546.283 L611.65,544.78 L609.024,543.315 L606.36,541.869 L603.696,540.442 L601.033,539.034 L598.35,537.645 L595.667,536.237 L593.003,534.829 L590.339,533.421 L587.675,531.974 L585.049,530.49 L582.461,528.949 L579.911,527.313 L577.495,525.524 L575.269,523.526 L573.214,521.338 L571.482,518.921 L570.036,516.295 L568.894,513.517 L567.924,510.663 L566.991,507.809 L565.926,505.031 L564.556,502.424 L562.786,500.084 L560.769,497.895 L558.581,495.821 L556.336,493.804 L554.052,491.845 L551.693,489.961 L549.295,488.153 L546.841,486.403 L544.329,484.709 L541.779,483.111 L539.173,481.607 L536.509,480.199 L533.807,478.905 L531.048,477.707 L528.232,476.66 L525.377,475.88 L522.466,475.29 L519.536,474.891 L516.548,474.738 L513.542,474.776 L510.536,474.967 L507.51,475.214 L504.504,475.48 L501.497,475.709 L498.491,475.823 L495.484,475.766 L492.516,475.461 L489.605,474.891 L486.77,474.034 L484.068,472.855 L481.48,471.37 L479.101,469.601 L476.875,467.565 L474.801,465.377 L472.841,463.093 L470.957,460.734 L469.112,458.355 L467.304,455.939 L465.515,453.503 L463.708,451.087 L461.9,448.67 L460.054,446.292 L458.152,443.951 L456.173,441.668 L454.118,439.461 L451.967,437.367 L449.703,435.408 L447.344,433.581 L444.87,431.887 L442.301,430.346 L439.618,428.995 L436.859,427.796 L434.043,426.712 L431.189,425.703 L428.316,424.771 L425.423,423.877 L422.531,423.001 L419.639,422.126 L416.766,421.213 L413.893,420.261 L411.057,419.234 L408.26,418.111 L405.539,416.836 L402.913,415.352 L400.459,413.64 L398.233,411.661 L396.311,409.377 L394.731,406.847 L393.533,404.107 L392.657,401.214 L392.029,398.265 L391.592,395.278 L391.306,392.29 L391.154,389.284 L391.097,386.258 L391.135,383.252 L391.169,382.358" vector-effect="none"/>
   <path fill-rule="evenodd" d="M743.495,530.833 L744.827,531.366 L747.51,532.736 L750.193,534.125 L752.895,535.495 L755.597,536.827 L758.318,538.159 L761.039,539.433 L763.798,540.67 L766.576,541.869 L769.392,542.992 L772.227,544.019 L775.1,544.952 L778.012,545.732 L780.961,546.322 L783.967,546.664 L786.993,546.74 L790.018,546.645 L793.025,546.417 L796.031,546.036 L798.999,545.56 L801.968,545.009 L804.936,544.362 L807.866,543.658 L810.797,542.916 L813.727,542.135 L816.638,541.336 L819.55,540.518 L822.442,539.7 L825.296,538.71 L828.15,537.683 L830.985,536.636 L833.802,535.571 L836.618,534.467 L839.415,533.325 L842.193,532.108 L844.914,530.833 L847.616,529.463 L850.261,527.998 L852.829,526.418 L855.341,524.744 L857.758,522.917 L860.041,520.957 L862.229,518.883 L864.246,516.638 L866.111,514.259 L867.881,511.805 L869.555,509.312 L871.172,506.762 L872.714,504.175 L874.236,501.549 L875.682,498.923 L877.109,496.259 L878.498,493.576 L879.849,490.893 L881.162,488.172 L882.456,485.451" vector-effect="none"/>
   <path fill-rule="evenodd" d="M1086.42,763.887 L1085.69,764.705 L1083.37,766.608 L1080.99,768.492 L1078.63,770.357 L1076.29,772.26 L1073.95,774.181 L1071.67,776.141 L1069.41,778.139 L1067.2,780.194 L1065.05,782.325 L1062.99,784.533 L1061.07,786.854 L1059.38,789.347 L1057.89,791.972 L1056.56,794.674 L1055.38,797.453 L1054.34,800.269 L1053.42,803.142 L1052.62,806.053 L1051.92,808.983 L1051.31,811.933 L1050.78,814.901 L1050.36,817.889 L1050.04,820.895 L1049.83,823.901 L1049.77,826.908 L1050,829.914 L1050.45,832.883 L1051.29,835.775 L1052.51,838.534 L1054.09,841.084 L1056.01,843.405 L1058.26,845.422 L1060.73,847.096 L1063.49,848.105 L1066.42,847.591 L1069.18,846.354 L1071.84,844.946 L1074.56,843.652 L1077.44,842.739 L1080.42,842.853 L1082.84,844.566 L1084.36,847.154 L1085.35,850.008 L1086.04,852.938 L1086.57,855.906 L1086.97,858.894 L1087.31,861.9 L1087.62,864.888 L1087.88,867.894 L1088.15,870.9 L1088.41,873.907 L1088.7,876.913 L1089.02,879.901 L1089.39,882.907 L1089.8,885.894 L1090.3,888.863 L1090.89,891.812 L1091.61,894.742 L1092.49,897.635 L1093.67,900.394 L1095.06,903.077 L1096.56,905.703 L1098.12,908.271 L1099.74,910.821 L1101.39,913.352 L1103.1,915.825 L1104.84,918.299 L1106.61,920.754 L1108.39,923.189 L1110.2,925.606 L1112.03,928.003 L1113.87,930.382 L1115.74,932.76 L1117.62,935.12 L1119.51,937.479 L1121.43,939.801 L1123.35,942.141" vector-effect="none"/>
   <path fill-rule="evenodd" d="M1982.9,732.662 L1982.8,732.13 L1982.84,729.123 L1982.92,726.117 L1983.01,723.091 L1983.07,720.085 L1983.13,717.059 L1983.17,714.053 L1983.17,711.047 L1983.15,708.021 L1983.09,705.015 L1982.98,701.989 L1982.82,698.983 L1982.6,695.976 L1982.29,692.97 L1981.87,690.002 L1981.34,687.033 L1980.69,684.103 L1979.8,681.211 L1978.64,678.433 L1977.31,675.731 L1975.86,673.086 L1974.3,670.498 L1972.7,667.948 L1971.03,665.437 L1969.33,662.944 L1967.62,660.451 L1965.89,657.978 L1964.18,655.485 L1962.48,652.992 L1960.85,650.462 L1959.31,647.874 L1957.94,645.191 L1956.87,642.394 L1956.41,639.482 L1956.79,636.685 L1957.99,634.212 L1960.12,632.195 L1962.65,630.596 L1965.26,629.074 L1967.35,627.095 L1968.02,624.717 L1967.26,622.091 L1965.41,619.731 L1963.28,617.581 L1961.21,615.431 L1959.34,613.11 L1957.88,610.56 L1956.98,607.744 L1956.98,604.737 L1957.31,601.75 L1957.73,598.763 L1958.14,595.775 L1958.45,592.769 L1958.51,589.762 L1958.09,586.794 L1957,584.035 L1955.2,581.656 L1952.97,579.62 L1950.96,578.076" vector-effect="none"/>
   <path fill-rule="evenodd" d="M973.238,684.883 L973.219,684.883 L972.991,684.731 L971.964,681.934 L971.183,679.023 L970.422,676.111 L969.642,673.2 L968.862,670.289 L968.025,667.377 L967.13,664.504 L966.16,661.65 L965.094,658.834 L963.782,656.151 L962.221,653.62 L960.452,651.261 L958.492,649.053 L956.265,647.094 L953.849,645.305 L951.318,643.669 L948.73,642.127 L946.105,640.605 L943.498,639.083 L940.929,637.504 L938.455,635.81 L936.134,633.926 L934.136,631.795 L932.557,629.436 L931.358,626.886 L930.578,624.165 L930.235,621.292 L930.254,618.342 L930.597,615.393 L931.13,612.425 L931.757,609.494 L932.442,606.545 L933.051,603.596 L933.546,600.627 L933.812,597.659 L933.755,594.691 L933.451,591.779 L932.861,588.887 L931.967,586.071 L930.806,583.312 L929.398,580.667 L927.8,578.117 L926.087,575.625 L924.318,573.189 L922.567,570.734 L920.892,568.261 L919.332,565.73 L917.924,563.123 L916.725,560.44 L915.679,557.681 L914.842,554.846 L914.214,551.935 L913.681,549.004 L913.319,546.017 L913.072,543.03 L912.901,540.004 L912.749,536.998 L912.596,533.991 L912.387,530.985 L912.083,527.998 L911.626,525.029 L910.96,522.118 L910.028,519.302 L908.848,516.581 L907.459,513.974 L905.86,511.481 L904.091,509.084 L902.112,506.82 L900.038,504.631 L897.888,502.519 L895.719,500.407 L893.549,498.314 L891.437,496.164 L889.458,493.919 L887.803,491.502 L887.023,489.028 L887.042,486.897 L887.365,485.013 L887.898,483.187 L888.716,481.303 L890.067,479.305 L892.008,477.421 L894.348,475.709 L896.86,474.11 L899.429,472.531 L901.96,470.876 L904.338,469.068 L906.431,467.013 L908.22,464.787 L909.837,462.503 L911.321,460.106 L912.615,457.575 L913.643,454.873 L914.309,451.981 L914.708,449.032 L914.899,446.025 L914.899,443.019 L914.727,440.012 L914.423,437.025 L913.966,434.038 L913.376,431.069 L912.672,428.139 L911.835,425.247 L910.865,422.392 L909.685,419.614 L908.429,416.874 L906.983,414.229 L906.85,414.013" vector-effect="none"/>
   <path fill-rule="evenodd" d="M784.557,675.578 L786.536,673.866 L788.781,671.868 L791.046,669.87 L793.31,667.872 L795.555,665.855 L797.801,663.819 L800.027,661.783 L802.215,659.709 L804.403,657.616 L806.553,655.504 L808.666,653.354 L810.74,651.166 L812.776,648.939 L814.755,646.656 L816.657,644.297 L818.446,641.861 L820.082,639.33 L821.567,636.723 L822.841,633.983 L823.907,631.167 L824.82,628.294 L825.581,625.383 L826.266,622.452 L826.894,619.484 L827.484,616.535 L828.055,613.566 L828.626,610.617 L829.254,607.668 L829.939,604.737 L830.738,601.826 L831.708,598.953 L832.869,596.194 L834.353,593.549 L836.218,591.189 L838.539,589.268 L841.241,587.936 L844.153,587.117 L847.14,586.699 L850.147,586.547 L853.172,586.585 L856.197,586.737 L859.204,586.927 L862.229,587.137 L865.236,587.308 L868.261,587.384 L871.287,587.327 L874.293,587.079 L877.28,586.566 L880.154,585.69 L882.913,584.473 L885.558,583.007 L888.126,581.409 L890.619,579.716 L893.055,577.927 L895.452,576.081 L897.793,574.198 L900.114,572.257 L902.397,570.297 L904.662,568.28 L906.907,566.263 L909.114,564.189 L911.283,562.115 L913.453,560.003" vector-effect="none"/>
   <path fill-rule="evenodd" d="M3152.81,1685.35 L3154.18,1686.19 L3156.53,1688.09 L3158.87,1690 L3161.23,1691.86 L3163.68,1693.65 L3166.21,1695.29 L3168.87,1696.69 L3171.75,1697.63 L3174.72,1697.3 L3177.44,1696.01 L3179.89,1694.24 L3182.25,1692.38 L3184.65,1690.55 L3187.14,1688.84 L3189.77,1687.37 L3192.55,1686.19 L3195.46,1685.37 L3198.41,1684.75 L3201.39,1684.21 L3204.38,1683.77 L3207.37,1683.36 L3210.36,1682.94 L3213.36,1682.5 L3216.33,1682.02 L3219.32,1681.51 L3222.27,1680.9 L3225.22,1680.2 L3228.11,1679.36 L3230.96,1678.35 L3233.72,1677.13 L3236.4,1675.73 L3238.94,1674.09 L3241.28,1672.19 L3243.46,1670.11 L3245.52,1667.91 L3247.5,1665.62 L3249.4,1663.28 L3251.28,1660.92 L3253.15,1658.54 L3255.05,1656.2 L3256.99,1653.9 L3259.05,1651.67 L3261.24,1649.6 L3263.6,1647.72 L3266.18,1646.18 L3269,1645.09 L3271.93,1644.44 L3274.94,1644.31 L3277.92,1644.58 L3280.89,1645.15 L3283.82,1645.91 L3286.71,1646.77 L3289.61,1647.66 L3292.5,1648.54 L3295.41,1649.33 L3298.38,1649.94 L3301.37,1650.25 L3304.39,1650.11 L3307.34,1649.47 L3308.64,1649.06" vector-effect="none"/>
   <path fill-rule="evenodd" d="M2484.46,1571.13 L2485.41,1573.76 L2486.08,1576.69 L2486.74,1579.63 L2487.43,1582.57 L2488.17,1585.48 L2488.97,1588.39 L2489.9,1591.26 L2490.98,1594.08 L2492.3,1596.78 L2494.01,1599.27 L2496.14,1601.4 L2498.67,1603.04 L2501.37,1604.35 L2504.17,1605.49 L2507.03,1606.5 L2509.9,1607.43 L2512.77,1608.37 L2515.63,1609.36 L2518.4,1610.56 L2520.65,1612.48 L2519.77,1615.06 L2517.26,1616.72 L2514.58,1618.07 L2511.84,1619.35 L2509.14,1620.7 L2506.55,1622.26 L2504.4,1624.31 L2504.21,1624.88" vector-effect="none"/>
   <path fill-rule="evenodd" d="M2950.38,1722.8 L2948.93,1721.07 L2946.88,1718.86 L2944.82,1716.66 L2942.73,1714.47 L2940.62,1712.32 L2938.46,1710.19 L2936.28,1708.11 L2934.03,1706.09 L2931.73,1704.15 L2929.35,1702.29 L2926.88,1700.58 L2924.27,1699.05 L2921.51,1697.82 L2918.62,1697 L2915.63,1696.58 L2912.61,1696.47 L2909.6,1696.5 L2906.57,1696.69 L2903.57,1696.92 L2900.54,1697.15 L2897.54,1697.36 L2894.51,1697.44 L2891.5,1697.25 L2888.59,1696.52 L2886.21,1694.73 L2885.11,1691.96 L2885.09,1688.95 L2885.68,1685.98 L2886.58,1683.11 L2887.66,1680.29 L2888.82,1677.51 L2890.06,1674.76 L2891.31,1672.02 L2892.55,1669.28 L2893.79,1666.52 L2894.97,1663.74 L2896.09,1660.94 L2897.1,1658.11 L2897.99,1655.21 L2898.66,1652.28 L2899.08,1649.3 L2899.15,1646.29 L2898.94,1643.28 L2898.51,1640.3 L2897.92,1637.35 L2897.19,1634.42 L2896.38,1631.51 L2895.5,1628.63 L2894.57,1625.76 L2893.64,1622.89 L2892.68,1620.03 L2891.77,1617.16 L2890.91,1614.27 L2890.15,1611.35 L2889.56,1608.39 L2889.2,1605.4 L2889.28,1602.39 L2890.06,1599.48 L2891.66,1596.95 L2893.86,1594.91 L2896.39,1593.3 L2899.1,1591.95 L2901.84,1590.69 L2904.58,1589.42 L2907.2,1587.93 L2909.54,1586.05 L2910.26,1585.03" vector-effect="none"/>
   <path fill-rule="evenodd" d="M585.696,704.063 L584.174,705.757 L581.833,707.66 L579.455,709.505 L577.076,711.37 L574.717,713.273 L572.414,715.214 L570.169,717.231 L568.019,719.343 L566.021,721.607 L564.27,724.062 L563.091,726.821 L562.596,729.789 L562.539,732.796 L562.767,735.802 L563.11,738.808 L563.49,741.796 L563.833,744.783 L564.004,747.809 L563.871,750.815 L563.148,753.726 L561.416,756.143 L558.886,757.741 L556.05,758.769 L553.101,759.416 L550.114,759.891 L547.126,760.234 L544.12,760.538 L541.113,760.881 L538.126,761.299 L535.158,761.851 L532.246,762.669 L529.468,763.868 L526.976,765.562 L525.875,766.614" vector-effect="none"/>
   <path fill-rule="evenodd" d="M1254.83,986.705 L1254.81,986.743 L1254.78,986.781 L1254.74,986.857 L1254.7,986.952 L1254.62,987.066 L1253.27,986.857 L1250.49,985.715 L1247.72,984.497 L1244.96,983.261 L1242.2,982.062 L1239.4,980.901 L1236.6,979.816 L1233.77,978.846 L1230.92,977.99 L1228.04,977.21 L1225.15,976.506 L1222.28,975.878 L1219.38,975.307 L1216.47,974.774 L1213.58,974.298 L1210.65,973.861 L1207.72,973.461 L1204.79,973.1 L1201.82,972.795 L1198.83,972.51 L1195.85,972.243 L1192.84,971.996 L1189.83,971.768 L1186.81,971.52 L1183.82,971.197 L1180.87,970.797 L1177.98,970.245 L1175.18,969.522 L1172.5,968.685 L1169.91,967.753 L1167.38,966.744 L1164.91,965.698 L1162.47,964.594 L1160.04,963.471 L1157.62,962.292 L1155.16,961.093 L1152.69,959.856 L1150.14,958.581 L1147.55,957.287 L1144.91,955.86 L1142.26,954.433 L1139.58,953.139 L1136.94,952.036 L1134.37,951.141 L1131.91,950.437 L1129.5,949.847 L1127.16,949.353 L1124.82,948.953 L1122.44,948.668 L1120,948.535 L1117.45,948.63 L1114.81,949.029 L1112.1,949.828 L1109.42,950.989 L1106.81,952.397 L1104.26,953.957 L1101.77,955.613 L1099.34,957.383 L1096.96,959.228 L1094.62,961.112 L1092.32,963.072 L1090.03,965.051 L1087.81,967.068 L1085.58,969.123 L1083.41,971.197 L1081.24,973.309 L1079.11,975.459 L1077,977.609 L1074.89,979.778 L1072.85,981.986 L1070.87,984.269 L1068.95,986.59 L1067.07,988.95 L1065.24,991.328 L1063.45,993.745 L1061.66,996.181 L1059.95,998.635 L1058.29,1001.15 L1056.7,1003.72 L1055.13,1006.28 L1053.61,1008.89 L1052.13,1011.52 L1050.64,1014.14 L1049.16,1016.77 L1047.68,1019.39 L1046.19,1022.02 L1044.65,1024.61 L1043.05,1027.18 L1041.4,1029.67 L1039.63,1032.07 L1037.69,1034.29 L1035.59,1036.27 L1033.35,1037.79 L1031.06,1038.84 L1028.84,1039.58 L1026.63,1040.12 L1024.4,1040.5 L1022.12,1040.8 L1019.72,1040.99 L1017.15,1041.05 L1014.4,1041.01 L1011.45,1040.92 L1008.44,1040.95 L1005.43,1041.01 L1002.5,1041.03 L999.611,1041.03 L996.776,1041.03 L993.96,1041.07 L991.163,1041.12 L988.385,1041.28 L985.588,1041.52 L982.752,1041.96 L979.917,1042.67 L977.082,1043.58 L974.266,1044.57 L971.469,1045.67 L968.71,1046.89 L966.027,1048.26 L963.42,1049.78 L960.87,1051.4 L958.378,1053.09 L955.904,1054.84 L953.43,1056.58 L950.957,1058.33 L948.464,1060.02 L945.952,1061.69 L943.441,1063.37 L940.91,1065 L938.36,1066.56 L935.753,1068.03 L933.146,1069.42 L930.483,1070.64 L927.8,1071.7 L925.098,1072.65 L922.396,1073.53 L919.656,1074.31 L916.897,1075.05 L914.1,1075.76 L911.245,1076.42 L908.353,1077.07 L905.404,1077.66 L902.435,1078.25 L899.543,1078.91 L896.746,1079.71 L894.006,1080.46 L891.342,1081.29 L888.754,1082.22 L886.262,1083.23 L883.826,1084.39 L881.448,1085.76 L879.164,1087.4 L877.09,1089.46 L875.225,1091.78 L873.532,1094.25 L871.972,1096.82 L870.525,1099.46 L869.213,1102.17 L867.976,1104.93 L866.853,1107.7 L865.788,1110.54 L864.798,1113.39 L863.98,1116.29 L863.314,1119.22 L862.857,1122.18 L862.673,1124.42" vector-effect="none"/>
   <path fill-rule="evenodd" d="M3166.34,1899.78 L3165.6,1900.94 L3163.2,1902.73 L3160.69,1904.44 L3158.22,1906.17 L3155.84,1908 L3153.61,1910.04 L3151.94,1912.47 L3151.88,1915.42 L3152.81,1918.29 L3154.07,1921.03 L3155.4,1923.74 L3156.68,1926.48 L3157.74,1929.27 L3158.6,1932.17 L3159.21,1935.12 L3159.55,1938.1 L3159.74,1941.13 L3159.89,1944.13 L3160.05,1947.14 L3160.29,1950.15 L3160.69,1953.13 L3161.32,1956.08 L3162.37,1958.92 L3163.95,1961.47 L3166.04,1963.64 L3168.44,1965.48 L3171.01,1967.06 L3173.67,1968.47 L3176.39,1969.8 L3179.11,1971.14 L3181.78,1972.54 L3184.34,1974.12 L3186.72,1975.99 L3188.8,1978.18 L3190.59,1980.59 L3192.03,1983.24 L3193.17,1986.03 L3194.14,1988.89 L3195.02,1991.76 L3195.91,1994.65 L3196.9,1997.51 L3198.06,2000.27 L3199.55,2002.89 L3201.45,2005.21 L3203.92,2006.89 L3206.68,2008.13 L3209.54,2009.11 L3212.45,2009.93 L3215.38,2010.64 L3218.33,2011.28 L3221.3,2011.87 L3224.25,2012.5 L3227.18,2013.21 L3229.97,2014.29 L3229.14,2016.16 L3226.43,2017.18 L3223.56,2017.92 L3220.67,2018.63 L3217.78,2019.41 L3214.92,2020.34 L3212.18,2021.6 L3209.84,2023.44 L3209.65,2023.73" vector-effect="none"/>
   <path fill-rule="evenodd" d="M2878.81,1760.55 L2878.43,1760.27 L2876.89,1757.72 L2875.5,1755.03 L2874.15,1752.35 L2872.8,1749.65 L2871.43,1746.95 L2870.06,1744.26 L2868.67,1741.58 L2867.24,1738.94 L2865.8,1736.27 L2864.31,1733.65 L2862.77,1731.06 L2861.19,1728.49 L2859.54,1725.98 L2857.79,1723.52 L2855.9,1721.16 L2853.83,1719 L2851.58,1716.98 L2849.19,1715.13 L2846.71,1713.42 L2844.16,1711.78 L2841.57,1710.24 L2838.95,1708.76 L2836.28,1707.31 L2833.62,1705.9 L2830.94,1704.5 L2828.27,1703.09 L2825.63,1701.64 L2822.98,1700.16 L2820.4,1698.64 L2817.85,1697.02 L2815.34,1695.34 L2812.86,1693.63 L2810.48,1691.77 L2808.22,1689.79 L2806.01,1687.73 L2803.84,1685.62 L2801.69,1683.49 L2799.58,1681.34 L2797.49,1679.17 L2795.37,1677 L2793.26,1674.85 L2791.13,1672.7 L2788.98,1670.59 L2786.79,1668.51 L2784.55,1666.5 L2782.25,1664.54 L2779.89,1662.67 L2777.45,1660.88 L2774.92,1659.23 L2772.35,1657.65 L2769.71,1656.18 L2766.99,1654.87 L2764.23,1653.67 L2761.41,1652.55 L2758.57,1651.52 L2755.72,1650.55 L2752.83,1649.66 L2749.92,1648.8 L2747.01,1648.02 L2744.08,1647.28 L2741.15,1646.56 L2738.2,1645.89 L2735.25,1645.24 L2732.28,1644.63 L2729.33,1644.03 L2726.36,1643.42 L2723.39,1642.83 L2720.44,1642.2 L2717.51,1641.48 L2714.6,1640.7 L2711.69,1639.88 L2708.76,1639.1 L2705.83,1638.36 L2702.88,1637.69 L2699.91,1637.14 L2696.92,1636.78 L2693.9,1636.62 L2690.89,1636.74 L2687.9,1637.18 L2684.97,1637.97 L2682.72,1638.9" vector-effect="none"/>
   <path fill-rule="evenodd" d="M1139.43,1155.12 L1139.35,1156.47 L1138.61,1159.38 L1137.79,1162.29 L1136.95,1165.19 L1136.14,1168.08 L1135.34,1170.99 L1134.56,1173.9 L1133.83,1176.83 L1133.13,1179.76 L1132.5,1182.71 L1131.93,1185.68 L1131.44,1188.65 L1131.08,1191.65 L1130.87,1194.66 L1130.96,1197.67 L1131.3,1200.65 L1131.86,1203.6 L1132.64,1206.52 L1133.57,1209.39 L1134.61,1212.2 L1135.78,1215 L1136.97,1217.76 L1138.21,1220.52 L1139.43,1223.28 L1140.63,1226.04 L1141.75,1228.84 L1142.78,1231.67 L1143.69,1234.54 L1144.41,1237.47 L1144.85,1240.44 L1145.06,1243.45 L1145.08,1246.46 L1144.97,1249.48 L1144.74,1252.49 L1144.43,1255.47 L1144.09,1258.48 L1143.75,1261.47 L1143.42,1264.47 L1143.18,1267.48 L1143.02,1270.49 L1143.02,1273.51 L1143.04,1273.71" vector-effect="none"/>
   <path fill-rule="evenodd" d="M1409.7,1050.9 L1412.46,1050.77 L1415.49,1050.75 L1418.51,1050.75 L1421.52,1050.75 L1424.54,1050.77 L1427.57,1050.75 L1430.59,1050.73 L1433.62,1050.7 L1436.63,1050.62 L1439.65,1050.51 L1442.68,1050.35 L1445.68,1050.16 L1448.69,1049.92 L1451.7,1049.57 L1454.68,1049.15 L1457.65,1048.6 L1460.58,1047.84 L1463.4,1046.76 L1466.12,1045.44 L1468.76,1043.98 L1471.33,1042.4 L1473.84,1040.72 L1476.32,1038.99 L1478.75,1037.2 L1481.17,1035.4 L1483.59,1033.59 L1486.02,1031.78 L1488.46,1030.03 L1490.97,1028.32 L1493.52,1026.72 L1496.18,1025.29 L1498.98,1024.15 L1501.91,1023.47 L1504.94,1023.41 L1507.81,1024.28 L1510.36,1025.9 L1512.57,1027.94 L1514.58,1030.2 L1516.49,1032.52 L1518.41,1034.86 L1520.41,1037.11 L1521.3,1037.92" vector-effect="none"/>
   <path fill-rule="evenodd" d="M3077.96,1624.54 L3077.37,1622.43 L3076.72,1619.48 L3076.09,1616.53 L3075.45,1613.6 L3074.8,1610.65 L3074.13,1607.7 L3073.47,1604.77 L3072.76,1601.84 L3072.06,1598.91 L3071.32,1595.98 L3070.56,1593.05 L3069.78,1590.14 L3068.94,1587.25 L3068.08,1584.35 L3067.17,1581.48 L3066.22,1578.63 L3065.19,1575.79 L3064.09,1572.98 L3062.85,1570.22 L3061.48,1567.53 L3059.98,1564.93 L3058.34,1562.38 L3056.63,1559.9 L3054.84,1557.49 L3052.98,1555.11 L3051.05,1552.77 L3049.11,1550.46 L3047.13,1548.18 L3045.12,1545.94 L3043.1,1543.69 L3041.06,1541.46 L3039.03,1539.24 L3037.01,1536.99 L3034.99,1534.75 L3033.01,1532.46 L3031.07,1530.14 L3029.21,1527.78 L3027.42,1525.35 L3025.73,1522.86 L3024.09,1520.31 L3022.61,1517.68 L3021.24,1515 L3020,1512.26 L3018.84,1509.46 L3017.74,1506.66 L3016.59,1503.87 L3015.36,1501.11 L3013.95,1498.44 L3012.26,1495.95 L3010.24,1493.7 L3007.82,1491.9 L3005.22,1490.37 L3004.6,1490.08" vector-effect="none"/>
   <path fill-rule="evenodd" d="M3050.12,1908.86 L3050.12,1908.88 L3050.12,1908.91 L3047.69,1909.96 L3044.81,1910.84 L3041.9,1911.67 L3038.99,1912.51 L3036.1,1913.35 L3033.21,1914.22 L3030.31,1915.12 L3027.44,1916.05 L3024.59,1917.04 L3021.77,1918.09 L3018.97,1919.23 L3016.23,1920.46 L3013.55,1921.81 L3010.98,1923.32 L3008.53,1924.99 L3006.19,1926.82 L3004.04,1928.89 L3002,1931.12 L3000.1,1933.44 L2998.25,1935.82 L2996.44,1938.25 L2994.67,1940.69 L2992.88,1943.13 L2991.06,1945.52 L2989.14,1947.84 L2987.12,1950.03 L2984.91,1952.03 L2982.53,1953.71 L2980.02,1954.96 L2977.4,1955.76 L2974.69,1956.16 L2971.92,1956.16 L2969.12,1955.87 L2966.28,1955.19 L2963.49,1954.24 L2960.71,1953.1 L2957.95,1951.88 L2955.19,1950.66 L2952.37,1949.54 L2949.52,1948.61 L2946.63,1948 L2943.7,1947.48 L2940.73,1947.08 L2937.72,1946.89 L2934.7,1946.87 L2931.69,1946.87 L2928.68,1946.99 L2925.68,1947.22 L2922.67,1947.58 L2919.7,1948.09 L2916.79,1948.8 L2913.92,1949.69 L2911.18,1950.87 L2908.55,1952.28 L2906.06,1953.91 L2903.68,1955.72 L2901.46,1957.72 L2899.4,1959.89 L2897.44,1962.19 L2895.59,1964.57 L2893.77,1966.97 L2891.96,1969.38 L2890.1,1971.76 L2888.17,1974.08 L2886,1976.12 L2883.72,1978.02 L2881.34,1979.81 L2878.79,1981.37 L2876.15,1982.84 L2873.48,1984.23 L2870.78,1985.6 L2868.1,1986.99 L2865.45,1988.43 L2862.85,1989.95 L2860.32,1991.59 L2857.9,1993.38 L2855.62,1995.32 L2853.43,1997.37 L2851.34,1999.54 L2849.38,2001.85 L2847.47,2004.19 L2845.61,2006.55 L2843.84,2008.98 L2842.16,2011.49 L2840.66,2014.1 L2839.35,2016.82 L2838.28,2019.64 L2837.54,2022.57 L2837.18,2025.56 L2837.22,2028.56 L2837.69,2031.55 L2838.59,2034.42 L2839.73,2037.2 L2841.1,2039.88 L2842.62,2042.49 L2844.26,2045 L2845.99,2047.48 L2847.8,2049.89 L2849.68,2052.25 L2851.6,2054.57 L2853.58,2056.86 L2855.6,2059.1 L2857.63,2061.31 L2859.73,2063.5 L2861.84,2065.65 L2863.99,2067.78 L2866.16,2069.87 L2868.37,2071.95 L2870.57,2073.98 L2872.82,2076 L2875.08,2078 L2877.39,2079.96 L2879.71,2081.88 L2882.07,2083.74 L2884.5,2085.53 L2886.99,2087.24 L2889.54,2088.84 L2892.15,2090.35 L2894.81,2091.79 L2897.5,2093.16 L2900.2,2094.49 L2902.94,2095.79 L2905.68,2097.06 L2908.42,2098.32 L2911.18,2099.55 L2913.94,2100.81 L2916.68,2102.07 L2919.4,2103.36 L2922.12,2104.69 L2924.8,2106.06 L2927.45,2107.53 L2930.04,2109.07 L2932.55,2110.74 L2934.94,2112.57 L2937.19,2114.57 L2939.23,2116.78 L2941.03,2119.17 L2942.61,2121.74 L2944,2124.42 L2945.22,2127.16 L2946.3,2129.98 L2947.17,2132.55" vector-effect="none"/>
   <path fill-rule="evenodd" d="M1359.98,566.244 L1358.12,564.018 L1356.39,561.563 L1354.63,559.108 L1352.85,556.673 L1351,554.275 L1349.08,551.954 L1347.06,549.709 L1344.89,547.634 L1342.48,545.846 L1339.74,544.704 L1336.71,544.552 L1333.72,544.894 L1330.75,545.484 L1327.82,546.188 L1324.88,546.911 L1321.93,547.539 L1318.94,547.958 L1315.93,547.825 L1313.33,546.417 L1312.11,543.696 L1311.97,540.689 L1312.34,537.702 L1312.93,534.753 L1313.65,531.822 L1314.43,528.911 L1315.25,526 L1316.07,523.088 L1316.86,520.196 L1317.63,517.266 L1318.31,514.336 L1318.88,511.367 L1319.34,508.399 L1319.57,505.392 L1319.49,502.367 L1319,499.399 L1318.23,496.487 L1317.53,494.209" vector-effect="none"/>
   <path fill-rule="evenodd" d="M931.072,871.376 L929.17,871.852 L926.163,872.08 L923.138,872.251 L920.131,872.461 L917.125,872.727 L914.119,873.07 L911.131,873.507 L908.163,874.116 L905.271,874.972 L902.511,876.19 L900.209,878.112 L898.268,880.433 L896.556,882.907 L895.014,885.495 L893.549,888.14 L892.141,890.804 L890.771,893.487 L889.363,896.17 L887.803,898.757 L885.672,899.88 L884.302,897.673 L883.845,894.704 L883.56,891.698 L883.255,888.711 L882.818,885.723 L882.133,882.793 L880.934,880.053 L878.822,878.036 L876.044,876.913 L873.589,876.343" vector-effect="none"/>
   <path fill-rule="evenodd" d="M1927.4,787.996 L1927.4,788.015 L1927.4,788.034 L1927,788.452 L1924.24,789.632 L1921.4,790.66 L1918.55,791.668 L1915.69,792.677 L1912.86,793.666 L1910,794.693 L1907.17,795.74 L1904.35,796.806 L1901.54,797.89 L1898.72,799.032 L1895.94,800.212 L1893.2,801.448 L1890.5,802.78 L1887.82,804.169 L1885.19,805.616 L1882.57,807.119 L1880,808.698 L1877.49,810.353 L1874.99,812.066 L1872.54,813.836 L1870.14,815.643 L1867.76,817.508 L1865.42,819.411 L1863.14,821.371 L1860.91,823.407 L1858.72,825.5 L1856.63,827.65 L1854.59,829.857 L1852.65,832.16 L1850.83,834.538 L1849.11,837.012 L1847.55,839.542 L1846.11,842.168 L1844.81,844.851 L1843.69,847.629 L1842.76,850.445 L1842,853.338 L1841.45,856.268 L1841.07,859.255 L1840.84,862.243 L1840.78,865.249 L1840.84,868.256 L1841.03,871.262 L1841.33,874.249 L1841.71,877.237 L1842.21,880.224 L1842.76,883.173 L1843.39,886.123 L1844.09,889.053 L1844.97,891.945 L1845.92,894.8 L1846.95,897.635 L1847.99,900.451 L1849.08,903.267 L1850.28,906.026 L1851.55,908.766 L1852.9,911.449 L1854.31,914.132 L1855.76,916.758 L1857.28,919.384 L1858.84,921.952 L1860.44,924.521 L1862.09,927.033 L1863.78,929.545 L1865.52,931.999 L1867.34,934.416 L1869.28,936.718 L1871.32,938.944 L1873.45,941.076 L1875.68,943.093 L1878.02,944.976 L1880.49,946.651 L1882.56,947.764" vector-effect="none"/>
   <path fill-rule="evenodd" d="M3287.34,1776.06 L3287.97,1775.07 L3289.93,1772.79 L3291.95,1770.54 L3293.96,1768.3 L3295.98,1766.05 L3297.96,1763.79 L3299.94,1761.5 L3301.9,1759.2 L3303.84,1756.88 L3305.74,1754.54 L3307.61,1752.16 L3309.42,1749.76 L3311.2,1747.31 L3312.9,1744.84 L3314.53,1742.29 L3316.06,1739.68 L3317.43,1737 L3318.66,1734.26 L3319.73,1731.42 L3320.62,1728.55 L3321.38,1725.64 L3322.03,1722.69 L3322.6,1719.72 L3323.1,1716.75 L3323.55,1713.76 L3323.97,1710.78 L3324.37,1707.79 L3324.77,1704.8 L3325.21,1701.81 L3325.66,1698.84 L3326.22,1695.88 L3326.88,1692.93 L3327.68,1690.04 L3328.73,1687.2 L3329.97,1684.46 L3331.49,1681.85 L3333.22,1679.4 L3335.14,1677.08 L3337.12,1674.81 L3339.14,1672.55 L3341.04,1670.21 L3342.71,1667.72 L3343.97,1664.98 L3344.71,1662.06 L3344.96,1659.06 L3344.95,1658.84" vector-effect="none"/>
   <path fill-rule="evenodd" d="M1216.32,1193.01 L1215.46,1194.3 L1213.28,1196.35 L1211.03,1198.37 L1208.8,1200.43 L1206.65,1202.52 L1204.58,1204.71 L1202.66,1207.05 L1201.04,1209.6 L1200.09,1212.41 L1199.92,1215.42 L1200.39,1218.39 L1201.23,1221.28 L1202.22,1224.14 L1203.19,1226.97 L1204.09,1229.84 L1204.77,1232.77 L1205.19,1235.74 L1205.42,1238.75 L1205.46,1241.77 L1205.36,1244.78 L1205.19,1247.79 L1204.98,1250.79 L1204.77,1253.8 L1204.58,1256.83 L1204.41,1259.83 L1204.35,1262.84 L1204.39,1265.79" vector-effect="none"/>
   <path fill-rule="evenodd" d="M899.426,957.864 L898.839,957.953 L896.461,959.266 L894.52,961.207 L893.169,963.814 L892.293,966.668 L891.666,969.618 L891.19,972.586 L890.79,975.592 L890.448,978.58 L890.105,981.567 L889.744,984.573 L889.23,987.523 L888.183,990.225 L886.832,990.643 L885.253,989.026 L884.397,986.153 L883.693,983.222 L883.027,980.273 L882.323,977.343 L881.543,974.432 L880.648,971.558 L879.564,968.742 L878.175,966.078 L876.291,963.776 L873.722,962.33 L870.811,961.835 L867.824,962.063 L864.874,962.691 L861.982,963.529 L859.109,964.499 L856.274,965.507 L853.438,966.535 L850.584,967.524 L847.692,968.438 L844.762,969.161 L841.774,969.598 L840.29,969.542" vector-effect="none"/>
   <path fill-rule="evenodd" d="M1911.18,1627.03 L1911.24,1627.05 L1910.67,1629.75 L1909.83,1632.65 L1909.05,1635.56 L1908.37,1638.49 L1907.85,1641.46 L1907.66,1644.44 L1908.08,1647.32 L1909.15,1650.04 L1910.96,1652.42 L1913.12,1654.51 L1915.5,1656.37 L1918,1658.07 L1920.56,1659.67 L1923.17,1661.19 L1925.78,1662.73 L1928.35,1664.31 L1930.88,1665.95 L1933.39,1667.62 L1935.9,1669.29 L1938.41,1670.97 L1940.96,1672.61 L1943.53,1674.2 L1946.12,1675.73 L1948.78,1677.19 L1951.48,1678.52 L1952.32,1678.88" vector-effect="none"/>
   <path fill-rule="evenodd" d="M1780.78,1550.77 L1781.01,1550.48 L1783.54,1548.92 L1786.21,1547.5 L1788.87,1546.07 L1791.5,1544.57 L1794.05,1542.95 L1796.48,1541.18 L1798.65,1539.09 L1800.35,1536.63 L1801.43,1533.85 L1801.87,1530.89 L1801.85,1527.88 L1801.6,1524.87 L1801.3,1521.87 L1801.05,1518.88 L1800.99,1515.87 L1801.24,1512.88 L1801.75,1509.92 L1802.67,1507.04 L1803.83,1504.27 L1805.1,1501.53 L1806.38,1498.8 L1807.61,1496.05 L1808.7,1493.23 L1809.5,1490.34 L1809.86,1487.35 L1809.57,1484.36 L1808.7,1481.47 L1808.17,1480.27" vector-effect="none"/>
   <path fill-rule="evenodd" d="M513.466,315.056 L512.001,312.81 L510.288,310.318 L508.538,307.863 L506.749,305.447 L504.903,303.049 L502.981,300.728 L500.984,298.463 L498.89,296.275 L496.664,294.239 L494.248,292.451 L491.489,291.271 L488.558,290.643 L485.552,290.434 L482.526,290.51 L479.52,290.738 L476.514,291.042 L473.507,291.385 L470.482,291.632 L467.475,291.727 L464.469,291.385 L461.786,290.091 L460.72,287.37 L461.025,284.383 L461.824,281.49 L462.851,278.655 L463.917,275.82 L464.926,272.985 L465.763,270.093 L466.2,267.105 L465.877,264.156 L464.545,261.454 L462.756,259.037 L460.739,256.792 L458.589,254.68 L458.104,254.236" vector-effect="none"/>
   <path fill-rule="evenodd" d="M1766.59,781.602 L1766.55,782.478 L1765.68,785.332 L1764.63,788.148 L1763.55,790.964 L1762.48,793.799 L1761.43,796.615 L1760.41,799.45 L1759.44,802.305 L1758.5,805.178 L1757.67,808.07 L1756.9,811 L1756.32,813.95 L1756.03,816.937 L1756.11,819.963 L1756.39,822.95 L1756.89,825.918 L1757.55,828.868 L1758.37,831.76 L1759.32,834.633 L1760.35,837.468 L1761.47,840.265 L1762.61,843.063 L1763.75,845.841 L1764.92,848.638 L1766.06,851.435 L1767.14,854.232 L1768.09,857.105 L1769.04,859.959 L1769.96,862.833 L1770.85,865.706 L1771.75,868.598 L1772.64,871.471 L1773.54,874.364 L1774.45,877.237 L1775.36,880.11 L1776.31,882.964 L1777.28,885.818 L1778.29,888.673 L1779.34,891.489 L1780.42,894.305 L1781.57,897.102 L1782.74,899.88 L1784,902.62 L1785.33,905.322 L1786.74,907.986 L1788.24,910.612 L1789.98,913.085 L1791.86,915.445 L1793.86,917.709 L1795.93,919.897 L1798.06,922.029 L1800.27,924.103 L1802.5,926.12 L1804.76,928.118 L1807.04,930.096 L1809.35,932.056 L1811.63,934.016 L1813.91,935.995 L1816.2,937.993 L1818.42,940.01 L1820.63,942.084 L1822.78,944.196 L1824.85,946.403 L1826.83,948.668 L1828.7,951.046 L1830.41,953.539 L1831.95,956.127 L1833.32,958.81 L1834.5,961.588 L1835.51,964.423 L1836.38,967.315 L1837.13,970.226 L1837.81,973.176 L1838.44,976.125 L1839.05,979.074 L1839.66,982.024 L1840.32,984.973 L1841.07,987.903 L1841.92,990.796 L1842.93,993.631 L1843.71,995.424" vector-effect="none"/>
   <path fill-rule="evenodd" d="M2762.36,1938.25 L2759.98,1939.09 L2757.13,1940.06 L2754.27,1941.01 L2751.4,1941.95 L2748.53,1942.86 L2745.64,1943.79 L2742.76,1944.71 L2739.89,1945.66 L2737.04,1946.59 L2734.16,1947.56 L2731.31,1948.55 L2728.47,1949.58 L2725.64,1950.62 L2722.84,1951.75 L2720.06,1952.94 L2717.34,1954.26 L2714.64,1955.61 L2711.96,1956.98 L2709.29,1958.41 L2706.65,1959.89 L2704.06,1961.43 L2701.53,1963.09 L2699.07,1964.86 L2696.73,1966.76 L2694.53,1968.81 L2692.47,1971.02 L2690.61,1973.38 L2688.93,1975.89 L2687.51,1978.54 L2686.44,1981.35 L2685.7,1984.26 L2685.16,1987.23 L2684.77,1990.22 L2684.4,1993.21 L2684.06,1996.19 L2683.62,1999.18 L2683.11,2002.17 L2682.46,2005.1 L2681.57,2007.97 L2680.5,2010.81 L2679.32,2013.57 L2678.05,2016.31 L2676.72,2019.03 L2675.37,2021.71 L2674,2024.39 L2672.63,2027.1 L2671.26,2029.78 L2669.9,2032.48 L2668.57,2035.18 L2667.3,2037.92 L2666.08,2040.66 L2664.92,2043.46 L2663.83,2046.28 L2662.85,2049.13 L2661.99,2052 L2661.27,2054.93 L2660.77,2057.92 L2660.45,2060.91 L2660.31,2063.92 L2660.37,2066.92 L2660.58,2069.93 L2660.87,2072.93 L2661.25,2075.92 L2661.67,2078.91 L2662.14,2081.9 L2662.62,2084.87 L2663.11,2087.83 L2663.61,2090.82 L2664.04,2093.79 L2664.44,2096.8 L2664.71,2099.78 L2664.77,2102.79 L2664.41,2105.78 L2662.92,2108.33 L2660.03,2108.48 L2657.35,2107.13 L2654.85,2105.42 L2652.49,2103.55 L2650.21,2101.61 L2647.95,2099.61 L2645.7,2097.59 L2643.46,2095.58 L2641.21,2093.56 L2638.95,2091.56 L2636.66,2089.58 L2634.34,2087.66 L2631.98,2085.8 L2629.55,2083.99 L2627.05,2082.3 L2624.45,2080.76 L2621.73,2079.44 L2618.91,2078.38 L2616.04,2077.48 L2613.11,2076.76 L2610.14,2076.17 L2607.15,2075.67 L2604.16,2075.29 L2601.16,2074.97 L2598.15,2074.7 L2595.12,2074.46 L2592.12,2074.21 L2589.11,2073.98 L2586.11,2073.71 L2583.1,2073.39 L2580.09,2073.01 L2577.12,2072.52 L2574.17,2071.89 L2571.26,2071.09 L2568.43,2070.08 L2565.76,2068.69 L2563.25,2067.04 L2560.87,2065.17 L2558.61,2063.17 L2556.44,2061.08 L2554.33,2058.91 L2552.24,2056.74 L2550.12,2054.59 L2547.95,2052.5 L2545.65,2050.56 L2543.18,2048.81 L2540.51,2047.4 L2537.66,2046.49 L2534.69,2045.88 L2531.7,2045.44 L2528.7,2045.12 L2527.04,2045" vector-effect="none"/>
   <path fill-rule="evenodd" d="M2327.71,1583.73 L2328.49,1584.75 L2330.69,1586.81 L2332.9,1588.84 L2335.15,1590.86 L2337.41,1592.86 L2339.71,1594.8 L2342.05,1596.68 L2344.47,1598.49 L2346.96,1600.19 L2349.55,1601.71 L2352.35,1602.73 L2355.26,1603.29 L2358.26,1603.29 L2361.27,1603 L2364.26,1602.53 L2367.21,1601.94 L2370.18,1601.29 L2373.11,1600.62 L2376.06,1599.99 L2379.02,1599.44 L2382.03,1599.23 L2384.12,1600.66 L2382.91,1603.32 L2380.87,1605.53 L2378.68,1607.61 L2376.44,1609.62 L2374.19,1611.64 L2371.96,1613.68 L2369.78,1615.77 L2367.68,1617.94 L2365.72,1620.22 L2364.06,1622.55" vector-effect="none"/>
   <path fill-rule="evenodd" d="M2159.73,621.577 L2160.77,621.025 L2163.68,620.321 L2166.65,619.693 L2169.6,619.046 L2172.53,618.304 L2175.41,617.391 L2178.15,616.173 L2180.3,614.156 L2181.34,611.378 L2181.74,608.41 L2181.82,605.384 L2181.8,602.378 L2181.84,599.371 L2182.14,596.384 L2183.11,593.606 L2185.21,591.665 L2188.04,590.714 L2191.01,590.314 L2194.03,590.181 L2197.06,590.086 L2200.07,589.838 L2202.94,589.096 L2205.36,587.498 L2206.99,585.005 L2208.04,582.189 L2208.39,580.759" vector-effect="none"/>
   <path fill-rule="evenodd" d="M2110.92,847.249 L2112.78,849.361 L2114.5,851.853 L2116.17,854.346 L2117.88,856.839 L2119.62,859.312 L2121.44,861.71 L2123.38,864.031 L2125.51,866.162 L2128.01,867.837 L2130.88,868.636 L2133.91,868.655 L2136.89,868.294 L2139.88,867.761 L2142.83,867.171 L2145.82,866.638 L2148.8,866.296 L2151.83,866.448 L2154.42,867.856 L2155.69,870.539 L2155.88,873.545 L2155.6,876.552 L2155.12,879.52 L2154.57,882.488 L2154.06,885.457 L2153.64,888.444 L2153.63,888.501" vector-effect="none"/>
   <path fill-rule="evenodd" d="M1508.27,1430.4 L1506.06,1431.24 L1503.28,1432.42 L1500.5,1433.61 L1497.76,1434.87 L1495.06,1436.22 L1492.42,1437.69 L1489.89,1439.32 L1487.55,1441.23 L1485.91,1443.68 L1485.3,1446.63 L1485.22,1449.64 L1485.41,1452.64 L1485.7,1455.65 L1486.02,1458.64 L1486.29,1461.64 L1486.29,1464.65 L1485.03,1467.16 L1482.31,1466.25 L1480.03,1464.29 L1477.92,1462.12 L1475.9,1459.87 L1473.9,1457.61 L1471.94,1455.33 L1469.94,1453.04 L1467.97,1450.78 L1465.93,1448.55 L1463.86,1446.34 L1461.72,1444.21 L1459.52,1442.16 L1457.21,1440.22 L1454.76,1438.45 L1452.13,1436.94 L1449.43,1435.61 L1446.62,1434.49 L1443.76,1433.5 L1440.87,1432.64 L1437.96,1431.84 L1435.01,1431.14 L1432.06,1430.49 L1429.38,1429.94" vector-effect="none"/>
   <path fill-rule="evenodd" d="M2791.36,2123.11 L2791.36,2123.13 L2789.46,2123.91 L2786.55,2124.79 L2783.65,2125.62 L2780.76,2126.48 L2777.87,2127.35 L2774.98,2128.25 L2772.1,2129.18 L2769.25,2130.15 L2766.4,2131.18 L2763.58,2132.24 L2760.78,2133.41 L2758.02,2134.64 L2755.34,2136.01 L2752.73,2137.52 L2750.2,2139.17 L2747.8,2141 L2745.46,2142.92 L2743.2,2144.92 L2741.01,2146.99 L2738.9,2149.12 L2736.84,2151.35 L2734.87,2153.61 L2732.96,2155.95 L2731.12,2158.35 L2729.37,2160.81 L2727.69,2163.32 L2726.09,2165.89 L2724.59,2168.49 L2723.26,2171.2 L2722.04,2173.95 L2720.92,2176.75 L2719.89,2179.59 L2718.94,2182.46 L2718.06,2185.33 L2717.28,2188.24 L2716.54,2191.17 L2715.89,2194.12 L2715.32,2197.07 L2714.81,2200.06 L2714.39,2203.03 L2714.05,2206.04 L2713.8,2209.04 L2713.63,2212.05 L2713.57,2215.05 L2713.59,2218.08 L2713.69,2221.09 L2714.05,2224.07 L2714.6,2227.04 L2715.31,2229.97 L2716.12,2232.88 L2717.04,2235.76 L2718.03,2238.59 L2719.05,2241.43 L2720.14,2244.24 L2721.22,2247.06 L2722.33,2249.88 L2723.41,2252.69 L2724.46,2255.51 L2725.45,2258.36 L2726.32,2261.25 L2727.06,2264.17 L2727.62,2267.13 L2727.94,2270.12 L2728.02,2273.13 L2727.86,2276.13 L2727.56,2279.14 L2727.18,2282.13 L2726.76,2285.12 L2726.44,2288.12 L2726.28,2291.13 L2726.46,2294.13 L2726.62,2294.94" vector-effect="none"/>
   <path fill-rule="evenodd" d="M2624.05,2023.06 L2621.9,2022.47 L2619.06,2021.43 L2616.21,2020.44 L2613.35,2019.49 L2610.46,2018.63 L2607.51,2017.91 L2604.54,2017.39 L2601.52,2017.26 L2598.68,2018.15 L2596.32,2020 L2594.33,2022.26 L2592.48,2024.66 L2590.71,2027.1 L2588.88,2029.49 L2586.87,2031.74 L2584.49,2033.58 L2581.61,2034.27 L2578.78,2033.3 L2576.36,2031.51 L2574.17,2029.44 L2572.12,2027.23 L2570.12,2024.97 L2568.12,2022.68 L2566.13,2020.44 L2564.07,2018.23 L2561.92,2016.12 L2559.64,2014.14 L2557.18,2012.37 L2554.54,2010.94 L2551.68,2009.95 L2548.73,2009.27 L2545.75,2008.83 L2542.74,2008.53 L2542.51,2008.51" vector-effect="none"/>
   <path fill-rule="evenodd" d="M2244.13,1405.3 L2246.61,1404.94 L2249.6,1404.52 L2252.58,1404.1 L2255.57,1403.66 L2258.56,1403.21 L2261.55,1402.71 L2264.51,1402.14 L2267.46,1401.5 L2270.37,1400.71 L2273.25,1399.74 L2275.93,1398.41 L2278.18,1396.41 L2280.06,1394.07 L2281.71,1391.54 L2283.22,1388.94 L2284.61,1386.25 L2285.96,1383.55 L2287.29,1380.85 L2288.66,1378.17 L2290.13,1375.52 L2291.88,1373.07 L2294.33,1371.43 L2296.69,1372.97 L2297.87,1375.73 L2298.73,1378.62 L2299.47,1381.53 L2300.19,1384.47 L2300.97,1387.38 L2301.88,1390.25 L2302.85,1392.65" vector-effect="none"/>
   <path fill-rule="evenodd" d="M725.152,280.235 L727.093,278.389 L729.566,276.676 L732.078,275.021 L734.571,273.346 L737.044,271.615 L739.48,269.845 L741.839,267.962 L744.085,265.926 L746.064,263.661 L747.529,261.073 L748.404,258.2 L748.651,255.213 L748.537,252.187 L748.252,249.2 L747.909,246.194 L747.662,243.187 L747.662,240.181 L748.1,237.193 L749.241,234.415 L751.182,232.132 L753.694,230.476 L756.453,229.221 L759.307,228.231 L762.199,227.375 L765.13,226.614 L768.041,225.853 L770.971,225.073 L773.863,224.216 L776.718,223.227 L779.496,222.047 L782.141,220.582 L784.47,218.858" vector-effect="none"/>
   <path fill-rule="evenodd" d="M1656.34,493.728 L1656.11,493.386 L1655.68,490.455 L1655.45,487.449 L1655.24,484.443 L1654.93,481.436 L1654.48,478.468 L1653.74,475.557 L1652.35,472.969 L1650.29,470.895 L1647.63,469.525 L1644.75,468.554 L1641.84,467.812 L1638.89,467.07 L1636,466.252 L1633.17,465.205 L1630.46,463.835 L1627.91,462.256 L1625.44,460.524 L1623.08,458.66 L1620.78,456.7 L1618.51,454.702 L1616.21,452.742 L1613.87,450.839 L1611.44,449.051 L1608.89,447.433 L1606.2,446.082 L1603.35,445.093 L1600.34,444.845 L1597.32,444.979 L1597.03,445.007" vector-effect="none"/>
  </g>
  <g stroke-linejoin="bevel" transform="matrix(0.999751,0,0,0.999751,0,0)" font-weight="400" font-style="normal" fill="none" stroke="#000000" stroke-width="1" stroke-linecap="square" font-size="32.5" font-family="MS Shell Dlg 2" stroke-opacity="1"/>
  <g stroke-linejoin="bevel" transform="matrix(11.8081,0,0,11.8081,0,0)" font-weight="400" font-style="normal" fill="none" stroke="#000000" stroke-width="1" stroke-linecap="square" font-size="32.5" font-family="MS Shell Dlg 2" stroke-opacity="1"/>
  <g stroke-linejoin="bevel" transform="matrix(11.8081,0,0,11.8081,0,0)" font-weight="400" font-style="normal" fill="none" stroke="#000000" stroke-width="1" stroke-linecap="square" font-size="32.5" font-family="MS Shell Dlg 2" stroke-opacity="1"/>
  <g stroke-linejoin="bevel" transform="matrix(11.8081,0,0,11.8081,0,0)" font-weight="400" font-style="normal" fill="none" stroke="#000000" stroke-width="1" stroke-linecap="square" font-size="32.5" font-family="MS Shell Dlg 2" stroke-opacity="1"/>
  <g stroke-linejoin="bevel" transform="matrix(1,0,0,1,0,0)" font-weight="400" font-style="normal" fill="none" stroke="#000000" stroke-width="1" stroke-linecap="square" font-size="32.5" font-family="MS Shell Dlg 2" stroke-opacity="1"/>
  <g stroke-linejoin="bevel" transform="matrix(11.8081,0,0,11.8081,0,0)" font-weight="400" font-style="normal" fill="none" stroke="#000000" stroke-width="1" stroke-linecap="square" font-size="32.5" font-family="MS Shell Dlg 2" stroke-opacity="1"/>
  <g stroke-linejoin="bevel" transform="matrix(11.8081,0,0,11.8081,0,0)" font-weight="400" font-style="normal" fill="none" stroke="#000000" stroke-width="1" stroke-linecap="square" font-size="32.5" font-family="MS Shell Dlg 2" stroke-opacity="1"/>
  <g stroke-linejoin="bevel" transform="matrix(1,0,0,1,0,0)" font-weight="400" font-style="normal" fill="none" stroke="#000000" stroke-width="1" stroke-linecap="square" font-size="32.5" font-family="MS Shell Dlg 2" stroke-opacity="1"/>
 </g>
</svg>
