<?xml version='1.0' encoding='UTF-8' standalone='no'?>
<svg height="209.973mm" width="296.926mm" viewBox="0 0 3507 2480" xmlns:xlink="http://www.w3.org/1999/xlink" xmlns:inkscape="http://www.inkscape.org/namespaces/inkscape" xmlns="http://www.w3.org/2000/svg" version="1.2" baseProfile="tiny">
 <defs/>
 <g stroke-linejoin="bevel" inkscape:label="Page" inkscape:groupmode="layer" fill="none" stroke="black" fill-rule="evenodd" stroke-width="1" stroke-linecap="square" id="Page">
  <g stroke-linejoin="bevel" transform="matrix(1,0,0,1,0,0)" font-weight="400" font-style="normal" fill="none" stroke="#000000" stroke-width="1" stroke-linecap="square" font-size="32.5" font-family="MS Shell Dlg 2" stroke-opacity="1"/>
  <g stroke-linejoin="bevel" transform="matrix(1,0,0,1,0,0)" font-weight="400" font-style="normal" fill="none" stroke="#000000" stroke-width="1" stroke-linecap="square" font-size="32.5" font-family="MS Shell Dlg 2" stroke-opacity="1"/>
  <g stroke-linejoin="bevel" transform="matrix(11.8081,0,0,11.8081,0,0)" font-weight="400" font-style="normal" fill="none" stroke="#000000" stroke-width="1" stroke-linecap="square" font-size="32.5" font-family="MS Shell Dlg 2" stroke-opacity="1"/>
  <g stroke-linejoin="bevel" transform="matrix(0.999751,0,0,0.999751,0,0)" font-weight="400" font-style="normal" fill="none" stroke="#000000" stroke-width="1" stroke-linecap="square" font-size="32.5" font-family="MS Shell Dlg 2" stroke-opacity="1"/>
  <g transform="matrix(0.999751,0,0,0.999751,0,0)" font-weight="400" font-style="normal" fill="#ffffff" stroke="none" fill-opacity="1" font-size="32.5" font-family="MS Shell Dlg 2">
   <path fill-rule="evenodd" d="M-2,-2 L3510,-2 L3510,2483 L-2,2483 L-2,-2" vector-effect="none"/>
  </g>
  <g stroke-linejoin="bevel" transform="matrix(0.999751,0,0,0.999751,0,0)" font-weight="400" font-style="normal" fill="none" stroke="#000000" stroke-width="1" stroke-linecap="square" font-size="32.5" font-family="MS Shell Dlg 2" stroke-opacity="1"/>
  <g stroke-linejoin="bevel" transform="matrix(11.8081,0,0,11.8081,0,0)" font-weight="400" font-style="normal" fill="none" stroke="#000000" stroke-width="1" stroke-linecap="square" font-size="32.5" font-family="MS Shell Dlg 2" stroke-opacity="1"/>
  <g stroke-linejoin="bevel" transform="matrix(11.8081,0,0,11.8081,0,0)" font-weight="400" font-style="normal" fill="none" stroke="#000000" stroke-width="1" stroke-linecap="square" font-size="32.5" font-family="MS Shell Dlg 2" stroke-opacity="1"/>
  <g stroke-linejoin="bevel" transform="matrix(1,0,0,1,0,0)" font-weight="400" font-style="normal" fill="none" stroke="#000000" stroke-width="1" stroke-linecap="square" font-size="32.5" font-family="MS Shell Dlg 2" stroke-opacity="1"/>
 </g>
 <defs/>
 <g stroke-linejoin="bevel" inkscape:label="Map 1: Background" inkscape:groupmode="layer" fill="none" stroke="black" fill-rule="evenodd" stroke-width="1" stroke-linecap="square" id="Map 1: Background">
  <g stroke-linejoin="bevel" transform="matrix(1,0,0,1,0,0)" font-weight="400" font-style="normal" fill="none" stroke="#000000" stroke-width="1" stroke-linecap="square" font-size="32.5" font-family="MS Shell Dlg 2" stroke-opacity="1"/>
  <g stroke-linejoin="bevel" transform="matrix(1,0,0,1,0,0)" font-weight="400" font-style="normal" fill="none" stroke="#000000" stroke-width="1" stroke-linecap="square" font-size="32.5" font-family="MS Shell Dlg 2" stroke-opacity="1"/>
  <g stroke-linejoin="bevel" transform="matrix(11.8081,0,0,11.8081,0,0)" font-weight="400" font-style="normal" fill="none" stroke="#000000" stroke-width="1" stroke-linecap="square" font-size="32.5" font-family="MS Shell Dlg 2" stroke-opacity="1"/>
  <g transform="matrix(11.8081,0,0,11.8081,0,0)" font-weight="400" font-style="normal" fill="#ffffff" stroke="none" fill-opacity="1" font-size="32.5" font-family="MS Shell Dlg 2">
   <path fill-rule="evenodd" d="M0,0 L297,0 L297,210 L0,210 L0,0" vector-effect="none"/>
  </g>
  <g stroke-linejoin="bevel" transform="matrix(11.8081,0,0,11.8081,0,0)" font-weight="400" font-style="normal" fill="none" stroke="#000000" stroke-width="1" stroke-linecap="square" font-size="32.5" font-family="MS Shell Dlg 2" stroke-opacity="1"/>
  <g stroke-linejoin="bevel" transform="matrix(11.8081,0,0,11.8081,0,0)" font-weight="400" font-style="normal" fill="none" stroke="#000000" stroke-width="1" stroke-linecap="square" font-size="32.5" font-family="MS Shell Dlg 2" stroke-opacity="1"/>
  <g stroke-linejoin="bevel" transform="matrix(11.8081,0,0,11.8081,0,0)" font-weight="400" font-style="normal" fill="none" stroke="#000000" stroke-width="1" stroke-linecap="square" font-size="32.5" font-family="MS Shell Dlg 2" stroke-opacity="1"/>
  <g stroke-linejoin="bevel" transform="matrix(11.8081,0,0,11.8081,0,0)" font-weight="400" font-style="normal" fill="none" stroke="#000000" stroke-width="1" stroke-linecap="square" font-size="32.5" font-family="MS Shell Dlg 2" stroke-opacity="1"/>
  <g stroke-linejoin="bevel" transform="matrix(1,0,0,1,0,0)" font-weight="400" font-style="normal" fill="none" stroke="#000000" stroke-width="1" stroke-linecap="square" font-size="32.5" font-family="MS Shell Dlg 2" stroke-opacity="1"/>
  <g stroke-linejoin="bevel" transform="matrix(11.8081,0,0,11.8081,0,0)" font-weight="400" font-style="normal" fill="none" stroke="#000000" stroke-width="1" stroke-linecap="square" font-size="32.5" font-family="MS Shell Dlg 2" stroke-opacity="1"/>
  <g stroke-linejoin="bevel" transform="matrix(11.8081,0,0,11.8081,0,0)" font-weight="400" font-style="normal" fill="none" stroke="#000000" stroke-width="1" stroke-linecap="square" font-size="32.5" font-family="MS Shell Dlg 2" stroke-opacity="1"/>
  <g stroke-linejoin="bevel" transform="matrix(1,0,0,1,0,0)" font-weight="400" font-style="normal" fill="none" stroke="#000000" stroke-width="1" stroke-linecap="square" font-size="32.5" font-family="MS Shell Dlg 2" stroke-opacity="1"/>
 </g>
 <defs/>
 <g stroke-linejoin="bevel" inkscape:label="Map 1: ObscuronRivers" inkscape:groupmode="layer" fill="none" stroke="black" fill-rule="evenodd" stroke-width="1" stroke-linecap="square" id="Map 1: ObscuronRivers">
  <g stroke-linejoin="bevel" transform="matrix(1,0,0,1,0,0)" font-weight="400" font-style="normal" fill="none" stroke="#000000" stroke-width="1" stroke-linecap="square" font-size="32.5" font-family="MS Shell Dlg 2" stroke-opacity="1"/>
  <g stroke-linejoin="bevel" transform="matrix(1,0,0,1,0,0)" font-weight="400" font-style="normal" fill="none" stroke="#000000" stroke-width="1" stroke-linecap="square" font-size="32.5" font-family="MS Shell Dlg 2" stroke-opacity="1"/>
  <g stroke-linejoin="bevel" transform="matrix(11.8081,0,0,11.8081,0,0)" font-weight="400" font-style="normal" fill="none" stroke="#000000" stroke-width="1" stroke-linecap="square" font-size="32.5" font-family="MS Shell Dlg 2" stroke-opacity="1"/>
  <g stroke-linejoin="bevel" transform="matrix(11.8081,0,0,11.8081,0,0)" font-weight="400" font-style="normal" fill="none" stroke="#000000" stroke-width="1" stroke-linecap="square" font-size="32.5" font-family="MS Shell Dlg 2" stroke-opacity="1"/>
  <g transform="matrix(0.999751,0,0,0.999751,0,0)" font-weight="400" font-style="normal" fill="#000000" stroke="none" fill-opacity="0" font-size="32.5" font-family="MS Shell Dlg 2">
   <rect height="2480" x="0" width="3508" y="0"/>
  </g>
  <g stroke-linejoin="bevel" transform="matrix(0.999751,0,0,0.999751,0,0)" font-weight="400" font-style="normal" fill="none" stroke="#000000" stroke-width="1" stroke-linecap="square" font-size="32.5" font-family="MS Shell Dlg 2" stroke-opacity="1"/>
  <g stroke-linejoin="bevel" transform="matrix(0.999751,0,0,0.999751,0,0)" font-weight="400" font-style="normal" fill="none" stroke="#1f78b4" stroke-width="3.07087" stroke-linecap="square" font-size="32.5" font-family="MS Shell Dlg 2" stroke-opacity="1">
   <path fill-rule="evenodd" d="M1909.92,1406.34 L1909.51,1404.6 L1909.39,1401.9 L1909.29,1399.18 L1909.07,1396.48 L1908.55,1393.84 L1907.29,1391.5 L1904.86,1390.5 L1902.16,1390.74 L1899.51,1391.27 L1896.83,1391.74 L1894.15,1391.74 L1891.81,1390.61 L1890.58,1388.27 L1890.19,1385.6 L1890.1,1382.9 L1890.13,1380.19 L1890.2,1377.49 L1890.24,1374.77 L1890.19,1372.07 L1889.98,1369.37 L1889.55,1366.7 L1888.8,1364.11 L1887.59,1361.68 L1885.95,1359.53 L1884.07,1357.56 L1883.52,1357.06" vector-effect="none"/>
   <path fill-rule="evenodd" d="M894.958,1443.11 L896.479,1444.91 L898.17,1447.04 L899.862,1449.14 L901.57,1451.24 L903.313,1453.33 L905.09,1455.38 L906.901,1457.4 L908.729,1459.38 L910.626,1461.33 L912.557,1463.22 L914.573,1465.03 L916.674,1466.76 L918.895,1468.31 L921.253,1469.65 L923.765,1470.65 L926.379,1471.41 L929.044,1471.92 L931.727,1472.26 L934.426,1472.53 L937.126,1472.74 L939.842,1472.98 L942.542,1473.27 L945.225,1473.68 L947.873,1474.24 L950.47,1474.99 L952.999,1475.98 L955.442,1477.18 L957.8,1478.51 L960.055,1480.02 L962.225,1481.64 L964.343,1483.35 L966.377,1485.13 L968.393,1486.95 L970.358,1488.8 L972.322,1490.68 L974.27,1492.56 L976.235,1494.44 L978.2,1496.3 L980.216,1498.11 L982.249,1499.9 L984.351,1501.61 L986.504,1503.27 L988.725,1504.81 L991.048,1506.23 L993.44,1507.51 L995.918,1508.6 L998.447,1509.58 L1001.01,1510.46 L1003.59,1511.28 L1006.2,1512.04 L1008.82,1512.74 L1011.45,1513.39 L1014.1,1514.02 L1016.75,1514.62 L1019.39,1515.16 L1022.06,1515.71 L1024.72,1516.22 L1027.39,1516.7 L1030.07,1517.18 L1032.74,1517.62 L1035.42,1518.05 L1038.1,1518.46" vector-effect="none"/>
   <path fill-rule="evenodd" d="M1267.6,1091.61 L1268.52,1091.69 L1271.05,1092.62 L1273.56,1093.66 L1276.06,1094.7 L1278.58,1095.71 L1281.11,1096.66 L1283.68,1097.55 L1286.27,1098.34 L1288.9,1098.99 L1291.59,1099.42 L1294.29,1099.5 L1296.97,1099.14 L1299.57,1098.37 L1302.04,1097.28 L1304.42,1096 L1306.76,1094.61 L1309.08,1093.2 L1311.42,1091.85 L1313.82,1090.6 L1316.29,1089.52 L1318.86,1088.69 L1321.49,1088.05 L1324.19,1087.85 L1326.9,1087.93 L1329.6,1088.22 L1332.28,1088.62 L1334.95,1089.1 L1337.63,1089.59 L1340.3,1090.05 L1342.98,1090.45 L1345.68,1090.7 L1348.4,1090.75 L1351.1,1090.51 L1353.69,1089.8 L1356.15,1088.67 L1358.51,1087.32 L1360.75,1085.8 L1362.92,1084.16 L1365,1082.45 L1367.07,1080.69 L1369.12,1078.91 L1371.19,1077.15 L1373.29,1075.44 L1375.44,1073.8 L1377.66,1072.25 L1379.95,1070.8 L1382.36,1069.55 L1384.81,1068.39 L1387.28,1067.26 L1389.76,1066.2 L1392.27,1065.12 L1394.75,1064.06 L1397.24,1062.99 L1399.72,1061.86 L1402.17,1060.68 L1404.57,1059.43 L1406.93,1058.08 L1409.2,1056.62 L1411.39,1055.01 L1413.44,1053.25 L1415.29,1051.27 L1417,1049.17 L1418.6,1046.98 L1420.12,1044.74 L1421.56,1042.45 L1422.96,1040.13 L1424.31,1037.77 L1425.62,1035.41 L1426.91,1033.02 L1428.15,1030.61 L1428.28,1030.35" vector-effect="none"/>
   <path fill-rule="evenodd" d="M1137.03,1009.25 L1138.17,1008.5 L1140.65,1007.43 L1143.16,1006.42 L1145.67,1005.39 L1148.17,1004.35 L1150.66,1003.24 L1153.11,1002.08 L1155.52,1000.83 L1157.84,999.429 L1160.01,997.823 L1161.75,995.773 L1162.97,993.364 L1163.82,990.784 L1164.45,988.153 L1164.95,985.487 L1165.41,982.822 L1165.9,980.157 L1166.52,977.526 L1167.34,974.946 L1168.43,972.468 L1169.8,970.144 L1171.47,968.026 L1173.37,966.078 L1175.37,964.25 L1177.44,962.507 L1179.54,960.781 L1181.64,959.073 L1183.71,957.33 L1185.74,955.519 L1187.67,953.623 L1189.47,951.606 L1191.05,949.419 L1192.39,947.062 L1193.39,944.55 L1193.88,942.812" vector-effect="none"/>
   <path fill-rule="evenodd" d="M906.491,1299.73 L906.525,1299.71 L907.414,1301.71 L908.336,1304.26 L909.293,1306.78 L910.318,1309.3 L911.429,1311.77 L912.676,1314.17 L914.128,1316.44 L915.871,1318.45 L917.921,1320.16 L920.313,1321.39 L922.859,1322.25 L925.508,1322.81 L928.19,1323.22 L930.89,1323.56 L933.572,1323.9 L936.254,1324.3 L938.92,1324.83 L941.551,1325.44 L944.165,1326.19 L946.762,1326.96 L949.376,1327.71 L951.973,1328.47 L954.587,1329.22 L957.202,1329.94 L959.833,1330.64 L962.464,1331.3 L965.095,1331.95 L967.744,1332.55 L970.392,1333.11 L973.057,1333.63 L975.74,1334.09 L978.422,1334.46 L981.122,1334.75 L983.821,1334.96 L986.538,1334.99 L989.237,1334.87 L991.937,1334.65 L994.619,1334.31 L997.302,1333.9 L999.967,1333.4 L1002.63,1332.84 L1005.26,1332.21 L1007.89,1331.54 L1010.51,1330.84 L1013.12,1330.09 L1015.72,1329.3 L1018.32,1328.52 L1020.9,1327.71 L1023.49,1326.89 L1026.07,1326.07 L1028.67,1325.25 L1031.25,1324.45 L1033.87,1323.7 L1036.46,1322.95 L1039.11,1322.33 L1041.76,1321.79 L1044.42,1321.27 L1047.09,1320.78 L1049.77,1320.28 L1052.42,1319.75 L1055.07,1319.17 L1057.7,1318.49 L1060.28,1317.67 L1062.81,1316.68 L1065.25,1315.48 L1067.56,1314.06 L1069.8,1312.54 L1071.86,1310.78 L1073.69,1308.8 L1075.35,1306.65 L1076.9,1304.43 L1078.36,1302.15 L1079.77,1299.83 L1081.19,1297.52 L1082.63,1295.23 L1084.13,1292.98 L1085.77,1290.83 L1087.63,1288.86 L1089.8,1287.29 L1092.25,1286.35 L1094.88,1286.13 L1097.53,1286.56 L1100.12,1287.34 L1102.67,1288.25 L1105.25,1289.12 L1107.88,1289.72 L1110.55,1289.75 L1113.04,1288.88 L1115.11,1287.15 L1116.95,1285.17 L1118.66,1283.07 L1120.28,1280.88 L1121.82,1278.66 L1123.31,1276.39 L1124.73,1274.1" vector-effect="none"/>
   <path fill-rule="evenodd" d="M965.471,1396.06 L966.018,1397.73 L966.565,1400.38 L967.128,1403.03 L967.692,1405.68 L968.273,1408.33 L968.888,1410.96 L969.538,1413.59 L970.255,1416.2 L971.041,1418.8 L971.912,1421.36 L972.903,1423.87 L974.099,1426.32 L975.654,1428.52 L977.414,1430.57 L979.293,1432.54 L981.275,1434.38 L983.343,1436.14 L985.479,1437.8 L987.7,1439.37 L989.955,1440.87 L992.244,1442.31 L994.568,1443.71 L996.926,1445.08 L999.284,1446.39 L1001.66,1447.71 L1004.03,1449.01 L1006.43,1450.31 L1008.82,1451.59 L1011.21,1452.87 L1013.6,1454.15 L1016.01,1455.4 L1018.42,1456.64 L1020.85,1457.86 L1023.27,1459.04 L1025.73,1460.2 L1028.21,1461.33 L1030.69,1462.4 L1033.2,1463.43 L1035.73,1464.42 L1038.27,1465.34 L1040.85,1466.19 L1043.45,1466.98 L1046.08,1467.66 L1048.73,1468.26 L1051.41,1468.66 L1054.11,1468.95 L1056.81,1469.13 L1059.53,1469.27 L1062.23,1469.34 L1064.94,1469.39 L1067.66,1469.39 L1070.38,1469.36 L1073.09,1469.3 L1075.79,1469.24 L1078.51,1469.13 L1081.23,1469.03 L1083.94,1468.89 L1086.64,1468.74 L1089.36,1468.57 L1092.06,1468.4 L1094.78,1468.19 L1097.48,1467.99" vector-effect="none"/>
   <path fill-rule="evenodd" d="M984.727,1178.66 L986.025,1178.23 L988.469,1177.07 L990.895,1175.87 L993.321,1174.68 L995.747,1173.45 L998.139,1172.18 L1000.51,1170.88 L1002.87,1169.52 L1005.18,1168.1 L1007.42,1166.6 L1009.6,1164.97 L1011.64,1163.2 L1013.45,1161.2 L1014.95,1158.98 L1016.15,1156.57 L1017.09,1154.04 L1017.86,1151.44 L1018.51,1148.81 L1019.09,1146.16 L1019.68,1143.53 L1020.35,1140.9 L1021.15,1138.3 L1022.14,1135.79 L1023.43,1133.42 L1025.07,1131.26 L1027.07,1129.45 L1029.32,1127.95 L1031.64,1126.56 L1034.05,1125.3 L1036.5,1124.14 L1038.97,1123.06 L1041.5,1122.04 L1044.05,1121.1 L1046.61,1120.23 L1049.19,1119.41 L1051.81,1118.67 L1054.44,1118.02 L1057.08,1117.44 L1059.77,1116.96 L1062.45,1116.6 L1065.17,1116.38 L1067.87,1116.35 L1070.57,1116.57 L1073.21,1117.15 L1075.66,1118.28 L1077.66,1120.04 L1079.07,1122.29 L1080.03,1124.8 L1080.65,1127.44 L1081.02,1130.1 L1081.24,1132.8 L1081.36,1135.5 L1081.41,1138.22 L1081.41,1140.92 L1081.38,1143.62 L1081.35,1146.33 L1081.31,1149.03 L1081.3,1151.75 L1081.31,1154.45 L1081.4,1157.16 L1081.57,1159.86 L1081.82,1162.56 L1082.25,1165.23 L1082.88,1167.86 L1083.76,1170.42 L1084.87,1172.88 L1086.1,1175.31 L1087.43,1177.67 L1088.85,1179.97 L1090.32,1182.25 L1091.85,1184.49 L1093.43,1186.69 L1095.03,1188.88 L1096.64,1191.05 L1098.26,1193.22 L1099.88,1195.39 L1101.49,1197.57 L1103.08,1199.76 L1104.6,1202 L1106.07,1204.27 L1107.44,1206.61 L1108.67,1209 L1109.71,1211.5 L1110.49,1214.06 L1110.87,1216.73 L1110.92,1219.43 L1110.72,1222.11 L1110.31,1224.77 L1109.76,1227.42 L1109.15,1230.07 L1108.53,1232.7 L1108.02,1235.35 L1107.68,1238.03 L1107.62,1240.71 L1107.86,1243.38 L1108.26,1246.05 L1108.91,1248.68 L1109.67,1251.27 L1110.61,1253.8 L1111.73,1256.28 L1112.99,1258.65 L1114.42,1260.94 L1115.98,1263.15 L1117.67,1265.25 L1119.48,1267.25 L1121.38,1269.16 L1123.38,1270.99 L1125.46,1272.72 L1127.63,1274.34 L1129.84,1275.91 L1132.09,1277.41 L1134.4,1278.85 L1136.72,1280.23 L1139.08,1281.58 L1141.45,1282.86 L1143.86,1284.13 L1146.29,1285.33 L1148.73,1286.5 L1151.21,1287.63 L1153.69,1288.73 L1156.18,1289.78 L1158.71,1290.79 L1161.24,1291.75 L1163.79,1292.67 L1166.37,1293.56 L1168.95,1294.38 L1171.54,1295.15 L1174.17,1295.82 L1176.82,1296.36 L1179.49,1296.84 L1182.15,1297.2 L1184.85,1297.44 L1187.55,1297.59 L1190.27,1297.64 L1192.97,1297.63 L1195.68,1297.56 L1198.4,1297.47 L1201.1,1297.35 L1203.82,1297.23 L1206.53,1297.13 L1209.23,1297.05 L1211.95,1296.99 L1214.67,1297.03 L1217.38,1297.13 L1220.08,1297.37 L1222.77,1297.78 L1225.4,1298.4 L1227.96,1299.3 L1230.39,1300.5 L1232.61,1302.03 L1234.55,1303.93 L1236.16,1306.1 L1237.51,1308.44 L1238.62,1310.92 L1239.59,1313.43 L1240.45,1316.01 L1241.23,1318.59 L1242,1321.19 L1242.79,1323.77 L1243.61,1326.35 L1244.53,1328.89 L1245.59,1331.37 L1246.86,1333.78 L1248.34,1336.04 L1250.09,1338.1 L1251.98,1340.03 L1253.96,1341.88 L1256.03,1343.64 L1258.18,1345.31 L1260.37,1346.9 L1262.61,1348.42 L1264.88,1349.91 L1267.17,1351.36 L1269.48,1352.78 L1271.78,1354.2 L1274.09,1355.63 L1276.4,1357.09 L1278.65,1358.57 L1280.89,1360.09 L1283.1,1361.7 L1285.23,1363.37 L1287.3,1365.1 L1289.35,1366.88 L1291.38,1368.69 L1293.38,1370.51 L1295.36,1372.36 L1297.36,1374.21 L1299.34,1376.03 L1301.36,1377.86 L1303.39,1379.66 L1305.44,1381.42 L1307.54,1383.12 L1309.7,1384.78 L1311.9,1386.35 L1314.16,1387.86 L1316.48,1389.26 L1318.87,1390.49 L1321.35,1391.56 L1323.91,1392.44 L1326.54,1393.08 L1329.21,1393.58 L1331.91,1393.96 L1334.59,1394.25 L1337.31,1394.49 L1340.01,1394.69 L1342.71,1394.9 L1345.41,1395.1 L1348.11,1395.34 L1350.79,1395.66 L1353.47,1396.11 L1356.1,1396.76 L1358.61,1397.78 L1360.73,1399.37 L1361.93,1401.54 L1362.25,1403.87 L1361.98,1406.29 L1361.3,1408.75 L1360.36,1411.18 L1359.28,1413.6 L1358.14,1416.03 L1357.03,1418.47 L1355.97,1420.97 L1355.06,1423.51 L1354.39,1426.11 L1353.85,1428.74 L1353.4,1431.37 L1353.06,1434.02 L1352.84,1436.67 L1352.75,1439.34 L1352.87,1442.04 L1353.18,1444.7 L1353.54,1447.38 L1353.98,1450.03 L1354.51,1452.68 L1355.16,1455.31 L1355.91,1457.91 L1356.77,1460.47 L1357.74,1462.98 L1358.85,1465.46 L1360.12,1467.85 L1361.62,1470.11 L1363.18,1472.31 L1364.78,1474.5 L1366.49,1476.6 L1368.3,1478.62 L1370.22,1480.55 L1372.2,1482.37 L1374.28,1484.1 L1376.45,1485.72 L1378.67,1487.26 L1380.95,1488.7 L1383.27,1490.08 L1385.66,1491.28 L1388.14,1492.32 L1390.68,1493.19 L1393.33,1493.75 L1396.01,1494.04 L1398.71,1494.16 L1401.4,1494.16 L1404.08,1494.08 L1406.73,1493.98 L1409.38,1493.89 L1412.01,1493.91 L1414.64,1494.22 L1416.69,1495.72 L1417.27,1497.85 L1417.01,1500.14 L1416.12,1502.48 L1414.88,1504.77 L1413.44,1507 L1411.92,1509.2 L1410.35,1511.37 L1408.78,1513.56 L1407.21,1515.74 L1405.69,1518 L1404.27,1520.29 L1402.97,1522.66 L1401.94,1525.14 L1401.05,1527.65 L1400.27,1530.18 L1399.6,1532.74 L1399.02,1535.32 L1398.56,1537.95 L1398.25,1540.6 L1398.06,1543.29 L1397.98,1545.99 L1397.96,1548.7 L1398,1551.4 L1398.08,1554.1 L1398.17,1556.82 L1398.25,1559.52 L1398.29,1562.22 L1398.27,1564.9 L1398.17,1567.6 L1397.98,1570.28 L1397.71,1572.96 L1397.31,1575.63 L1396.82,1578.29 L1396.25,1580.94 L1395.66,1583.57 L1395.06,1586.22 L1394.51,1588.87 L1394.03,1591.52 L1393.68,1594.18" vector-effect="none"/>
   <path fill-rule="evenodd" d="M1208.33,1188.02 L1208.16,1189.87 L1207.7,1192.52 L1207.23,1195.2 L1206.81,1197.86 L1206.43,1200.55 L1206.12,1203.23 L1205.9,1205.93 L1205.8,1208.64 L1205.9,1211.34 L1206.35,1214.01 L1207.59,1216.38 L1209.39,1218.38 L1211.47,1220.14 L1213.66,1221.73 L1215.9,1223.27 L1218.1,1224.84 L1220.22,1226.53 L1222.13,1228.43 L1223.7,1230.63 L1224.7,1233.15 L1225.07,1235.83 L1224.92,1238.53 L1224.39,1241.18 L1223.62,1243.77 L1222.71,1246.32 L1221.74,1248.85 L1220.73,1251.36 L1219.74,1253.89 L1218.8,1256.42 L1217.96,1259 L1217.26,1261.61 L1216.8,1264.28 L1216.67,1266.98 L1217.02,1269.66 L1217.64,1272.29 L1218.41,1274.89 L1219.3,1277.45 L1220.27,1279.98 L1221.3,1282.49 L1222.39,1284.97 L1223.52,1287.43 L1224.7,1289.87 L1225.91,1292.3 L1227.14,1294.71 L1228.4,1297.1 L1229.7,1299.47" vector-effect="none"/>
   <path fill-rule="evenodd" d="M653.913,1554.92 L652.665,1555.89 L650.359,1557.33 L648.052,1558.73 L645.729,1560.13 L643.422,1561.57 L641.133,1563 L638.843,1564.45 L636.571,1565.94 L634.315,1567.46 L632.094,1569.02 L629.907,1570.61 L627.737,1572.25 L625.636,1573.95 L623.585,1575.73 L621.621,1577.61 L619.792,1579.59 L617.998,1581.63 L616.341,1583.76 L614.786,1585.98 L613.334,1588.27 L611.967,1590.61 L610.669,1592.99 L609.456,1595.41 L608.294,1597.86 L607.2,1600.33 L606.141,1602.83 L605.133,1605.34 L604.176,1607.87 L603.236,1610.42 L602.348,1612.98 L601.477,1615.54 L600.639,1618.12 L599.956,1620.74 L599.409,1623.38 L599.033,1626.07 L598.845,1628.77 L598.897,1631.48 L599.255,1634.16 L599.939,1636.78 L600.964,1639.27 L602.485,1641.48 L604.603,1643.13 L607.046,1644.31 L609.592,1645.25 L612.172,1646.07 L614.752,1646.89 L617.298,1647.87 L619.622,1649.23 L621.04,1651.46 L620.852,1654.07 L619.57,1656.46 L617.93,1658.6 L616.136,1660.63 L614.274,1662.61 L612.411,1664.58 L610.566,1666.56 L608.772,1668.61 L607.115,1670.75 L605.628,1673 L604.449,1675.44 L603.715,1678.04 L603.373,1680.72 L603.271,1683.42 L603.292,1684.28" vector-effect="none"/>
   <path fill-rule="evenodd" d="M830.596,1498.25 L830.562,1498.28 L830.408,1498.4 L831.177,1500.2 L832.544,1502.52 L833.945,1504.84 L835.363,1507.15 L836.798,1509.44 L838.268,1511.71 L839.771,1513.97 L841.309,1516.19 L842.898,1518.37 L844.555,1520.51 L846.298,1522.56 L848.126,1524.54 L850.023,1526.44 L852.005,1528.27 L854.055,1529.99 L856.208,1531.62 L858.429,1533.15 L860.718,1534.59 L863.059,1535.96 L865.434,1537.24 L867.86,1538.43 L870.304,1539.56 L872.798,1540.62 L875.327,1541.58 L877.873,1542.45 L880.47,1543.23 L883.067,1543.9 L885.715,1544.46 L888.363,1544.89 L891.029,1545.22 L893.711,1545.4 L896.393,1545.47 L899.076,1545.4 L901.758,1545.2 L904.424,1544.87 L907.072,1544.43 L909.703,1543.87 L912.3,1543.18 L914.863,1542.38 L917.358,1541.42 L919.698,1540.23 L921.937,1538.84 L924.072,1537.32 L926.123,1535.7 L928.139,1534.01 L930.155,1532.3 L932.068,1530.42 L933.948,1528.46 L935.793,1526.49 L937.69,1524.59 L939.672,1522.83 L941.739,1521.3 L943.892,1520.05 L946.096,1519.01 L948.368,1518.2 L950.743,1517.61 L953.204,1517.25 L955.766,1517.2 L958.398,1517.5 L961.029,1518.08 L963.626,1518.82 L966.206,1519.66 L968.769,1520.54 L971.314,1521.47 L973.86,1522.39 L976.423,1523.28 L979.003,1524.12 L981.583,1524.88 L984.197,1525.53 L986.811,1526.08 L989.442,1526.56 L992.091,1526.95 L994.739,1527.21 L997.421,1527.34 L1000.09,1527.34 L1002.79,1527.16 L1005.45,1526.83 L1008.13,1526.44 L1010.8,1525.99 L1013.45,1525.48 L1016.1,1524.94 L1018.73,1524.35 L1021.36,1523.72 L1023.97,1523.06 L1026.6,1522.37 L1029.22,1521.66 L1031.83,1520.94 L1034.43,1520.2 L1037.04,1519.42 L1039.62,1518.61 L1042.2,1517.74 L1044.75,1516.84 L1047.28,1515.86 L1049.82,1514.92 L1052.35,1513.93 L1054.85,1512.89 L1057.31,1511.8 L1059.75,1510.63 L1062.14,1509.4 L1064.5,1508.09 L1066.81,1506.72 L1069.03,1505.25 L1071.15,1503.66 L1073.15,1501.97 L1075.06,1500.2 L1076.9,1498.35 L1078.68,1496.47 L1080.42,1494.52 L1082.12,1492.54 L1083.7,1490.42 L1085.24,1488.22 L1086.75,1486 L1088.23,1483.74 L1089.74,1481.5 L1091.31,1479.28 L1092.96,1477.15 L1094.72,1475.15 L1096.64,1473.34 L1098.62,1471.65 L1100.65,1470.07 L1102.76,1468.62 L1104.92,1467.31 L1107.2,1466.16 L1109.59,1465.22 L1112.03,1464.43 L1114.56,1463.91 L1117.18,1463.73 L1119.81,1464.04 L1122.35,1464.88 L1124.73,1466.16 L1126.71,1467.99 L1128.21,1470.23 L1129.46,1472.64 L1130.57,1475.11 L1131.6,1477.63 L1132.62,1480.12 L1133.66,1482.61 L1134.81,1485.07 L1136.07,1487.47 L1137.54,1489.74 L1139.3,1491.79 L1141.39,1493.48 L1143.71,1494.88 L1146.15,1496.01 L1148.7,1496.95 L1151.3,1497.77 L1153.91,1498.5 L1156.51,1499.24 L1159.1,1500.02 L1161.67,1500.93 L1164.16,1501.99 L1166.57,1503.24 L1168.81,1504.76 L1170.81,1506.57 L1172.53,1508.65 L1174.04,1510.91 L1175.35,1513.27 L1176.53,1515.71 L1177.66,1518.17 L1178.74,1520.66 L1179.83,1523.14 L1180.94,1525.6 L1182.12,1528.05 L1183.4,1530.42 L1184.82,1532.73 L1186.44,1534.91 L1188.29,1536.88 L1190.42,1538.55 L1192.71,1539.99 L1195.1,1541.25 L1197.56,1542.38 L1200.08,1543.41 L1202.6,1544.38 L1205.15,1545.34 L1207.66,1546.33 L1210.16,1547.4 L1212.6,1548.58 L1214.92,1549.97 L1217.11,1551.57 L1219.04,1553.47 L1220.77,1555.54 L1222.25,1557.81 L1223.45,1560.23 L1224.44,1562.75 L1225.28,1565.33 L1225.99,1567.94 L1226.66,1570.55 L1227.33,1573.19 L1228.03,1575.8 L1228.81,1578.4 L1229.72,1580.94 L1230.83,1583.4 L1232.18,1585.74 L1233.8,1587.91 L1235.61,1589.93 L1237.51,1591.86 L1239.49,1593.71 L1241.54,1595.48 L1243.66,1597.17 L1245.85,1598.8 L1248.09,1600.32 L1250.38,1601.77 L1252.72,1603.12 L1255.13,1604.37 L1257.57,1605.53 L1260.08,1606.5 L1262.64,1607.22 L1265.24,1607.7 L1267.87,1607.99 L1270.55,1608.02 L1273.24,1607.85 L1275.94,1607.55 L1278.62,1607.17 L1281.3,1606.81 L1284,1606.5 L1286.68,1606.31 L1289.37,1606.33 L1292.03,1606.59 L1294.63,1607.17 L1297.12,1608.07 L1299.51,1609.3 L1301.79,1610.77 L1303.96,1612.41 L1306.04,1614.14 L1308.06,1615.95 L1310.02,1617.81 L1310.06,1617.85" vector-effect="none"/>
   <path fill-rule="evenodd" d="M3105.96,1181.73 L3105.97,1181.73 L3106.76,1183.72 L3107.6,1186.3 L3108.43,1188.86 L3109.29,1191.44 L3110.16,1194 L3111.05,1196.56 L3111.97,1199.11 L3112.93,1201.64 L3113.92,1204.17 L3114.96,1206.66 L3116.07,1209.12 L3117.25,1211.57 L3118.56,1213.94 L3120.02,1216.21 L3121.64,1218.37 L3123.42,1220.38 L3125.38,1222.24 L3127.47,1223.97 L3129.64,1225.59 L3131.87,1227.13 L3134.13,1228.62 L3136.44,1230.07 L3138.73,1231.51 L3141.03,1232.94 L3143.3,1234.39 L3145.54,1235.93 L3147.7,1237.55 L3149.64,1239.38 L3151.16,1241.48 L3152.07,1243.81 L3152.31,1246.25 L3151.98,1248.74 L3151.16,1251.24 L3150.02,1253.65 L3148.72,1256.01 L3147.41,1258.38 L3146.28,1260.82 L3145.59,1263.35 L3145.46,1265.9 L3145.82,1268.44 L3146.76,1270.94 L3148.02,1273.3 L3149.54,1275.53 L3151.23,1277.65 L3153.01,1279.7 L3154.8,1281.74 L3156.58,1283.77 L3158.37,1285.8 L3160.13,1287.85 L3161.89,1289.92 L3163.64,1291.99 L3165.4,1294.07 L3167.14,1296.12 L3168.92,1298.17 L3170.71,1300.21 L3172.54,1302.21 L3174.4,1304.17 L3176.31,1306.1 L3178.28,1307.98 L3180.3,1309.79 L3182.38,1311.52 L3184.53,1313.17 L3186.77,1314.7 L3189.09,1316.1 L3191.45,1317.41 L3193.72,1318.51" vector-effect="none"/>
   <path fill-rule="evenodd" d="M653.656,1410.68 L653.639,1410.68 L653.691,1409.44 L654.084,1406.75 L654.511,1404.09 L654.921,1401.41 L655.297,1398.72 L655.638,1396.04 L655.912,1393.34 L656.134,1390.64 L656.288,1387.94 L656.305,1385.24 L656.151,1382.54 L655.86,1379.88 L655.416,1377.21 L654.801,1374.6 L653.998,1372 L653.041,1369.47 L651.965,1366.99 L650.769,1364.57 L649.47,1362.19 L648.069,1359.87 L646.583,1357.6 L645.011,1355.39 L643.371,1353.24 L641.645,1351.16 L639.868,1349.11 L638.074,1347.09 L636.212,1345.11 L634.247,1343.25 L632.231,1341.43 L630.163,1339.69 L628.045,1338 L625.875,1336.38 L623.637,1334.82 L621.364,1333.35 L619.041,1331.95 L616.683,1330.64 L614.257,1329.42 L611.779,1328.31 L609.268,1327.3 L606.705,1326.4 L604.108,1325.66 L601.442,1325.19 L598.743,1324.93 L596.026,1324.81 L593.31,1324.83 L590.61,1324.91 L587.893,1325.07 L585.194,1325.24 L582.477,1325.41 L579.778,1325.56 L577.061,1325.65 L574.344,1325.65 L571.645,1325.51 L568.945,1325.29 L566.263,1324.93 L563.597,1324.4 L560.966,1323.75 L558.352,1323.03 L555.755,1322.25 L553.158,1321.44 L550.561,1320.68 L547.947,1319.97 L545.299,1319.38 L542.616,1318.95 L539.917,1318.74 L537.2,1318.85 L534.535,1319.34 L533.475,1319.66" vector-effect="none"/>
   <path fill-rule="evenodd" d="M908.695,1666.01 L908.217,1666.83 L906.372,1668.81 L904.509,1670.78 L902.681,1672.78 L900.904,1674.83 L899.247,1676.96 L897.76,1679.22 L896.667,1681.66 L896.257,1684.29 L896.855,1686.91 L898.017,1689.35 L899.349,1691.71 L900.631,1694.1 L901.69,1696.58 L902.425,1699.16 L902.766,1701.82 L902.869,1704.51 L902.732,1707.21 L902.408,1709.91 L901.946,1712.57 L901.417,1715.22 L900.836,1717.87 L900.221,1720.5 L899.588,1723.15 L898.956,1725.78 L898.358,1728.41 L897.76,1731.06 L897.214,1733.71 L896.718,1736.37 L896.308,1739.05 L895.983,1741.74 L895.778,1744.44 L895.71,1747.14 L895.898,1749.84 L896.257,1752.52 L896.718,1755.18 L897.316,1757.83 L898.034,1760.45 L898.82,1763.03 L899.674,1765.61 L900.579,1768.15 L901.536,1770.68 L902.527,1773.21 L903.535,1775.72 L904.543,1778.23 L905.551,1780.74 L906.559,1783.25 L907.516,1785.8 L908.422,1788.35 L909.242,1790.93 L909.823,1793.56 L910.096,1796.24 L910.062,1798.92 L909.669,1801.59 L908.971,1804.19" vector-effect="none"/>
   <path fill-rule="evenodd" d="M848.553,951.572 L846.742,950.633 L844.316,949.454 L841.89,948.241 L839.481,947.01 L837.072,945.78 L834.646,944.55 L832.219,943.337 L829.776,942.158 L827.316,941.013 L824.855,939.903 L822.344,938.843 L819.815,937.87 L817.252,936.981 L814.638,936.263 L811.973,935.836 L809.256,935.802 L806.557,936.007 L803.874,936.383 L801.192,936.844 L798.543,937.408 L795.895,938.023 L793.264,938.673 L790.633,939.339 L788.002,940.022 L785.37,940.672 L782.739,941.304 L780.074,941.85 L777.391,942.175 L774.777,941.731 L774.846,939.493 L776.469,937.374 L778.365,935.443 L780.347,933.598 L782.346,931.787 L784.362,929.976 L786.378,928.165 L788.36,926.32 L790.325,924.44 L792.239,922.527 L794.067,920.527 L795.793,918.443 L797.365,916.239 L798.748,913.932 L799.927,911.506 L800.782,908.943 L801.431,906.312 L801.926,903.647 L802.285,900.964 L802.559,898.282 L802.764,895.582 L802.934,892.866 L803.105,890.166 L803.276,887.467 L803.498,884.767 L803.789,882.085 L804.199,879.419 L804.728,876.771 L805.395,874.157 L806.3,871.611 L807.326,869.099 L808.419,866.622 L809.564,864.162 L810.708,861.701 L811.836,859.241 L812.93,856.781 L813.955,854.269 L814.86,851.723 L815.629,849.126 L816.227,846.478 L816.552,843.795 L816.415,841.113 L815.988,838.431 L815.424,835.782 L815.371,835.577" vector-effect="none"/>
   <path fill-rule="evenodd" d="M655.741,1073.63 L654.459,1073.14 L652.05,1071.89 L649.658,1070.61 L647.266,1069.33 L644.874,1068.05 L642.499,1066.76 L640.107,1065.48 L637.715,1064.2 L635.306,1062.94 L632.897,1061.67 L630.488,1060.43 L628.079,1059.2 L625.653,1057.98 L623.227,1056.77 L620.783,1055.59 L618.323,1054.43 L615.863,1053.3 L613.385,1052.19 L610.891,1051.13 L608.379,1050.12 L605.816,1049.25 L603.219,1048.43 L600.622,1047.66 L597.991,1047.03 L595.343,1046.42 L592.694,1045.87 L590.029,1045.34 L587.364,1044.86 L584.681,1044.4 L581.999,1043.99 L579.316,1043.6 L576.634,1043.25 L573.934,1042.93 L571.235,1042.64 L568.535,1042.38 L565.819,1042.18 L563.119,1041.99 L560.402,1041.85 L557.703,1041.77 L554.986,1041.72 L552.27,1041.73 L549.553,1041.8 L546.853,1041.96 L544.154,1042.11 L541.454,1042.37 L538.772,1042.79 L536.141,1043.44 L533.561,1044.26 L531.049,1045.27 L528.589,1046.43 L526.231,1047.76 L523.976,1049.27 L521.823,1050.91 L519.773,1052.69 L517.825,1054.57 L515.962,1056.51 L514.185,1058.56 L512.614,1060.77 L511.298,1063.13 L510.17,1065.6 L509.196,1068.11 L508.308,1070.68 L507.471,1073.26 L506.668,1075.84 L505.848,1078.42 L504.976,1080.98 L504.037,1083.53 L502.977,1086 L501.832,1088.45 L500.466,1090.79 L498.962,1093.04 L497.39,1095.25 L495.767,1097.42 L494.161,1099.6 L492.589,1101.81 L491.086,1104.06 L489.805,1106.28" vector-effect="none"/>
   <path fill-rule="evenodd" d="M1011.45,1564.64 L1012.29,1565.26 L1014.66,1566.59 L1017.04,1567.89 L1019.43,1569.15 L1021.84,1570.38 L1024.28,1571.58 L1026.74,1572.71 L1029.24,1573.77 L1031.78,1574.74 L1034.34,1575.58 L1036.97,1576.24 L1039.66,1576.53 L1042.32,1576.26 L1044.92,1575.59 L1047.43,1574.57 L1049.84,1573.36 L1052.22,1572.04 L1054.56,1570.67 L1056.91,1569.32 L1059.31,1568.06 L1061.78,1566.97 L1064.38,1566.2 L1067.05,1566.01 L1069.64,1566.62 L1071.86,1568.09 L1073.61,1570.14 L1074.99,1572.49 L1076.14,1574.93 L1077.11,1577.46 L1077.98,1580.02 L1078.77,1582.62 L1079.5,1585.21 L1080.18,1587.85 L1080.87,1590.46 L1081.53,1593.09 L1082.18,1595.72 L1082.87,1598.34 L1083.55,1600.95 L1084.29,1603.56 L1085.04,1606.16 L1085.86,1608.74 L1086.75,1611.3 L1087.72,1613.83 L1088.78,1616.33 L1089.97,1618.75 L1091.34,1621.09 L1092.81,1623.37 L1094.38,1625.57 L1096.06,1627.71 L1097.8,1629.77 L1099.61,1631.79 L1101.46,1633.77 L1103.34,1635.72 L1105.25,1637.63 L1107.2,1639.53 L1109.15,1641.41 L1111.11,1643.27 L1113.09,1645.13 L1115.06,1647 L1117.02,1648.86 L1118.99,1650.72 L1120.93,1652.62 L1122.85,1654.53 L1124.71,1656.51 L1126.47,1658.56 L1128.08,1660.75 L1129.26,1663.18 L1128.88,1665.65 L1126.5,1666.66 L1123.84,1666.88 L1121.14,1666.9 L1118.44,1666.85 L1115.74,1666.9 L1113.06,1667.26 L1110.7,1668.47 L1109.65,1669.78" vector-effect="none"/>
   <path fill-rule="evenodd" d="M706.981,1622.65 L708.143,1624.99 L709.151,1627.5 L710.176,1630 L711.235,1632.49 L712.329,1634.97 L713.456,1637.43 L714.652,1639.85 L715.917,1642.25 L717.267,1644.59 L718.736,1646.86 L720.393,1649.01 L722.273,1650.96 L724.272,1652.77 L726.544,1654.26 L728.97,1655.49 L731.465,1656.51 L734.028,1657.44 L736.608,1658.29 L739.188,1659.11 L741.768,1659.95 L744.313,1660.87 L746.808,1661.95 L749.149,1663.3 L751.131,1665.14 L752.549,1667.43 L753.266,1670.03 L753.523,1672.73 L753.471,1675.44 L753.352,1678.14 L753.283,1680.84 L753.591,1683.53 L754.701,1685.93 L756.752,1687.68 L759.246,1688.7 L761.895,1689.33 L764.56,1689.74 L767.259,1690.15 L769.908,1690.68 L772.471,1691.59 L774.623,1693.18 L775.649,1695.59 L775.802,1698.25 L775.495,1700.94 L774.982,1703.6 L774.35,1706.23 L773.684,1708.85 L773.017,1711.48 L772.402,1714.11 L771.856,1716.77 L771.463,1719.44 L771.24,1722.14 L771.3,1724.04" vector-effect="none"/>
   <path fill-rule="evenodd" d="M2998.81,1156.11 L2997.67,1155.8 L2995.33,1154.47 L2992.97,1153.12 L2990.56,1151.87 L2988.05,1150.86 L2985.42,1150.45 L2983.11,1151.54 L2981.69,1153.82 L2980.7,1156.33 L2979.74,1158.86 L2978.58,1161.3 L2976.91,1163.4 L2974.5,1164.44 L2971.83,1164.53 L2969.17,1164.1 L2966.55,1163.42 L2963.96,1162.62 L2961.38,1161.78 L2958.78,1160.96 L2956.16,1160.24 L2953.52,1159.66 L2950.83,1159.33 L2948.13,1159.42 L2945.49,1160 L2944.27,1160.44" vector-effect="none"/>
   <path fill-rule="evenodd" d="M847.169,1134.68 L847.169,1134.7 L847.152,1134.75 L846.725,1134.94 L844.026,1134.82 L841.326,1134.54 L838.627,1134.25 L835.927,1133.98 L833.227,1133.76 L830.528,1133.57 L827.811,1133.47 L825.112,1133.48 L822.446,1133.71 L819.798,1134.07 L817.167,1134.51 L814.57,1135.07 L811.99,1135.76 L809.444,1136.66 L806.984,1137.76 L804.541,1138.93 L802.166,1140.22 L799.825,1141.58 L797.518,1143 L795.229,1144.47 L792.991,1145.99 L790.752,1147.53 L788.514,1149.07 L786.31,1150.62 L784.123,1152.23 L781.953,1153.85 L779.8,1155.49 L777.716,1157.22 L775.7,1159.03 L773.701,1160.86 L771.719,1162.7 L769.737,1164.56 L767.772,1166.43 L765.79,1168.27 L763.791,1170.12 L761.792,1171.93 L759.742,1173.7 L757.657,1175.43 L755.539,1177.09 L753.352,1178.68 L751.096,1180.13 L748.807,1181.51 L746.432,1182.74 L744.006,1183.73 L741.511,1184.5 L738.983,1185.07 L736.403,1185.41 L733.771,1185.56 L731.106,1185.53 L728.406,1185.39 L725.707,1185.2 L723.007,1185.07 L720.308,1185.05 L717.66,1185.25 L715.063,1185.65 L712.483,1186.19 L709.971,1186.96 L707.528,1188 L705.17,1189.3 L702.863,1190.7 L700.659,1192.22 L698.524,1193.88 L696.456,1195.64 L694.457,1197.47 L692.492,1199.35 L690.579,1201.26 L688.682,1203.19 L686.769,1205.12 L684.872,1207.06 L682.958,1208.99 L681.028,1210.88 L679.114,1212.8 L677.183,1214.71 L675.287,1216.64 L673.39,1218.57 L671.528,1220.55 L669.7,1222.55 L667.906,1224.57 L666.163,1226.65 L664.472,1228.77 L662.848,1230.94 L661.311,1233.16 L659.944,1235.5 L658.85,1237.95 L657.962,1240.48 L657.227,1243.04 L656.732,1245.67 L656.424,1248.35 L656.219,1251.03 L656.1,1253.73 L656.014,1256.43 L655.929,1259.15 L655.809,1261.85 L655.604,1264.55 L655.211,1267.21 L654.528,1269.79 L653.417,1272.07 L651.931,1273.83 L650.273,1275.11 L648.496,1276.1 L646.566,1276.87 L644.396,1277.36 L641.97,1277.48 L639.424,1277.21 L636.844,1276.65 L634.264,1275.91 L631.718,1275.06 L629.172,1274.13 L626.644,1273.19 L624.115,1272.22 L621.569,1271.26 L619.024,1270.32 L616.461,1269.44 L613.881,1268.62 L611.284,1267.86 L608.67,1267.25 L606.038,1266.63 L603.407,1266.07 L600.759,1265.57 L598.111,1265.15 L595.428,1264.81 L592.746,1264.55 L590.046,1264.41 L587.347,1264.43 L584.63,1264.53 L581.93,1264.69 L579.214,1264.86 L576.514,1265.1 L573.815,1265.37 L571.132,1265.69 L568.45,1266.05 L565.767,1266.48 L563.102,1266.94 L560.454,1267.49 L557.822,1268.1 L555.208,1268.8 L552.628,1269.57 L550.066,1270.43 L547.554,1271.4 L545.094,1272.51 L542.684,1273.74 L540.344,1275.06 L538.054,1276.47 L535.85,1278.01 L533.714,1279.67 L531.681,1281.43 L529.716,1283.29 L527.854,1285.26 L526.077,1287.29 L524.386,1289.41 L522.78,1291.58 L521.242,1293.82 L519.773,1296.09 L518.389,1298.41 L517.427,1300.31" vector-effect="none"/>
   <path fill-rule="evenodd" d="M2778.51,1165.59 L2779.04,1168.08 L2779.36,1170.77 L2779.67,1173.45 L2780.01,1176.13 L2780.42,1178.81 L2780.92,1181.46 L2781.57,1184.09 L2782.42,1186.65 L2783.67,1189.05 L2785.6,1190.89 L2788.01,1192.11 L2790.59,1192.94 L2793.22,1193.63 L2795.85,1194.26 L2798.46,1194.96 L2801.03,1195.85 L2803.4,1197.16 L2805.13,1199.2 L2805.76,1201.79 L2805.45,1204.48 L2804.65,1207.06 L2803.61,1209.55 L2802.44,1212.01 L2801.21,1214.42 L2799.98,1216.83 L2798.77,1219.25 L2797.61,1221.7 L2796.55,1224.19 L2795.64,1226.74 L2795.27,1228.2" vector-effect="none"/>
   <path fill-rule="evenodd" d="M3257.61,1197.88 L3257.59,1197.9 L3257.51,1197.95 L3256.43,1197.5 L3254.48,1195.66 L3252.59,1193.71 L3250.64,1191.83 L3248.54,1190.24 L3246.3,1188.96 L3244.01,1187.8 L3241.62,1186.83 L3239.12,1186.13 L3236.46,1185.83 L3233.79,1185.82 L3231.11,1186.04 L3228.46,1186.5 L3225.85,1187.15 L3223.32,1188.04 L3220.87,1189.13 L3218.48,1190.35 L3216.18,1191.71 L3213.99,1193.3 L3211.87,1194.99 L3209.82,1196.75 L3207.85,1198.61 L3205.96,1200.55 L3204.16,1202.56 L3202.46,1204.68 L3200.9,1206.88 L3199.5,1209.19 L3198.27,1211.6 L3197.26,1214.11 L3196.37,1216.66 L3195.71,1219.27 L3195.25,1221.94 L3194.96,1224.64 L3194.8,1227.34 L3194.77,1230.04 L3194.8,1232.75 L3194.89,1235.45 L3194.99,1238.15 L3195.11,1240.87 L3195.25,1243.57 L3195.38,1246.27 L3195.52,1248.97 L3195.66,1251.67 L3195.81,1254.38 L3196,1257.08 L3196.2,1259.78 L3196.42,1262.48 L3196.7,1265.16 L3197.01,1267.86 L3197.35,1270.55 L3197.76,1273.23 L3198.24,1275.89 L3198.77,1278.54 L3199.38,1281.17 L3200.06,1283.79 L3200.8,1286.16" vector-effect="none"/>
   <path fill-rule="evenodd" d="M2285.99,1249.58 L2286.54,1250.28 L2287.65,1252.74 L2288.66,1255.25 L2289.7,1257.75 L2290.83,1260.21 L2292.13,1262.58 L2293.78,1264.67 L2295.89,1266.27 L2298.48,1267.01 L2301.18,1267.11 L2303.88,1266.89 L2306.58,1266.56 L2309.28,1266.26 L2311.98,1266 L2314.68,1265.8 L2317.38,1265.59 L2320.1,1265.49 L2322.81,1265.44 L2325.53,1265.42 L2328.23,1265.4 L2330.95,1265.4 L2333.66,1265.4 L2336.38,1265.37 L2339.1,1265.33 L2341.81,1265.25 L2344.51,1265.15 L2347.23,1264.98 L2349.93,1264.75 L2352.63,1264.46 L2355.31,1264.09 L2356.52,1263.88" vector-effect="none"/>
   <path fill-rule="evenodd" d="M1386.04,1310.46 L1388.51,1310.73 L1391.16,1311.33 L1393.79,1311.96 L1396.44,1312.59 L1399.07,1313.21 L1401.72,1313.82 L1404.37,1314.41 L1407.03,1314.95 L1409.7,1315.46 L1412.37,1315.94 L1415.05,1316.37 L1417.73,1316.73 L1420.43,1317.02 L1423.15,1317.19 L1425.85,1317.22 L1428.56,1317.12 L1431.25,1316.81 L1433.89,1316.3 L1436.51,1315.57 L1439.05,1314.66 L1441.57,1313.64 L1444.04,1312.53 L1446.49,1311.36 L1448.93,1310.18 L1451.37,1309.01 L1453.83,1307.84 L1456.31,1306.77 L1458.84,1305.79 L1461.44,1305.01 L1464.07,1304.5 L1466.73,1304.38 L1469.33,1304.8 L1471.72,1305.81 L1473.84,1307.31 L1475.69,1309.19 L1477.21,1311.38 L1478.5,1313.74 L1479.63,1316.18 L1480.62,1318.69 L1481.55,1321.24 L1482.42,1323.8 L1483.25,1326.37 L1484.07,1328.95 L1484.91,1331.52 L1485.75,1334.1 L1486.64,1336.67 L1487.56,1339.2 L1488.55,1341.73 L1489.64,1344.2 L1490.82,1346.63 L1492.14,1348.99 L1493.61,1351.26 L1495.15,1353.48 L1496.77,1355.65 L1498.49,1357.75 L1500.24,1359.82 L1502.01,1361.85 L1503.83,1363.87 L1505.69,1365.85 L1507.57,1367.8 L1509.48,1369.71 L1511.45,1371.59 L1513.43,1373.44 L1515.46,1375.23 L1517.51,1377.01 L1519.61,1378.72 L1521.75,1380.37 L1523.94,1382 L1526.16,1383.55 L1528.43,1385.04 L1530.74,1386.46 L1533.11,1387.77 L1535.52,1389 L1537.98,1390.16 L1540.46,1391.22 L1542.99,1392.21 L1545.55,1393.1 L1548.15,1393.92 L1550.76,1394.64 L1553.39,1395.31 L1556.04,1395.89 L1558.71,1396.38 L1561.39,1396.81 L1564.07,1397.17 L1566.77,1397.46 L1569.49,1397.68 L1572.19,1397.83 L1574.9,1397.92 L1577.62,1397.94 L1580.32,1397.9 L1583.04,1397.8 L1585.73,1397.46 L1588.4,1396.98 L1591.05,1396.4 L1593.68,1395.73 L1596.29,1395 L1598.89,1394.2 L1601.47,1393.38 L1604.05,1392.52 L1606.61,1391.65 L1609.18,1390.76 L1611.74,1389.87 L1614.32,1389.02 L1616.9,1388.2 L1619.51,1387.45 L1622.14,1386.81 L1624.83,1386.49 L1627.3,1387.05 L1628.5,1388.39" vector-effect="none"/>
   <path fill-rule="evenodd" d="M605.56,868.262 L606.312,867.357 L607.371,864.879 L608.465,862.402 L609.558,859.941 L610.652,857.464 L611.728,854.97 L612.787,852.475 L613.812,849.98 L614.803,847.452 L615.76,844.923 L616.666,842.36 L617.486,839.797 L618.238,837.183 L618.87,834.552 L619.348,831.904 L619.553,829.204 L619.451,826.505 L619.092,823.839 L618.545,821.174 L617.879,818.56 L617.11,815.963 L616.273,813.383 L615.418,810.82 L614.564,808.257 L613.71,805.677 L612.924,803.08 L612.241,800.466 L611.694,797.818 L611.403,795.135 L611.54,792.453 L612.343,789.89 L613.949,787.771 L616.17,786.251 L618.716,785.328 L621.364,784.764 L624.064,784.44 L626.763,784.252 L629.48,784.166 L632.197,784.115 L634.913,784.098 L637.63,784.081 L640.329,784.064 L643.046,783.995 L645.763,783.876 L648.462,783.671 L651.162,783.346 L653.827,782.868 L656.458,782.184 L658.987,781.193 L661.362,779.929 L663.669,778.477 L665.856,776.888 L667.991,775.196 L670.059,773.453 L672.075,771.642 L674.074,769.814 L676.056,767.969 L678.038,766.124 L680.037,764.278 L682.07,762.484 L684.154,760.759 L686.307,759.101 L688.545,757.581 L690.903,756.248 L693.398,755.172 L696.012,754.471 L698.711,754.3 L701.411,754.574 L704.042,755.206 L706.605,756.094 L709.1,757.154 L711.56,758.315 L713.969,759.546 L716.395,760.776 L718.821,761.972 L721.299,763.082 L723.827,764.039 L726.442,764.791 L729.107,765.235 L731.824,765.321 L734.506,764.979 L737.171,764.483 L739.82,763.868 L742.451,763.185 L745.048,762.433 L747.566,761.654" vector-effect="none"/>
   <path fill-rule="evenodd" d="M1462.68,1283.27 L1462.96,1281.02 L1463.47,1278.37 L1463.96,1275.71 L1464.41,1273.04 L1464.8,1270.36 L1465.09,1267.68 L1465.28,1264.98 L1465.28,1262.26 L1464.97,1259.58 L1463.79,1257.17 L1461.86,1255.27 L1459.64,1253.72 L1457.32,1252.35 L1454.94,1251.03 L1452.59,1249.67 L1450.33,1248.16 L1448.33,1246.35 L1446.84,1244.1 L1446.3,1241.47 L1446.57,1238.78 L1447.39,1236.22 L1448.55,1233.78 L1449.89,1231.42 L1451.34,1229.13 L1452.86,1226.89 L1454.4,1224.65 L1455.95,1222.43 L1457.49,1220.21 L1458.99,1217.96 L1460.44,1215.67 L1461.83,1213.34 L1463.09,1210.93 L1464.19,1208.47 L1465.08,1205.91 L1465.67,1203.28 L1465.8,1202.37" vector-effect="none"/>
   <path fill-rule="evenodd" d="M1079.36,1015.76 L1079.66,1014.96 L1081.06,1012.64 L1082.49,1010.35 L1083.91,1008.04 L1085.28,1005.7 L1086.56,1003.31 L1087.75,1000.88 L1088.8,998.387 L1089.63,995.807 L1090.13,993.159 L1090.32,990.459 L1090.21,987.76 L1089.77,985.094 L1089.05,982.48 L1088.11,979.952 L1087.02,977.457 L1085.84,975.031 L1084.56,972.639 L1083.23,970.281 L1081.86,967.94 L1080.53,965.583 L1079.23,963.208 L1077.91,960.85 L1076.6,958.475 L1075.23,956.134 L1073.85,953.811 L1072.43,951.504 L1070.94,949.232 L1069.4,946.993 L1067.8,944.823 L1066.11,942.705 L1064.33,940.672 L1062.43,938.724 L1060.43,936.896 L1058.3,935.221 L1056.04,933.701 L1054.59,932.863" vector-effect="none"/>
   <path fill-rule="evenodd" d="M418.659,784.44 L418.642,784.422 L418.591,784.388 L418.984,782.902 L420.231,780.51 L421.547,778.135 L422.828,775.743 L424.041,773.334 L425.118,770.873 L425.989,768.345 L426.536,765.799 L426.843,763.236 L426.912,760.69 L426.758,758.11 L426.296,755.496 L425.579,752.899 L424.725,750.336 L423.853,747.774 L423.033,745.228 L422.35,742.665 L421.717,740.085 L421.256,737.488 L420.966,734.857 L420.863,732.208 L420.983,729.543 L421.342,726.861 L421.786,724.195 L422.281,721.53 L422.777,718.865 L423.289,716.216 L423.751,713.551 L424.161,710.868 L424.468,708.186 L424.656,705.503 L424.69,702.821 L424.554,700.139 L424.314,697.473 L423.956,694.808 L423.426,692.177 L422.76,689.545 L422.008,686.948 L421.171,684.385 L420.265,681.84 L419.257,679.328 L418.181,676.851 L417.002,674.407 L415.737,672.032 L414.336,669.709 L412.799,667.505 L411.09,665.42 L409.194,663.558 L407.092,661.969 L404.803,660.653 L402.274,659.748 L399.643,659.218 L396.943,658.979 L394.244,658.945 L391.544,659.099 L388.844,659.406 L386.179,659.867 L383.531,660.448 L380.9,661.132 L378.303,661.952 L375.791,662.926 L375.032,663.311" vector-effect="none"/>
   <path fill-rule="evenodd" d="M2233.39,1462.35 L2234.84,1463.19 L2237.3,1464.33 L2239.76,1465.44 L2242.27,1466.49 L2244.8,1467.44 L2247.4,1468.23 L2250.05,1468.69 L2252.64,1468.45 L2254.97,1467.34 L2256.86,1465.44 L2258.45,1463.24 L2259.92,1460.97 L2261.39,1458.69 L2263.01,1456.52 L2265.06,1454.8 L2267.59,1455.14 L2269.13,1457.36 L2270.17,1459.86 L2271.03,1462.44 L2271.81,1465.02 L2272.56,1467.61 L2273.35,1470.21 L2274.17,1472.79 L2275.08,1475.35 L2276.1,1477.86 L2276.63,1478.94" vector-effect="none"/>
   <path fill-rule="evenodd" d="M519.585,741.298 L519.67,741.298 L520.097,740.017 L520.336,737.334 L520.576,734.635 L520.763,731.935 L520.917,729.236 L521.037,726.536 L521.088,723.836 L521.088,721.137 L520.986,718.437 L520.763,715.755 L520.371,713.09 L519.858,710.458 L519.157,707.895 L518.235,705.401 L517.09,703.009 L515.723,700.702 L514.168,698.498 L512.511,696.363 L510.768,694.278 L509.008,692.228 L507.232,690.178 L505.523,688.076 L503.9,685.923 L502.448,683.668 L501.252,681.293 L500.534,678.798 L500.363,676.287 L500.671,673.758 L501.525,671.264 L502.841,668.94 L504.43,666.753 L506.206,664.703 L508.086,662.755 L510.017,660.858 L511.981,658.996 L513.963,657.151 L515.911,655.288 L517.842,653.392 L519.704,651.444 L521.567,649.496 L523.412,647.532 L525.206,645.498 L526.983,643.448 L528.743,641.398 L530.519,639.347 L532.279,637.28 L534.022,635.213 L535.748,633.128 L537.456,631.027 L539.148,628.891 L540.805,626.755 L542.428,624.585 L543.983,622.364 L545.418,620.075 L546.802,617.768 L548.135,615.41 L549.382,613.018 L550.544,610.575 L551.672,608.115 L552.765,605.637 L553.876,603.16 L554.986,600.7 L556.148,598.239 L557.344,595.813 L558.643,593.438 L560.027,591.114 L561.547,588.876 L563.222,586.74 L565.067,584.776 L567.1,582.999 L569.338,581.478 L571.713,580.18 L574.173,579.018 L576.668,577.958 L579.197,576.985 L581.76,576.096 L582.602,575.823" vector-effect="none"/>
   <path fill-rule="evenodd" d="M1523.53,1468.91 L1523.54,1468.89 L1525.34,1470.07 L1527.44,1471.78 L1529.56,1473.49 L1531.68,1475.18 L1533.81,1476.84 L1536,1478.45 L1538.24,1479.98 L1540.54,1481.4 L1542.93,1482.65 L1545.46,1483.57 L1548.08,1484.12 L1550.76,1484.22 L1553.44,1484.03 L1556.13,1483.62 L1558.77,1483.08 L1561.42,1482.48 L1564.07,1481.86 L1566.72,1481.3 L1569.38,1480.84 L1572.08,1480.6 L1574.73,1480.75 L1577.23,1481.5 L1579.55,1482.7 L1581.7,1484.27 L1583.68,1486.08 L1585.55,1488.05 L1587.36,1490.06 L1589.2,1492.05 L1591.13,1493.94 L1593.25,1495.58 L1595.58,1496.91 L1598.07,1497.89 L1600.72,1498.33 L1603.42,1498.33 L1606.1,1497.99 L1608.77,1497.46 L1611.41,1496.86 L1614.06,1496.27 L1616.71,1495.7 L1619.39,1495.24 L1622.08,1494.9 L1624.78,1494.69 L1627.49,1494.56 L1630.21,1494.51 L1632.93,1494.49 L1635.64,1494.47 L1638.34,1494.44 L1641.06,1494.37 L1643.77,1494.27 L1646.47,1494.08 L1649.17,1493.81 L1651.87,1493.41 L1654.52,1492.9 L1657.15,1492.2 L1659.7,1491.28 L1662.14,1490.1 L1664.52,1488.78 L1666.82,1487.35 L1669.06,1485.83 L1670.45,1484.84" vector-effect="none"/>
   <path fill-rule="evenodd" d="M268.27,1605.08 L266.886,1603.41 L265.639,1601.02 L264.443,1598.59 L263.23,1596.17 L262,1593.76 L260.701,1591.38 L259.335,1589.04 L257.865,1586.77 L256.225,1584.62 L254.346,1582.67 L252.039,1581.25 L249.476,1580.4 L246.811,1579.88 L244.111,1579.58 L241.412,1579.37 L238.695,1579.2 L235.995,1578.99 L233.313,1578.62 L230.682,1577.92 L228.409,1576.5 L227.23,1574.14 L227.248,1571.46 L227.914,1568.85 L228.854,1566.3 L229.93,1563.82 L231.058,1561.36 L232.185,1558.88 L233.262,1556.41 L234.236,1553.88 L235.073,1551.3 L235.637,1548.67 L235.756,1545.97 L235.295,1543.3 L234.543,1540.72 L233.586,1538.18 L232.51,1535.7 L231.801,1534.2" vector-effect="none"/>
   <path fill-rule="evenodd" d="M1193.05,1437.06 L1192.61,1438.91 L1191.81,1441.49 L1191,1444.09 L1190.23,1446.67 L1189.5,1449.28 L1188.82,1451.89 L1188.18,1454.53 L1187.62,1457.17 L1187.18,1459.86 L1186.85,1462.54 L1186.73,1465.24 L1186.92,1467.94 L1187.57,1470.57 L1188.58,1473.08 L1189.84,1475.47 L1191.24,1477.78 L1192.75,1480.03 L1194.28,1482.27 L1195.8,1484.53 L1197.26,1486.8 L1198.59,1489.16 L1199.75,1491.62 L1200.64,1494.16 L1201.19,1496.81 L1201.41,1499.51 L1201.37,1502.23 L1201.19,1504.93 L1200.86,1507.61 L1200.49,1510.29 L1200.09,1512.98 L1199.75,1515.66 L1199.49,1518.36 L1199.41,1521.06 L1199.53,1523.76 L1199.99,1526.42 L1200.76,1529.02 L1201.85,1531.5 L1203.19,1533.85 L1204.64,1536.13 L1206.21,1538.35 L1207.85,1540.5 L1209.56,1542.6 L1211.3,1544.67 L1213.09,1546.7 L1214.92,1548.72 L1216.79,1550.68 L1218.68,1552.63" vector-effect="none"/>
   <path fill-rule="evenodd" d="M1349.44,1512.75 L1348.99,1514.74 L1348.19,1517.33 L1347.39,1519.91 L1346.64,1522.51 L1345.97,1525.14 L1345.42,1527.79 L1345.05,1530.47 L1344.93,1533.17 L1345.3,1535.84 L1346.48,1538.26 L1348.35,1540.23 L1350.5,1541.85 L1352.77,1543.34 L1355.03,1544.82 L1357.18,1546.48 L1359.04,1548.45 L1360.39,1550.79 L1361.09,1553.38 L1361.35,1556.08 L1361.19,1558.78 L1360.77,1561.45 L1360.17,1564.1 L1359.49,1566.71 L1358.72,1569.31 L1357.93,1571.9 L1357.13,1574.48 L1356.34,1577.08 L1355.61,1579.68 L1354.91,1582.29 L1354.31,1584.94 L1353.83,1587.61 L1353.51,1590.29 L1353.42,1592.99 L1353.5,1594.18" vector-effect="none"/>
   <path fill-rule="evenodd" d="M2663.78,1022.96 L2663.76,1022.92 L2664.17,1022.55 L2666.7,1021.61 L2669.28,1020.79 L2671.86,1019.93 L2674.39,1018.96 L2676.83,1017.81 L2679.02,1016.33 L2680.96,1014.57 L2682.69,1012.55 L2684.21,1010.38 L2685.51,1008.04 L2686.52,1005.55 L2687.25,1002.95 L2687.76,1000.3 L2688.09,997.601 L2688.23,994.902 L2688.09,992.202 L2687.8,989.52 L2687.32,986.854 L2686.74,984.223 L2686.09,981.592 L2685.36,978.978 L2684.54,976.398 L2683.66,973.835 L2682.69,971.306 L2681.65,968.812 L2680.5,966.351 L2679.26,963.942 L2677.91,961.602 L2676.42,959.329 L2674.75,957.211 L2672.92,955.212 L2670.94,953.366 L2669.65,952.259" vector-effect="none"/>
   <path fill-rule="evenodd" d="M998.002,1739.16 L998.891,1740.83 L999.66,1743.41 L1000.39,1746.03 L1001.18,1748.6 L1002.05,1751.17 L1003.13,1753.66 L1004.53,1755.97 L1006.61,1757.66 L1009.24,1758.22 L1011.94,1758.09 L1014.64,1757.73 L1017.33,1757.39 L1020.03,1757.27 L1022.71,1757.64 L1025.12,1758.79 L1027.05,1760.67 L1028.45,1762.99 L1029.54,1765.45 L1030.5,1768 L1031.39,1770.54 L1032.26,1773.11 L1033.18,1775.67 L1034.17,1778.18 L1035.33,1780.62 L1035.74,1781.3" vector-effect="none"/>
   <path fill-rule="evenodd" d="M1734.86,1547.27 L1735.08,1548.31 L1735.01,1551.01 L1734.86,1553.71 L1734.71,1556.41 L1734.59,1559.11 L1734.5,1561.82 L1734.5,1564.52 L1734.6,1567.24 L1734.84,1569.92 L1735.37,1572.57 L1736.57,1575 L1738.26,1577.08 L1740.26,1578.91 L1742.41,1580.55 L1744.65,1582.09 L1746.9,1583.61 L1749.13,1585.16 L1751.24,1586.85 L1753.16,1588.75 L1754.7,1590.97 L1755.7,1593.45 L1756.35,1596.06 L1756.66,1598.75 L1756.73,1601.46 L1756.68,1604.16 L1756.58,1606.86 L1756.52,1609.58 L1756.58,1612.28 L1756.85,1614.96 L1757.32,1616.99" vector-effect="none"/>
   <path fill-rule="evenodd" d="M3027.14,957.074 L3027.38,956.852 L3029.84,955.827 L3032.42,954.972 L3035,954.118 L3037.56,953.23 L3040.11,952.29 L3042.62,951.282 L3045.08,950.137 L3047.45,948.839 L3049.62,947.232 L3051.49,945.302 L3053.04,943.115 L3054.29,940.723 L3055.33,938.211 L3056.22,935.665 L3057,933.068 L3057.74,930.471 L3058.49,927.857 L3059.26,925.26 L3060.17,922.714 L3061.33,920.271 L3062.76,917.999 L3064.37,915.812 L3066.04,913.676 L3067.68,911.523 L3069.17,909.268 L3070.33,906.825 L3070.91,904.194 L3070.61,901.545 L3069.6,899.034 L3068.26,896.676 L3066.76,894.42 L3065.2,892.27" vector-effect="none"/>
   <path fill-rule="evenodd" d="M1696.95,1546.94 L1694.83,1548.34 L1692.61,1549.9 L1690.4,1551.49 L1688.23,1553.11 L1686.11,1554.78 L1684.01,1556.51 L1682,1558.3 L1680.05,1560.18 L1678.24,1562.2 L1676.67,1564.39 L1675.81,1566.93 L1675.5,1569.61 L1675.49,1572.33 L1675.66,1575.03 L1675.93,1577.73 L1676.27,1580.41 L1676.61,1583.1 L1676.96,1585.78 L1677.18,1588.48 L1677.02,1591.18 L1675.16,1592.65 L1672.7,1591.67 L1670.53,1590.07 L1668.46,1588.31 L1666.41,1586.55 L1664.26,1584.89 L1661.9,1583.57 L1659.34,1583.49 L1656.93,1584.67 L1655.85,1585.46" vector-effect="none"/>
   <path fill-rule="evenodd" d="M516.595,604.783 L516.595,604.732 L516.595,604.612 L518.371,603.877 L520.832,603.04 L522.233,601.588 L523.207,600.153 L524.112,598.649 L524.847,596.582 L524.762,593.916 L524.898,591.473 L525.377,589.423 L526.06,587.526 L527.051,585.63 L528.777,583.87 L531.066,582.452 L533.424,581.102 L535.748,579.718 L537.9,578.129 L539.814,576.369 L541.642,574.507 L543.3,572.508 L544.735,570.304 L545.862,567.895 L546.768,565.4 L547.4,562.803 L547.691,560.138 L547.605,557.456 L547.127,554.79 L546.238,552.244 L544.906,549.887 L543.385,547.665 L541.762,545.496 L540.019,543.428 L538.174,541.463 L536.243,539.55 L534.261,537.704 L532.211,535.927 L530.126,534.202 L528.008,532.51 L525.838,530.887 L523.634,529.298 L521.396,527.778 L519.123,526.291 L516.817,524.873 L514.476,523.506 L512.084,522.225 L509.675,520.977 L507.163,519.935 L504.617,519.013 L502.038,518.175 L499.44,517.424 L496.809,516.723 L494.178,516.074 L491.53,515.459 L490.026,515.129" vector-effect="none"/>
   <path fill-rule="evenodd" d="M2299.97,1351.62 L2300,1351.62 L2299.99,1353.91 L2299.78,1356.59 L2299.65,1359.31 L2299.65,1362.01 L2299.88,1364.69 L2300.57,1367.25 L2301.51,1369.73 L2302.93,1372.02 L2304.55,1374.17 L2306.41,1376.12 L2308.55,1377.74 L2310.99,1378.87 L2313.62,1379.4 L2316.32,1379.38 L2319,1378.97 L2321.63,1378.34 L2324.2,1377.47 L2326.73,1376.49 L2329.24,1375.44 L2331.7,1374.31 L2334.14,1373.15 L2336.57,1371.92 L2338.98,1370.67 L2341.35,1369.37 L2343.73,1368.05 L2346.08,1366.7 L2348.43,1365.32 L2350.75,1363.94 L2353.06,1362.5 L2355.34,1361.05 L2357.62,1359.58 L2359.87,1358.08 L2362.13,1356.57 L2364.35,1355.02 L2366.57,1353.45 L2368.76,1351.84 L2370.91,1350.2 L2373.05,1348.54 L2375.16,1346.83 L2377.25,1345.11 L2377.67,1344.73" vector-effect="none"/>
   <path fill-rule="evenodd" d="M1883.3,1602.15 L1881.35,1602.91 L1878.72,1603.51 L1876.07,1604.09 L1873.42,1604.71 L1870.81,1605.39 L1868.21,1606.18 L1865.67,1607.14 L1863.26,1608.37 L1861.19,1610.09 L1859.91,1612.48 L1859.24,1615.1 L1858.92,1617.78 L1858.75,1620.48 L1858.54,1623.2 L1858.18,1625.88 L1857.45,1628.48 L1856.08,1630.78 L1854.03,1632.52 L1851.52,1633.57 L1848.89,1634.2 L1846.21,1634.59 L1843.51,1634.85 L1840.79,1635.05 L1838.09,1635.24 L1835.39,1635.45 L1832.69,1635.72 L1829.99,1636.1 L1827.34,1636.68 L1824.78,1637.51 L1822.37,1638.78 L1820.2,1640.38 L1819.45,1641.05" vector-effect="none"/>
   <path fill-rule="evenodd" d="M579.282,614.573 L579.299,614.522 L581.572,614.983 L584.117,615.872 L586.714,616.692 L589.329,617.324 L591.994,617.563 L594.591,617.29 L597.034,616.384 L599.187,614.847 L600.998,612.83 L602.604,610.643 L604.125,608.405 L605.645,606.167 L607.234,603.963 L608.858,601.81 L610.395,599.572 L611.933,597.334 L613.437,595.078 L614.82,592.755 L615.965,590.328 L616.666,587.749 L616.7,585.083 L615.641,582.606 L614.154,580.333 L612.601,578.404" vector-effect="none"/>
   <path fill-rule="evenodd" d="M3295.56,1039.36 L3295.16,1037.55 L3294.41,1034.95 L3293.68,1032.35 L3292.91,1029.76 L3292.1,1027.18 L3291.25,1024.6 L3290.31,1022.07 L3289.29,1019.56 L3288.11,1017.13 L3286.74,1014.81 L3285.05,1012.74 L3282.96,1011.06 L3280.55,1009.83 L3278.01,1008.93 L3275.39,1008.21 L3272.75,1007.6 L3270.1,1007.02 L3267.45,1006.38 L3264.85,1005.65 L3262.34,1004.64 L3260.17,1003.05 L3259.18,1000.57 L3259.47,997.909 L3260.46,995.397 L3261.79,993.039 L3263.32,990.784 L3264.9,988.597 L3266.54,986.444 L3268.18,984.274 L3269.81,982.104 L3271.38,979.9 L3272.85,977.628 L3274.15,975.253 L3275.19,972.759 L3275.7,970.11 L3275.74,967.394 L3275.58,964.694 L3275.33,962.012 L3274.98,959.312 L3274.56,956.647 L3274.1,953.981 L3273.7,951.924" vector-effect="none"/>
  </g>
  <g stroke-linejoin="bevel" transform="matrix(0.999751,0,0,0.999751,0,0)" font-weight="400" font-style="normal" fill="none" stroke="#000000" stroke-width="1" stroke-linecap="square" font-size="32.5" font-family="MS Shell Dlg 2" stroke-opacity="1"/>
  <g stroke-linejoin="bevel" transform="matrix(11.8081,0,0,11.8081,0,0)" font-weight="400" font-style="normal" fill="none" stroke="#000000" stroke-width="1" stroke-linecap="square" font-size="32.5" font-family="MS Shell Dlg 2" stroke-opacity="1"/>
  <g stroke-linejoin="bevel" transform="matrix(11.8081,0,0,11.8081,0,0)" font-weight="400" font-style="normal" fill="none" stroke="#000000" stroke-width="1" stroke-linecap="square" font-size="32.5" font-family="MS Shell Dlg 2" stroke-opacity="1"/>
  <g stroke-linejoin="bevel" transform="matrix(11.8081,0,0,11.8081,0,0)" font-weight="400" font-style="normal" fill="none" stroke="#000000" stroke-width="1" stroke-linecap="square" font-size="32.5" font-family="MS Shell Dlg 2" stroke-opacity="1"/>
  <g stroke-linejoin="bevel" transform="matrix(1,0,0,1,0,0)" font-weight="400" font-style="normal" fill="none" stroke="#000000" stroke-width="1" stroke-linecap="square" font-size="32.5" font-family="MS Shell Dlg 2" stroke-opacity="1"/>
  <g stroke-linejoin="bevel" transform="matrix(11.8081,0,0,11.8081,0,0)" font-weight="400" font-style="normal" fill="none" stroke="#000000" stroke-width="1" stroke-linecap="square" font-size="32.5" font-family="MS Shell Dlg 2" stroke-opacity="1"/>
  <g stroke-linejoin="bevel" transform="matrix(11.8081,0,0,11.8081,0,0)" font-weight="400" font-style="normal" fill="none" stroke="#000000" stroke-width="1" stroke-linecap="square" font-size="32.5" font-family="MS Shell Dlg 2" stroke-opacity="1"/>
  <g stroke-linejoin="bevel" transform="matrix(1,0,0,1,0,0)" font-weight="400" font-style="normal" fill="none" stroke="#000000" stroke-width="1" stroke-linecap="square" font-size="32.5" font-family="MS Shell Dlg 2" stroke-opacity="1"/>
 </g>
</svg>
