<?xml version='1.0' encoding='UTF-8' standalone='no'?>
<svg height="209.973mm" width="296.926mm" viewBox="0 0 3507 2480" xmlns:xlink="http://www.w3.org/1999/xlink" xmlns:inkscape="http://www.inkscape.org/namespaces/inkscape" xmlns="http://www.w3.org/2000/svg" version="1.2" baseProfile="tiny">
 <defs/>
 <g stroke-linejoin="bevel" inkscape:label="Page" inkscape:groupmode="layer" fill="none" stroke="black" fill-rule="evenodd" stroke-width="1" stroke-linecap="square" id="Page">
  <g stroke-linejoin="bevel" transform="matrix(1,0,0,1,0,0)" font-weight="400" font-style="normal" fill="none" stroke="#000000" stroke-width="1" stroke-linecap="square" font-size="32.5" font-family="MS Shell Dlg 2" stroke-opacity="1"/>
  <g stroke-linejoin="bevel" transform="matrix(1,0,0,1,0,0)" font-weight="400" font-style="normal" fill="none" stroke="#000000" stroke-width="1" stroke-linecap="square" font-size="32.5" font-family="MS Shell Dlg 2" stroke-opacity="1"/>
  <g stroke-linejoin="bevel" transform="matrix(11.8081,0,0,11.8081,0,0)" font-weight="400" font-style="normal" fill="none" stroke="#000000" stroke-width="1" stroke-linecap="square" font-size="32.5" font-family="MS Shell Dlg 2" stroke-opacity="1"/>
  <g stroke-linejoin="bevel" transform="matrix(0.999751,0,0,0.999751,0,0)" font-weight="400" font-style="normal" fill="none" stroke="#000000" stroke-width="1" stroke-linecap="square" font-size="32.5" font-family="MS Shell Dlg 2" stroke-opacity="1"/>
  <g transform="matrix(0.999751,0,0,0.999751,0,0)" font-weight="400" font-style="normal" fill="#ffffff" stroke="none" fill-opacity="1" font-size="32.5" font-family="MS Shell Dlg 2">
   <path fill-rule="evenodd" d="M-2,-2 L3510,-2 L3510,2483 L-2,2483 L-2,-2" vector-effect="none"/>
  </g>
  <g stroke-linejoin="bevel" transform="matrix(0.999751,0,0,0.999751,0,0)" font-weight="400" font-style="normal" fill="none" stroke="#000000" stroke-width="1" stroke-linecap="square" font-size="32.5" font-family="MS Shell Dlg 2" stroke-opacity="1"/>
  <g stroke-linejoin="bevel" transform="matrix(11.8081,0,0,11.8081,0,0)" font-weight="400" font-style="normal" fill="none" stroke="#000000" stroke-width="1" stroke-linecap="square" font-size="32.5" font-family="MS Shell Dlg 2" stroke-opacity="1"/>
  <g stroke-linejoin="bevel" transform="matrix(11.8081,0,0,11.8081,0,0)" font-weight="400" font-style="normal" fill="none" stroke="#000000" stroke-width="1" stroke-linecap="square" font-size="32.5" font-family="MS Shell Dlg 2" stroke-opacity="1"/>
  <g stroke-linejoin="bevel" transform="matrix(1,0,0,1,0,0)" font-weight="400" font-style="normal" fill="none" stroke="#000000" stroke-width="1" stroke-linecap="square" font-size="32.5" font-family="MS Shell Dlg 2" stroke-opacity="1"/>
 </g>
 <defs/>
 <g stroke-linejoin="bevel" inkscape:label="Map 1: Background" inkscape:groupmode="layer" fill="none" stroke="black" fill-rule="evenodd" stroke-width="1" stroke-linecap="square" id="Map 1: Background">
  <g stroke-linejoin="bevel" transform="matrix(1,0,0,1,0,0)" font-weight="400" font-style="normal" fill="none" stroke="#000000" stroke-width="1" stroke-linecap="square" font-size="32.5" font-family="MS Shell Dlg 2" stroke-opacity="1"/>
  <g stroke-linejoin="bevel" transform="matrix(1,0,0,1,0,0)" font-weight="400" font-style="normal" fill="none" stroke="#000000" stroke-width="1" stroke-linecap="square" font-size="32.5" font-family="MS Shell Dlg 2" stroke-opacity="1"/>
  <g stroke-linejoin="bevel" transform="matrix(11.8081,0,0,11.8081,0,0)" font-weight="400" font-style="normal" fill="none" stroke="#000000" stroke-width="1" stroke-linecap="square" font-size="32.5" font-family="MS Shell Dlg 2" stroke-opacity="1"/>
  <g transform="matrix(11.8081,0,0,11.8081,0,0)" font-weight="400" font-style="normal" fill="#ffffff" stroke="none" fill-opacity="1" font-size="32.5" font-family="MS Shell Dlg 2">
   <path fill-rule="evenodd" d="M0,0 L297,0 L297,210 L0,210 L0,0" vector-effect="none"/>
  </g>
  <g stroke-linejoin="bevel" transform="matrix(11.8081,0,0,11.8081,0,0)" font-weight="400" font-style="normal" fill="none" stroke="#000000" stroke-width="1" stroke-linecap="square" font-size="32.5" font-family="MS Shell Dlg 2" stroke-opacity="1"/>
  <g stroke-linejoin="bevel" transform="matrix(11.8081,0,0,11.8081,0,0)" font-weight="400" font-style="normal" fill="none" stroke="#000000" stroke-width="1" stroke-linecap="square" font-size="32.5" font-family="MS Shell Dlg 2" stroke-opacity="1"/>
  <g stroke-linejoin="bevel" transform="matrix(11.8081,0,0,11.8081,0,0)" font-weight="400" font-style="normal" fill="none" stroke="#000000" stroke-width="1" stroke-linecap="square" font-size="32.5" font-family="MS Shell Dlg 2" stroke-opacity="1"/>
  <g stroke-linejoin="bevel" transform="matrix(11.8081,0,0,11.8081,0,0)" font-weight="400" font-style="normal" fill="none" stroke="#000000" stroke-width="1" stroke-linecap="square" font-size="32.5" font-family="MS Shell Dlg 2" stroke-opacity="1"/>
  <g stroke-linejoin="bevel" transform="matrix(1,0,0,1,0,0)" font-weight="400" font-style="normal" fill="none" stroke="#000000" stroke-width="1" stroke-linecap="square" font-size="32.5" font-family="MS Shell Dlg 2" stroke-opacity="1"/>
  <g stroke-linejoin="bevel" transform="matrix(11.8081,0,0,11.8081,0,0)" font-weight="400" font-style="normal" fill="none" stroke="#000000" stroke-width="1" stroke-linecap="square" font-size="32.5" font-family="MS Shell Dlg 2" stroke-opacity="1"/>
  <g stroke-linejoin="bevel" transform="matrix(11.8081,0,0,11.8081,0,0)" font-weight="400" font-style="normal" fill="none" stroke="#000000" stroke-width="1" stroke-linecap="square" font-size="32.5" font-family="MS Shell Dlg 2" stroke-opacity="1"/>
  <g stroke-linejoin="bevel" transform="matrix(1,0,0,1,0,0)" font-weight="400" font-style="normal" fill="none" stroke="#000000" stroke-width="1" stroke-linecap="square" font-size="32.5" font-family="MS Shell Dlg 2" stroke-opacity="1"/>
 </g>
 <defs/>
 <g stroke-linejoin="bevel" inkscape:label="Map 1: ObscuronLand" inkscape:groupmode="layer" fill="none" stroke="black" fill-rule="evenodd" stroke-width="1" stroke-linecap="square" id="Map 1: ObscuronLand">
  <g stroke-linejoin="bevel" transform="matrix(1,0,0,1,0,0)" font-weight="400" font-style="normal" fill="none" stroke="#000000" stroke-width="1" stroke-linecap="square" font-size="32.5" font-family="MS Shell Dlg 2" stroke-opacity="1"/>
  <g stroke-linejoin="bevel" transform="matrix(1,0,0,1,0,0)" font-weight="400" font-style="normal" fill="none" stroke="#000000" stroke-width="1" stroke-linecap="square" font-size="32.5" font-family="MS Shell Dlg 2" stroke-opacity="1"/>
  <g stroke-linejoin="bevel" transform="matrix(11.8081,0,0,11.8081,0,0)" font-weight="400" font-style="normal" fill="none" stroke="#000000" stroke-width="1" stroke-linecap="square" font-size="32.5" font-family="MS Shell Dlg 2" stroke-opacity="1"/>
  <g stroke-linejoin="bevel" transform="matrix(11.8081,0,0,11.8081,0,0)" font-weight="400" font-style="normal" fill="none" stroke="#000000" stroke-width="1" stroke-linecap="square" font-size="32.5" font-family="MS Shell Dlg 2" stroke-opacity="1"/>
  <g transform="matrix(0.999751,0,0,0.999751,0,0)" font-weight="400" font-style="normal" fill="#000000" stroke="none" fill-opacity="0" font-size="32.5" font-family="MS Shell Dlg 2">
   <rect height="2480" x="0" width="3508" y="0"/>
  </g>
  <g stroke-linejoin="bevel" transform="matrix(0.999751,0,0,0.999751,0,0)" font-weight="400" font-style="normal" fill="none" stroke="#000000" stroke-width="1" stroke-linecap="square" font-size="32.5" font-family="MS Shell Dlg 2" stroke-opacity="1"/>
  <g stroke-linejoin="bevel" transform="matrix(0.999751,0,0,0.999751,0,0)" font-weight="400" font-style="normal" fill="#ff5d64" stroke="#232323" fill-opacity="1" stroke-width="5.90551" stroke-linecap="square" font-size="32.5" font-family="MS Shell Dlg 2" stroke-opacity="1">
   <path fill-rule="evenodd" d="M142.212,1756.5 L164.423,1712.08 L186.635,1679.61 L196.886,1679.61 L196.886,1669.36 L196.886,1626.65 L164.423,1604.44 L152.463,1614.69 L152.463,1604.44 L120,1614.69 L99.4975,1604.44 L77.286,1626.65 L55.0746,1604.44 L34.5717,1604.44 L12.3602,1571.97 L22.6116,1549.76 L34.5717,1539.51 L77.286,1549.76 L99.4975,1561.72 L142.212,1561.72 L164.423,1539.51 L186.635,1539.51 L229.349,1539.51 L239.601,1517.3 L261.812,1517.3 L272.063,1507.05 L304.526,1495.09 L316.486,1484.84 L316.486,1462.62 L284.023,1452.37 L251.561,1462.62 L219.098,1452.37 L229.349,1409.66 L239.601,1409.66 L272.063,1409.66 L294.275,1397.7 L316.486,1397.7 L338.698,1387.45 L359.201,1409.66 L403.624,1397.7 L403.624,1409.66 L436.087,1409.66 L446.338,1397.7 L489.052,1409.66 L501.012,1397.7 L511.264,1397.7 L543.727,1365.24 L533.475,1344.73 L533.475,1332.77 L533.475,1300.31 L523.224,1300.31 L489.052,1300.31 L478.801,1300.31 L456.589,1300.31 L446.338,1267.85 L456.589,1247.34 L478.801,1247.34 L501.012,1235.38 L511.264,1235.38 L523.224,1192.67 L511.264,1170.46 L511.264,1160.21 L511.264,1127.74 L489.052,1105.53 L468.549,1105.53 L456.589,1073.07 L468.549,1062.82 L456.589,1040.61 L456.589,1030.35 L456.589,997.892 L468.549,987.64 L468.549,943.217 L424.127,932.966 L403.624,943.217 L391.664,975.68 L391.664,987.64 L391.664,1020.1 L371.161,1030.35 L338.698,1020.1 L326.738,1008.14 L294.275,987.64 L284.023,997.892 L261.812,955.177 L272.063,943.217 L294.275,943.217 L316.486,955.177 L326.738,955.177 L348.949,932.966 L338.698,888.543 L294.275,900.503 L272.063,878.292 L272.063,856.08 L272.063,813.366 L251.561,780.903 L229.349,748.44 L229.349,738.188 L261.812,705.726 L272.063,705.726 L284.023,705.726 L304.526,715.977 L326.738,715.977 L348.949,715.977 L381.412,683.514 L371.161,651.051 L381.412,628.84 L391.664,628.84 L424.127,628.84 L446.338,628.84 L446.338,608.337 L436.087,586.125 L468.549,553.662 L468.549,531.451 L511.264,498.988 L543.727,498.988 L555.687,498.988 L588.15,498.988 L608.653,543.411 L576.19,563.914 L588.15,586.125 L620.613,575.874 L630.864,608.337 L673.578,608.337 L673.578,628.84 L728.253,640.8 L740.213,661.303 L728.253,673.263 L728.253,715.977 L728.253,726.228 L728.253,748.44 L760.716,770.651 L760.716,791.154 L772.676,803.114 L782.927,835.577 L815.39,835.577 L825.641,845.829 L847.853,845.829 L859.813,845.829 L880.316,856.08 L902.527,835.577 L934.99,835.577 L945.242,823.617 L967.453,813.366 L989.665,845.829 L977.704,856.08 L989.665,878.292 L989.665,888.543 L989.665,900.503 L989.665,922.714 L957.202,943.217 L957.202,955.177 L934.99,975.68 L945.242,1008.14 L967.453,1020.1 L999.916,975.68 L1010.17,975.68 L1032.38,965.429 L1032.38,955.177 L1054.59,932.966 L1054.59,910.754 L1054.59,888.543 L1032.38,868.04 L1032.38,845.829 L1064.84,835.577 L1087.05,845.829 L1097.3,878.292 L1119.52,888.543 L1162.23,910.754 L1174.19,932.966 L1194.69,943.217 L1206.65,965.429 L1216.9,975.68 L1281.83,987.64 L1304.04,997.892 L1314.29,997.892 L1336.51,1020.1 L1346.76,1020.1 L1391.18,1030.35 L1466.36,1030.35 L1498.82,1040.61 L1498.82,1052.57 L1510.78,1062.82 L1521.03,1117.49 L1478.32,1137.99 L1445.85,1117.49 L1445.85,1105.53 L1433.89,1105.53 L1401.43,1117.49 L1391.18,1117.49 L1346.76,1160.21 L1391.18,1170.46 L1401.43,1170.46 L1433.89,1170.46 L1466.36,1202.92 L1488.57,1192.67 L1510.78,1192.67 L1531.28,1160.21 L1565.45,1160.21 L1585.96,1182.42 L1585.96,1202.92 L1585.96,1247.34 L1597.92,1257.59 L1630.38,1300.31 L1630.38,1312.27 L1640.63,1332.77 L1630.38,1354.98 L1640.63,1377.2 L1618.42,1397.7 L1640.63,1419.91 L1630.38,1442.12 L1640.63,1462.62 L1650.88,1462.62 L1650.88,1484.84 L1683.35,1484.84 L1715.81,1462.62 L1727.77,1474.58 L1749.98,1462.62 L1760.23,1442.12 L1749.98,1419.91 L1770.48,1397.7 L1802.95,1419.91 L1835.41,1397.7 L1847.37,1397.7 L1857.62,1397.7 L1857.62,1365.24 L1890.08,1354.98 L1922.55,1354.98 L1934.51,1354.98 L1966.97,1344.73 L2009.68,1322.52 L2019.93,1312.27 L2009.68,1279.81 L2042.15,1257.59 L2042.15,1225.13 L2086.57,1225.13 L2096.82,1214.88 L2119.03,1214.88 L2129.28,1202.92 L2172,1214.88 L2183.96,1214.88 L2204.46,1202.92 L2226.67,1202.92 L2271.09,1202.92 L2271.09,1182.42 L2303.56,1170.46 L2303.56,1160.21 L2336.02,1137.99 L2346.27,1137.99 L2368.48,1117.49 L2378.74,1117.49 L2388.99,1105.53 L2411.2,1105.53 L2433.41,1085.03 L2443.66,1095.28 L2488.08,1073.07 L2498.34,1085.03 L2530.8,1085.03 L2541.05,1062.82 L2553.01,1052.57 L2573.51,1020.1 L2585.47,1020.1 L2595.72,975.68 L2628.19,955.177 L2650.4,965.429 L2682.86,943.217 L2693.11,943.217 L2705.07,943.217 L2737.54,943.217 L2758.04,943.217 L2792.21,932.966 L2802.46,910.754 L2824.67,910.754 L2857.14,888.543 L2889.6,900.503 L2899.85,932.966 L2922.06,943.217 L2944.27,943.217 L2944.27,932.966 L2944.27,900.503 L2964.78,888.543 L2986.99,910.754 L2997.24,900.503 L3029.7,900.503 L3041.66,900.503 L3062.16,900.503 L3074.12,868.04 L3062.16,845.829 L3074.12,835.577 L3106.59,823.617 L3116.84,823.617 L3139.05,856.08 L3139.05,868.04 L3106.59,900.503 L3106.59,910.754 L3084.38,922.714 L3074.12,932.966 L3074.12,975.68 L3094.63,987.64 L3128.8,965.429 L3139.05,955.177 L3149.3,955.177 L3181.76,965.429 L3193.72,965.429 L3226.19,975.68 L3246.69,965.429 L3291.11,943.217 L3313.33,955.177 L3366.29,975.68 L3388.5,922.714 L3398.75,900.503 L3443.18,888.543 L3465.39,910.754 L3465.39,932.966 L3475.64,943.217 L3475.64,965.429 L3475.64,975.68 L3485.89,1008.14 L3475.64,1020.1 L3443.18,1030.35 L3431.22,1030.35 L3420.97,1040.61 L3410.71,1052.57 L3420.97,1085.03 L3398.75,1095.28 L3356.04,1073.07 L3345.79,1095.28 L3333.83,1105.53 L3323.58,1127.74 L3301.37,1137.99 L3301.37,1170.46 L3323.58,1192.67 L3323.58,1214.88 L3333.83,1247.34 L3323.58,1257.59 L3279.15,1267.85 L3246.69,1267.85 L3236.44,1279.81 L3214.23,1279.81 L3203.98,1279.81 L3193.72,1300.31 L3193.72,1332.77 L3181.76,1344.73 L3139.05,1332.77 L3128.8,1344.73 L3116.84,1377.2 L3106.59,1397.7 L3084.38,1419.91 L3041.66,1377.2 L3051.91,1344.73 L3062.16,1322.52 L3051.91,1300.31 L3029.7,1290.06 L3019.45,1257.59 L3009.2,1247.34 L3009.2,1214.88 L2986.99,1214.88 L2954.52,1235.38 L2944.27,1225.13 L2944.27,1182.42 L2944.27,1149.95 L2910.1,1137.99 L2889.6,1160.21 L2867.39,1160.21 L2845.18,1170.46 L2845.18,1202.92 L2857.14,1225.13 L2867.39,1267.85 L2857.14,1267.85 L2834.92,1267.85 L2792.21,1225.13 L2770,1225.13 L2758.04,1214.88 L2725.58,1225.13 L2693.11,1225.13 L2672.61,1214.88 L2617.94,1235.38 L2607.68,1225.13 L2563.26,1225.13 L2541.05,1214.88 L2520.55,1160.21 L2508.59,1149.95 L2476.12,1137.99 L2455.62,1149.95 L2433.41,1149.95 L2423.16,1160.21 L2400.95,1160.21 L2368.48,1192.67 L2368.48,1202.92 L2356.52,1247.34 L2356.52,1279.81 L2356.52,1290.06 L2356.52,1332.77 L2368.48,1344.73 L2378.74,1344.73 L2388.99,1354.98 L2411.2,1377.2 L2411.2,1430.16 L2378.74,1409.66 L2356.52,1430.16 L2346.27,1430.16 L2324.06,1430.16 L2313.81,1462.62 L2281.35,1474.58 L2259.13,1495.09 L2248.88,1495.09 L2226.67,1517.3 L2226.67,1549.76 L2216.42,1549.76 L2204.46,1582.22 L2204.46,1594.18 L2172,1626.65 L2151.49,1626.65 L2129.28,1594.18 L2151.49,1561.72 L2151.49,1549.76 L2129.28,1529.26 L2086.57,1539.51 L2074.61,1549.76 L2042.15,1539.51 L2009.68,1529.26 L1977.22,1539.51 L1977.22,1561.72 L1955.01,1582.22 L1955.01,1594.18 L1944.76,1594.18 L1944.76,1636.9 L1944.76,1647.15 L1944.76,1669.36 L1922.55,1691.57 L1912.29,1691.57 L1879.83,1679.61 L1867.87,1659.11 L1847.37,1659.11 L1825.16,1659.11 L1814.91,1626.65 L1802.95,1614.69 L1782.44,1604.44 L1738.02,1626.65 L1727.77,1626.65 L1695.31,1614.69 L1673.09,1614.69 L1662.84,1604.44 L1650.88,1571.97 L1662.84,1561.72 L1630.38,1539.51 L1597.92,1549.76 L1553.49,1539.51 L1531.28,1549.76 L1521.03,1549.76 L1510.78,1561.72 L1498.82,1614.69 L1478.32,1626.65 L1445.85,1614.69 L1401.43,1594.18 L1380.93,1594.18 L1358.72,1594.18 L1346.76,1594.18 L1336.51,1594.18 L1326.25,1594.18 L1304.04,1626.65 L1314.29,1659.11 L1293.79,1679.61 L1281.83,1679.61 L1271.58,1679.61 L1239.12,1679.61 L1216.9,1691.57 L1206.65,1679.61 L1174.19,1691.57 L1151.98,1679.61 L1129.77,1691.57 L1109.26,1669.36 L1064.84,1679.61 L1064.84,1691.57 L1064.84,1724.04 L1054.59,1734.29 L1054.59,1756.5 L1022.13,1799.21 L1010.17,1799.21 L977.704,1799.21 L945.242,1809.46 L924.739,1799.21 L892.276,1809.46 L837.601,1799.21 L825.641,1821.42 L805.139,1821.42 L760.716,1809.46 L772.676,1777 L805.139,1766.75 L782.927,1724.04 L750.464,1724.04 L750.464,1734.29 L695.79,1744.54 L673.578,1712.08 L653.075,1701.82 L641.115,1679.61 L620.613,1679.61 L576.19,1691.57 L555.687,1691.57 L543.727,1669.36 L533.475,1647.15 L533.475,1636.9 L511.264,1614.69 L478.801,1604.44 L468.549,1604.44 L446.338,1604.44 L424.127,1626.65 L391.664,1614.69 L381.412,1614.69 L371.161,1636.9 L371.161,1647.15 L391.664,1669.36 L381.412,1691.57 L403.624,1712.08 L391.664,1734.29 L359.201,1712.08 L348.949,1712.08 L326.738,1691.57 L326.738,1679.61 L304.526,1669.36 L261.812,1691.57 L261.812,1701.82 L272.063,1724.04 L261.812,1744.54 L284.023,1777 L251.561,1821.42 L229.349,1821.42 L219.098,1809.46 L186.635,1799.21 L186.635,1788.96 L152.463,1777 L142.212,1756.5" vector-effect="none"/>
   <path fill-rule="evenodd" d="M1825.16,1127.74 L1825.16,1117.49 L1847.37,1085.03 L1867.87,1073.07 L1900.33,1095.28 L1900.33,1117.49 L1912.29,1127.74 L1900.33,1149.95 L1912.29,1160.21 L1900.33,1192.67 L1857.62,1214.88 L1825.16,1202.92 L1814.91,1170.46 L1825.16,1160.21 L1814.91,1137.99 L1825.16,1127.74" vector-effect="none"/>
   <path fill-rule="evenodd" d="M793.179,726.228 L805.139,693.766 L815.39,693.766 L870.064,715.977 L870.064,738.188 L870.064,748.44 L847.853,770.651 L825.641,770.651 L815.39,770.651 L793.179,748.44 L793.179,726.228" vector-effect="none"/>
   <path fill-rule="evenodd" d="M1738.02,1085.03 L1760.23,1105.53 L1760.23,1127.74 L1738.02,1149.95 L1705.56,1127.74 L1695.31,1117.49 L1695.31,1095.28 L1727.77,1073.07 L1738.02,1085.03" vector-effect="none"/>
   <path fill-rule="evenodd" d="M109.749,1474.58 L77.286,1474.58 L44.8231,1452.37 L67.0346,1419.91 L77.286,1419.91 L109.749,1430.16 L109.749,1474.58" vector-effect="none"/>
   <path fill-rule="evenodd" d="M1630.38,1008.14 L1640.63,1008.14 L1650.88,1040.61 L1618.42,1062.82 L1585.96,1062.82 L1585.96,1052.57 L1597.92,1008.14 L1630.38,1008.14" vector-effect="none"/>
  </g>
  <g stroke-linejoin="bevel" transform="matrix(0.999751,0,0,0.999751,0,0)" font-weight="400" font-style="normal" fill="none" stroke="#000000" stroke-width="1" stroke-linecap="square" font-size="32.5" font-family="MS Shell Dlg 2" stroke-opacity="1"/>
  <g stroke-linejoin="bevel" transform="matrix(11.8081,0,0,11.8081,0,0)" font-weight="400" font-style="normal" fill="none" stroke="#000000" stroke-width="1" stroke-linecap="square" font-size="32.5" font-family="MS Shell Dlg 2" stroke-opacity="1"/>
  <g stroke-linejoin="bevel" transform="matrix(11.8081,0,0,11.8081,0,0)" font-weight="400" font-style="normal" fill="none" stroke="#000000" stroke-width="1" stroke-linecap="square" font-size="32.5" font-family="MS Shell Dlg 2" stroke-opacity="1"/>
  <g stroke-linejoin="bevel" transform="matrix(11.8081,0,0,11.8081,0,0)" font-weight="400" font-style="normal" fill="none" stroke="#000000" stroke-width="1" stroke-linecap="square" font-size="32.5" font-family="MS Shell Dlg 2" stroke-opacity="1"/>
  <g stroke-linejoin="bevel" transform="matrix(1,0,0,1,0,0)" font-weight="400" font-style="normal" fill="none" stroke="#000000" stroke-width="1" stroke-linecap="square" font-size="32.5" font-family="MS Shell Dlg 2" stroke-opacity="1"/>
  <g stroke-linejoin="bevel" transform="matrix(11.8081,0,0,11.8081,0,0)" font-weight="400" font-style="normal" fill="none" stroke="#000000" stroke-width="1" stroke-linecap="square" font-size="32.5" font-family="MS Shell Dlg 2" stroke-opacity="1"/>
  <g stroke-linejoin="bevel" transform="matrix(11.8081,0,0,11.8081,0,0)" font-weight="400" font-style="normal" fill="none" stroke="#000000" stroke-width="1" stroke-linecap="square" font-size="32.5" font-family="MS Shell Dlg 2" stroke-opacity="1"/>
  <g stroke-linejoin="bevel" transform="matrix(1,0,0,1,0,0)" font-weight="400" font-style="normal" fill="none" stroke="#000000" stroke-width="1" stroke-linecap="square" font-size="32.5" font-family="MS Shell Dlg 2" stroke-opacity="1"/>
 </g>
 <defs/>
 <g stroke-linejoin="bevel" inkscape:label="Map 1: ObscuronLand (Labels)" inkscape:groupmode="layer" fill="none" stroke="black" fill-rule="evenodd" stroke-width="1" stroke-linecap="square" id="Map 1: ObscuronLand (Labels)">
  <g stroke-linejoin="bevel" transform="matrix(1,0,0,1,0,0)" font-weight="400" font-style="normal" fill="none" stroke="#000000" stroke-width="1" stroke-linecap="square" font-size="32.5" font-family="MS Shell Dlg 2" stroke-opacity="1"/>
  <g stroke-linejoin="bevel" transform="matrix(1,0,0,1,0,0)" font-weight="400" font-style="normal" fill="none" stroke="#000000" stroke-width="1" stroke-linecap="square" font-size="32.5" font-family="MS Shell Dlg 2" stroke-opacity="1"/>
  <g stroke-linejoin="bevel" transform="matrix(11.8081,0,0,11.8081,0,0)" font-weight="400" font-style="normal" fill="none" stroke="#000000" stroke-width="1" stroke-linecap="square" font-size="32.5" font-family="MS Shell Dlg 2" stroke-opacity="1"/>
  <g stroke-linejoin="bevel" transform="matrix(11.8081,0,0,11.8081,0,0)" font-weight="400" font-style="normal" fill="none" stroke="#000000" stroke-width="1" stroke-linecap="square" font-size="32.5" font-family="MS Shell Dlg 2" stroke-opacity="1"/>
  <g transform="matrix(0.999751,0,0,0.999751,0,0)" font-weight="400" font-style="normal" fill="#000000" stroke="none" fill-opacity="0" font-size="32.5" font-family="MS Shell Dlg 2">
   <rect height="2480" x="0" width="3508" y="0"/>
  </g>
  <g stroke-linejoin="bevel" transform="matrix(0.999751,0,0,0.999751,0,0)" font-weight="400" font-style="normal" fill="none" stroke="#000000" stroke-width="1" stroke-linecap="square" font-size="32.5" font-family="MS Shell Dlg 2" stroke-opacity="1"/>
  <g stroke-linejoin="bevel" transform="matrix(0.3999,0,0,0.3999,1308.15,1265.52)" font-weight="400" font-style="normal" fill="none" stroke="#000000" stroke-width="1" stroke-linecap="square" font-size="32.5" font-family="MS Shell Dlg 2" stroke-opacity="1"/>
  <g transform="matrix(0.999751,0,0,0.999751,1308.15,1265.52)" font-weight="400" font-style="normal" fill="#323232" stroke="none" fill-opacity="1" font-size="32.5" font-family="MS Shell Dlg 2">
   <path fill-rule="nonzero" d="M13.146,-27.972 C16.562,-27.972 19.145,-26.95 20.895,-24.906 C22.645,-22.862 23.52,-19.943 23.52,-16.149 C23.52,-12.355 22.561,-8.939 20.643,-5.901 C18.725,-2.863 16.058,-0.686 12.642,0.63 C9.366,0.63 6.734,-0.455 4.746,-2.625 C2.758,-4.795 1.764,-7.63 1.764,-11.13 C1.764,-16.842 3.836,-21.574 7.98,-25.326 L8.484,-24.99 C6.496,-22.106 5.502,-18.522 5.502,-14.238 C5.502,-11.186 6.209,-8.449 7.623,-6.027 C9.037,-3.605 11.004,-2.394 13.524,-2.394 C15.176,-2.394 16.562,-2.884 17.682,-3.864 C19.082,-6.44 19.782,-9.492 19.782,-13.02 C19.782,-17.64 18.9,-21.028 17.136,-23.184 C16.184,-24.36 14.994,-24.948 13.566,-24.948 C12.838,-24.948 12.166,-24.738 11.55,-24.318 C10.934,-23.898 10.5,-23.352 10.248,-22.68 C10.248,-22.12 10.374,-21.469 10.626,-20.727 C10.878,-19.985 11.2,-19.516 11.592,-19.32 L11.676,-19.026 C11.06,-18.27 10.598,-17.472 10.29,-16.632 C10.234,-16.604 10.122,-16.59 9.954,-16.59 C8.946,-16.59 8.442,-17.486 8.442,-19.278 C8.442,-22.302 10.01,-25.2 13.146,-27.972 M26.596,-21.798 L36.634,-22.092 C39.378,-22.092 41.212,-21.756 42.136,-21.084 C43.032,-20.468 43.48,-19.523 43.48,-18.249 C43.48,-16.975 43.025,-15.827 42.115,-14.805 C41.205,-13.783 40.092,-13.02 38.776,-12.516 L38.776,-12.348 C40.456,-12.348 41.814,-11.991 42.85,-11.277 C43.886,-10.563 44.404,-9.401 44.404,-7.791 C44.404,-6.181 43.508,-4.529 41.716,-2.835 C39.924,-1.141 38.09,-0.028 36.214,0.504 C35.542,0.504 34.625,0.364 33.463,0.084 C32.301,-0.196 31.356,-0.476 30.628,-0.756 C30.32,-0.392 30.04,0.126 29.788,0.798 L28.906,0.588 C29.438,-1.904 29.704,-5.425 29.704,-9.975 C29.704,-14.525 29.578,-17.934 29.326,-20.202 C28.374,-20.566 27.464,-20.748 26.596,-20.748 L26.596,-21.798 M34.87,-12.936 C36.606,-12.936 37.866,-13.174 38.65,-13.65 C39.35,-14.518 39.7,-15.624 39.7,-16.968 C39.7,-19.404 38.37,-20.622 35.71,-20.622 C34.786,-20.622 33.932,-20.468 33.148,-20.16 C32.952,-18.256 32.854,-15.33 32.854,-11.382 C32.854,-7.434 32.91,-4.676 33.022,-3.108 C34.17,-2.492 35.437,-2.184 36.823,-2.184 C38.209,-2.184 39.266,-2.45 39.994,-2.982 C40.47,-3.934 40.708,-5.082 40.708,-6.426 C40.708,-8.274 40.162,-9.576 39.07,-10.332 C37.978,-11.088 36.396,-11.466 34.324,-11.466 L34.492,-12.936 L34.87,-12.936 M51.662,-3.192 C52.95,-2.66 54.224,-2.394 55.484,-2.394 C56.744,-2.394 57.752,-2.688 58.508,-3.276 C59.264,-3.864 59.642,-4.704 59.642,-5.796 C59.642,-6.916 58.06,-8.302 54.896,-9.954 C53.692,-10.57 52.593,-11.319 51.599,-12.201 C50.605,-13.083 50.108,-13.958 50.108,-14.826 C50.108,-16.31 50.892,-17.808 52.46,-19.32 C54.028,-20.832 55.638,-21.854 57.29,-22.386 C59.362,-22.386 61.238,-22.176 62.918,-21.756 L62.918,-21 C61.742,-19.824 61.084,-18.214 60.944,-16.17 L59.894,-16.17 C59.894,-16.954 59.824,-17.934 59.684,-19.11 C58.704,-19.558 57.654,-19.782 56.534,-19.782 C55.414,-19.782 54.483,-19.537 53.741,-19.047 C52.999,-18.557 52.628,-17.85 52.628,-16.926 C52.628,-16.282 53.125,-15.582 54.119,-14.826 C55.113,-14.07 56.198,-13.398 57.374,-12.81 C58.55,-12.222 59.635,-11.494 60.629,-10.626 C61.623,-9.758 62.12,-8.89 62.12,-8.022 C62.12,-6.342 61.378,-4.669 59.894,-3.003 C58.41,-1.337 56.772,-0.168 54.98,0.504 C53.216,0.504 51.564,0.294 50.024,-0.126 C49.576,0.07 49.114,0.392 48.638,0.84 L47.882,0.294 C49.45,-1.414 50.318,-3.528 50.486,-6.048 L51.536,-6.048 C51.536,-5.068 51.578,-4.116 51.662,-3.192 M76.298,-2.436 C78.23,-2.436 80.05,-3.29 81.758,-4.998 L82.346,-4.41 C80.47,-2.03 78.216,-0.392 75.584,0.504 C72.868,0.504 70.74,-0.357 69.2,-2.079 C67.66,-3.801 66.89,-6.125 66.89,-9.051 C66.89,-11.977 67.8,-14.728 69.62,-17.304 C71.44,-19.88 73.764,-21.574 76.592,-22.386 C78.636,-22.386 80.946,-22.176 83.522,-21.756 L83.48,-20.832 C82.948,-20.832 82.444,-20.734 81.968,-20.538 C81.436,-19.278 81.086,-17.78 80.918,-16.044 L79.868,-16.044 C79.644,-16.996 79.532,-17.976 79.532,-18.984 C78.468,-19.516 77.208,-19.782 75.752,-19.782 C74.296,-19.782 73.092,-19.39 72.14,-18.606 C71.048,-16.618 70.502,-14.21 70.502,-11.382 C70.502,-6.986 71.44,-4.228 73.316,-3.108 C74.128,-2.66 75.122,-2.436 76.298,-2.436 M102.362,-11.928 L102.362,-9.954 C102.362,-6.118 102.502,-3.248 102.782,-1.344 C104.07,-1.176 105.134,-0.98 105.974,-0.756 L105.848,0.294 C104.476,0.098 103.069,0 101.627,0 C100.185,0 99.198,0.042 98.666,0.126 L98.498,-0.42 C98.75,-0.7 98.918,-1.498 99.002,-2.814 C97.546,-1.302 95.866,-0.196 93.962,0.504 C89.146,0.504 86.738,-2.366 86.738,-8.106 C86.738,-9.366 86.836,-11.382 87.032,-14.154 C87.228,-16.926 87.326,-18.55 87.326,-19.026 C87.326,-19.502 87.242,-19.964 87.074,-20.412 L87.074,-20.454 C85.898,-20.65 84.96,-20.86 84.26,-21.084 L84.428,-22.218 C86.052,-21.994 87.522,-21.882 88.838,-21.882 C90.154,-21.882 91.232,-21.952 92.072,-22.092 L92.24,-21.378 C91.232,-20.846 90.644,-19.88 90.476,-18.48 C90.14,-15.792 89.972,-13.034 89.972,-10.206 C89.972,-7.378 90.301,-5.369 90.959,-4.179 C91.617,-2.989 92.849,-2.394 94.655,-2.394 C96.461,-2.394 97.924,-2.912 99.044,-3.948 C99.156,-6.188 99.212,-8.834 99.212,-11.886 C99.212,-14.938 99.1,-17.808 98.876,-20.496 C97.616,-20.636 96.454,-20.846 95.39,-21.126 L95.516,-22.176 C96.972,-21.98 98.603,-21.882 100.409,-21.882 C102.215,-21.882 103.832,-21.994 105.26,-22.218 L105.428,-21.126 C104.644,-20.874 103.762,-20.664 102.782,-20.496 C102.502,-18.62 102.362,-15.764 102.362,-11.928 M108.806,-21.798 L118.466,-22.092 C120.986,-22.092 122.876,-21.721 124.136,-20.979 C125.396,-20.237 126.026,-18.886 126.026,-16.926 C126.026,-15.582 125.613,-14.392 124.787,-13.356 C123.961,-12.32 122.876,-11.55 121.532,-11.046 L126.236,-1.428 C127.188,-1.26 128.084,-1.064 128.924,-0.84 L128.756,0.294 C127.58,0.098 126.257,0 124.787,0 C123.317,0 122.162,0.07 121.322,0.21 L121.154,-0.462 C121.518,-0.826 121.7,-1.428 121.7,-2.268 C121.7,-3.976 120.72,-6.72 118.76,-10.5 C118.172,-10.612 117.486,-10.668 116.702,-10.668 L116.786,-11.886 L117.206,-11.886 C120.51,-11.886 122.162,-13.398 122.162,-16.422 C122.162,-19.222 120.748,-20.622 117.92,-20.622 C116.968,-20.622 116.114,-20.468 115.358,-20.16 C115.162,-18.312 115.064,-15.148 115.064,-10.668 C115.064,-6.188 115.19,-3.094 115.442,-1.386 C116.674,-1.246 117.822,-1.036 118.886,-0.756 L118.76,0.294 C117.304,0.098 115.673,0 113.867,0 C112.061,0 110.444,0.112 109.016,0.336 L108.848,-0.756 C109.632,-1.008 110.514,-1.218 111.494,-1.386 C111.774,-3.486 111.914,-6.755 111.914,-11.193 C111.914,-15.631 111.788,-18.704 111.536,-20.412 C110.444,-20.776 109.534,-20.958 108.806,-20.958 L108.806,-21.798 M140.046,0.504 C137.274,0.504 135.034,-0.371 133.326,-2.121 C131.618,-3.871 130.764,-6.216 130.764,-9.156 C130.764,-12.096 131.66,-14.854 133.452,-17.43 C135.244,-20.006 137.582,-21.658 140.466,-22.386 C143.35,-22.386 145.548,-21.567 147.06,-19.929 C148.572,-18.291 149.328,-15.96 149.328,-12.936 C149.328,-9.912 148.509,-7.182 146.871,-4.746 C145.233,-2.31 142.958,-0.56 140.046,0.504 M139.332,-19.824 C138.072,-19.824 136.98,-19.474 136.056,-18.774 C134.908,-16.814 134.334,-14.35 134.334,-11.382 C134.334,-7.966 135.286,-5.348 137.19,-3.528 C138.198,-2.548 139.388,-2.058 140.76,-2.058 C142.132,-2.058 143.238,-2.422 144.078,-3.15 C145.198,-5.11 145.758,-7.504 145.758,-10.332 C145.758,-13.16 145.254,-15.449 144.246,-17.199 C143.238,-18.949 141.6,-19.824 139.332,-19.824 M162.928,0.294 C161.472,0.098 159.841,0 158.035,0 C156.229,0 154.612,0.112 153.184,0.336 L153.016,-0.756 C153.912,-1.036 154.752,-1.246 155.536,-1.386 C155.788,-3.57 155.914,-6.426 155.914,-9.954 L155.914,-11.928 C155.914,-15.68 155.774,-18.564 155.494,-20.58 C154.738,-20.664 153.828,-20.888 152.764,-21.252 L152.89,-22.344 C154.486,-22.036 156.159,-21.882 157.909,-21.882 C159.659,-21.882 160.912,-21.98 161.668,-22.176 L161.752,-21.462 C160.996,-21.266 160.618,-20.944 160.618,-20.496 C160.618,-20.16 160.947,-19.453 161.605,-18.375 C162.263,-17.297 162.9,-16.254 163.516,-15.246 C165.364,-12.306 167.548,-8.694 170.068,-4.41 L170.194,-4.494 L170.194,-9.618 C170.194,-13.37 169.998,-16.191 169.606,-18.081 C169.214,-19.971 168.542,-21.07 167.59,-21.378 L167.674,-22.092 C168.402,-21.952 169.494,-21.882 170.95,-21.882 C172.406,-21.882 173.904,-22.036 175.444,-22.344 L175.57,-21.252 C174.422,-20.888 173.456,-20.664 172.672,-20.58 C172.392,-18.34 172.252,-15.456 172.252,-11.928 L172.252,-9.954 C172.252,-5.698 172.392,-2.814 172.672,-1.302 C173.848,-1.106 174.786,-0.882 175.486,-0.63 L175.36,0.462 C173.96,0.154 172.644,0 171.412,0 C170.18,0 169.228,0.056 168.556,0.168 C168.556,-0.448 168.129,-1.484 167.275,-2.94 C166.421,-4.396 165.644,-5.684 164.944,-6.804 C162.676,-10.472 160.45,-14.196 158.266,-17.976 L158.098,-17.892 L158.098,-12.264 C158.098,-6.692 158.518,-3.066 159.358,-1.386 C160.618,-1.246 161.85,-1.036 163.054,-0.756 L162.928,0.294" vector-effect="none"/>
  </g>
  <g stroke-linejoin="bevel" transform="matrix(0.3999,0,0,0.3999,1308.15,1265.52)" font-weight="400" font-style="normal" fill="none" stroke="#000000" stroke-width="1" stroke-linecap="square" font-size="32.5" font-family="MS Shell Dlg 2" stroke-opacity="1"/>
  <g stroke-linejoin="bevel" transform="matrix(0.999751,0,0,0.999751,0,0)" font-weight="400" font-style="normal" fill="none" stroke="#000000" stroke-width="1" stroke-linecap="square" font-size="32.5" font-family="MS Shell Dlg 2" stroke-opacity="1"/>
  <g stroke-linejoin="bevel" transform="matrix(11.8081,0,0,11.8081,0,0)" font-weight="400" font-style="normal" fill="none" stroke="#000000" stroke-width="1" stroke-linecap="square" font-size="32.5" font-family="MS Shell Dlg 2" stroke-opacity="1"/>
  <g stroke-linejoin="bevel" transform="matrix(11.8081,0,0,11.8081,0,0)" font-weight="400" font-style="normal" fill="none" stroke="#000000" stroke-width="1" stroke-linecap="square" font-size="32.5" font-family="MS Shell Dlg 2" stroke-opacity="1"/>
  <g stroke-linejoin="bevel" transform="matrix(11.8081,0,0,11.8081,0,0)" font-weight="400" font-style="normal" fill="none" stroke="#000000" stroke-width="1" stroke-linecap="square" font-size="32.5" font-family="MS Shell Dlg 2" stroke-opacity="1"/>
  <g stroke-linejoin="bevel" transform="matrix(1,0,0,1,0,0)" font-weight="400" font-style="normal" fill="none" stroke="#000000" stroke-width="1" stroke-linecap="square" font-size="32.5" font-family="MS Shell Dlg 2" stroke-opacity="1"/>
  <g stroke-linejoin="bevel" transform="matrix(11.8081,0,0,11.8081,0,0)" font-weight="400" font-style="normal" fill="none" stroke="#000000" stroke-width="1" stroke-linecap="square" font-size="32.5" font-family="MS Shell Dlg 2" stroke-opacity="1"/>
  <g stroke-linejoin="bevel" transform="matrix(11.8081,0,0,11.8081,0,0)" font-weight="400" font-style="normal" fill="none" stroke="#000000" stroke-width="1" stroke-linecap="square" font-size="32.5" font-family="MS Shell Dlg 2" stroke-opacity="1"/>
  <g stroke-linejoin="bevel" transform="matrix(1,0,0,1,0,0)" font-weight="400" font-style="normal" fill="none" stroke="#000000" stroke-width="1" stroke-linecap="square" font-size="32.5" font-family="MS Shell Dlg 2" stroke-opacity="1"/>
 </g>
</svg>
