<?xml version='1.0' encoding='UTF-8' standalone='no'?>
<svg height="209.973mm" width="296.926mm" viewBox="0 0 3507 2480" xmlns:xlink="http://www.w3.org/1999/xlink" xmlns:inkscape="http://www.inkscape.org/namespaces/inkscape" xmlns="http://www.w3.org/2000/svg" version="1.2" baseProfile="tiny">
 <defs/>
 <g stroke-linejoin="bevel" inkscape:label="Page" inkscape:groupmode="layer" fill="none" stroke="black" fill-rule="evenodd" stroke-width="1" stroke-linecap="square" id="Page">
  <g stroke-linejoin="bevel" transform="matrix(1,0,0,1,0,0)" font-weight="400" font-style="normal" fill="none" stroke="#000000" stroke-width="1" stroke-linecap="square" font-size="32.5" font-family="MS Shell Dlg 2" stroke-opacity="1"/>
  <g stroke-linejoin="bevel" transform="matrix(1,0,0,1,0,0)" font-weight="400" font-style="normal" fill="none" stroke="#000000" stroke-width="1" stroke-linecap="square" font-size="32.5" font-family="MS Shell Dlg 2" stroke-opacity="1"/>
  <g stroke-linejoin="bevel" transform="matrix(11.8081,0,0,11.8081,0,0)" font-weight="400" font-style="normal" fill="none" stroke="#000000" stroke-width="1" stroke-linecap="square" font-size="32.5" font-family="MS Shell Dlg 2" stroke-opacity="1"/>
  <g stroke-linejoin="bevel" transform="matrix(0.999751,0,0,0.999751,0,0)" font-weight="400" font-style="normal" fill="none" stroke="#000000" stroke-width="1" stroke-linecap="square" font-size="32.5" font-family="MS Shell Dlg 2" stroke-opacity="1"/>
  <g transform="matrix(0.999751,0,0,0.999751,0,0)" font-weight="400" font-style="normal" fill="#ffffff" stroke="none" fill-opacity="1" font-size="32.5" font-family="MS Shell Dlg 2">
   <path fill-rule="evenodd" d="M-2,-2 L3510,-2 L3510,2483 L-2,2483 L-2,-2" vector-effect="none"/>
  </g>
  <g stroke-linejoin="bevel" transform="matrix(0.999751,0,0,0.999751,0,0)" font-weight="400" font-style="normal" fill="none" stroke="#000000" stroke-width="1" stroke-linecap="square" font-size="32.5" font-family="MS Shell Dlg 2" stroke-opacity="1"/>
  <g stroke-linejoin="bevel" transform="matrix(11.8081,0,0,11.8081,0,0)" font-weight="400" font-style="normal" fill="none" stroke="#000000" stroke-width="1" stroke-linecap="square" font-size="32.5" font-family="MS Shell Dlg 2" stroke-opacity="1"/>
  <g stroke-linejoin="bevel" transform="matrix(11.8081,0,0,11.8081,0,0)" font-weight="400" font-style="normal" fill="none" stroke="#000000" stroke-width="1" stroke-linecap="square" font-size="32.5" font-family="MS Shell Dlg 2" stroke-opacity="1"/>
  <g stroke-linejoin="bevel" transform="matrix(1,0,0,1,0,0)" font-weight="400" font-style="normal" fill="none" stroke="#000000" stroke-width="1" stroke-linecap="square" font-size="32.5" font-family="MS Shell Dlg 2" stroke-opacity="1"/>
 </g>
 <defs/>
 <g stroke-linejoin="bevel" inkscape:label="Map 1: Background" inkscape:groupmode="layer" fill="none" stroke="black" fill-rule="evenodd" stroke-width="1" stroke-linecap="square" id="Map 1: Background">
  <g stroke-linejoin="bevel" transform="matrix(1,0,0,1,0,0)" font-weight="400" font-style="normal" fill="none" stroke="#000000" stroke-width="1" stroke-linecap="square" font-size="32.5" font-family="MS Shell Dlg 2" stroke-opacity="1"/>
  <g stroke-linejoin="bevel" transform="matrix(1,0,0,1,0,0)" font-weight="400" font-style="normal" fill="none" stroke="#000000" stroke-width="1" stroke-linecap="square" font-size="32.5" font-family="MS Shell Dlg 2" stroke-opacity="1"/>
  <g stroke-linejoin="bevel" transform="matrix(11.8081,0,0,11.8081,0,0)" font-weight="400" font-style="normal" fill="none" stroke="#000000" stroke-width="1" stroke-linecap="square" font-size="32.5" font-family="MS Shell Dlg 2" stroke-opacity="1"/>
  <g transform="matrix(11.8081,0,0,11.8081,0,0)" font-weight="400" font-style="normal" fill="#ffffff" stroke="none" fill-opacity="1" font-size="32.5" font-family="MS Shell Dlg 2">
   <path fill-rule="evenodd" d="M0,0 L297,0 L297,210 L0,210 L0,0" vector-effect="none"/>
  </g>
  <g stroke-linejoin="bevel" transform="matrix(11.8081,0,0,11.8081,0,0)" font-weight="400" font-style="normal" fill="none" stroke="#000000" stroke-width="1" stroke-linecap="square" font-size="32.5" font-family="MS Shell Dlg 2" stroke-opacity="1"/>
  <g stroke-linejoin="bevel" transform="matrix(11.8081,0,0,11.8081,0,0)" font-weight="400" font-style="normal" fill="none" stroke="#000000" stroke-width="1" stroke-linecap="square" font-size="32.5" font-family="MS Shell Dlg 2" stroke-opacity="1"/>
  <g stroke-linejoin="bevel" transform="matrix(11.8081,0,0,11.8081,0,0)" font-weight="400" font-style="normal" fill="none" stroke="#000000" stroke-width="1" stroke-linecap="square" font-size="32.5" font-family="MS Shell Dlg 2" stroke-opacity="1"/>
  <g stroke-linejoin="bevel" transform="matrix(11.8081,0,0,11.8081,0,0)" font-weight="400" font-style="normal" fill="none" stroke="#000000" stroke-width="1" stroke-linecap="square" font-size="32.5" font-family="MS Shell Dlg 2" stroke-opacity="1"/>
  <g stroke-linejoin="bevel" transform="matrix(1,0,0,1,0,0)" font-weight="400" font-style="normal" fill="none" stroke="#000000" stroke-width="1" stroke-linecap="square" font-size="32.5" font-family="MS Shell Dlg 2" stroke-opacity="1"/>
  <g stroke-linejoin="bevel" transform="matrix(11.8081,0,0,11.8081,0,0)" font-weight="400" font-style="normal" fill="none" stroke="#000000" stroke-width="1" stroke-linecap="square" font-size="32.5" font-family="MS Shell Dlg 2" stroke-opacity="1"/>
  <g stroke-linejoin="bevel" transform="matrix(11.8081,0,0,11.8081,0,0)" font-weight="400" font-style="normal" fill="none" stroke="#000000" stroke-width="1" stroke-linecap="square" font-size="32.5" font-family="MS Shell Dlg 2" stroke-opacity="1"/>
  <g stroke-linejoin="bevel" transform="matrix(1,0,0,1,0,0)" font-weight="400" font-style="normal" fill="none" stroke="#000000" stroke-width="1" stroke-linecap="square" font-size="32.5" font-family="MS Shell Dlg 2" stroke-opacity="1"/>
 </g>
 <defs/>
 <g stroke-linejoin="bevel" inkscape:label="Map 1: TheNestLandsLand" inkscape:groupmode="layer" fill="none" stroke="black" fill-rule="evenodd" stroke-width="1" stroke-linecap="square" id="Map 1: TheNestLandsLand">
  <g stroke-linejoin="bevel" transform="matrix(1,0,0,1,0,0)" font-weight="400" font-style="normal" fill="none" stroke="#000000" stroke-width="1" stroke-linecap="square" font-size="32.5" font-family="MS Shell Dlg 2" stroke-opacity="1"/>
  <g stroke-linejoin="bevel" transform="matrix(1,0,0,1,0,0)" font-weight="400" font-style="normal" fill="none" stroke="#000000" stroke-width="1" stroke-linecap="square" font-size="32.5" font-family="MS Shell Dlg 2" stroke-opacity="1"/>
  <g stroke-linejoin="bevel" transform="matrix(11.8081,0,0,11.8081,0,0)" font-weight="400" font-style="normal" fill="none" stroke="#000000" stroke-width="1" stroke-linecap="square" font-size="32.5" font-family="MS Shell Dlg 2" stroke-opacity="1"/>
  <g stroke-linejoin="bevel" transform="matrix(11.8081,0,0,11.8081,0,0)" font-weight="400" font-style="normal" fill="none" stroke="#000000" stroke-width="1" stroke-linecap="square" font-size="32.5" font-family="MS Shell Dlg 2" stroke-opacity="1"/>
  <g transform="matrix(0.999751,0,0,0.999751,0,0)" font-weight="400" font-style="normal" fill="#000000" stroke="none" fill-opacity="0" font-size="32.5" font-family="MS Shell Dlg 2">
   <rect height="2480" x="0" width="3508" y="0"/>
  </g>
  <g stroke-linejoin="bevel" transform="matrix(0.999751,0,0,0.999751,0,0)" font-weight="400" font-style="normal" fill="none" stroke="#000000" stroke-width="1" stroke-linecap="square" font-size="32.5" font-family="MS Shell Dlg 2" stroke-opacity="1"/>
  <g stroke-linejoin="bevel" transform="matrix(0.999751,0,0,0.999751,0,0)" font-weight="400" font-style="normal" fill="#5d58cc" stroke="#232323" fill-opacity="1" stroke-width="5.90551" stroke-linecap="square" font-size="32.5" font-family="MS Shell Dlg 2" stroke-opacity="1">
   <path fill-rule="evenodd" d="M2509.58,1431.78 L2497.5,1421.43 L2487.14,1409.35 L2475.06,1388.64 L2464.7,1376.55 L2475.06,1343.76 L2497.5,1333.41 L2497.5,1310.97 L2509.58,1267.82 L2509.58,1257.47 L2542.37,1257.47 L2563.08,1245.39 L2563.08,1224.68 L2542.37,1202.24 L2509.58,1202.24 L2497.5,1179.8 L2497.5,1159.09 L2509.58,1147.01 L2563.08,1159.09 L2563.08,1169.45 L2595.87,1191.88 L2618.31,1179.8 L2628.66,1147.01 L2595.87,1124.57 L2585.52,1124.57 L2542.37,1091.78 L2542.37,1081.43 L2552.72,1038.28 L2563.08,1038.28 L2563.08,1015.84 L2585.52,1005.49 L2595.87,993.406 L2628.66,960.614 L2628.66,939.904 L2640.74,917.467 L2661.46,917.467 L2673.54,907.112 L2706.33,907.112 L2716.68,884.675 L2739.12,874.32 L2749.48,884.675 L2761.56,917.467 L2794.35,927.822 L2804.7,895.03 L2804.7,884.675 L2827.14,851.883 L2859.93,862.238 L2892.72,851.883 L2892.72,841.528 L2859.93,808.736 L2847.85,808.736 L2837.5,796.655 L2837.5,775.944 L2870.29,753.507 L2882.37,753.507 L2892.72,743.152 L2935.87,731.071 L2947.95,731.071 L2958.31,710.36 L2958.31,687.923 L2980.75,644.776 L2991.1,644.776 L3001.46,622.34 L3023.89,622.34 L3034.25,599.903 L3068.77,599.903 L3089.48,611.984 L3101.56,622.34 L3101.56,655.131 L3134.35,677.568 L3101.56,710.36 L3079.12,710.36 L3068.77,731.071 L3056.68,753.507 L3068.77,753.507 L3101.56,775.944 L3111.91,775.944 L3134.35,796.655 L3122.27,808.736 L3111.91,829.447 L3111.91,862.238 L3134.35,884.675 L3155.06,907.112 L3155.06,917.467 L3177.5,950.259 L3155.06,972.696 L3167.14,1005.49 L3177.5,1015.84 L3199.93,1015.84 L3199.93,1005.49 L3255.16,1005.49 L3265.52,1026.2 L3298.31,1015.84 L3331.1,1026.2 L3341.46,1026.2 L3353.54,1005.49 L3386.33,993.406 L3408.77,1005.49 L3419.12,1026.2 L3441.56,1071.07 L3474.35,1081.43 L3474.35,1091.78 L3474.35,1114.22 L3441.56,1136.66 L3429.48,1136.66 L3408.77,1159.09 L3396.69,1159.09 L3386.33,1159.09 L3374.25,1179.8 L3374.25,1202.24 L3408.77,1224.68 L3386.33,1257.47 L3374.25,1257.47 L3353.54,1245.39 L3353.54,1235.03 L3331.1,1224.68 L3331.1,1202.24 L3298.31,1191.88 L3308.66,1159.09 L3298.31,1147.01 L3298.31,1136.66 L3275.87,1124.57 L3255.16,1136.66 L3255.16,1169.45 L3255.16,1179.8 L3255.16,1202.24 L3222.37,1202.24 L3187.85,1179.8 L3167.14,1212.59 L3144.71,1212.59 L3122.27,1245.39 L3101.56,1257.47 L3089.48,1290.26 L3089.48,1300.62 L3079.12,1343.76 L3068.77,1355.84 L3034.25,1343.76 L3001.46,1376.55 L3001.46,1388.64 L3013.54,1409.35 L3056.68,1398.99 L3068.77,1388.64 L3089.48,1398.99 L3089.48,1442.14 L3079.12,1474.93 L3089.48,1487.01 L3079.12,1507.72 L3034.25,1519.8 L2980.75,1540.51 L2968.66,1540.51 L2958.31,1552.6 L2958.31,1595.74 L2947.95,1606.1 L2947.95,1628.53 L2903.08,1661.33 L2892.72,1650.97 L2859.93,1638.89 L2859.93,1628.53 L2827.14,1606.1 L2837.5,1573.31 L2837.5,1562.95 L2837.5,1540.51 L2827.14,1519.8 L2804.7,1519.8 L2782.27,1530.16 L2749.48,1519.8 L2739.12,1507.72 L2706.33,1497.37 L2706.33,1487.01 L2661.46,1474.93 L2661.46,1464.57 L2628.66,1464.57 L2618.31,1454.22 L2595.87,1442.14 L2585.52,1454.22 L2552.72,1442.14 L2509.58,1431.78" vector-effect="none"/>
   <path fill-rule="evenodd" d="M1927.95,1487.01 L1905.51,1497.37 L1895.16,1519.8 L1883.08,1530.16 L1839.93,1507.72 L1839.93,1487.01 L1817.49,1474.93 L1807.14,1474.93 L1807.14,1464.57 L1762.27,1474.93 L1729.47,1454.22 L1686.33,1431.78 L1653.53,1454.22 L1643.18,1454.22 L1620.74,1464.57 L1587.95,1454.22 L1565.51,1421.43 L1575.87,1398.99 L1587.95,1398.99 L1631.1,1398.99 L1643.18,1388.64 L1653.53,1343.76 L1708.76,1366.2 L1708.76,1376.55 L1751.91,1398.99 L1762.27,1409.35 L1774.35,1409.35 L1817.49,1398.99 L1817.49,1388.64 L1862.37,1388.64 L1862.37,1376.55 L1895.16,1376.55 L1915.87,1333.41 L1905.51,1310.97 L1915.87,1278.18 L1895.16,1257.47 L1839.93,1257.47 L1807.14,1278.18 L1774.35,1267.82 L1762.27,1278.18 L1741.55,1257.47 L1708.76,1267.82 L1686.33,1257.47 L1686.33,1224.68 L1741.55,1212.59 L1784.7,1202.24 L1795.06,1202.24 L1817.49,1202.24 L1829.58,1202.24 L1872.72,1202.24 L1895.16,1179.8 L1905.51,1179.8 L1938.31,1147.01 L1971.1,1136.66 L2003.89,1136.66 L2003.89,1124.57 L2015.97,1124.57 L2048.76,1159.09 L2036.68,1179.8 L2059.12,1212.59 L2081.56,1179.8 L2102.27,1212.59 L2081.56,1245.39 L2069.47,1235.03 L2036.68,1278.18 L2069.47,1300.62 L2081.56,1333.41 L2102.27,1343.76 L2091.91,1376.55 L2102.27,1398.99 L2091.91,1421.43 L2102.27,1464.57 L2069.47,1487.01 L2015.97,1497.37 L2003.89,1474.93 L2015.97,1442.14 L2026.33,1431.78 L2026.33,1398.99 L2003.89,1376.55 L1993.54,1376.55 L1971.1,1388.64 L1971.1,1421.43 L1960.74,1431.78 L1960.74,1464.57 L1938.31,1474.93 L1927.95,1487.01" vector-effect="none"/>
   <path fill-rule="evenodd" d="M271.095,1771.78 L271.095,1738.99 L260.74,1716.55 L250.384,1704.47 L215.866,1704.47 L195.156,1704.47 L172.719,1704.47 L129.572,1749.35 L129.572,1759.7 L84.6987,1782.14 L51.9067,1759.7 L63.988,1716.55 L107.135,1716.55 L107.135,1683.76 L129.572,1650.97 L117.491,1638.89 L129.572,1606.1 L117.491,1595.74 L129.572,1562.95 L150.283,1519.8 L172.719,1540.51 L205.511,1507.72 L205.511,1497.37 L205.511,1487.01 L205.511,1454.22 L238.303,1442.14 L271.095,1474.93 L293.532,1474.93 L293.532,1464.57 L326.324,1464.57 L336.679,1442.14 L359.115,1431.78 L359.115,1409.35 L391.907,1388.64 L414.344,1409.35 L414.344,1442.14 L424.699,1454.22 L436.781,1474.93 L436.781,1487.01 L447.136,1487.01 L414.344,1530.16 L414.344,1540.51 L369.471,1562.95 L336.679,1595.74 L326.324,1595.74 L315.968,1618.18 L315.968,1628.53 L336.679,1650.97 L369.471,1661.33 L391.907,1650.97 L391.907,1638.89 L414.344,1618.18 L414.344,1595.74 L424.699,1573.31 L469.573,1595.74 L447.136,1618.18 L469.573,1650.97 L469.573,1661.33 L490.283,1683.76 L479.928,1704.47 L479.928,1716.55 L479.928,1738.99 L479.928,1749.35 L512.72,1771.78 L512.72,1814.93 L490.283,1837.37 L457.491,1825.29 L424.699,1825.29 L414.344,1825.29 L359.115,1847.72 L348.76,1847.72 L326.324,1847.72 L293.532,1858.08 L283.176,1847.72 L271.095,1837.37 L260.74,1804.58 L271.095,1771.78" vector-effect="none"/>
   <path fill-rule="evenodd" d="M2892.72,511.882 L2925.52,479.09 L2935.87,468.735 L2947.95,468.735 L2958.31,435.943 L2980.75,403.151 L3001.46,403.151 L3023.89,413.507 L3056.68,413.507 L3079.12,435.943 L3068.77,458.38 L3046.33,479.09 L3046.33,501.527 L3023.89,523.964 L3023.89,546.4 L3023.89,567.111 L2991.1,589.548 L2980.75,589.548 L2947.95,611.984 L2892.72,611.984 L2892.72,567.111 L2892.72,556.756 L2903.08,534.319 L2892.72,511.882" vector-effect="none"/>
   <path fill-rule="evenodd" d="M655.969,1792.49 L666.324,1825.29 L709.472,1825.29 L721.553,1825.29 L721.553,1804.58 L742.263,1782.14 L787.137,1804.58 L787.137,1837.37 L764.7,1847.72 L754.345,1880.51 L742.263,1880.51 L742.263,1902.95 L721.553,1913.31 L688.761,1902.95 L676.68,1913.31 L643.888,1913.31 L633.532,1902.95 L611.096,1890.87 L600.74,1847.72 L600.74,1837.37 L600.74,1825.29 L623.177,1792.49 L655.969,1792.49" vector-effect="none"/>
   <path fill-rule="evenodd" d="M1489.57,1671.68 L1522.37,1661.33 L1555.16,1683.76 L1565.51,1671.68 L1608.66,1683.76 L1620.74,1716.55 L1620.74,1726.91 L1587.95,1726.91 L1565.51,1759.7 L1565.51,1771.78 L1532.72,1782.14 L1532.72,1792.49 L1489.57,1792.49 L1489.57,1759.7 L1477.49,1749.35 L1467.14,1726.91 L1455.06,1716.55 L1455.06,1694.12 L1489.57,1671.68" vector-effect="none"/>
   <path fill-rule="evenodd" d="M555.867,1913.31 L567.948,1935.74 L600.74,1956.45 L611.096,1989.25 L590.385,2001.33 L555.867,2001.33 L555.867,1989.25 L512.72,1989.25 L479.928,1978.89 L457.491,1946.1 L490.283,1902.95 L502.365,1902.95 L535.156,1913.31 L555.867,1913.31" vector-effect="none"/>
   <path fill-rule="evenodd" d="M2003.89,993.406 L2026.33,1005.49 L2048.76,1026.2 L2048.76,1038.28 L2036.68,1048.63 L1971.1,1058.99 L1960.74,1058.99 L1927.95,1048.63 L1927.95,1038.28 L1905.51,1015.84 L1905.51,993.406 L1948.66,1005.49 L1948.66,993.406 L1981.45,1005.49 L2003.89,993.406" vector-effect="none"/>
   <path fill-rule="evenodd" d="M1477.49,1628.53 L1411.91,1628.53 L1401.55,1618.18 L1411.91,1606.1 L1422.26,1573.31 L1455.06,1562.95 L1467.14,1573.31 L1489.57,1606.1 L1477.49,1628.53" vector-effect="none"/>
   <path fill-rule="evenodd" d="M2980.75,1726.91 L2958.31,1704.47 L2968.66,1683.76 L2991.1,1661.33 L3023.89,1671.68 L3034.25,1694.12 L3023.89,1716.55 L2980.75,1726.91" vector-effect="none"/>
   <path fill-rule="evenodd" d="M2771.91,337.567 L2815.06,304.775 L2837.5,315.131 L2837.5,347.923 L2804.7,370.359 L2782.27,360.004 L2771.91,337.567" vector-effect="none"/>
   <path fill-rule="evenodd" d="M2683.89,851.883 L2651.1,819.091 L2651.1,808.736 L2673.54,796.655 L2683.89,796.655 L2716.68,819.091 L2695.97,851.883 L2683.89,851.883" vector-effect="none"/>
   <path fill-rule="evenodd" d="M2739.12,108.024 L2749.48,118.379 L2749.48,140.816 L2695.97,151.171 L2706.33,118.379 L2739.12,108.024" vector-effect="none"/>
  </g>
  <g stroke-linejoin="bevel" transform="matrix(0.999751,0,0,0.999751,0,0)" font-weight="400" font-style="normal" fill="none" stroke="#000000" stroke-width="1" stroke-linecap="square" font-size="32.5" font-family="MS Shell Dlg 2" stroke-opacity="1"/>
  <g stroke-linejoin="bevel" transform="matrix(11.8081,0,0,11.8081,0,0)" font-weight="400" font-style="normal" fill="none" stroke="#000000" stroke-width="1" stroke-linecap="square" font-size="32.5" font-family="MS Shell Dlg 2" stroke-opacity="1"/>
  <g stroke-linejoin="bevel" transform="matrix(11.8081,0,0,11.8081,0,0)" font-weight="400" font-style="normal" fill="none" stroke="#000000" stroke-width="1" stroke-linecap="square" font-size="32.5" font-family="MS Shell Dlg 2" stroke-opacity="1"/>
  <g stroke-linejoin="bevel" transform="matrix(11.8081,0,0,11.8081,0,0)" font-weight="400" font-style="normal" fill="none" stroke="#000000" stroke-width="1" stroke-linecap="square" font-size="32.5" font-family="MS Shell Dlg 2" stroke-opacity="1"/>
  <g stroke-linejoin="bevel" transform="matrix(1,0,0,1,0,0)" font-weight="400" font-style="normal" fill="none" stroke="#000000" stroke-width="1" stroke-linecap="square" font-size="32.5" font-family="MS Shell Dlg 2" stroke-opacity="1"/>
  <g stroke-linejoin="bevel" transform="matrix(11.8081,0,0,11.8081,0,0)" font-weight="400" font-style="normal" fill="none" stroke="#000000" stroke-width="1" stroke-linecap="square" font-size="32.5" font-family="MS Shell Dlg 2" stroke-opacity="1"/>
  <g stroke-linejoin="bevel" transform="matrix(11.8081,0,0,11.8081,0,0)" font-weight="400" font-style="normal" fill="none" stroke="#000000" stroke-width="1" stroke-linecap="square" font-size="32.5" font-family="MS Shell Dlg 2" stroke-opacity="1"/>
  <g stroke-linejoin="bevel" transform="matrix(1,0,0,1,0,0)" font-weight="400" font-style="normal" fill="none" stroke="#000000" stroke-width="1" stroke-linecap="square" font-size="32.5" font-family="MS Shell Dlg 2" stroke-opacity="1"/>
 </g>
 <defs/>
 <g stroke-linejoin="bevel" inkscape:label="Map 1: TheNestLandsLand (Labels)" inkscape:groupmode="layer" fill="none" stroke="black" fill-rule="evenodd" stroke-width="1" stroke-linecap="square" id="Map 1: TheNestLandsLand (Labels)">
  <g stroke-linejoin="bevel" transform="matrix(1,0,0,1,0,0)" font-weight="400" font-style="normal" fill="none" stroke="#000000" stroke-width="1" stroke-linecap="square" font-size="32.5" font-family="MS Shell Dlg 2" stroke-opacity="1"/>
  <g stroke-linejoin="bevel" transform="matrix(1,0,0,1,0,0)" font-weight="400" font-style="normal" fill="none" stroke="#000000" stroke-width="1" stroke-linecap="square" font-size="32.5" font-family="MS Shell Dlg 2" stroke-opacity="1"/>
  <g stroke-linejoin="bevel" transform="matrix(11.8081,0,0,11.8081,0,0)" font-weight="400" font-style="normal" fill="none" stroke="#000000" stroke-width="1" stroke-linecap="square" font-size="32.5" font-family="MS Shell Dlg 2" stroke-opacity="1"/>
  <g stroke-linejoin="bevel" transform="matrix(11.8081,0,0,11.8081,0,0)" font-weight="400" font-style="normal" fill="none" stroke="#000000" stroke-width="1" stroke-linecap="square" font-size="32.5" font-family="MS Shell Dlg 2" stroke-opacity="1"/>
  <g transform="matrix(0.999751,0,0,0.999751,0,0)" font-weight="400" font-style="normal" fill="#000000" stroke="none" fill-opacity="0" font-size="32.5" font-family="MS Shell Dlg 2">
   <rect height="2480" x="0" width="3508" y="0"/>
  </g>
  <g stroke-linejoin="bevel" transform="matrix(0.999751,0,0,0.999751,0,0)" font-weight="400" font-style="normal" fill="none" stroke="#000000" stroke-width="1" stroke-linecap="square" font-size="32.5" font-family="MS Shell Dlg 2" stroke-opacity="1"/>
  <g stroke-linejoin="bevel" transform="matrix(0.3999,0,0,0.3999,2772.95,1165.75)" font-weight="400" font-style="normal" fill="none" stroke="#000000" stroke-width="1" stroke-linecap="square" font-size="32.5" font-family="MS Shell Dlg 2" stroke-opacity="1"/>
  <g transform="matrix(0.999751,0,0,0.999751,2772.95,1165.75)" font-weight="400" font-style="normal" fill="#323232" stroke="none" fill-opacity="1" font-size="32.5" font-family="MS Shell Dlg 2">
   <path fill-rule="nonzero" d="M5.292,-27.972 C7.224,-27.888 9.443,-27.72 11.949,-27.468 C14.455,-27.216 16.24,-27.09 17.304,-27.09 C18.368,-27.09 19.166,-27.174 19.698,-27.342 C20.986,-28.574 21.896,-29.512 22.428,-30.156 L23.1,-29.652 C21.616,-27.72 20.72,-25.704 20.412,-23.604 C17.64,-24.36 15.106,-24.822 12.81,-24.99 C12.614,-21.938 12.516,-17.927 12.516,-12.957 C12.516,-7.987 12.698,-4.158 13.062,-1.47 C14.462,-1.33 16.002,-1.064 17.682,-0.672 L17.556,0.336 C15.484,0.112 13.237,0 10.815,0 C8.393,0 6.44,0.112 4.956,0.336 L4.788,-0.714 C6.048,-1.106 7.392,-1.4 8.82,-1.596 C9.128,-3.892 9.282,-7.504 9.282,-12.432 L9.282,-14.91 C9.282,-17.682 9.114,-21.084 8.778,-25.116 L7.686,-25.116 C4.382,-25.116 2.268,-24.668 1.344,-23.772 C1.148,-23.38 1.05,-22.764 1.05,-21.924 C1.05,-21.084 1.19,-20.51 1.47,-20.202 L1.428,-19.908 C0.728,-19.488 0.028,-18.9 -0.672,-18.144 C-1.008,-18.172 -1.281,-18.312 -1.491,-18.564 C-1.701,-18.816 -1.806,-19.11 -1.806,-19.446 C-1.806,-20.818 -0.98,-22.456 0.672,-24.36 C2.324,-26.264 3.864,-27.468 5.292,-27.972 M37.078,-22.218 C38.506,-21.994 40.123,-21.882 41.929,-21.882 C43.735,-21.882 45.366,-21.98 46.822,-22.176 L46.948,-21.126 C45.884,-20.846 44.722,-20.636 43.462,-20.496 C43.182,-18.76 43.042,-15.904 43.042,-11.928 L43.042,-9.954 C43.042,-5.922 43.182,-3.066 43.462,-1.386 C44.722,-1.246 45.884,-1.036 46.948,-0.756 L46.822,0.294 C45.366,0.098 43.735,0 41.929,0 C40.123,0 38.506,0.112 37.078,0.336 L36.91,-0.756 C37.694,-1.008 38.576,-1.218 39.556,-1.386 C39.78,-4.55 39.906,-7.714 39.934,-10.878 C38.142,-11.046 36.49,-11.13 34.978,-11.13 C33.466,-11.13 31.828,-11.046 30.064,-10.878 C30.064,-6.258 30.19,-3.094 30.442,-1.386 C31.702,-1.246 32.864,-1.036 33.928,-0.756 L33.802,0.294 C32.346,0.098 30.715,0 28.909,0 C27.103,0 25.486,0.112 24.058,0.336 L23.89,-0.756 C24.674,-1.008 25.556,-1.218 26.536,-1.386 C26.788,-3.402 26.914,-6.258 26.914,-9.954 L26.914,-11.928 C26.914,-15.624 26.774,-18.48 26.494,-20.496 C25.514,-20.664 24.632,-20.874 23.848,-21.126 L24.016,-22.218 C25.444,-21.994 27.061,-21.882 28.867,-21.882 C30.673,-21.882 32.304,-21.98 33.76,-22.176 L33.886,-21.126 C32.822,-20.846 31.66,-20.636 30.4,-20.496 C30.176,-18.872 30.064,-16.366 30.064,-12.978 C31.632,-12.754 33.319,-12.642 35.125,-12.642 C36.931,-12.642 38.534,-12.74 39.934,-12.936 C39.906,-15.316 39.78,-17.836 39.556,-20.496 C38.576,-20.664 37.694,-20.874 36.91,-21.126 L37.078,-22.218 M53.502,-10.374 C53.586,-7.882 54.048,-5.936 54.888,-4.536 C55.728,-3.136 57.156,-2.436 59.172,-2.436 C61.188,-2.436 63.05,-3.29 64.758,-4.998 L65.346,-4.41 C63.47,-2.03 61.216,-0.392 58.584,0.504 C55.868,0.504 53.74,-0.357 52.2,-2.079 C50.66,-3.801 49.89,-6.125 49.89,-9.051 C49.89,-11.977 50.8,-14.728 52.62,-17.304 C54.44,-19.88 56.764,-21.574 59.592,-22.386 C61.636,-22.386 63.946,-22.176 66.522,-21.756 L66.48,-20.832 C65.948,-20.832 65.444,-20.734 64.968,-20.538 C64.436,-19.278 64.086,-17.78 63.918,-16.044 L62.868,-16.044 C62.644,-16.996 62.532,-17.976 62.532,-18.984 C61.468,-19.516 60.208,-19.782 58.752,-19.782 C57.296,-19.782 56.092,-19.39 55.14,-18.606 C54.188,-16.87 53.642,-14.798 53.502,-12.39 C54.678,-12.194 55.938,-12.096 57.282,-12.096 C59.606,-12.096 61.006,-12.586 61.482,-13.566 L62.364,-13.44 C62.112,-12.6 61.986,-11.774 61.986,-10.962 C61.986,-10.15 62.084,-9.156 62.28,-7.98 L61.272,-7.812 C60.964,-8.652 60.74,-9.52 60.6,-10.416 C59.48,-10.528 58.367,-10.584 57.261,-10.584 C56.155,-10.584 54.902,-10.514 53.502,-10.374 M96.966,-12.432 C96.966,-17.22 96.756,-20.727 96.336,-22.953 C95.916,-25.179 95.118,-26.502 93.942,-26.922 L94.11,-27.51 C94.978,-27.398 96.392,-27.342 98.352,-27.342 C100.312,-27.342 102.118,-27.454 103.77,-27.678 L103.896,-26.712 C101.908,-26.236 100.522,-25.956 99.738,-25.872 C99.374,-23.128 99.192,-19.474 99.192,-14.91 L99.192,-12.432 C99.192,-7.196 99.374,-3.542 99.738,-1.47 C101.166,-1.302 102.51,-1.05 103.77,-0.714 L103.602,0.336 C102.118,0.112 100.627,0 99.129,0 C97.631,0 96.42,0.042 95.496,0.126 C95.496,-0.798 94.586,-2.856 92.766,-6.048 C90.946,-9.24 87.642,-14.574 82.854,-22.05 L82.686,-21.966 L82.686,-14.91 C82.686,-8.05 83.204,-3.57 84.24,-1.47 C85.78,-1.33 87.306,-1.064 88.818,-0.672 L88.734,0.336 C86.662,0.112 84.415,0 81.993,0 C79.571,0 77.618,0.112 76.134,0.336 L75.966,-0.714 C77.226,-1.106 78.57,-1.4 79.998,-1.596 C80.306,-3.892 80.46,-7.504 80.46,-12.432 L80.46,-14.91 C80.46,-18.858 80.292,-22.232 79.956,-25.032 C76.652,-25.032 74.538,-24.584 73.614,-23.688 C73.418,-23.296 73.32,-22.68 73.32,-21.84 C73.32,-21 73.46,-20.426 73.74,-20.118 L73.698,-19.824 C72.998,-19.404 72.298,-18.816 71.598,-18.06 C71.262,-18.088 70.989,-18.228 70.779,-18.48 C70.569,-18.732 70.464,-19.026 70.464,-19.362 C70.464,-20.734 71.29,-22.372 72.942,-24.276 C74.594,-26.18 76.134,-27.384 77.562,-27.888 C77.898,-27.86 78.843,-27.762 80.397,-27.594 C81.951,-27.426 83.232,-27.342 84.24,-27.342 C85.248,-27.342 86.186,-27.426 87.054,-27.594 L87.222,-26.544 C86.074,-26.068 85.5,-25.606 85.5,-25.158 C85.64,-24.402 86.438,-22.813 87.894,-20.391 C89.35,-17.969 92.318,-13.272 96.798,-6.3 L96.966,-6.384 L96.966,-12.432 M110.502,-10.374 C110.586,-7.882 111.048,-5.936 111.888,-4.536 C112.728,-3.136 114.156,-2.436 116.172,-2.436 C118.188,-2.436 120.05,-3.29 121.758,-4.998 L122.346,-4.41 C120.47,-2.03 118.216,-0.392 115.584,0.504 C112.868,0.504 110.74,-0.357 109.2,-2.079 C107.66,-3.801 106.89,-6.125 106.89,-9.051 C106.89,-11.977 107.8,-14.728 109.62,-17.304 C111.44,-19.88 113.764,-21.574 116.592,-22.386 C118.636,-22.386 120.946,-22.176 123.522,-21.756 L123.48,-20.832 C122.948,-20.832 122.444,-20.734 121.968,-20.538 C121.436,-19.278 121.086,-17.78 120.918,-16.044 L119.868,-16.044 C119.644,-16.996 119.532,-17.976 119.532,-18.984 C118.468,-19.516 117.208,-19.782 115.752,-19.782 C114.296,-19.782 113.092,-19.39 112.14,-18.606 C111.188,-16.87 110.642,-14.798 110.502,-12.39 C111.678,-12.194 112.938,-12.096 114.282,-12.096 C116.606,-12.096 118.006,-12.586 118.482,-13.566 L119.364,-13.44 C119.112,-12.6 118.986,-11.774 118.986,-10.962 C118.986,-10.15 119.084,-9.156 119.28,-7.98 L118.272,-7.812 C117.964,-8.652 117.74,-9.52 117.6,-10.416 C116.48,-10.528 115.367,-10.584 114.261,-10.584 C113.155,-10.584 111.902,-10.514 110.502,-10.374 M128.662,-3.192 C129.95,-2.66 131.224,-2.394 132.484,-2.394 C133.744,-2.394 134.752,-2.688 135.508,-3.276 C136.264,-3.864 136.642,-4.704 136.642,-5.796 C136.642,-6.916 135.06,-8.302 131.896,-9.954 C130.692,-10.57 129.593,-11.319 128.599,-12.201 C127.605,-13.083 127.108,-13.958 127.108,-14.826 C127.108,-16.31 127.892,-17.808 129.46,-19.32 C131.028,-20.832 132.638,-21.854 134.29,-22.386 C136.362,-22.386 138.238,-22.176 139.918,-21.756 L139.918,-21 C138.742,-19.824 138.084,-18.214 137.944,-16.17 L136.894,-16.17 C136.894,-16.954 136.824,-17.934 136.684,-19.11 C135.704,-19.558 134.654,-19.782 133.534,-19.782 C132.414,-19.782 131.483,-19.537 130.741,-19.047 C129.999,-18.557 129.628,-17.85 129.628,-16.926 C129.628,-16.282 130.125,-15.582 131.119,-14.826 C132.113,-14.07 133.198,-13.398 134.374,-12.81 C135.55,-12.222 136.635,-11.494 137.629,-10.626 C138.623,-9.758 139.12,-8.89 139.12,-8.022 C139.12,-6.342 138.378,-4.669 136.894,-3.003 C135.41,-1.337 133.772,-0.168 131.98,0.504 C130.216,0.504 128.564,0.294 127.024,-0.126 C126.576,0.07 126.114,0.392 125.638,0.84 L124.882,0.294 C126.45,-1.414 127.318,-3.528 127.486,-6.048 L128.536,-6.048 C128.536,-5.068 128.578,-4.116 128.662,-3.192 M157.54,-19.614 C156.56,-20.09 155.622,-20.328 154.726,-20.328 C153.83,-20.328 153.228,-20.272 152.92,-20.16 C152.696,-18.648 152.584,-15.722 152.584,-11.382 C152.584,-7.042 152.738,-3.71 153.046,-1.386 C154.306,-1.246 155.468,-1.036 156.532,-0.756 L156.406,0.294 C154.95,0.098 153.277,0 151.387,0 C149.497,0 147.838,0.112 146.41,0.336 L146.242,-0.756 C146.802,-0.924 147.768,-1.134 149.14,-1.386 C149.392,-3.402 149.518,-6.258 149.518,-9.954 L149.518,-11.928 C149.518,-13.888 149.364,-16.632 149.056,-20.16 C148.748,-20.272 148.174,-20.328 147.334,-20.328 C146.494,-20.328 145.598,-20.132 144.646,-19.74 C144.366,-18.872 144.17,-17.71 144.058,-16.254 L142.966,-16.254 C142.966,-18.55 142.588,-20.328 141.832,-21.588 L142.042,-22.302 C144.198,-22.022 147.222,-21.882 151.114,-21.882 C155.006,-21.882 158.142,-22.036 160.522,-22.344 L160.774,-21.546 C160.074,-20.762 159.598,-19.999 159.346,-19.257 C159.094,-18.515 158.94,-17.514 158.884,-16.254 L157.834,-16.254 C157.638,-17.178 157.54,-18.298 157.54,-19.614 M177.156,-25.872 C176.792,-23.408 176.61,-19.495 176.61,-14.133 C176.61,-8.771 176.722,-4.83 176.946,-2.31 C177.898,-2.254 178.794,-2.226 179.634,-2.226 C182.938,-2.226 185.052,-2.674 185.976,-3.57 C186.172,-3.962 186.27,-4.578 186.27,-5.418 C186.27,-6.258 186.13,-6.832 185.85,-7.14 L185.892,-7.434 C186.592,-7.854 187.292,-8.442 187.992,-9.198 C188.328,-9.17 188.601,-9.03 188.811,-8.778 C189.021,-8.526 189.126,-8.232 189.126,-7.896 C189.126,-6.524 188.3,-4.886 186.648,-2.982 C184.996,-1.078 183.456,0.126 182.028,0.63 C179.62,0.546 177.016,0.14 174.216,-0.588 C173.824,-0.084 173.502,0.56 173.25,1.344 L172.368,1.092 C172.956,-1.736 173.292,-6.37 173.376,-12.81 L173.376,-14.91 C173.376,-19.81 173.222,-23.422 172.914,-25.746 C171.486,-25.942 170.142,-26.236 168.882,-26.628 L169.05,-27.678 C170.534,-27.454 172.487,-27.342 174.909,-27.342 C177.331,-27.342 179.578,-27.454 181.65,-27.678 L181.776,-26.67 C180.096,-26.278 178.556,-26.012 177.156,-25.872 M191.536,-22.344 C194.168,-22.036 196.828,-21.882 199.516,-21.882 C202.204,-21.882 204.85,-22.036 207.454,-22.344 L207.622,-21.252 C206.782,-20.916 205.914,-20.664 205.018,-20.496 C204.71,-18.2 204.556,-15.008 204.556,-10.92 C204.556,-6.832 204.71,-3.64 205.018,-1.344 C205.578,-1.26 206.614,-1.05 208.126,-0.714 L207.958,0.336 C206.614,0.112 204.892,0 202.792,0 C200.692,0 199.082,0.112 197.962,0.336 L197.794,-0.756 C198.746,-1.064 199.824,-1.288 201.028,-1.428 C201.196,-3.052 201.322,-5.306 201.406,-8.19 C200.09,-8.33 198.774,-8.4 197.458,-8.4 C196.142,-8.4 194.994,-8.33 194.014,-8.19 C193.454,-5.894 193.174,-4.298 193.174,-3.402 C193.174,-2.03 193.664,-1.064 194.644,-0.504 L194.476,0.21 C193.832,0.07 192.614,0 190.822,0 C189.03,0 187.616,0.112 186.58,0.336 L186.412,-0.756 C187.084,-1.008 188.008,-1.232 189.184,-1.428 L194.644,-20.58 C193.412,-20.776 192.334,-21 191.41,-21.252 L191.536,-22.344 M194.35,-10.164 C195.442,-9.996 196.653,-9.912 197.983,-9.912 C199.313,-9.912 200.454,-9.996 201.406,-10.164 C201.406,-15.344 201.294,-18.69 201.07,-20.202 C200.118,-20.258 199.411,-20.286 198.949,-20.286 C198.487,-20.286 197.78,-20.258 196.828,-20.202 L194.35,-10.164 M220.928,0.294 C219.472,0.098 217.841,0 216.035,0 C214.229,0 212.612,0.112 211.184,0.336 L211.016,-0.756 C211.912,-1.036 212.752,-1.246 213.536,-1.386 C213.788,-3.57 213.914,-6.426 213.914,-9.954 L213.914,-11.928 C213.914,-15.68 213.774,-18.564 213.494,-20.58 C212.738,-20.664 211.828,-20.888 210.764,-21.252 L210.89,-22.344 C212.486,-22.036 214.159,-21.882 215.909,-21.882 C217.659,-21.882 218.912,-21.98 219.668,-22.176 L219.752,-21.462 C218.996,-21.266 218.618,-20.944 218.618,-20.496 C218.618,-20.16 218.947,-19.453 219.605,-18.375 C220.263,-17.297 220.9,-16.254 221.516,-15.246 C223.364,-12.306 225.548,-8.694 228.068,-4.41 L228.194,-4.494 L228.194,-9.618 C228.194,-13.37 227.998,-16.191 227.606,-18.081 C227.214,-19.971 226.542,-21.07 225.59,-21.378 L225.674,-22.092 C226.402,-21.952 227.494,-21.882 228.95,-21.882 C230.406,-21.882 231.904,-22.036 233.444,-22.344 L233.57,-21.252 C232.422,-20.888 231.456,-20.664 230.672,-20.58 C230.392,-18.34 230.252,-15.456 230.252,-11.928 L230.252,-9.954 C230.252,-5.698 230.392,-2.814 230.672,-1.302 C231.848,-1.106 232.786,-0.882 233.486,-0.63 L233.36,0.462 C231.96,0.154 230.644,0 229.412,0 C228.18,0 227.228,0.056 226.556,0.168 C226.556,-0.448 226.129,-1.484 225.275,-2.94 C224.421,-4.396 223.644,-5.684 222.944,-6.804 C220.676,-10.472 218.45,-14.196 216.266,-17.976 L216.098,-17.892 L216.098,-12.264 C216.098,-6.692 216.518,-3.066 217.358,-1.386 C218.618,-1.246 219.85,-1.036 221.054,-0.756 L220.928,0.294 M236.512,-21.798 L246.172,-22.092 C249.364,-22.092 251.821,-21.336 253.543,-19.824 C255.265,-18.312 256.126,-16.051 256.126,-13.041 C256.126,-10.031 255.181,-7.224 253.291,-4.62 C251.401,-2.016 249.056,-0.308 246.256,0.504 C245.528,0.504 244.583,0.371 243.421,0.105 C242.259,-0.161 241.3,-0.448 240.544,-0.756 C240.236,-0.392 239.956,0.126 239.704,0.798 L238.822,0.588 C239.354,-1.904 239.62,-5.425 239.62,-9.975 C239.62,-14.525 239.494,-17.934 239.242,-20.202 C238.29,-20.566 237.38,-20.748 236.512,-20.748 L236.512,-21.798 M250.96,-17.598 C250.456,-18.55 249.749,-19.292 248.839,-19.824 C247.929,-20.356 246.935,-20.622 245.857,-20.622 C244.779,-20.622 243.848,-20.468 243.064,-20.16 C242.868,-18.34 242.77,-15.435 242.77,-11.445 C242.77,-7.455 242.826,-4.69 242.938,-3.15 C244.338,-2.506 245.773,-2.184 247.243,-2.184 C248.713,-2.184 249.882,-2.562 250.75,-3.318 C251.814,-5.334 252.346,-7.812 252.346,-10.752 C252.346,-13.496 251.884,-15.778 250.96,-17.598 M262.662,-3.192 C263.95,-2.66 265.224,-2.394 266.484,-2.394 C267.744,-2.394 268.752,-2.688 269.508,-3.276 C270.264,-3.864 270.642,-4.704 270.642,-5.796 C270.642,-6.916 269.06,-8.302 265.896,-9.954 C264.692,-10.57 263.593,-11.319 262.599,-12.201 C261.605,-13.083 261.108,-13.958 261.108,-14.826 C261.108,-16.31 261.892,-17.808 263.46,-19.32 C265.028,-20.832 266.638,-21.854 268.29,-22.386 C270.362,-22.386 272.238,-22.176 273.918,-21.756 L273.918,-21 C272.742,-19.824 272.084,-18.214 271.944,-16.17 L270.894,-16.17 C270.894,-16.954 270.824,-17.934 270.684,-19.11 C269.704,-19.558 268.654,-19.782 267.534,-19.782 C266.414,-19.782 265.483,-19.537 264.741,-19.047 C263.999,-18.557 263.628,-17.85 263.628,-16.926 C263.628,-16.282 264.125,-15.582 265.119,-14.826 C266.113,-14.07 267.198,-13.398 268.374,-12.81 C269.55,-12.222 270.635,-11.494 271.629,-10.626 C272.623,-9.758 273.12,-8.89 273.12,-8.022 C273.12,-6.342 272.378,-4.669 270.894,-3.003 C269.41,-1.337 267.772,-0.168 265.98,0.504 C264.216,0.504 262.564,0.294 261.024,-0.126 C260.576,0.07 260.114,0.392 259.638,0.84 L258.882,0.294 C260.45,-1.414 261.318,-3.528 261.486,-6.048 L262.536,-6.048 C262.536,-5.068 262.578,-4.116 262.662,-3.192 " vector-effect="none"/>
  </g>
  <g stroke-linejoin="bevel" transform="matrix(0.3999,0,0,0.3999,2772.95,1165.75)" font-weight="400" font-style="normal" fill="none" stroke="#000000" stroke-width="1" stroke-linecap="square" font-size="32.5" font-family="MS Shell Dlg 2" stroke-opacity="1"/>
  <g stroke-linejoin="bevel" transform="matrix(0.999751,0,0,0.999751,0,0)" font-weight="400" font-style="normal" fill="none" stroke="#000000" stroke-width="1" stroke-linecap="square" font-size="32.5" font-family="MS Shell Dlg 2" stroke-opacity="1"/>
  <g stroke-linejoin="bevel" transform="matrix(11.8081,0,0,11.8081,0,0)" font-weight="400" font-style="normal" fill="none" stroke="#000000" stroke-width="1" stroke-linecap="square" font-size="32.5" font-family="MS Shell Dlg 2" stroke-opacity="1"/>
  <g stroke-linejoin="bevel" transform="matrix(11.8081,0,0,11.8081,0,0)" font-weight="400" font-style="normal" fill="none" stroke="#000000" stroke-width="1" stroke-linecap="square" font-size="32.5" font-family="MS Shell Dlg 2" stroke-opacity="1"/>
  <g stroke-linejoin="bevel" transform="matrix(11.8081,0,0,11.8081,0,0)" font-weight="400" font-style="normal" fill="none" stroke="#000000" stroke-width="1" stroke-linecap="square" font-size="32.5" font-family="MS Shell Dlg 2" stroke-opacity="1"/>
  <g stroke-linejoin="bevel" transform="matrix(1,0,0,1,0,0)" font-weight="400" font-style="normal" fill="none" stroke="#000000" stroke-width="1" stroke-linecap="square" font-size="32.5" font-family="MS Shell Dlg 2" stroke-opacity="1"/>
  <g stroke-linejoin="bevel" transform="matrix(11.8081,0,0,11.8081,0,0)" font-weight="400" font-style="normal" fill="none" stroke="#000000" stroke-width="1" stroke-linecap="square" font-size="32.5" font-family="MS Shell Dlg 2" stroke-opacity="1"/>
  <g stroke-linejoin="bevel" transform="matrix(11.8081,0,0,11.8081,0,0)" font-weight="400" font-style="normal" fill="none" stroke="#000000" stroke-width="1" stroke-linecap="square" font-size="32.5" font-family="MS Shell Dlg 2" stroke-opacity="1"/>
  <g stroke-linejoin="bevel" transform="matrix(1,0,0,1,0,0)" font-weight="400" font-style="normal" fill="none" stroke="#000000" stroke-width="1" stroke-linecap="square" font-size="32.5" font-family="MS Shell Dlg 2" stroke-opacity="1"/>
 </g>
</svg>
