<?xml version='1.0' encoding='UTF-8' standalone='no'?>
<svg height="209.973mm" width="296.926mm" viewBox="0 0 3507 2480" xmlns:xlink="http://www.w3.org/1999/xlink" xmlns:inkscape="http://www.inkscape.org/namespaces/inkscape" xmlns="http://www.w3.org/2000/svg" version="1.2" baseProfile="tiny">
 <defs/>
 <g stroke-linejoin="bevel" inkscape:label="Page" inkscape:groupmode="layer" fill="none" stroke="black" fill-rule="evenodd" stroke-width="1" stroke-linecap="square" id="Page">
  <g stroke-linejoin="bevel" transform="matrix(1,0,0,1,0,0)" font-weight="400" font-style="normal" fill="none" stroke="#000000" stroke-width="1" stroke-linecap="square" font-size="32.5" font-family="MS Shell Dlg 2" stroke-opacity="1"/>
  <g stroke-linejoin="bevel" transform="matrix(1,0,0,1,0,0)" font-weight="400" font-style="normal" fill="none" stroke="#000000" stroke-width="1" stroke-linecap="square" font-size="32.5" font-family="MS Shell Dlg 2" stroke-opacity="1"/>
  <g stroke-linejoin="bevel" transform="matrix(11.8081,0,0,11.8081,0,0)" font-weight="400" font-style="normal" fill="none" stroke="#000000" stroke-width="1" stroke-linecap="square" font-size="32.5" font-family="MS Shell Dlg 2" stroke-opacity="1"/>
  <g stroke-linejoin="bevel" transform="matrix(0.999751,0,0,0.999751,0,0)" font-weight="400" font-style="normal" fill="none" stroke="#000000" stroke-width="1" stroke-linecap="square" font-size="32.5" font-family="MS Shell Dlg 2" stroke-opacity="1"/>
  <g transform="matrix(0.999751,0,0,0.999751,0,0)" font-weight="400" font-style="normal" fill="#ffffff" stroke="none" fill-opacity="1" font-size="32.5" font-family="MS Shell Dlg 2">
   <path fill-rule="evenodd" d="M-2,-2 L3510,-2 L3510,2483 L-2,2483 L-2,-2" vector-effect="none"/>
  </g>
  <g stroke-linejoin="bevel" transform="matrix(0.999751,0,0,0.999751,0,0)" font-weight="400" font-style="normal" fill="none" stroke="#000000" stroke-width="1" stroke-linecap="square" font-size="32.5" font-family="MS Shell Dlg 2" stroke-opacity="1"/>
  <g stroke-linejoin="bevel" transform="matrix(11.8081,0,0,11.8081,0,0)" font-weight="400" font-style="normal" fill="none" stroke="#000000" stroke-width="1" stroke-linecap="square" font-size="32.5" font-family="MS Shell Dlg 2" stroke-opacity="1"/>
  <g stroke-linejoin="bevel" transform="matrix(11.8081,0,0,11.8081,0,0)" font-weight="400" font-style="normal" fill="none" stroke="#000000" stroke-width="1" stroke-linecap="square" font-size="32.5" font-family="MS Shell Dlg 2" stroke-opacity="1"/>
  <g stroke-linejoin="bevel" transform="matrix(1,0,0,1,0,0)" font-weight="400" font-style="normal" fill="none" stroke="#000000" stroke-width="1" stroke-linecap="square" font-size="32.5" font-family="MS Shell Dlg 2" stroke-opacity="1"/>
 </g>
 <defs/>
 <g stroke-linejoin="bevel" inkscape:label="Map 1: Background" inkscape:groupmode="layer" fill="none" stroke="black" fill-rule="evenodd" stroke-width="1" stroke-linecap="square" id="Map 1: Background">
  <g stroke-linejoin="bevel" transform="matrix(1,0,0,1,0,0)" font-weight="400" font-style="normal" fill="none" stroke="#000000" stroke-width="1" stroke-linecap="square" font-size="32.5" font-family="MS Shell Dlg 2" stroke-opacity="1"/>
  <g stroke-linejoin="bevel" transform="matrix(1,0,0,1,0,0)" font-weight="400" font-style="normal" fill="none" stroke="#000000" stroke-width="1" stroke-linecap="square" font-size="32.5" font-family="MS Shell Dlg 2" stroke-opacity="1"/>
  <g stroke-linejoin="bevel" transform="matrix(11.8081,0,0,11.8081,0,0)" font-weight="400" font-style="normal" fill="none" stroke="#000000" stroke-width="1" stroke-linecap="square" font-size="32.5" font-family="MS Shell Dlg 2" stroke-opacity="1"/>
  <g transform="matrix(11.8081,0,0,11.8081,0,0)" font-weight="400" font-style="normal" fill="#ffffff" stroke="none" fill-opacity="1" font-size="32.5" font-family="MS Shell Dlg 2">
   <path fill-rule="evenodd" d="M0,0 L297,0 L297,210 L0,210 L0,0" vector-effect="none"/>
  </g>
  <g stroke-linejoin="bevel" transform="matrix(11.8081,0,0,11.8081,0,0)" font-weight="400" font-style="normal" fill="none" stroke="#000000" stroke-width="1" stroke-linecap="square" font-size="32.5" font-family="MS Shell Dlg 2" stroke-opacity="1"/>
  <g stroke-linejoin="bevel" transform="matrix(11.8081,0,0,11.8081,0,0)" font-weight="400" font-style="normal" fill="none" stroke="#000000" stroke-width="1" stroke-linecap="square" font-size="32.5" font-family="MS Shell Dlg 2" stroke-opacity="1"/>
  <g stroke-linejoin="bevel" transform="matrix(11.8081,0,0,11.8081,0,0)" font-weight="400" font-style="normal" fill="none" stroke="#000000" stroke-width="1" stroke-linecap="square" font-size="32.5" font-family="MS Shell Dlg 2" stroke-opacity="1"/>
  <g stroke-linejoin="bevel" transform="matrix(11.8081,0,0,11.8081,0,0)" font-weight="400" font-style="normal" fill="none" stroke="#000000" stroke-width="1" stroke-linecap="square" font-size="32.5" font-family="MS Shell Dlg 2" stroke-opacity="1"/>
  <g stroke-linejoin="bevel" transform="matrix(1,0,0,1,0,0)" font-weight="400" font-style="normal" fill="none" stroke="#000000" stroke-width="1" stroke-linecap="square" font-size="32.5" font-family="MS Shell Dlg 2" stroke-opacity="1"/>
  <g stroke-linejoin="bevel" transform="matrix(11.8081,0,0,11.8081,0,0)" font-weight="400" font-style="normal" fill="none" stroke="#000000" stroke-width="1" stroke-linecap="square" font-size="32.5" font-family="MS Shell Dlg 2" stroke-opacity="1"/>
  <g stroke-linejoin="bevel" transform="matrix(11.8081,0,0,11.8081,0,0)" font-weight="400" font-style="normal" fill="none" stroke="#000000" stroke-width="1" stroke-linecap="square" font-size="32.5" font-family="MS Shell Dlg 2" stroke-opacity="1"/>
  <g stroke-linejoin="bevel" transform="matrix(1,0,0,1,0,0)" font-weight="400" font-style="normal" fill="none" stroke="#000000" stroke-width="1" stroke-linecap="square" font-size="32.5" font-family="MS Shell Dlg 2" stroke-opacity="1"/>
 </g>
 <defs/>
 <g stroke-linejoin="bevel" inkscape:label="Map 1: TheNestLandsRivers" inkscape:groupmode="layer" fill="none" stroke="black" fill-rule="evenodd" stroke-width="1" stroke-linecap="square" id="Map 1: TheNestLandsRivers">
  <g stroke-linejoin="bevel" transform="matrix(1,0,0,1,0,0)" font-weight="400" font-style="normal" fill="none" stroke="#000000" stroke-width="1" stroke-linecap="square" font-size="32.5" font-family="MS Shell Dlg 2" stroke-opacity="1"/>
  <g stroke-linejoin="bevel" transform="matrix(1,0,0,1,0,0)" font-weight="400" font-style="normal" fill="none" stroke="#000000" stroke-width="1" stroke-linecap="square" font-size="32.5" font-family="MS Shell Dlg 2" stroke-opacity="1"/>
  <g stroke-linejoin="bevel" transform="matrix(11.8081,0,0,11.8081,0,0)" font-weight="400" font-style="normal" fill="none" stroke="#000000" stroke-width="1" stroke-linecap="square" font-size="32.5" font-family="MS Shell Dlg 2" stroke-opacity="1"/>
  <g stroke-linejoin="bevel" transform="matrix(11.8081,0,0,11.8081,0,0)" font-weight="400" font-style="normal" fill="none" stroke="#000000" stroke-width="1" stroke-linecap="square" font-size="32.5" font-family="MS Shell Dlg 2" stroke-opacity="1"/>
  <g transform="matrix(0.999751,0,0,0.999751,0,0)" font-weight="400" font-style="normal" fill="#000000" stroke="none" fill-opacity="0" font-size="32.5" font-family="MS Shell Dlg 2">
   <rect height="2480" x="0" width="3508" y="0"/>
  </g>
  <g stroke-linejoin="bevel" transform="matrix(0.999751,0,0,0.999751,0,0)" font-weight="400" font-style="normal" fill="none" stroke="#000000" stroke-width="1" stroke-linecap="square" font-size="32.5" font-family="MS Shell Dlg 2" stroke-opacity="1"/>
  <g stroke-linejoin="bevel" transform="matrix(0.999751,0,0,0.999751,0,0)" font-weight="400" font-style="normal" fill="none" stroke="#1f78b4" stroke-width="3.07087" stroke-linecap="square" font-size="32.5" font-family="MS Shell Dlg 2" stroke-opacity="1">
   <path fill-rule="evenodd" d="M2807.22,1355.45 L2807.22,1355.46 L2804.91,1355.95 L2802.2,1356.36 L2799.49,1356.76 L2796.78,1357.19 L2794.07,1357.62 L2791.38,1358.09 L2788.67,1358.57 L2785.98,1359.11 L2783.3,1359.66 L2780.63,1360.24 L2777.97,1360.9 L2775.31,1361.63 L2772.69,1362.42 L2770.1,1363.32 L2767.56,1364.33 L2765.08,1365.46 L2762.63,1366.72 L2760.25,1368.03 L2757.9,1369.46 L2755.6,1370.96 L2753.38,1372.53 L2751.18,1374.17 L2749.03,1375.88 L2746.94,1377.64 L2744.87,1379.44 L2742.85,1381.28 L2740.85,1383.16 L2738.9,1385.08 L2736.95,1387 L2735.03,1388.95 L2733.13,1390.93 L2731.23,1392.9 L2729.33,1394.87 L2727.38,1396.8 L2725.38,1398.66 L2723.38,1400.53 L2721.38,1402.41 L2719.41,1404.29 L2717.44,1406.22 L2715.53,1408.17 L2713.65,1410.16 L2711.82,1412.19 L2710.04,1414.28 L2708.35,1416.42 L2706.73,1418.63 L2705.22,1420.91 L2703.84,1423.27 L2702.57,1425.69 L2701.43,1428.18 L2700.49,1430.75 L2699.74,1433.37 L2699.13,1436.05 L2698.65,1438.74 L2698.25,1441.45 L2697.92,1444.16 L2697.63,1446.88 L2697.37,1449.61 L2697.09,1452.32 L2696.82,1455.05 L2696.47,1457.76 L2696.06,1460.47 L2695.52,1463.14 L2694.78,1465.77 L2693.76,1468.29 L2692.45,1470.67 L2690.85,1472.86 L2688.95,1474.81 L2686.86,1476.55 L2684.65,1478.19 L2682.44,1479.8 L2681.74,1480.39" vector-effect="none"/>
   <path fill-rule="evenodd" d="M2926.59,1322.29 L2928.86,1323.55 L2931.11,1325.12 L2933.34,1326.71 L2935.58,1328.3 L2937.81,1329.89 L2940.07,1331.44 L2942.33,1332.99 L2944.61,1334.51 L2946.92,1335.98 L2949.25,1337.43 L2951.61,1338.81 L2954.01,1340.12 L2956.46,1341.33 L2958.98,1342.42 L2961.57,1343.31 L2964.21,1344 L2966.92,1344.4 L2969.67,1344.56 L2972.41,1344.54 L2975.14,1344.38 L2977.88,1344.16 L2980.61,1343.88 L2983.33,1343.57 L2986.06,1343.3 L2988.79,1343.04 L2991.51,1342.88 L2994.26,1342.86 L2997,1343.05 L2999.7,1343.56 L3002.2,1344.61 L3004.23,1346.42 L3005.89,1348.59 L3007.24,1350.99 L3008.34,1353.48 L3009.33,1356.05 L3010.21,1358.62 L3011.1,1361.21 L3012.04,1363.78 L3012.69,1365.32" vector-effect="none"/>
   <path fill-rule="evenodd" d="M2694.54,1185.34 L2694.52,1185.31 L2694.42,1185.2 L2694.54,1184.51 L2696.27,1182.39 L2697.91,1180.23 L2699.18,1177.94 L2700.05,1175.61 L2700.63,1173.28 L2701,1170.93 L2701.13,1168.53 L2700.84,1166 L2700.1,1163.42 L2699.05,1160.9 L2697.85,1158.45 L2696.61,1156.02 L2695.39,1153.57 L2694.16,1151.14 L2692.95,1148.68 L2691.85,1146.18 L2690.76,1143.68 L2689.66,1141.18 L2688.53,1138.67 L2687.36,1136.21 L2686.14,1133.76 L2684.84,1131.36 L2683.44,1129.01 L2681.94,1126.73 L2680.3,1124.56 L2678.58,1122.47 L2676.75,1120.43 L2674.81,1118.5 L2672.78,1116.67 L2670.67,1114.93 L2668.53,1113.22 L2666.36,1111.56 L2664.15,1109.96 L2661.87,1108.44 L2659.56,1107 L2657.16,1105.69 L2654.69,1104.52 L2652.14,1103.57 L2649.51,1102.86 L2646.82,1102.53 L2644.14,1102.71 L2641.49,1103.22 L2638.92,1104.05 L2636.41,1105.12 L2634.01,1106.43 L2631.7,1107.9 L2629.46,1109.49 L2627.3,1111.16 L2625.19,1112.91 L2623.14,1114.72 L2621.12,1116.58 L2619.17,1118.5 L2617.24,1120.45 L2615.36,1122.43 L2613.53,1124.45 L2611.73,1126.52 L2609.97,1128.61 L2608.33,1130.8 L2607.31,1132.4" vector-effect="none"/>
   <path fill-rule="evenodd" d="M2914.68,1387.93 L2917.11,1388.55 L2919.75,1389.29 L2922.39,1390.03 L2925.03,1390.72 L2927.71,1391.38 L2930.38,1391.98 L2933.08,1392.5 L2935.79,1392.9 L2938.51,1393.16 L2941.26,1393.16 L2943.93,1392.66 L2946.38,1391.48 L2948.56,1389.84 L2950.54,1387.96 L2952.42,1385.98 L2954.29,1383.96 L2956.2,1382.01 L2958.26,1380.2 L2960.5,1378.64 L2963,1377.54 L2965.71,1377.07 L2968.44,1377.16 L2971.13,1377.68 L2973.76,1378.47 L2976.31,1379.45 L2978.81,1380.56 L2981.3,1381.73 L2983.75,1382.96 L2986.18,1384.2 L2988.63,1385.44 L2991.1,1386.63 L2993.59,1387.79 L2996.11,1388.86 L2998.68,1389.79 L3001.3,1390.57 L3002.76,1390.87" vector-effect="none"/>
   <path fill-rule="evenodd" d="M2951.8,1148.18 L2951.78,1145.73 L2951.92,1143.01 L2952.06,1140.28 L2952.15,1137.54 L2952.2,1134.81 L2952.18,1132.06 L2952.1,1129.34 L2951.89,1126.61 L2951.53,1123.9 L2950.96,1121.23 L2950.04,1118.65 L2948.63,1116.32 L2946.75,1114.34 L2944.61,1112.63 L2942.36,1111.08 L2940.07,1109.56 L2937.81,1108.01 L2935.63,1106.35 L2933.63,1104.48 L2931.9,1102.38 L2930.59,1099.98 L2929.78,1097.37 L2929.28,1094.68 L2929.16,1091.95 L2929.31,1089.23 L2929.64,1086.52 L2930.11,1083.81 L2930.66,1081.13 L2931.25,1078.46 L2931.85,1075.8 L2932.47,1073.13 L2933.06,1070.47 L2933.63,1067.79 L2934.11,1065.1 L2934.53,1062.39 L2934.8,1059.66 L2934.96,1056.94 L2934.91,1054.21 L2934.61,1051.48 L2934.11,1048.81 L2933.49,1046.13 L2932.77,1043.51 L2931.95,1040.89 L2931.07,1038.3 L2930.16,1035.73 L2929.19,1033.17 L2928.19,1030.62 L2927.16,1028.08 L2926.1,1025.56 L2925,1023.06 L2923.89,1020.55 L2922.76,1018.07 L2921.6,1015.58 L2920.41,1013.12 L2919.2,1010.67" vector-effect="none"/>
   <path fill-rule="evenodd" d="M2847.83,1481.09 L2848.01,1483.59 L2848.27,1486.32 L2848.56,1489.03 L2848.92,1491.74 L2849.39,1494.43 L2850.01,1497.09 L2850.85,1499.7 L2852.06,1502.11 L2853.96,1504.03 L2856.43,1505.19 L2859.05,1505.94 L2861.75,1506.51 L2864.44,1506.98 L2867.13,1507.41 L2869.82,1507.89 L2872.45,1508.6 L2873.96,1510.41 L2871.84,1512.04 L2869.29,1513.02 L2866.66,1513.83 L2864.02,1514.56 L2861.37,1515.26 L2858.72,1515.97 L2856.07,1516.68 L2853.43,1517.4 L2850.8,1518.16 L2848.18,1518.97 L2845.57,1519.86 L2843.02,1520.8 L2840.48,1521.87 L2838.03,1523.08 L2835.67,1524.46 L2833.44,1526.05 L2831.32,1527.79 L2831.19,1527.91" vector-effect="none"/>
   <path fill-rule="evenodd" d="M2960.97,1502.67 L2962.69,1504.22 L2964.83,1505.93 L2966.99,1507.62 L2969.2,1509.24 L2971.46,1510.76 L2973.84,1512.12 L2976.34,1513.23 L2979,1513.75 L2981.68,1513.33 L2984.15,1512.16 L2986.44,1510.66 L2988.63,1509.02 L2990.79,1507.33 L2992.96,1505.67 L2995.24,1504.17 L2997.78,1503.2 L3000.2,1504.18 L3001.3,1506.65 L3001.71,1509.34 L3001.84,1512.09 L3001.82,1514.82 L3001.75,1517.54 L3001.65,1520.29 L3001.56,1523.01 L3001.49,1525.76 L3001.49,1528.48 L3001.58,1531.21 L3001.68,1532.41" vector-effect="none"/>
   <path fill-rule="evenodd" d="M2767.25,1126.08 L2767.24,1126.13 L2767.29,1126.61 L2769.81,1127.65 L2772.34,1128.66 L2774.9,1129.61 L2777.49,1130.53 L2780.08,1131.36 L2782.7,1132.08 L2785.36,1132.65 L2788.01,1133.05 L2790.67,1133.26 L2793.31,1133.2 L2795.92,1132.93 L2798.51,1132.41 L2801.06,1131.63 L2803.6,1130.67 L2806.09,1129.54 L2808.54,1128.34 L2810.99,1127.11 L2813.44,1125.89 L2815.92,1124.73 L2818.43,1123.66 L2820.96,1122.64 L2823.52,1121.69 L2826.11,1120.79 L2828.71,1119.98 L2831.35,1119.24 L2833.99,1118.53 L2836.65,1117.84 L2839.31,1117.17 L2841.97,1116.5 L2844.61,1115.79 L2847.25,1115.05 L2849.87,1114.25 L2852.46,1113.39 L2855.01,1112.44 L2857.5,1111.34 L2859.88,1110.04 L2862.18,1108.64 L2864.42,1107.14 L2866.59,1105.52 L2868.68,1103.81 L2870.74,1102.03 L2872.72,1100.17 L2874.64,1098.25 L2876.52,1096.27 L2878.37,1094.25 L2880.18,1092.2 L2881.96,1090.13 L2883.72,1088.04 L2885.49,1085.95 L2887.27,1083.88 L2889.07,1081.81 L2890.9,1079.77 L2892.72,1077.73 L2894.59,1075.73 L2896.45,1073.73 L2898.35,1071.74 L2900.16,1069.69 L2901.92,1067.6 L2903.67,1065.5 L2905.38,1063.36 L2907,1061.16 L2908.52,1058.92 L2909.93,1056.61 L2911.26,1054.28 L2912.47,1051.88 L2913.49,1049.43 L2914.35,1046.94 L2915.06,1044.42 L2915.63,1041.85 L2916.09,1039.26 L2916.46,1036.61 L2916.7,1033.93 L2916.87,1031.22 L2916.99,1028.49 L2917.13,1025.77 L2917.28,1023.04 L2917.49,1020.31 L2917.84,1017.6 L2918.25,1014.91 L2918.75,1012.24 L2919.32,1009.58 L2919.96,1006.92 L2920.67,1004.28 L2921.43,1001.66 L2922.17,999.033 L2922.95,996.409 L2923.76,993.786 L2924.6,991.18 L2925.45,988.591 L2926.29,985.985 L2927.14,983.379 L2927.97,980.773 L2928.78,978.167 L2929.57,975.561 L2930.33,972.937 L2931.06,970.297 L2931.71,967.656 L2932.33,965.015 L2932.89,962.357 L2933.4,959.682 L2933.85,957.007 L2934.22,954.315 L2934.47,951.622 L2934.66,948.93 L2934.77,946.22 L2934.78,943.528 L2934.73,940.818 L2934.59,938.091 L2934.35,935.382 L2934.06,932.672 L2933.71,929.962 L2933.34,927.253 L2932.92,924.543 L2932.51,921.851 L2932.09,919.141 L2931.68,916.432 L2931.32,913.722 L2930.99,911.012 L2930.73,908.303 L2930.57,905.593 L2930.56,902.883 L2930.71,900.208 L2931.13,897.602 L2931.82,895.134 L2932.83,892.873 L2934.11,890.837 L2935.67,889.024 L2937.55,887.419 L2939.65,886.039 L2942.1,885.003 L2944.73,884.347 L2947.44,883.967 L2950.16,883.743 L2952.91,883.622 L2955.63,883.536 L2958.38,883.467 L2961.09,883.346 L2963.81,883.156 L2966.51,882.863 L2969.16,882.38 L2971.75,881.672 L2974.32,880.826 L2976.79,879.687 L2979.14,878.324 L2981.38,876.753 L2983.52,875.045 L2985.56,873.232 L2987.53,871.334 L2989.46,869.384 L2991.36,867.416 L2993.24,865.431 L2995.16,863.464 L2997.09,861.531 L2999.09,859.65 L3001.16,857.889 L3003.35,856.25 L3005.68,854.834 L3008.15,853.695 L3010.76,852.936 L3013.47,852.643 L3016.21,852.763 L3018.9,853.212 L3021.56,853.885 L3024.17,854.748 L3026.72,855.715 L3029.26,856.767 L3031.78,857.855 L3034.28,858.942 L3036.8,860.012 L3039.34,861.03 L3041.93,861.962 L3044.53,862.774 L3047.21,863.395 L3049.92,863.809 L3052.65,863.913 L3055.39,863.723 L3058.1,863.326 L3060.77,862.791 L3063.43,862.118 L3066.07,861.358 L3068.68,860.53 L3071.29,859.65 L3073.87,858.769 L3076.48,857.907 L3079.09,857.061 L3081.71,856.284 L3084.37,855.577 L3087.04,854.972 L3089.74,854.489 L3092.46,854.161 L3095.19,853.885 L3097.92,853.713 L3100.66,853.626 L3103.4,853.575 L3106.15,853.557 L3108.88,853.592 L3111.62,853.644 L3111.91,853.651" vector-effect="none"/>
   <path fill-rule="evenodd" d="M2898.89,1540.57 L2896.75,1541.22 L2894.14,1542.03 L2891.53,1542.84 L2888.93,1543.71 L2886.36,1544.64 L2883.82,1545.67 L2881.35,1546.87 L2879.04,1548.32 L2877.11,1550.21 L2875.95,1552.63 L2875.45,1555.3 L2875.33,1558.05 L2875.36,1560.78 L2875.45,1563.5 L2875.41,1566.25 L2875.1,1568.96 L2874.14,1571.51 L2872.13,1573.31 L2869.49,1574 L2866.77,1574.07 L2864.02,1573.84 L2861.31,1573.48 L2858.6,1573.06 L2855.89,1572.67 L2853.17,1572.3 L2850.44,1572.08 L2847.7,1572.05 L2844.97,1572.3 L2842.35,1573.05 L2839.9,1574.27 L2837.6,1575.76 L2836.45,1576.62" vector-effect="none"/>
   <path fill-rule="evenodd" d="M2922.22,1564.26 L2922.22,1564.31 L2920.24,1565.09 L2917.56,1565.64 L2914.9,1566.32 L2912.69,1567.56 L2911.28,1569.23 L2910.64,1571.36 L2911.38,1573.98 L2912.4,1576.5 L2913.3,1579.04 L2914.01,1581.62 L2914.37,1584.28 L2914.23,1586.99 L2913.75,1589.68 L2913.16,1592.36 L2912.57,1595.02 L2912.04,1597.71 L2911.68,1600.42 L2911.57,1603.15 L2911.9,1605.84 L2912.88,1608.34 L2914.38,1610.57 L2916.28,1612.54 L2918.39,1614.26 L2920.6,1615.88 L2922.82,1617.49 L2925.02,1619.13 L2927.05,1620.94 L2928.83,1622.99 L2930.28,1625.29 L2931.25,1627.83 L2931.8,1630.5 L2932.11,1633.21 L2932.32,1635.94 L2932.52,1638.67 L2932.66,1639.71" vector-effect="none"/>
   <path fill-rule="evenodd" d="M3065.97,1023.87 L3067.09,1022.4 L3068.61,1020.14 L3070.15,1017.86 L3071.65,1015.58 L3073.13,1013.29 L3074.6,1010.98 L3076.01,1008.63 L3077.4,1006.26 L3078.71,1003.87 L3079.93,1001.41 L3081.07,998.929 L3082.04,996.375 L3082.76,993.734 L3083.07,991.025 L3082.95,988.298 L3082.56,985.605 L3081.97,982.93 L3081.26,980.29 L3080.5,977.666 L3079.71,975.043 L3078.95,972.419 L3078.26,969.762 L3077.74,967.086 L3077.48,964.36 L3077.71,961.65 L3078.67,959.096 L3080.4,957.007 L3082.78,955.661 L3085.39,954.867 L3088.08,954.367 L3090.81,954.039 L3093.53,953.797 L3096.28,953.555 L3099,953.314 L3101.71,952.986 L3104.42,952.537 L3107.08,951.899 L3109.65,950.984 L3112.07,949.689 L3114.19,947.981 L3116.04,945.962 L3117.66,943.752 L3119.14,941.457 L3120.54,939.092 L3121.87,936.711 L3123.2,934.312 L3124.53,931.93 L3125.94,929.583 L3127.48,927.322 L3129.26,925.234 L3131.42,923.559 L3134.02,922.817 L3136.68,923.318 L3139.11,924.56 L3141.32,926.148 L3143.43,927.891 L3145.48,929.704 L3147.54,931.516 L3149.64,933.276 L3151.85,934.881 L3154.25,936.193 L3156.82,937.021 L3159.53,937.298 L3162.26,937.142 L3164.97,936.763 L3167.66,936.227 L3167.86,936.179" vector-effect="none"/>
   <path fill-rule="evenodd" d="M2657.16,1081.55 L2657.04,1081.24 L2657.05,1078.53 L2657.26,1075.8 L2657.49,1073.09 L2657.69,1070.36 L2657.9,1067.64 L2658.09,1064.91 L2658.25,1062.17 L2658.37,1059.44 L2658.43,1056.71 L2658.47,1053.97 L2658.43,1051.24 L2658.33,1048.5 L2658.11,1045.77 L2657.76,1043.06 L2657.28,1040.39 L2656.64,1037.71 L2655.86,1035.1 L2654.93,1032.53 L2653.86,1030.01 L2652.67,1027.54 L2651.41,1025.13 L2650.08,1022.73 L2648.7,1020.36 L2647.29,1018.02 L2645.85,1015.69 L2644.42,1013.36 L2643.01,1011.03 L2641.61,1008.66 L2640.3,1006.28 L2639.05,1003.83 L2637.95,1001.33 L2637.1,998.739 L2636.48,996.064 L2636,993.372 L2635.64,990.662 L2635.31,987.952 L2634.96,985.243 L2634.48,982.55 L2633.72,979.927 L2632.56,977.442 L2630.82,975.353 L2628.84,973.489 L2626.63,971.867 L2624.3,970.435 L2621.9,969.123 L2620.73,968.547" vector-effect="none"/>
   <path fill-rule="evenodd" d="M357.062,1726.17 L354.559,1726.84 L351.849,1727.29 L349.157,1727.74 L346.447,1728.24 L343.772,1728.83 L341.149,1729.57 L338.577,1730.53 L336.213,1731.86 L334.263,1733.71 L333.331,1736.28 L333.055,1738.99 L333.003,1741.72 L332.985,1744.46 L332.813,1747.19 L332.226,1749.85 L330.88,1752.21 L328.653,1753.77 L325.961,1754.25 L323.234,1754.14 L320.507,1753.78 L317.815,1753.26 L315.14,1752.66 L312.482,1751.99 L309.841,1751.3 L307.201,1750.57 L304.543,1749.86 L301.902,1749.14 L299.244,1748.45 L296.586,1747.78 L293.929,1747.16 L291.236,1746.59 L288.544,1746.09 L285.834,1745.65 L283.107,1745.36 L280.38,1745.19 L277.636,1745.2 L274.892,1745.36 L272.165,1745.65 L271.095,1745.8" vector-effect="none"/>
   <path fill-rule="evenodd" d="M3107.18,1041.89 L3107.3,1041.89 L3109.51,1043.44 L3111.65,1045.15 L3113.81,1046.86 L3115.99,1048.51 L3118.2,1050.14 L3120.47,1051.66 L3122.8,1053.07 L3125.25,1054.3 L3127.83,1055.14 L3130.52,1055.56 L3133.26,1055.61 L3135.99,1055.42 L3138.7,1055.02 L3141.37,1054.45 L3144.01,1053.69 L3146.59,1052.78 L3149.12,1051.72 L3151.59,1050.53 L3153.99,1049.22 L3156.23,1047.65 L3158.39,1045.98 L3160.51,1044.23 L3162.59,1042.44 L3164.6,1040.59 L3166.57,1038.71 L3168.52,1036.76 L3170.4,1034.78 L3172.25,1032.76 L3174.03,1030.69 L3175.77,1028.56 L3177.45,1026.41 L3179.05,1024.2 L3180.59,1021.92 L3182.04,1019.61 L3183.38,1017.22 L3184.02,1015.84" vector-effect="none"/>
   <path fill-rule="evenodd" d="M1973.15,1267.81 L1973.12,1267.82 L1972.65,1266.7 L1971.96,1264.06 L1971.25,1261.42 L1970.48,1258.8 L1969.58,1256.23 L1968.49,1253.72 L1967.11,1251.41 L1965.49,1249.27 L1963.64,1247.34 L1961.49,1245.68 L1959.16,1244.26 L1956.7,1243.07 L1954.13,1242.14 L1951.48,1241.49 L1948.77,1241.12 L1946.02,1241.07 L1943.31,1241.35 L1940.62,1241.9 L1937.98,1242.61 L1935.36,1243.4 L1932.75,1244.26 L1930.18,1245.18 L1927.61,1246.16 L1925.07,1247.18 L1922.55,1248.25 L1920.05,1249.37 L1917.56,1250.55 L1915.11,1251.76 L1912.68,1253.01 L1910.26,1254.33 L1907.9,1255.69 L1905.57,1257.12 L1903.27,1258.62 L1901.04,1260.23 L1899.35,1261.66" vector-effect="none"/>
   <path fill-rule="evenodd" d="M389.042,1735.99 L391.545,1736.33 L394.22,1736.87 L396.913,1737.4 L399.605,1737.92 L402.297,1738.4 L405.007,1738.84 L407.717,1739.22 L410.443,1739.49 L413.188,1739.68 L415.915,1739.68 L418.641,1739.42 L421.282,1738.66 L423.681,1737.37 L425.873,1735.73 L427.892,1733.88 L429.825,1731.93 L431.706,1729.95 L433.605,1727.98 L435.59,1726.08 L437.713,1724.36 L440.043,1722.92 L442.597,1721.97 L445.324,1721.73 L448.033,1722.16 L450.622,1723.04 L453.108,1724.2 L455.489,1725.53 L457.836,1726.96 L460.132,1728.46 L462.41,1729.98 L464.671,1731.52 L466.949,1733.04 L469.262,1734.52 L471.609,1735.94 L474.008,1737.25 L476.476,1738.46 L479.013,1739.46 L479.928,1739.72" vector-effect="none"/>
   <path fill-rule="evenodd" d="M1983.2,1305.43 L1982.04,1305.48 L1979.38,1304.84 L1976.72,1304.15 L1974.05,1303.57 L1971.34,1303.26 L1968.82,1304.08 L1968.29,1306.67 L1968.72,1309.37 L1969.11,1312.07 L1969.03,1314.78 L1967.99,1317.29 L1965.94,1319.05 L1963.49,1320.24 L1960.86,1321.08 L1958.21,1321.71 L1955.51,1322.21 L1952.8,1322.64 L1950.09,1323.03 L1947.37,1323.4 L1944.66,1323.76 L1941.95,1324.14 L1939.22,1324.54 L1936.53,1324.97 L1933.82,1325.45 L1931.14,1326 L1928.47,1326.64 L1925.85,1327.38 L1923.24,1328.28 L1920.72,1329.33 L1918.27,1330.56 L1915.92,1331.96 L1915.37,1332.32" vector-effect="none"/>
   <path fill-rule="evenodd" d="M1920.58,1429.49 L1919.82,1427.19 L1919.06,1424.57 L1918.32,1421.95 L1917.53,1419.32 L1916.66,1416.73 L1915.68,1414.18 L1914.47,1411.71 L1912.85,1409.54 L1910.52,1408.17 L1907.86,1407.57 L1905.12,1407.36 L1902.39,1407.34 L1899.65,1407.38 L1896.9,1407.33 L1894.19,1406.98 L1891.79,1405.72 L1890.86,1403.24 L1891.35,1400.56 L1892.31,1398.01 L1893.47,1395.52 L1894.66,1393.05 L1895.83,1390.59 L1896.9,1388.08 L1897.82,1385.49 L1898.4,1382.84 L1898.37,1380.11 L1897.59,1377.49 L1896.42,1375.02 L1896.13,1374.53" vector-effect="none"/>
   <path fill-rule="evenodd" d="M1887.82,1455.27 L1886.82,1453.48 L1885.79,1450.94 L1884.8,1448.4 L1883.8,1445.85 L1882.78,1443.31 L1881.71,1440.79 L1880.61,1438.29 L1879.44,1435.82 L1878.19,1433.39 L1876.81,1431.01 L1875.29,1428.75 L1873.5,1426.69 L1871.31,1425.07 L1868.89,1423.79 L1866.35,1422.74 L1863.77,1421.82 L1861.16,1421.01 L1858.52,1420.24 L1855.9,1419.46 L1853.27,1418.65 L1850.7,1417.73 L1848.22,1416.59 L1845.97,1415.06 L1844.49,1412.87 L1844.44,1410.26 L1845.44,1407.76 L1846.87,1405.43 L1848.46,1403.2 L1850.04,1400.98 L1851.51,1398.66 L1852.62,1396.18 L1852.7,1393.52 L1851.79,1390.98 L1850.42,1388.64" vector-effect="none"/>
   <path fill-rule="evenodd" d="M2827.8,959.82 L2827.78,959.769 L2827.85,959.354 L2829.64,957.352 L2831.63,955.471 L2833.54,953.521 L2835.27,951.433 L2836.63,949.154 L2837.62,946.79 L2838.22,944.305 L2838.19,941.664 L2837.5,939.041 L2836.48,936.504 L2835.27,934.036 L2833.94,931.654 L2832.68,929.22 L2831.44,926.787 L2830.02,924.457 L2828.54,922.161 L2827.02,919.883 L2825.45,917.64 L2823.81,915.448 L2822.07,913.342 L2820.2,911.357 L2818.18,909.511 L2815.97,907.906 L2813.52,906.715 L2810.87,906.007 L2808.16,905.593 L2805.43,905.334 L2802.7,905.179 L2801.51,905.149" vector-effect="none"/>
   <path fill-rule="evenodd" d="M244.706,1543.41 L244.689,1543.4 L245.086,1542.31 L246.518,1540 L247.968,1537.67 L249.349,1535.32 L250.591,1532.89 L251.506,1530.35 L252.041,1527.78 L252.317,1525.15 L252.179,1522.5 L251.454,1519.87 L250.384,1517.37 L249.004,1515.01 L247.347,1512.83 L245.431,1510.88 L243.274,1509.22 L240.84,1508.02 L238.32,1506.96 L235.714,1506.15 L233.056,1505.51 L230.347,1505.03 L227.637,1504.67 L224.91,1504.43 L222.166,1504.3 L219.422,1504.29 L216.695,1504.41 L213.968,1504.65 L211.241,1505.03 L208.566,1505.62 L205.977,1506.5 L205.511,1506.71" vector-effect="none"/>
   <path fill-rule="evenodd" d="M357.907,1784.07 L355.595,1784.54 L352.868,1784.69 L350.141,1784.83 L347.397,1784.97 L344.67,1785.16 L341.943,1785.42 L339.216,1785.75 L336.524,1786.21 L333.866,1786.89 L331.329,1787.89 L329.258,1789.66 L327.67,1791.89 L326.393,1794.32 L325.305,1796.83 L324.252,1799.35 L323.2,1801.87 L321.992,1804.32 L320.507,1806.61 L318.574,1808.55 L316.089,1809.67 L313.362,1809.79 L310.687,1809.24 L308.098,1808.34 L305.596,1807.22 L303.162,1805.97 L300.746,1804.66 L298.381,1803.3 L296,1801.92 L293.635,1800.54 L291.271,1799.17 L288.872,1797.83 L286.455,1796.55 L284.005,1795.34 L281.502,1794.22 L278.948,1793.22 L276.324,1792.41 L273.649,1791.82 L270.94,1791.48 L268.195,1791.29 L265.451,1791.23 L264.952,1791.24" vector-effect="none"/>
   <path fill-rule="evenodd" d="M2961.9,547.608 L2962.78,549.006 L2963.83,551.526 L2964.83,554.063 L2965.89,556.583 L2967.02,559.068 L2968.32,561.485 L2969.87,563.728 L2971.96,565.454 L2974.6,566.075 L2977.33,565.868 L2980.02,565.333 L2982.68,564.712 L2985.37,564.142 L2988.08,563.866 L2990.77,564.298 L2992.88,565.937 L2994.02,568.388 L2994.5,571.063 L2994.73,573.79 L2994.86,576.517 L2994.98,579.261 L2995.21,581.988 L2995.61,584.681 L2996,586.195" vector-effect="none"/>
   <path fill-rule="evenodd" d="M280.915,1559.69 L282.935,1560.36 L285.558,1561.17 L288.164,1561.97 L290.805,1562.74 L293.445,1563.47 L296.086,1564.14 L298.761,1564.76 L301.453,1565.28 L304.163,1565.68 L306.873,1565.92 L309.6,1565.9 L312.309,1565.54 L314.898,1564.66 L317.314,1563.36 L319.593,1561.86 L321.784,1560.22 L323.925,1558.5 L326.03,1556.75 L328.17,1555.03 L330.362,1553.41 L332.692,1551.96 L335.212,1550.92 L337.922,1550.9 L340.234,1552.27 L341.839,1554.48 L342.996,1556.96 L343.91,1559.53 L344.704,1562.16 L345.429,1564.8 L346.137,1567.44 L346.844,1570.06 L347.621,1572.7 L348.449,1575.29 L349.416,1577.86 L350.555,1580.35 L351.115,1581.31" vector-effect="none"/>
   <path fill-rule="evenodd" d="M354.024,1511.47 L354.007,1511.45 L356.078,1509.81 L358.356,1508.31 L360.652,1506.81 L362.912,1505.25 L365.139,1503.67 L367.296,1501.97 L369.367,1500.18 L371.214,1498.2 L372.716,1495.95 L373.786,1493.45 L374.459,1490.81 L374.907,1488.12 L375.132,1485.39 L375.218,1482.64 L375.184,1479.92 L375.08,1477.19 L374.942,1474.45 L374.787,1471.72 L374.493,1469.01 L374.2,1466.28 L373.872,1463.57 L373.509,1460.86 L373.112,1458.15 L372.664,1455.46 L372.146,1452.77 L371.559,1450.11 L370.886,1447.45 L370.127,1444.83 L369.246,1442.24 L368.245,1439.69 L367.106,1437.2 L365.812,1434.8 L364.362,1432.47 L362.723,1430.28 L360.962,1428.19 L359.115,1426.23" vector-effect="none"/>
   <path fill-rule="evenodd" d="M383.968,1512.11 L385.608,1512.85 L387.886,1514.37 L390.182,1515.87 L392.511,1517.32 L394.91,1518.65 L397.413,1519.75 L400.054,1520.42 L402.729,1519.99 L405.059,1518.56 L407.095,1516.75 L409.011,1514.78 L410.927,1512.83 L412.946,1510.98 L415.293,1509.64 L417.779,1510.05 L419.487,1512.07 L420.557,1514.57 L421.455,1517.15 L422.286,1519.71" vector-effect="none"/>
   <path fill-rule="evenodd" d="M2007.64,1210.42 L2009.69,1209.19 L2012.05,1207.83 L2014.44,1206.48 L2016.78,1205.09 L2019.11,1203.64 L2021.37,1202.1 L2023.57,1200.44 L2025.58,1198.63 L2027.33,1196.54 L2028.59,1194.16 L2029.12,1191.49 L2029.26,1188.76 L2029.19,1186.02 L2028.97,1183.29 L2028.69,1180.58 L2028.4,1177.85 L2028.17,1175.13 L2028.43,1172.45 L2030.47,1172.92 L2031.94,1175.23 L2033.27,1177.61 L2034.58,1180.01 L2035.92,1182.39 L2037.37,1184.7 L2039.01,1186.91 L2040.98,1188.79 L2043.43,1189.99 L2043.68,1190.03" vector-effect="none"/>
   <path fill-rule="evenodd" d="M240.495,1625.24 L240.495,1625.31 L238.165,1626.62 L235.697,1627.81 L233.229,1629 L230.778,1630.23 L228.362,1631.52 L225.997,1632.9 L223.685,1634.39 L221.51,1636.02 L219.577,1637.94 L217.938,1640.12 L216.54,1642.45 L215.349,1644.9 L214.399,1647.47 L213.657,1650.09 L213.07,1652.77 L212.605,1655.46 L212.19,1658.17 L211.828,1660.88 L211.465,1663.59 L211.172,1666.3 L210.827,1669.01 L210.447,1671.72 L210.05,1674.43 L209.653,1677.14 L209.291,1679.85 L208.928,1682.55 L208.583,1685.26 L208.29,1687.99 L208.031,1690.7 L207.807,1693.43 L207.651,1696.17 L207.548,1698.9 L207.513,1701.63 L207.565,1704.37 L207.57,1704.47" vector-effect="none"/>
   <path fill-rule="evenodd" d="M3370.9,1097.68 L3371.31,1095.63 L3372.28,1093.08 L3373.25,1090.5 L3374.13,1087.92 L3374.87,1085.29 L3375.39,1082.6 L3375.35,1079.87 L3374.28,1077.41 L3372.3,1075.54 L3369.93,1074.16 L3367.5,1072.9 L3365.12,1071.57 L3362.89,1069.97 L3361.01,1068 L3359.68,1065.62 L3358.94,1062.99 L3358.58,1060.28 L3358.4,1057.56 L3358.35,1054.83 L3358.37,1052.09 L3358.4,1049.36 L3358.42,1046.62 L3358.4,1043.89 L3358.32,1041.14 L3358.15,1038.42 L3357.82,1035.71 L3357.32,1033.02 L3356.56,1030.39 L3355.56,1027.86 L3354.26,1025.44 L3352.8,1023.14 L3351.21,1020.9 L3349.55,1018.74 L3347.83,1016.6 L3347.37,1016.06" vector-effect="none"/>
   <path fill-rule="evenodd" d="M3402.97,1091.4 L3403.73,1092.85 L3405.02,1095.27 L3406.38,1097.65 L3407.78,1100 L3409.27,1102.29 L3410.8,1104.55 L3412.44,1106.75 L3414.22,1108.83 L3416.17,1110.75 L3418.4,1112.32 L3420.93,1113.34 L3423.63,1113.89 L3426.35,1114.1 L3429.1,1114.1 L3431.82,1113.99 L3434.57,1113.86 L3437.31,1113.77 L3440.04,1113.82 L3442.75,1114.22 L3445.27,1115.24 L3447.15,1117.17 L3448.22,1119.67 L3448.77,1122.35 L3449.07,1125.06 L3449.26,1127.78 L3449.41,1130.53 L3449.48,1131.24" vector-effect="none"/>
  </g>
  <g stroke-linejoin="bevel" transform="matrix(0.999751,0,0,0.999751,0,0)" font-weight="400" font-style="normal" fill="none" stroke="#000000" stroke-width="1" stroke-linecap="square" font-size="32.5" font-family="MS Shell Dlg 2" stroke-opacity="1"/>
  <g stroke-linejoin="bevel" transform="matrix(11.8081,0,0,11.8081,0,0)" font-weight="400" font-style="normal" fill="none" stroke="#000000" stroke-width="1" stroke-linecap="square" font-size="32.5" font-family="MS Shell Dlg 2" stroke-opacity="1"/>
  <g stroke-linejoin="bevel" transform="matrix(11.8081,0,0,11.8081,0,0)" font-weight="400" font-style="normal" fill="none" stroke="#000000" stroke-width="1" stroke-linecap="square" font-size="32.5" font-family="MS Shell Dlg 2" stroke-opacity="1"/>
  <g stroke-linejoin="bevel" transform="matrix(11.8081,0,0,11.8081,0,0)" font-weight="400" font-style="normal" fill="none" stroke="#000000" stroke-width="1" stroke-linecap="square" font-size="32.5" font-family="MS Shell Dlg 2" stroke-opacity="1"/>
  <g stroke-linejoin="bevel" transform="matrix(1,0,0,1,0,0)" font-weight="400" font-style="normal" fill="none" stroke="#000000" stroke-width="1" stroke-linecap="square" font-size="32.5" font-family="MS Shell Dlg 2" stroke-opacity="1"/>
  <g stroke-linejoin="bevel" transform="matrix(11.8081,0,0,11.8081,0,0)" font-weight="400" font-style="normal" fill="none" stroke="#000000" stroke-width="1" stroke-linecap="square" font-size="32.5" font-family="MS Shell Dlg 2" stroke-opacity="1"/>
  <g stroke-linejoin="bevel" transform="matrix(11.8081,0,0,11.8081,0,0)" font-weight="400" font-style="normal" fill="none" stroke="#000000" stroke-width="1" stroke-linecap="square" font-size="32.5" font-family="MS Shell Dlg 2" stroke-opacity="1"/>
  <g stroke-linejoin="bevel" transform="matrix(1,0,0,1,0,0)" font-weight="400" font-style="normal" fill="none" stroke="#000000" stroke-width="1" stroke-linecap="square" font-size="32.5" font-family="MS Shell Dlg 2" stroke-opacity="1"/>
 </g>
</svg>
