<?xml version='1.0' encoding='UTF-8' standalone='no'?>
<svg height="209.973mm" width="296.926mm" viewBox="0 0 3507 2480" xmlns:xlink="http://www.w3.org/1999/xlink" xmlns:inkscape="http://www.inkscape.org/namespaces/inkscape" xmlns="http://www.w3.org/2000/svg" version="1.2" baseProfile="tiny">
 <defs/>
 <g stroke-linejoin="bevel" inkscape:label="Page" inkscape:groupmode="layer" fill="none" stroke="black" fill-rule="evenodd" stroke-width="1" stroke-linecap="square" id="Page">
  <g stroke-linejoin="bevel" transform="matrix(1,0,0,1,0,0)" font-weight="400" font-style="normal" fill="none" stroke="#000000" stroke-width="1" stroke-linecap="square" font-size="32.5" font-family="MS Shell Dlg 2" stroke-opacity="1"/>
  <g stroke-linejoin="bevel" transform="matrix(1,0,0,1,0,0)" font-weight="400" font-style="normal" fill="none" stroke="#000000" stroke-width="1" stroke-linecap="square" font-size="32.5" font-family="MS Shell Dlg 2" stroke-opacity="1"/>
  <g stroke-linejoin="bevel" transform="matrix(11.8081,0,0,11.8081,0,0)" font-weight="400" font-style="normal" fill="none" stroke="#000000" stroke-width="1" stroke-linecap="square" font-size="32.5" font-family="MS Shell Dlg 2" stroke-opacity="1"/>
  <g stroke-linejoin="bevel" transform="matrix(0.999751,0,0,0.999751,0,0)" font-weight="400" font-style="normal" fill="none" stroke="#000000" stroke-width="1" stroke-linecap="square" font-size="32.5" font-family="MS Shell Dlg 2" stroke-opacity="1"/>
  <g transform="matrix(0.999751,0,0,0.999751,0,0)" font-weight="400" font-style="normal" fill="#ffffff" stroke="none" fill-opacity="1" font-size="32.5" font-family="MS Shell Dlg 2">
   <path fill-rule="evenodd" d="M-2,-2 L3510,-2 L3510,2483 L-2,2483 L-2,-2" vector-effect="none"/>
  </g>
  <g stroke-linejoin="bevel" transform="matrix(0.999751,0,0,0.999751,0,0)" font-weight="400" font-style="normal" fill="none" stroke="#000000" stroke-width="1" stroke-linecap="square" font-size="32.5" font-family="MS Shell Dlg 2" stroke-opacity="1"/>
  <g stroke-linejoin="bevel" transform="matrix(11.8081,0,0,11.8081,0,0)" font-weight="400" font-style="normal" fill="none" stroke="#000000" stroke-width="1" stroke-linecap="square" font-size="32.5" font-family="MS Shell Dlg 2" stroke-opacity="1"/>
  <g stroke-linejoin="bevel" transform="matrix(11.8081,0,0,11.8081,0,0)" font-weight="400" font-style="normal" fill="none" stroke="#000000" stroke-width="1" stroke-linecap="square" font-size="32.5" font-family="MS Shell Dlg 2" stroke-opacity="1"/>
  <g stroke-linejoin="bevel" transform="matrix(1,0,0,1,0,0)" font-weight="400" font-style="normal" fill="none" stroke="#000000" stroke-width="1" stroke-linecap="square" font-size="32.5" font-family="MS Shell Dlg 2" stroke-opacity="1"/>
 </g>
 <defs/>
 <g stroke-linejoin="bevel" inkscape:label="Map 1: Background" inkscape:groupmode="layer" fill="none" stroke="black" fill-rule="evenodd" stroke-width="1" stroke-linecap="square" id="Map 1: Background">
  <g stroke-linejoin="bevel" transform="matrix(1,0,0,1,0,0)" font-weight="400" font-style="normal" fill="none" stroke="#000000" stroke-width="1" stroke-linecap="square" font-size="32.5" font-family="MS Shell Dlg 2" stroke-opacity="1"/>
  <g stroke-linejoin="bevel" transform="matrix(1,0,0,1,0,0)" font-weight="400" font-style="normal" fill="none" stroke="#000000" stroke-width="1" stroke-linecap="square" font-size="32.5" font-family="MS Shell Dlg 2" stroke-opacity="1"/>
  <g stroke-linejoin="bevel" transform="matrix(11.8081,0,0,11.8081,0,0)" font-weight="400" font-style="normal" fill="none" stroke="#000000" stroke-width="1" stroke-linecap="square" font-size="32.5" font-family="MS Shell Dlg 2" stroke-opacity="1"/>
  <g transform="matrix(11.8081,0,0,11.8081,0,0)" font-weight="400" font-style="normal" fill="#ffffff" stroke="none" fill-opacity="1" font-size="32.5" font-family="MS Shell Dlg 2">
   <path fill-rule="evenodd" d="M0,0 L297,0 L297,210 L0,210 L0,0" vector-effect="none"/>
  </g>
  <g stroke-linejoin="bevel" transform="matrix(11.8081,0,0,11.8081,0,0)" font-weight="400" font-style="normal" fill="none" stroke="#000000" stroke-width="1" stroke-linecap="square" font-size="32.5" font-family="MS Shell Dlg 2" stroke-opacity="1"/>
  <g stroke-linejoin="bevel" transform="matrix(11.8081,0,0,11.8081,0,0)" font-weight="400" font-style="normal" fill="none" stroke="#000000" stroke-width="1" stroke-linecap="square" font-size="32.5" font-family="MS Shell Dlg 2" stroke-opacity="1"/>
  <g stroke-linejoin="bevel" transform="matrix(11.8081,0,0,11.8081,0,0)" font-weight="400" font-style="normal" fill="none" stroke="#000000" stroke-width="1" stroke-linecap="square" font-size="32.5" font-family="MS Shell Dlg 2" stroke-opacity="1"/>
  <g stroke-linejoin="bevel" transform="matrix(11.8081,0,0,11.8081,0,0)" font-weight="400" font-style="normal" fill="none" stroke="#000000" stroke-width="1" stroke-linecap="square" font-size="32.5" font-family="MS Shell Dlg 2" stroke-opacity="1"/>
  <g stroke-linejoin="bevel" transform="matrix(1,0,0,1,0,0)" font-weight="400" font-style="normal" fill="none" stroke="#000000" stroke-width="1" stroke-linecap="square" font-size="32.5" font-family="MS Shell Dlg 2" stroke-opacity="1"/>
  <g stroke-linejoin="bevel" transform="matrix(11.8081,0,0,11.8081,0,0)" font-weight="400" font-style="normal" fill="none" stroke="#000000" stroke-width="1" stroke-linecap="square" font-size="32.5" font-family="MS Shell Dlg 2" stroke-opacity="1"/>
  <g stroke-linejoin="bevel" transform="matrix(11.8081,0,0,11.8081,0,0)" font-weight="400" font-style="normal" fill="none" stroke="#000000" stroke-width="1" stroke-linecap="square" font-size="32.5" font-family="MS Shell Dlg 2" stroke-opacity="1"/>
  <g stroke-linejoin="bevel" transform="matrix(1,0,0,1,0,0)" font-weight="400" font-style="normal" fill="none" stroke="#000000" stroke-width="1" stroke-linecap="square" font-size="32.5" font-family="MS Shell Dlg 2" stroke-opacity="1"/>
 </g>
 <defs/>
 <g stroke-linejoin="bevel" inkscape:label="Map 1: TheRedWoodsProvinces" inkscape:groupmode="layer" fill="none" stroke="black" fill-rule="evenodd" stroke-width="1" stroke-linecap="square" id="Map 1: TheRedWoodsProvinces">
  <g stroke-linejoin="bevel" transform="matrix(1,0,0,1,0,0)" font-weight="400" font-style="normal" fill="none" stroke="#000000" stroke-width="1" stroke-linecap="square" font-size="32.5" font-family="MS Shell Dlg 2" stroke-opacity="1"/>
  <g stroke-linejoin="bevel" transform="matrix(1,0,0,1,0,0)" font-weight="400" font-style="normal" fill="none" stroke="#000000" stroke-width="1" stroke-linecap="square" font-size="32.5" font-family="MS Shell Dlg 2" stroke-opacity="1"/>
  <g stroke-linejoin="bevel" transform="matrix(11.8081,0,0,11.8081,0,0)" font-weight="400" font-style="normal" fill="none" stroke="#000000" stroke-width="1" stroke-linecap="square" font-size="32.5" font-family="MS Shell Dlg 2" stroke-opacity="1"/>
  <g stroke-linejoin="bevel" transform="matrix(11.8081,0,0,11.8081,0,0)" font-weight="400" font-style="normal" fill="none" stroke="#000000" stroke-width="1" stroke-linecap="square" font-size="32.5" font-family="MS Shell Dlg 2" stroke-opacity="1"/>
  <g transform="matrix(0.999751,0,0,0.999751,0,0)" font-weight="400" font-style="normal" fill="#000000" stroke="none" fill-opacity="0" font-size="32.5" font-family="MS Shell Dlg 2">
   <rect height="2480" x="0" width="3508" y="0"/>
  </g>
  <g stroke-linejoin="bevel" transform="matrix(0.999751,0,0,0.999751,0,0)" font-weight="400" font-style="normal" fill="none" stroke="#000000" stroke-width="1" stroke-linecap="square" font-size="32.5" font-family="MS Shell Dlg 2" stroke-opacity="1"/>
  <g stroke-linejoin="bevel" transform="matrix(0.999751,0,0,0.999751,0,0)" font-weight="400" font-style="normal" fill="#cc6b85" stroke="#232323" fill-opacity="1" stroke-width="2.95276" stroke-linecap="square" font-size="32.5" font-family="MS Shell Dlg 2" stroke-opacity="1">
   <path fill-rule="evenodd" d="M1460.99,1571.6 L1421.45,1541.55 L1430.94,1502.02 L1430.94,1490.95 L1451.5,1460.91 L1421.45,1421.37 L1440.43,1361.28 L1430.94,1350.22 L1410.39,1290.13 L1440.43,1271.15 L1440.43,1250.59 L1511.59,1211.06 L1491.03,1181.02 L1521.08,1150.97 L1551.12,1139.9 L1562.19,1109.86 L1601.72,1109.86 L1622.28,1079.81 L1611.21,1049.77 L1682.37,1040.28 L1671.3,989.678 L1701.35,989.678 L1721.9,1000.75 L1793.06,1000.75 L1802.55,989.678 L1853.15,1010.24 L1862.64,1030.79 L1883.19,1049.77 L1913.24,1049.77 L1922.73,1049.77 L1982.82,1070.32 L1982.82,1090.88 L2063.46,1109.86 L2053.98,1130.41 L2104.58,1169.95 L2123.55,1169.95 L2144.11,1160.46 L2153.6,1160.46 L2144.11,1241.11 L2123.55,1241.11 L2093.51,1260.08 L2104.58,1280.64 L2144.11,1280.64 L2144.11,1271.15 L2164.67,1260.08 L2183.64,1260.08 L2204.2,1340.73 L2224.76,1350.22 L2245.31,1381.84 L2234.24,1430.86 L2215.27,1441.93 L2204.2,1490.95 L2215.27,1511.51 L2204.2,1541.55 L2204.2,1562.11 L2194.71,1581.09 L2153.6,1601.64 L2153.6,1592.15 L2114.06,1622.2 L2104.58,1641.17 L2093.51,1641.17 L2053.98,1641.17 L2033.42,1652.24 L1993.89,1641.17 L1973.33,1652.24 L1913.24,1661.73 L1892.68,1652.24 L1862.64,1641.17 L1853.15,1661.73 L1793.06,1671.22 L1781.99,1671.22 L1732.97,1652.24 L1701.35,1712.33 L1691.86,1712.33 L1631.77,1652.24 L1611.21,1661.73 L1551.12,1622.2 L1511.59,1641.17 L1460.99,1601.64 L1460.99,1571.6" vector-effect="none"/>
   <path fill-rule="evenodd" d="M1128.91,1070.32 L1078.31,1060.84 L1059.34,1040.28 L1078.31,1010.24 L1068.82,980.191 L1068.82,970.703 L1068.82,929.589 L1119.43,920.101 L1128.91,869.499 L1109.94,788.853 L1189,799.922 L1158.96,739.833 L1139.98,739.833 L1139.98,689.231 L1119.43,668.674 L1149.47,629.142 L1119.43,599.097 L1119.43,589.609 L1149.47,548.495 L1200.07,559.564 L1200.07,529.52 L1239.6,518.45 L1260.16,499.475 L1310.76,539.007 L1320.25,499.475 L1370.85,488.406 L1380.34,488.406 L1440.43,478.918 L1451.5,499.475 L1470.47,499.475 L1491.03,488.406 L1562.19,518.45 L1562.19,529.52 L1622.28,548.495 L1631.77,569.052 L1671.3,548.495 L1732.97,569.052 L1732.97,608.585 L1742.46,619.654 L1763.02,619.654 L1812.04,559.564 L1853.15,578.54 L1853.15,619.654 L1793.06,629.142 L1802.55,679.743 L1763.02,698.719 L1742.46,769.877 L1691.86,728.764 L1652.32,758.808 L1661.81,809.41 L1601.72,820.479 L1541.63,820.479 L1530.56,839.455 L1491.03,869.499 L1491.03,890.056 L1451.5,929.589 L1440.43,940.658 L1451.5,970.703 L1430.94,989.678 L1389.83,1010.24 L1380.34,1030.79 L1310.76,1049.77 L1299.69,1040.28 L1269.65,1040.28 L1250.67,1049.77 L1239.6,1100.37 L1209.56,1100.37 L1158.96,1049.77 L1139.98,1049.77 L1128.91,1070.32" vector-effect="none"/>
   <path fill-rule="evenodd" d="M2335.45,1902.09 L2324.38,1872.04 L2264.29,1881.53 L2254.8,1842 L2275.36,1811.96 L2275.36,1802.47 L2344.93,1772.42 L2354.42,1761.35 L2344.93,1721.82 L2354.42,1701.26 L2395.54,1691.78 L2416.09,1701.26 L2455.63,1701.26 L2526.78,1731.31 L2536.27,1772.42 L2586.87,1751.87 L2616.92,1791.4 L2605.85,1821.44 L2605.85,1832.51 L2626.41,1842 L2646.96,1881.53 L2677.01,1892.6 L2677.01,1913.16 L2605.85,1932.13 L2586.87,1913.16 L2575.81,1862.56 L2515.72,1872.04 L2506.23,1943.2 L2465.11,1932.13 L2446.14,1932.13 L2446.14,1992.22 L2435.07,2012.78 L2425.58,2012.78 L2416.09,2003.29 L2354.42,2012.78 L2344.93,1982.74 L2305.4,1943.2 L2335.45,1902.09" vector-effect="none"/>
   <path fill-rule="evenodd" d="M3058.1,1120.93 L3007.5,1100.37 L2998.01,1070.32 L3018.57,1040.28 L3018.57,1019.72 L2998.01,1000.75 L2967.97,989.678 L2977.46,929.589 L2998.01,929.589 L3007.5,910.613 L3028.06,899.544 L3028.06,869.499 L3069.17,869.499 L3078.66,850.524 L3099.22,850.524 L3108.7,860.012 L3148.24,850.524 L3159.31,860.012 L3189.35,860.012 L3198.84,850.524 L3209.91,809.41 L3239.95,809.41 L3249.44,869.499 L3279.48,869.499 L3288.97,869.499 L3300.04,920.101 L3300.04,929.589 L3279.48,980.191 L3270,989.678 L3270,1049.77 L3249.44,1070.32 L3209.91,1049.77 L3168.79,1100.37 L3148.24,1100.37 L3129.26,1160.46 L3088.15,1160.46 L3058.1,1130.41 L3058.1,1120.93" vector-effect="none"/>
   <path fill-rule="evenodd" d="M1622.28,2213.61 L1622.28,2243.65 L1611.21,2243.65 L1601.72,2243.65 L1562.19,2243.65 L1562.19,2232.58 L1491.03,2243.65 L1481.54,2232.58 L1481.54,2223.09 L1421.45,2172.49 L1440.43,2132.96 L1460.99,2132.96 L1491.03,2082.36 L1541.63,2093.43 L1541.63,2022.27 L1551.12,2022.27 L1562.19,2022.27 L1601.72,2072.87 L1601.72,2112.4 L1661.81,2123.47 L1661.81,2163 L1641.26,2183.56 L1622.28,2213.61" vector-effect="none"/>
   <path fill-rule="evenodd" d="M1913.24,1922.65 L1862.64,1902.09 L1823.11,1892.6 L1793.06,1851.49 L1793.06,1842 L1781.99,1832.51 L1812.04,1761.35 L1802.55,1751.87 L1793.06,1721.82 L1853.15,1701.26 L1872.13,1731.31 L1913.24,1691.78 L1943.28,1721.82 L1963.84,1721.82 L1973.33,1751.87 L1973.33,1781.91 L1993.89,1811.96 L1982.82,1842 L1993.89,1862.56 L1933.8,1902.09 L1922.73,1922.65 L1913.24,1922.65" vector-effect="none"/>
   <path fill-rule="evenodd" d="M2656.45,1290.13 L2616.92,1280.64 L2605.85,1271.15 L2586.87,1220.55 L2526.78,1241.11 L2515.72,1220.55 L2526.78,1181.02 L2586.87,1160.46 L2575.81,1120.93 L2586.87,1100.37 L2616.92,1100.37 L2656.45,1160.46 L2686.5,1139.9 L2716.54,1181.02 L2727.61,1211.06 L2737.1,1211.06 L2757.65,1230.04 L2737.1,1271.15 L2677.01,1271.15 L2665.94,1290.13 L2656.45,1290.13" vector-effect="none"/>
   <path fill-rule="evenodd" d="M1158.96,1712.33 L1119.43,1652.24 L1078.31,1671.22 L1059.34,1641.17 L1078.31,1592.15 L1078.31,1581.09 L1078.31,1532.07 L1139.98,1541.55 L1209.56,1511.51 L1209.56,1521 L1189,1571.6 L1250.67,1581.09 L1239.6,1622.2 L1260.16,1631.69 L1250.67,1691.78 L1219.05,1701.26 L1200.07,1701.26 L1189,1712.33 L1158.96,1712.33" vector-effect="none"/>
   <path fill-rule="evenodd" d="M2294.33,910.613 L2275.36,890.056 L2275.36,880.569 L2264.29,860.012 L2264.29,829.967 L2344.93,799.922 L2324.38,779.365 L2354.42,739.833 L2374.98,739.833 L2405.02,769.877 L2455.63,758.808 L2465.11,788.853 L2476.18,809.41 L2465.11,850.524 L2446.14,860.012 L2476.18,910.613 L2395.54,920.101 L2365.49,929.589 L2324.38,910.613 L2294.33,910.613" vector-effect="none"/>
   <path fill-rule="evenodd" d="M2324.38,569.052 L2305.4,548.495 L2314.89,518.45 L2354.42,499.475 L2335.45,458.361 L2354.42,439.385 L2365.49,439.385 L2405.02,418.828 L2425.58,428.316 L2465.11,439.385 L2476.18,439.385 L2476.18,469.43 L2446.14,478.918 L2455.63,508.963 L2476.18,548.495 L2425.58,539.007 L2416.09,529.52 L2386.05,518.45 L2365.49,548.495 L2324.38,569.052" vector-effect="none"/>
   <path fill-rule="evenodd" d="M2707.05,799.922 L2677.01,809.41 L2656.45,799.922 L2646.96,769.877 L2575.81,809.41 L2575.81,799.922 L2566.32,758.808 L2605.85,728.764 L2596.36,679.743 L2626.41,668.674 L2646.96,679.743 L2686.5,659.186 L2707.05,698.719 L2697.57,709.788 L2707.05,739.833 L2707.05,758.808 L2716.54,779.365 L2707.05,799.922" vector-effect="none"/>
  </g>
  <g stroke-linejoin="bevel" transform="matrix(0.999751,0,0,0.999751,0,0)" font-weight="400" font-style="normal" fill="none" stroke="#000000" stroke-width="1" stroke-linecap="square" font-size="32.5" font-family="MS Shell Dlg 2" stroke-opacity="1"/>
  <g stroke-linejoin="bevel" transform="matrix(11.8081,0,0,11.8081,0,0)" font-weight="400" font-style="normal" fill="none" stroke="#000000" stroke-width="1" stroke-linecap="square" font-size="32.5" font-family="MS Shell Dlg 2" stroke-opacity="1"/>
  <g stroke-linejoin="bevel" transform="matrix(11.8081,0,0,11.8081,0,0)" font-weight="400" font-style="normal" fill="none" stroke="#000000" stroke-width="1" stroke-linecap="square" font-size="32.5" font-family="MS Shell Dlg 2" stroke-opacity="1"/>
  <g stroke-linejoin="bevel" transform="matrix(11.8081,0,0,11.8081,0,0)" font-weight="400" font-style="normal" fill="none" stroke="#000000" stroke-width="1" stroke-linecap="square" font-size="32.5" font-family="MS Shell Dlg 2" stroke-opacity="1"/>
  <g stroke-linejoin="bevel" transform="matrix(1,0,0,1,0,0)" font-weight="400" font-style="normal" fill="none" stroke="#000000" stroke-width="1" stroke-linecap="square" font-size="32.5" font-family="MS Shell Dlg 2" stroke-opacity="1"/>
  <g stroke-linejoin="bevel" transform="matrix(11.8081,0,0,11.8081,0,0)" font-weight="400" font-style="normal" fill="none" stroke="#000000" stroke-width="1" stroke-linecap="square" font-size="32.5" font-family="MS Shell Dlg 2" stroke-opacity="1"/>
  <g stroke-linejoin="bevel" transform="matrix(11.8081,0,0,11.8081,0,0)" font-weight="400" font-style="normal" fill="none" stroke="#000000" stroke-width="1" stroke-linecap="square" font-size="32.5" font-family="MS Shell Dlg 2" stroke-opacity="1"/>
  <g stroke-linejoin="bevel" transform="matrix(1,0,0,1,0,0)" font-weight="400" font-style="normal" fill="none" stroke="#000000" stroke-width="1" stroke-linecap="square" font-size="32.5" font-family="MS Shell Dlg 2" stroke-opacity="1"/>
 </g>
</svg>
