<?xml version='1.0' encoding='UTF-8' standalone='no'?>
<svg height="209.973mm" width="296.926mm" viewBox="0 0 3507 2480" xmlns:xlink="http://www.w3.org/1999/xlink" xmlns:inkscape="http://www.inkscape.org/namespaces/inkscape" xmlns="http://www.w3.org/2000/svg" version="1.2" baseProfile="tiny">
 <defs/>
 <g stroke-linejoin="bevel" inkscape:label="Page" inkscape:groupmode="layer" fill="none" stroke="black" fill-rule="evenodd" stroke-width="1" stroke-linecap="square" id="Page">
  <g stroke-linejoin="bevel" transform="matrix(1,0,0,1,0,0)" font-weight="400" font-style="normal" fill="none" stroke="#000000" stroke-width="1" stroke-linecap="square" font-size="32.5" font-family="MS Shell Dlg 2" stroke-opacity="1"/>
  <g stroke-linejoin="bevel" transform="matrix(1,0,0,1,0,0)" font-weight="400" font-style="normal" fill="none" stroke="#000000" stroke-width="1" stroke-linecap="square" font-size="32.5" font-family="MS Shell Dlg 2" stroke-opacity="1"/>
  <g stroke-linejoin="bevel" transform="matrix(11.8081,0,0,11.8081,0,0)" font-weight="400" font-style="normal" fill="none" stroke="#000000" stroke-width="1" stroke-linecap="square" font-size="32.5" font-family="MS Shell Dlg 2" stroke-opacity="1"/>
  <g stroke-linejoin="bevel" transform="matrix(0.999751,0,0,0.999751,0,0)" font-weight="400" font-style="normal" fill="none" stroke="#000000" stroke-width="1" stroke-linecap="square" font-size="32.5" font-family="MS Shell Dlg 2" stroke-opacity="1"/>
  <g transform="matrix(0.999751,0,0,0.999751,0,0)" font-weight="400" font-style="normal" fill="#ffffff" stroke="none" fill-opacity="1" font-size="32.5" font-family="MS Shell Dlg 2">
   <path fill-rule="evenodd" d="M-2,-2 L3510,-2 L3510,2483 L-2,2483 L-2,-2" vector-effect="none"/>
  </g>
  <g stroke-linejoin="bevel" transform="matrix(0.999751,0,0,0.999751,0,0)" font-weight="400" font-style="normal" fill="none" stroke="#000000" stroke-width="1" stroke-linecap="square" font-size="32.5" font-family="MS Shell Dlg 2" stroke-opacity="1"/>
  <g stroke-linejoin="bevel" transform="matrix(11.8081,0,0,11.8081,0,0)" font-weight="400" font-style="normal" fill="none" stroke="#000000" stroke-width="1" stroke-linecap="square" font-size="32.5" font-family="MS Shell Dlg 2" stroke-opacity="1"/>
  <g stroke-linejoin="bevel" transform="matrix(11.8081,0,0,11.8081,0,0)" font-weight="400" font-style="normal" fill="none" stroke="#000000" stroke-width="1" stroke-linecap="square" font-size="32.5" font-family="MS Shell Dlg 2" stroke-opacity="1"/>
  <g stroke-linejoin="bevel" transform="matrix(1,0,0,1,0,0)" font-weight="400" font-style="normal" fill="none" stroke="#000000" stroke-width="1" stroke-linecap="square" font-size="32.5" font-family="MS Shell Dlg 2" stroke-opacity="1"/>
 </g>
 <defs/>
 <g stroke-linejoin="bevel" inkscape:label="Map 1: Background" inkscape:groupmode="layer" fill="none" stroke="black" fill-rule="evenodd" stroke-width="1" stroke-linecap="square" id="Map 1: Background">
  <g stroke-linejoin="bevel" transform="matrix(1,0,0,1,0,0)" font-weight="400" font-style="normal" fill="none" stroke="#000000" stroke-width="1" stroke-linecap="square" font-size="32.5" font-family="MS Shell Dlg 2" stroke-opacity="1"/>
  <g stroke-linejoin="bevel" transform="matrix(1,0,0,1,0,0)" font-weight="400" font-style="normal" fill="none" stroke="#000000" stroke-width="1" stroke-linecap="square" font-size="32.5" font-family="MS Shell Dlg 2" stroke-opacity="1"/>
  <g stroke-linejoin="bevel" transform="matrix(11.8081,0,0,11.8081,0,0)" font-weight="400" font-style="normal" fill="none" stroke="#000000" stroke-width="1" stroke-linecap="square" font-size="32.5" font-family="MS Shell Dlg 2" stroke-opacity="1"/>
  <g transform="matrix(11.8081,0,0,11.8081,0,0)" font-weight="400" font-style="normal" fill="#ffffff" stroke="none" fill-opacity="1" font-size="32.5" font-family="MS Shell Dlg 2">
   <path fill-rule="evenodd" d="M0,0 L297,0 L297,210 L0,210 L0,0" vector-effect="none"/>
  </g>
  <g stroke-linejoin="bevel" transform="matrix(11.8081,0,0,11.8081,0,0)" font-weight="400" font-style="normal" fill="none" stroke="#000000" stroke-width="1" stroke-linecap="square" font-size="32.5" font-family="MS Shell Dlg 2" stroke-opacity="1"/>
  <g stroke-linejoin="bevel" transform="matrix(11.8081,0,0,11.8081,0,0)" font-weight="400" font-style="normal" fill="none" stroke="#000000" stroke-width="1" stroke-linecap="square" font-size="32.5" font-family="MS Shell Dlg 2" stroke-opacity="1"/>
  <g stroke-linejoin="bevel" transform="matrix(11.8081,0,0,11.8081,0,0)" font-weight="400" font-style="normal" fill="none" stroke="#000000" stroke-width="1" stroke-linecap="square" font-size="32.5" font-family="MS Shell Dlg 2" stroke-opacity="1"/>
  <g stroke-linejoin="bevel" transform="matrix(11.8081,0,0,11.8081,0,0)" font-weight="400" font-style="normal" fill="none" stroke="#000000" stroke-width="1" stroke-linecap="square" font-size="32.5" font-family="MS Shell Dlg 2" stroke-opacity="1"/>
  <g stroke-linejoin="bevel" transform="matrix(1,0,0,1,0,0)" font-weight="400" font-style="normal" fill="none" stroke="#000000" stroke-width="1" stroke-linecap="square" font-size="32.5" font-family="MS Shell Dlg 2" stroke-opacity="1"/>
  <g stroke-linejoin="bevel" transform="matrix(11.8081,0,0,11.8081,0,0)" font-weight="400" font-style="normal" fill="none" stroke="#000000" stroke-width="1" stroke-linecap="square" font-size="32.5" font-family="MS Shell Dlg 2" stroke-opacity="1"/>
  <g stroke-linejoin="bevel" transform="matrix(11.8081,0,0,11.8081,0,0)" font-weight="400" font-style="normal" fill="none" stroke="#000000" stroke-width="1" stroke-linecap="square" font-size="32.5" font-family="MS Shell Dlg 2" stroke-opacity="1"/>
  <g stroke-linejoin="bevel" transform="matrix(1,0,0,1,0,0)" font-weight="400" font-style="normal" fill="none" stroke="#000000" stroke-width="1" stroke-linecap="square" font-size="32.5" font-family="MS Shell Dlg 2" stroke-opacity="1"/>
 </g>
 <defs/>
 <g stroke-linejoin="bevel" inkscape:label="Map 1: TheRedWoodsLand" inkscape:groupmode="layer" fill="none" stroke="black" fill-rule="evenodd" stroke-width="1" stroke-linecap="square" id="Map 1: TheRedWoodsLand">
  <g stroke-linejoin="bevel" transform="matrix(1,0,0,1,0,0)" font-weight="400" font-style="normal" fill="none" stroke="#000000" stroke-width="1" stroke-linecap="square" font-size="32.5" font-family="MS Shell Dlg 2" stroke-opacity="1"/>
  <g stroke-linejoin="bevel" transform="matrix(1,0,0,1,0,0)" font-weight="400" font-style="normal" fill="none" stroke="#000000" stroke-width="1" stroke-linecap="square" font-size="32.5" font-family="MS Shell Dlg 2" stroke-opacity="1"/>
  <g stroke-linejoin="bevel" transform="matrix(11.8081,0,0,11.8081,0,0)" font-weight="400" font-style="normal" fill="none" stroke="#000000" stroke-width="1" stroke-linecap="square" font-size="32.5" font-family="MS Shell Dlg 2" stroke-opacity="1"/>
  <g stroke-linejoin="bevel" transform="matrix(11.8081,0,0,11.8081,0,0)" font-weight="400" font-style="normal" fill="none" stroke="#000000" stroke-width="1" stroke-linecap="square" font-size="32.5" font-family="MS Shell Dlg 2" stroke-opacity="1"/>
  <g transform="matrix(0.999751,0,0,0.999751,0,0)" font-weight="400" font-style="normal" fill="#000000" stroke="none" fill-opacity="0" font-size="32.5" font-family="MS Shell Dlg 2">
   <rect height="2480" x="0" width="3508" y="0"/>
  </g>
  <g stroke-linejoin="bevel" transform="matrix(0.999751,0,0,0.999751,0,0)" font-weight="400" font-style="normal" fill="none" stroke="#000000" stroke-width="1" stroke-linecap="square" font-size="32.5" font-family="MS Shell Dlg 2" stroke-opacity="1"/>
  <g stroke-linejoin="bevel" transform="matrix(0.999751,0,0,0.999751,0,0)" font-weight="400" font-style="normal" fill="#ea6d71" stroke="#232323" fill-opacity="1" stroke-width="5.90551" stroke-linecap="square" font-size="32.5" font-family="MS Shell Dlg 2" stroke-opacity="1">
   <path fill-rule="evenodd" d="M847.442,2063.38 L828.466,2033.34 L777.865,2042.83 L768.377,2022.27 L768.377,2012.78 L787.353,1982.74 L757.308,1932.13 L768.377,1922.65 L768.377,1913.16 L768.377,1902.09 L747.82,1881.53 L747.82,1872.04 L706.706,1851.49 L697.218,1821.44 L706.706,1811.96 L736.751,1802.47 L757.308,1832.51 L777.865,1832.51 L787.353,1811.96 L768.377,1791.4 L787.353,1751.87 L817.397,1731.31 L817.397,1721.82 L837.954,1701.26 L858.511,1682.29 L858.511,1671.22 L888.556,1652.24 L877.487,1601.64 L888.556,1601.64 L907.531,1532.07 L939.158,1551.04 L948.645,1551.04 L969.202,1511.51 L918.601,1471.98 L928.088,1460.91 L958.133,1391.33 L948.645,1391.33 L888.556,1391.33 L877.487,1340.73 L867.999,1301.19 L847.442,1271.15 L847.442,1230.04 L907.531,1199.99 L948.645,1230.04 L969.202,1220.55 L978.69,1160.46 L1029.29,1139.9 L1018.22,1100.37 L1068.82,1090.88 L1078.31,1060.84 L1059.34,1040.28 L1078.31,1010.24 L1068.82,980.191 L1068.82,970.703 L1068.82,929.589 L1119.43,920.101 L1128.91,869.499 L1109.94,788.853 L1189,799.922 L1158.96,739.833 L1139.98,739.833 L1139.98,689.231 L1119.43,668.674 L1149.47,629.142 L1119.43,599.097 L1119.43,589.609 L1149.47,548.495 L1200.07,559.564 L1200.07,529.52 L1239.6,518.45 L1260.16,499.475 L1310.76,539.007 L1320.25,499.475 L1370.85,488.406 L1380.34,488.406 L1440.43,478.918 L1451.5,499.475 L1470.47,499.475 L1491.03,488.406 L1562.19,518.45 L1562.19,529.52 L1622.28,548.495 L1631.77,569.052 L1671.3,548.495 L1732.97,569.052 L1732.97,608.585 L1742.46,619.654 L1763.02,619.654 L1812.04,559.564 L1853.15,578.54 L1872.13,529.52 L1922.73,518.45 L1943.28,488.406 L1952.77,478.918 L1982.82,499.475 L2033.42,499.475 L2084.02,518.45 L2104.58,499.475 L2114.06,469.43 L2114.06,458.361 L2104.58,398.272 L2104.58,388.784 L2074.53,338.182 L2084.02,319.206 L2012.86,278.093 L2053.98,248.048 L2053.98,208.515 L2084.02,197.446 L2114.06,208.515 L2144.11,197.446 L2183.64,227.491 L2204.2,208.515 L2245.31,248.048 L2264.29,218.003 L2275.36,218.003 L2324.38,259.117 L2284.85,268.605 L2245.31,259.117 L2224.76,278.093 L2245.31,319.206 L2254.8,349.251 L2264.29,358.739 L2275.36,368.227 L2314.89,379.296 L2335.45,368.227 L2354.42,379.296 L2354.42,388.784 L2344.93,418.828 L2354.42,439.385 L2365.49,439.385 L2405.02,418.828 L2425.58,428.316 L2465.11,439.385 L2476.18,439.385 L2476.18,469.43 L2485.67,478.918 L2485.67,499.475 L2526.78,499.475 L2536.27,478.918 L2566.32,488.406 L2596.36,469.43 L2596.36,478.918 L2626.41,458.361 L2656.45,488.406 L2646.96,508.963 L2646.96,518.45 L2656.45,548.495 L2646.96,559.564 L2656.45,578.54 L2646.96,599.097 L2646.96,619.654 L2677.01,629.142 L2686.5,659.186 L2707.05,698.719 L2697.57,709.788 L2707.05,739.833 L2707.05,758.808 L2716.54,779.365 L2707.05,799.922 L2727.61,820.479 L2737.1,820.479 L2757.65,799.922 L2797.19,820.479 L2787.7,839.455 L2817.74,860.012 L2827.23,860.012 L2847.79,880.569 L2877.83,860.012 L2898.39,880.569 L2907.88,880.569 L2937.92,890.056 L2947.41,899.544 L2967.97,929.589 L2977.46,929.589 L2998.01,929.589 L3007.5,910.613 L3028.06,899.544 L3028.06,869.499 L3069.17,869.499 L3078.66,850.524 L3099.22,850.524 L3108.7,860.012 L3148.24,850.524 L3159.31,860.012 L3189.35,860.012 L3198.84,850.524 L3209.91,809.41 L3239.95,809.41 L3249.44,809.41 L3279.48,820.479 L3300.04,809.41 L3309.53,809.41 L3339.57,809.41 L3360.13,788.853 L3360.13,779.365 L3380.69,769.877 L3390.18,769.877 L3420.22,749.321 L3429.71,728.764 L3470.82,728.764 L3470.82,779.365 L3470.82,788.853 L3480.31,820.479 L3450.27,860.012 L3440.78,890.056 L3420.22,899.544 L3410.73,940.658 L3420.22,950.146 L3399.66,980.191 L3360.13,1010.24 L3360.13,1019.72 L3330.09,1030.79 L3300.04,1049.77 L3319.02,1090.88 L3300.04,1100.37 L3249.44,1079.81 L3228.88,1120.93 L3249.44,1160.46 L3270,1169.95 L3249.44,1199.99 L3239.95,1220.55 L3258.93,1280.64 L3228.88,1290.13 L3228.88,1361.28 L3179.86,1350.22 L3168.79,1361.28 L3118.19,1331.24 L3099.22,1350.22 L3058.1,1361.28 L3048.61,1391.33 L2998.01,1391.33 L2998.01,1400.82 L2937.92,1391.33 L2928.44,1391.33 L2928.44,1451.42 L2907.88,1460.91 L2887.32,1502.02 L2898.39,1511.51 L2887.32,1562.11 L2836.72,1581.09 L2836.72,1592.15 L2877.83,1622.2 L2868.35,1661.73 L2868.35,1691.78 L2877.83,1701.26 L2877.83,1751.87 L2817.74,1761.35 L2817.74,1811.96 L2757.65,1821.44 L2746.59,1832.51 L2697.57,1821.44 L2686.5,1832.51 L2677.01,1892.6 L2677.01,1913.16 L2605.85,1932.13 L2586.87,1913.16 L2575.81,1862.56 L2515.72,1872.04 L2506.23,1943.2 L2465.11,1932.13 L2446.14,1932.13 L2446.14,1992.22 L2435.07,2012.78 L2425.58,2012.78 L2416.09,2003.29 L2354.42,2012.78 L2344.93,1982.74 L2264.29,2012.78 L2254.8,2003.29 L2234.24,2003.29 L2204.2,2033.34 L2144.11,2022.27 L2134.62,2052.31 L2114.06,2063.38 L2104.58,2063.38 L2084.02,2082.36 L2033.42,2093.43 L2033.42,2112.4 L2023.93,2123.47 L1993.89,2142.45 L1973.33,2142.45 L1952.77,2142.45 L1952.77,2123.47 L1922.73,2082.36 L1903.75,2063.38 L1883.19,2063.38 L1872.13,2093.43 L1862.64,2112.4 L1832.59,2142.45 L1862.64,2193.05 L1842.08,2213.61 L1802.55,2202.54 L1793.06,2202.54 L1751.95,2193.05 L1742.46,2262.63 L1732.97,2273.7 L1682.37,2262.63 L1671.3,2253.14 L1622.28,2243.65 L1611.21,2243.65 L1601.72,2243.65 L1562.19,2243.65 L1562.19,2232.58 L1491.03,2243.65 L1481.54,2232.58 L1430.94,2232.58 L1410.39,2183.56 L1380.34,2193.05 L1370.85,2193.05 L1310.76,2202.54 L1310.76,2213.61 L1269.65,2202.54 L1260.16,2243.65 L1200.07,2253.14 L1189,2193.05 L1149.47,2193.05 L1139.98,2193.05 L1098.87,2193.05 L1078.31,2163 L999.247,2193.05 L988.178,2193.05 L978.69,2193.05 L939.158,2123.47 L898.044,2123.47 L888.556,2112.4 L888.556,2082.36 L877.487,2072.87 L847.442,2063.38 M2386.05,569.052 L2416.09,569.052 L2425.58,539.007 L2416.09,529.52 L2386.05,518.45 L2365.49,548.495 L2386.05,569.052 M2104.58,1280.64 L2144.11,1280.64 L2144.11,1271.15 L2164.67,1260.08 L2144.11,1241.11 L2123.55,1241.11 L2093.51,1260.08 L2104.58,1280.64" vector-effect="none"/>
  </g>
  <g stroke-linejoin="bevel" transform="matrix(0.999751,0,0,0.999751,0,0)" font-weight="400" font-style="normal" fill="none" stroke="#000000" stroke-width="1" stroke-linecap="square" font-size="32.5" font-family="MS Shell Dlg 2" stroke-opacity="1"/>
  <g stroke-linejoin="bevel" transform="matrix(11.8081,0,0,11.8081,0,0)" font-weight="400" font-style="normal" fill="none" stroke="#000000" stroke-width="1" stroke-linecap="square" font-size="32.5" font-family="MS Shell Dlg 2" stroke-opacity="1"/>
  <g stroke-linejoin="bevel" transform="matrix(11.8081,0,0,11.8081,0,0)" font-weight="400" font-style="normal" fill="none" stroke="#000000" stroke-width="1" stroke-linecap="square" font-size="32.5" font-family="MS Shell Dlg 2" stroke-opacity="1"/>
  <g stroke-linejoin="bevel" transform="matrix(11.8081,0,0,11.8081,0,0)" font-weight="400" font-style="normal" fill="none" stroke="#000000" stroke-width="1" stroke-linecap="square" font-size="32.5" font-family="MS Shell Dlg 2" stroke-opacity="1"/>
  <g stroke-linejoin="bevel" transform="matrix(1,0,0,1,0,0)" font-weight="400" font-style="normal" fill="none" stroke="#000000" stroke-width="1" stroke-linecap="square" font-size="32.5" font-family="MS Shell Dlg 2" stroke-opacity="1"/>
  <g stroke-linejoin="bevel" transform="matrix(11.8081,0,0,11.8081,0,0)" font-weight="400" font-style="normal" fill="none" stroke="#000000" stroke-width="1" stroke-linecap="square" font-size="32.5" font-family="MS Shell Dlg 2" stroke-opacity="1"/>
  <g stroke-linejoin="bevel" transform="matrix(11.8081,0,0,11.8081,0,0)" font-weight="400" font-style="normal" fill="none" stroke="#000000" stroke-width="1" stroke-linecap="square" font-size="32.5" font-family="MS Shell Dlg 2" stroke-opacity="1"/>
  <g stroke-linejoin="bevel" transform="matrix(1,0,0,1,0,0)" font-weight="400" font-style="normal" fill="none" stroke="#000000" stroke-width="1" stroke-linecap="square" font-size="32.5" font-family="MS Shell Dlg 2" stroke-opacity="1"/>
 </g>
 <defs/>
 <g stroke-linejoin="bevel" inkscape:label="Map 1: TheRedWoodsLand (Labels)" inkscape:groupmode="layer" fill="none" stroke="black" fill-rule="evenodd" stroke-width="1" stroke-linecap="square" id="Map 1: TheRedWoodsLand (Labels)">
  <g stroke-linejoin="bevel" transform="matrix(1,0,0,1,0,0)" font-weight="400" font-style="normal" fill="none" stroke="#000000" stroke-width="1" stroke-linecap="square" font-size="32.5" font-family="MS Shell Dlg 2" stroke-opacity="1"/>
  <g stroke-linejoin="bevel" transform="matrix(1,0,0,1,0,0)" font-weight="400" font-style="normal" fill="none" stroke="#000000" stroke-width="1" stroke-linecap="square" font-size="32.5" font-family="MS Shell Dlg 2" stroke-opacity="1"/>
  <g stroke-linejoin="bevel" transform="matrix(11.8081,0,0,11.8081,0,0)" font-weight="400" font-style="normal" fill="none" stroke="#000000" stroke-width="1" stroke-linecap="square" font-size="32.5" font-family="MS Shell Dlg 2" stroke-opacity="1"/>
  <g stroke-linejoin="bevel" transform="matrix(11.8081,0,0,11.8081,0,0)" font-weight="400" font-style="normal" fill="none" stroke="#000000" stroke-width="1" stroke-linecap="square" font-size="32.5" font-family="MS Shell Dlg 2" stroke-opacity="1"/>
  <g transform="matrix(0.999751,0,0,0.999751,0,0)" font-weight="400" font-style="normal" fill="#000000" stroke="none" fill-opacity="0" font-size="32.5" font-family="MS Shell Dlg 2">
   <rect height="2480" x="0" width="3508" y="0"/>
  </g>
  <g stroke-linejoin="bevel" transform="matrix(0.999751,0,0,0.999751,0,0)" font-weight="400" font-style="normal" fill="none" stroke="#000000" stroke-width="1" stroke-linecap="square" font-size="32.5" font-family="MS Shell Dlg 2" stroke-opacity="1"/>
  <g stroke-linejoin="bevel" transform="matrix(0.3999,0,0,0.3999,1810.37,1326.79)" font-weight="400" font-style="normal" fill="none" stroke="#000000" stroke-width="1" stroke-linecap="square" font-size="32.5" font-family="MS Shell Dlg 2" stroke-opacity="1"/>
  <g transform="matrix(0.999751,0,0,0.999751,1810.37,1326.79)" font-weight="400" font-style="normal" fill="#323232" stroke="none" fill-opacity="1" font-size="32.5" font-family="MS Shell Dlg 2">
   <path fill-rule="nonzero" d="M5.292,-27.972 C7.224,-27.888 9.443,-27.72 11.949,-27.468 C14.455,-27.216 16.24,-27.09 17.304,-27.09 C18.368,-27.09 19.166,-27.174 19.698,-27.342 C20.986,-28.574 21.896,-29.512 22.428,-30.156 L23.1,-29.652 C21.616,-27.72 20.72,-25.704 20.412,-23.604 C17.64,-24.36 15.106,-24.822 12.81,-24.99 C12.614,-21.938 12.516,-17.927 12.516,-12.957 C12.516,-7.987 12.698,-4.158 13.062,-1.47 C14.462,-1.33 16.002,-1.064 17.682,-0.672 L17.556,0.336 C15.484,0.112 13.237,0 10.815,0 C8.393,0 6.44,0.112 4.956,0.336 L4.788,-0.714 C6.048,-1.106 7.392,-1.4 8.82,-1.596 C9.128,-3.892 9.282,-7.504 9.282,-12.432 L9.282,-14.91 C9.282,-17.682 9.114,-21.084 8.778,-25.116 L7.686,-25.116 C4.382,-25.116 2.268,-24.668 1.344,-23.772 C1.148,-23.38 1.05,-22.764 1.05,-21.924 C1.05,-21.084 1.19,-20.51 1.47,-20.202 L1.428,-19.908 C0.728,-19.488 0.028,-18.9 -0.672,-18.144 C-1.008,-18.172 -1.281,-18.312 -1.491,-18.564 C-1.701,-18.816 -1.806,-19.11 -1.806,-19.446 C-1.806,-20.818 -0.98,-22.456 0.672,-24.36 C2.324,-26.264 3.864,-27.468 5.292,-27.972 M37.078,-22.218 C38.506,-21.994 40.123,-21.882 41.929,-21.882 C43.735,-21.882 45.366,-21.98 46.822,-22.176 L46.948,-21.126 C45.884,-20.846 44.722,-20.636 43.462,-20.496 C43.182,-18.76 43.042,-15.904 43.042,-11.928 L43.042,-9.954 C43.042,-5.922 43.182,-3.066 43.462,-1.386 C44.722,-1.246 45.884,-1.036 46.948,-0.756 L46.822,0.294 C45.366,0.098 43.735,0 41.929,0 C40.123,0 38.506,0.112 37.078,0.336 L36.91,-0.756 C37.694,-1.008 38.576,-1.218 39.556,-1.386 C39.78,-4.55 39.906,-7.714 39.934,-10.878 C38.142,-11.046 36.49,-11.13 34.978,-11.13 C33.466,-11.13 31.828,-11.046 30.064,-10.878 C30.064,-6.258 30.19,-3.094 30.442,-1.386 C31.702,-1.246 32.864,-1.036 33.928,-0.756 L33.802,0.294 C32.346,0.098 30.715,0 28.909,0 C27.103,0 25.486,0.112 24.058,0.336 L23.89,-0.756 C24.674,-1.008 25.556,-1.218 26.536,-1.386 C26.788,-3.402 26.914,-6.258 26.914,-9.954 L26.914,-11.928 C26.914,-15.624 26.774,-18.48 26.494,-20.496 C25.514,-20.664 24.632,-20.874 23.848,-21.126 L24.016,-22.218 C25.444,-21.994 27.061,-21.882 28.867,-21.882 C30.673,-21.882 32.304,-21.98 33.76,-22.176 L33.886,-21.126 C32.822,-20.846 31.66,-20.636 30.4,-20.496 C30.176,-18.872 30.064,-16.366 30.064,-12.978 C31.632,-12.754 33.319,-12.642 35.125,-12.642 C36.931,-12.642 38.534,-12.74 39.934,-12.936 C39.906,-15.316 39.78,-17.836 39.556,-20.496 C38.576,-20.664 37.694,-20.874 36.91,-21.126 L37.078,-22.218 M53.502,-10.374 C53.586,-7.882 54.048,-5.936 54.888,-4.536 C55.728,-3.136 57.156,-2.436 59.172,-2.436 C61.188,-2.436 63.05,-3.29 64.758,-4.998 L65.346,-4.41 C63.47,-2.03 61.216,-0.392 58.584,0.504 C55.868,0.504 53.74,-0.357 52.2,-2.079 C50.66,-3.801 49.89,-6.125 49.89,-9.051 C49.89,-11.977 50.8,-14.728 52.62,-17.304 C54.44,-19.88 56.764,-21.574 59.592,-22.386 C61.636,-22.386 63.946,-22.176 66.522,-21.756 L66.48,-20.832 C65.948,-20.832 65.444,-20.734 64.968,-20.538 C64.436,-19.278 64.086,-17.78 63.918,-16.044 L62.868,-16.044 C62.644,-16.996 62.532,-17.976 62.532,-18.984 C61.468,-19.516 60.208,-19.782 58.752,-19.782 C57.296,-19.782 56.092,-19.39 55.14,-18.606 C54.188,-16.87 53.642,-14.798 53.502,-12.39 C54.678,-12.194 55.938,-12.096 57.282,-12.096 C59.606,-12.096 61.006,-12.586 61.482,-13.566 L62.364,-13.44 C62.112,-12.6 61.986,-11.774 61.986,-10.962 C61.986,-10.15 62.084,-9.156 62.28,-7.98 L61.272,-7.812 C60.964,-8.652 60.74,-9.52 60.6,-10.416 C59.48,-10.528 58.367,-10.584 57.261,-10.584 C56.155,-10.584 54.902,-10.514 53.502,-10.374 M80.502,-1.47 C80.866,-4.158 81.048,-8.015 81.048,-13.041 C81.048,-18.067 80.908,-22.092 80.628,-25.116 C77.576,-25.06 75.616,-24.612 74.748,-23.772 C74.552,-23.38 74.454,-22.764 74.454,-21.924 C74.454,-21.084 74.594,-20.51 74.874,-20.202 L74.832,-19.908 C74.132,-19.488 73.432,-18.9 72.732,-18.144 C72.396,-18.172 72.123,-18.312 71.913,-18.564 C71.703,-18.816 71.598,-19.11 71.598,-19.446 C71.598,-20.734 72.333,-22.26 73.803,-24.024 C75.273,-25.788 76.68,-27.006 78.024,-27.678 C80.404,-27.454 83.848,-27.342 88.356,-27.342 C91.212,-27.342 93.382,-26.915 94.866,-26.061 C96.35,-25.207 97.092,-23.576 97.092,-21.168 C97.092,-17.752 95.342,-15.372 91.842,-14.028 L97.722,-1.596 C99.15,-1.4 100.494,-1.106 101.754,-0.714 L101.586,0.336 C99.934,0.112 98.149,0 96.231,0 C94.313,0 92.92,0.056 92.052,0.168 L91.884,-0.42 C92.36,-0.896 92.598,-1.694 92.598,-2.814 C92.598,-5.054 91.282,-8.624 88.65,-13.524 C87.95,-13.664 87.138,-13.734 86.214,-13.734 L86.34,-14.658 L86.844,-14.658 C88.86,-14.658 90.414,-15.155 91.506,-16.149 C92.598,-17.143 93.144,-18.585 93.144,-20.475 C93.144,-22.365 92.654,-23.632 91.674,-24.276 C90.694,-24.92 89.154,-25.242 87.054,-25.242 C86.074,-25.242 85.262,-25.2 84.618,-25.116 C84.394,-22.624 84.282,-18.606 84.282,-13.062 C84.282,-7.518 84.436,-3.696 84.744,-1.596 C86.172,-1.4 87.516,-1.106 88.776,-0.714 L88.608,0.336 C87.124,0.112 85.171,0 82.749,0 C80.327,0 78.08,0.112 76.008,0.336 L75.882,-0.672 C77.478,-1.064 79.018,-1.33 80.502,-1.47 M106.502,-10.374 C106.586,-7.882 107.048,-5.936 107.888,-4.536 C108.728,-3.136 110.156,-2.436 112.172,-2.436 C114.188,-2.436 116.05,-3.29 117.758,-4.998 L118.346,-4.41 C116.47,-2.03 114.216,-0.392 111.584,0.504 C108.868,0.504 106.74,-0.357 105.2,-2.079 C103.66,-3.801 102.89,-6.125 102.89,-9.051 C102.89,-11.977 103.8,-14.728 105.62,-17.304 C107.44,-19.88 109.764,-21.574 112.592,-22.386 C114.636,-22.386 116.946,-22.176 119.522,-21.756 L119.48,-20.832 C118.948,-20.832 118.444,-20.734 117.968,-20.538 C117.436,-19.278 117.086,-17.78 116.918,-16.044 L115.868,-16.044 C115.644,-16.996 115.532,-17.976 115.532,-18.984 C114.468,-19.516 113.208,-19.782 111.752,-19.782 C110.296,-19.782 109.092,-19.39 108.14,-18.606 C107.188,-16.87 106.642,-14.798 106.502,-12.39 C107.678,-12.194 108.938,-12.096 110.282,-12.096 C112.606,-12.096 114.006,-12.586 114.482,-13.566 L115.364,-13.44 C115.112,-12.6 114.986,-11.774 114.986,-10.962 C114.986,-10.15 115.084,-9.156 115.28,-7.98 L114.272,-7.812 C113.964,-8.652 113.74,-9.52 113.6,-10.416 C112.48,-10.528 111.367,-10.584 110.261,-10.584 C109.155,-10.584 107.902,-10.514 106.502,-10.374 M121.512,-21.798 L131.172,-22.092 C134.364,-22.092 136.821,-21.336 138.543,-19.824 C140.265,-18.312 141.126,-16.051 141.126,-13.041 C141.126,-10.031 140.181,-7.224 138.291,-4.62 C136.401,-2.016 134.056,-0.308 131.256,0.504 C130.528,0.504 129.583,0.371 128.421,0.105 C127.259,-0.161 126.3,-0.448 125.544,-0.756 C125.236,-0.392 124.956,0.126 124.704,0.798 L123.822,0.588 C124.354,-1.904 124.62,-5.425 124.62,-9.975 C124.62,-14.525 124.494,-17.934 124.242,-20.202 C123.29,-20.566 122.38,-20.748 121.512,-20.748 L121.512,-21.798 M135.96,-17.598 C135.456,-18.55 134.749,-19.292 133.839,-19.824 C132.929,-20.356 131.935,-20.622 130.857,-20.622 C129.779,-20.622 128.848,-20.468 128.064,-20.16 C127.868,-18.34 127.77,-15.435 127.77,-11.445 C127.77,-7.455 127.826,-4.69 127.938,-3.15 C129.338,-2.506 130.773,-2.184 132.243,-2.184 C133.713,-2.184 134.882,-2.562 135.75,-3.318 C136.814,-5.334 137.346,-7.812 137.346,-10.752 C137.346,-13.496 136.884,-15.778 135.96,-17.598 M166.666,0.168 C165.322,0.056 163.908,0 162.424,0 C160.94,0 159.764,0.056 158.896,0.168 L158.728,-0.42 C159.064,-0.532 159.386,-0.707 159.694,-0.945 C160.002,-1.183 160.156,-1.442 160.156,-1.722 C160.156,-3.766 158.294,-10.598 154.57,-22.218 C154.234,-23.282 153.898,-24.22 153.562,-25.032 C150.286,-25.032 148.186,-24.584 147.262,-23.688 C147.066,-23.296 146.968,-22.68 146.968,-21.84 C146.968,-21 147.108,-20.426 147.388,-20.118 L147.346,-19.824 C146.646,-19.404 145.946,-18.816 145.246,-18.06 C144.91,-18.088 144.637,-18.228 144.427,-18.48 C144.217,-18.732 144.112,-19.026 144.112,-19.362 C144.112,-20.734 144.938,-22.372 146.59,-24.276 C148.242,-26.18 149.782,-27.384 151.21,-27.888 C151.434,-27.888 152.442,-27.797 154.234,-27.615 C156.026,-27.433 157.454,-27.342 158.518,-27.342 L163.432,-27.342 C169.48,-27.342 173.862,-27.482 176.578,-27.762 L176.746,-26.712 C175.514,-26.32 174.17,-25.998 172.714,-25.746 C172.854,-24.766 172.924,-23.877 172.924,-23.079 C172.924,-22.281 172.812,-21.28 172.588,-20.076 C173.652,-15.316 175.332,-9.59 177.628,-2.898 C179.7,-8.134 181.065,-12.103 181.723,-14.805 C182.381,-17.507 182.71,-19.824 182.71,-21.756 C182.71,-24.388 182.01,-26.11 180.61,-26.922 L180.778,-27.51 C181.646,-27.398 183.039,-27.342 184.957,-27.342 C186.875,-27.342 188.66,-27.454 190.312,-27.678 L190.48,-26.628 C189.22,-26.236 187.876,-25.942 186.448,-25.746 C186.588,-24.766 186.658,-23.954 186.658,-23.31 C186.658,-20.958 186.077,-18.256 184.915,-15.204 C183.753,-12.152 181.646,-7.56 178.594,-1.428 C179.07,-1.176 179.714,-0.938 180.526,-0.714 L180.4,0.168 C179.056,0.056 177.642,0 176.158,0 C174.674,0 173.498,0.056 172.63,0.168 L172.462,-0.42 C172.798,-0.532 173.12,-0.707 173.428,-0.945 C173.736,-1.183 173.89,-1.442 173.89,-1.722 C173.89,-3.374 172.896,-7.56 170.908,-14.28 L170.74,-14.28 C169.424,-10.892 167.464,-6.608 164.86,-1.428 C165.336,-1.176 165.98,-0.938 166.792,-0.714 L166.666,0.168 M163.894,-2.898 C165.966,-8.134 167.331,-12.103 167.989,-14.805 C168.647,-17.507 168.976,-19.817 168.976,-21.735 C168.976,-23.653 168.626,-24.899 167.926,-25.473 C167.226,-26.047 165.791,-26.334 163.621,-26.334 C161.451,-26.334 159.54,-26.082 157.888,-25.578 C158.14,-23.282 158.861,-19.88 160.051,-15.372 C161.241,-10.864 162.522,-6.706 163.894,-2.898 M200.046,0.504 C197.274,0.504 195.034,-0.371 193.326,-2.121 C191.618,-3.871 190.764,-6.216 190.764,-9.156 C190.764,-12.096 191.66,-14.854 193.452,-17.43 C195.244,-20.006 197.582,-21.658 200.466,-22.386 C203.35,-22.386 205.548,-21.567 207.06,-19.929 C208.572,-18.291 209.328,-15.96 209.328,-12.936 C209.328,-9.912 208.509,-7.182 206.871,-4.746 C205.233,-2.31 202.958,-0.56 200.046,0.504 M199.332,-19.824 C198.072,-19.824 196.98,-19.474 196.056,-18.774 C194.908,-16.814 194.334,-14.35 194.334,-11.382 C194.334,-7.966 195.286,-5.348 197.19,-3.528 C198.198,-2.548 199.388,-2.058 200.76,-2.058 C202.132,-2.058 203.238,-2.422 204.078,-3.15 C205.198,-5.11 205.758,-7.504 205.758,-10.332 C205.758,-13.16 205.254,-15.449 204.246,-17.199 C203.238,-18.949 201.6,-19.824 199.332,-19.824 M222.046,0.504 C219.274,0.504 217.034,-0.371 215.326,-2.121 C213.618,-3.871 212.764,-6.216 212.764,-9.156 C212.764,-12.096 213.66,-14.854 215.452,-17.43 C217.244,-20.006 219.582,-21.658 222.466,-22.386 C225.35,-22.386 227.548,-21.567 229.06,-19.929 C230.572,-18.291 231.328,-15.96 231.328,-12.936 C231.328,-9.912 230.509,-7.182 228.871,-4.746 C227.233,-2.31 224.958,-0.56 222.046,0.504 M221.332,-19.824 C220.072,-19.824 218.98,-19.474 218.056,-18.774 C216.908,-16.814 216.334,-14.35 216.334,-11.382 C216.334,-7.966 217.286,-5.348 219.19,-3.528 C220.198,-2.548 221.388,-2.058 222.76,-2.058 C224.132,-2.058 225.238,-2.422 226.078,-3.15 C227.198,-5.11 227.758,-7.504 227.758,-10.332 C227.758,-13.16 227.254,-15.449 226.246,-17.199 C225.238,-18.949 223.6,-19.824 221.332,-19.824 M234.512,-21.798 L244.172,-22.092 C247.364,-22.092 249.821,-21.336 251.543,-19.824 C253.265,-18.312 254.126,-16.051 254.126,-13.041 C254.126,-10.031 253.181,-7.224 251.291,-4.62 C249.401,-2.016 247.056,-0.308 244.256,0.504 C243.528,0.504 242.583,0.371 241.421,0.105 C240.259,-0.161 239.3,-0.448 238.544,-0.756 C238.236,-0.392 237.956,0.126 237.704,0.798 L236.822,0.588 C237.354,-1.904 237.62,-5.425 237.62,-9.975 C237.62,-14.525 237.494,-17.934 237.242,-20.202 C236.29,-20.566 235.38,-20.748 234.512,-20.748 L234.512,-21.798 M248.96,-17.598 C248.456,-18.55 247.749,-19.292 246.839,-19.824 C245.929,-20.356 244.935,-20.622 243.857,-20.622 C242.779,-20.622 241.848,-20.468 241.064,-20.16 C240.868,-18.34 240.77,-15.435 240.77,-11.445 C240.77,-7.455 240.826,-4.69 240.938,-3.15 C242.338,-2.506 243.773,-2.184 245.243,-2.184 C246.713,-2.184 247.882,-2.562 248.75,-3.318 C249.814,-5.334 250.346,-7.812 250.346,-10.752 C250.346,-13.496 249.884,-15.778 248.96,-17.598 M260.662,-3.192 C261.95,-2.66 263.224,-2.394 264.484,-2.394 C265.744,-2.394 266.752,-2.688 267.508,-3.276 C268.264,-3.864 268.642,-4.704 268.642,-5.796 C268.642,-6.916 267.06,-8.302 263.896,-9.954 C262.692,-10.57 261.593,-11.319 260.599,-12.201 C259.605,-13.083 259.108,-13.958 259.108,-14.826 C259.108,-16.31 259.892,-17.808 261.46,-19.32 C263.028,-20.832 264.638,-21.854 266.29,-22.386 C268.362,-22.386 270.238,-22.176 271.918,-21.756 L271.918,-21 C270.742,-19.824 270.084,-18.214 269.944,-16.17 L268.894,-16.17 C268.894,-16.954 268.824,-17.934 268.684,-19.11 C267.704,-19.558 266.654,-19.782 265.534,-19.782 C264.414,-19.782 263.483,-19.537 262.741,-19.047 C261.999,-18.557 261.628,-17.85 261.628,-16.926 C261.628,-16.282 262.125,-15.582 263.119,-14.826 C264.113,-14.07 265.198,-13.398 266.374,-12.81 C267.55,-12.222 268.635,-11.494 269.629,-10.626 C270.623,-9.758 271.12,-8.89 271.12,-8.022 C271.12,-6.342 270.378,-4.669 268.894,-3.003 C267.41,-1.337 265.772,-0.168 263.98,0.504 C262.216,0.504 260.564,0.294 259.024,-0.126 C258.576,0.07 258.114,0.392 257.638,0.84 L256.882,0.294 C258.45,-1.414 259.318,-3.528 259.486,-6.048 L260.536,-6.048 C260.536,-5.068 260.578,-4.116 260.662,-3.192 " vector-effect="none"/>
  </g>
  <g stroke-linejoin="bevel" transform="matrix(0.3999,0,0,0.3999,1810.37,1326.79)" font-weight="400" font-style="normal" fill="none" stroke="#000000" stroke-width="1" stroke-linecap="square" font-size="32.5" font-family="MS Shell Dlg 2" stroke-opacity="1"/>
  <g stroke-linejoin="bevel" transform="matrix(0.999751,0,0,0.999751,0,0)" font-weight="400" font-style="normal" fill="none" stroke="#000000" stroke-width="1" stroke-linecap="square" font-size="32.5" font-family="MS Shell Dlg 2" stroke-opacity="1"/>
  <g stroke-linejoin="bevel" transform="matrix(11.8081,0,0,11.8081,0,0)" font-weight="400" font-style="normal" fill="none" stroke="#000000" stroke-width="1" stroke-linecap="square" font-size="32.5" font-family="MS Shell Dlg 2" stroke-opacity="1"/>
  <g stroke-linejoin="bevel" transform="matrix(11.8081,0,0,11.8081,0,0)" font-weight="400" font-style="normal" fill="none" stroke="#000000" stroke-width="1" stroke-linecap="square" font-size="32.5" font-family="MS Shell Dlg 2" stroke-opacity="1"/>
  <g stroke-linejoin="bevel" transform="matrix(11.8081,0,0,11.8081,0,0)" font-weight="400" font-style="normal" fill="none" stroke="#000000" stroke-width="1" stroke-linecap="square" font-size="32.5" font-family="MS Shell Dlg 2" stroke-opacity="1"/>
  <g stroke-linejoin="bevel" transform="matrix(1,0,0,1,0,0)" font-weight="400" font-style="normal" fill="none" stroke="#000000" stroke-width="1" stroke-linecap="square" font-size="32.5" font-family="MS Shell Dlg 2" stroke-opacity="1"/>
  <g stroke-linejoin="bevel" transform="matrix(11.8081,0,0,11.8081,0,0)" font-weight="400" font-style="normal" fill="none" stroke="#000000" stroke-width="1" stroke-linecap="square" font-size="32.5" font-family="MS Shell Dlg 2" stroke-opacity="1"/>
  <g stroke-linejoin="bevel" transform="matrix(11.8081,0,0,11.8081,0,0)" font-weight="400" font-style="normal" fill="none" stroke="#000000" stroke-width="1" stroke-linecap="square" font-size="32.5" font-family="MS Shell Dlg 2" stroke-opacity="1"/>
  <g stroke-linejoin="bevel" transform="matrix(1,0,0,1,0,0)" font-weight="400" font-style="normal" fill="none" stroke="#000000" stroke-width="1" stroke-linecap="square" font-size="32.5" font-family="MS Shell Dlg 2" stroke-opacity="1"/>
 </g>
</svg>
