<?xml version='1.0' encoding='UTF-8' standalone='no'?>
<svg height="209.973mm" width="296.926mm" viewBox="0 0 3507 2480" xmlns:xlink="http://www.w3.org/1999/xlink" xmlns:inkscape="http://www.inkscape.org/namespaces/inkscape" xmlns="http://www.w3.org/2000/svg" version="1.2" baseProfile="tiny">
 <defs/>
 <g stroke-linejoin="bevel" inkscape:label="Page" inkscape:groupmode="layer" fill="none" stroke="black" fill-rule="evenodd" stroke-width="1" stroke-linecap="square" id="Page">
  <g stroke-linejoin="bevel" transform="matrix(1,0,0,1,0,0)" font-weight="400" font-style="normal" fill="none" stroke="#000000" stroke-width="1" stroke-linecap="square" font-size="32.5" font-family="MS Shell Dlg 2" stroke-opacity="1"/>
  <g stroke-linejoin="bevel" transform="matrix(1,0,0,1,0,0)" font-weight="400" font-style="normal" fill="none" stroke="#000000" stroke-width="1" stroke-linecap="square" font-size="32.5" font-family="MS Shell Dlg 2" stroke-opacity="1"/>
  <g stroke-linejoin="bevel" transform="matrix(11.8081,0,0,11.8081,0,0)" font-weight="400" font-style="normal" fill="none" stroke="#000000" stroke-width="1" stroke-linecap="square" font-size="32.5" font-family="MS Shell Dlg 2" stroke-opacity="1"/>
  <g stroke-linejoin="bevel" transform="matrix(0.999751,0,0,0.999751,0,0)" font-weight="400" font-style="normal" fill="none" stroke="#000000" stroke-width="1" stroke-linecap="square" font-size="32.5" font-family="MS Shell Dlg 2" stroke-opacity="1"/>
  <g transform="matrix(0.999751,0,0,0.999751,0,0)" font-weight="400" font-style="normal" fill="#ffffff" stroke="none" fill-opacity="1" font-size="32.5" font-family="MS Shell Dlg 2">
   <path fill-rule="evenodd" d="M-2,-2 L3510,-2 L3510,2483 L-2,2483 L-2,-2" vector-effect="none"/>
  </g>
  <g stroke-linejoin="bevel" transform="matrix(0.999751,0,0,0.999751,0,0)" font-weight="400" font-style="normal" fill="none" stroke="#000000" stroke-width="1" stroke-linecap="square" font-size="32.5" font-family="MS Shell Dlg 2" stroke-opacity="1"/>
  <g stroke-linejoin="bevel" transform="matrix(11.8081,0,0,11.8081,0,0)" font-weight="400" font-style="normal" fill="none" stroke="#000000" stroke-width="1" stroke-linecap="square" font-size="32.5" font-family="MS Shell Dlg 2" stroke-opacity="1"/>
  <g stroke-linejoin="bevel" transform="matrix(11.8081,0,0,11.8081,0,0)" font-weight="400" font-style="normal" fill="none" stroke="#000000" stroke-width="1" stroke-linecap="square" font-size="32.5" font-family="MS Shell Dlg 2" stroke-opacity="1"/>
  <g stroke-linejoin="bevel" transform="matrix(1,0,0,1,0,0)" font-weight="400" font-style="normal" fill="none" stroke="#000000" stroke-width="1" stroke-linecap="square" font-size="32.5" font-family="MS Shell Dlg 2" stroke-opacity="1"/>
 </g>
 <defs/>
 <g stroke-linejoin="bevel" inkscape:label="Map 1: Background" inkscape:groupmode="layer" fill="none" stroke="black" fill-rule="evenodd" stroke-width="1" stroke-linecap="square" id="Map 1: Background">
  <g stroke-linejoin="bevel" transform="matrix(1,0,0,1,0,0)" font-weight="400" font-style="normal" fill="none" stroke="#000000" stroke-width="1" stroke-linecap="square" font-size="32.5" font-family="MS Shell Dlg 2" stroke-opacity="1"/>
  <g stroke-linejoin="bevel" transform="matrix(1,0,0,1,0,0)" font-weight="400" font-style="normal" fill="none" stroke="#000000" stroke-width="1" stroke-linecap="square" font-size="32.5" font-family="MS Shell Dlg 2" stroke-opacity="1"/>
  <g stroke-linejoin="bevel" transform="matrix(11.8081,0,0,11.8081,0,0)" font-weight="400" font-style="normal" fill="none" stroke="#000000" stroke-width="1" stroke-linecap="square" font-size="32.5" font-family="MS Shell Dlg 2" stroke-opacity="1"/>
  <g transform="matrix(11.8081,0,0,11.8081,0,0)" font-weight="400" font-style="normal" fill="#ffffff" stroke="none" fill-opacity="1" font-size="32.5" font-family="MS Shell Dlg 2">
   <path fill-rule="evenodd" d="M0,0 L297,0 L297,210 L0,210 L0,0" vector-effect="none"/>
  </g>
  <g stroke-linejoin="bevel" transform="matrix(11.8081,0,0,11.8081,0,0)" font-weight="400" font-style="normal" fill="none" stroke="#000000" stroke-width="1" stroke-linecap="square" font-size="32.5" font-family="MS Shell Dlg 2" stroke-opacity="1"/>
  <g stroke-linejoin="bevel" transform="matrix(11.8081,0,0,11.8081,0,0)" font-weight="400" font-style="normal" fill="none" stroke="#000000" stroke-width="1" stroke-linecap="square" font-size="32.5" font-family="MS Shell Dlg 2" stroke-opacity="1"/>
  <g stroke-linejoin="bevel" transform="matrix(11.8081,0,0,11.8081,0,0)" font-weight="400" font-style="normal" fill="none" stroke="#000000" stroke-width="1" stroke-linecap="square" font-size="32.5" font-family="MS Shell Dlg 2" stroke-opacity="1"/>
  <g stroke-linejoin="bevel" transform="matrix(11.8081,0,0,11.8081,0,0)" font-weight="400" font-style="normal" fill="none" stroke="#000000" stroke-width="1" stroke-linecap="square" font-size="32.5" font-family="MS Shell Dlg 2" stroke-opacity="1"/>
  <g stroke-linejoin="bevel" transform="matrix(1,0,0,1,0,0)" font-weight="400" font-style="normal" fill="none" stroke="#000000" stroke-width="1" stroke-linecap="square" font-size="32.5" font-family="MS Shell Dlg 2" stroke-opacity="1"/>
  <g stroke-linejoin="bevel" transform="matrix(11.8081,0,0,11.8081,0,0)" font-weight="400" font-style="normal" fill="none" stroke="#000000" stroke-width="1" stroke-linecap="square" font-size="32.5" font-family="MS Shell Dlg 2" stroke-opacity="1"/>
  <g stroke-linejoin="bevel" transform="matrix(11.8081,0,0,11.8081,0,0)" font-weight="400" font-style="normal" fill="none" stroke="#000000" stroke-width="1" stroke-linecap="square" font-size="32.5" font-family="MS Shell Dlg 2" stroke-opacity="1"/>
  <g stroke-linejoin="bevel" transform="matrix(1,0,0,1,0,0)" font-weight="400" font-style="normal" fill="none" stroke="#000000" stroke-width="1" stroke-linecap="square" font-size="32.5" font-family="MS Shell Dlg 2" stroke-opacity="1"/>
 </g>
 <defs/>
 <g stroke-linejoin="bevel" inkscape:label="Map 1: TheRedWoodsRivers" inkscape:groupmode="layer" fill="none" stroke="black" fill-rule="evenodd" stroke-width="1" stroke-linecap="square" id="Map 1: TheRedWoodsRivers">
  <g stroke-linejoin="bevel" transform="matrix(1,0,0,1,0,0)" font-weight="400" font-style="normal" fill="none" stroke="#000000" stroke-width="1" stroke-linecap="square" font-size="32.5" font-family="MS Shell Dlg 2" stroke-opacity="1"/>
  <g stroke-linejoin="bevel" transform="matrix(1,0,0,1,0,0)" font-weight="400" font-style="normal" fill="none" stroke="#000000" stroke-width="1" stroke-linecap="square" font-size="32.5" font-family="MS Shell Dlg 2" stroke-opacity="1"/>
  <g stroke-linejoin="bevel" transform="matrix(11.8081,0,0,11.8081,0,0)" font-weight="400" font-style="normal" fill="none" stroke="#000000" stroke-width="1" stroke-linecap="square" font-size="32.5" font-family="MS Shell Dlg 2" stroke-opacity="1"/>
  <g stroke-linejoin="bevel" transform="matrix(11.8081,0,0,11.8081,0,0)" font-weight="400" font-style="normal" fill="none" stroke="#000000" stroke-width="1" stroke-linecap="square" font-size="32.5" font-family="MS Shell Dlg 2" stroke-opacity="1"/>
  <g transform="matrix(0.999751,0,0,0.999751,0,0)" font-weight="400" font-style="normal" fill="#000000" stroke="none" fill-opacity="0" font-size="32.5" font-family="MS Shell Dlg 2">
   <rect height="2480" x="0" width="3508" y="0"/>
  </g>
  <g stroke-linejoin="bevel" transform="matrix(0.999751,0,0,0.999751,0,0)" font-weight="400" font-style="normal" fill="none" stroke="#000000" stroke-width="1" stroke-linecap="square" font-size="32.5" font-family="MS Shell Dlg 2" stroke-opacity="1"/>
  <g stroke-linejoin="bevel" transform="matrix(0.999751,0,0,0.999751,0,0)" font-weight="400" font-style="normal" fill="none" stroke="#1f78b4" stroke-width="3.07087" stroke-linecap="square" font-size="32.5" font-family="MS Shell Dlg 2" stroke-opacity="1">
   <path fill-rule="evenodd" d="M1807.37,711.195 L1807.4,711.18 L1807.7,711.575 L1808.64,713.884 L1809.46,716.256 L1810.27,718.627 L1811.07,720.999 L1811.86,723.371 L1812.68,725.743 L1813.51,728.115 L1814.36,730.471 L1815.21,732.828 L1816.12,735.168 L1817.03,737.492 L1817.98,739.817 L1818.99,742.11 L1820.09,744.355 L1821.29,746.522 L1822.54,748.672 L1823.83,750.807 L1825.19,752.894 L1826.58,754.95 L1828.09,756.958 L1829.64,758.919 L1831.23,760.848 L1832.86,762.746 L1834.54,764.612 L1836.25,766.446 L1837.97,768.265 L1839.72,770.051 L1841.51,771.807 L1843.33,773.546 L1845.16,775.254 L1847.01,776.946 L1848.9,778.606 L1850.79,780.235 L1852.75,781.8 L1854.81,783.224 L1856.96,784.489 L1859.16,785.58 L1861.4,786.529 L1863.7,787.382 L1866.05,788.157 L1868.44,788.901 L1870.81,789.691 L1873.11,790.593 L1875.24,791.62 L1877.14,792.854 L1878.91,794.23 L1880.57,795.779 L1882.09,797.55 L1883.46,799.527 L1884.62,801.709 L1885.63,803.986 L1886.55,806.311 L1887.4,808.651 L1888.24,811.023 L1889.06,813.379 L1889.9,815.751 L1890.75,818.107 L1891.65,820.448 L1892.62,822.74 L1893.66,825.017 L1894.8,827.215 L1896.07,829.334 L1897.44,831.39 L1898.93,833.351 L1900.49,835.233 L1902.19,837.051 L1903.97,838.775 L1905.85,840.404 L1907.82,841.953 L1909.82,843.455 L1911.86,844.926 L1913.9,846.381 L1915.94,847.836 L1917.95,849.338 L1919.91,850.888 L1921.78,852.516 L1923.52,854.256 L1925.07,856.106 L1926.35,858.082 L1927.39,860.122 L1928.21,862.241 L1928.83,864.424 L1929.23,866.701 L1929.38,869.073 L1929.31,871.492 L1929.05,873.959 L1928.69,876.41 L1928.28,878.892 L1927.9,881.359 L1927.61,883.842 L1927.57,886.293 L1927.8,888.681 L1928.18,891.021 L1928.7,893.33 L1929.38,895.607 L1930.22,897.852 L1931.23,900.066 L1932.37,902.248 L1933.65,904.383 L1935.03,906.47 L1936.44,908.542 L1937.8,910.645 L1938.94,912.827 L1939.3,914.946 L1939.01,916.575 L1938.57,917.872 L1938.08,919.026 L1937.54,920.133 L1936.91,921.256 L1936.14,922.441 L1934.98,923.707 L1933.26,924.924 L1931.04,925.825 L1928.66,926.537 L1926.25,927.217 L1923.88,928.008 L1921.65,929.004 L1919.55,930.127 L1917.57,931.344 L1915.67,932.625 L1913.82,933.953 L1912.01,935.329 L1910.17,936.768 L1908.34,938.27 L1906.49,939.836 L1904.67,941.559 L1902.88,943.299 L1901.06,945.007 L1899.23,946.572 L1897.33,947.916 L1895.42,949.118 L1893.52,950.225 L1891.58,951.237 L1889.61,952.186 L1887.61,953.055 L1885.5,953.846 L1883.32,954.542 L1881.04,955.111 L1878.64,955.491 L1876.16,955.633 L1873.64,955.68 L1871.15,955.696 L1868.63,955.728 L1866.13,955.791 L1863.67,955.965 L1861.25,956.266 L1858.91,956.756 L1856.66,957.388 L1854.48,958.116 L1852.34,958.922 L1850.24,959.823 L1848.18,960.835 L1846.18,961.958 L1844.22,963.223 L1842.33,964.678 L1840.55,966.323 L1838.86,968.062 L1837.26,969.928 L1835.74,971.905 L1834.33,973.944 L1833,976.048 L1831.76,978.198 L1830.57,980.396 L1829.45,982.642 L1828.37,984.903 L1827.36,987.196 L1826.39,989.505 L1825.45,991.813 L1824.58,994.169 L1823.79,996.541 L1823.07,998.929 L1822.43,1001.33 L1821.84,1003.75 L1821.29,1006.19 L1820.84,1008.64 L1820.46,1011.11 L1820.15,1013.59 L1819.86,1016.09 L1819.61,1018.57 L1819.37,1021.07 L1819.1,1023.55 L1818.82,1026.05 L1818.49,1028.53 L1818.09,1031 L1817.62,1033.43 L1817.06,1035.85 L1816.34,1038.21 L1815.5,1040.52 L1814.57,1042.76 L1813.52,1044.98 L1812.37,1047.13 L1811.12,1049.25 L1809.76,1051.3 L1808.3,1053.29 L1806.74,1055.24 L1805.09,1057.12 L1803.4,1058.97 L1801.68,1060.77 L1799.92,1062.58 L1798.18,1064.38 L1796.44,1066.2 L1794.77,1068.05 L1793.16,1069.95 L1791.64,1071.91 L1790.31,1073.96 L1789.2,1076.08 L1788.46,1078.28 L1788.03,1080.48 L1787.87,1082.72 L1788.03,1085 L1788.63,1087.31 L1789.53,1089.57 L1790.72,1091.74 L1792.11,1093.81 L1793.66,1095.77 L1795.32,1097.65 L1797.06,1099.45 L1798.88,1101.19 L1800.75,1102.87 L1802.66,1104.48 L1804.6,1106.06 L1806.6,1107.6 L1808.6,1109.1 L1810.64,1110.55 L1812.72,1111.99 L1814.8,1113.38 L1816.91,1114.74 L1819.04,1116.07 L1821.21,1117.32 L1823.47,1118.43 L1825.76,1119.42 L1828.12,1120.33 L1830.49,1121.13 L1832.89,1121.83 L1835.33,1122.46 L1837.78,1123 L1840.25,1123.47 L1842.73,1123.87 L1845.23,1124.22 L1847.71,1124.5 L1850.21,1124.74 L1852.72,1124.94 L1855.22,1125.09 L1857.74,1125.21 L1860.23,1125.29 L1862.75,1125.29 L1865.25,1125.18 L1867.73,1124.86 L1870.2,1124.44 L1872.66,1123.9 L1875.08,1123.28 L1877.52,1122.62 L1879.92,1121.92 L1882.33,1121.2 L1884.73,1120.47 L1887.15,1119.77 L1889.57,1119.09 L1892,1118.49 L1894.45,1117.97 L1896.92,1117.56 L1899.42,1117.32 L1901.92,1117.31 L1904.4,1117.54 L1906.84,1118.08 L1909.21,1118.84 L1911.47,1119.91 L1913.59,1121.24 L1915.6,1122.75 L1917.52,1124.36 L1919.37,1126.05 L1921.23,1127.74 L1923.08,1129.43 L1924.99,1131.05 L1926.98,1132.56 L1929.08,1133.92 L1931.3,1135.06 L1933.65,1135.92 L1936.14,1136.27 L1938.65,1136.27 L1941.15,1136.04 L1943.63,1135.66 L1946.1,1135.22 L1948.57,1134.76 L1951.03,1134.37 L1953.53,1134.08 L1956.05,1133.99 L1958.54,1134.23 L1960.96,1134.87 L1963.16,1136.06 L1965.03,1137.72 L1966.58,1139.68 L1967.84,1141.85 L1968.9,1144.11 L1969.82,1146.43 L1970.62,1148.8 L1971.37,1151.19 L1972.05,1153.6 L1972.71,1156.02 L1973.36,1158.43 L1974.01,1160.85 L1974.67,1163.27 L1975.35,1165.68 L1976.08,1168.08 L1976.87,1170.45 L1977.73,1172.81 L1978.67,1175.13 L1979.72,1177.39 L1980.87,1179.61 L1982.06,1181.82 L1983.32,1183.99 L1984.57,1186.16 L1985.85,1188.32 L1987.15,1190.46 L1988.48,1192.59 L1989.84,1194.69 L1991.23,1196.78 L1992.67,1198.84 L1994.12,1200.86 L1995.64,1202.87 L1997.21,1204.83 L1998.84,1206.74 L2000.51,1208.59 L2002.28,1210.38 L2004.13,1212.07 L2006.08,1213.65 L2008.13,1215.08 L2010.32,1216.31 L2012.62,1217.28 L2015.04,1217.91 L2017.51,1218.16 L2019.99,1218.07 L2022.46,1217.7 L2024.88,1217.12 L2027.25,1216.37 L2029.59,1215.5 L2031.88,1214.54 L2034.15,1213.5 L2036.39,1212.39 L2038.62,1211.25 L2040.82,1210.06 L2043.02,1208.86 L2045.21,1207.65 L2047.4,1206.41 L2049.48,1205.04 L2051.52,1203.6 L2053.55,1202.13 L2055.53,1200.64 L2057.5,1199.12 L2059.43,1197.54 L2061.27,1195.83 L2063.05,1194.06 L2064.79,1192.26 L2066.5,1190.42 L2068.19,1188.57 L2069.87,1186.71 L2071.54,1184.86 L2073.24,1183.01 L2074.94,1181.21 L2076.68,1179.43 L2078.49,1177.76 L2080.4,1176.27 L2082.42,1175.34 L2084.07,1175.42 L2085.51,1176.49 L2085.78,1178.96 L2085.65,1181.44 L2085.41,1183.91 L2085.11,1186.38 L2084.81,1188.84 L2084.49,1191.31 L2084.19,1193.78 L2083.93,1196.26 L2083.7,1198.74 L2083.55,1201.24 L2083.5,1203.74 L2083.58,1206.24 L2083.86,1208.72 L2084.35,1211.19 L2085.02,1213.59 L2085.85,1215.96 L2086.76,1218.3 L2087.74,1220.61 L2088.76,1222.89 L2089.86,1225.15 L2090.98,1227.38 L2092.16,1229.59 L2093.37,1231.81 L2094.58,1233.99 L2095.85,1236.16 L2097.11,1238.32 L2098.41,1240.47 L2099.69,1242.62 L2100.99,1244.77 L2102.28,1246.91 L2103.58,1249.06 L2104.92,1251.18 L2105.7,1252.38" vector-effect="none"/>
   <path fill-rule="evenodd" d="M2142.07,421.738 L2142.07,421.722 L2143.75,421.453 L2146.2,421.722 L2148.66,422.149 L2151.13,422.608 L2153.58,423.082 L2156.05,423.541 L2158.53,423.968 L2161.01,424.347 L2163.51,424.663 L2166.01,424.869 L2168.51,424.948 L2171.02,424.822 L2173.51,424.49 L2175.97,423.999 L2178.39,423.351 L2180.78,422.56 L2183.1,421.643 L2185.41,420.631 L2187.67,419.54 L2189.9,418.401 L2192.12,417.2 L2194.3,415.982 L2196.48,414.749 L2198.68,413.499 L2200.86,412.282 L2203.08,411.096 L2205.27,409.862 L2207.46,408.645 L2209.65,407.427 L2211.84,406.178 L2213.97,404.881 L2216.07,403.506 L2218.1,402.003 L2220,400.375 L2221.74,398.572 L2223.29,396.595 L2224.47,394.397 L2225.12,391.994 L2225.36,389.495 L2225.37,386.997 L2225.28,384.498 L2225.2,381.984 L2225.2,379.486 L2225.42,376.987 L2225.96,374.536 L2226.94,372.243 L2228.42,370.235 L2230.31,368.59 L2232.43,367.231 L2234.65,366.076 L2236.95,365.08 L2239.29,364.179 L2241.66,363.325 L2244.03,362.518 L2246.4,361.696 L2248.78,360.858 L2251.13,359.988 L2253.46,359.024 L2255.72,357.964 L2257.93,356.778 L2260.03,355.402 L2260.55,354.998" vector-effect="none"/>
   <path fill-rule="evenodd" d="M2306.34,628.92 L2306.35,628.904 L2306.43,628.904 L2306.57,628.889 L2306.78,628.857 L2307.05,628.825 L2307.43,628.762 L2307.92,628.651 L2308.44,628.557 L2309.02,628.414 L2309.67,628.256 L2310.38,628.066 L2311.32,627.987 L2312.83,629.932 L2314.04,632.067 L2315.19,634.218 L2316.33,636.337 L2317.48,638.424 L2318.65,640.48 L2319.86,642.504 L2321.06,644.48 L2322.31,646.441 L2323.57,648.37 L2324.85,650.252 L2326.18,652.102 L2327.56,653.873 L2328.98,655.565 L2330.45,657.21 L2331.98,658.791 L2333.57,660.309 L2335.26,661.748 L2337.04,663.14 L2338.89,664.484 L2340.81,665.78 L2342.77,667.045 L2344.78,668.295 L2346.83,669.512 L2348.92,670.714 L2351.04,671.9 L2353.19,673.102 L2355.36,674.288 L2357.55,675.442 L2359.77,676.565 L2362,677.672 L2364.26,678.715 L2366.57,679.68 L2368.92,680.55 L2371.31,681.34 L2373.71,682.068 L2376.13,682.716 L2378.57,683.317 L2381.04,683.855 L2383.49,684.345 L2385.97,684.788 L2388.44,685.183 L2390.94,685.531 L2393.42,685.831 L2395.9,686.132 L2398.38,686.464 L2400.85,686.78 L2403.32,687.096 L2405.78,687.413 L2408.23,687.729 L2410.69,688.013 L2413.14,688.282 L2415.59,688.535 L2418.04,688.741 L2420.47,688.899 L2422.92,689.026 L2425.36,689.089 L2427.8,689.089 L2430.23,689.01 L2432.67,688.867 L2435.08,688.614 L2437.5,688.251 L2439.88,687.76 L2442.22,687.175 L2444.48,686.48 L2446.69,685.705 L2448.89,684.851 L2451.02,683.918 L2453.14,682.922 L2455.2,681.862 L2457.24,680.739 L2459.23,679.554 L2461.19,678.304 L2463.12,676.992 L2465,675.616 L2466.84,674.177 L2468.64,672.659 L2470.38,671.062 L2472.06,669.386 L2473.68,667.615 L2475.23,665.78 L2476.75,663.899 L2478.11,661.89 L2479.31,659.787 L2480.36,657.621 L2481.29,655.391 L2482.13,653.114 L2482.89,650.821 L2483.57,648.497 L2484.2,646.141 L2484.8,643.769 L2485.37,641.397 L2485.96,639.009 L2486.57,636.605 L2487.27,634.218 L2488.01,631.83 L2488.96,629.569 L2490.21,627.687 L2491.57,626.216 L2492.91,625.046 L2494.21,624.05 L2495.47,623.117 L2496.72,622.215 L2497.97,621.298 L2499.24,620.318 L2500.54,619.211 L2501.86,617.899 L2503.16,616.238 L2504.43,614.388 L2505.74,612.49 L2507.11,610.561 L2508.65,608.664 L2510.43,606.924 L2512.43,605.422 L2514.51,604.141 L2516.63,602.987 L2518.72,601.927 L2520.79,600.915 L2522.85,599.919 L2524.86,598.907 L2526.85,597.848 L2528.76,596.725 L2530.69,595.523 L2532.57,594.195 L2534.41,592.661 L2536.11,590.922 L2537.74,589.087 L2539.29,587.142 L2540.75,585.134 L2542.11,583.047 L2543.4,580.896 L2544.64,578.714 L2545.81,576.516 L2546.96,574.302 L2548.13,572.104 L2549.24,569.874 L2550.28,567.629 L2551.23,565.336 L2552.12,563.027 L2552.94,560.703 L2553.73,558.363 L2554.47,555.991 L2555.18,553.619 L2555.83,551.231 L2556.43,548.827 L2556.97,546.408 L2557.45,543.973 L2557.86,541.522 L2558.13,539.055 L2558.33,536.572 L2558.49,534.09 L2558.6,531.623 L2558.62,529.156 L2558.55,526.689 L2558.38,524.254 L2558.03,521.834 L2557.51,519.447 L2556.78,517.138 L2555.77,514.956 L2554.5,512.884 L2553,510.971 L2551.28,509.216 L2549.33,507.634 L2547.25,506.259 L2545.08,504.978 L2542.87,503.792 L2540.62,502.685 L2538.34,501.625 L2536.04,500.629 L2533.73,499.665 L2531.39,498.732 L2529.05,497.83 L2527.76,497.364" vector-effect="none"/>
   <path fill-rule="evenodd" d="M2292.29,523.052 L2292.28,523.052 L2292.21,521.502 L2292.75,519.115 L2293.46,516.727 L2294.22,514.339 L2295.01,511.967 L2295.8,509.595 L2296.59,507.207 L2297.35,504.82 L2298.1,502.432 L2298.81,500.028 L2299.46,497.609 L2300.06,495.174 L2300.56,492.723 L2300.94,490.256 L2301.23,487.773 L2301.34,485.275 L2301.24,482.792 L2300.91,480.309 L2300.48,477.843 L2299.95,475.392 L2299.36,472.956 L2298.71,470.521 L2298.03,468.118 L2297.34,465.714 L2296.63,463.31 L2295.93,460.891 L2295.25,458.487 L2294.62,456.052 L2294.13,453.617 L2294.13,451.245 L2295.01,450.454 L2295.85,450.059 L2297.01,449.759 L2298.84,449.948 L2300.96,450.913 L2303.05,452.162 L2305.17,453.475 L2307.35,454.692 L2309.69,455.546 L2312.08,455.957 L2314.45,456.021 L2316.79,455.783 L2319.11,455.135 L2321.28,453.902 L2323.33,452.463 L2325.33,450.976 L2327.34,449.537 L2329.41,448.256 L2331.56,447.07 L2333.79,446.058 L2336.11,445.236 L2338.53,444.588 L2340.98,444.098 L2343.46,443.718 L2345.96,443.402 L2348.45,443.086 L2350.93,442.738 L2353.39,442.295 L2355.81,441.742 L2358.2,440.998 L2360.49,440.081 L2361.81,439.385" vector-effect="none"/>
   <path fill-rule="evenodd" d="M2351.04,544.099 L2351.05,544.083 L2351.09,544.052 L2351.97,544.162 L2354.04,545.206 L2356.05,546.629 L2358,548.163 L2359.94,549.744 L2361.89,551.326 L2363.86,552.86 L2365.89,554.346 L2368.01,555.674 L2370.16,556.939 L2372.34,558.141 L2374.55,559.264 L2376.85,560.244 L2377.41,560.416" vector-effect="none"/>
   <path fill-rule="evenodd" d="M2421.76,535.181 L2422.4,533.568 L2423.15,531.196 L2423.75,528.792 L2424.25,526.357 L2424.59,523.89 L2424.77,521.407 L2424.85,518.909 L2424.87,516.395 L2424.84,513.896 L2424.81,511.382 L2424.79,508.884 L2424.85,506.385 L2425.04,503.902 L2425.44,501.483 L2426.07,499.127 L2427,496.897 L2428.4,494.984 L2430.33,493.529 L2432.65,492.596 L2435.08,492.011 L2437.54,491.568 L2439.96,491.094 L2442.25,490.398 L2444.3,489.386 L2446.09,488.089 L2447.56,486.382 L2448.37,484.073 L2448.62,481.575 L2448.7,479.092 L2448.75,476.593 L2448.91,474.095 L2449.38,471.66 L2450.58,469.478 L2452.7,468.26 L2455.12,467.928 L2457.57,468.102 L2460.02,468.56 L2462.46,469.161 L2464.88,469.825 L2467.28,470.505 L2469.72,471.138 L2472.17,471.707 L2474.63,472.15 L2477.12,472.371 L2479.12,472.371" vector-effect="none"/>
   <path fill-rule="evenodd" d="M2076.92,708.586 L2076.15,710.816 L2075.32,713.172 L2074.48,715.544 L2073.66,717.9 L2072.84,720.272 L2072.05,722.644 L2071.24,725.032 L2070.48,727.404 L2069.73,729.807 L2068.98,732.195 L2068.27,734.599 L2067.59,737.018 L2066.94,739.437 L2066.33,741.857 L2065.76,744.308 L2065.25,746.759 L2064.81,749.226 L2064.46,751.708 L2064.27,754.207 L2064.29,756.705 L2064.49,759.204 L2064.85,761.686 L2065.34,764.137 L2065.93,766.573 L2066.58,768.992 L2067.29,771.411 L2068.03,773.799 L2068.79,776.187 L2069.57,778.575 L2070.33,780.962 L2071.05,783.366 L2071.72,785.77 L2072.3,788.205 L2072.78,790.672 L2073.06,793.154 L2073.09,795.669 L2072.76,798.135 L2071.91,800.491 L2070.47,802.531 L2068.6,804.208 L2066.47,805.536 L2064.19,806.595 L2061.83,807.449 L2059.43,808.177 L2057,808.793 L2054.54,809.347 L2052.09,809.853 L2049.63,810.343 L2047.18,810.849 L2044.71,811.371 L2042.26,811.94 L2039.84,812.573 L2037.43,813.316 L2035.08,814.17 L2032.79,815.198 L2030.59,816.415 L2028.52,817.823 L2026.54,819.356 L2024.61,820.985 L2022.78,822.677 L2020.99,824.448 L2019.25,826.251 L2017.56,828.101 L2015.9,829.983 L2014.27,831.896 L2012.66,833.81 L2011.03,835.723 L2009.41,837.636 L2007.79,839.55 L2006.13,841.447 L2004.45,843.297 L2002.73,845.132 L2000.97,846.903 L1999.14,848.626 L1997.3,850.334 L1995.42,851.994 L1993.51,853.607 L1991.56,855.205 L1989.58,856.754 L1987.61,858.288 L1985.62,859.822 L1983.61,861.34 L1981.62,862.858 L1979.62,864.392 L1977.65,865.942 L1975.7,867.507 L1973.77,869.12 L1971.87,870.765 L1970.02,872.457 L1968.22,874.212 L1966.5,876.03 L1964.85,877.912 L1963.3,879.889 L1961.9,881.96 L1960.58,884.095 L1959.33,886.277 L1958.15,888.475 L1957.01,890.721 L1955.92,892.966 L1954.84,895.243 L1953.8,897.52 L1952.79,899.813 L1951.79,902.106 L1950.83,904.43 L1949.88,906.739 L1948.93,909.064 L1948.01,911.404 L1947.11,913.744 L1946.23,916.085 L1945.36,918.425 L1944.49,920.781" vector-effect="none"/>
   <path fill-rule="evenodd" d="M3442.6,884.275 L3442.14,883.652 L3440.57,881.691 L3438.97,879.762 L3437.36,877.849 L3435.73,875.935 L3434.09,874.038 L3432.44,872.14 L3430.83,870.227 L3429.23,868.298 L3427.68,866.321 L3426.18,864.313 L3424.77,862.241 L3423.49,860.091 L3422.32,857.877 L3421.34,855.584 L3420.57,853.212 L3420,850.777 L3419.67,848.294 L3419.51,845.796 L3419.51,843.297 L3419.59,840.783 L3419.68,838.285 L3419.71,835.786 L3419.62,833.288 L3419.3,830.821 L3418.7,828.417 L3417.75,826.124 L3416.52,823.974 L3415.03,821.981 L3413.33,820.147 L3411.49,818.423 L3409.63,816.763 L3407.71,815.119 L3405.85,813.458 L3404.01,811.735 L3402.3,809.916 L3400.8,807.908 L3399.66,805.694 L3399.11,803.259 L3399.28,800.76 L3400,798.357 L3401.05,796.095 L3402.32,793.945 L3403.68,791.842 L3405.1,789.786 L3406.51,787.715 L3407.9,785.627 L3409.2,783.477 L3410.35,781.247 L3411.32,778.938 L3412,776.551 L3412.41,774.084 L3412.47,771.585 L3412.36,769.087 L3412.14,766.588 L3411.86,764.106 L3411.49,761.623 L3411.08,759.14 L3410.62,756.689 L3410.48,755.987" vector-effect="none"/>
   <path fill-rule="evenodd" d="M3223.36,1196.31 L3223.38,1196.31 L3222.65,1195.45 L3221.26,1193.38 L3219.95,1191.25 L3218.67,1189.1 L3217.43,1186.91 L3216.23,1184.72 L3215.05,1182.5 L3213.91,1180.27 L3212.8,1178.03 L3211.74,1175.77 L3210.71,1173.47 L3209.75,1171.16 L3208.85,1168.82 L3208.04,1166.45 L3207.39,1164.05 L3207.03,1161.63 L3206.87,1159.18 L3206.93,1156.76 L3207.27,1154.32 L3207.91,1151.94 L3208.75,1149.6 L3209.73,1147.32 L3210.84,1145.07 L3212.01,1142.86 L3213.23,1140.66 L3214.41,1138.45 L3215.55,1136.23 L3216.6,1133.96 L3217.5,1131.63 L3218.21,1129.28 L3218.87,1126.87 L3219.36,1124.42 L3219.68,1121.94 L3219.89,1119.46 L3220.01,1116.96 L3220.04,1114.46 L3219.95,1111.96 L3219.74,1109.48 L3219.41,1107 L3218.95,1104.54 L3218.38,1102.11 L3217.66,1099.72 L3216.8,1097.37 L3215.81,1095.07 L3214.67,1092.86 L3213.34,1090.74 L3211.84,1088.75 L3210.21,1086.87 L3208.45,1085.08 L3206.59,1083.42 L3204.66,1081.82 L3202.66,1080.29 L3200.64,1078.8 L3198.6,1077.35 L3196.55,1075.91 L3194.49,1074.47 L3192.43,1073.03 L3190.39,1071.56 L3188.39,1070.07 L3186.42,1068.51 L3184.53,1066.88 L3182.74,1065.14 L3181.17,1063.26 L3179.83,1061.23 L3178.93,1059.07 L3178.52,1056.85 L3178.57,1054.61 L3179.06,1052.35 L3179.93,1050.12 L3181.08,1047.95 L3182.41,1045.83 L3183.78,1043.74 L3185.1,1041.61 L3186.25,1039.41 L3187.09,1037.15 L3187.74,1034.84 L3188.13,1032.52 L3188.26,1030.14 L3188.13,1027.76 L3187.61,1025.35 L3186.85,1022.96 L3185.98,1020.62 L3185.06,1018.28 L3184.16,1015.96 L3183.36,1013.6 L3182.72,1011.23 L3182.35,1008.84 L3182.17,1006.47 L3182.23,1004.1 L3182.55,1001.74 L3183.18,999.419 L3184.05,997.111 L3185.02,994.833 L3186.06,992.572 L3187.14,990.311 L3188.23,988.066 L3189.32,985.804 L3190.41,983.543 L3191.55,981.313 L3192.7,979.084 L3193.86,976.854 L3195,974.624 L3196.09,972.379 L3197.18,970.118 L3198.3,967.888 L3199.44,965.643 L3200.58,963.413 L3201.72,961.183 L3202.85,958.938 L3203.96,956.708 L3205.07,954.447 L3206.14,952.186 L3207.17,949.909 L3208.17,947.6 L3209.12,945.275 L3210.02,942.935 L3210.84,940.579 L3211.58,938.191 L3212.26,935.788 L3212.88,933.352 L3213.4,930.901 L3213.84,928.435 L3214.22,925.968 L3214.56,923.485 L3214.82,920.987 L3215.05,918.488 L3215.22,915.99 L3215.36,913.491 L3215.46,910.993 L3215.52,908.479 L3215.55,905.98 L3215.55,903.466 L3215.52,900.967 L3215.46,898.453 L3215.38,895.955 L3215.27,893.456 L3215.14,890.942 L3214.98,888.443 L3214.79,885.945 L3214.57,883.447 L3214.3,880.964 L3213.97,878.481 L3213.59,875.999 L3213.12,873.548 L3212.58,871.097 L3211.95,868.677 L3211.19,866.289 L3210.33,863.933 L3209.37,861.625 L3208.28,859.363 L3207.08,857.165 L3205.76,855.031 L3204.29,853.007 L3202.74,851.03 L3201.05,849.18 L3199.59,847.741" vector-effect="none"/>
   <path fill-rule="evenodd" d="M2359.56,720.177 L2359.5,720.81 L2358.82,723.229 L2358.11,725.633 L2357.43,728.036 L2356.79,730.471 L2356.23,732.907 L2355.72,735.358 L2355.31,737.84 L2355.04,740.323 L2354.96,742.821 L2355.21,745.32 L2355.74,747.755 L2356.49,750.143 L2357.47,752.452 L2358.66,754.65 L2359.99,756.768 L2361.44,758.824 L2362.99,760.801 L2364.59,762.73 L2366.22,764.628 L2367.86,766.525 L2369.49,768.438 L2371.04,770.399 L2372.58,772.392 L2374.11,774.368 L2375.68,776.329 L2377.27,778.274 L2378.89,780.188 L2380.55,782.069 L2382.24,783.919 L2383.96,785.738 L2385.75,787.493 L2387.6,789.201 L2389.51,790.83 L2391.49,792.379 L2393.54,793.803 L2395.71,795.068 L2398.05,795.985 L2400.45,796.728 L2402.89,797.329 L2405.34,797.819 L2407.82,798.23 L2410.31,798.594 L2412.8,798.91 L2415.29,799.226 L2417.79,799.559 L2420.27,799.922 L2422.75,800.349 L2425.2,800.903 L2427.61,801.614 L2429.9,802.61 L2431.91,804.081 L2433.36,806.089 L2434.17,808.43 L2434.48,810.896 L2434.53,813.411 L2434.47,815.909 L2434.44,818.408 L2434.58,820.906 L2435.12,823.357 L2436.38,825.476 L2438.3,827.089 L2440.43,828.401 L2442.66,829.556 L2444.94,830.599 L2447.26,831.548 L2449.6,832.434 L2451.97,833.272 L2454.36,834.047" vector-effect="none"/>
   <path fill-rule="evenodd" d="M1523.48,1606.81 L1523.48,1606.8 L1523.5,1606.78 L1523.51,1606.75 L1523.53,1606.7 L1523.54,1606.64 L1523.58,1606.56 L1523.62,1606.47 L1523.67,1606.35 L1525.19,1606.51 L1527.61,1607.21 L1530,1607.95 L1532.4,1608.69 L1534.8,1609.41 L1537.21,1610.09 L1539.63,1610.7 L1542.06,1611.22 L1544.5,1611.68 L1546.93,1612.08 L1549.37,1612.41 L1551.8,1612.71 L1554.24,1612.98 L1556.67,1613.2 L1559.11,1613.41 L1561.54,1613.58 L1563.99,1613.76 L1566.43,1613.88 L1568.9,1614.01 L1571.35,1614.12 L1573.83,1614.21 L1576.31,1614.28 L1578.81,1614.36 L1581.32,1614.44 L1583.82,1614.53 L1586.32,1614.67 L1588.8,1614.93 L1591.19,1615.35 L1593.44,1615.98 L1595.45,1616.82 L1597.25,1617.77 L1598.85,1618.8 L1600.32,1619.83 L1601.68,1620.89 L1602.97,1621.95 L1604.21,1623.01 L1605.42,1624.08 L1606.61,1625.17 L1607.8,1626.29 L1608.98,1627.46 L1610.18,1628.68 L1611.4,1629.98 L1612.65,1631.37 L1613.9,1632.89 L1615.15,1634.6 L1616.35,1636.53 L1617.46,1638.66 L1618.45,1640.94 L1619.31,1643.28 L1620.03,1645.68 L1620.68,1648.09 L1621.28,1650.49 L1621.84,1652.89 L1622.39,1655.28 L1622.93,1657.65 L1623.48,1660.01 L1624.05,1662.35 L1624.64,1664.69 L1625.25,1667.01 L1625.9,1669.32 L1626.58,1671.61 L1627.34,1673.89 L1628.15,1676.17 L1629.05,1678.41 L1630.03,1680.64 L1631.14,1682.83 L1632.4,1684.96 L1633.7,1687.08 L1635.04,1689.17 L1636.42,1691.24 L1637.82,1693.29 L1639.26,1695.32 L1640.73,1697.33 L1642.24,1699.3 L1643.77,1701.26 L1645.32,1703.19 L1646.92,1705.11 L1648.55,1706.99 L1650.19,1708.85 L1651.87,1710.69 L1653.57,1712.49 L1655.31,1714.28 L1657.08,1716.02 L1658.89,1717.74 L1660.71,1719.42 L1662.57,1721.06 L1664.47,1722.68 L1666.4,1724.24 L1668.36,1725.76 L1670.34,1727.23 L1672.38,1728.64 L1674.45,1729.95 L1676.57,1731.21 L1678.7,1732.43 L1680.85,1733.59 L1683.03,1734.71 L1685.25,1735.8 L1687.46,1736.84 L1689.69,1737.87 L1691.95,1738.87 L1694.21,1739.85 L1696.49,1740.8 L1698.78,1741.73 L1701.09,1742.66 L1703.4,1743.58 L1705.71,1744.54 L1708,1745.54 L1710.25,1746.63 L1711.94,1748.17 L1712.29,1749.46 L1712.35,1750.4 L1712.37,1751.19 L1712.38,1751.91 L1712.4,1752.61 L1712.41,1753.27 L1712.43,1753.94 L1712.45,1754.62 L1712.48,1755.31 L1712.52,1756.04 L1712.57,1756.8 L1712.65,1757.62 L1712.75,1758.52 L1712.87,1759.55 L1713.06,1760.71 L1713.27,1761.99 L1713.41,1763.44 L1713.35,1765.21 L1712.38,1767.3 L1710.69,1769.15 L1708.86,1770.83 L1706.99,1772.45 L1705.12,1774.05 L1703.27,1775.65 L1701.42,1777.23 L1699.62,1778.84 L1697.83,1780.46 L1696.08,1782.1 L1694.36,1783.76 L1692.68,1785.45 L1691.02,1787.18 L1689.42,1788.95 L1687.87,1790.77 L1686.43,1792.66 L1685.14,1794.67 L1683.97,1796.77 L1682.86,1798.93 L1681.83,1801.11 L1680.85,1803.32 L1679.93,1805.55 L1679.05,1807.81 L1678.21,1810.11 L1677.4,1812.41 L1676.63,1814.75 L1675.87,1817.09 L1675.13,1819.45 L1674.38,1821.82 L1673.62,1824.19 L1672.83,1826.58 L1672.01,1828.94 L1671.13,1831.28 L1670.15,1833.59 L1669.13,1835.85 L1668.07,1838.05 L1666.98,1840.2 L1665.84,1842.28 L1664.67,1844.31 L1663.49,1846.3 L1662.3,1848.26 L1661.12,1850.22 L1659.93,1852.2 L1658.76,1854.19 L1657.62,1856.23 L1656.52,1858.34 L1655.49,1860.52 L1654.54,1862.78 L1653.68,1865.1 L1652.91,1867.49 L1652.17,1869.88 L1651.44,1872.27 L1650.65,1874.62 L1649.76,1876.93 L1648.8,1879.16 L1647.77,1881.31 L1646.65,1883.4 L1645.46,1885.44 L1644.21,1887.43 L1642.85,1889.36 L1641.37,1891.26 L1639.66,1893.03 L1637.62,1894.44 L1635.4,1895.37 L1633.22,1896.02 L1631.15,1896.56 L1629.19,1897.08 L1627.36,1897.65 L1625.7,1898.31 L1624.11,1899.05 L1622.58,1899.91 L1621.06,1900.9 L1619.58,1902.2 L1618.18,1903.89 L1616.92,1905.79 L1615.73,1907.8 L1614.59,1909.87 L1613.46,1911.96 L1612.27,1914.01 L1610.99,1916.02 L1609.57,1917.93 L1607.94,1919.71 L1606.06,1921.24 L1603.87,1922.38 L1601.44,1922.96 L1598.94,1923.18 L1596.44,1923.17 L1593.94,1923.01 L1591.48,1922.74 L1589.01,1922.43 L1586.54,1922.08 L1584.08,1921.73 L1581.59,1921.41 L1579.09,1921.18 L1576.58,1921.07 L1574.1,1921.18 L1571.68,1921.49 L1569.34,1921.98 L1567.09,1922.58 L1564.91,1923.22 L1562.74,1923.85 L1560.58,1924.45 L1558.38,1924.99 L1556.15,1925.35 L1553.9,1925.49 L1551.64,1925.43 L1549.37,1925.16 L1547.09,1924.67 L1544.8,1924.12 L1542.49,1923.53 L1540.15,1922.98 L1537.74,1922.5 L1535.29,1922.16 L1532.81,1921.95 L1530.3,1921.95 L1527.78,1921.94 L1525.27,1921.95 L1522.77,1921.97 L1520.25,1922 L1517.76,1922.06 L1515.26,1922.16 L1512.76,1922.3 L1510.29,1922.49 L1507.84,1922.76 L1505.42,1923.09 L1503.07,1923.53 L1500.8,1924.09 L1498.69,1924.65 L1496.74,1925.24 L1494.97,1925.83 L1493.32,1926.39 L1491.81,1926.93 L1490.38,1927.45 L1489.01,1927.98 L1487.7,1928.53 L1486.38,1929.13 L1485.05,1929.84 L1483.69,1930.73 L1482.33,1931.8 L1480.99,1932.91 L1479.69,1934.06 L1478.41,1935.25 L1477.18,1936.5 L1475.98,1937.84 L1474.86,1939.3 L1473.94,1940.91 L1473.31,1942.74 L1472.97,1944.82 L1472.94,1947 L1473.13,1949.24 L1473.46,1951.52 L1473.89,1953.8 L1474.41,1956.08 L1474.97,1958.37 L1475.52,1960.68 L1476.03,1963.05 L1476.18,1965.52 L1475.16,1967.38 L1473.89,1968.57 L1472.67,1969.52 L1471.57,1970.37 L1470.65,1971.16 L1469.8,1971.92 L1469,1972.66 L1468.25,1973.39 L1467.52,1974.13 L1466.77,1974.88 L1466.05,1975.65 L1465.29,1976.47 L1464.51,1977.34 L1463.71,1978.29 L1462.85,1979.34 L1461.95,1980.52 L1460.97,1981.85 L1459.85,1983.23 L1458.43,1984.6 L1456.43,1985.74 L1454.08,1986.45 L1451.59,1986.83 L1449.1,1987.04 L1446.61,1987.16 L1444.13,1987.23 L1441.66,1987.27 L1439.21,1987.31 L1436.76,1987.35 L1434.34,1987.43 L1431.92,1987.53 L1429.52,1987.67 L1427.15,1987.89 L1424.81,1988.19 L1422.55,1988.63 L1420.43,1989.28 L1418.59,1990.17 L1417.2,1991.24 L1416.16,1992.38 L1415.32,1993.63 L1414.61,1994.85 L1413.94,1996.02 L1413.31,1997.19 L1412.69,1998.34 L1412.08,1999.51 L1411.44,2000.7 L1410.77,2001.93 L1410.05,2003.21 L1409.25,2004.59 L1408.31,2006.04 L1407.16,2007.61 L1405.83,2009.29 L1404.42,2011.15 L1403.14,2013.27 L1402.51,2015.58 L1402.32,2017.76 L1402.26,2019.8 L1402.23,2021.76 L1402.21,2023.69 L1402.19,2025.61 L1402.18,2027.53 L1402.16,2029.5 L1402.12,2031.52 L1402.07,2033.62 L1401.99,2035.82 L1401.83,2038.14 L1401.53,2040.55 L1400.93,2042.97 L1400.14,2045.34 L1399.25,2047.66 L1398.3,2049.96 L1397.32,2052.22 L1396.34,2054.45 L1395.36,2056.68 L1394.38,2058.89 L1393.43,2061.11 L1392.49,2063.32 L1391.57,2065.55 L1390.68,2067.79 L1389.83,2070.06 L1389.02,2072.35 L1388.28,2074.66 L1387.6,2077.03 L1386.97,2079.43 L1386.38,2081.87 L1385.89,2084.32 L1385.46,2086.79 L1385.12,2089.27 L1384.85,2091.75 L1384.64,2094.25 L1384.52,2096.76 L1384.47,2099.26 L1384.5,2101.76 L1384.61,2104.26 L1384.8,2106.74 L1385.12,2109.19 L1385.5,2111.61 L1385.89,2114.03 L1386.32,2116.42 L1386.86,2118.79 L1387.38,2121.13 L1387.9,2123.44 L1388.44,2125.73 L1388.99,2127.98 L1389.61,2130.22 L1390.3,2132.45 L1391.14,2134.67 L1392.2,2136.82 L1393.48,2138.89 L1394.94,2140.9 L1396.53,2142.81 L1398.26,2144.63 L1400.04,2146.37 L1401.88,2148.09 L1403.74,2149.77 L1405.59,2151.46 L1407.44,2153.15 L1409.33,2154.81 L1411.21,2156.47 L1413.09,2158.13 L1414.99,2159.78 L1416.87,2161.41 L1418.78,2163.04 L1420.71,2164.63 L1422.67,2166.2 L1424.65,2167.72 L1426.67,2169.19 L1428.74,2170.56 L1430.88,2171.84 L1433.06,2173.05 L1435.28,2174.17 L1437.54,2175.23 L1439.83,2176.19 L1442.15,2177.11 L1444.49,2177.98 L1446.87,2178.79 L1449.25,2179.53 L1451.66,2180.26 L1454.08,2180.95 L1456.48,2181.66 L1458.88,2182.38 L1461.29,2183.12 L1463.66,2183.91 L1466,2184.78 L1468.29,2185.74 L1470.52,2186.8 L1472.7,2187.94 L1474.84,2189.18 L1476.91,2190.49 L1478.93,2191.88 L1480.93,2193.35 L1482.9,2194.85 L1484.83,2196.42 L1486.75,2198.03 L1488.66,2199.66 L1490.6,2201.24 L1492.6,2202.71 L1494.65,2204.04 L1496.76,2205.19 L1498.91,2206.21 L1501.1,2207.09 L1503.37,2207.87 L1505.67,2208.53 L1508.05,2209.07 L1510.47,2209.51 L1512.93,2209.91 L1515.4,2210.33 L1517.8,2211 L1519.81,2212.17 L1521.01,2213.57 L1521.82,2214.92 L1522.52,2216.23 L1523.18,2217.53 L1523.83,2218.87 L1524.51,2220.26 L1525.24,2221.78 L1526.04,2223.44 L1526.94,2225.31 L1527.96,2227.43 L1528.73,2229.8 L1529.35,2232.22 L1529.87,2234.59 L1530.33,2236.95 L1530.43,2237.52" vector-effect="none"/>
   <path fill-rule="evenodd" d="M3064.43,1009.79 L3063.48,1007.94 L3062.47,1005.67 L3061.44,1003.37 L3060.36,1001.11 L3059.26,998.866 L3058.07,996.652 L3056.81,994.486 L3055.43,992.398 L3053.88,990.422 L3052.08,988.682 L3049.83,987.591 L3047.4,986.943 L3044.93,986.563 L3042.42,986.31 L3039.92,986.136 L3037.4,985.978 L3034.9,985.773 L3032.42,985.425 L3030.03,984.697 L3028.53,982.91 L3029.04,980.586 L3030.48,978.546 L3032.12,976.649 L3033.84,974.83 L3035.6,973.027 L3037.34,971.225 L3039.03,969.375 L3040.64,967.461 L3042.13,965.437 L3043.41,963.287 L3044.36,960.962 L3044.98,958.543 L3045.23,956.044 L3045.2,953.546 L3044.93,951.063 L3044.52,948.58 L3044.01,946.129 L3043.46,943.694 L3042.91,941.243 L3042.38,938.792 L3041.93,936.341 L3041.56,933.858 L3041.32,931.36 L3041.2,928.862 L3041.13,926.347 L3041.13,923.849 L3041.13,921.335 L3041.13,918.836 L3041.12,916.322 L3041.06,913.823 L3040.91,911.325 L3040.66,908.826 L3040.25,906.36 L3039.65,903.924 L3038.78,901.584 L3037.59,899.37 L3036.22,897.283 L3034.73,895.259 L3033.17,893.298 L3031.55,891.369 L3029.89,889.487 L3028.2,887.637 L3028.06,887.487" vector-effect="none"/>
   <path fill-rule="evenodd" d="M3314.57,1006.57 L3313.83,1004.86 L3312.98,1002.5 L3312.12,1000.15 L3311.25,997.806 L3310.38,995.45 L3309.48,993.11 L3308.56,990.785 L3307.62,988.461 L3306.65,986.152 L3305.64,983.843 L3304.58,981.566 L3303.49,979.321 L3302.33,977.091 L3301.1,974.909 L3299.77,972.79 L3298.3,970.75 L3296.66,968.869 L3294.84,967.129 L3292.89,965.548 L3290.85,964.093 L3288.75,962.733 L3286.58,961.436 L3284.4,960.203 L3282.2,959.001 L3280.01,957.799 L3277.81,956.566 L3275.64,955.285 L3273.52,953.957 L3271.47,952.518 L3269.51,950.968 L3267.64,949.276 L3265.95,947.426 L3264.48,945.402 L3263.18,943.251 L3262.01,941.038 L3260.95,938.761 L3259.97,936.452 L3259.05,934.127 L3258.18,931.771 L3257.33,929.415 L3256.48,927.059 L3255.59,924.719 L3254.67,922.378 L3253.69,920.07 L3252.63,917.808 L3251.46,915.579 L3250.17,913.444 L3248.71,911.404 L3247.13,909.459 L3245.41,907.64 L3243.59,905.901 L3241.71,904.257 L3239.78,902.644 L3237.8,901.094 L3235.81,899.576 L3233.77,898.089 L3231.73,896.65 L3229.66,895.227 L3227.57,893.82 L3225.48,892.444 L3223.36,891.084 L3221.25,889.756 L3219.09,888.443 L3216.94,887.147 L3214.78,885.882" vector-effect="none"/>
   <path fill-rule="evenodd" d="M914.894,1536.48 L913.446,1537.5 L911.485,1539.07 L909.65,1540.79 L907.958,1542.63 L906.393,1544.59 L904.922,1546.63 L903.562,1548.72 L902.528,1550.41" vector-effect="none"/>
   <path fill-rule="evenodd" d="M2037.33,260.21 L2037.8,261.821 L2038.7,264.161 L2039.89,266.375 L2041.61,268.178 L2043.63,269.664 L2045.78,270.945 L2048.03,272.084 L2050.31,273.127 L2052.63,274.076 L2054.99,274.962 L2057.36,275.784 L2059.75,276.559 L2062.15,277.286" vector-effect="none"/>
   <path fill-rule="evenodd" d="M2920.09,1018.57 L2920.91,1017.87 L2923.04,1016.56 L2925.21,1015.28 L2927.36,1014 L2929.51,1012.69 L2931.65,1011.37 L2933.76,1010.03 L2935.85,1008.64 L2937.92,1007.23 L2939.98,1005.78 L2941.97,1004.26 L2943.92,1002.68 L2945.78,1001 L2947.54,999.198 L2949.09,997.237 L2950.45,995.134 L2951.65,992.92 L2952.69,990.643 L2953.63,988.319 L2954.48,985.962 L2955.29,983.59 L2956.04,981.203 L2956.8,978.815 L2957.58,976.427 L2958.4,974.055 L2959.27,971.715 L2960.24,969.406 L2961.29,967.129 L2962.48,964.915 L2963.73,962.749 L2965.04,960.614 L2966.4,958.511 L2967.79,956.408 L2969.19,954.336 L2970.59,952.265 L2972,950.178 L2973.38,948.09 L2974.72,945.971 L2976.03,943.821 L2977.27,941.638 L2978.42,939.425 L2979.48,937.148 L2980.41,934.823 L2981.17,932.435 L2981.73,930 L2981.79,929.589" vector-effect="none"/>
   <path fill-rule="evenodd" d="M1951.98,1693.63 L1951.97,1693.61 L1952.11,1691.95 L1952.52,1689.48 L1952.93,1687 L1953.33,1684.53 L1953.69,1682.05 L1954.04,1679.57 L1954.35,1677.09 L1954.62,1674.59 L1954.84,1672.11 L1955,1669.61 L1955.08,1667.09 L1955.06,1664.59 L1954.89,1662.11 L1954.48,1659.66 L1953.83,1657.27 L1952.95,1654.95 L1951.84,1652.73 L1950.57,1650.58 L1949.18,1648.48 L1947.74,1646.44 L1946.26,1644.42 L1944.77,1642.39 L1943.3,1640.37 L1941.89,1638.3 L1940.6,1636.16 L1939.5,1633.93 L1938.84,1631.61 L1938.81,1629.33 L1939.35,1627.26 L1940.41,1625.33 L1942.05,1623.67 L1944.09,1622.33 L1946.34,1621.25 L1948.68,1620.4 L1951.06,1619.65 L1953.5,1619 L1955.93,1618.42 L1958.39,1617.88 L1960.84,1617.36 L1963.3,1616.84 L1965.75,1616.33 L1968.22,1615.81 L1970.67,1615.27 L1973.11,1614.69 L1975.54,1614.07 L1977.96,1613.39 L1980.35,1612.63 L1982.72,1611.79 L1985.01,1610.8 L1987.24,1609.69 L1989.44,1608.51 L1991.59,1607.21 L1993.68,1605.82 L1995.75,1604.39 L1997.81,1602.95 L1999.83,1601.5 L2001.86,1600.01 L2003.86,1598.5 L2005.84,1596.95 L2007.79,1595.38 L2009.71,1593.77 L2011.61,1592.12 L2013.48,1590.45 L2015.31,1588.74 L2017.1,1586.97 L2018.84,1585.17 L2020.53,1583.32 L2022.18,1581.42 L2023.74,1579.47 L2025.23,1577.45 L2026.63,1575.38 L2027.96,1573.26 L2029.24,1571.11 L2030.48,1568.91 L2031.63,1566.7 L2032.72,1564.43 L2033.75,1562.16 L2034.72,1559.85 L2035.62,1557.51 L2036.45,1555.15 L2037.23,1552.76 L2037.96,1550.36 L2038.64,1547.96 L2039.25,1545.52 L2039.84,1543.09 L2040.36,1540.64 L2040.83,1538.17 L2041.26,1535.7 L2041.66,1533.24 L2041.99,1530.75 L2042.21,1528.25 L2042.31,1525.76 L2042.23,1523.26 L2042.02,1520.76 L2041.7,1518.29 L2041.31,1515.81 L2040.85,1513.34 L2040.34,1510.89 L2039.82,1508.44 L2039.3,1505.99 L2038.76,1503.54 L2038.26,1501.09 L2037.8,1498.62 L2037.39,1496.15 L2037.1,1493.67 L2036.94,1491.17 L2037.02,1488.69 L2037.43,1486.29 L2038.27,1484.04 L2039.54,1482.1 L2041.2,1480.51 L2043.24,1479.36 L2045.55,1478.6 L2047.97,1478.17 L2050.45,1477.97 L2052.95,1477.92 L2055.45,1478 L2057.94,1478.14 L2060.44,1478.33 L2062.94,1478.55 L2065.44,1478.79 L2067.95,1479.01 L2070.45,1479.22 L2072.95,1479.41 L2075.47,1479.53 L2077.98,1479.6 L2080.48,1479.58 L2082.99,1479.44 L2085.47,1479.14 L2087.94,1478.74 L2090.41,1478.27 L2092.84,1477.68 L2095.28,1477.04 L2097.7,1476.37 L2100.1,1475.69 L2102.52,1474.96 L2104.91,1474.22 L2107.3,1473.43 L2109.67,1472.59 L2112.01,1471.69 L2114.33,1470.74 L2116.63,1469.71 L2118.87,1468.62 L2121.09,1467.44 L2123.22,1466.14 L2125.31,1464.75 L2127.28,1463.22 L2129.17,1461.55 L2130.89,1459.75 L2132.49,1457.84 L2133.89,1455.77 L2135.16,1453.62 L2136.27,1451.36 L2137.22,1449.05 L2138.05,1446.69 L2138.78,1444.29 L2139.4,1441.87 L2139.93,1439.42 L2140.38,1436.95 L2140.76,1434.47 L2141.09,1431.98 L2141.36,1429.5 L2141.58,1427 L2141.75,1424.5 L2141.88,1421.99 L2141.99,1419.49 L2142.07,1416.99 L2142.12,1414.48 L2142.15,1411.98 L2142.16,1409.47 L2142.16,1406.97 L2142.09,1404.45 L2141.91,1401.96 L2141.64,1399.47 L2141.33,1396.97 L2140.96,1394.51 L2140.55,1392.02 L2140.11,1389.56 L2139.65,1387.11 L2139.14,1384.64 L2138.64,1382.19 L2138.08,1379.74 L2137.53,1377.3 L2136.96,1374.87 L2136.36,1372.43 L2135.76,1370 L2135.14,1367.56 L2134.51,1365.14 L2133.85,1362.72 L2133.18,1360.3 L2132.52,1357.88" vector-effect="none"/>
   <path fill-rule="evenodd" d="M2730.88,1746.85 L2730.85,1746.87 L2730.79,1746.88 L2730.05,1745.49 L2729.18,1743.14 L2728.35,1740.77 L2727.53,1738.41 L2726.71,1736.04 L2725.85,1733.68 L2724.99,1731.32 L2724.08,1728.98 L2723.15,1726.68 L2722.15,1724.37 L2721.1,1722.11 L2719.96,1719.89 L2718.75,1717.71 L2717.49,1715.58 L2716.15,1713.49 L2714.75,1711.43 L2713.3,1709.42 L2711.77,1707.46 L2710.14,1705.57 L2708.46,1703.72 L2706.72,1701.91 L2704.95,1700.16 L2703.15,1698.42 L2701.31,1696.71 L2699.45,1695.03 L2697.57,1693.36 L2695.68,1691.71 L2693.79,1690.07 L2691.89,1688.42 L2689.98,1686.81 L2688.05,1685.21 L2686.12,1683.59 L2684.2,1681.97 L2682.29,1680.34 L2680.39,1678.71 L2678.46,1677.1 L2676.5,1675.52 L2674.54,1673.97 L2672.55,1672.45 L2670.53,1671 L2668.45,1669.61 L2666.32,1668.33 L2664.15,1667.16 L2661.92,1666.11 L2659.65,1665.21 L2657.32,1664.44 L2654.95,1663.79 L2652.53,1663.3 L2650.08,1662.97 L2647.58,1662.84 L2645.08,1662.82 L2642.58,1662.87 L2640.07,1662.98 L2637.57,1663.15 L2635.06,1663.34 L2632.56,1663.57 L2630.06,1663.68 L2627.55,1663.8 L2625.05,1663.91 L2622.53,1664.04 L2620.03,1664.15 L2617.52,1664.25 L2615.02,1664.33 L2612.51,1664.37 L2609.99,1664.44 L2607.48,1664.5 L2604.96,1664.58 L2602.47,1664.69 L2599.95,1664.82 L2597.45,1665.01 L2594.95,1665.23 L2592.47,1665.51 L2589.99,1665.87 L2587.52,1666.32 L2585.12,1666.95 L2582.73,1667.71 L2580.41,1668.56 L2578.1,1669.51 L2575.84,1670.56 L2573.58,1671.61 L2571.35,1672.75 L2569.16,1673.99 L2567.01,1675.27 L2564.88,1676.58 L2562.76,1677.94 L2560.67,1679.32 L2558.57,1680.69 L2556.47,1682.07 L2554.36,1683.43 L2552.23,1684.74 L2550.06,1685.99 L2547.85,1687.16 L2545.6,1688.17 L2543.28,1688.99 L2540.94,1689.63 L2538.55,1690.07 L2536.13,1690.35 L2533.68,1690.53 L2531.2,1690.59 L2528.68,1690.65 L2526.2,1690.83 L2523.78,1691.18 L2521.46,1691.71 L2519.16,1692.41 L2516.92,1693.34 L2514.77,1694.53 L2512.74,1695.97 L2510.85,1697.58 L2509.01,1699.3 L2507.26,1701.09 L2505.58,1702.94 L2503.95,1704.85 L2502.39,1706.81 L2500.88,1708.82 L2499.44,1710.88 L2498.07,1712.97 L2496.76,1715.1 L2495.52,1717.28 L2494.35,1719.5 L2493.21,1721.73 L2492.2,1724 L2491.3,1726.34 L2490.54,1728.73 L2489.92,1731.15 L2489.39,1733.6 L2488.96,1736.07 L2488.58,1738.54 L2488.25,1741.02 L2487.95,1743.52 L2487.65,1746 L2487.36,1748.48 L2487.05,1750.98 L2486.68,1753.45 L2486.22,1755.91 L2485.59,1758.32 L2484.77,1760.67 L2483.73,1762.9 L2482.48,1765.05 L2481.12,1767.13 L2479.69,1769.2 L2478.3,1771.27 L2477.02,1773.4 L2475.85,1775.59 L2474.79,1777.86 L2473.87,1780.19 L2473.07,1782.56 L2472.26,1784.93 L2471.49,1787.32 L2470.73,1789.71 L2470.03,1792.11 L2469.38,1794.53 L2468.81,1796.96 L2468.36,1799.43 L2468.02,1801.91 L2467.85,1804.4 L2467.82,1806.9 L2468.02,1809.38 L2468.64,1811.8 L2469.53,1814.14 L2470.57,1816.41 L2471.72,1818.64 L2472.93,1820.84 L2474.14,1823.04 L2475.31,1825.25 L2476.39,1827.52 L2477.27,1829.84 L2477.89,1832.24 L2478.08,1834.68 L2477.78,1837.05 L2477.02,1839.33 L2475.76,1841.42 L2474.19,1843.34 L2472.44,1845.12 L2470.57,1846.78 L2468.64,1848.36 L2466.66,1849.91 L2464.67,1851.42 L2462.68,1852.96 L2460.72,1854.52 L2458.82,1856.15 L2456.99,1857.86 L2455.31,1859.71 L2453.82,1861.69 L2452.46,1863.76 L2451.28,1865.93 L2450.31,1868.23 L2449.51,1870.61 L2448.81,1873.01 L2448.19,1875.43 L2447.64,1877.88 L2447.13,1880.33 L2446.64,1882.78 L2446.15,1885.25 L2445.65,1887.7 L2445.13,1890.15 L2444.54,1892.59 L2443.88,1895.01 L2443.07,1897.36 L2442.22,1899.72 L2441.35,1902.06 L2440.48,1904.41 L2439.58,1906.74 L2438.63,1909.06 L2437.66,1911.37 L2436.7,1913.68 L2435.73,1916.01 L2434.78,1918.33 L2433.85,1920.65 L2432.97,1922.99 L2432.11,1925.35 L2431.32,1927.72 L2430.59,1930.13 L2429.96,1932.55 L2429.42,1935 L2429.04,1937.46 L2428.89,1939.96 L2428.97,1942.46 L2429.2,1944.94 L2429.57,1947.41 L2430.02,1949.88 L2430.56,1952.33 L2431.12,1954.76 L2431.7,1957.2 L2432.29,1959.63 L2432.84,1962.08 L2433.31,1964.54 L2433.69,1967.02 L2433.9,1969.5 L2433.79,1971.98 L2433.23,1974.32 L2432.25,1976.44 L2430.89,1978.25 L2429.22,1979.75 L2427.26,1980.98 L2425.09,1981.95 L2422.77,1982.66 L2420.35,1983.18 L2417.9,1983.56 L2415.43,1983.84 L2412.93,1984.08 L2410.43,1984.27 L2407.93,1984.46 L2405.44,1984.67 L2402.94,1984.9 L2400.45,1985.27 L2397.97,1985.65 L2395.49,1986.01 L2393.01,1986.37 L2390.52,1986.75 L2388.06,1987.15 L2385.57,1987.61 L2383.14,1988.19 L2380.7,1988.78 L2378.25,1989.35 L2375.8,1989.92 L2373.37,1990.48 L2370.93,1991.07 L2368.5,1991.69 L2366.09,1992.37 L2363.71,1993.09 L2361.35,1993.9 L2359.01,1994.77 L2356.72,1995.72 L2354.45,1996.75 L2352.22,1997.85 L2350.08,1999.03" vector-effect="none"/>
   <path fill-rule="evenodd" d="M2861.53,1327.67 L2859.93,1327.19 L2857.59,1326.32 L2855.24,1325.44 L2852.88,1324.55 L2850.52,1323.68 L2848.17,1322.83 L2845.81,1321.97 L2843.44,1321.14 L2841.07,1320.33 L2838.68,1319.52 L2836.29,1318.75 L2833.89,1318 L2831.49,1317.29 L2829.07,1316.63 L2826.63,1316 L2824.2,1315.44 L2821.73,1314.97 L2819.25,1314.62 L2816.75,1314.38 L2814.25,1314.3 L2811.75,1314.4 L2809.24,1314.6 L2806.75,1314.9 L2804.27,1315.27 L2801.79,1315.7 L2799.32,1316.15 L2796.86,1316.64 L2794.4,1317.15 L2791.94,1317.66 L2789.47,1318.15 L2787,1318.62 L2784.54,1319.03 L2782.04,1319.4 L2779.56,1319.66 L2777.04,1319.79 L2774.54,1319.74 L2772.09,1319.36 L2769.7,1318.72 L2767.41,1317.8 L2765.21,1316.68 L2763.16,1315.28 L2761.23,1313.72 L2759.41,1312.01 L2757.65,1310.22 L2755.93,1308.41 L2754.16,1306.63 L2752.31,1304.94 L2750.33,1303.42 L2748.23,1302.16 L2745.97,1301.19 L2743.58,1300.61 L2741.11,1300.4 L2738.62,1300.47 L2736.13,1300.74 L2733.65,1301.1 L2731.17,1301.53 L2728.7,1301.94 L2726.22,1302.25 L2723.72,1302.41 L2721.25,1302.35 L2718.85,1301.99 L2716.51,1301.34 L2714.3,1300.4 L2712.19,1299.19 L2710.29,1297.59 L2708.56,1295.79 L2706.94,1293.87 L2705.41,1291.9 L2703.94,1289.87 L2702.5,1287.82 L2701.06,1285.76 L2699.61,1283.72 L2698.13,1281.68 L2696.62,1279.69 L2695.04,1277.76 L2693.37,1275.89 L2691.62,1274.14 L2689.79,1272.46 L2687.9,1270.82 L2685.94,1269.27 L2683.87,1267.86 L2681.74,1266.53 L2679.57,1265.27 L2677.39,1264.02 L2675.17,1262.83 L2672.94,1261.68 L2670.68,1260.59 L2668.39,1259.56 L2666.07,1258.61 L2663.71,1257.74 L2661.32,1256.98 L2658.9,1256.37 L2656.44,1255.92 L2653.95,1255.69 L2651.47,1255.78 L2649.05,1256.25 L2646.76,1257.17 L2644.62,1258.47 L2642.69,1260.05 L2640.95,1261.85 L2639.36,1263.78 L2637.89,1265.82 L2636.54,1267.94 L2635.28,1270.11 L2634.11,1272.32 L2633,1274.57 L2631.96,1276.84 L2630.96,1279.15 L2630.03,1281.48 L2629.08,1283.8 L2628.38,1286.2 L2627.85,1288.64 L2627.45,1291.12 L2627.13,1293.6 L2626.88,1296.09 L2626.71,1298.59 L2626.56,1301.1 L2626.45,1303.6 L2626.39,1306.1 L2626.36,1308.61 L2626.36,1311.11 L2626.41,1313.62 L2626.47,1316.12" vector-effect="none"/>
   <path fill-rule="evenodd" d="M1843.54,1393.48 L1843.55,1393.45 L1843.58,1393.4 L1843.61,1393.34 L1843.66,1393.24 L1845.15,1393.76 L1847.44,1394.79 L1849.73,1395.82 L1852.03,1396.82 L1854.35,1397.78 L1856.68,1398.7 L1859.02,1399.55 L1861.4,1400.26 L1863.81,1400.9 L1866.21,1401.47 L1868.62,1401.99 L1871.03,1402.45 L1873.47,1402.86 L1875.9,1403.24 L1878.36,1403.54 L1880.81,1403.79 L1883.29,1403.96 L1885.77,1404.07 L1888.27,1404.15 L1890.75,1404.17 L1893.27,1404.12 L1895.77,1404.03 L1898.28,1403.88 L1900.78,1403.73 L1903.28,1403.55 L1905.79,1403.38 L1908.29,1403.2 L1910.8,1403.05 L1913.3,1402.89 L1915.8,1402.73 L1918.3,1402.57 L1920.81,1402.4 L1923.31,1402.19 L1925.81,1401.96 L1928.31,1401.69 L1930.79,1401.37 L1933.27,1401.01 L1935.71,1400.56 L1938.08,1399.98 L1940.33,1399.2 L1942.48,1398.3 L1944.55,1397.31 L1946.57,1396.25 L1948.58,1395.11 L1950.56,1393.89 L1952.53,1392.61 L1954.53,1391.27 L1956.55,1389.87 L1958.65,1388.51 L1960.79,1387.22 L1962.94,1386.16 L1965.04,1385.3 L1967.04,1384.74 L1968.93,1384.32 L1970.75,1384.04 L1972.52,1383.83 L1974.31,1383.68 L1976.11,1383.6 L1978.01,1383.6 L1980.02,1383.77 L1982.17,1384.2 L1984.41,1384.92 L1986.66,1385.91 L1988.87,1387.06 L1991.09,1388.25 L1993.32,1389.32 L1995.56,1390.25 L1997.81,1391.12 L2000.04,1391.91 L2002.27,1392.64 L2004.51,1393.31 L2006.76,1393.94 L2009.05,1394.52 L2011.38,1395.06 L2013.75,1395.52 L2016.2,1395.9 L2018.68,1396.18 L2021.18,1396.44 L2023.66,1396.71 L2026.13,1397.04 L2028.55,1397.4 L2030.9,1397.88 L2033.18,1398.43 L2035.43,1399.06 L2037.61,1399.76 L2039.79,1400.48 L2041.96,1401.28 L2044.14,1402.1 L2046.35,1402.98 L2048.6,1403.95 L2050.86,1404.96 L2053.15,1405.99 L2055.45,1406.97 L2057.72,1407.95 L2059.95,1408.98 L2062.17,1410 L2064.35,1411.03 L2066.55,1412.03 L2068.73,1412.99 L2070.94,1413.86 L2073.2,1414.65 L2075.5,1415.3 L2077.87,1415.78 L2080.3,1415.95 L2082.76,1415.9 L2085.19,1415.71 L2087.59,1415.36 L2089.98,1414.97 L2092.34,1414.42 L2094.66,1413.75 L2096.92,1412.98 L2099.15,1412.08 L2101.35,1411.05 L2103.49,1409.91 L2105.56,1408.64 L2107.57,1407.24 L2109.49,1405.72 L2111.36,1404.09 L2113.15,1402.38 L2114.87,1400.6 L2116.52,1398.75 L2118.08,1396.8 L2119.5,1394.78 L2120.77,1392.67 L2121.89,1390.49 L2122.9,1388.26 L2123.82,1385.98 L2124.66,1383.68 L2125.45,1381.32 L2126.18,1378.95 L2126.83,1376.54 L2127.43,1374.11 L2128.06,1371.69 L2128.79,1369.32 L2129.64,1367.04 L2130.57,1364.83 L2131.63,1362.71 L2132.85,1360.75 L2134.16,1358.9 L2135.6,1357.14 L2137.17,1355.45 L2138.84,1353.85 L2140.68,1352.33 L2142.59,1350.86 L2144.63,1349.47 L2146.75,1348.14 L2148.89,1346.83 L2151,1345.49 L2153.06,1344.1 L2155.04,1342.63 L2157.01,1341.17 L2158.96,1339.68 L2160.89,1338.17 L2162.77,1336.62 L2164.62,1335 L2166.39,1333.28 L2168.07,1331.48 L2169.63,1329.53 L2171.12,1327.54 L2172.54,1325.5 L2173.85,1323.4 L2175.07,1321.25 L2176.15,1319.03 L2177.05,1316.77 L2177.73,1314.45 L2178.12,1312.12 L2178.25,1309.78 L2178.11,1307.46 L2177.7,1305.15 L2176.95,1302.86 L2175.88,1300.66 L2174.53,1298.57 L2173,1296.61 L2171.32,1294.76 L2169.54,1292.99 L2167.69,1291.31 L2165.76,1289.7 L2163.77,1288.17 L2161.74,1286.68 L2159.69,1285.26 L2157.58,1283.88 L2155.45,1282.57 L2153.27,1281.3 L2151.07,1280.12 L2148.82,1278.99 L2146.51,1278 L2144.17,1277.08 L2144.11,1277.06" vector-effect="none"/>
   <path fill-rule="evenodd" d="M2620.49,652.244 L2620.51,652.229 L2622.33,653.304 L2624.35,654.79 L2626.38,656.261 L2628.45,657.684 L2630.58,659.012 L2632.8,660.151 L2635.14,660.783 L2637.54,661.005 L2639.99,660.578 L2642.38,659.835 L2644.69,658.87 L2646.93,657.747 L2649.11,656.498 L2651.25,655.186 L2653.35,653.81 L2655.28,652.213 L2657.15,650.537 L2659,648.845 L2660.82,647.121 L2662.6,645.35 L2664.34,643.547 L2665.99,641.666 L2667.54,639.689 L2668.96,637.617 L2670.16,635.435 L2671.08,633.095 L2671.77,630.707 L2672.15,628.224 L2672.19,627.619" vector-effect="none"/>
   <path fill-rule="evenodd" d="M2059.52,305.053 L2060.03,304.121 L2060.9,301.844 L2061.34,299.393 L2061.57,296.91 L2061.66,294.412 L2061.69,291.913 L2061.72,289.399 L2061.87,286.9 L2062.36,284.513 L2063.48,282.773 L2064.71,281.919 L2065.91,281.35 L2067.23,280.907 L2068.92,280.686 L2071.07,281.239 L2073.24,282.362 L2075.32,283.706 L2077.38,285.161 L2079.39,286.647 L2081.41,288.134 L2083.45,289.604 L2085.52,291.012 L2087.63,292.372 L2089.79,293.621 L2092.01,294.744 L2094.27,295.724 L2096.58,296.562 L2098.93,297.242 L2101.32,297.796 L2103.77,298.175 L2106.25,298.365 L2108.75,298.46 L2111.25,298.444 L2113.76,298.365 L2116.28,298.254 L2118.78,298.159 L2121.28,298.08 L2123.77,298.064 L2126.26,298.143 L2128.74,298.317 L2131.21,298.57 L2133.64,298.95 L2136.08,299.424 L2138.5,300.025 L2140.9,300.737 L2143.29,301.464 L2145.64,302.271 L2148,303.14 L2150.34,304.042 L2152.66,304.991 L2154.99,305.923 L2157.33,306.872 L2159.65,307.789 L2162.01,308.675 L2164.37,309.497 L2166.75,310.272 L2169.16,310.952 L2171.58,311.537 L2174.03,312.043 L2176.48,312.47 L2178.95,312.802 L2181.43,313.055 L2183.93,313.182 L2186.43,313.166 L2188.94,313.055 L2191.44,312.897 L2193.95,312.676 L2196.45,312.407 L2198.93,312.122 L2201.43,311.79 L2203.91,311.442 L2206.4,311.079 L2208.88,310.715 L2211.36,310.351 L2213.86,310.003 L2216.34,309.671 L2218.84,309.418 L2221.34,309.244 L2223.82,309.165 L2226.32,309.149 L2228.82,309.213 L2231.32,309.339 L2233.83,309.466 L2236.33,309.545 L2238.81,309.466 L2240.34,309.256" vector-effect="none"/>
   <path fill-rule="evenodd" d="M2610.37,773.594 L2611.86,773.372 L2614.36,773.182 L2616.86,773.008 L2619.37,772.819 L2621.87,772.629 L2624.37,772.423 L2626.88,772.202 L2629.38,771.949 L2631.88,771.68 L2634.36,771.38 L2636.86,771.032 L2639.34,770.668 L2641.81,770.241 L2644.28,769.767 L2646.73,769.213 L2649.16,768.565 L2651.53,767.774 L2653.89,766.905 L2656.17,765.845 L2658.36,764.628 L2660.5,763.299 L2662.57,761.892 L2664.6,760.405 L2666.59,758.872 L2668.53,757.306 L2670.48,755.709 L2672.41,754.112 L2674.34,752.515 L2676.28,750.933 L2678.26,749.384 L2680.27,747.866 L2682.32,746.443 L2684.47,745.13 L2686.7,743.992 L2689.03,743.09 L2691.46,742.474 L2693.96,742.157 L2696.46,742.094 L2698.97,742.236 L2701.47,742.505 L2703.95,742.821 L2706.45,743.059 L2707.05,743.07" vector-effect="none"/>
   <path fill-rule="evenodd" d="M1478.13,1750 L1479.41,1751.98 L1480.82,1754.06 L1482.27,1756.1 L1483.77,1758.11 L1485.37,1760.04 L1487.06,1761.89 L1488.9,1763.6 L1490.97,1765.01 L1493.32,1765.8 L1495.82,1765.73 L1498.26,1765.1 L1500.61,1764.26 L1502.97,1763.38 L1505.36,1762.59 L1507.79,1762.02 L1510.29,1761.8 L1512.79,1762.03 L1515.18,1762.79 L1517.47,1763.8 L1519.7,1764.96 L1521.88,1766.19 L1524.05,1767.47 L1526.2,1768.77 L1528.37,1770.04 L1530.56,1771.27 L1532.79,1772.39 L1535.09,1773.42 L1537.46,1774.24 L1539.89,1774.84 L1542.39,1775.11 L1544.91,1775.1 L1547.41,1774.83 L1549.87,1774.35 L1552.31,1773.74 L1554.71,1773.02 L1557.1,1772.25 L1559.47,1771.44 L1561.84,1770.64 L1564.25,1769.86 L1566.65,1769.17 L1569.08,1768.58 L1571.55,1768.14 L1574.05,1767.9 L1576.56,1767.87 L1579.08,1767.95 L1581.58,1768.12 L1584.09,1768.31 L1586.59,1768.53 L1589.09,1768.72 L1591.6,1768.88 L1594.12,1768.96 L1596.62,1768.93 L1599.11,1768.75 L1601.6,1768.39 L1604.03,1767.81 L1606.42,1767.06 L1608.68,1765.97 L1610.82,1764.63 L1612.81,1763.12 L1614.74,1761.51 L1616.6,1759.84 L1618.42,1758.11 L1620.24,1756.37 L1622.06,1754.65 L1623.91,1752.96 L1625.82,1751.33 L1627.85,1749.86 L1630.08,1748.72 L1632.54,1748.34 L1634.68,1749.54 L1636.08,1751.6 L1637.11,1753.87 L1637.9,1756.25 L1638.6,1758.67 L1639.22,1761.08 L1639.78,1763.52 L1640.35,1765.96 L1640.94,1768.41 L1641.54,1770.83 L1642.2,1773.25 L1642.93,1775.65 L1643.75,1778 L1644.72,1780.33 L1645.87,1782.56 L1647.25,1784.65 L1648.86,1786.56 L1650.6,1788.36 L1652.42,1790.09 L1654.3,1791.76 L1656.21,1793.38 L1658.16,1794.96 L1660.14,1796.51 L1662.13,1798.02 L1664.15,1799.53 L1666.18,1801 L1668.23,1802.44 L1670.29,1803.86 L1672.38,1805.27 L1674.46,1806.66" vector-effect="none"/>
   <path fill-rule="evenodd" d="M1780.35,2082.41 L1780.28,2084.26 L1780.05,2086.75 L1779.81,2089.24 L1779.56,2091.74 L1779.33,2094.23 L1779.11,2096.73 L1778.91,2099.23 L1778.72,2101.73 L1778.56,2104.23 L1778.42,2106.73 L1778.31,2109.22 L1778.23,2111.74 L1778.18,2114.24 L1778.18,2116.75 L1778.24,2119.25 L1778.37,2121.75 L1778.59,2124.25 L1778.92,2126.73 L1779.38,2129.2 L1780.03,2131.62 L1780.79,2134 L1781.66,2136.34 L1782.61,2138.67 L1783.64,2140.96 L1784.71,2143.22 L1785.82,2145.47 L1786.97,2147.7 L1788.13,2149.93 L1789.28,2152.14 L1790.44,2154.37 L1791.57,2156.6 L1792.68,2158.86 L1793.72,2161.14 L1794.71,2163.45 L1795.62,2165.77 L1796.41,2168.16 L1797.06,2170.58 L1797.58,2173.03 L1798.01,2175.5 L1798.34,2177.98 L1798.6,2180.48 L1798.78,2182.98 L1798.94,2185.47 L1799.09,2187.97 L1799.23,2190.47 L1799.39,2192.97 L1799.59,2195.47 L1799.88,2197.97 L1800.26,2200.45 L1800.67,2202.54" vector-effect="none"/>
   <path fill-rule="evenodd" d="M2534.8,1038.71 L2534.42,1040.52 L2533.57,1042.86 L2532.68,1045.21 L2531.81,1047.55 L2530.98,1049.93 L2530.2,1052.3 L2529.49,1054.7 L2528.86,1057.14 L2528.35,1059.59 L2528.02,1062.07 L2527.95,1064.57 L2528.38,1067.04 L2529.33,1069.34 L2530.6,1071.51 L2532.02,1073.58 L2533.52,1075.59 L2535.02,1077.6 L2536.48,1079.62 L2537.84,1081.74 L2539.01,1083.96 L2539.91,1086.28 L2540.45,1088.73 L2540.51,1091.23 L2540.13,1093.7 L2539.42,1096.1 L2538.52,1098.44 L2537.49,1100.72 L2536.4,1102.98 L2535.28,1105.22 L2534.15,1107.47 L2533.05,1109.72 L2531.99,1111.98 L2530.99,1114.29 L2530.09,1116.63 L2529.35,1119.01 L2528.79,1121.46 L2528.48,1123.95 L2528.46,1126.45 L2528.6,1128.94 L2528.89,1131.44 L2529.28,1133.91 L2529.8,1136.36 L2530.41,1138.8 L2531.09,1141.21 L2531.83,1143.6 L2532.6,1145.97 L2533.43,1148.35 L2534.26,1150.72 L2535.12,1153.07 L2535.97,1155.43 L2536.79,1157.79 L2537.58,1160.17 L2538.38,1162.55 L2539.18,1164.92 L2539.99,1167.29 L2540.81,1169.66 L2541.63,1172.02 L2542.49,1174.39 L2543.36,1176.73 L2544.24,1179.09 L2545.16,1181.41 L2546.11,1183.74 L2547.09,1186.04 L2548.1,1188.34 L2549.16,1190.61 L2550.25,1192.86 L2551.41,1195.09 L2552.62,1197.29 L2553.89,1199.44 L2555.25,1201.56 L2556.72,1203.58 L2558.24,1205.57 L2559.8,1207.53 L2561.42,1209.45 L2563.09,1211.33 L2564.8,1213.16 L2566.55,1214.95 L2568.34,1216.71 L2570.18,1218.43 L2572.04,1220.11 L2573.94,1221.73 L2575.88,1223.33 L2577.84,1224.88 L2579.85,1226.4 L2581.88,1227.87 L2583.95,1229.31 L2586.04,1230.7 L2588.17,1231.98 L2590.38,1233.15 L2592.69,1234.12 L2595.07,1234.92 L2597.48,1235.62 L2599.92,1236.22 L2602.37,1236.77 L2604.82,1237.26 L2607.29,1237.74 L2609.76,1238.2 L2612.22,1238.64 L2614.69,1239.11 L2617.16,1239.63 L2619.61,1240.2 L2622.03,1240.88 L2624.4,1241.69 L2626.69,1242.69 L2628.83,1244.02 L2630.61,1245.75 L2631.69,1247.97 L2631.86,1250.42 L2631.42,1252.85 L2630.61,1255.21 L2629.62,1257.49 L2628.49,1259.72 L2627.29,1261.92 L2626.07,1264.1 L2624.86,1266.28 L2623.66,1268.49 L2622.53,1270.72 L2621.49,1273 L2620.6,1275.34 L2619.97,1277.76 L2619.65,1280.23 L2619.59,1282.71 L2619.86,1285.18 L2620.33,1287.64 L2620.94,1290.08 L2621.62,1292.48 L2622.37,1294.87 L2623.17,1297.24 L2623.97,1299.61 L2624.78,1301.99 L2625.52,1304.39 L2626.17,1306.81 L2626.55,1309.24 L2626.25,1311.49 L2625.33,1313.1 L2624.22,1314.34 L2622.96,1315.43 L2621.38,1316.39 L2619.4,1317.1 L2617.08,1317.4 L2614.61,1317.39 L2612.13,1317.25 L2609.61,1317.09 L2607.11,1317.02 L2604.63,1317.15 L2602.21,1317.5 L2599.95,1318.11 L2597.79,1318.89 L2595.7,1319.79 L2593.63,1320.77 L2591.55,1321.85 L2589.47,1323.02 L2587.38,1324.38 L2585.28,1325.74 L2583.13,1326.89 L2580.98,1327.76 L2578.87,1328.42 L2576.88,1328.87 L2574.95,1329.17 L2573.09,1329.37 L2571.25,1329.5 L2569.38,1329.55 L2567.49,1329.5 L2565.51,1329.33 L2563.46,1328.99 L2561.3,1328.41 L2559.14,1327.56 L2556.96,1326.53 L2554.81,1325.33 L2552.7,1324 L2550.61,1322.61 L2548.53,1321.21 L2546.42,1319.84 L2544.32,1318.51 L2542.19,1317.23 L2540.05,1316 L2537.9,1314.78 L2535.75,1313.59 L2533.6,1312.44 L2531.42,1311.32 L2529.24,1310.24 L2527.02,1309.18 L2524.79,1308.17 L2522.52,1307.22 L2520.22,1306.32 L2517.88,1305.48 L2515.51,1304.75 L2513.09,1304.07 L2510.67,1303.46 L2508.24,1302.87 L2505.78,1302.3 L2503.33,1301.75 L2500.88,1301.23 L2498.43,1300.69 L2495.98,1300.12 L2493.55,1299.53 L2491.11,1298.93 L2488.69,1298.3 L2486.27,1297.67 L2483.87,1297.02 L2481.45,1296.37 L2479.03,1295.72 L2476.61,1295.09 L2474.17,1294.49 L2471.72,1293.94 L2469.26,1293.46 L2466.82,1293.11 L2464.42,1292.99 L2462.11,1293.04 L2459.88,1293.18 L2457.68,1293.4 L2455.5,1293.68 L2453.29,1294.03 L2451.02,1294.44 L2448.67,1294.85 L2446.2,1295.11 L2443.75,1294.96 L2441.58,1294.49 L2439.69,1293.91 L2437.95,1293.29 L2436.32,1292.66 L2434.74,1292.02 L2433.17,1291.39 L2431.61,1290.73 L2429.99,1290.03 L2428.35,1289.27 L2426.63,1288.43 L2424.82,1287.44 L2422.94,1286.24 L2421.07,1284.75 L2419.24,1283.06 L2417.5,1281.25 L2415.84,1279.39 L2414.26,1277.48 L2412.71,1275.53 L2411.19,1273.6 L2409.67,1271.67 L2408.17,1269.76 L2406.65,1267.86 L2405.12,1265.98 L2403.57,1264.15 L2401.99,1262.34 L2400.34,1260.59 L2398.65,1258.91 L2396.88,1257.3 L2395.01,1255.81 L2392.96,1254.51 L2390.89,1253.33 L2388.8,1252.24 L2386.7,1251.29 L2384.59,1250.59 L2382.52,1250.12 L2380.47,1249.83 L2378.4,1249.71 L2376.31,1249.76 L2374.16,1249.99 L2371.98,1250.45 L2369.76,1251.12 L2367.55,1251.98 L2365.38,1253.12 L2363.28,1254.45 L2361.22,1255.87 L2359.2,1257.35 L2357.16,1258.82 L2355.13,1260.29 L2353.06,1261.69 L2350.94,1263.01 L2348.78,1264.18 L2346.56,1265.17 L2344.33,1265.85 L2342.1,1266.34 L2339.89,1266.68 L2337.69,1266.85 L2335.49,1266.9 L2333.3,1266.8 L2331.08,1266.6 L2328.84,1266.23 L2326.56,1265.69 L2324.28,1264.97 L2322.02,1264.08 L2319.76,1263.05 L2317.53,1261.96 L2315.3,1260.81 L2313.07,1259.65 L2310.84,1258.52 L2308.6,1257.41 L2306.32,1256.4 L2304.03,1255.45 L2301.73,1254.55 L2299.43,1253.68 L2297.12,1252.84 L2294.79,1252.05 L2292.45,1251.29 L2290.08,1250.59 L2287.71,1249.96 L2285.29,1249.39 L2282.85,1248.92 L2280.37,1248.55 L2277.9,1248.19 L2275.41,1247.89 L2272.92,1247.64 L2270.41,1247.41 L2267.91,1247.24 L2265.4,1247.07 L2262.9,1246.91 L2260.4,1246.75 L2257.88,1246.64 L2255.39,1246.58 L2252.87,1246.55 L2250.36,1246.51 L2247.84,1246.5 L2245.34,1246.45 L2242.83,1246.36 L2240.33,1246.21 L2237.83,1245.99 L2235.35,1245.68 L2232.9,1245.22 L2230.45,1244.66 L2228.03,1244.09 L2225.63,1243.45 L2223.29,1242.69 L2220.98,1241.88 L2218.7,1241.03 L2216.44,1240.13 L2214.19,1239.19 L2211.98,1238.21 L2209.75,1237.2 L2207.55,1236.16 L2205.34,1235.06 L2203.14,1233.94 L2200.96,1232.79 L2198.78,1231.59 L2196.58,1230.38 L2194.41,1229.1 L2192.26,1227.82 L2190.11,1226.56 L2187.93,1225.32 L2185.75,1224.15 L2183.53,1223.11 L2181.3,1222.19 L2179.07,1221.45 L2176.86,1220.85 L2174.64,1220.37 L2172.46,1220.01 L2170.26,1219.76 L2168.08,1219.62 L2165.88,1219.6 L2163.65,1219.73 L2161.38,1220.07 L2159.08,1220.69 L2156.82,1221.56 L2154.63,1222.71 L2152.54,1224.07 L2150.55,1225.59 L2148.62,1227.22 L2146.77,1228.9 L2144.96,1230.62 L2143.18,1232.38 L2141.41,1234.15 L2139.68,1235.95 L2138.04,1237.85 L2136.41,1239.76 L2135.32,1241.11" vector-effect="none"/>
   <path fill-rule="evenodd" d="M2726.68,1496.64 L2725.84,1495.19 L2724.8,1492.91 L2723.78,1490.62 L2722.77,1488.33 L2721.74,1486.03 L2720.72,1483.76 L2719.67,1481.48 L2718.6,1479.2 L2717.52,1476.94 L2716.43,1474.68 L2715.31,1472.45 L2714.15,1470.22 L2712.98,1468.01 L2711.77,1465.81 L2710.5,1463.64 L2709.19,1461.51 L2707.81,1459.4 L2706.34,1457.38 L2704.76,1455.44 L2703.05,1453.58 L2701.25,1451.85 L2699.37,1450.2 L2697.42,1448.6 L2695.43,1447.09 L2693.41,1445.6 L2691.35,1444.16 L2689.28,1442.74 L2687.21,1441.33 L2685.12,1439.92 L2683.05,1438.52 L2680.98,1437.09 L2678.94,1435.62 L2676.93,1434.12 L2674.98,1432.54 L2673.12,1430.86 L2671.39,1429.04 L2669.78,1427.11 L2668.34,1425.07 L2667.13,1422.88 L2666.13,1420.58 L2665.34,1418.2 L2664.71,1415.78 L2664.14,1413.34 L2663.55,1410.91 L2662.82,1408.5 L2661.84,1406.19 L2660.48,1404.11 L2658.76,1402.27 L2656.7,1400.85 L2654.43,1399.79 L2652.04,1399.01 L2649.62,1398.37 L2647.19,1397.75 L2644.78,1397.05 L2642.43,1396.22 L2640.15,1395.17 L2638,1393.91 L2635.99,1392.42 L2634.14,1390.74 L2632.49,1388.85 L2630.96,1386.85 L2629.51,1384.81 L2628.11,1382.74 L2626.74,1380.64 L2625.39,1378.52 L2624.07,1376.4 L2622.72,1374.28 L2621.36,1372.16 L2619.99,1370.08 L2618.56,1368 L2617.09,1365.98 L2615.57,1363.99 L2613.98,1362.04 L2612.29,1360.19 L2610.5,1358.44 L2608.63,1356.76 L2606.72,1355.13 L2604.74,1353.6 L2602.69,1352.16 L2600.58,1350.78 L2598.45,1349.46 L2596.28,1348.18 L2594.1,1346.94 L2591.9,1345.74 L2589.69,1344.55 L2587.44,1343.42 L2585.2,1342.29 L2582.95,1341.2 L2580.68,1340.13 L2578.4,1339.07 L2576.11,1338.02 L2573.81,1337.01 L2571.5,1336.02" vector-effect="none"/>
   <path fill-rule="evenodd" d="M2260.73,765.165 L2260.75,765.149 L2261.93,766.984 L2263.06,769.213 L2264.16,771.459 L2265.28,773.704 L2266.41,775.95 L2267.58,778.163 L2268.78,780.362 L2270.04,782.528 L2271.36,784.663 L2272.78,786.718 L2274.31,788.695 L2275.97,790.545 L2277.84,792.19 L2279.91,793.55 L2282.16,794.656 L2284.5,795.574 L2286.87,796.364 L2289.29,797.076 L2291.69,797.772 L2294.1,798.483 L2296.47,799.29 L2298.79,800.223 L2301.02,801.345 L2303.09,802.721 L2304.86,804.429 L2306.35,806.39 L2307.58,808.54 L2308.61,810.802 L2309.48,813.126 L2310.24,815.498 L2310.92,817.902 L2311.54,820.337 L2312.12,822.772 L2312.69,825.207 L2313.28,827.642 L2313.91,830.062 L2314.61,832.481 L2315.4,834.853 L2316.31,837.178 L2317.44,839.407 L2318.7,841.558 L2320.11,843.614 L2321.64,845.59 L2323.27,847.504 L2324.98,849.338 L2326.77,851.093 L2328.63,852.769 L2330.56,854.366 L2332.57,855.869 L2334.66,857.276 L2336.79,858.589 L2339.01,859.774 L2341.3,860.771 L2343.67,861.577 L2346.11,862.162 L2348.59,862.589 L2351.09,862.874 L2353.58,863.048 L2356.1,863.095 L2358.61,863.079 L2361.11,863 L2363.63,862.874 L2366.14,862.7 L2368.64,862.526 L2371.14,862.336 L2373.65,862.305 L2376.17,862.305 L2378.68,862.289 L2381.19,862.241 L2383.71,862.194 L2386.21,862.115 L2388.72,862.004 L2391.24,861.878 L2393.73,861.719 L2396.23,861.514 L2398.73,861.261 L2401.23,860.976 L2403.73,860.628 L2406.19,860.233 L2408.66,859.774 L2411.13,859.253 L2413.56,858.636 L2415.97,857.94 L2418.32,857.086 L2420.62,856.058 L2422.85,854.92 L2425.04,853.671 L2427.18,852.374 L2429.3,851.03 L2431.38,849.623 L2433.46,848.215 L2435.5,846.76 L2437.55,845.306 L2439.59,843.851 L2441.63,842.396 L2443.69,840.957 L2445.77,839.55 L2447.88,838.19 L2450.04,836.925 L2452.32,835.865 L2454.71,835.375 L2456.51,836.213 L2457.49,837.842 L2457.9,840.008 L2457.86,842.396 L2457.6,844.815 L2457.27,847.251 L2456.91,849.702 L2456.59,852.168 L2456.35,854.651 L2456.26,857.15 L2456.46,859.648 L2457.08,862.036 L2457.89,864.36 L2458.96,866.59 L2460.26,868.74 L2461.65,870.812 L2463.14,872.82 L2464.73,874.749 L2466.39,876.631 L2468.13,878.434 L2469.94,880.173 L2471.79,881.881 L2473.65,883.557 L2475.57,885.17 L2477.54,886.72 L2479.6,888.159 L2481.67,889.582 L2483.76,890.958 L2485.89,892.302 L2488.04,893.599 L2490.22,894.832 L2492.44,896.002 L2494.7,897.109 L2496.99,898.121 L2499.33,899.054 L2501.71,899.86 L2504.12,900.525 L2506.59,901.046 L2509.06,901.489 L2511.54,901.869 L2514.04,902.169 L2516.54,902.359 L2519.04,902.422 L2521.55,902.359 L2524.05,902.153 L2526.53,901.821 L2528.98,901.379 L2531.43,900.825 L2533.84,900.161 L2536.21,899.354 L2538.53,898.469 L2540.86,897.504 L2543.14,896.477 L2545.4,895.401 L2547.63,894.263 L2549.84,893.093 L2552.04,891.875 L2554.2,890.61 L2556.36,889.329 L2558.51,888.017 L2560.62,886.672 L2562.73,885.313 L2564.81,883.921 L2566.89,882.498 L2568.94,881.075 L2570.98,879.604 L2573.01,878.133 L2575.01,876.615 L2577.01,875.097 L2578.97,873.548 L2580.93,871.966 L2582.84,870.369 L2584.76,868.74 L2586.64,867.096 L2588.5,865.42 L2590.32,863.696 L2592.09,861.941 L2593.85,860.17 L2595.57,858.351 L2597.25,856.501 L2598.88,854.619 L2600.46,852.69 L2602.02,850.729 L2603.54,848.737 L2605.04,846.729 L2606.51,844.705 L2607.98,842.681 L2609.44,840.641 L2610.89,838.585 L2612.33,836.545 L2613.8,834.505 L2615.27,832.465 L2616.76,830.457 L2618.28,828.465 L2619.83,826.488 L2621.43,824.559 L2623.09,822.677 L2624.81,820.874 L2626.66,819.198 L2628.64,817.728 L2630.69,816.384 L2632.86,815.229 L2635.09,814.233 L2637.38,813.411 L2639.75,812.762 L2642.17,812.288 L2644.64,812.003 L2647.14,811.861 L2649.65,811.829 L2652.17,811.845 L2654.66,811.845 L2657.16,811.782 L2659.61,811.576 L2662.03,811.165 L2664.39,810.533 L2666.67,809.663 L2668.86,808.54 L2670.95,807.212 L2672.93,805.694 L2674.83,804.065 L2676.64,802.342 L2678.42,800.571 L2680.19,798.784 L2681.99,797.044 L2683.84,795.368 L2685.78,793.803 L2687.84,792.395 L2690.02,791.193 L2692.33,790.26 L2694.75,789.644 L2697.22,789.296 L2699.72,789.138 L2702.23,789.154 L2704.74,789.28 L2707.24,789.486 L2709.74,789.77 L2711.62,790.033" vector-effect="none"/>
   <path fill-rule="evenodd" d="M2736.35,1172.43 L2736.34,1172.46 L2734.31,1172 L2731.9,1171.31 L2729.48,1170.64 L2727.04,1170.06 L2724.57,1169.6 L2722.08,1169.33 L2719.59,1169.38 L2717.21,1169.93 L2715.04,1171.02 L2713.11,1172.59 L2711.4,1174.42 L2709.8,1176.35 L2708.21,1178.28 L2706.55,1180.15 L2704.74,1181.9 L2702.8,1183.45 L2700.65,1184.68 L2698.37,1185.71 L2696,1186.52 L2693.6,1187.25 L2691.18,1187.94 L2688.76,1188.61 L2686.34,1189.29 L2683.92,1189.97 L2681.52,1190.69 L2679.13,1191.44 L2676.74,1192.26 L2674.4,1193.14 L2672.07,1194.11 L2669.81,1195.2 L2667.63,1196.42 L2665.56,1197.83 L2663.61,1199.41 L2661.8,1201.11 L2660.07,1202.93 L2658.44,1204.85 L2656.88,1206.79 L2655.36,1208.8 L2653.91,1210.84 L2652.45,1212.88 L2651.03,1214.95 L2649.6,1217.01 L2648.18,1219.06 L2646.71,1221.1 L2645.19,1223.09 L2643.58,1225.01 L2641.79,1226.75 L2639.74,1228.12 L2637.43,1229.04 L2634.98,1229.55 L2632.49,1229.85 L2630.09,1230.43 L2628.3,1231.82 L2627.51,1234.04 L2627.66,1236.54 L2628.16,1238.99 L2628.81,1241.41 L2629.59,1243.78 L2630.44,1246.12" vector-effect="none"/>
   <path fill-rule="evenodd" d="M2394.05,1431.83 L2395.36,1430.78 L2397.47,1429.42 L2399.58,1428.08 L2401.7,1426.75 L2403.82,1425.39 L2405.94,1424.05 L2408.04,1422.67 L2410.15,1421.29 L2412.22,1419.89 L2414.29,1418.48 L2416.35,1417.04 L2418.39,1415.57 L2420.39,1414.07 L2422.39,1412.53 L2424.33,1410.95 L2426.25,1409.32 L2428.08,1407.62 L2429.85,1405.83 L2431.53,1403.98 L2433.2,1402.1 L2434.85,1400.2 L2436.46,1398.29 L2438.04,1396.34 L2439.61,1394.38 L2441.13,1392.39 L2442.6,1390.35 L2444.02,1388.29 L2445.4,1386.19 L2446.69,1384.06 L2447.93,1381.86 L2449.05,1379.63 L2450.06,1377.33 L2450.93,1374.98 L2451.61,1372.57 L2452.08,1370.11 L2452.26,1367.61 L2452.07,1365.11 L2451.55,1362.68 L2450.71,1360.3 L2449.63,1358.04 L2448.38,1355.88 L2446.99,1353.79 L2445.49,1351.78 L2443.89,1349.84 L2442.23,1347.97 L2440.51,1346.15 L2438.72,1344.38 L2436.9,1342.66 L2435.05,1340.96 L2433.16,1339.32 L2431.24,1337.69 L2429.3,1336.11 L2427.34,1334.54 L2425.34,1333.01 L2423.35,1331.48 L2421.33,1330.01 L2419.24,1328.6 L2417.12,1327.25 L2414.97,1325.97 L2412.79,1324.72 L2410.59,1323.54 L2408.36,1322.38 L2406.1,1321.28 L2403.82,1320.22 L2401.53,1319.19 L2399.22,1318.21 L2396.9,1317.26 L2394.57,1316.34 L2392.22,1315.46 L2389.86,1314.6 L2387.49,1313.77 L2385.1,1312.98 L2382.71,1312.2 L2380.32,1311.41 L2377.94,1310.65 L2375.53,1309.94 L2373.11,1309.28 L2370.68,1308.64 L2368.23,1308.06 L2365.78,1307.52 L2363.33,1307.03 L2360.84,1306.57 L2358.36,1306.18 L2355.88,1305.83 L2353.38,1305.54 L2350.88,1305.32 L2348.38,1305.15 L2345.87,1305.05 L2343.35,1305.04 L2340.86,1305.1 L2338.34,1305.24 L2335.84,1305.43 L2333.36,1305.75 L2330.89,1306.27 L2328.47,1306.94 L2326.1,1307.74 L2323.76,1308.64 L2321.44,1309.59 L2319.13,1310.6 L2316.85,1311.65 L2314.57,1312.71 L2312.3,1313.75 L2310,1314.78 L2307.7,1315.77 L2305.37,1316.71 L2303,1317.53 L2300.56,1318.19 L2298.1,1318.64 L2295.6,1318.7 L2293.13,1318.23 L2290.95,1317.01 L2289.23,1315.22 L2287.91,1313.07 L2286.93,1310.76 L2286.16,1308.39 L2285.53,1305.97 L2284.99,1303.52 L2284.5,1301.05 L2284.05,1298.6 L2283.6,1296.13 L2283.15,1293.67 L2282.68,1291.2 L2282.14,1288.75 L2281.54,1286.33 L2280.83,1283.93 L2279.98,1281.57 L2278.95,1279.28 L2277.68,1277.13 L2276.21,1275.09 L2274.65,1273.13 L2273.02,1271.23 L2271.33,1269.36 L2269.62,1267.53 L2267.86,1265.74 L2266.08,1263.97 L2264.27,1262.23 L2262.45,1260.51 L2260.62,1258.8 L2258.75,1257.11 L2256.89,1255.43 L2255.01,1253.79 L2253.11,1252.14 L2251.2,1250.51 L2249.27,1248.9 L2247.34,1247.3" vector-effect="none"/>
   <path fill-rule="evenodd" d="M2505.28,781.279 L2505.66,781.895 L2506.5,784.252 L2507.29,786.623 L2508.11,788.995 L2508.96,791.352 L2509.86,793.676 L2510.85,796.001 L2511.89,798.278 L2513.04,800.491 L2514.36,802.626 L2515.92,804.587 L2517.72,806.311 L2519.7,807.845 L2521.84,809.173 L2524.08,810.296 L2526.39,811.276 L2528.73,812.161 L2531.1,812.984 L2533.49,813.774 L2535.88,814.581 L2538.25,815.387 L2540.62,816.194 L2543.06,816.858 L2545.48,817.506 L2547.9,818.202 L2550.3,818.882 L2552.72,819.562 L2555.14,820.242 L2557.56,820.922 L2559.98,821.57 L2562.41,822.203 L2564.85,822.804 L2567.3,823.373 L2569.75,823.895 L2572.22,824.369 L2574.7,824.796 L2577.18,825.16 L2579.68,825.444 L2582.18,825.634 L2584.69,825.713 L2587.21,825.666 L2589.7,825.492 L2592.2,825.207 L2594.69,824.844 L2597.17,824.432 L2599.64,823.974 L2602.1,823.468 L2604.55,822.93 L2607,822.361 L2609.44,821.76 L2611.87,821.143 L2614.29,820.511 L2616.71,819.847 L2619.13,819.167 L2621.55,818.455 L2623.96,817.743 L2626.36,817.016 L2628.76,816.257" vector-effect="none"/>
   <path fill-rule="evenodd" d="M1640.09,2087.51 L1640.07,2087.53 L1640.83,2088.75 L1642.27,2090.8 L1643.72,2092.84 L1645.19,2094.88 L1646.66,2096.91 L1648.15,2098.93 L1649.65,2100.94 L1651.17,2102.93 L1652.7,2104.92 L1654.25,2106.88 L1655.82,2108.84 L1657.42,2110.77 L1659.05,2112.69 L1660.69,2114.57 L1662.38,2116.44 L1664.12,2118.24 L1665.91,2119.98 L1667.79,2121.64 L1669.77,2123.17 L1671.82,2124.58 L1673.99,2125.81 L1676.23,2126.95 L1678.51,2127.98 L1680.84,2128.96 L1683.18,2129.88 L1685.52,2130.76 L1687.87,2131.62 L1690.24,2132.47 L1692.6,2133.31 L1694.96,2134.18 L1697.31,2135.06 L1699.64,2136.01 L1701.93,2137.02 L1704.14,2138.18 L1706.23,2139.52 L1708,2141.15 L1709.25,2143.05 L1709.76,2145.06 L1709.57,2147.16 L1708.57,2149.28 L1707.01,2151.19 L1705.2,2152.92 L1703.29,2154.53 L1701.31,2156.08 L1699.32,2157.6 L1697.31,2159.1 L1695.3,2160.62 L1693.34,2162.17 L1691.4,2163.76 L1689.53,2165.42 L1687.75,2167.18 L1686.1,2169.06 L1684.63,2171.05 L1683.32,2173.17 L1682.2,2175.4 L1681.18,2177.68 L1680.31,2180.02 L1679.57,2182.41 L1678.94,2184.83 L1678.37,2187.26 L1677.85,2189.71 L1677.37,2192.16 L1676.9,2194.63 L1676.41,2197.08 L1675.89,2199.55 L1675.32,2201.98 L1674.68,2204.4 L1673.97,2206.81 L1673.18,2209.18 L1672.31,2211.52 L1671.35,2213.84 L1670.29,2216.1 L1669.17,2218.35 L1667.98,2220.56 L1666.75,2222.75 L1665.5,2224.91 L1664.23,2227.08 L1662.95,2229.23 L1661.69,2231.4 L1660.42,2233.56 L1659.2,2235.76 L1658.02,2237.96 L1656.88,2240.19 L1655.82,2242.46 L1654.82,2244.76 L1653.94,2247.11 L1653.26,2249.52 L1653.23,2249.64" vector-effect="none"/>
   <path fill-rule="evenodd" d="M1265.89,1722.52 L1265.46,1722.88 L1263.78,1724.75 L1262.09,1726.6 L1260.38,1728.43 L1258.64,1730.25 L1256.9,1732.05 L1255.13,1733.84 L1253.36,1735.59 L1251.56,1737.35 L1249.74,1739.09 L1247.91,1740.8 L1246.06,1742.47 L1244.16,1744.13 L1242.25,1745.75 L1240.28,1747.33 L1238.29,1748.83 L1236.22,1750.25 L1234.13,1751.66 L1231.98,1752.93 L1229.74,1754.06 L1227.43,1755.04 L1225.06,1755.9 L1222.67,1756.64 L1220.25,1757.31 L1217.81,1757.92 L1215.36,1758.51 L1212.93,1759.09 L1210.49,1759.71 L1208.07,1760.36 L1205.67,1761.1 L1203.3,1761.94 L1200.99,1762.92 L1198.76,1764.07 L1196.66,1765.42 L1194.66,1766.94 L1192.83,1768.63 L1191.11,1770.46 L1189.49,1772.38 L1187.98,1774.37 L1186.5,1776.41 L1185.07,1778.46 L1183.66,1780.53 L1182.25,1782.61 L1180.81,1784.66 L1179.34,1786.69 L1177.78,1788.66 L1176.13,1790.53 L1174.31,1792.27 L1172.32,1793.77 L1170.12,1794.94 L1167.75,1795.64 L1165.25,1795.78 L1162.75,1795.53 L1160.3,1794.97 L1157.9,1794.24 L1155.53,1793.42 L1153.17,1792.55 L1150.83,1791.67 L1148.46,1790.83 L1146.07,1790.09 L1143.64,1789.49 L1141.15,1789.14 L1138.67,1789.18 L1136.24,1789.67 L1133.86,1790.51 L1131.59,1791.54 L1129.36,1792.7 L1127.16,1793.93 L1125.01,1795.21 L1122.86,1796.49 L1120.69,1797.77 L1118.49,1798.99 L1116.26,1800.13 L1113.97,1801.14 L1111.6,1801.96 L1109.16,1802.63 L1106.7,1803.04 L1104.2,1803.23 L1101.68,1803.16 L1099.19,1802.91 L1096.7,1802.55 L1094.22,1802.14 L1091.74,1801.76 L1089.25,1801.46 L1086.76,1801.34 L1084.26,1801.52 L1081.81,1801.98 L1079.48,1802.85 L1077.3,1804.03 L1075.34,1805.58 L1073.52,1807.31 L1071.81,1809.14 L1070.15,1811.02 L1068.48,1812.89 L1066.75,1814.72 L1064.92,1816.41 L1062.88,1817.85 L1060.55,1818.69 L1058.07,1818.57 L1055.81,1817.51 L1053.91,1815.88 L1052.25,1814.01 L1050.75,1812 L1049.34,1809.93 L1048,1807.81 L1046.69,1805.69 L1045.37,1803.56 L1044.05,1801.42 L1042.67,1799.34 L1041.23,1797.28 L1039.71,1795.29 L1038.05,1793.41 L1036.22,1791.7 L1034.18,1790.23 L1032.01,1788.96 L1029.75,1787.87 L1027.43,1786.92 L1025.05,1786.1 L1022.65,1785.36 L1020.23,1784.69 L1017.81,1784.05 L1015.38,1783.43 L1012.94,1782.78 L1010.52,1782.1 L1008.13,1781.34 L1005.78,1780.49 L1003.48,1779.48 L1001.26,1778.31 L999.073,1777.06 L996.986,1775.68 L994.962,1774.18 L993.001,1772.61 L991.103,1770.98 L989.206,1769.34 L987.308,1767.69 L985.395,1766.08 L983.418,1764.52 L981.378,1763.06 L979.244,1761.75 L977.014,1760.63 L974.674,1759.76 L972.191,1759.35 L969.692,1759.23 L967.178,1759.33 L964.68,1759.57 L962.181,1759.88 L959.699,1760.22 L957.2,1760.53 L954.702,1760.77 L952.203,1760.86 L949.689,1760.77 L947.206,1760.41 L944.787,1759.74 L942.494,1758.73 L940.407,1757.34 L938.462,1755.76 L936.627,1754.05 L934.872,1752.25 L933.196,1750.38 L931.551,1748.5 L929.939,1746.57 L928.326,1744.64 L926.728,1742.73 L925.1,1740.81 L923.455,1738.92 L921.763,1737.06 L920.024,1735.25 L918.221,1733.51 L916.339,1731.86 L914.363,1730.31 L912.275,1728.91 L910.062,1727.74 L907.753,1726.74 L905.397,1725.85 L903.009,1725.09 L900.59,1724.41 L898.154,1723.78 L895.719,1723.2 L893.268,1722.64 L890.817,1722.09 L888.366,1721.54 L885.931,1720.94 L883.512,1720.29 L881.108,1719.56 L878.736,1718.71 L876.443,1717.69 L874.261,1716.44 L872.268,1714.94 L870.561,1713.14 L869.185,1711.07 L868.189,1708.78 L867.477,1706.39 L866.987,1703.94 L866.623,1701.45 L866.291,1698.97 L865.88,1696.5 L865.311,1694.07 L864.473,1691.73 L863.318,1689.53 L861.895,1687.48 L860.219,1685.61 L858.385,1683.9 L857.523,1683.2" vector-effect="none"/>
   <path fill-rule="evenodd" d="M2713.62,1395.22 L2712.78,1395.03 L2710.58,1393.83 L2708.43,1392.55 L2706.28,1391.25 L2704.13,1389.95 L2701.96,1388.69 L2699.78,1387.45 L2697.58,1386.25 L2695.35,1385.1 L2693.07,1384.02 L2690.77,1383.04 L2688.41,1382.22 L2685.99,1381.54 L2683.52,1381.13 L2681.01,1381.02 L2678.51,1381.13 L2676.01,1381.41 L2673.53,1381.79 L2671.06,1382.25 L2668.61,1382.77 L2666.14,1383.31 L2663.69,1383.85 L2661.24,1384.36 L2658.76,1384.77 L2656.28,1384.97 L2653.78,1384.96 L2651.36,1384.34 L2649.13,1383.23 L2647.06,1381.83 L2645.05,1380.32 L2642.84,1379.33 L2640.72,1379.86 L2639.12,1381.73 L2638.03,1383.99 L2637.14,1386.33 L2636.38,1388.72 L2635.74,1391.14" vector-effect="none"/>
   <path fill-rule="evenodd" d="M2872.33,962.48 L2872.08,960.646 L2871.65,958.179 L2871.21,955.712 L2870.75,953.245 L2870.29,950.778 L2869.78,948.327 L2869.26,945.876 L2868.69,943.441 L2868.09,941.006 L2867.43,938.587 L2866.72,936.183 L2865.93,933.811 L2865.04,931.471 L2864,929.178 L2862.76,927.011 L2861.28,924.987 L2859.6,923.137 L2857.78,921.398 L2855.89,919.753 L2853.94,918.188 L2851.95,916.654 L2849.94,915.152 L2847.92,913.665 L2845.89,912.179 L2843.9,910.661 L2841.92,909.111 L2840.04,907.467 L2838.29,905.664 L2836.91,903.592 L2836.58,901.157 L2837.94,899.101 L2839.99,897.678 L2842.25,896.571 L2844.56,895.607 L2846.9,894.69 L2849.24,893.788 L2851.57,892.824 L2853.85,891.78 L2856.03,890.547 L2858.02,889.029 L2859.59,887.084 L2860.69,884.838 L2861.58,882.482 L2862.32,880.094 L2862.95,877.659 L2863.52,875.224 L2864.01,872.773 L2864.47,870.306 L2864.68,869.013" vector-effect="none"/>
   <path fill-rule="evenodd" d="M1193.75,1280.65 L1193.15,1279.83 L1191.64,1277.82 L1190.13,1275.83 L1188.58,1273.85 L1187.01,1271.89 L1185.43,1269.95 L1183.82,1268.04 L1182.17,1266.14 L1180.5,1264.27 L1178.77,1262.45 L1177.02,1260.67 L1175.18,1258.94 L1173.29,1257.3 L1171.26,1255.83 L1169.11,1254.58 L1166.83,1253.53 L1164.48,1252.68 L1162.06,1251.97 L1159.62,1251.35 L1157.17,1250.83 L1154.7,1250.36 L1152.24,1249.91 L1149.76,1249.49 L1147.29,1249.03 L1144.82,1248.54 L1142.39,1247.95 L1139.98,1247.21 L1137.69,1246.24 L1135.54,1244.95 L1133.59,1243.38 L1131.84,1241.6 L1130.32,1239.6 L1129.12,1237.42 L1128.27,1235.06 L1127.73,1232.61 L1127.44,1230.13 L1127.35,1227.63 L1127.43,1225.12 L1127.82,1222.65 L1128.42,1220.22 L1129.14,1217.81 L1129.94,1215.44 L1130.78,1213.08 L1131.62,1210.71 L1132.44,1208.36 L1133.23,1205.97 L1133.96,1203.57 L1134.57,1201.15 L1135.07,1198.68 L1135.37,1196.2 L1135.41,1193.7 L1135.22,1191.2 L1134.88,1188.73 L1134.32,1186.28 L1133.61,1183.88 L1132.77,1181.52 L1131.85,1179.2 L1130.86,1176.89 L1129.85,1174.6 L1128.83,1172.3 L1127.82,1170.01 L1126.87,1167.69 L1125.97,1165.35 L1125.18,1162.97 L1124.45,1160.59 L1123.77,1158.17 L1123.24,1155.72 L1122.76,1153.25 L1122.37,1150.78 L1122,1148.3 L1121.67,1145.82 L1121.34,1143.33 L1121.01,1140.85 L1120.64,1138.37 L1120.25,1135.9 L1119.77,1133.43 L1119.22,1131 L1118.56,1128.58 L1117.78,1126.19 L1116.86,1123.87 L1115.84,1121.59 L1114.73,1119.35 L1113.54,1117.13 L1112.26,1114.96 L1110.92,1112.86 L1109.5,1110.79 L1108.02,1108.77 L1106.48,1106.79 L1104.89,1104.84 L1103.25,1102.95 L1101.57,1101.1 L1099.85,1099.28 L1098.08,1097.49 L1096.26,1095.77 L1094.41,1094.08 L1092.51,1092.43 L1090.54,1090.9 L1088.43,1089.54 L1086.2,1088.4 L1083.89,1087.47 L1081.52,1086.66 L1079.1,1085.95 L1076.68,1085.3 L1074.25,1084.67 L1071.81,1084.05 L1071.05,1083.84" vector-effect="none"/>
   <path fill-rule="evenodd" d="M1068.23,1049.91 L1069.09,1047.79 L1069.87,1045.4 L1070.39,1042.95 L1070.63,1040.47 L1070.63,1037.97 L1070.5,1035.46 L1070.25,1032.97 L1069.95,1030.48 L1069.57,1028.01 L1069.14,1025.53 L1069.03,1024.93" vector-effect="none"/>
   <path fill-rule="evenodd" d="M2599.11,551.626 L2600.47,551.99 L2602.66,553.192 L2604.81,554.488 L2606.96,555.785 L2609.12,557.05 L2611.35,558.22 L2613.65,559.232 L2616.03,559.96 L2618.52,559.944 L2620.84,559.027 L2622.93,557.635 L2624.86,556.038 L2626.75,554.393 L2628.67,552.781 L2630.69,551.294 L2632.95,550.235 L2635.39,550.156 L2637.59,551.168 L2639.25,553.034 L2640.56,555.168 L2641.73,557.382 L2642.84,559.628 L2643.97,561.873 L2645.18,564.055 L2646.55,566.158 L2648.2,568.04 L2650.28,569.416 L2652.26,570.165" vector-effect="none"/>
   <path fill-rule="evenodd" d="M1307.81,1848.86 L1307.71,1849.18 L1306.3,1851.23 L1304.82,1853.26 L1303.32,1855.27 L1301.83,1857.29 L1300.34,1859.32 L1298.89,1861.36 L1297.45,1863.41 L1296.03,1865.47 L1294.65,1867.57 L1293.29,1869.67 L1291.99,1871.82 L1290.76,1874.01 L1289.61,1876.22 L1288.56,1878.5 L1287.61,1880.82 L1286.85,1883.21 L1286.28,1885.64 L1285.89,1888.11 L1285.65,1890.61 L1285.51,1893.11 L1285.45,1895.61 L1285.43,1898.12 L1285.46,1900.62 L1285.49,1903.13 L1285.53,1905.63 L1285.51,1908.15 L1285.45,1910.64 L1285.29,1913.14 L1285,1915.63 L1284.56,1918.09 L1283.98,1920.51 L1283.2,1922.9 L1282.24,1925.19 L1281.1,1927.42 L1279.85,1929.59 L1278.49,1931.71 L1277.1,1933.78 L1275.67,1935.85 L1274.25,1937.92 L1272.88,1940.01 L1271.56,1942.14 L1270.38,1944.36 L1269.36,1946.63 L1268.57,1949.01 L1267.97,1951.43 L1267.56,1953.91 L1267.25,1956.39 L1267.01,1958.87 L1266.85,1961.39 L1266.79,1963.89 L1266.83,1966.39 L1266.96,1968.9 L1267.2,1971.38 L1267.56,1973.86 L1268.05,1976.33 L1268.67,1978.75 L1269.46,1981.12 L1270.41,1983.45 L1271.58,1985.66 L1272.89,1987.8 L1274.31,1989.85 L1275.83,1991.84 L1277.45,1993.77 L1279.12,1995.64 L1280.86,1997.44 L1282.66,1999.2 L1284.5,2000.91 L1286.38,2002.55 L1288.29,2004.18 L1290.25,2005.74 L1292.25,2007.28 L1294.25,2008.78 L1296.31,2010.22 L1298.38,2011.64 L1300.49,2013 L1302.76,2014.06 L1305.13,2014.87 L1307.57,2015.47 L1310.05,2015.91 L1312.53,2016.23 L1315.03,2016.48 L1317.55,2016.69 L1320.05,2016.88 L1322.54,2017.08 L1325.04,2017.33 L1327.54,2017.67 L1330.01,2018.14 L1332.43,2018.79 L1334.78,2019.66 L1337,2020.83 L1339.01,2022.33 L1340.68,2024.18 L1342.1,2026.24 L1343.26,2028.45 L1344.21,2030.76 L1345,2033.13 L1345.66,2035.55 L1346.25,2037.99 L1346.79,2040.44 L1347.28,2042.89 L1347.75,2045.34 L1348.24,2047.81 L1348.76,2050.26 L1349.32,2052.69 L1349.95,2055.13 L1350.66,2057.53 L1351.5,2059.89 L1352.49,2062.18 L1353.7,2064.39 L1355.07,2066.48 L1356.56,2068.51 L1358.12,2070.47 L1359.74,2072.38 L1361.38,2074.28 L1363.07,2076.13 L1364.78,2077.96 L1366.52,2079.78 L1368.28,2081.57 L1370.05,2083.34 L1371.83,2085.09 L1373.64,2086.85 L1375.45,2088.57 L1377.29,2090.3 L1379.12,2092 L1380.97,2093.7 L1382.84,2095.37 L1384.72,2097.03" vector-effect="none"/>
   <path fill-rule="evenodd" d="M1244.16,2223.19 L1244.43,2222.73 L1245.19,2220.33 L1245.91,2217.94 L1246.64,2215.54 L1247.35,2213.13 L1248.06,2210.73 L1248.73,2208.32 L1249.39,2205.91 L1250.03,2203.47 L1250.63,2201.03 L1251.2,2198.6 L1251.72,2196.15 L1252.21,2193.7 L1252.63,2191.21 L1252.98,2188.75 L1253.24,2186.25 L1253.35,2183.75 L1253.27,2181.25 L1253,2178.77 L1252.54,2176.32 L1251.94,2173.88 L1251.26,2171.46 L1250.5,2169.08 L1249.69,2166.7 L1248.86,2164.35 L1248,2161.99 L1247.15,2159.64 L1246.29,2157.28 L1245.47,2154.91 L1244.7,2152.52 L1244.02,2150.12 L1243.49,2147.67 L1243.24,2145.18 L1243.54,2142.75 L1244.84,2140.82 L1246.94,2139.76 L1249.42,2139.62 L1251.92,2139.9 L1254.37,2140.41 L1256.83,2140.99 L1259.24,2141.61 L1261.68,2142.24 L1264.12,2142.84 L1266.57,2143.4 L1269.03,2143.84 L1271.53,2144.12 L1274.05,2144.16 L1276.51,2143.78 L1278.88,2142.97 L1281.16,2141.93 L1283.34,2140.69 L1285.45,2139.33 L1287.5,2137.88 L1289.51,2136.39 L1291.5,2134.87 L1293.51,2133.36 L1295.54,2131.87 L1297.61,2130.46 L1299.76,2129.16 L1302,2128.06 L1304.36,2127.17 L1306.75,2126.43 L1309.21,2125.97 L1311.71,2125.72 L1314.21,2125.61 L1316.72,2125.56 L1319.24,2125.45 L1321.74,2125.21 L1324.17,2124.69 L1326.48,2123.77 L1328.52,2122.37 L1330.13,2120.45 L1331.38,2118.27 L1332.43,2115.99 L1333.36,2113.67 L1334.26,2111.33 L1335.16,2109 L1336.19,2106.71 L1337.47,2104.58 L1339.37,2102.99 L1341.79,2103.2 L1343.75,2104.75 L1345.41,2106.62 L1346.91,2108.62 L1348.34,2110.7 L1349.7,2112.8 L1351.02,2114.92 L1352.37,2117.05 L1353.71,2119.15 L1355.07,2121.27 L1356.48,2123.35 L1357.93,2125.39 L1359.47,2127.36 L1361.11,2129.26 L1362.9,2131.01 L1364.89,2132.53 L1367.06,2133.81 L1369.27,2134.98 L1371.55,2136.06 L1373.84,2137.06 L1376.17,2138.02 L1378.51,2138.92 L1380.86,2139.79 L1383.23,2140.61 L1385.61,2141.42 L1387.99,2142.19 L1390.4,2142.94 L1392.79,2143.67 L1395.21,2144.36 L1397.61,2145.04" vector-effect="none"/>
   <path fill-rule="evenodd" d="M1961.82,2065.03 L1960.16,2066.04 L1958.02,2067.37 L1955.9,2068.7 L1953.8,2070.06 L1951.7,2071.45 L1949.61,2072.84 L1947.54,2074.26 L1945.48,2075.7 L1943.46,2077.17 L1941.43,2078.67 L1939.46,2080.19 L1937.5,2081.77 L1935.57,2083.39 L1933.7,2085.06 L1931.9,2086.8 L1930.21,2088.65 L1928.71,2090.55" vector-effect="none"/>
   <path fill-rule="evenodd" d="M920.34,2049.7 L918.427,2048.19 L916.608,2046.48 L914.774,2044.75 L912.924,2043.05 L911.074,2041.37 L909.176,2039.73 L907.231,2038.13 L905.254,2036.6 L903.215,2035.12 L901.096,2033.78 L898.866,2032.63 L896.494,2031.87 L893.996,2031.6 L891.481,2031.65 L888.983,2031.9 L886.5,2032.29 L884.033,2032.72 L881.551,2033.15 L879.068,2033.5 L876.57,2033.7 L874.055,2033.7 L871.557,2033.39 L869.153,2032.71 L866.86,2031.69 L864.71,2030.38 L862.733,2028.86 L860.851,2027.19 L859.049,2025.45 L857.294,2023.66 L855.538,2021.86 L853.767,2020.09 L851.949,2018.35 L850.067,2016.7 L848.075,2015.17 L845.956,2013.82 L843.71,2012.72 L841.322,2011.93 L838.856,2011.47 L836.357,2011.28 L833.843,2011.26 L831.329,2011.39 L828.83,2011.59 L826.332,2011.83 L823.833,2012.05 L821.319,2012.23 L818.82,2012.29 L816.306,2012.15 L813.824,2011.74 L811.452,2010.93 L809.348,2009.59 L807.514,2007.88 L805.949,2005.92 L804.589,2003.81 L803.371,2001.63 L802.248,1999.39 L801.141,1997.14 L800.035,1994.9 L798.864,1992.67 L797.599,1990.52 L796.145,1988.48 L794.437,1986.63 L792.413,1985.16 L790.215,1983.94 L787.938,1982.89 L787.294,1982.64" vector-effect="none"/>
   <path fill-rule="evenodd" d="M1994.55,2117.54 L1995.02,2119.28 L1995.51,2121.73 L1996,2124.2 L1996.5,2126.65 L1997.02,2129.1 L1997.57,2131.55 L1998.16,2133.99 L1998.79,2136.41 L1999.48,2138.83 L1999.51,2138.9" vector-effect="none"/>
   <path fill-rule="evenodd" d="M939.616,1923.06 L938.999,1922.43 L937.545,1920.39 L936.121,1918.31 L934.714,1916.24 L933.307,1914.17 L931.884,1912.1 L930.476,1910.04 L929.037,1907.97 L927.598,1905.92 L926.143,1903.88 L924.673,1901.85 L923.186,1899.83 L921.684,1897.82 L920.15,1895.83 L918.585,1893.87 L917.003,1891.94 L915.359,1890.02 L913.667,1888.17 L911.88,1886.43 L909.951,1884.82 L907.958,1883.3 L905.887,1881.88 L903.784,1880.52 L901.633,1879.22 L899.451,1877.99 L897.237,1876.8 L895.008,1875.65 L892.762,1874.54 L890.501,1873.44 L888.24,1872.35 L885.978,1871.25 L883.717,1870.16 L881.472,1869.06 L879.226,1867.92 L877.012,1866.73 L874.814,1865.51 L872.664,1864.23 L870.561,1862.86 L868.505,1861.42 L866.56,1859.85 L864.678,1858.19 L862.86,1856.47 L861.089,1854.68 L859.365,1852.86 L857.673,1851.01 L855.981,1849.15 L854.289,1847.3 L852.581,1845.46 L850.826,1843.68 L848.992,1841.95 L847.094,1840.32 L845.086,1838.81 L842.967,1837.49 L840.674,1836.48 L838.286,1835.69 L835.851,1835.07 L833.384,1834.58 L830.917,1834.17 L828.419,1833.86 L825.92,1833.57 L823.422,1833.33 L820.924,1833.1 L818.425,1832.84 L815.927,1832.58 L813.444,1832.23 L810.977,1831.78 L808.526,1831.18 L806.17,1830.33 L803.956,1829.19 L801.901,1827.78 L800.05,1826.09 L798.39,1824.23 L796.84,1822.25 L795.291,1820.29 L793.535,1818.5 L791.432,1817.16 L789.029,1816.46 L786.53,1816.26 L785.318,1816.36" vector-effect="none"/>
   <path fill-rule="evenodd" d="M2729.87,881.77 L2729.87,881.755 L2731.67,881.644 L2734.14,882.023 L2736.61,882.498 L2739.06,882.988 L2741.53,883.478 L2743.99,883.937 L2746.47,884.332 L2748.96,884.68 L2751.46,884.933 L2753.97,885.06 L2756.47,884.949 L2758.94,884.569 L2761.37,883.937 L2763.73,883.099 L2766,882.039 L2768.2,880.853 L2770.35,879.557 L2772.46,878.197 L2774.54,876.805 L2776.63,875.398 L2778.73,874.022 L2780.85,872.678 L2783.03,871.46 L2785.31,870.401 L2787.59,869.357 L2789.9,868.377 L2792.24,867.46 L2794.59,866.574 L2796.93,865.704 L2799.27,864.803 L2801.6,863.823 L2803.86,862.747 L2806.06,861.546 L2808.13,860.154 L2810.04,858.541 L2811.64,856.612 L2811.98,856.07" vector-effect="none"/>
   <path fill-rule="evenodd" d="M2252.04,237.392 L2252.97,239.082 L2254.34,241.169 L2256.05,242.94 L2258.2,244.158 L2260.64,244.711 L2263.13,244.964 L2265.65,245.059 L2268.16,245.075 L2270.66,245.075 L2273.18,245.122 L2275.67,245.312 L2277.98,246.182 L2277.82,248.443 L2276.1,250.262 L2274.16,251.843 L2272.15,253.345 L2270.11,254.816 L2268.1,256.302 L2266.11,257.836 L2264.18,259.449 L2262.36,261.173 L2260.95,262.871" vector-effect="none"/>
  </g>
  <g stroke-linejoin="bevel" transform="matrix(0.999751,0,0,0.999751,0,0)" font-weight="400" font-style="normal" fill="none" stroke="#000000" stroke-width="1" stroke-linecap="square" font-size="32.5" font-family="MS Shell Dlg 2" stroke-opacity="1"/>
  <g stroke-linejoin="bevel" transform="matrix(11.8081,0,0,11.8081,0,0)" font-weight="400" font-style="normal" fill="none" stroke="#000000" stroke-width="1" stroke-linecap="square" font-size="32.5" font-family="MS Shell Dlg 2" stroke-opacity="1"/>
  <g stroke-linejoin="bevel" transform="matrix(11.8081,0,0,11.8081,0,0)" font-weight="400" font-style="normal" fill="none" stroke="#000000" stroke-width="1" stroke-linecap="square" font-size="32.5" font-family="MS Shell Dlg 2" stroke-opacity="1"/>
  <g stroke-linejoin="bevel" transform="matrix(11.8081,0,0,11.8081,0,0)" font-weight="400" font-style="normal" fill="none" stroke="#000000" stroke-width="1" stroke-linecap="square" font-size="32.5" font-family="MS Shell Dlg 2" stroke-opacity="1"/>
  <g stroke-linejoin="bevel" transform="matrix(1,0,0,1,0,0)" font-weight="400" font-style="normal" fill="none" stroke="#000000" stroke-width="1" stroke-linecap="square" font-size="32.5" font-family="MS Shell Dlg 2" stroke-opacity="1"/>
  <g stroke-linejoin="bevel" transform="matrix(11.8081,0,0,11.8081,0,0)" font-weight="400" font-style="normal" fill="none" stroke="#000000" stroke-width="1" stroke-linecap="square" font-size="32.5" font-family="MS Shell Dlg 2" stroke-opacity="1"/>
  <g stroke-linejoin="bevel" transform="matrix(11.8081,0,0,11.8081,0,0)" font-weight="400" font-style="normal" fill="none" stroke="#000000" stroke-width="1" stroke-linecap="square" font-size="32.5" font-family="MS Shell Dlg 2" stroke-opacity="1"/>
  <g stroke-linejoin="bevel" transform="matrix(1,0,0,1,0,0)" font-weight="400" font-style="normal" fill="none" stroke="#000000" stroke-width="1" stroke-linecap="square" font-size="32.5" font-family="MS Shell Dlg 2" stroke-opacity="1"/>
 </g>
</svg>
