<?xml version='1.0' encoding='UTF-8' standalone='no'?>
<svg height="209.973mm" width="296.926mm" viewBox="0 0 3507 2480" xmlns:xlink="http://www.w3.org/1999/xlink" xmlns:inkscape="http://www.inkscape.org/namespaces/inkscape" xmlns="http://www.w3.org/2000/svg" version="1.2" baseProfile="tiny">
 <defs/>
 <g stroke-linejoin="bevel" inkscape:label="Page" inkscape:groupmode="layer" fill="none" stroke="black" fill-rule="evenodd" stroke-width="1" stroke-linecap="square" id="Page">
  <g stroke-linejoin="bevel" transform="matrix(1,0,0,1,0,0)" font-weight="400" font-style="normal" fill="none" stroke="#000000" stroke-width="1" stroke-linecap="square" font-size="32.5" font-family="MS Shell Dlg 2" stroke-opacity="1"/>
  <g stroke-linejoin="bevel" transform="matrix(1,0,0,1,0,0)" font-weight="400" font-style="normal" fill="none" stroke="#000000" stroke-width="1" stroke-linecap="square" font-size="32.5" font-family="MS Shell Dlg 2" stroke-opacity="1"/>
  <g stroke-linejoin="bevel" transform="matrix(11.8081,0,0,11.8081,0,0)" font-weight="400" font-style="normal" fill="none" stroke="#000000" stroke-width="1" stroke-linecap="square" font-size="32.5" font-family="MS Shell Dlg 2" stroke-opacity="1"/>
  <g stroke-linejoin="bevel" transform="matrix(0.999751,0,0,0.999751,0,0)" font-weight="400" font-style="normal" fill="none" stroke="#000000" stroke-width="1" stroke-linecap="square" font-size="32.5" font-family="MS Shell Dlg 2" stroke-opacity="1"/>
  <g transform="matrix(0.999751,0,0,0.999751,0,0)" font-weight="400" font-style="normal" fill="#ffffff" stroke="none" fill-opacity="1" font-size="32.5" font-family="MS Shell Dlg 2">
   <path fill-rule="evenodd" d="M-2,-2 L3510,-2 L3510,2483 L-2,2483 L-2,-2" vector-effect="none"/>
  </g>
  <g stroke-linejoin="bevel" transform="matrix(0.999751,0,0,0.999751,0,0)" font-weight="400" font-style="normal" fill="none" stroke="#000000" stroke-width="1" stroke-linecap="square" font-size="32.5" font-family="MS Shell Dlg 2" stroke-opacity="1"/>
  <g stroke-linejoin="bevel" transform="matrix(11.8081,0,0,11.8081,0,0)" font-weight="400" font-style="normal" fill="none" stroke="#000000" stroke-width="1" stroke-linecap="square" font-size="32.5" font-family="MS Shell Dlg 2" stroke-opacity="1"/>
  <g stroke-linejoin="bevel" transform="matrix(11.8081,0,0,11.8081,0,0)" font-weight="400" font-style="normal" fill="none" stroke="#000000" stroke-width="1" stroke-linecap="square" font-size="32.5" font-family="MS Shell Dlg 2" stroke-opacity="1"/>
  <g stroke-linejoin="bevel" transform="matrix(1,0,0,1,0,0)" font-weight="400" font-style="normal" fill="none" stroke="#000000" stroke-width="1" stroke-linecap="square" font-size="32.5" font-family="MS Shell Dlg 2" stroke-opacity="1"/>
 </g>
 <defs/>
 <g stroke-linejoin="bevel" inkscape:label="Map 1: Background" inkscape:groupmode="layer" fill="none" stroke="black" fill-rule="evenodd" stroke-width="1" stroke-linecap="square" id="Map 1: Background">
  <g stroke-linejoin="bevel" transform="matrix(1,0,0,1,0,0)" font-weight="400" font-style="normal" fill="none" stroke="#000000" stroke-width="1" stroke-linecap="square" font-size="32.5" font-family="MS Shell Dlg 2" stroke-opacity="1"/>
  <g stroke-linejoin="bevel" transform="matrix(1,0,0,1,0,0)" font-weight="400" font-style="normal" fill="none" stroke="#000000" stroke-width="1" stroke-linecap="square" font-size="32.5" font-family="MS Shell Dlg 2" stroke-opacity="1"/>
  <g stroke-linejoin="bevel" transform="matrix(11.8081,0,0,11.8081,0,0)" font-weight="400" font-style="normal" fill="none" stroke="#000000" stroke-width="1" stroke-linecap="square" font-size="32.5" font-family="MS Shell Dlg 2" stroke-opacity="1"/>
  <g transform="matrix(11.8081,0,0,11.8081,0,0)" font-weight="400" font-style="normal" fill="#ffffff" stroke="none" fill-opacity="1" font-size="32.5" font-family="MS Shell Dlg 2">
   <path fill-rule="evenodd" d="M0,0 L297,0 L297,210 L0,210 L0,0" vector-effect="none"/>
  </g>
  <g stroke-linejoin="bevel" transform="matrix(11.8081,0,0,11.8081,0,0)" font-weight="400" font-style="normal" fill="none" stroke="#000000" stroke-width="1" stroke-linecap="square" font-size="32.5" font-family="MS Shell Dlg 2" stroke-opacity="1"/>
  <g stroke-linejoin="bevel" transform="matrix(11.8081,0,0,11.8081,0,0)" font-weight="400" font-style="normal" fill="none" stroke="#000000" stroke-width="1" stroke-linecap="square" font-size="32.5" font-family="MS Shell Dlg 2" stroke-opacity="1"/>
  <g stroke-linejoin="bevel" transform="matrix(11.8081,0,0,11.8081,0,0)" font-weight="400" font-style="normal" fill="none" stroke="#000000" stroke-width="1" stroke-linecap="square" font-size="32.5" font-family="MS Shell Dlg 2" stroke-opacity="1"/>
  <g stroke-linejoin="bevel" transform="matrix(11.8081,0,0,11.8081,0,0)" font-weight="400" font-style="normal" fill="none" stroke="#000000" stroke-width="1" stroke-linecap="square" font-size="32.5" font-family="MS Shell Dlg 2" stroke-opacity="1"/>
  <g stroke-linejoin="bevel" transform="matrix(1,0,0,1,0,0)" font-weight="400" font-style="normal" fill="none" stroke="#000000" stroke-width="1" stroke-linecap="square" font-size="32.5" font-family="MS Shell Dlg 2" stroke-opacity="1"/>
  <g stroke-linejoin="bevel" transform="matrix(11.8081,0,0,11.8081,0,0)" font-weight="400" font-style="normal" fill="none" stroke="#000000" stroke-width="1" stroke-linecap="square" font-size="32.5" font-family="MS Shell Dlg 2" stroke-opacity="1"/>
  <g stroke-linejoin="bevel" transform="matrix(11.8081,0,0,11.8081,0,0)" font-weight="400" font-style="normal" fill="none" stroke="#000000" stroke-width="1" stroke-linecap="square" font-size="32.5" font-family="MS Shell Dlg 2" stroke-opacity="1"/>
  <g stroke-linejoin="bevel" transform="matrix(1,0,0,1,0,0)" font-weight="400" font-style="normal" fill="none" stroke="#000000" stroke-width="1" stroke-linecap="square" font-size="32.5" font-family="MS Shell Dlg 2" stroke-opacity="1"/>
 </g>
 <defs/>
 <g stroke-linejoin="bevel" inkscape:label="Map 1: UnAStrongholdLand" inkscape:groupmode="layer" fill="none" stroke="black" fill-rule="evenodd" stroke-width="1" stroke-linecap="square" id="Map 1: UnAStrongholdLand">
  <g stroke-linejoin="bevel" transform="matrix(1,0,0,1,0,0)" font-weight="400" font-style="normal" fill="none" stroke="#000000" stroke-width="1" stroke-linecap="square" font-size="32.5" font-family="MS Shell Dlg 2" stroke-opacity="1"/>
  <g stroke-linejoin="bevel" transform="matrix(1,0,0,1,0,0)" font-weight="400" font-style="normal" fill="none" stroke="#000000" stroke-width="1" stroke-linecap="square" font-size="32.5" font-family="MS Shell Dlg 2" stroke-opacity="1"/>
  <g stroke-linejoin="bevel" transform="matrix(11.8081,0,0,11.8081,0,0)" font-weight="400" font-style="normal" fill="none" stroke="#000000" stroke-width="1" stroke-linecap="square" font-size="32.5" font-family="MS Shell Dlg 2" stroke-opacity="1"/>
  <g stroke-linejoin="bevel" transform="matrix(11.8081,0,0,11.8081,0,0)" font-weight="400" font-style="normal" fill="none" stroke="#000000" stroke-width="1" stroke-linecap="square" font-size="32.5" font-family="MS Shell Dlg 2" stroke-opacity="1"/>
  <g transform="matrix(0.999751,0,0,0.999751,0,0)" font-weight="400" font-style="normal" fill="#000000" stroke="none" fill-opacity="0" font-size="32.5" font-family="MS Shell Dlg 2">
   <rect height="2480" x="0" width="3508" y="0"/>
  </g>
  <g stroke-linejoin="bevel" transform="matrix(0.999751,0,0,0.999751,0,0)" font-weight="400" font-style="normal" fill="none" stroke="#000000" stroke-width="1" stroke-linecap="square" font-size="32.5" font-family="MS Shell Dlg 2" stroke-opacity="1"/>
  <g stroke-linejoin="bevel" transform="matrix(0.999751,0,0,0.999751,0,0)" font-weight="400" font-style="normal" fill="#94cc9f" stroke="#232323" fill-opacity="1" stroke-width="5.90551" stroke-linecap="square" font-size="32.5" font-family="MS Shell Dlg 2" stroke-opacity="1">
   <path fill-rule="evenodd" d="M720.347,1669.65 L709.992,1659.3 L709.992,1593.71 L644.408,1593.71 L644.408,1516.05 L589.179,1505.69 L556.387,1528.13 L523.595,1516.05 L513.24,1495.34 L523.595,1450.46 L501.159,1417.67 L523.595,1384.88 L513.24,1364.17 L478.722,1341.73 L468.367,1341.73 L445.93,1298.59 L468.367,1276.15 L478.722,1243.36 L445.93,1220.92 L402.783,1233 L402.783,1253.71 L380.346,1265.79 L347.554,1253.71 L337.199,1233 L304.407,1233 L314.762,1200.21 L304.407,1177.77 L281.97,1188.13 L238.823,1167.42 L238.823,1144.98 L249.178,1144.98 L304.407,1134.63 L314.762,1155.34 L347.554,1155.34 L369.991,1144.98 L380.346,1122.54 L392.427,1112.19 L392.427,1089.75 L402.783,1079.4 L392.427,1036.25 L369.991,1024.17 L359.636,991.377 L347.554,991.377 L325.118,948.229 L347.554,936.148 L380.346,936.148 L380.346,925.793 L425.219,925.793 L413.138,893.001 L413.138,882.645 L380.346,893.001 L359.636,882.645 L347.554,882.645 L314.762,882.645 L304.407,882.645 L281.97,870.564 L271.615,870.564 L249.178,849.853 L249.178,817.062 L249.178,804.98 L271.615,804.98 L292.326,817.062 L304.407,817.062 L314.762,772.188 L314.762,761.833 L304.407,729.041 L304.407,718.686 L314.762,706.604 L325.118,696.249 L337.199,685.894 L347.554,685.894 L369.991,653.102 L369.991,630.665 L402.783,608.229 L402.783,597.873 L425.219,587.518 L445.93,597.873 L445.93,587.518 L468.367,587.518 L490.803,554.726 L501.159,542.645 L513.24,509.853 L556.387,509.853 L556.387,521.934 L533.951,565.081 L546.032,587.518 L556.387,597.873 L566.743,597.873 L599.534,608.229 L654.763,608.229 L654.763,575.437 L644.408,565.081 L644.408,542.645 L654.763,532.289 L709.992,532.289 L742.784,542.645 L765.22,565.081 L775.575,587.518 L765.22,620.31 L742.784,620.31 L732.428,630.665 L732.428,663.457 L775.575,663.457 L775.575,673.812 L765.22,706.604 L775.575,718.686 L765.22,751.478 L785.931,772.188 L775.575,804.98 L785.931,837.772 L785.931,849.853 L785.931,860.209 L808.367,882.645 L830.804,882.645 L863.596,860.209 L873.951,837.772 L873.951,827.417 L863.596,817.062 L863.596,804.98 L853.241,772.188 L830.804,761.833 L808.367,729.041 L830.804,706.604 L853.241,706.604 L863.596,718.686 L906.743,729.041 L951.616,739.396 L951.616,729.041 L994.764,751.478 L1005.12,739.396 L1027.56,751.478 L1060.35,718.686 L1072.43,729.041 L1105.22,706.604 L1115.58,706.604 L1158.72,696.249 L1181.16,718.686 L1181.16,739.396 L1191.52,751.478 L1203.6,751.478 L1236.39,772.188 L1236.39,784.27 L1226.03,804.98 L1203.6,817.062 L1181.16,849.853 L1191.52,860.209 L1203.6,870.564 L1203.6,882.645 L1246.74,882.645 L1258.83,925.793 L1246.74,936.148 L1226.03,936.148 L1191.52,968.94 L1170.8,1003.46 L1125.93,991.377 L1115.58,958.585 L1105.22,925.793 L1082.78,915.437 L1060.35,948.229 L1072.43,968.94 L1060.35,991.377 L1039.64,991.377 L994.764,968.94 L972.327,968.94 L961.972,981.021 L961.972,1013.81 L929.18,1036.25 L929.18,1056.96 L972.327,1079.4 L984.408,1079.4 L951.616,1122.54 L951.616,1134.63 L929.18,1167.42 L951.616,1200.21 L951.616,1210.56 L961.972,1210.56 L972.327,1253.71 L994.764,1265.79 L1027.56,1265.79 L1072.43,1253.71 L1105.22,1253.71 L1115.58,1220.92 L1115.58,1200.21 L1148.37,1177.77 L1158.72,1188.13 L1181.16,1177.77 L1226.03,1188.13 L1236.39,1200.21 L1269.18,1200.21 L1269.18,1210.56 L1279.54,1210.56 L1301.97,1210.56 L1324.41,1167.42 L1312.33,1134.63 L1324.41,1112.19 L1334.76,1112.19 L1367.56,1122.54 L1389.99,1122.54 L1412.43,1144.98 L1433.14,1134.63 L1455.58,1155.34 L1465.93,1167.42 L1445.22,1177.77 L1455.58,1210.56 L1445.22,1220.92 L1445.22,1243.36 L1422.78,1265.79 L1455.58,1308.94 L1498.72,1276.15 L1531.52,1265.79 L1543.6,1265.79 L1566.03,1265.79 L1586.74,1265.79 L1609.18,1276.15 L1652.33,1265.79 L1641.97,1210.56 L1697.2,1188.13 L1697.2,1200.21 L1717.91,1200.21 L1740.35,1210.56 L1785.22,1167.42 L1805.93,1210.56 L1828.37,1210.56 L1838.72,1167.42 L1828.37,1155.34 L1828.37,1134.63 L1838.72,1122.54 L1871.52,1134.63 L1871.52,1101.83 L1893.95,1101.83 L1916.39,1069.04 L1949.18,1101.83 L1949.18,1112.19 L1971.62,1144.98 L2004.41,1134.63 L2037.2,1144.98 L2047.56,1188.13 L2102.79,1188.13 L2135.58,1188.13 L2145.93,1144.98 L2145.93,1122.54 L2145.93,1089.75 L2178.73,1079.4 L2223.6,1056.96 L2211.52,1024.17 L2178.73,1013.81 L2158.01,968.94 L2158.01,958.585 L2135.58,936.148 L2125.22,936.148 L2092.43,948.229 L2080.35,981.021 L2125.22,1003.46 L2125.22,1036.25 L2092.43,1036.25 L2037.2,1036.25 L2014.77,1013.81 L2004.41,1013.81 L1981.97,991.377 L1971.62,948.229 L1971.62,936.148 L1916.39,936.148 L1916.39,925.793 L1871.52,915.437 L1850.81,925.793 L1818.01,893.001 L1828.37,882.645 L1838.72,870.564 L1883.6,870.564 L1893.95,860.209 L1893.95,837.772 L1871.52,804.98 L1861.16,772.188 L1850.81,772.188 L1850.81,761.833 L1883.6,718.686 L1861.16,673.812 L1838.72,673.812 L1828.37,673.812 L1805.93,673.812 L1795.58,673.812 L1762.79,641.021 L1785.22,608.229 L1773.14,575.437 L1785.22,554.726 L1762.79,532.289 L1752.43,521.934 L1717.91,542.645 L1685.12,532.289 L1674.77,521.934 L1685.12,489.142 L1697.2,477.061 L1697.2,466.705 L1717.91,444.269 L1717.91,423.558 L1697.2,401.122 L1707.56,378.685 L1685.12,345.893 L1674.77,345.893 L1652.33,390.766 L1652.33,401.122 L1652.33,411.477 L1652.33,423.558 L1631.62,444.269 L1598.83,466.705 L1543.6,489.142 L1531.52,466.705 L1488.37,477.061 L1478.01,477.061 L1455.58,466.705 L1433.14,456.35 L1445.22,401.122 L1400.35,390.766 L1379.64,401.122 L1379.64,433.913 L1367.56,433.913 L1357.2,456.35 L1324.41,477.061 L1279.54,489.142 L1269.18,489.142 L1236.39,499.497 L1213.95,466.705 L1226.03,433.913 L1226.03,411.477 L1191.52,401.122 L1158.72,423.558 L1158.72,433.913 L1115.58,456.35 L1105.22,477.061 L1115.58,509.853 L1082.78,521.934 L1060.35,509.853 L1027.56,521.934 L1017.2,509.853 L984.408,499.497 L984.408,466.705 L984.408,423.558 L994.764,411.477 L984.408,390.766 L951.616,390.766 L929.18,356.248 L929.18,345.893 L918.824,335.538 L906.743,323.456 L873.951,313.101 L853.241,280.309 L863.596,269.954 L841.159,247.517 L841.159,204.37 L863.596,159.497 L853.241,149.141 L830.804,138.786 L853.241,28.3289 L918.824,73.2021 L961.972,73.2021 L994.764,28.3289 L1049.99,61.1208 L1125.93,28.3289 L1148.37,61.1208 L1170.8,73.2021 L1226.03,73.2021 L1258.83,50.7655 L1301.97,73.2021 L1379.64,28.3289 L1389.99,28.3289 L1445.22,73.2021 L1521.16,40.4101 L1531.52,50.7655 L1553.95,61.1208 L1631.62,50.7655 L1641.97,40.4101 L1685.12,73.2021 L1773.14,61.1208 L1785.22,50.7655 L1838.72,61.1208 L1893.95,61.1208 L1916.39,50.7655 L1926.75,40.4101 L2014.77,50.7655 L2057.91,28.3289 L2102.79,73.2021 L2158.01,61.1208 L2178.73,40.4101 L2223.6,73.2021 L2321.97,28.3289 L2354.77,83.5574 L2442.79,50.7655 L2453.14,50.7655 L2498.02,73.2021 L2530.81,73.2021 L2584.31,40.4101 L2629.18,73.2021 L2684.41,73.2021 L2694.77,61.1208 L2717.2,50.7655 L2805.22,50.7655 L2838.02,28.3289 L2903.6,73.2021 L2957.1,61.1208 L2969.18,50.7655 L2979.54,40.4101 L3100.35,61.1208 L3133.14,73.2021 L3188.37,73.2021 L3231.52,28.3289 L3297.1,73.2021 L3341.98,73.2021 L3331.62,138.786 L3364.41,159.497 L3397.21,138.786 L3407.56,171.578 L3440.35,181.933 L3450.71,192.289 L3473.14,204.37 L3485.23,247.517 L3485.23,269.954 L3473.14,280.309 L3473.14,302.746 L3440.35,323.456 L3430,323.456 L3397.21,356.248 L3374.77,335.538 L3341.98,345.893 L3331.62,345.893 L3319.54,345.893 L3286.75,345.893 L3264.31,323.456 L3253.96,323.456 L3243.6,368.33 L3231.52,378.685 L3243.6,411.477 L3221.16,444.269 L3188.37,456.35 L3178.02,477.061 L3178.02,489.142 L3145.23,509.853 L3178.02,542.645 L3198.73,542.645 L3210.81,554.726 L3231.52,532.289 L3253.96,554.726 L3253.96,597.873 L3243.6,608.229 L3221.16,608.229 L3210.81,641.021 L3210.81,653.102 L3221.16,685.894 L3231.52,685.894 L3276.39,673.812 L3286.75,653.102 L3309.18,641.021 L3341.98,663.457 L3352.33,706.604 L3352.33,718.686 L3352.33,751.478 L3341.98,751.478 L3341.98,772.188 L3352.33,784.27 L3364.41,849.853 L3352.33,860.209 L3352.33,893.001 L3352.33,903.356 L3341.98,948.229 L3341.98,981.021 L3331.62,1003.46 L3309.18,1003.46 L3297.1,1036.25 L3276.39,1036.25 L3264.31,1069.04 L3276.39,1079.4 L3276.39,1112.19 L3243.6,1134.63 L3231.52,1122.54 L3210.81,1079.4 L3178.02,1069.04 L3155.58,1112.19 L3155.58,1122.54 L3122.79,1112.19 L3090,1134.63 L3077.92,1144.98 L3057.2,1144.98 L3024.41,1177.77 L3012.33,1177.77 L2991.62,1188.13 L2969.18,1188.13 L2946.75,1155.34 L2913.96,1155.34 L2891.52,1134.63 L2891.52,1101.83 L2881.16,1089.75 L2881.16,1069.04 L2870.81,1046.61 L2825.94,1046.61 L2815.58,1046.61 L2815.58,1036.25 L2793.14,1013.81 L2782.79,1013.81 L2770.71,991.377 L2737.91,981.021 L2717.2,991.377 L2705.12,991.377 L2672.33,1003.46 L2661.98,1013.81 L2639.54,1013.81 L2618.83,1036.25 L2618.83,1069.04 L2661.98,1079.4 L2672.33,1079.4 L2684.41,1079.4 L2705.12,1089.75 L2684.41,1134.63 L2661.98,1134.63 L2651.62,1167.42 L2618.83,1167.42 L2606.75,1200.21 L2618.83,1210.56 L2618.83,1253.71 L2618.83,1276.15 L2629.18,1286.5 L2651.62,1286.5 L2684.41,1253.71 L2717.2,1265.79 L2705.12,1298.59 L2694.77,1308.94 L2684.41,1331.38 L2661.98,1341.73 L2661.98,1374.52 L2694.77,1407.32 L2727.56,1384.88 L2737.91,1364.17 L2760.35,1341.73 L2793.14,1341.73 L2793.14,1352.09 L2793.14,1396.96 L2750,1407.32 L2750,1440.11 L2770.71,1462.55 L2770.71,1472.9 L2805.22,1483.26 L2805.22,1495.34 L2848.37,1516.05 L2838.02,1528.13 L2793.14,1528.13 L2770.71,1560.92 L2760.35,1571.28 L2750,1604.07 L2737.91,1648.94 L2750,1669.65 L2737.91,1714.53 L2737.91,1724.88 L2705.12,1735.24 L2684.41,1702.44 L2684.41,1681.73 L2672.33,1659.3 L2629.18,1659.3 L2606.75,1669.65 L2629.18,1724.88 L2618.83,1735.24 L2618.83,1768.03 L2629.18,1768.03 L2629.18,1790.46 L2629.18,1845.69 L2629.18,1856.05 L2629.18,1878.49 L2618.83,1899.2 L2596.39,1899.2 L2584.31,1911.28 L2563.6,1911.28 L2541.16,1931.99 L2498.02,1911.28 L2485.93,1911.28 L2475.58,1899.2 L2465.22,1866.4 L2432.43,1856.05 L2420.35,1878.49 L2432.43,1911.28 L2432.43,1921.63 L2432.43,1944.07 L2432.43,1954.42 L2432.43,1997.57 L2432.43,2009.65 L2410,2052.8 L2397.91,2052.8 L2377.2,2030.36 L2365.12,1997.57 L2344.41,1964.78 L2299.54,1987.22 L2299.54,2009.65 L2311.62,2042.44 L2299.54,2063.16 L2299.54,2108.03 L2266.75,2128.74 L2256.39,2108.03 L2233.95,2108.03 L2201.16,2085.59 L2190.81,2085.59 L2145.93,2075.24 L2135.58,2052.8 L2158.01,2020.01 L2125.22,1997.57 L2102.79,1997.57 L2092.43,2020.01 L2047.56,2030.36 L2025.12,2042.44 L2004.41,2042.44 L1992.33,2063.16 L1992.33,2095.95 L1981.97,2108.03 L1981.97,2128.74 L1981.97,2151.18 L1971.62,2151.18 L1959.54,2173.61 L1926.75,2196.05 L1916.39,2196.05 L1893.95,2228.84 L1871.52,2228.84 L1861.16,2249.55 L1828.37,2261.63 L1818.01,2261.63 L1785.22,2271.99 L1785.22,2294.42 L1785.22,2304.78 L1785.22,2327.22 L1740.35,2347.93 L1740.35,2360.01 L1707.56,2380.72 L1697.2,2403.16 L1685.12,2403.16 L1652.33,2435.95 L1641.97,2425.59 L1609.18,2403.16 L1619.54,2380.72 L1598.83,2360.01 L1598.83,2347.93 L1586.74,2327.22 L1576.39,2315.14 L1553.95,2315.14 L1543.6,2304.78 L1521.16,2304.78 L1498.72,2294.42 L1465.93,2315.14 L1465.93,2337.57 L1433.14,2360.01 L1445.22,2370.36 L1422.78,2392.8 L1433.14,2435.95 L1422.78,2446.3 L1389.99,2446.3 L1379.64,2403.16 L1367.56,2392.8 L1324.41,2392.8 L1312.33,2392.8 L1301.97,2392.8 L1279.54,2413.51 L1246.74,2413.51 L1213.95,2380.72 L1191.52,2380.72 L1158.72,2315.14 L1170.8,2304.78 L1170.8,2294.42 L1115.58,2249.55 L1049.99,2206.4 L1027.56,2228.84 L984.408,2239.2 L951.616,2183.97 L939.535,2183.97 L886.033,2151.18 L896.388,2118.38 L873.951,2108.03 L830.804,2052.8 L853.241,2030.36 L808.367,1964.78 L841.159,1944.07 L841.159,1911.28 L863.596,1888.84 L863.596,1845.69 L841.159,1833.61 L808.367,1845.69 L765.22,1823.26 L753.139,1800.82 L709.992,1790.46 L709.992,1780.11 L732.428,1735.24 L699.636,1702.44 L720.347,1669.65 M1773.14,2161.53 L1740.35,2173.61 L1752.43,2196.05 L1805.93,2206.4 L1818.01,2183.97 L1773.14,2161.53 M3090,368.33 L3077.92,345.893 L3067.56,345.893 L3024.41,368.33 L3034.77,411.477 L3067.56,423.558 L3100.35,401.122 L3090,368.33 M2782.79,323.456 L2815.58,356.248 L2858.73,345.893 L2858.73,356.248 L2870.81,356.248 L2881.16,345.893 L2891.52,323.456 L2881.16,290.664 L2838.02,280.309 L2825.94,290.664 L2805.22,280.309 L2782.79,313.101 L2782.79,323.456 M3178.02,323.456 L3210.81,313.101 L3210.81,280.309 L3178.02,257.873 L3155.58,280.309 L3178.02,323.456" vector-effect="none"/>
   <path fill-rule="evenodd" d="M1531.52,696.249 L1531.52,685.894 L1566.03,673.812 L1553.95,641.021 L1576.39,620.31 L1598.83,620.31 L1609.18,630.665 L1609.18,641.021 L1631.62,673.812 L1652.33,685.894 L1652.33,706.604 L1641.97,729.041 L1641.97,751.478 L1631.62,761.833 L1598.83,794.625 L1576.39,794.625 L1553.95,784.27 L1566.03,751.478 L1521.16,739.396 L1531.52,706.604 L1531.52,696.249" vector-effect="none"/>
   <path fill-rule="evenodd" d="M1082.78,663.457 L1049.99,663.457 L1027.56,685.894 L1017.2,685.894 L984.408,673.812 L984.408,641.021 L984.408,630.665 L1017.2,597.873 L1039.64,597.873 L1049.99,587.518 L1082.78,587.518 L1105.22,597.873 L1115.58,630.665 L1082.78,663.457" vector-effect="none"/>
   <path fill-rule="evenodd" d="M259.534,1079.4 L249.178,1036.25 L259.534,1024.17 L271.615,1013.81 L281.97,1013.81 L304.407,1013.81 L325.118,1056.96 L314.762,1079.4 L304.407,1089.75 L259.534,1079.4" vector-effect="none"/>
   <path fill-rule="evenodd" d="M392.427,444.269 L435.575,477.061 L435.575,499.497 L425.219,509.853 L380.346,509.853 L359.636,499.497 L369.991,456.35 L392.427,444.269" vector-effect="none"/>
   <path fill-rule="evenodd" d="M128.366,718.686 L150.803,718.686 L173.239,739.396 L173.239,761.833 L150.803,784.27 L128.366,784.27 L105.929,761.833 L105.929,751.478 L128.366,718.686" vector-effect="none"/>
   <path fill-rule="evenodd" d="M52.4267,641.021 L95.574,653.102 L95.574,673.812 L95.574,685.894 L73.1374,706.604 L62.7821,706.604 L40.3455,696.249 L40.3455,653.102 L52.4267,641.021" vector-effect="none"/>
   <path fill-rule="evenodd" d="M183.595,1036.25 L138.721,1046.61 L128.366,1036.25 L138.721,1003.46 L150.803,991.377 L193.95,1013.81 L183.595,1036.25" vector-effect="none"/>
  </g>
  <g stroke-linejoin="bevel" transform="matrix(0.999751,0,0,0.999751,0,0)" font-weight="400" font-style="normal" fill="none" stroke="#000000" stroke-width="1" stroke-linecap="square" font-size="32.5" font-family="MS Shell Dlg 2" stroke-opacity="1"/>
  <g stroke-linejoin="bevel" transform="matrix(11.8081,0,0,11.8081,0,0)" font-weight="400" font-style="normal" fill="none" stroke="#000000" stroke-width="1" stroke-linecap="square" font-size="32.5" font-family="MS Shell Dlg 2" stroke-opacity="1"/>
  <g stroke-linejoin="bevel" transform="matrix(11.8081,0,0,11.8081,0,0)" font-weight="400" font-style="normal" fill="none" stroke="#000000" stroke-width="1" stroke-linecap="square" font-size="32.5" font-family="MS Shell Dlg 2" stroke-opacity="1"/>
  <g stroke-linejoin="bevel" transform="matrix(11.8081,0,0,11.8081,0,0)" font-weight="400" font-style="normal" fill="none" stroke="#000000" stroke-width="1" stroke-linecap="square" font-size="32.5" font-family="MS Shell Dlg 2" stroke-opacity="1"/>
  <g stroke-linejoin="bevel" transform="matrix(1,0,0,1,0,0)" font-weight="400" font-style="normal" fill="none" stroke="#000000" stroke-width="1" stroke-linecap="square" font-size="32.5" font-family="MS Shell Dlg 2" stroke-opacity="1"/>
  <g stroke-linejoin="bevel" transform="matrix(11.8081,0,0,11.8081,0,0)" font-weight="400" font-style="normal" fill="none" stroke="#000000" stroke-width="1" stroke-linecap="square" font-size="32.5" font-family="MS Shell Dlg 2" stroke-opacity="1"/>
  <g stroke-linejoin="bevel" transform="matrix(11.8081,0,0,11.8081,0,0)" font-weight="400" font-style="normal" fill="none" stroke="#000000" stroke-width="1" stroke-linecap="square" font-size="32.5" font-family="MS Shell Dlg 2" stroke-opacity="1"/>
  <g stroke-linejoin="bevel" transform="matrix(1,0,0,1,0,0)" font-weight="400" font-style="normal" fill="none" stroke="#000000" stroke-width="1" stroke-linecap="square" font-size="32.5" font-family="MS Shell Dlg 2" stroke-opacity="1"/>
 </g>
 <defs/>
 <g stroke-linejoin="bevel" inkscape:label="Map 1: UnAStrongholdLand (Labels)" inkscape:groupmode="layer" fill="none" stroke="black" fill-rule="evenodd" stroke-width="1" stroke-linecap="square" id="Map 1: UnAStrongholdLand (Labels)">
  <g stroke-linejoin="bevel" transform="matrix(1,0,0,1,0,0)" font-weight="400" font-style="normal" fill="none" stroke="#000000" stroke-width="1" stroke-linecap="square" font-size="32.5" font-family="MS Shell Dlg 2" stroke-opacity="1"/>
  <g stroke-linejoin="bevel" transform="matrix(1,0,0,1,0,0)" font-weight="400" font-style="normal" fill="none" stroke="#000000" stroke-width="1" stroke-linecap="square" font-size="32.5" font-family="MS Shell Dlg 2" stroke-opacity="1"/>
  <g stroke-linejoin="bevel" transform="matrix(11.8081,0,0,11.8081,0,0)" font-weight="400" font-style="normal" fill="none" stroke="#000000" stroke-width="1" stroke-linecap="square" font-size="32.5" font-family="MS Shell Dlg 2" stroke-opacity="1"/>
  <g stroke-linejoin="bevel" transform="matrix(11.8081,0,0,11.8081,0,0)" font-weight="400" font-style="normal" fill="none" stroke="#000000" stroke-width="1" stroke-linecap="square" font-size="32.5" font-family="MS Shell Dlg 2" stroke-opacity="1"/>
  <g transform="matrix(0.999751,0,0,0.999751,0,0)" font-weight="400" font-style="normal" fill="#000000" stroke="none" fill-opacity="0" font-size="32.5" font-family="MS Shell Dlg 2">
   <rect height="2480" x="0" width="3508" y="0"/>
  </g>
  <g stroke-linejoin="bevel" transform="matrix(0.999751,0,0,0.999751,0,0)" font-weight="400" font-style="normal" fill="none" stroke="#000000" stroke-width="1" stroke-linecap="square" font-size="32.5" font-family="MS Shell Dlg 2" stroke-opacity="1"/>
  <g stroke-linejoin="bevel" transform="matrix(0.3999,0,0,0.3999,1702.65,1100.76)" font-weight="400" font-style="normal" fill="none" stroke="#000000" stroke-width="1" stroke-linecap="square" font-size="32.5" font-family="MS Shell Dlg 2" stroke-opacity="1"/>
  <g transform="matrix(0.999751,0,0,0.999751,1702.65,1100.76)" font-weight="400" font-style="normal" fill="#323232" stroke="none" fill-opacity="1" font-size="32.5" font-family="MS Shell Dlg 2">
   <path fill-rule="nonzero" d="M8.274,-23.058 C7.882,-19.53 7.686,-16.394 7.686,-13.65 C7.686,-10.906 7.756,-9.051 7.896,-8.085 C8.036,-7.119 8.316,-6.216 8.736,-5.376 C9.548,-3.64 11.116,-2.772 13.44,-2.772 C15.764,-2.772 17.626,-3.416 19.026,-4.704 C19.166,-8.344 19.236,-11.984 19.236,-15.624 C19.236,-19.264 19.082,-22.68 18.774,-25.872 C17.346,-26.068 16.002,-26.362 14.742,-26.754 L14.91,-27.678 C16.618,-27.454 18.697,-27.342 21.147,-27.342 C23.597,-27.342 25.718,-27.454 27.51,-27.678 L27.636,-26.796 C26.04,-26.404 24.5,-26.138 23.016,-25.998 C22.652,-23.926 22.47,-20.23 22.47,-14.91 L22.47,-12.432 C22.47,-7.196 22.652,-3.542 23.016,-1.47 C24.5,-1.33 26.04,-1.064 27.636,-0.672 L27.51,0.336 C25.718,0.112 23.898,0 22.05,0 C20.202,0 19.026,0.014 18.522,0.042 L18.396,-0.546 C18.648,-0.854 18.83,-1.848 18.942,-3.528 C17.318,-1.708 15.274,-0.322 12.81,0.63 C9.646,0.63 7.441,-0.287 6.195,-2.121 C4.949,-3.955 4.326,-6.622 4.326,-10.122 C4.326,-11.718 4.424,-14.252 4.62,-17.724 C4.816,-21.196 4.914,-23.142 4.914,-23.562 C4.914,-23.982 4.872,-24.472 4.788,-25.032 C1.484,-25.032 -0.63,-24.584 -1.554,-23.688 C-1.75,-23.296 -1.848,-22.68 -1.848,-21.84 C-1.848,-21 -1.708,-20.426 -1.428,-20.118 L-1.47,-19.824 C-2.17,-19.404 -2.87,-18.816 -3.57,-18.06 C-3.906,-18.088 -4.179,-18.228 -4.389,-18.48 C-4.599,-18.732 -4.704,-19.026 -4.704,-19.362 C-4.704,-20.734 -3.878,-22.372 -2.226,-24.276 C-0.574,-26.18 0.966,-27.384 2.394,-27.888 C3.038,-27.86 3.885,-27.762 4.935,-27.594 C5.985,-27.426 6.944,-27.342 7.812,-27.342 C8.68,-27.342 9.506,-27.398 10.29,-27.51 L10.458,-26.922 C9.198,-26.222 8.47,-24.934 8.274,-23.058 M39.928,0.294 C38.472,0.098 36.841,0 35.035,0 C33.229,0 31.612,0.112 30.184,0.336 L30.016,-0.756 C30.912,-1.036 31.752,-1.246 32.536,-1.386 C32.788,-3.57 32.914,-6.426 32.914,-9.954 L32.914,-11.928 C32.914,-15.68 32.774,-18.564 32.494,-20.58 C31.738,-20.664 30.828,-20.888 29.764,-21.252 L29.89,-22.344 C31.486,-22.036 33.159,-21.882 34.909,-21.882 C36.659,-21.882 37.912,-21.98 38.668,-22.176 L38.752,-21.462 C37.996,-21.266 37.618,-20.944 37.618,-20.496 C37.618,-20.16 37.947,-19.453 38.605,-18.375 C39.263,-17.297 39.9,-16.254 40.516,-15.246 C42.364,-12.306 44.548,-8.694 47.068,-4.41 L47.194,-4.494 L47.194,-9.618 C47.194,-13.37 46.998,-16.191 46.606,-18.081 C46.214,-19.971 45.542,-21.07 44.59,-21.378 L44.674,-22.092 C45.402,-21.952 46.494,-21.882 47.95,-21.882 C49.406,-21.882 50.904,-22.036 52.444,-22.344 L52.57,-21.252 C51.422,-20.888 50.456,-20.664 49.672,-20.58 C49.392,-18.34 49.252,-15.456 49.252,-11.928 L49.252,-9.954 C49.252,-5.698 49.392,-2.814 49.672,-1.302 C50.848,-1.106 51.786,-0.882 52.486,-0.63 L52.36,0.462 C50.96,0.154 49.644,0 48.412,0 C47.18,0 46.228,0.056 45.556,0.168 C45.556,-0.448 45.129,-1.484 44.275,-2.94 C43.421,-4.396 42.644,-5.684 41.944,-6.804 C39.676,-10.472 37.45,-14.196 35.266,-17.976 L35.098,-17.892 L35.098,-12.264 C35.098,-6.692 35.518,-3.066 36.358,-1.386 C37.618,-1.246 38.85,-1.036 40.054,-0.756 L39.928,0.294 M74.706,-28.434 C74.314,-26.474 74.048,-24.458 73.908,-22.386 C73.768,-20.314 73.698,-16.982 73.698,-12.39 C73.698,-7.798 73.88,-4.158 74.244,-1.47 C75.728,-1.33 77.268,-1.064 78.864,-0.672 L78.738,0.336 C76.666,0.112 74.419,0 71.997,0 C69.575,0 67.622,0.112 66.138,0.336 L65.97,-0.714 C67.23,-1.106 68.574,-1.4 70.002,-1.596 C70.226,-3.444 70.38,-6.426 70.464,-10.542 C69.008,-10.71 67.405,-10.794 65.655,-10.794 C63.905,-10.794 62.428,-10.71 61.224,-10.542 C60.552,-7.798 60.216,-5.6 60.216,-3.948 C60.216,-2.296 60.818,-1.12 62.022,-0.42 L61.854,0.168 C60.986,0.056 59.523,0 57.465,0 C55.407,0 53.552,0.112 51.9,0.336 L51.732,-0.714 C52.992,-1.106 54.336,-1.4 55.764,-1.596 L62.4,-25.116 C59.096,-25.116 56.982,-24.668 56.058,-23.772 C55.862,-23.38 55.764,-22.764 55.764,-21.924 C55.764,-21.084 55.904,-20.51 56.184,-20.202 L56.142,-19.908 C55.442,-19.488 54.742,-18.9 54.042,-18.144 C53.706,-18.172 53.433,-18.312 53.223,-18.564 C53.013,-18.816 52.908,-19.11 52.908,-19.446 C52.908,-20.818 53.734,-22.456 55.386,-24.36 C57.038,-26.264 58.578,-27.468 60.006,-27.972 C64.234,-27.496 68.518,-27.09 72.858,-26.754 C73.25,-27.258 73.572,-27.902 73.824,-28.686 L74.706,-28.434 M61.686,-12.642 C62.946,-12.446 64.437,-12.348 66.159,-12.348 C67.881,-12.348 69.316,-12.446 70.464,-12.642 C70.464,-17.598 70.394,-21.644 70.254,-24.78 L70.128,-24.906 C68.672,-25.046 66.866,-25.116 64.71,-25.116 L61.686,-12.642 M87.462,-0.504 C87.462,-2.968 88.001,-5.096 89.079,-6.888 C90.157,-8.68 91.284,-9.576 92.46,-9.576 C92.768,-9.576 93.076,-9.478 93.384,-9.282 L93.51,-8.988 C93.146,-8.288 92.922,-7.406 92.838,-6.342 L92.586,-6.174 C92.474,-6.23 92.264,-6.258 91.956,-6.258 C91.648,-6.258 91.193,-6.09 90.591,-5.754 C89.989,-5.418 89.52,-5.082 89.184,-4.746 C88.988,-4.354 88.89,-3.906 88.89,-3.402 C88.89,-2.086 89.779,-0.959 91.557,-0.021 C93.335,0.917 95.05,1.386 96.702,1.386 C100.146,1.386 101.868,-0.574 101.868,-4.494 C101.868,-5.978 100.454,-7.84 97.626,-10.08 C96.45,-11.032 95.274,-11.984 94.098,-12.936 C91.27,-15.176 89.856,-17.122 89.856,-18.774 C89.856,-20.734 90.738,-22.561 92.502,-24.255 C94.266,-25.949 96.268,-27.188 98.508,-27.972 C100.916,-27.972 103.198,-27.734 105.354,-27.258 L105.354,-26.418 C103.898,-25.074 103.086,-23.002 102.918,-20.202 L101.868,-20.202 C101.868,-21.686 101.798,-22.988 101.658,-24.108 C100.454,-24.668 99.145,-24.948 97.731,-24.948 C96.317,-24.948 95.12,-24.647 94.14,-24.045 C93.16,-23.443 92.67,-22.68 92.67,-21.756 C92.67,-20.832 93.083,-19.901 93.909,-18.963 C94.735,-18.025 95.736,-17.115 96.912,-16.233 C98.088,-15.351 99.257,-14.455 100.419,-13.545 C101.581,-12.635 102.575,-11.655 103.401,-10.605 C104.227,-9.555 104.64,-8.54 104.64,-7.56 C104.64,-4.76 103.87,-2.268 102.33,-0.084 C100.79,2.1 98.69,3.738 96.03,4.83 C92.53,4.466 89.73,3.486 87.63,1.89 C87.518,1.106 87.462,0.308 87.462,-0.504 M122.54,-19.614 C121.56,-20.09 120.622,-20.328 119.726,-20.328 C118.83,-20.328 118.228,-20.272 117.92,-20.16 C117.696,-18.648 117.584,-15.722 117.584,-11.382 C117.584,-7.042 117.738,-3.71 118.046,-1.386 C119.306,-1.246 120.468,-1.036 121.532,-0.756 L121.406,0.294 C119.95,0.098 118.277,0 116.387,0 C114.497,0 112.838,0.112 111.41,0.336 L111.242,-0.756 C111.802,-0.924 112.768,-1.134 114.14,-1.386 C114.392,-3.402 114.518,-6.258 114.518,-9.954 L114.518,-11.928 C114.518,-13.888 114.364,-16.632 114.056,-20.16 C113.748,-20.272 113.174,-20.328 112.334,-20.328 C111.494,-20.328 110.598,-20.132 109.646,-19.74 C109.366,-18.872 109.17,-17.71 109.058,-16.254 L107.966,-16.254 C107.966,-18.55 107.588,-20.328 106.832,-21.588 L107.042,-22.302 C109.198,-22.022 112.222,-21.882 116.114,-21.882 C120.006,-21.882 123.142,-22.036 125.522,-22.344 L125.774,-21.546 C125.074,-20.762 124.598,-19.999 124.346,-19.257 C124.094,-18.515 123.94,-17.514 123.884,-16.254 L122.834,-16.254 C122.638,-17.178 122.54,-18.298 122.54,-19.614 M126.806,-21.798 L136.466,-22.092 C138.986,-22.092 140.876,-21.721 142.136,-20.979 C143.396,-20.237 144.026,-18.886 144.026,-16.926 C144.026,-15.582 143.613,-14.392 142.787,-13.356 C141.961,-12.32 140.876,-11.55 139.532,-11.046 L144.236,-1.428 C145.188,-1.26 146.084,-1.064 146.924,-0.84 L146.756,0.294 C145.58,0.098 144.257,0 142.787,0 C141.317,0 140.162,0.07 139.322,0.21 L139.154,-0.462 C139.518,-0.826 139.7,-1.428 139.7,-2.268 C139.7,-3.976 138.72,-6.72 136.76,-10.5 C136.172,-10.612 135.486,-10.668 134.702,-10.668 L134.786,-11.886 L135.206,-11.886 C138.51,-11.886 140.162,-13.398 140.162,-16.422 C140.162,-19.222 138.748,-20.622 135.92,-20.622 C134.968,-20.622 134.114,-20.468 133.358,-20.16 C133.162,-18.312 133.064,-15.148 133.064,-10.668 C133.064,-6.188 133.19,-3.094 133.442,-1.386 C134.674,-1.246 135.822,-1.036 136.886,-0.756 L136.76,0.294 C135.304,0.098 133.673,0 131.867,0 C130.061,0 128.444,0.112 127.016,0.336 L126.848,-0.756 C127.632,-1.008 128.514,-1.218 129.494,-1.386 C129.774,-3.486 129.914,-6.755 129.914,-11.193 C129.914,-15.631 129.788,-18.704 129.536,-20.412 C128.444,-20.776 127.534,-20.958 126.806,-20.958 L126.806,-21.798 M158.046,0.504 C155.274,0.504 153.034,-0.371 151.326,-2.121 C149.618,-3.871 148.764,-6.216 148.764,-9.156 C148.764,-12.096 149.66,-14.854 151.452,-17.43 C153.244,-20.006 155.582,-21.658 158.466,-22.386 C161.35,-22.386 163.548,-21.567 165.06,-19.929 C166.572,-18.291 167.328,-15.96 167.328,-12.936 C167.328,-9.912 166.509,-7.182 164.871,-4.746 C163.233,-2.31 160.958,-0.56 158.046,0.504 M157.332,-19.824 C156.072,-19.824 154.98,-19.474 154.056,-18.774 C152.908,-16.814 152.334,-14.35 152.334,-11.382 C152.334,-7.966 153.286,-5.348 155.19,-3.528 C156.198,-2.548 157.388,-2.058 158.76,-2.058 C160.132,-2.058 161.238,-2.422 162.078,-3.15 C163.198,-5.11 163.758,-7.504 163.758,-10.332 C163.758,-13.16 163.254,-15.449 162.246,-17.199 C161.238,-18.949 159.6,-19.824 157.332,-19.824 M180.928,0.294 C179.472,0.098 177.841,0 176.035,0 C174.229,0 172.612,0.112 171.184,0.336 L171.016,-0.756 C171.912,-1.036 172.752,-1.246 173.536,-1.386 C173.788,-3.57 173.914,-6.426 173.914,-9.954 L173.914,-11.928 C173.914,-15.68 173.774,-18.564 173.494,-20.58 C172.738,-20.664 171.828,-20.888 170.764,-21.252 L170.89,-22.344 C172.486,-22.036 174.159,-21.882 175.909,-21.882 C177.659,-21.882 178.912,-21.98 179.668,-22.176 L179.752,-21.462 C178.996,-21.266 178.618,-20.944 178.618,-20.496 C178.618,-20.16 178.947,-19.453 179.605,-18.375 C180.263,-17.297 180.9,-16.254 181.516,-15.246 C183.364,-12.306 185.548,-8.694 188.068,-4.41 L188.194,-4.494 L188.194,-9.618 C188.194,-13.37 187.998,-16.191 187.606,-18.081 C187.214,-19.971 186.542,-21.07 185.59,-21.378 L185.674,-22.092 C186.402,-21.952 187.494,-21.882 188.95,-21.882 C190.406,-21.882 191.904,-22.036 193.444,-22.344 L193.57,-21.252 C192.422,-20.888 191.456,-20.664 190.672,-20.58 C190.392,-18.34 190.252,-15.456 190.252,-11.928 L190.252,-9.954 C190.252,-5.698 190.392,-2.814 190.672,-1.302 C191.848,-1.106 192.786,-0.882 193.486,-0.63 L193.36,0.462 C191.96,0.154 190.644,0 189.412,0 C188.18,0 187.228,0.056 186.556,0.168 C186.556,-0.448 186.129,-1.484 185.275,-2.94 C184.421,-4.396 183.644,-5.684 182.944,-6.804 C180.676,-10.472 178.45,-14.196 176.266,-17.976 L176.098,-17.892 L176.098,-12.264 C176.098,-6.692 176.518,-3.066 177.358,-1.386 C178.618,-1.246 179.85,-1.036 181.054,-0.756 L180.928,0.294 M206.298,-2.436 C207.502,-2.436 208.692,-2.786 209.868,-3.486 L209.658,-7.98 C208.874,-8.232 207.922,-8.456 206.802,-8.652 L206.928,-9.534 C207.6,-9.478 208.09,-9.45 208.398,-9.45 C210.33,-9.45 212.08,-9.968 213.648,-11.004 L214.068,-10.248 C213.732,-9.94 213.424,-9.618 213.144,-9.282 C212.752,-5.474 212.5,-2.338 212.388,0.126 L211.506,0.126 C211.282,-0.91 210.946,-1.764 210.498,-2.436 C208.874,-1.008 207.236,-0.028 205.584,0.504 C202.868,0.504 200.74,-0.357 199.2,-2.079 C197.66,-3.801 196.89,-6.125 196.89,-9.051 C196.89,-11.977 197.8,-14.728 199.62,-17.304 C201.44,-19.88 203.764,-21.574 206.592,-22.386 C208.636,-22.386 210.946,-22.176 213.522,-21.756 L213.48,-20.832 C212.948,-20.832 212.444,-20.734 211.968,-20.538 C211.436,-19.278 211.086,-17.78 210.918,-16.044 L209.868,-16.044 C209.644,-16.996 209.532,-17.976 209.532,-18.984 C208.468,-19.516 207.208,-19.782 205.752,-19.782 C204.296,-19.782 203.092,-19.39 202.14,-18.606 C201.02,-16.562 200.46,-14.147 200.46,-11.361 C200.46,-8.575 200.873,-6.391 201.699,-4.809 C202.525,-3.227 204.058,-2.436 206.298,-2.436 M231.078,-22.218 C232.506,-21.994 234.123,-21.882 235.929,-21.882 C237.735,-21.882 239.366,-21.98 240.822,-22.176 L240.948,-21.126 C239.884,-20.846 238.722,-20.636 237.462,-20.496 C237.182,-18.76 237.042,-15.904 237.042,-11.928 L237.042,-9.954 C237.042,-5.922 237.182,-3.066 237.462,-1.386 C238.722,-1.246 239.884,-1.036 240.948,-0.756 L240.822,0.294 C239.366,0.098 237.735,0 235.929,0 C234.123,0 232.506,0.112 231.078,0.336 L230.91,-0.756 C231.694,-1.008 232.576,-1.218 233.556,-1.386 C233.78,-4.55 233.906,-7.714 233.934,-10.878 C232.142,-11.046 230.49,-11.13 228.978,-11.13 C227.466,-11.13 225.828,-11.046 224.064,-10.878 C224.064,-6.258 224.19,-3.094 224.442,-1.386 C225.702,-1.246 226.864,-1.036 227.928,-0.756 L227.802,0.294 C226.346,0.098 224.715,0 222.909,0 C221.103,0 219.486,0.112 218.058,0.336 L217.89,-0.756 C218.674,-1.008 219.556,-1.218 220.536,-1.386 C220.788,-3.402 220.914,-6.258 220.914,-9.954 L220.914,-11.928 C220.914,-15.624 220.774,-18.48 220.494,-20.496 C219.514,-20.664 218.632,-20.874 217.848,-21.126 L218.016,-22.218 C219.444,-21.994 221.061,-21.882 222.867,-21.882 C224.673,-21.882 226.304,-21.98 227.76,-22.176 L227.886,-21.126 C226.822,-20.846 225.66,-20.636 224.4,-20.496 C224.176,-18.872 224.064,-16.366 224.064,-12.978 C225.632,-12.754 227.319,-12.642 229.125,-12.642 C230.931,-12.642 232.534,-12.74 233.934,-12.936 C233.906,-15.316 233.78,-17.836 233.556,-20.496 C232.576,-20.664 231.694,-20.874 230.91,-21.126 L231.078,-22.218 M253.046,0.504 C250.274,0.504 248.034,-0.371 246.326,-2.121 C244.618,-3.871 243.764,-6.216 243.764,-9.156 C243.764,-12.096 244.66,-14.854 246.452,-17.43 C248.244,-20.006 250.582,-21.658 253.466,-22.386 C256.35,-22.386 258.548,-21.567 260.06,-19.929 C261.572,-18.291 262.328,-15.96 262.328,-12.936 C262.328,-9.912 261.509,-7.182 259.871,-4.746 C258.233,-2.31 255.958,-0.56 253.046,0.504 M252.332,-19.824 C251.072,-19.824 249.98,-19.474 249.056,-18.774 C247.908,-16.814 247.334,-14.35 247.334,-11.382 C247.334,-7.966 248.286,-5.348 250.19,-3.528 C251.198,-2.548 252.388,-2.058 253.76,-2.058 C255.132,-2.058 256.238,-2.422 257.078,-3.15 C258.198,-5.11 258.758,-7.504 258.758,-10.332 C258.758,-13.16 258.254,-15.449 257.246,-17.199 C256.238,-18.949 254.6,-19.824 252.332,-19.824 M281.178,0.462 C279.358,0.154 276.887,0 273.765,0 C270.643,0 268.032,0.14 265.932,0.42 L265.806,-0.63 C266.59,-0.938 267.486,-1.19 268.494,-1.386 C268.774,-3.066 268.914,-5.922 268.914,-9.954 L268.914,-11.928 C268.914,-15.4 268.774,-18.256 268.494,-20.496 C267.57,-20.636 266.688,-20.846 265.848,-21.126 L266.016,-22.218 C267.444,-21.994 269.124,-21.882 271.056,-21.882 C272.988,-21.882 274.64,-21.994 276.012,-22.218 L276.138,-21.168 C274.878,-20.86 273.632,-20.636 272.4,-20.496 C272.176,-18.984 272.064,-15.869 272.064,-11.151 C272.064,-6.433 272.176,-3.29 272.4,-1.722 C273.072,-1.61 274.024,-1.554 275.256,-1.554 C276.488,-1.554 277.594,-1.792 278.574,-2.268 C278.966,-3.22 279.162,-4.34 279.162,-5.628 L280.212,-5.628 C280.324,-3.472 280.716,-1.722 281.388,-0.378 L281.178,0.462 M282.512,-21.798 L292.172,-22.092 C295.364,-22.092 297.821,-21.336 299.543,-19.824 C301.265,-18.312 302.126,-16.051 302.126,-13.041 C302.126,-10.031 301.181,-7.224 299.291,-4.62 C297.401,-2.016 295.056,-0.308 292.256,0.504 C291.528,0.504 290.583,0.371 289.421,0.105 C288.259,-0.161 287.3,-0.448 286.544,-0.756 C286.236,-0.392 285.956,0.126 285.704,0.798 L284.822,0.588 C285.354,-1.904 285.62,-5.425 285.62,-9.975 C285.62,-14.525 285.494,-17.934 285.242,-20.202 C284.29,-20.566 283.38,-20.748 282.512,-20.748 L282.512,-21.798 M296.96,-17.598 C296.456,-18.55 295.749,-19.292 294.839,-19.824 C293.929,-20.356 292.935,-20.622 291.857,-20.622 C290.779,-20.622 289.848,-20.468 289.064,-20.16 C288.868,-18.34 288.77,-15.435 288.77,-11.445 C288.77,-7.455 288.826,-4.69 288.938,-3.15 C290.338,-2.506 291.773,-2.184 293.243,-2.184 C294.713,-2.184 295.882,-2.562 296.75,-3.318 C297.814,-5.334 298.346,-7.812 298.346,-10.752 C298.346,-13.496 297.884,-15.778 296.96,-17.598 " vector-effect="none"/>
  </g>
  <g stroke-linejoin="bevel" transform="matrix(0.3999,0,0,0.3999,1702.65,1100.76)" font-weight="400" font-style="normal" fill="none" stroke="#000000" stroke-width="1" stroke-linecap="square" font-size="32.5" font-family="MS Shell Dlg 2" stroke-opacity="1"/>
  <g stroke-linejoin="bevel" transform="matrix(0.999751,0,0,0.999751,0,0)" font-weight="400" font-style="normal" fill="none" stroke="#000000" stroke-width="1" stroke-linecap="square" font-size="32.5" font-family="MS Shell Dlg 2" stroke-opacity="1"/>
  <g stroke-linejoin="bevel" transform="matrix(11.8081,0,0,11.8081,0,0)" font-weight="400" font-style="normal" fill="none" stroke="#000000" stroke-width="1" stroke-linecap="square" font-size="32.5" font-family="MS Shell Dlg 2" stroke-opacity="1"/>
  <g stroke-linejoin="bevel" transform="matrix(11.8081,0,0,11.8081,0,0)" font-weight="400" font-style="normal" fill="none" stroke="#000000" stroke-width="1" stroke-linecap="square" font-size="32.5" font-family="MS Shell Dlg 2" stroke-opacity="1"/>
  <g stroke-linejoin="bevel" transform="matrix(11.8081,0,0,11.8081,0,0)" font-weight="400" font-style="normal" fill="none" stroke="#000000" stroke-width="1" stroke-linecap="square" font-size="32.5" font-family="MS Shell Dlg 2" stroke-opacity="1"/>
  <g stroke-linejoin="bevel" transform="matrix(1,0,0,1,0,0)" font-weight="400" font-style="normal" fill="none" stroke="#000000" stroke-width="1" stroke-linecap="square" font-size="32.5" font-family="MS Shell Dlg 2" stroke-opacity="1"/>
  <g stroke-linejoin="bevel" transform="matrix(11.8081,0,0,11.8081,0,0)" font-weight="400" font-style="normal" fill="none" stroke="#000000" stroke-width="1" stroke-linecap="square" font-size="32.5" font-family="MS Shell Dlg 2" stroke-opacity="1"/>
  <g stroke-linejoin="bevel" transform="matrix(11.8081,0,0,11.8081,0,0)" font-weight="400" font-style="normal" fill="none" stroke="#000000" stroke-width="1" stroke-linecap="square" font-size="32.5" font-family="MS Shell Dlg 2" stroke-opacity="1"/>
  <g stroke-linejoin="bevel" transform="matrix(1,0,0,1,0,0)" font-weight="400" font-style="normal" fill="none" stroke="#000000" stroke-width="1" stroke-linecap="square" font-size="32.5" font-family="MS Shell Dlg 2" stroke-opacity="1"/>
 </g>
</svg>
