<?xml version='1.0' encoding='UTF-8' standalone='no'?>
<svg width="296.926mm" height="209.973mm" xmlns:inkscape="http://www.inkscape.org/namespaces/inkscape" viewBox="0 0 3507 2480" baseProfile="tiny" xmlns:xlink="http://www.w3.org/1999/xlink" version="1.2" xmlns="http://www.w3.org/2000/svg">
 <defs/>
 <g stroke="black" fill-rule="evenodd" stroke-linejoin="bevel" id="Page" inkscape:label="Page" inkscape:groupmode="layer" stroke-linecap="square" stroke-width="1" fill="none">
  <g stroke="#000000" font-size="27.5" font-weight="400" font-style="normal" font-family="MS Shell Dlg 2" stroke-linejoin="bevel" stroke-linecap="square" transform="matrix(1,0,0,1,0,0)" stroke-opacity="1" stroke-width="1" fill="none"/>
  <g stroke="#000000" font-size="27.5" font-weight="400" font-style="normal" font-family="MS Shell Dlg 2" stroke-linejoin="bevel" stroke-linecap="square" transform="matrix(1,0,0,1,0,0)" stroke-opacity="1" stroke-width="1" fill="none"/>
  <g stroke="#000000" font-size="27.5" font-weight="400" font-style="normal" font-family="MS Shell Dlg 2" stroke-linejoin="bevel" stroke-linecap="square" transform="matrix(11.8081,0,0,11.8081,0,0)" stroke-opacity="1" stroke-width="1" fill="none"/>
  <g stroke="#000000" font-size="27.5" font-weight="400" font-style="normal" font-family="MS Shell Dlg 2" stroke-linejoin="bevel" stroke-linecap="square" transform="matrix(0.999751,0,0,0.999751,0,0)" stroke-opacity="1" stroke-width="1" fill="none"/>
  <g stroke="none" font-size="27.5" font-weight="400" font-style="normal" font-family="MS Shell Dlg 2" fill-opacity="1" transform="matrix(0.999751,0,0,0.999751,0,0)" fill="#ffffff">
   <path fill-rule="evenodd" d="M-2,-2 L3510,-2 L3510,2483 L-2,2483 L-2,-2" vector-effect="none"/>
  </g>
  <g stroke="#000000" font-size="27.5" font-weight="400" font-style="normal" font-family="MS Shell Dlg 2" stroke-linejoin="bevel" stroke-linecap="square" transform="matrix(0.999751,0,0,0.999751,0,0)" stroke-opacity="1" stroke-width="1" fill="none"/>
  <g stroke="#000000" font-size="27.5" font-weight="400" font-style="normal" font-family="MS Shell Dlg 2" stroke-linejoin="bevel" stroke-linecap="square" transform="matrix(11.8081,0,0,11.8081,0,0)" stroke-opacity="1" stroke-width="1" fill="none"/>
  <g stroke="#000000" font-size="27.5" font-weight="400" font-style="normal" font-family="MS Shell Dlg 2" stroke-linejoin="bevel" stroke-linecap="square" transform="matrix(11.8081,0,0,11.8081,0,0)" stroke-opacity="1" stroke-width="1" fill="none"/>
  <g stroke="#000000" font-size="27.5" font-weight="400" font-style="normal" font-family="MS Shell Dlg 2" stroke-linejoin="bevel" stroke-linecap="square" transform="matrix(1,0,0,1,0,0)" stroke-opacity="1" stroke-width="1" fill="none"/>
 </g>
 <defs/>
 <g stroke="black" fill-rule="evenodd" stroke-linejoin="bevel" id="Map 1: Background" inkscape:label="Map 1: Background" inkscape:groupmode="layer" stroke-linecap="square" stroke-width="1" fill="none">
  <g stroke="#000000" font-size="27.5" font-weight="400" font-style="normal" font-family="MS Shell Dlg 2" stroke-linejoin="bevel" stroke-linecap="square" transform="matrix(1,0,0,1,0,0)" stroke-opacity="1" stroke-width="1" fill="none"/>
  <g stroke="#000000" font-size="27.5" font-weight="400" font-style="normal" font-family="MS Shell Dlg 2" stroke-linejoin="bevel" stroke-linecap="square" transform="matrix(1,0,0,1,0,0)" stroke-opacity="1" stroke-width="1" fill="none"/>
  <g stroke="#000000" font-size="27.5" font-weight="400" font-style="normal" font-family="MS Shell Dlg 2" stroke-linejoin="bevel" stroke-linecap="square" transform="matrix(11.8081,0,0,11.8081,0,0)" stroke-opacity="1" stroke-width="1" fill="none"/>
  <g stroke="none" font-size="27.5" font-weight="400" font-style="normal" font-family="MS Shell Dlg 2" fill-opacity="1" transform="matrix(11.8081,0,0,11.8081,0,0)" fill="#ffffff">
   <path fill-rule="evenodd" d="M0,0 L297,0 L297,210 L0,210 L0,0" vector-effect="none"/>
  </g>
  <g stroke="#000000" font-size="27.5" font-weight="400" font-style="normal" font-family="MS Shell Dlg 2" stroke-linejoin="bevel" stroke-linecap="square" transform="matrix(11.8081,0,0,11.8081,0,0)" stroke-opacity="1" stroke-width="1" fill="none"/>
  <g stroke="#000000" font-size="27.5" font-weight="400" font-style="normal" font-family="MS Shell Dlg 2" stroke-linejoin="bevel" stroke-linecap="square" transform="matrix(11.8081,0,0,11.8081,0,0)" stroke-opacity="1" stroke-width="1" fill="none"/>
  <g stroke="#000000" font-size="27.5" font-weight="400" font-style="normal" font-family="MS Shell Dlg 2" stroke-linejoin="bevel" stroke-linecap="square" transform="matrix(11.8081,0,0,11.8081,0,0)" stroke-opacity="1" stroke-width="1" fill="none"/>
  <g stroke="#000000" font-size="27.5" font-weight="400" font-style="normal" font-family="MS Shell Dlg 2" stroke-linejoin="bevel" stroke-linecap="square" transform="matrix(11.8081,0,0,11.8081,0,0)" stroke-opacity="1" stroke-width="1" fill="none"/>
  <g stroke="#000000" font-size="27.5" font-weight="400" font-style="normal" font-family="MS Shell Dlg 2" stroke-linejoin="bevel" stroke-linecap="square" transform="matrix(1,0,0,1,0,0)" stroke-opacity="1" stroke-width="1" fill="none"/>
  <g stroke="#000000" font-size="27.5" font-weight="400" font-style="normal" font-family="MS Shell Dlg 2" stroke-linejoin="bevel" stroke-linecap="square" transform="matrix(11.8081,0,0,11.8081,0,0)" stroke-opacity="1" stroke-width="1" fill="none"/>
  <g stroke="#000000" font-size="27.5" font-weight="400" font-style="normal" font-family="MS Shell Dlg 2" stroke-linejoin="bevel" stroke-linecap="square" transform="matrix(11.8081,0,0,11.8081,0,0)" stroke-opacity="1" stroke-width="1" fill="none"/>
  <g stroke="#000000" font-size="27.5" font-weight="400" font-style="normal" font-family="MS Shell Dlg 2" stroke-linejoin="bevel" stroke-linecap="square" transform="matrix(1,0,0,1,0,0)" stroke-opacity="1" stroke-width="1" fill="none"/>
 </g>
 <defs/>
 <g stroke="black" fill-rule="evenodd" stroke-linejoin="bevel" id="Map 1: Vatha" inkscape:label="Map 1: Vatha" inkscape:groupmode="layer" stroke-linecap="square" stroke-width="1" fill="none">
  <g stroke="#000000" font-size="27.5" font-weight="400" font-style="normal" font-family="MS Shell Dlg 2" stroke-linejoin="bevel" stroke-linecap="square" transform="matrix(1,0,0,1,0,0)" stroke-opacity="1" stroke-width="1" fill="none"/>
  <g stroke="#000000" font-size="27.5" font-weight="400" font-style="normal" font-family="MS Shell Dlg 2" stroke-linejoin="bevel" stroke-linecap="square" transform="matrix(1,0,0,1,0,0)" stroke-opacity="1" stroke-width="1" fill="none"/>
  <g stroke="#000000" font-size="27.5" font-weight="400" font-style="normal" font-family="MS Shell Dlg 2" stroke-linejoin="bevel" stroke-linecap="square" transform="matrix(11.8081,0,0,11.8081,0,0)" stroke-opacity="1" stroke-width="1" fill="none"/>
  <g stroke="#000000" font-size="27.5" font-weight="400" font-style="normal" font-family="MS Shell Dlg 2" stroke-linejoin="bevel" stroke-linecap="square" transform="matrix(11.8081,0,0,11.8081,0,0)" stroke-opacity="1" stroke-width="1" fill="none"/>
  <g stroke="none" font-size="27.5" font-weight="400" font-style="normal" font-family="MS Shell Dlg 2" fill-opacity="0" transform="matrix(0.999751,0,0,0.999751,0,0)" fill="#000000">
   <rect width="3508" x="0" height="2480" y="0"/>
  </g>
  <g stroke="#000000" font-size="27.5" font-weight="400" font-style="normal" font-family="MS Shell Dlg 2" stroke-linejoin="bevel" stroke-linecap="square" transform="matrix(0.999751,0,0,0.999751,0,0)" stroke-opacity="1" stroke-width="1" fill="none"/>
  <g stroke="#232323" font-size="27.5" font-weight="400" font-style="normal" font-family="MS Shell Dlg 2" stroke-linejoin="bevel" fill-opacity="1" stroke-linecap="square" transform="matrix(0.999751,0,0,0.999751,0,0)" stroke-opacity="1" stroke-width="5.90551" fill="#cd54d8">
   <path fill-rule="evenodd" d="M441.055,1521.22 L432.993,1513.15 L399.398,1495.68 L356.398,1556.15 L338.929,1546.75 L313.397,1503.75 L295.928,1513.15 L244.865,1503.75 L236.802,1495.68 L262.334,1452.68 L219.333,1444.62 L201.864,1419.09 L236.802,1401.62 L228.739,1368.03 L219.333,1342.49 L219.333,1325.03 L236.802,1308.9 L262.334,1316.96 L270.396,1325.03 L295.928,1342.49 L305.334,1350.56 L330.866,1359.96 L346.991,1342.49 L356.398,1325.03 L356.398,1316.96 L373.867,1291.43 L373.867,1248.43 L381.929,1248.43 L381.929,1214.84 L381.929,1206.77 L424.93,1189.3 L432.993,1189.3 L450.462,1214.84 L450.462,1232.31 L424.93,1257.84 L450.462,1283.37 L475.993,1273.96 L493.463,1291.43 L493.463,1299.49 L518.994,1308.9 L535.119,1299.49 L544.526,1265.9 L552.588,1265.9 L552.588,1248.43 L570.058,1240.37 L595.589,1240.37 L595.589,1206.77 L586.183,1189.3 L578.12,1171.84 L586.183,1163.77 L586.183,1146.3 L595.589,1120.77 L603.652,1095.24 L611.714,1087.18 L611.714,1069.71 L603.652,1044.18 L603.652,1036.11 L595.589,1018.65 L611.714,1001.18 L603.652,967.582 L611.714,950.113 L611.714,942.05 L611.714,924.581 L638.59,908.456 L638.59,882.924 L664.122,873.518 L672.184,865.455 L689.653,857.393 L697.716,839.924 L740.717,857.393 L756.842,865.455 L766.248,865.455 L774.311,865.455 L809.249,847.986 L809.249,814.392 L809.249,788.86 L809.249,763.329 L783.717,745.86 L783.717,712.265 L817.312,694.796 L834.781,694.796 L850.906,678.671 L860.312,678.671 L868.375,669.265 L876.438,643.733 L850.906,610.139 L850.906,602.076 L860.312,592.67 L868.375,592.67 L876.438,592.67 L903.313,592.67 L911.376,584.607 L944.97,592.67 L962.439,584.607 L970.502,567.138 L954.376,549.669 L970.502,516.074 L979.908,516.074 L1005.44,490.543 L1005.44,482.48 L1030.97,473.074 L1056.5,473.074 L1064.57,490.543 L1064.57,498.605 L1090.1,524.137 L1099.5,524.137 L1107.57,516.074 L1115.63,482.48 L1141.16,465.011 L1158.63,465.011 L1176.1,465.011 L1193.57,456.949 L1209.69,456.949 L1219.1,465.011 L1219.1,473.074 L1209.69,498.605 L1184.16,516.074 L1168.04,533.544 L1168.04,541.606 L1150.57,549.669 L1150.57,584.607 L1158.63,592.67 L1141.16,627.608 L1133.1,627.608 L1115.63,643.733 L1125.04,661.202 L1107.57,669.265 L1099.5,694.796 L1107.57,704.203 L1099.5,712.265 L1115.63,755.266 L1141.16,737.797 L1141.16,712.265 L1158.63,704.203 L1168.04,678.671 L1184.16,678.671 L1209.69,704.203 L1219.1,720.328 L1227.16,720.328 L1260.76,704.203 L1270.16,694.796 L1286.29,678.671 L1295.69,678.671 L1303.76,678.671 L1321.23,720.328 L1329.29,745.86 L1338.7,755.266 L1372.29,737.797 L1397.82,720.328 L1405.88,712.265 L1423.35,704.203 L1423.35,669.265 L1405.88,669.265 L1397.82,635.67 L1415.29,627.608 L1405.88,610.139 L1423.35,592.67 L1423.35,575.2 L1466.35,567.138 L1483.82,584.607 L1517.42,567.138 L1534.89,602.076 L1525.48,618.201 L1525.48,627.608 L1534.89,643.733 L1577.89,627.608 L1585.95,610.139 L1577.89,584.607 L1577.89,575.2 L1551.01,549.669 L1525.48,541.606 L1517.42,541.606 L1525.48,508.012 L1517.42,490.543 L1517.42,482.48 L1517.42,456.949 L1491.89,431.417 L1466.35,431.417 L1466.35,422.01 L1440.82,413.948 L1423.35,413.948 L1415.29,422.01 L1380.35,413.948 L1372.29,388.416 L1389.76,370.947 L1405.88,370.947 L1423.35,362.884 L1431.42,362.884 L1440.82,329.29 L1458.29,329.29 L1474.42,303.759 L1474.42,268.82 L1466.35,268.82 L1474.42,252.695 L1458.29,217.757 L1448.88,217.757 L1431.42,209.694 L1431.42,217.757 L1415.29,243.289 L1431.42,268.82 L1423.35,294.352 L1405.88,294.352 L1380.35,286.289 L1364.23,278.227 L1354.82,268.82 L1329.29,243.289 L1329.29,235.226 L1346.76,217.757 L1354.82,209.694 L1380.35,201.632 L1364.23,166.694 L1372.29,150.568 L1380.35,150.568 L1397.82,158.631 L1415.29,150.568 L1431.42,166.694 L1448.88,158.631 L1474.42,184.163 L1474.42,176.1 L1499.95,184.163 L1517.42,201.632 L1525.48,209.694 L1542.95,227.163 L1560.42,235.226 L1568.48,252.695 L1577.89,294.352 L1577.89,337.353 L1603.42,329.29 L1611.48,303.759 L1628.95,286.289 L1654.48,303.759 L1662.54,329.29 L1670.61,329.29 L1696.14,329.29 L1705.54,319.884 L1713.61,311.821 L1731.08,303.759 L1748.55,303.759 L1774.08,311.821 L1790.2,311.821 L1815.73,319.884 L1833.2,311.821 L1850.67,311.821 L1876.2,329.29 L1884.27,337.353 L1893.67,337.353 L1909.8,329.29 L1935.33,345.415 L1944.74,370.947 L1960.86,380.354 L1978.33,380.354 L1995.8,388.416 L2003.86,388.416 L2021.33,380.354 L2029.39,370.947 L2054.93,388.416 L2072.39,370.947 L2097.93,396.479 L2097.93,405.885 L2140.93,413.948 L2140.93,431.417 L2158.4,431.417 L2174.52,465.011 L2166.46,482.48 L2183.93,498.605 L2200.05,498.605 L2209.46,516.074 L2225.58,533.544 L2234.99,533.544 L2243.05,533.544 L2251.12,508.012 L2243.05,490.543 L2260.52,465.011 L2286.05,473.074 L2286.05,508.012 L2294.12,508.012 L2294.12,533.544 L2294.12,541.606 L2303.52,567.138 L2337.12,559.075 L2345.18,533.544 L2337.12,524.137 L2345.18,508.012 L2345.18,498.605 L2337.12,498.605 L2329.06,473.074 L2345.18,439.479 L2354.59,431.417 L2370.71,422.01 L2380.12,422.01 L2405.65,422.01 L2423.12,413.948 L2448.65,431.417 L2464.78,422.01 L2482.25,439.479 L2499.71,431.417 L2525.25,447.542 L2533.31,447.542 L2550.78,473.074 L2542.71,508.012 L2550.78,524.137 L2576.31,533.544 L2601.84,516.074 L2644.84,524.137 L2644.84,584.607 L2695.9,584.607 L2695.9,635.67 L2703.97,643.733 L2687.84,669.265 L2713.37,694.796 L2695.9,729.734 L2695.9,737.797 L2729.5,745.86 L2738.91,763.329 L2772.5,780.798 L2798.03,771.391 L2815.5,780.798 L2815.5,814.392 L2798.03,831.861 L2798.03,857.393 L2772.5,873.518 L2807.44,924.581 L2789.97,942.05 L2823.56,985.051 L2841.03,993.114 L2832.97,1018.65 L2874.63,1044.18 L2884.03,1044.18 L2909.56,1087.18 L2943.16,1079.12 L2960.63,1061.65 L3011.69,1095.24 L3054.69,1130.18 L3054.69,1138.24 L3045.29,1146.3 L3070.82,1197.37 L3070.82,1206.77 L3070.82,1232.31 L3045.29,1248.43 L3037.22,1248.43 L3029.16,1257.84 L2994.22,1248.43 L2978.1,1257.84 L2960.63,1283.37 L2986.16,1299.49 L2994.22,1299.49 L3019.75,1308.9 L3029.16,1308.9 L3045.29,1316.96 L3045.29,1325.03 L3045.29,1342.49 L3088.29,1359.96 L3088.29,1376.09 L3105.76,1385.5 L3113.82,1401.62 L3123.22,1411.03 L3123.22,1436.56 L3148.76,1452.68 L3148.76,1462.09 L3174.29,1478.22 L3164.88,1487.62 L3207.88,1503.75 L3207.88,1495.68 L3199.82,1478.22 L3225.35,1452.68 L3233.41,1452.68 L3250.88,1436.56 L3258.95,1444.62 L3258.95,1470.15 L3276.41,1487.62 L3310.01,1495.68 L3310.01,1530.62 L3284.48,1556.15 L3319.42,1597.81 L3276.41,1623.34 L3284.48,1648.87 L3301.95,1648.87 L3310.01,1658.28 L3327.48,1683.81 L3319.42,1699.94 L3327.48,1742.94 L3310.01,1751 L3319.42,1811.47 L3293.88,1862.53 L3284.48,1870.6 L3319.42,1913.6 L3301.95,1929.72 L3258.95,1921.66 L3233.41,1947.19 L3258.95,1980.79 L3258.95,1990.19 L3242.82,2015.72 L3225.35,2015.72 L3217.29,2015.72 L3190.41,2015.72 L3182.35,2066.79 L3164.88,2066.79 L3148.76,2058.72 L3148.76,2049.32 L3156.82,2015.72 L3123.22,2007.66 L3123.22,1990.19 L3097.69,1972.72 L3097.69,1964.66 L3070.82,1947.19 L3054.69,1955.25 L3054.69,1972.72 L3070.82,1990.19 L3062.75,2023.79 L3019.75,2015.72 L3011.69,2033.19 L3011.69,2049.32 L3003.63,2084.26 L2986.16,2109.79 L2978.1,2117.85 L2952.57,2109.79 L2952.57,2100.38 L2960.63,2066.79 L2960.63,2058.72 L2960.63,2033.19 L2935.1,2023.79 L2917.63,2033.19 L2892.1,2023.79 L2874.63,2033.19 L2866.56,2023.79 L2849.1,1990.19 L2849.1,1980.79 L2858.5,1947.19 L2849.1,1947.19 L2858.5,1921.66 L2841.03,1913.6 L2858.5,1888.07 L2823.56,1870.6 L2798.03,1896.13 L2789.97,1904.19 L2780.56,1904.19 L2772.5,1929.72 L2772.5,1939.13 L2764.44,1964.66 L2738.91,1972.72 L2729.5,1998.26 L2738.91,2007.66 L2746.97,2007.66 L2772.5,1998.26 L2798.03,2007.66 L2807.44,2015.72 L2807.44,2023.79 L2832.97,2041.26 L2832.97,2066.79 L2858.5,2074.85 L2874.63,2066.79 L2892.1,2074.85 L2909.56,2074.85 L2917.63,2100.38 L2884.03,2125.91 L2884.03,2117.85 L2849.1,2109.79 L2841.03,2109.79 L2832.97,2125.91 L2841.03,2135.32 L2849.1,2143.38 L2858.5,2168.91 L2849.1,2176.98 L2823.56,2176.98 L2815.5,2168.91 L2789.97,2160.85 L2780.56,2160.85 L2780.56,2151.45 L2764.44,2143.38 L2746.97,2135.32 L2729.5,2117.85 L2721.44,2117.85 L2703.97,2135.32 L2695.9,2151.45 L2670.37,2160.85 L2644.84,2168.91 L2635.44,2176.98 L2619.31,2168.91 L2593.78,2186.38 L2593.78,2202.51 L2619.31,2219.98 L2644.84,2211.91 L2678.44,2211.91 L2695.9,2237.45 L2678.44,2262.98 L2660.97,2262.98 L2652.9,2262.98 L2635.44,2262.98 L2609.9,2279.1 L2609.9,2296.57 L2584.37,2304.64 L2576.31,2314.04 L2550.78,2314.04 L2542.71,2322.1 L2515.84,2304.64 L2515.84,2296.57 L2482.25,2279.1 L2474.18,2262.98 L2448.65,2245.51 L2439.24,2219.98 L2423.12,2219.98 L2396.24,2228.04 L2388.18,2237.45 L2396.24,2271.04 L2405.65,2271.04 L2423.12,2288.51 L2431.18,2296.57 L2448.65,2322.1 L2439.24,2339.57 L2423.12,2339.57 L2388.18,2365.1 L2388.18,2373.17 L2380.12,2398.7 L2370.71,2424.23 L2337.12,2424.23 L2337.12,2390.64 L2329.06,2365.1 L2337.12,2355.7 L2337.12,2347.64 L2311.59,2322.1 L2303.52,2314.04 L2294.12,2322.1 L2268.59,2322.1 L2251.12,2314.04 L2243.05,2314.04 L2225.58,2304.64 L2200.05,2322.1 L2191.99,2314.04 L2166.46,2330.17 L2148.99,2322.1 L2132.86,2330.17 L2123.46,2339.57 L2140.93,2365.1 L2140.93,2381.23 L2123.46,2390.64 L2115.4,2381.23 L2097.93,2365.1 L2089.86,2355.7 L2080.46,2330.17 L2072.39,2330.17 L2064.33,2314.04 L2080.46,2279.1 L2089.86,2245.51 L2097.93,2245.51 L2105.99,2211.91 L2089.86,2194.45 L2072.39,2194.45 L2064.33,2194.45 L2054.93,2211.91 L2038.8,2219.98 L2029.39,2228.04 L2013.27,2237.45 L1978.33,2219.98 L1978.33,2186.38 L1960.86,2160.85 L1927.27,2160.85 L1919.2,2160.85 L1893.67,2143.38 L1893.67,2135.32 L1868.14,2125.91 L1858.73,2125.91 L1833.2,2109.79 L1833.2,2100.38 L1850.67,2074.85 L1884.27,2066.79 L1901.74,2066.79 L1927.27,2058.72 L1960.86,2066.79 L1978.33,2066.79 L1987.74,2074.85 L1995.8,2074.85 L2029.39,2049.32 L2046.86,2023.79 L2054.93,2023.79 L2072.39,1990.19 L2038.8,1972.72 L2038.8,1964.66 L2021.33,1964.66 L2013.27,1939.13 L2029.39,1904.19 L2046.86,1878.66 L2038.8,1870.6 L2064.33,1837 L2080.46,1837 L2080.46,1845.07 L2115.4,1870.6 L2123.46,1870.6 L2132.86,1853.13 L2123.46,1837 L2148.99,1802.06 L2158.4,1811.47 L2174.52,1802.06 L2200.05,1776.53 L2217.52,1768.47 L2217.52,1751 L2225.58,1742.94 L2268.59,1751 L2294.12,1734.88 L2294.12,1709.34 L2294.12,1699.94 L2303.52,1683.81 L2294.12,1674.41 L2303.52,1648.87 L2303.52,1640.81 L2311.59,1615.28 L2337.12,1607.22 L2345.18,1615.28 L2362.65,1607.22 L2380.12,1615.28 L2396.24,1615.28 L2405.65,1648.87 L2423.12,1658.28 L2431.18,1648.87 L2448.65,1658.28 L2464.78,1648.87 L2499.71,1648.87 L2490.31,1615.28 L2499.71,1589.75 L2490.31,1572.28 L2499.71,1546.75 L2499.71,1530.62 L2499.71,1521.22 L2490.31,1503.75 L2464.78,1495.68 L2448.65,1503.75 L2448.65,1513.15 L2448.65,1530.62 L2439.24,1556.15 L2405.65,1556.15 L2380.12,1546.75 L2370.71,1546.75 L2354.59,1546.75 L2345.18,1521.22 L2370.71,1487.62 L2380.12,1487.62 L2405.65,1462.09 L2405.65,1452.68 L2354.59,1452.68 L2337.12,1452.68 L2311.59,1478.22 L2319.65,1487.62 L2286.05,1513.15 L2294.12,1521.22 L2268.59,1538.69 L2268.59,1564.22 L2234.99,1564.22 L2225.58,1546.75 L2225.58,1521.22 L2243.05,1513.15 L2243.05,1495.68 L2243.05,1478.22 L2234.99,1452.68 L2209.46,1444.62 L2200.05,1478.22 L2191.99,1478.22 L2183.93,1503.75 L2183.93,1513.15 L2174.52,1530.62 L2183.93,1546.75 L2158.4,1572.28 L2132.86,1564.22 L2115.4,1546.75 L2080.46,1546.75 L2054.93,1530.62 L2013.27,1513.15 L1978.33,1503.75 L1970.27,1513.15 L1952.8,1503.75 L1944.74,1513.15 L1919.2,1503.75 L1919.2,1487.62 L1919.2,1470.15 L1901.74,1444.62 L1901.74,1436.56 L1884.27,1411.03 L1884.27,1401.62 L1858.73,1385.5 L1833.2,1401.62 L1825.14,1393.56 L1799.61,1401.62 L1790.2,1401.62 L1774.08,1411.03 L1764.67,1419.09 L1739.14,1436.56 L1731.08,1436.56 L1705.54,1444.62 L1670.61,1452.68 L1688.08,1470.15 L1680.01,1487.62 L1680.01,1503.75 L1688.08,1513.15 L1688.08,1521.22 L1670.61,1546.75 L1645.08,1546.75 L1628.95,1538.69 L1628.95,1530.62 L1611.48,1521.22 L1594.01,1503.75 L1568.48,1503.75 L1560.42,1521.22 L1568.48,1538.69 L1542.95,1564.22 L1542.95,1572.28 L1517.42,1589.75 L1499.95,1597.81 L1466.35,1607.22 L1466.35,1597.81 L1458.29,1597.81 L1431.42,1589.75 L1423.35,1589.75 L1415.29,1589.75 L1389.76,1589.75 L1380.35,1589.75 L1372.29,1597.81 L1372.29,1632.75 L1364.23,1632.75 L1364.23,1658.28 L1372.29,1683.81 L1380.35,1683.81 L1372.29,1717.41 L1346.76,1725.47 L1303.76,1734.88 L1303.76,1742.94 L1278.23,1751 L1278.23,1760.41 L1260.76,1768.47 L1252.69,1776.53 L1235.22,1785.94 L1235.22,1802.06 L1219.1,1811.47 L1219.1,1837 L1201.63,1845.07 L1184.16,1845.07 L1184.16,1853.13 L1141.16,1853.13 L1133.1,1870.6 L1115.63,1878.66 L1107.57,1896.13 L1099.5,1913.6 L1107.57,1947.19 L1150.57,1955.25 L1150.57,1964.66 L1168.04,1972.72 L1176.1,1990.19 L1158.63,2007.66 L1168.04,2023.79 L1150.57,2041.26 L1158.63,2066.79 L1141.16,2074.85 L1125.04,2074.85 L1107.57,2033.19 L1064.57,2049.32 L1056.5,2049.32 L1039.03,2007.66 L1021.56,1998.26 L1013.5,1990.19 L1005.44,1964.66 L996.033,1955.25 L962.439,1955.25 L944.97,1939.13 L954.376,1904.19 L919.438,1888.07 L911.376,1862.53 L919.438,1853.13 L893.907,1802.06 L911.376,1785.94 L928.845,1751 L954.376,1742.94 L962.439,1734.88 L962.439,1709.34 L954.376,1699.94 L954.376,1658.28 L970.502,1632.75 L962.439,1615.28 L970.502,1597.81 L996.033,1581.69 L1005.44,1564.22 L944.97,1546.75 L954.376,1513.15 L954.376,1503.75 L954.376,1470.15 L928.845,1452.68 L911.376,1462.09 L868.375,1452.68 L850.906,1478.22 L817.312,1495.68 L809.249,1478.22 L766.248,1478.22 L756.842,1503.75 L715.185,1495.68 L723.248,1556.15 L705.779,1572.28 L654.715,1546.75 L672.184,1513.15 L595.589,1487.62 L595.589,1495.68 L552.588,1495.68 L535.119,1521.22 L501.525,1513.15 L484.056,1546.75 L458.524,1546.75 L441.055,1521.22 M1107.57,806.329 L1107.57,788.86 L1107.57,763.329 L1099.5,763.329 L1064.57,780.798 L1064.57,796.923 L1090.1,814.392 L1107.57,806.329 M936.907,822.455 L954.376,806.329 L954.376,796.923 L944.97,796.923 L911.376,788.86 L903.313,822.455 L936.907,822.455 M2558.84,1546.75 L2576.31,1564.22 L2584.37,1564.22 L2619.31,1572.28 L2619.31,1581.69 L2627.37,1589.75 L2652.9,1572.28 L2652.9,1546.75 L2660.97,1538.69 L2687.84,1538.69 L2703.97,1538.69 L2713.37,1503.75 L2703.97,1503.75 L2678.44,1503.75 L2670.37,1487.62 L2670.37,1478.22 L2660.97,1470.15 L2660.97,1452.68 L2644.84,1436.56 L2619.31,1436.56 L2601.84,1452.68 L2609.9,1478.22 L2601.84,1495.68 L2593.78,1503.75 L2568.25,1513.15 L2558.84,1530.62 L2558.84,1546.75 M2046.86,712.265 L2038.8,737.797 L2046.86,755.266 L2038.8,763.329 L2054.93,796.923 L2080.46,796.923 L2089.86,763.329 L2089.86,745.86 L2089.86,729.734 L2089.86,712.265 L2080.46,694.796 L2080.46,678.671 L2064.33,661.202 L2029.39,669.265 L2038.8,704.203 L2046.86,712.265 M2968.69,1350.56 L2978.1,1342.49 L2968.69,1325.03 L2943.16,1308.9 L2925.69,1316.96 L2925.69,1334.43 L2935.1,1342.49 L2968.69,1350.56 M2892.1,1462.09 L2892.1,1487.62 L2858.5,1495.68 L2858.5,1503.75 L2841.03,1513.15 L2823.56,1530.62 L2823.56,1538.69 L2798.03,1521.22 L2789.97,1513.15 L2764.44,1495.68 L2755.03,1503.75 L2755.03,1513.15 L2764.44,1546.75 L2746.97,1564.22 L2755.03,1589.75 L2780.56,1597.81 L2807.44,1581.69 L2823.56,1589.75 L2832.97,1581.69 L2866.56,1597.81 L2866.56,1615.28 L2866.56,1623.34 L2866.56,1648.87 L2900.16,1658.28 L2909.56,1648.87 L2943.16,1658.28 L2960.63,1623.34 L2943.16,1597.81 L2917.63,1581.69 L2917.63,1564.22 L2943.16,1538.69 L2960.63,1546.75 L2978.1,1546.75 L2994.22,1556.15 L3019.75,1546.75 L3019.75,1521.22 L3003.63,1503.75 L2968.69,1495.68 L2960.63,1478.22 L2960.63,1462.09 L2960.63,1452.68 L2960.63,1436.56 L2952.57,1411.03 L2943.16,1411.03 L2909.56,1419.09 L2900.16,1436.56 L2900.16,1452.68 L2892.1,1462.09 M2849.1,1299.49 L2841.03,1334.43 L2866.56,1342.49 L2884.03,1334.43 L2884.03,1308.9 L2874.63,1299.49 L2849.1,1299.49" vector-effect="none"/>
   <path fill-rule="evenodd" d="M2234.99,303.759 L2251.12,286.289 L2277.99,260.758 L2286.05,252.695 L2319.65,235.226 L2329.06,235.226 L2329.06,252.695 L2362.65,268.82 L2380.12,260.758 L2388.18,278.227 L2380.12,303.759 L2405.65,303.759 L2413.71,319.884 L2439.24,329.29 L2431.18,354.822 L2405.65,370.947 L2388.18,337.353 L2354.59,329.29 L2345.18,354.822 L2329.06,362.884 L2319.65,388.416 L2294.12,388.416 L2286.05,405.885 L2251.12,413.948 L2217.52,422.01 L2209.46,422.01 L2183.93,413.948 L2191.99,380.354 L2209.46,380.354 L2217.52,345.415 L2225.58,337.353 L2234.99,319.884 L2234.99,311.821 L2234.99,303.759" vector-effect="none"/>
   <path fill-rule="evenodd" d="M1235.22,592.67 L1260.76,602.076 L1260.76,635.67 L1260.76,643.733 L1227.16,643.733 L1219.1,610.139 L1235.22,592.67" vector-effect="none"/>
   <path fill-rule="evenodd" d="M1901.74,1980.79 L1901.74,1964.66 L1901.74,1955.25 L1919.2,1955.25 L1944.74,1972.72 L1944.74,1998.26 L1935.33,1998.26 L1909.8,1998.26 L1901.74,1980.79" vector-effect="none"/>
   <path fill-rule="evenodd" d="M1534.89,1648.87 L1534.89,1607.22 L1551.01,1615.28 L1560.42,1640.81 L1560.42,1648.87 L1534.89,1648.87" vector-effect="none"/>
  </g>
  <g stroke="#000000" font-size="27.5" font-weight="400" font-style="normal" font-family="MS Shell Dlg 2" stroke-linejoin="bevel" stroke-linecap="square" transform="matrix(0.999751,0,0,0.999751,0,0)" stroke-opacity="1" stroke-width="1" fill="none"/>
  <g stroke="#000000" font-size="27.5" font-weight="400" font-style="normal" font-family="MS Shell Dlg 2" stroke-linejoin="bevel" stroke-linecap="square" transform="matrix(11.8081,0,0,11.8081,0,0)" stroke-opacity="1" stroke-width="1" fill="none"/>
  <g stroke="#000000" font-size="27.5" font-weight="400" font-style="normal" font-family="MS Shell Dlg 2" stroke-linejoin="bevel" stroke-linecap="square" transform="matrix(11.8081,0,0,11.8081,0,0)" stroke-opacity="1" stroke-width="1" fill="none"/>
  <g stroke="#000000" font-size="27.5" font-weight="400" font-style="normal" font-family="MS Shell Dlg 2" stroke-linejoin="bevel" stroke-linecap="square" transform="matrix(11.8081,0,0,11.8081,0,0)" stroke-opacity="1" stroke-width="1" fill="none"/>
  <g stroke="#000000" font-size="27.5" font-weight="400" font-style="normal" font-family="MS Shell Dlg 2" stroke-linejoin="bevel" stroke-linecap="square" transform="matrix(1,0,0,1,0,0)" stroke-opacity="1" stroke-width="1" fill="none"/>
  <g stroke="#000000" font-size="27.5" font-weight="400" font-style="normal" font-family="MS Shell Dlg 2" stroke-linejoin="bevel" stroke-linecap="square" transform="matrix(11.8081,0,0,11.8081,0,0)" stroke-opacity="1" stroke-width="1" fill="none"/>
  <g stroke="#000000" font-size="27.5" font-weight="400" font-style="normal" font-family="MS Shell Dlg 2" stroke-linejoin="bevel" stroke-linecap="square" transform="matrix(11.8081,0,0,11.8081,0,0)" stroke-opacity="1" stroke-width="1" fill="none"/>
  <g stroke="#000000" font-size="27.5" font-weight="400" font-style="normal" font-family="MS Shell Dlg 2" stroke-linejoin="bevel" stroke-linecap="square" transform="matrix(1,0,0,1,0,0)" stroke-opacity="1" stroke-width="1" fill="none"/>
 </g>
 <defs/>
 <g stroke="black" fill-rule="evenodd" stroke-linejoin="bevel" id="Map 1: Vatha (Labels)" inkscape:label="Map 1: Vatha (Labels)" inkscape:groupmode="layer" stroke-linecap="square" stroke-width="1" fill="none">
  <g stroke="#000000" font-size="27.5" font-weight="400" font-style="normal" font-family="MS Shell Dlg 2" stroke-linejoin="bevel" stroke-linecap="square" transform="matrix(1,0,0,1,0,0)" stroke-opacity="1" stroke-width="1" fill="none"/>
  <g stroke="#000000" font-size="27.5" font-weight="400" font-style="normal" font-family="MS Shell Dlg 2" stroke-linejoin="bevel" stroke-linecap="square" transform="matrix(1,0,0,1,0,0)" stroke-opacity="1" stroke-width="1" fill="none"/>
  <g stroke="#000000" font-size="27.5" font-weight="400" font-style="normal" font-family="MS Shell Dlg 2" stroke-linejoin="bevel" stroke-linecap="square" transform="matrix(11.8081,0,0,11.8081,0,0)" stroke-opacity="1" stroke-width="1" fill="none"/>
  <g stroke="#000000" font-size="27.5" font-weight="400" font-style="normal" font-family="MS Shell Dlg 2" stroke-linejoin="bevel" stroke-linecap="square" transform="matrix(11.8081,0,0,11.8081,0,0)" stroke-opacity="1" stroke-width="1" fill="none"/>
  <g stroke="none" font-size="27.5" font-weight="400" font-style="normal" font-family="MS Shell Dlg 2" fill-opacity="0" transform="matrix(0.999751,0,0,0.999751,0,0)" fill="#000000">
   <rect width="3508" x="0" height="2480" y="0"/>
  </g>
  <g stroke="#000000" font-size="27.5" font-weight="400" font-style="normal" font-family="MS Shell Dlg 2" stroke-linejoin="bevel" stroke-linecap="square" transform="matrix(0.999751,0,0,0.999751,0,0)" stroke-opacity="1" stroke-width="1" fill="none"/>
  <g stroke="#000000" font-size="27.5" font-weight="400" font-style="normal" font-family="MS Shell Dlg 2" stroke-linejoin="bevel" stroke-linecap="square" transform="matrix(0.3999,0,0,0.3999,1861.67,1273.81)" stroke-opacity="1" stroke-width="1" fill="none"/>
  <g stroke="none" font-size="27.5" font-weight="400" font-style="normal" font-family="MS Shell Dlg 2" fill-opacity="1" transform="matrix(0.999751,0,0,0.999751,1861.67,1273.81)" fill="#323232">
   <path fill-rule="nonzero" d="M17.766,0.336 C16.114,0.112 14.273,0 12.243,0 C10.213,0 8.764,0.056 7.896,0.168 L7.728,-0.42 C8.064,-0.532 8.386,-0.707 8.694,-0.945 C9.002,-1.183 9.156,-1.442 9.156,-1.722 C9.156,-3.766 7.294,-10.598 3.57,-22.218 C3.234,-23.282 2.898,-24.22 2.562,-25.032 C-0.714,-25.032 -2.814,-24.584 -3.738,-23.688 C-3.934,-23.296 -4.032,-22.68 -4.032,-21.84 C-4.032,-21 -3.892,-20.426 -3.612,-20.118 L-3.654,-19.824 C-4.354,-19.404 -5.054,-18.816 -5.754,-18.06 C-6.09,-18.088 -6.363,-18.228 -6.573,-18.48 C-6.783,-18.732 -6.888,-19.026 -6.888,-19.362 C-6.888,-20.734 -6.062,-22.372 -4.41,-24.276 C-2.758,-26.18 -1.218,-27.384 0.21,-27.888 C0.434,-27.888 1.442,-27.797 3.234,-27.615 C5.026,-27.433 6.433,-27.342 7.455,-27.342 C8.477,-27.342 9.422,-27.426 10.29,-27.594 L10.458,-26.544 C9.562,-26.208 8.372,-25.844 6.888,-25.452 C7.168,-23.072 7.903,-19.663 9.093,-15.225 C10.283,-10.787 11.55,-6.678 12.894,-2.898 C15.246,-8.106 16.821,-12.061 17.619,-14.763 C18.417,-17.465 18.816,-19.796 18.816,-21.756 C18.816,-24.388 18.116,-26.11 16.716,-26.922 L16.884,-27.51 C17.752,-27.398 19.145,-27.342 21.063,-27.342 C22.981,-27.342 24.766,-27.454 26.418,-27.678 L26.586,-26.628 C25.326,-26.236 23.982,-25.942 22.554,-25.746 C22.694,-24.766 22.764,-23.954 22.764,-23.31 C22.764,-20.846 22.155,-18.2 20.937,-15.372 C19.719,-12.544 17.374,-7.91 13.902,-1.47 C15.33,-1.274 16.674,-0.98 17.934,-0.588 L17.766,0.336 M29.536,-22.344 C32.168,-22.036 34.828,-21.882 37.516,-21.882 C40.204,-21.882 42.85,-22.036 45.454,-22.344 L45.622,-21.252 C44.782,-20.916 43.914,-20.664 43.018,-20.496 C42.71,-18.2 42.556,-15.008 42.556,-10.92 C42.556,-6.832 42.71,-3.64 43.018,-1.344 C43.578,-1.26 44.614,-1.05 46.126,-0.714 L45.958,0.336 C44.614,0.112 42.892,0 40.792,0 C38.692,0 37.082,0.112 35.962,0.336 L35.794,-0.756 C36.746,-1.064 37.824,-1.288 39.028,-1.428 C39.196,-3.052 39.322,-5.306 39.406,-8.19 C38.09,-8.33 36.774,-8.4 35.458,-8.4 C34.142,-8.4 32.994,-8.33 32.014,-8.19 C31.454,-5.894 31.174,-4.298 31.174,-3.402 C31.174,-2.03 31.664,-1.064 32.644,-0.504 L32.476,0.21 C31.832,0.07 30.614,0 28.822,0 C27.03,0 25.616,0.112 24.58,0.336 L24.412,-0.756 C25.084,-1.008 26.008,-1.232 27.184,-1.428 L32.644,-20.58 C31.412,-20.776 30.334,-21 29.41,-21.252 L29.536,-22.344 M32.35,-10.164 C33.442,-9.996 34.653,-9.912 35.983,-9.912 C37.313,-9.912 38.454,-9.996 39.406,-10.164 C39.406,-15.344 39.294,-18.69 39.07,-20.202 C38.118,-20.258 37.411,-20.286 36.949,-20.286 C36.487,-20.286 35.78,-20.258 34.828,-20.202 L32.35,-10.164 M62.54,-19.614 C61.56,-20.09 60.622,-20.328 59.726,-20.328 C58.83,-20.328 58.228,-20.272 57.92,-20.16 C57.696,-18.648 57.584,-15.722 57.584,-11.382 C57.584,-7.042 57.738,-3.71 58.046,-1.386 C59.306,-1.246 60.468,-1.036 61.532,-0.756 L61.406,0.294 C59.95,0.098 58.277,0 56.387,0 C54.497,0 52.838,0.112 51.41,0.336 L51.242,-0.756 C51.802,-0.924 52.768,-1.134 54.14,-1.386 C54.392,-3.402 54.518,-6.258 54.518,-9.954 L54.518,-11.928 C54.518,-13.888 54.364,-16.632 54.056,-20.16 C53.748,-20.272 53.174,-20.328 52.334,-20.328 C51.494,-20.328 50.598,-20.132 49.646,-19.74 C49.366,-18.872 49.17,-17.71 49.058,-16.254 L47.966,-16.254 C47.966,-18.55 47.588,-20.328 46.832,-21.588 L47.042,-22.302 C49.198,-22.022 52.222,-21.882 56.114,-21.882 C60.006,-21.882 63.142,-22.036 65.522,-22.344 L65.774,-21.546 C65.074,-20.762 64.598,-19.999 64.346,-19.257 C64.094,-18.515 63.94,-17.514 63.884,-16.254 L62.834,-16.254 C62.638,-17.178 62.54,-18.298 62.54,-19.614 M80.078,-22.218 C81.506,-21.994 83.123,-21.882 84.929,-21.882 C86.735,-21.882 88.366,-21.98 89.822,-22.176 L89.948,-21.126 C88.884,-20.846 87.722,-20.636 86.462,-20.496 C86.182,-18.76 86.042,-15.904 86.042,-11.928 L86.042,-9.954 C86.042,-5.922 86.182,-3.066 86.462,-1.386 C87.722,-1.246 88.884,-1.036 89.948,-0.756 L89.822,0.294 C88.366,0.098 86.735,0 84.929,0 C83.123,0 81.506,0.112 80.078,0.336 L79.91,-0.756 C80.694,-1.008 81.576,-1.218 82.556,-1.386 C82.78,-4.55 82.906,-7.714 82.934,-10.878 C81.142,-11.046 79.49,-11.13 77.978,-11.13 C76.466,-11.13 74.828,-11.046 73.064,-10.878 C73.064,-6.258 73.19,-3.094 73.442,-1.386 C74.702,-1.246 75.864,-1.036 76.928,-0.756 L76.802,0.294 C75.346,0.098 73.715,0 71.909,0 C70.103,0 68.486,0.112 67.058,0.336 L66.89,-0.756 C67.674,-1.008 68.556,-1.218 69.536,-1.386 C69.788,-3.402 69.914,-6.258 69.914,-9.954 L69.914,-11.928 C69.914,-15.624 69.774,-18.48 69.494,-20.496 C68.514,-20.664 67.632,-20.874 66.848,-21.126 L67.016,-22.218 C68.444,-21.994 70.061,-21.882 71.867,-21.882 C73.673,-21.882 75.304,-21.98 76.76,-22.176 L76.886,-21.126 C75.822,-20.846 74.66,-20.636 73.4,-20.496 C73.176,-18.872 73.064,-16.366 73.064,-12.978 C74.632,-12.754 76.319,-12.642 78.125,-12.642 C79.931,-12.642 81.534,-12.74 82.934,-12.936 C82.906,-15.316 82.78,-17.836 82.556,-20.496 C81.576,-20.664 80.694,-20.874 79.91,-21.126 L80.078,-22.218 M95.536,-22.344 C98.168,-22.036 100.828,-21.882 103.516,-21.882 C106.204,-21.882 108.85,-22.036 111.454,-22.344 L111.622,-21.252 C110.782,-20.916 109.914,-20.664 109.018,-20.496 C108.71,-18.2 108.556,-15.008 108.556,-10.92 C108.556,-6.832 108.71,-3.64 109.018,-1.344 C109.578,-1.26 110.614,-1.05 112.126,-0.714 L111.958,0.336 C110.614,0.112 108.892,0 106.792,0 C104.692,0 103.082,0.112 101.962,0.336 L101.794,-0.756 C102.746,-1.064 103.824,-1.288 105.028,-1.428 C105.196,-3.052 105.322,-5.306 105.406,-8.19 C104.09,-8.33 102.774,-8.4 101.458,-8.4 C100.142,-8.4 98.994,-8.33 98.014,-8.19 C97.454,-5.894 97.174,-4.298 97.174,-3.402 C97.174,-2.03 97.664,-1.064 98.644,-0.504 L98.476,0.21 C97.832,0.07 96.614,0 94.822,0 C93.03,0 91.616,0.112 90.58,0.336 L90.412,-0.756 C91.084,-1.008 92.008,-1.232 93.184,-1.428 L98.644,-20.58 C97.412,-20.776 96.334,-21 95.41,-21.252 L95.536,-22.344 M98.35,-10.164 C99.442,-9.996 100.653,-9.912 101.983,-9.912 C103.313,-9.912 104.454,-9.996 105.406,-10.164 C105.406,-15.344 105.294,-18.69 105.07,-20.202 C104.118,-20.258 103.411,-20.286 102.949,-20.286 C102.487,-20.286 101.78,-20.258 100.828,-20.202 L98.35,-10.164" vector-effect="none"/>
  </g>
  <g stroke="#000000" font-size="27.5" font-weight="400" font-style="normal" font-family="MS Shell Dlg 2" stroke-linejoin="bevel" stroke-linecap="square" transform="matrix(0.3999,0,0,0.3999,1861.67,1273.81)" stroke-opacity="1" stroke-width="1" fill="none"/>
  <g stroke="#000000" font-size="27.5" font-weight="400" font-style="normal" font-family="MS Shell Dlg 2" stroke-linejoin="bevel" stroke-linecap="square" transform="matrix(0.999751,0,0,0.999751,0,0)" stroke-opacity="1" stroke-width="1" fill="none"/>
  <g stroke="#000000" font-size="27.5" font-weight="400" font-style="normal" font-family="MS Shell Dlg 2" stroke-linejoin="bevel" stroke-linecap="square" transform="matrix(11.8081,0,0,11.8081,0,0)" stroke-opacity="1" stroke-width="1" fill="none"/>
  <g stroke="#000000" font-size="27.5" font-weight="400" font-style="normal" font-family="MS Shell Dlg 2" stroke-linejoin="bevel" stroke-linecap="square" transform="matrix(11.8081,0,0,11.8081,0,0)" stroke-opacity="1" stroke-width="1" fill="none"/>
  <g stroke="#000000" font-size="27.5" font-weight="400" font-style="normal" font-family="MS Shell Dlg 2" stroke-linejoin="bevel" stroke-linecap="square" transform="matrix(11.8081,0,0,11.8081,0,0)" stroke-opacity="1" stroke-width="1" fill="none"/>
  <g stroke="#000000" font-size="27.5" font-weight="400" font-style="normal" font-family="MS Shell Dlg 2" stroke-linejoin="bevel" stroke-linecap="square" transform="matrix(1,0,0,1,0,0)" stroke-opacity="1" stroke-width="1" fill="none"/>
  <g stroke="#000000" font-size="27.5" font-weight="400" font-style="normal" font-family="MS Shell Dlg 2" stroke-linejoin="bevel" stroke-linecap="square" transform="matrix(11.8081,0,0,11.8081,0,0)" stroke-opacity="1" stroke-width="1" fill="none"/>
  <g stroke="#000000" font-size="27.5" font-weight="400" font-style="normal" font-family="MS Shell Dlg 2" stroke-linejoin="bevel" stroke-linecap="square" transform="matrix(11.8081,0,0,11.8081,0,0)" stroke-opacity="1" stroke-width="1" fill="none"/>
  <g stroke="#000000" font-size="27.5" font-weight="400" font-style="normal" font-family="MS Shell Dlg 2" stroke-linejoin="bevel" stroke-linecap="square" transform="matrix(1,0,0,1,0,0)" stroke-opacity="1" stroke-width="1" fill="none"/>
 </g>
</svg>
