<?xml version='1.0' encoding='UTF-8' standalone='no'?>
<svg width="296.926mm" height="209.973mm" xmlns:inkscape="http://www.inkscape.org/namespaces/inkscape" viewBox="0 0 3507 2480" baseProfile="tiny" xmlns:xlink="http://www.w3.org/1999/xlink" version="1.2" xmlns="http://www.w3.org/2000/svg">
 <defs/>
 <g stroke="black" fill-rule="evenodd" stroke-linejoin="bevel" id="Page" inkscape:label="Page" inkscape:groupmode="layer" stroke-linecap="square" stroke-width="1" fill="none">
  <g stroke="#000000" font-size="27.5" font-weight="400" font-style="normal" font-family="MS Shell Dlg 2" stroke-linejoin="bevel" stroke-linecap="square" transform="matrix(1,0,0,1,0,0)" stroke-opacity="1" stroke-width="1" fill="none"/>
  <g stroke="#000000" font-size="27.5" font-weight="400" font-style="normal" font-family="MS Shell Dlg 2" stroke-linejoin="bevel" stroke-linecap="square" transform="matrix(1,0,0,1,0,0)" stroke-opacity="1" stroke-width="1" fill="none"/>
  <g stroke="#000000" font-size="27.5" font-weight="400" font-style="normal" font-family="MS Shell Dlg 2" stroke-linejoin="bevel" stroke-linecap="square" transform="matrix(11.8081,0,0,11.8081,0,0)" stroke-opacity="1" stroke-width="1" fill="none"/>
  <g stroke="#000000" font-size="27.5" font-weight="400" font-style="normal" font-family="MS Shell Dlg 2" stroke-linejoin="bevel" stroke-linecap="square" transform="matrix(0.999751,0,0,0.999751,0,0)" stroke-opacity="1" stroke-width="1" fill="none"/>
  <g stroke="none" font-size="27.5" font-weight="400" font-style="normal" font-family="MS Shell Dlg 2" fill-opacity="1" transform="matrix(0.999751,0,0,0.999751,0,0)" fill="#ffffff">
   <path fill-rule="evenodd" d="M-2,-2 L3510,-2 L3510,2483 L-2,2483 L-2,-2" vector-effect="none"/>
  </g>
  <g stroke="#000000" font-size="27.5" font-weight="400" font-style="normal" font-family="MS Shell Dlg 2" stroke-linejoin="bevel" stroke-linecap="square" transform="matrix(0.999751,0,0,0.999751,0,0)" stroke-opacity="1" stroke-width="1" fill="none"/>
  <g stroke="#000000" font-size="27.5" font-weight="400" font-style="normal" font-family="MS Shell Dlg 2" stroke-linejoin="bevel" stroke-linecap="square" transform="matrix(11.8081,0,0,11.8081,0,0)" stroke-opacity="1" stroke-width="1" fill="none"/>
  <g stroke="#000000" font-size="27.5" font-weight="400" font-style="normal" font-family="MS Shell Dlg 2" stroke-linejoin="bevel" stroke-linecap="square" transform="matrix(11.8081,0,0,11.8081,0,0)" stroke-opacity="1" stroke-width="1" fill="none"/>
  <g stroke="#000000" font-size="27.5" font-weight="400" font-style="normal" font-family="MS Shell Dlg 2" stroke-linejoin="bevel" stroke-linecap="square" transform="matrix(1,0,0,1,0,0)" stroke-opacity="1" stroke-width="1" fill="none"/>
 </g>
 <defs/>
 <g stroke="black" fill-rule="evenodd" stroke-linejoin="bevel" id="Map 1: Background" inkscape:label="Map 1: Background" inkscape:groupmode="layer" stroke-linecap="square" stroke-width="1" fill="none">
  <g stroke="#000000" font-size="27.5" font-weight="400" font-style="normal" font-family="MS Shell Dlg 2" stroke-linejoin="bevel" stroke-linecap="square" transform="matrix(1,0,0,1,0,0)" stroke-opacity="1" stroke-width="1" fill="none"/>
  <g stroke="#000000" font-size="27.5" font-weight="400" font-style="normal" font-family="MS Shell Dlg 2" stroke-linejoin="bevel" stroke-linecap="square" transform="matrix(1,0,0,1,0,0)" stroke-opacity="1" stroke-width="1" fill="none"/>
  <g stroke="#000000" font-size="27.5" font-weight="400" font-style="normal" font-family="MS Shell Dlg 2" stroke-linejoin="bevel" stroke-linecap="square" transform="matrix(11.8081,0,0,11.8081,0,0)" stroke-opacity="1" stroke-width="1" fill="none"/>
  <g stroke="none" font-size="27.5" font-weight="400" font-style="normal" font-family="MS Shell Dlg 2" fill-opacity="1" transform="matrix(11.8081,0,0,11.8081,0,0)" fill="#ffffff">
   <path fill-rule="evenodd" d="M0,0 L297,0 L297,210 L0,210 L0,0" vector-effect="none"/>
  </g>
  <g stroke="#000000" font-size="27.5" font-weight="400" font-style="normal" font-family="MS Shell Dlg 2" stroke-linejoin="bevel" stroke-linecap="square" transform="matrix(11.8081,0,0,11.8081,0,0)" stroke-opacity="1" stroke-width="1" fill="none"/>
  <g stroke="#000000" font-size="27.5" font-weight="400" font-style="normal" font-family="MS Shell Dlg 2" stroke-linejoin="bevel" stroke-linecap="square" transform="matrix(11.8081,0,0,11.8081,0,0)" stroke-opacity="1" stroke-width="1" fill="none"/>
  <g stroke="#000000" font-size="27.5" font-weight="400" font-style="normal" font-family="MS Shell Dlg 2" stroke-linejoin="bevel" stroke-linecap="square" transform="matrix(11.8081,0,0,11.8081,0,0)" stroke-opacity="1" stroke-width="1" fill="none"/>
  <g stroke="#000000" font-size="27.5" font-weight="400" font-style="normal" font-family="MS Shell Dlg 2" stroke-linejoin="bevel" stroke-linecap="square" transform="matrix(11.8081,0,0,11.8081,0,0)" stroke-opacity="1" stroke-width="1" fill="none"/>
  <g stroke="#000000" font-size="27.5" font-weight="400" font-style="normal" font-family="MS Shell Dlg 2" stroke-linejoin="bevel" stroke-linecap="square" transform="matrix(1,0,0,1,0,0)" stroke-opacity="1" stroke-width="1" fill="none"/>
  <g stroke="#000000" font-size="27.5" font-weight="400" font-style="normal" font-family="MS Shell Dlg 2" stroke-linejoin="bevel" stroke-linecap="square" transform="matrix(11.8081,0,0,11.8081,0,0)" stroke-opacity="1" stroke-width="1" fill="none"/>
  <g stroke="#000000" font-size="27.5" font-weight="400" font-style="normal" font-family="MS Shell Dlg 2" stroke-linejoin="bevel" stroke-linecap="square" transform="matrix(11.8081,0,0,11.8081,0,0)" stroke-opacity="1" stroke-width="1" fill="none"/>
  <g stroke="#000000" font-size="27.5" font-weight="400" font-style="normal" font-family="MS Shell Dlg 2" stroke-linejoin="bevel" stroke-linecap="square" transform="matrix(1,0,0,1,0,0)" stroke-opacity="1" stroke-width="1" fill="none"/>
 </g>
 <defs/>
 <g stroke="black" fill-rule="evenodd" stroke-linejoin="bevel" id="Map 1: VathaProvinces" inkscape:label="Map 1: VathaProvinces" inkscape:groupmode="layer" stroke-linecap="square" stroke-width="1" fill="none">
  <g stroke="#000000" font-size="27.5" font-weight="400" font-style="normal" font-family="MS Shell Dlg 2" stroke-linejoin="bevel" stroke-linecap="square" transform="matrix(1,0,0,1,0,0)" stroke-opacity="1" stroke-width="1" fill="none"/>
  <g stroke="#000000" font-size="27.5" font-weight="400" font-style="normal" font-family="MS Shell Dlg 2" stroke-linejoin="bevel" stroke-linecap="square" transform="matrix(1,0,0,1,0,0)" stroke-opacity="1" stroke-width="1" fill="none"/>
  <g stroke="#000000" font-size="27.5" font-weight="400" font-style="normal" font-family="MS Shell Dlg 2" stroke-linejoin="bevel" stroke-linecap="square" transform="matrix(11.8081,0,0,11.8081,0,0)" stroke-opacity="1" stroke-width="1" fill="none"/>
  <g stroke="#000000" font-size="27.5" font-weight="400" font-style="normal" font-family="MS Shell Dlg 2" stroke-linejoin="bevel" stroke-linecap="square" transform="matrix(11.8081,0,0,11.8081,0,0)" stroke-opacity="1" stroke-width="1" fill="none"/>
  <g stroke="none" font-size="27.5" font-weight="400" font-style="normal" font-family="MS Shell Dlg 2" fill-opacity="0" transform="matrix(0.999751,0,0,0.999751,0,0)" fill="#000000">
   <rect width="3508" x="0" height="2480" y="0"/>
  </g>
  <g stroke="#000000" font-size="27.5" font-weight="400" font-style="normal" font-family="MS Shell Dlg 2" stroke-linejoin="bevel" stroke-linecap="square" transform="matrix(0.999751,0,0,0.999751,0,0)" stroke-opacity="1" stroke-width="1" fill="none"/>
  <g stroke="#232323" font-size="27.5" font-weight="400" font-style="normal" font-family="MS Shell Dlg 2" stroke-linejoin="bevel" fill-opacity="1" stroke-linecap="square" transform="matrix(0.999751,0,0,0.999751,0,0)" stroke-opacity="1" stroke-width="2.95276" fill="#c872bd">
   <path fill-rule="evenodd" d="M2311.59,1904.19 L2286.05,1862.53 L2294.12,1853.13 L2319.65,1802.06 L2337.12,1802.06 L2345.18,1802.06 L2345.18,1742.94 L2354.59,1734.88 L2354.59,1717.41 L2354.59,1709.34 L2354.59,1683.81 L2303.52,1683.81 L2294.12,1674.41 L2303.52,1648.87 L2303.52,1640.81 L2311.59,1615.28 L2337.12,1607.22 L2345.18,1615.28 L2362.65,1607.22 L2380.12,1615.28 L2396.24,1615.28 L2405.65,1648.87 L2423.12,1658.28 L2431.18,1648.87 L2448.65,1658.28 L2464.78,1648.87 L2499.71,1648.87 L2490.31,1615.28 L2499.71,1589.75 L2490.31,1572.28 L2499.71,1546.75 L2499.71,1530.62 L2499.71,1521.22 L2490.31,1503.75 L2464.78,1495.68 L2448.65,1503.75 L2448.65,1513.15 L2448.65,1530.62 L2439.24,1556.15 L2405.65,1556.15 L2380.12,1546.75 L2370.71,1546.75 L2354.59,1546.75 L2345.18,1521.22 L2370.71,1487.62 L2380.12,1487.62 L2405.65,1462.09 L2405.65,1452.68 L2354.59,1452.68 L2380.12,1411.03 L2380.12,1401.62 L2423.12,1342.49 L2439.24,1334.43 L2490.31,1334.43 L2533.31,1350.56 L2542.71,1283.37 L2584.37,1283.37 L2593.78,1232.31 L2635.44,1248.43 L2660.97,1222.9 L2687.84,1240.37 L2738.91,1214.84 L2738.91,1206.77 L2772.5,1181.24 L2798.03,1181.24 L2807.44,1181.24 L2849.1,1197.37 L2866.56,1189.3 L2884.03,1197.37 L2900.16,1222.9 L2917.63,1248.43 L2943.16,1257.84 L2960.63,1240.37 L2978.1,1257.84 L2960.63,1283.37 L2986.16,1299.49 L2994.22,1299.49 L3019.75,1308.9 L3003.63,1342.49 L3019.75,1368.03 L3037.22,1368.03 L3045.29,1342.49 L3088.29,1359.96 L3088.29,1376.09 L3105.76,1385.5 L3113.82,1401.62 L3123.22,1411.03 L3123.22,1436.56 L3148.76,1452.68 L3148.76,1462.09 L3174.29,1478.22 L3164.88,1487.62 L3207.88,1503.75 L3207.88,1538.69 L3225.35,1546.75 L3199.82,1607.22 L3207.88,1632.75 L3225.35,1666.34 L3207.88,1699.94 L3217.29,1709.34 L3174.29,1760.41 L3164.88,1768.47 L3113.82,1837 L3113.82,1862.53 L3062.75,1853.13 L3045.29,1862.53 L3019.75,1862.53 L3011.69,1878.66 L3037.22,1913.6 L3037.22,1929.72 L3054.69,1955.25 L3054.69,1972.72 L3070.82,1990.19 L3062.75,2023.79 L3019.75,2015.72 L3011.69,2033.19 L3011.69,2049.32 L3003.63,2084.26 L2986.16,2109.79 L2978.1,2117.85 L2952.57,2109.79 L2952.57,2100.38 L2960.63,2066.79 L2960.63,2058.72 L2960.63,2033.19 L2935.1,2023.79 L2917.63,2033.19 L2892.1,2023.79 L2874.63,2033.19 L2866.56,2023.79 L2849.1,1990.19 L2849.1,1980.79 L2858.5,1947.19 L2849.1,1947.19 L2858.5,1921.66 L2841.03,1913.6 L2858.5,1888.07 L2823.56,1870.6 L2798.03,1896.13 L2789.97,1904.19 L2780.56,1904.19 L2772.5,1929.72 L2772.5,1939.13 L2764.44,1964.66 L2738.91,1972.72 L2729.5,1998.26 L2738.91,2007.66 L2746.97,2007.66 L2772.5,1998.26 L2798.03,2007.66 L2807.44,2015.72 L2807.44,2023.79 L2832.97,2041.26 L2832.97,2066.79 L2858.5,2074.85 L2874.63,2066.79 L2892.1,2074.85 L2909.56,2074.85 L2917.63,2100.38 L2884.03,2125.91 L2884.03,2117.85 L2849.1,2109.79 L2841.03,2109.79 L2832.97,2125.91 L2841.03,2135.32 L2849.1,2143.38 L2858.5,2168.91 L2849.1,2176.98 L2823.56,2176.98 L2815.5,2168.91 L2789.97,2160.85 L2780.56,2160.85 L2780.56,2151.45 L2764.44,2143.38 L2746.97,2135.32 L2729.5,2117.85 L2721.44,2117.85 L2687.84,2084.26 L2687.84,2066.79 L2652.9,2058.72 L2644.84,2041.26 L2601.84,2041.26 L2593.78,2066.79 L2558.84,2049.32 L2499.71,2041.26 L2499.71,2023.79 L2464.78,2023.79 L2439.24,1980.79 L2439.24,1972.72 L2423.12,1955.25 L2388.18,1939.13 L2388.18,1929.72 L2329.06,1921.66 L2319.65,1913.6 L2311.59,1904.19 M2755.03,1503.75 L2755.03,1513.15 L2764.44,1546.75 L2746.97,1564.22 L2755.03,1589.75 L2780.56,1597.81 L2807.44,1581.69 L2823.56,1589.75 L2832.97,1581.69 L2866.56,1597.81 L2866.56,1615.28 L2866.56,1623.34 L2866.56,1648.87 L2900.16,1658.28 L2909.56,1648.87 L2943.16,1658.28 L2960.63,1623.34 L2943.16,1597.81 L2917.63,1581.69 L2917.63,1564.22 L2943.16,1538.69 L2960.63,1546.75 L2978.1,1546.75 L2994.22,1556.15 L3019.75,1546.75 L3019.75,1521.22 L3003.63,1503.75 L2968.69,1495.68 L2960.63,1478.22 L2960.63,1462.09 L2960.63,1452.68 L2960.63,1436.56 L2952.57,1411.03 L2943.16,1411.03 L2909.56,1419.09 L2900.16,1436.56 L2900.16,1452.68 L2892.1,1462.09 L2892.1,1487.62 L2858.5,1495.68 L2858.5,1503.75 L2841.03,1513.15 L2823.56,1530.62 L2823.56,1538.69 L2798.03,1521.22 L2789.97,1513.15 L2764.44,1495.68 L2755.03,1503.75 M2601.84,1452.68 L2609.9,1478.22 L2601.84,1495.68 L2593.78,1503.75 L2568.25,1513.15 L2558.84,1530.62 L2558.84,1546.75 L2576.31,1564.22 L2584.37,1564.22 L2619.31,1572.28 L2619.31,1581.69 L2627.37,1589.75 L2652.9,1572.28 L2652.9,1546.75 L2660.97,1538.69 L2687.84,1538.69 L2703.97,1538.69 L2713.37,1503.75 L2703.97,1503.75 L2678.44,1503.75 L2670.37,1487.62 L2670.37,1478.22 L2660.97,1470.15 L2660.97,1452.68 L2644.84,1436.56 L2619.31,1436.56 L2601.84,1452.68 M2841.03,1334.43 L2866.56,1342.49 L2884.03,1334.43 L2884.03,1308.9 L2874.63,1299.49 L2849.1,1299.49 L2841.03,1334.43 M2925.69,1334.43 L2935.1,1342.49 L2968.69,1350.56 L2978.1,1342.49 L2968.69,1325.03 L2943.16,1308.9 L2925.69,1316.96 L2925.69,1334.43" vector-effect="none"/>
   <path fill-rule="evenodd" d="M1542.95,1232.31 L1534.89,1206.77 L1534.89,1197.37 L1534.89,1155.71 L1542.95,1146.3 L1568.48,1138.24 L1568.48,1130.18 L1568.48,1104.65 L1525.48,1069.71 L1525.48,1061.65 L1517.42,1044.18 L1517.42,1001.18 L1499.95,942.05 L1517.42,933.988 L1560.42,942.05 L1577.89,924.581 L1568.48,890.987 L1585.95,857.393 L1585.95,847.986 L1628.95,847.986 L1654.48,822.455 L1670.61,771.391 L1680.01,771.391 L1705.54,771.391 L1723.01,796.923 L1756.61,796.923 L1764.67,796.923 L1833.2,780.798 L1841.27,796.923 L1893.67,796.923 L1901.74,796.923 L1919.2,796.923 L1944.74,780.798 L1978.33,806.329 L1995.8,796.923 L2013.27,806.329 L2013.27,831.861 L2038.8,865.455 L2054.93,847.986 L2064.33,847.986 L2097.93,882.924 L2123.46,882.924 L2132.86,890.987 L2166.46,882.924 L2191.99,899.05 L2200.05,933.988 L2191.99,942.05 L2166.46,985.051 L2183.93,1001.18 L2191.99,1026.71 L2234.99,1036.11 L2243.05,1044.18 L2251.12,1079.12 L2234.99,1104.65 L2234.99,1112.71 L2191.99,1146.3 L2191.99,1189.3 L2174.52,1197.37 L2166.46,1189.3 L2132.86,1206.77 L2115.4,1240.37 L2080.46,1240.37 L2072.39,1240.37 L2038.8,1240.37 L2021.33,1232.31 L2003.86,1214.84 L1987.74,1206.77 L1970.27,1206.77 L1944.74,1240.37 L1927.27,1240.37 L1876.2,1240.37 L1868.14,1240.37 L1850.67,1248.43 L1841.27,1248.43 L1782.14,1257.84 L1705.54,1240.37 L1696.14,1248.43 L1688.08,1257.84 L1680.01,1283.37 L1670.61,1291.43 L1603.42,1283.37 L1594.01,1291.43 L1568.48,1273.96 L1551.01,1232.31 L1542.95,1232.31" vector-effect="none"/>
   <path fill-rule="evenodd" d="M2064.33,2314.04 L2080.46,2279.1 L2089.86,2245.51 L2097.93,2245.51 L2105.99,2211.91 L2089.86,2194.45 L2072.39,2194.45 L2064.33,2194.45 L2054.93,2211.91 L2038.8,2219.98 L2029.39,2228.04 L2013.27,2237.45 L1978.33,2219.98 L1978.33,2186.38 L1960.86,2160.85 L1927.27,2160.85 L1919.2,2160.85 L1893.67,2143.38 L1893.67,2135.32 L1868.14,2125.91 L1858.73,2125.91 L1833.2,2109.79 L1833.2,2100.38 L1850.67,2074.85 L1884.27,2066.79 L1901.74,2066.79 L1927.27,2058.72 L1960.86,2066.79 L1978.33,2066.79 L1987.74,2074.85 L1995.8,2074.85 L2029.39,2049.32 L2046.86,2023.79 L2054.93,2023.79 L2072.39,1990.19 L2080.46,1990.19 L2115.4,2023.79 L2140.93,2015.72 L2148.99,2007.66 L2166.46,2007.66 L2174.52,2015.72 L2183.93,2049.32 L2200.05,2058.72 L2225.58,2058.72 L2243.05,2066.79 L2251.12,2109.79 L2277.99,2109.79 L2294.12,2125.91 L2337.12,2125.91 L2345.18,2117.85 L2388.18,2117.85 L2405.65,2160.85 L2413.71,2160.85 L2423.12,2160.85 L2456.71,2168.91 L2482.25,2160.85 L2507.78,2194.45 L2515.84,2202.51 L2533.31,2194.45 L2542.71,2186.38 L2584.37,2176.98 L2593.78,2186.38 L2593.78,2202.51 L2619.31,2219.98 L2644.84,2211.91 L2678.44,2211.91 L2695.9,2237.45 L2678.44,2262.98 L2660.97,2262.98 L2652.9,2262.98 L2635.44,2262.98 L2609.9,2279.1 L2609.9,2296.57 L2584.37,2304.64 L2576.31,2314.04 L2550.78,2314.04 L2542.71,2322.1 L2515.84,2304.64 L2515.84,2296.57 L2482.25,2279.1 L2474.18,2262.98 L2448.65,2245.51 L2439.24,2219.98 L2423.12,2219.98 L2396.24,2228.04 L2388.18,2237.45 L2396.24,2271.04 L2405.65,2271.04 L2423.12,2288.51 L2431.18,2296.57 L2448.65,2322.1 L2439.24,2339.57 L2423.12,2339.57 L2388.18,2365.1 L2388.18,2373.17 L2380.12,2398.7 L2370.71,2424.23 L2337.12,2424.23 L2337.12,2390.64 L2329.06,2365.1 L2337.12,2355.7 L2337.12,2347.64 L2311.59,2322.1 L2303.52,2314.04 L2294.12,2322.1 L2268.59,2322.1 L2251.12,2314.04 L2243.05,2314.04 L2225.58,2304.64 L2200.05,2322.1 L2191.99,2314.04 L2166.46,2330.17 L2148.99,2322.1 L2132.86,2330.17 L2123.46,2339.57 L2140.93,2365.1 L2140.93,2381.23 L2123.46,2390.64 L2115.4,2381.23 L2097.93,2365.1 L2089.86,2355.7 L2080.46,2330.17 L2072.39,2330.17 L2064.33,2314.04" vector-effect="none"/>
   <path fill-rule="evenodd" d="M244.865,1503.75 L236.802,1495.68 L262.334,1452.68 L219.333,1444.62 L201.864,1419.09 L236.802,1401.62 L228.739,1368.03 L219.333,1342.49 L219.333,1325.03 L236.802,1308.9 L262.334,1316.96 L270.396,1325.03 L295.928,1342.49 L305.334,1350.56 L330.866,1359.96 L346.991,1342.49 L356.398,1325.03 L356.398,1316.96 L373.867,1291.43 L373.867,1248.43 L381.929,1248.43 L381.929,1214.84 L381.929,1206.77 L424.93,1189.3 L432.993,1189.3 L450.462,1214.84 L450.462,1232.31 L424.93,1257.84 L450.462,1283.37 L475.993,1273.96 L493.463,1291.43 L493.463,1299.49 L518.994,1308.9 L535.119,1299.49 L544.526,1265.9 L552.588,1265.9 L552.588,1248.43 L570.058,1240.37 L595.589,1240.37 L621.121,1257.84 L603.652,1291.43 L603.652,1299.49 L654.715,1325.03 L654.715,1334.43 L646.653,1359.96 L595.589,1350.56 L595.589,1393.56 L544.526,1385.5 L544.526,1436.56 L518.994,1452.68 L475.993,1495.68 L466.587,1495.68 L441.055,1521.22 L432.993,1513.15 L399.398,1495.68 L356.398,1556.15 L338.929,1546.75 L313.397,1503.75 L295.928,1513.15 L244.865,1503.75" vector-effect="none"/>
   <path fill-rule="evenodd" d="M2609.9,993.114 L2601.84,985.051 L2568.25,967.582 L2525.25,993.114 L2499.71,959.519 L2490.31,959.519 L2482.25,950.113 L2482.25,899.05 L2490.31,890.987 L2482.25,865.455 L2456.71,839.924 L2456.71,831.861 L2525.25,796.923 L2525.25,788.86 L2533.31,745.86 L2542.71,737.797 L2550.78,694.796 L2593.78,678.671 L2609.9,686.734 L2635.44,678.671 L2652.9,686.734 L2687.84,669.265 L2713.37,694.796 L2695.9,729.734 L2695.9,737.797 L2729.5,745.86 L2738.91,763.329 L2772.5,780.798 L2746.97,814.392 L2798.03,831.861 L2798.03,857.393 L2772.5,873.518 L2807.44,924.581 L2789.97,942.05 L2823.56,985.051 L2841.03,993.114 L2832.97,1018.65 L2807.44,1044.18 L2789.97,1036.11 L2746.97,1053.58 L2746.97,1087.18 L2729.5,1095.24 L2721.44,1095.24 L2687.84,1026.71 L2670.37,1026.71 L2627.37,993.114 L2609.9,993.114" vector-effect="none"/>
   <path fill-rule="evenodd" d="M1005.44,1802.06 L979.908,1802.06 L954.376,1742.94 L962.439,1734.88 L962.439,1709.34 L1005.44,1683.81 L1021.56,1666.34 L996.033,1640.81 L1021.56,1615.28 L1056.5,1607.22 L1056.5,1572.28 L1064.57,1556.15 L1073.97,1503.75 L1115.63,1513.15 L1133.1,1495.68 L1141.16,1495.68 L1184.16,1503.75 L1176.1,1546.75 L1193.57,1556.15 L1227.16,1546.75 L1252.69,1564.22 L1244.63,1589.75 L1270.16,1623.34 L1270.16,1632.75 L1313.16,1648.87 L1321.23,1674.41 L1321.23,1683.81 L1295.69,1691.88 L1303.76,1734.88 L1303.76,1742.94 L1278.23,1751 L1278.23,1760.41 L1260.76,1768.47 L1252.69,1776.53 L1235.22,1785.94 L1235.22,1802.06 L1219.1,1811.47 L1219.1,1837 L1201.63,1845.07 L1184.16,1845.07 L1184.16,1853.13 L1141.16,1853.13 L1133.1,1870.6 L1115.63,1878.66 L1107.57,1896.13 L1064.57,1878.66 L1056.5,1862.53 L1013.5,1862.53 L1013.5,1811.47 L1005.44,1802.06" vector-effect="none"/>
   <path fill-rule="evenodd" d="M1423.35,1589.75 L1415.29,1589.75 L1389.76,1589.75 L1380.35,1589.75 L1372.29,1597.81 L1321.23,1581.69 L1321.23,1564.22 L1303.76,1546.75 L1313.16,1503.75 L1303.76,1487.62 L1338.7,1444.62 L1346.76,1401.62 L1338.7,1393.56 L1372.29,1368.03 L1372.29,1359.96 L1423.35,1359.96 L1440.82,1393.56 L1458.29,1393.56 L1491.89,1350.56 L1509.35,1350.56 L1525.48,1325.03 L1585.95,1334.43 L1585.95,1342.49 L1637.01,1342.49 L1654.48,1325.03 L1662.54,1325.03 L1670.61,1385.5 L1680.01,1401.62 L1705.54,1385.5 L1731.08,1359.96 L1764.67,1342.49 L1790.2,1401.62 L1774.08,1411.03 L1764.67,1419.09 L1739.14,1436.56 L1731.08,1436.56 L1705.54,1444.62 L1670.61,1452.68 L1688.08,1470.15 L1680.01,1487.62 L1680.01,1503.75 L1688.08,1513.15 L1688.08,1521.22 L1670.61,1546.75 L1645.08,1546.75 L1628.95,1538.69 L1628.95,1530.62 L1611.48,1521.22 L1594.01,1503.75 L1568.48,1503.75 L1560.42,1521.22 L1568.48,1538.69 L1542.95,1564.22 L1542.95,1572.28 L1517.42,1589.75 L1499.95,1597.81 L1466.35,1607.22 L1466.35,1597.81 L1458.29,1597.81 L1431.42,1589.75 L1423.35,1589.75" vector-effect="none"/>
   <path fill-rule="evenodd" d="M876.438,933.988 L860.312,899.05 L850.906,899.05 L842.843,865.455 L868.375,839.924 L860.312,831.861 L860.312,788.86 L876.438,780.798 L885.844,780.798 L893.907,745.86 L893.907,729.734 L893.907,712.265 L919.438,694.796 L944.97,694.796 L944.97,686.734 L979.908,720.328 L1021.56,720.328 L1048.44,729.734 L1048.44,771.391 L1064.57,780.798 L1064.57,796.923 L1039.03,814.392 L1030.97,839.924 L1048.44,847.986 L1073.97,899.05 L1115.63,950.113 L1107.57,975.645 L1107.57,1026.71 L1064.57,1036.11 L1048.44,1095.24 L1030.97,1095.24 L1013.5,1079.12 L1005.44,1069.71 L970.502,1044.18 L962.439,1044.18 L970.502,1010.58 L962.439,1001.18 L936.907,993.114 L919.438,975.645 L911.376,942.05 L876.438,933.988 M944.97,796.923 L911.376,788.86 L903.313,822.455 L936.907,822.455 L954.376,806.329 L954.376,796.923 L944.97,796.923" vector-effect="none"/>
   <path fill-rule="evenodd" d="M1260.76,882.924 L1278.23,857.393 L1244.63,839.924 L1270.16,796.923 L1286.29,788.86 L1286.29,780.798 L1278.23,745.86 L1278.23,729.734 L1260.76,704.203 L1270.16,694.796 L1286.29,678.671 L1295.69,678.671 L1303.76,678.671 L1321.23,720.328 L1329.29,745.86 L1338.7,755.266 L1372.29,737.797 L1397.82,720.328 L1405.88,712.265 L1423.35,704.203 L1448.88,755.266 L1423.35,780.798 L1415.29,788.86 L1415.29,796.923 L1423.35,831.861 L1440.82,839.924 L1440.82,865.455 L1415.29,916.519 L1405.88,916.519 L1380.35,942.05 L1364.23,967.582 L1321.23,942.05 L1313.16,933.988 L1295.69,933.988 L1252.69,924.581 L1235.22,890.987 L1260.76,882.924" vector-effect="none"/>
   <path fill-rule="evenodd" d="M1670.61,541.606 L1662.54,533.544 L1654.48,498.605 L1713.61,473.074 L1696.14,447.542 L1713.61,405.885 L1739.14,413.948 L1774.08,413.948 L1774.08,422.01 L1825.14,422.01 L1833.2,456.949 L1850.67,465.011 L1858.73,490.543 L1825.14,524.137 L1841.27,541.606 L1858.73,575.2 L1841.27,592.67 L1782.14,549.669 L1774.08,602.076 L1731.08,592.67 L1723.01,584.607 L1723.01,533.544 L1670.61,541.606" vector-effect="none"/>
   <path fill-rule="evenodd" d="M987.971,1334.43 L962.439,1368.03 L944.97,1342.49 L911.376,1350.56 L919.438,1299.49 L903.313,1283.37 L893.907,1248.43 L911.376,1240.37 L911.376,1189.3 L919.438,1181.24 L962.439,1189.3 L970.502,1181.24 L1013.5,1189.3 L1021.56,1214.84 L1048.44,1206.77 L1064.57,1232.31 L1064.57,1257.84 L1082.03,1291.43 L1048.44,1316.96 L1039.03,1316.96 L1030.97,1376.09 L1021.56,1376.09 L987.971,1334.43" vector-effect="none"/>
   <path fill-rule="evenodd" d="M689.653,1138.24 L680.247,1095.24 L664.122,1087.18 L654.715,1061.65 L611.714,1069.71 L603.652,1044.18 L603.652,1036.11 L595.589,1018.65 L611.714,1001.18 L646.653,993.114 L646.653,959.519 L680.247,942.05 L705.779,967.582 L705.779,985.051 L740.717,993.114 L756.842,1036.11 L731.31,1061.65 L731.31,1069.71 L697.716,1130.18 L689.653,1138.24" vector-effect="none"/>
   <path fill-rule="evenodd" d="M2260.52,729.734 L2251.12,729.734 L2243.05,686.734 L2277.99,653.139 L2277.99,643.733 L2319.65,643.733 L2345.18,618.201 L2388.18,653.139 L2380.12,686.734 L2405.65,704.203 L2413.71,745.86 L2337.12,745.86 L2294.12,788.86 L2268.59,771.391 L2260.52,729.734" vector-effect="none"/>
   <path fill-rule="evenodd" d="M2105.99,635.67 L2089.86,584.607 L2080.46,584.607 L2046.86,575.2 L2038.8,524.137 L2097.93,508.012 L2097.93,498.605 L2140.93,473.074 L2158.4,482.48 L2166.46,482.48 L2183.93,498.605 L2166.46,524.137 L2183.93,541.606 L2183.93,575.2 L2191.99,627.608 L2174.52,635.67 L2148.99,602.076 L2132.86,643.733 L2105.99,635.67" vector-effect="none"/>
   <path fill-rule="evenodd" d="M1491.89,431.417 L1466.35,431.417 L1466.35,422.01 L1483.82,380.354 L1499.95,388.416 L1525.48,380.354 L1534.89,388.416 L1517.42,456.949 L1491.89,431.417" vector-effect="none"/>
   <path fill-rule="evenodd" d="M3045.29,1325.03 L3045.29,1342.49 L3037.22,1368.03 L3019.75,1368.03 L3003.63,1342.49 L3019.75,1308.9 L3029.16,1308.9 L3045.29,1316.96 L3045.29,1325.03" vector-effect="none"/>
   <path fill-rule="evenodd" d="M1944.74,1998.26 L1935.33,1998.26 L1909.8,1998.26 L1901.74,1980.79 L1901.74,1964.66 L1901.74,1955.25 L1919.2,1955.25 L1944.74,1972.72 L1944.74,1998.26" vector-effect="none"/>
   <path fill-rule="evenodd" d="M1560.42,1648.87 L1534.89,1648.87 L1534.89,1607.22 L1551.01,1615.28 L1560.42,1640.81 L1560.42,1648.87" vector-effect="none"/>
  </g>
  <g stroke="#000000" font-size="27.5" font-weight="400" font-style="normal" font-family="MS Shell Dlg 2" stroke-linejoin="bevel" stroke-linecap="square" transform="matrix(0.999751,0,0,0.999751,0,0)" stroke-opacity="1" stroke-width="1" fill="none"/>
  <g stroke="#000000" font-size="27.5" font-weight="400" font-style="normal" font-family="MS Shell Dlg 2" stroke-linejoin="bevel" stroke-linecap="square" transform="matrix(11.8081,0,0,11.8081,0,0)" stroke-opacity="1" stroke-width="1" fill="none"/>
  <g stroke="#000000" font-size="27.5" font-weight="400" font-style="normal" font-family="MS Shell Dlg 2" stroke-linejoin="bevel" stroke-linecap="square" transform="matrix(11.8081,0,0,11.8081,0,0)" stroke-opacity="1" stroke-width="1" fill="none"/>
  <g stroke="#000000" font-size="27.5" font-weight="400" font-style="normal" font-family="MS Shell Dlg 2" stroke-linejoin="bevel" stroke-linecap="square" transform="matrix(11.8081,0,0,11.8081,0,0)" stroke-opacity="1" stroke-width="1" fill="none"/>
  <g stroke="#000000" font-size="27.5" font-weight="400" font-style="normal" font-family="MS Shell Dlg 2" stroke-linejoin="bevel" stroke-linecap="square" transform="matrix(1,0,0,1,0,0)" stroke-opacity="1" stroke-width="1" fill="none"/>
  <g stroke="#000000" font-size="27.5" font-weight="400" font-style="normal" font-family="MS Shell Dlg 2" stroke-linejoin="bevel" stroke-linecap="square" transform="matrix(11.8081,0,0,11.8081,0,0)" stroke-opacity="1" stroke-width="1" fill="none"/>
  <g stroke="#000000" font-size="27.5" font-weight="400" font-style="normal" font-family="MS Shell Dlg 2" stroke-linejoin="bevel" stroke-linecap="square" transform="matrix(11.8081,0,0,11.8081,0,0)" stroke-opacity="1" stroke-width="1" fill="none"/>
  <g stroke="#000000" font-size="27.5" font-weight="400" font-style="normal" font-family="MS Shell Dlg 2" stroke-linejoin="bevel" stroke-linecap="square" transform="matrix(1,0,0,1,0,0)" stroke-opacity="1" stroke-width="1" fill="none"/>
 </g>
</svg>
