<?xml version="1.0" encoding="UTF-8" standalone="no"?>
<svg
   xmlns:dc="http://purl.org/dc/elements/1.1/"
   xmlns:cc="http://creativecommons.org/ns#"
   xmlns:rdf="http://www.w3.org/1999/02/22-rdf-syntax-ns#"
   xmlns:svg="http://www.w3.org/2000/svg"
   xmlns="http://www.w3.org/2000/svg"
   xmlns:sodipodi="http://sodipodi.sourceforge.net/DTD/sodipodi-0.dtd"
   xmlns:inkscape="http://www.inkscape.org/namespaces/inkscape"
   height="209.973mm"
   width="296.926mm"
   viewBox="0 0 3507 2480"
   version="1.2"
   id="svg964"
   sodipodi:docname="WerewickLand.svg"
   inkscape:version="1.0.1 (3bc2e813f5, 2020-09-07)">
  <metadata
     id="metadata968">
    <rdf:RDF>
      <cc:Work
         rdf:about="">
        <dc:format>image/svg+xml</dc:format>
        <dc:type
           rdf:resource="http://purl.org/dc/dcmitype/StillImage" />
        <dc:title></dc:title>
      </cc:Work>
    </rdf:RDF>
  </metadata>
  <sodipodi:namedview
     pagecolor="#ffffff"
     bordercolor="#666666"
     borderopacity="1"
     objecttolerance="10"
     gridtolerance="10"
     guidetolerance="10"
     inkscape:pageopacity="0"
     inkscape:pageshadow="2"
     inkscape:window-width="1920"
     inkscape:window-height="1028"
     id="namedview966"
     showgrid="false"
     inkscape:zoom="1.0798908"
     inkscape:cx="486.41623"
     inkscape:cy="403.68706"
     inkscape:window-x="-9"
     inkscape:window-y="14"
     inkscape:window-maximized="1"
     inkscape:current-layer="svg964" />
  <defs
     id="defs832" />
  <g
     stroke-linejoin="bevel"
     inkscape:label="Page"
     inkscape:groupmode="layer"
     fill="none"
     stroke="black"
     fill-rule="evenodd"
     stroke-width="1"
     stroke-linecap="square"
     id="Page">
    <g
       stroke-linejoin="bevel"
       font-weight="400"
       font-style="normal"
       fill="none"
       stroke="#000000"
       stroke-width="1"
       stroke-linecap="square"
       font-size="32.5"
       font-family="MS Shell Dlg 2"
       stroke-opacity="1"
       id="g834"
       transform="matrix(1,0,0,1,0,0)" />
    <g
       stroke-linejoin="bevel"
       font-weight="400"
       font-style="normal"
       fill="none"
       stroke="#000000"
       stroke-width="1"
       stroke-linecap="square"
       font-size="32.5"
       font-family="MS Shell Dlg 2"
       stroke-opacity="1"
       id="g836"
       transform="matrix(1,0,0,1,0,0)" />
    <g
       stroke-linejoin="bevel"
       transform="matrix(11.8081,0,0,11.8081,0,0)"
       font-weight="400"
       font-style="normal"
       fill="none"
       stroke="#000000"
       stroke-width="1"
       stroke-linecap="square"
       font-size="32.5"
       font-family="MS Shell Dlg 2"
       stroke-opacity="1"
       id="g838" />
    <g
       stroke-linejoin="bevel"
       transform="matrix(0.999751,0,0,0.999751,0,0)"
       font-weight="400"
       font-style="normal"
       fill="none"
       stroke="#000000"
       stroke-width="1"
       stroke-linecap="square"
       font-size="32.5"
       font-family="MS Shell Dlg 2"
       stroke-opacity="1"
       id="g840" />
    <g
       transform="matrix(0.999751,0,0,0.999751,0,0)"
       font-weight="400"
       font-style="normal"
       fill="#ffffff"
       stroke="none"
       fill-opacity="1"
       font-size="32.5"
       font-family="MS Shell Dlg 2"
       id="g844">
      <path
         fill-rule="evenodd"
         d="M-2,-2 L3510,-2 L3510,2483 L-2,2483 L-2,-2"
         vector-effect="none"
         id="path842" />
    </g>
    <g
       stroke-linejoin="bevel"
       transform="matrix(0.999751,0,0,0.999751,0,0)"
       font-weight="400"
       font-style="normal"
       fill="none"
       stroke="#000000"
       stroke-width="1"
       stroke-linecap="square"
       font-size="32.5"
       font-family="MS Shell Dlg 2"
       stroke-opacity="1"
       id="g846" />
    <g
       stroke-linejoin="bevel"
       transform="matrix(11.8081,0,0,11.8081,0,0)"
       font-weight="400"
       font-style="normal"
       fill="none"
       stroke="#000000"
       stroke-width="1"
       stroke-linecap="square"
       font-size="32.5"
       font-family="MS Shell Dlg 2"
       stroke-opacity="1"
       id="g848" />
    <g
       stroke-linejoin="bevel"
       transform="matrix(11.8081,0,0,11.8081,0,0)"
       font-weight="400"
       font-style="normal"
       fill="none"
       stroke="#000000"
       stroke-width="1"
       stroke-linecap="square"
       font-size="32.5"
       font-family="MS Shell Dlg 2"
       stroke-opacity="1"
       id="g850" />
    <g
       stroke-linejoin="bevel"
       font-weight="400"
       font-style="normal"
       fill="none"
       stroke="#000000"
       stroke-width="1"
       stroke-linecap="square"
       font-size="32.5"
       font-family="MS Shell Dlg 2"
       stroke-opacity="1"
       id="g852"
       transform="matrix(1,0,0,1,0,0)" />
  </g>
  <defs
     id="defs855" />
  <g
     stroke-linejoin="bevel"
     inkscape:label="Map 1: Background"
     inkscape:groupmode="layer"
     fill="none"
     stroke="black"
     fill-rule="evenodd"
     stroke-width="1"
     stroke-linecap="square"
     id="Map 1: Background">
    <g
       stroke-linejoin="bevel"
       font-weight="400"
       font-style="normal"
       fill="none"
       stroke="#000000"
       stroke-width="1"
       stroke-linecap="square"
       font-size="32.5"
       font-family="MS Shell Dlg 2"
       stroke-opacity="1"
       id="g857"
       transform="matrix(1,0,0,1,0,0)" />
    <g
       stroke-linejoin="bevel"
       font-weight="400"
       font-style="normal"
       fill="none"
       stroke="#000000"
       stroke-width="1"
       stroke-linecap="square"
       font-size="32.5"
       font-family="MS Shell Dlg 2"
       stroke-opacity="1"
       id="g859"
       transform="matrix(1,0,0,1,0,0)" />
    <g
       stroke-linejoin="bevel"
       transform="matrix(11.8081,0,0,11.8081,0,0)"
       font-weight="400"
       font-style="normal"
       fill="none"
       stroke="#000000"
       stroke-width="1"
       stroke-linecap="square"
       font-size="32.5"
       font-family="MS Shell Dlg 2"
       stroke-opacity="1"
       id="g861" />
    <g
       transform="matrix(11.8081,0,0,11.8081,0,0)"
       font-weight="400"
       font-style="normal"
       fill="#ffffff"
       stroke="none"
       fill-opacity="1"
       font-size="32.5"
       font-family="MS Shell Dlg 2"
       id="g865">
      <path
         fill-rule="evenodd"
         d="M0,0 L297,0 L297,210 L0,210 L0,0"
         vector-effect="none"
         id="path863" />
    </g>
    <g
       stroke-linejoin="bevel"
       transform="matrix(11.8081,0,0,11.8081,0,0)"
       font-weight="400"
       font-style="normal"
       fill="none"
       stroke="#000000"
       stroke-width="1"
       stroke-linecap="square"
       font-size="32.5"
       font-family="MS Shell Dlg 2"
       stroke-opacity="1"
       id="g867" />
    <g
       stroke-linejoin="bevel"
       transform="matrix(11.8081,0,0,11.8081,0,0)"
       font-weight="400"
       font-style="normal"
       fill="none"
       stroke="#000000"
       stroke-width="1"
       stroke-linecap="square"
       font-size="32.5"
       font-family="MS Shell Dlg 2"
       stroke-opacity="1"
       id="g869" />
    <g
       stroke-linejoin="bevel"
       transform="matrix(11.8081,0,0,11.8081,0,0)"
       font-weight="400"
       font-style="normal"
       fill="none"
       stroke="#000000"
       stroke-width="1"
       stroke-linecap="square"
       font-size="32.5"
       font-family="MS Shell Dlg 2"
       stroke-opacity="1"
       id="g871" />
    <g
       stroke-linejoin="bevel"
       transform="matrix(11.8081,0,0,11.8081,0,0)"
       font-weight="400"
       font-style="normal"
       fill="none"
       stroke="#000000"
       stroke-width="1"
       stroke-linecap="square"
       font-size="32.5"
       font-family="MS Shell Dlg 2"
       stroke-opacity="1"
       id="g873" />
    <g
       stroke-linejoin="bevel"
       font-weight="400"
       font-style="normal"
       fill="none"
       stroke="#000000"
       stroke-width="1"
       stroke-linecap="square"
       font-size="32.5"
       font-family="MS Shell Dlg 2"
       stroke-opacity="1"
       id="g875"
       transform="matrix(1,0,0,1,0,0)" />
    <g
       stroke-linejoin="bevel"
       transform="matrix(11.8081,0,0,11.8081,0,0)"
       font-weight="400"
       font-style="normal"
       fill="none"
       stroke="#000000"
       stroke-width="1"
       stroke-linecap="square"
       font-size="32.5"
       font-family="MS Shell Dlg 2"
       stroke-opacity="1"
       id="g877" />
    <g
       stroke-linejoin="bevel"
       transform="matrix(11.8081,0,0,11.8081,0,0)"
       font-weight="400"
       font-style="normal"
       fill="none"
       stroke="#000000"
       stroke-width="1"
       stroke-linecap="square"
       font-size="32.5"
       font-family="MS Shell Dlg 2"
       stroke-opacity="1"
       id="g879" />
    <g
       stroke-linejoin="bevel"
       font-weight="400"
       font-style="normal"
       fill="none"
       stroke="#000000"
       stroke-width="1"
       stroke-linecap="square"
       font-size="32.5"
       font-family="MS Shell Dlg 2"
       stroke-opacity="1"
       id="g881"
       transform="matrix(1,0,0,1,0,0)" />
  </g>
  <defs
     id="defs884" />
  <g
     stroke-linejoin="bevel"
     inkscape:label="Map 1: WerewickLand"
     inkscape:groupmode="layer"
     fill="none"
     stroke="black"
     fill-rule="evenodd"
     stroke-width="1"
     stroke-linecap="square"
     id="Map 1: WerewickLand">
    <g
       stroke-linejoin="bevel"
       font-weight="400"
       font-style="normal"
       fill="none"
       stroke="#000000"
       stroke-width="1"
       stroke-linecap="square"
       font-size="32.5"
       font-family="MS Shell Dlg 2"
       stroke-opacity="1"
       id="g886"
       transform="matrix(1,0,0,1,0,0)" />
    <g
       stroke-linejoin="bevel"
       font-weight="400"
       font-style="normal"
       fill="none"
       stroke="#000000"
       stroke-width="1"
       stroke-linecap="square"
       font-size="32.5"
       font-family="MS Shell Dlg 2"
       stroke-opacity="1"
       id="g888"
       transform="matrix(1,0,0,1,0,0)" />
    <g
       stroke-linejoin="bevel"
       transform="matrix(11.8081,0,0,11.8081,0,0)"
       font-weight="400"
       font-style="normal"
       fill="none"
       stroke="#000000"
       stroke-width="1"
       stroke-linecap="square"
       font-size="32.5"
       font-family="MS Shell Dlg 2"
       stroke-opacity="1"
       id="g890" />
    <g
       stroke-linejoin="bevel"
       transform="matrix(11.8081,0,0,11.8081,0,0)"
       font-weight="400"
       font-style="normal"
       fill="none"
       stroke="#000000"
       stroke-width="1"
       stroke-linecap="square"
       font-size="32.5"
       font-family="MS Shell Dlg 2"
       stroke-opacity="1"
       id="g892" />
    <g
       transform="matrix(0.999751,0,0,0.999751,0,0)"
       font-weight="400"
       font-style="normal"
       fill="#000000"
       stroke="none"
       fill-opacity="0"
       font-size="32.5"
       font-family="MS Shell Dlg 2"
       id="g896">
      <rect
         height="2480"
         x="0"
         width="3508"
         y="0"
         id="rect894" />
    </g>
    <g
       stroke-linejoin="bevel"
       transform="matrix(0.999751,0,0,0.999751,0,0)"
       font-weight="400"
       font-style="normal"
       fill="none"
       stroke="#000000"
       stroke-width="1"
       stroke-linecap="square"
       font-size="32.5"
       font-family="MS Shell Dlg 2"
       stroke-opacity="1"
       id="g898" />
    <g
       stroke-linejoin="bevel"
       transform="matrix(0.999751,0,0,0.999751,0,0)"
       font-weight="400"
       font-style="normal"
       fill="#d2d98a"
       stroke="#232323"
       fill-opacity="1"
       stroke-width="5.90551"
       stroke-linecap="square"
       font-size="32.5"
       font-family="MS Shell Dlg 2"
       stroke-opacity="1"
       id="g904">
      <path
         fill-rule="evenodd"
         d="M1095.33,1724.31 L1095.33,1768.33 L1049.9,1786.79 L1031.44,1768.33 L995.942,1759.81 L995.942,1741.35 L1004.46,1714.37 L1004.46,1705.85 L977.483,1651.9 L977.483,1641.96 L986.002,1633.44 L995.942,1606.46 L1031.44,1597.94 L1031.44,1552.51 L1049.9,1534.05 L1049.9,1517.01 L1095.33,1490.03 L1103.85,1480.09 L1076.88,1444.59 L1049.9,1436.07 L1049.9,1417.62 L1049.9,1390.64 L1041.38,1382.12 L986.002,1336.68 L986.002,1328.16 L995.942,1318.22 L1004.46,1309.7 L1014.4,1274.21 L1049.9,1274.21 L1049.9,1264.27 L1049.9,1247.23 L1031.44,1228.77 L1031.44,1210.31 L1022.92,1201.79 L1014.4,1193.27 L1031.44,1156.36 L1041.38,1156.36 L1049.9,1156.36 L1076.88,1147.84 L1085.4,1137.9 L1112.37,1129.38 L1122.31,1129.38 L1130.83,1129.38 L1149.29,1110.92 L1149.29,1075.42 L1140.77,1075.42 L1130.83,1048.44 L1122.31,1039.92 L1140.77,1003.01 L1140.77,994.487 L1157.81,967.509 L1157.81,949.051 L1130.83,932.012 L1130.83,922.073 L1130.83,913.553 L1122.31,895.095 L1130.83,868.117 L1140.77,859.597 L1140.77,832.619 L1149.29,814.16 L1157.81,814.16 L1167.75,787.182 L1184.79,778.663 L1194.73,743.166 L1194.73,733.226 L1194.73,724.707 L1194.73,706.248 L1194.73,697.729 L1184.79,662.232 L1221.71,633.834 L1230.22,633.834 L1265.72,662.232 L1275.66,670.751 L1294.12,697.729 L1311.16,697.729 L1329.62,697.729 L1348.08,679.27 L1348.08,670.751 L1329.62,643.773 L1329.62,633.834 L1321.1,625.314 L1311.16,589.817 L1338.14,579.878 L1348.08,589.817 L1375.05,571.358 L1392.09,589.817 L1419.07,606.856 L1419.07,616.795 L1455.99,625.314 L1455.99,633.834 L1474.45,633.834 L1491.49,652.292 L1509.94,652.292 L1518.46,643.773 L1528.4,625.314 L1528.4,616.795 L1545.44,589.817 L1563.9,579.878 L1582.36,571.358 L1582.36,562.839 L1573.84,544.38 L1573.84,525.922 L1573.84,508.883 L1573.84,490.424 L1600.82,463.446 L1609.34,463.446 L1627.8,481.905 L1627.8,490.424 L1627.8,508.883 L1636.31,535.861 L1681.75,535.861 L1690.27,517.402 L1681.75,498.944 L1681.75,471.966 L1708.73,463.446 L1727.19,444.988 L1744.23,444.988 L1754.17,436.468 L1754.17,400.971 L1744.23,400.971 L1754.17,364.054 L1762.69,364.054 L1771.2,337.076 L1781.14,328.556 L1798.18,301.578 L1798.18,283.12 L1798.18,266.081 L1816.64,247.622 L1853.56,239.103 L1880.54,247.622 L1907.51,239.103 L1907.51,220.644 L1916.03,202.185 L1943.01,175.207 L1951.53,185.147 L1969.99,185.147 L1988.45,212.125 L1988.45,229.164 L1996.97,239.103 L2015.43,247.622 L2050.92,247.622 L2060.86,256.142 L2060.86,293.059 L2050.92,293.059 L2033.89,293.059 L2015.43,310.098 L2015.43,320.037 L2050.92,373.993 L2077.9,391.032 L2087.84,409.49 L2123.34,409.49 L2114.82,373.993 L2131.86,355.534 L2141.8,355.534 L2160.26,347.015 L2168.78,347.015 L2187.23,320.037 L2214.21,293.059 L2222.73,293.059 L2241.19,320.037 L2231.25,337.076 L2241.19,364.054 L2258.23,373.993 L2258.23,409.49 L2276.69,427.949 L2268.17,463.446 L2276.69,471.966 L2330.64,454.927 L2349.1,481.905 L2394.54,490.424 L2394.54,498.944 L2448.49,517.402 L2475.47,517.402 L2493.93,544.38 L2493.93,552.9 L2448.49,579.878 L2448.49,625.314 L2439.98,643.773 L2439.98,652.292 L2483.99,679.27 L2493.93,716.188 L2483.99,733.226 L2537.95,760.204 L2564.93,751.685 L2583.38,770.144 L2593.32,787.182 L2620.3,805.641 L2610.36,814.16 L2583.38,841.138 L2601.84,886.575 L2593.32,905.034 L2620.3,940.531 L2647.28,949.051 L2655.8,940.531 L2701.24,967.509 L2728.21,940.531 L2755.19,932.012 L2773.65,940.531 L2773.65,967.509 L2773.65,976.029 L2782.17,1003.01 L2763.71,1048.44 L2773.65,1066.9 L2773.65,1093.88 L2755.19,1120.86 L2782.17,1147.84 L2809.15,1156.36 L2817.67,1201.79 L2836.13,1237.29 L2790.69,1282.73 L2817.67,1318.22 L2817.67,1328.16 L2763.71,1345.2 L2773.65,1390.64 L2728.21,1390.64 L2709.76,1409.1 L2709.76,1417.62 L2736.73,1444.59 L2719.69,1480.09 L2728.21,1525.53 L2773.65,1534.05 L2782.17,1543.99 L2773.65,1579.48 L2800.63,1606.46 L2800.63,1633.44 L2773.65,1660.42 L2782.17,1687.4 L2800.63,1705.85 L2854.59,1660.42 L2873.04,1705.85 L2890.08,1714.37 L2900.02,1759.81 L2890.08,1768.33 L2836.13,1741.35 L2817.67,1778.27 L2763.71,1786.79 L2763.71,1778.27 L2746.67,1768.33 L2674.26,1805.25 L2664.32,1795.31 L2620.3,1778.27 L2601.84,1751.29 L2547.89,1786.79 L2529.43,1759.81 L2475.47,1759.81 L2457.01,1768.33 L2493.93,1813.77 L2439.98,1840.74 L2439.98,1859.2 L2448.49,1876.24 L2439.98,1921.68 L2475.47,1940.14 L2483.99,1948.66 L2448.49,2011.13 L2439.98,2011.13 L2411.58,2048.05 L2384.6,2056.57 L2384.6,2110.53 L2357.62,2110.53 L2322.12,2128.98 L2340.58,2147.44 L2349.1,2191.46 L2340.58,2201.4 L2330.64,2209.92 L2303.67,2245.42 L2276.69,2255.35 L2268.17,2263.87 L2222.73,2263.87 L2214.21,2245.42 L2177.29,2245.42 L2168.78,2255.35 L2168.78,2290.85 L2131.86,2299.37 L2123.34,2290.85 L2060.86,2299.37 L2060.86,2290.85 L2050.92,2263.87 L2042.4,2255.35 L2006.91,2255.35 L1988.45,2245.42 L1961.47,2255.35 L1951.53,2236.9 L1943.01,2236.9 L1889.06,2245.42 L1870.6,2245.42 L1825.16,2201.4 L1816.64,2201.4 L1808.12,2191.46 L1789.66,2164.48 L1762.69,2155.96 L1735.71,2191.46 L1708.73,2174.42 L1671.81,2201.4 L1644.83,2191.46 L1644.83,2182.94 L1636.31,2137.5 L1627.8,2128.98 L1590.88,2137.5 L1563.9,2102.01 L1573.84,2083.55 L1563.9,2056.57 L1582.36,2029.59 L1582.36,2002.61 L1555.38,1994.09 L1536.92,1967.12 L1474.45,1975.64 L1464.51,1940.14 L1464.51,1930.2 L1474.45,1859.2 L1429.01,1867.72 L1402.03,1832.23 L1383.57,1832.23 L1356.6,1813.77 L1321.1,1813.77 L1311.16,1813.77 L1221.71,1822.29 L1211.77,1813.77 L1211.77,1795.31 L1211.77,1786.79 L1194.73,1768.33 L1211.77,1705.85 L1203.25,1705.85 L1167.75,1705.85 L1157.81,1714.37 L1095.33,1724.31 M1889.06,1651.9 L1889.06,1641.96 L1853.56,1641.96 L1843.62,1660.42 L1843.62,1678.88 L1862.08,1687.4 L1862.08,1724.31 L1835.1,1732.83 L1835.1,1759.81 L1835.1,1768.33 L1870.6,1778.27 L1889.06,1751.29 L1934.49,1768.33 L1943.01,1759.81 L1951.53,1732.83 L1943.01,1724.31 L1934.49,1687.4 L1961.47,1670.36 L1988.45,1678.88 L1996.97,1651.9 L1978.51,1624.92 L1951.53,1624.92 L1943.01,1633.44 L1916.03,1641.96 L1889.06,1651.9 M2231.25,1228.77 L2258.23,1220.25 L2268.17,1193.27 L2268.17,1166.29 L2249.71,1156.36 L2241.19,1156.36 L2231.25,1156.36 L2214.21,1183.33 L2214.21,1210.31 L2231.25,1228.77 M2303.67,1372.18 L2330.64,1382.12 L2340.58,1390.64 L2384.6,1390.64 L2394.54,1372.18 L2421.52,1363.66 L2411.58,1336.68 L2448.49,1328.16 L2448.49,1301.18 L2448.49,1291.25 L2448.49,1264.27 L2421.52,1228.77 L2411.58,1228.77 L2376.08,1228.77 L2357.62,1228.77 L2349.1,1228.77 L2340.58,1228.77 L2313.6,1237.29 L2285.21,1247.23 L2268.17,1274.21 L2268.17,1282.73 L2285.21,1301.18 L2285.21,1336.68 L2285.21,1355.14 L2303.67,1372.18 M2015.43,1597.94 L2050.92,1614.98 L2060.86,1588 L2042.4,1552.51 L2033.89,1552.51 L2015.43,1561.03 L2006.91,1570.96 L2015.43,1597.94"
         vector-effect="none"
         id="path900" />
      <path
         fill-rule="evenodd"
         d="M1230.22,1930.2 L1302.64,1921.68 L1321.1,1930.2 L1311.16,1967.12 L1284.18,1975.64 L1221.71,1930.2 L1230.22,1930.2"
         vector-effect="none"
         id="path902" />
    </g>
    <g
       stroke-linejoin="bevel"
       transform="matrix(0.999751,0,0,0.999751,0,0)"
       font-weight="400"
       font-style="normal"
       fill="none"
       stroke="#000000"
       stroke-width="1"
       stroke-linecap="square"
       font-size="32.5"
       font-family="MS Shell Dlg 2"
       stroke-opacity="1"
       id="g906" />
    <g
       stroke-linejoin="bevel"
       transform="matrix(11.8081,0,0,11.8081,0,0)"
       font-weight="400"
       font-style="normal"
       fill="none"
       stroke="#000000"
       stroke-width="1"
       stroke-linecap="square"
       font-size="32.5"
       font-family="MS Shell Dlg 2"
       stroke-opacity="1"
       id="g908" />
    <g
       stroke-linejoin="bevel"
       transform="matrix(11.8081,0,0,11.8081,0,0)"
       font-weight="400"
       font-style="normal"
       fill="none"
       stroke="#000000"
       stroke-width="1"
       stroke-linecap="square"
       font-size="32.5"
       font-family="MS Shell Dlg 2"
       stroke-opacity="1"
       id="g910" />
    <g
       stroke-linejoin="bevel"
       transform="matrix(11.8081,0,0,11.8081,0,0)"
       font-weight="400"
       font-style="normal"
       fill="none"
       stroke="#000000"
       stroke-width="1"
       stroke-linecap="square"
       font-size="32.5"
       font-family="MS Shell Dlg 2"
       stroke-opacity="1"
       id="g912" />
    <g
       stroke-linejoin="bevel"
       font-weight="400"
       font-style="normal"
       fill="none"
       stroke="#000000"
       stroke-width="1"
       stroke-linecap="square"
       font-size="32.5"
       font-family="MS Shell Dlg 2"
       stroke-opacity="1"
       id="g914"
       transform="matrix(1,0,0,1,0,0)" />
    <g
       stroke-linejoin="bevel"
       transform="matrix(11.8081,0,0,11.8081,0,0)"
       font-weight="400"
       font-style="normal"
       fill="none"
       stroke="#000000"
       stroke-width="1"
       stroke-linecap="square"
       font-size="32.5"
       font-family="MS Shell Dlg 2"
       stroke-opacity="1"
       id="g916" />
    <g
       stroke-linejoin="bevel"
       transform="matrix(11.8081,0,0,11.8081,0,0)"
       font-weight="400"
       font-style="normal"
       fill="none"
       stroke="#000000"
       stroke-width="1"
       stroke-linecap="square"
       font-size="32.5"
       font-family="MS Shell Dlg 2"
       stroke-opacity="1"
       id="g918" />
    <g
       stroke-linejoin="bevel"
       font-weight="400"
       font-style="normal"
       fill="none"
       stroke="#000000"
       stroke-width="1"
       stroke-linecap="square"
       font-size="32.5"
       font-family="MS Shell Dlg 2"
       stroke-opacity="1"
       id="g920"
       transform="matrix(1,0,0,1,0,0)" />
  </g>
  <defs
     id="defs923" />
  <g
     stroke-linejoin="bevel"
     inkscape:label="Map 1: WerewickLand (Labels)"
     inkscape:groupmode="layer"
     fill="none"
     stroke="black"
     fill-rule="evenodd"
     stroke-width="1"
     stroke-linecap="square"
     id="Map 1: WerewickLand (Labels)">
    <g
       stroke-linejoin="bevel"
       font-weight="400"
       font-style="normal"
       fill="none"
       stroke="#000000"
       stroke-width="1"
       stroke-linecap="square"
       font-size="32.5"
       font-family="MS Shell Dlg 2"
       stroke-opacity="1"
       id="g925"
       transform="matrix(1,0,0,1,0,0)" />
    <g
       stroke-linejoin="bevel"
       font-weight="400"
       font-style="normal"
       fill="none"
       stroke="#000000"
       stroke-width="1"
       stroke-linecap="square"
       font-size="32.5"
       font-family="MS Shell Dlg 2"
       stroke-opacity="1"
       id="g927"
       transform="matrix(1,0,0,1,0,0)" />
    <g
       stroke-linejoin="bevel"
       transform="matrix(11.8081,0,0,11.8081,0,0)"
       font-weight="400"
       font-style="normal"
       fill="none"
       stroke="#000000"
       stroke-width="1"
       stroke-linecap="square"
       font-size="32.5"
       font-family="MS Shell Dlg 2"
       stroke-opacity="1"
       id="g929" />
    <g
       stroke-linejoin="bevel"
       transform="matrix(11.8081,0,0,11.8081,0,0)"
       font-weight="400"
       font-style="normal"
       fill="none"
       stroke="#000000"
       stroke-width="1"
       stroke-linecap="square"
       font-size="32.5"
       font-family="MS Shell Dlg 2"
       stroke-opacity="1"
       id="g931" />
    <g
       transform="matrix(0.999751,0,0,0.999751,0,0)"
       font-weight="400"
       font-style="normal"
       fill="#000000"
       stroke="none"
       fill-opacity="0"
       font-size="32.5"
       font-family="MS Shell Dlg 2"
       id="g935">
      <rect
         height="2480"
         x="0"
         width="3508"
         y="0"
         id="rect933" />
    </g>
    <g
       stroke-linejoin="bevel"
       transform="matrix(0.999751,0,0,0.999751,0,0)"
       font-weight="400"
       font-style="normal"
       fill="none"
       stroke="#000000"
       stroke-width="1"
       stroke-linecap="square"
       font-size="32.5"
       font-family="MS Shell Dlg 2"
       stroke-opacity="1"
       id="g937" />
    <g
       stroke-linejoin="bevel"
       transform="matrix(0.3999,0,0,0.3999,1830.96,1300.71)"
       font-weight="400"
       font-style="normal"
       fill="none"
       stroke="#000000"
       stroke-width="1"
       stroke-linecap="square"
       font-size="32.5"
       font-family="MS Shell Dlg 2"
       stroke-opacity="1"
       id="g939" />
    <g
       transform="matrix(0.999751,0,0,0.999751,1830.96,1300.71)"
       font-weight="400"
       font-style="normal"
       fill="#323232"
       stroke="none"
       fill-opacity="1"
       font-size="32.5"
       font-family="MS Shell Dlg 2"
       id="g943">
      <path
         fill-rule="nonzero"
         d="M15.666,0.168 C14.322,0.056 12.908,0 11.424,0 C9.94,0 8.764,0.056 7.896,0.168 L7.728,-0.42 C8.064,-0.532 8.386,-0.707 8.694,-0.945 C9.002,-1.183 9.156,-1.442 9.156,-1.722 C9.156,-3.766 7.294,-10.598 3.57,-22.218 C3.234,-23.282 2.898,-24.22 2.562,-25.032 C-0.714,-25.032 -2.814,-24.584 -3.738,-23.688 C-3.934,-23.296 -4.032,-22.68 -4.032,-21.84 C-4.032,-21 -3.892,-20.426 -3.612,-20.118 L-3.654,-19.824 C-4.354,-19.404 -5.054,-18.816 -5.754,-18.06 C-6.09,-18.088 -6.363,-18.228 -6.573,-18.48 C-6.783,-18.732 -6.888,-19.026 -6.888,-19.362 C-6.888,-20.734 -6.062,-22.372 -4.41,-24.276 C-2.758,-26.18 -1.218,-27.384 0.21,-27.888 C0.434,-27.888 1.442,-27.797 3.234,-27.615 C5.026,-27.433 6.454,-27.342 7.518,-27.342 L12.432,-27.342 C18.48,-27.342 22.862,-27.482 25.578,-27.762 L25.746,-26.712 C24.514,-26.32 23.17,-25.998 21.714,-25.746 C21.854,-24.766 21.924,-23.877 21.924,-23.079 C21.924,-22.281 21.812,-21.28 21.588,-20.076 C22.652,-15.316 24.332,-9.59 26.628,-2.898 C28.7,-8.134 30.065,-12.103 30.723,-14.805 C31.381,-17.507 31.71,-19.824 31.71,-21.756 C31.71,-24.388 31.01,-26.11 29.61,-26.922 L29.778,-27.51 C30.646,-27.398 32.039,-27.342 33.957,-27.342 C35.875,-27.342 37.66,-27.454 39.312,-27.678 L39.48,-26.628 C38.22,-26.236 36.876,-25.942 35.448,-25.746 C35.588,-24.766 35.658,-23.954 35.658,-23.31 C35.658,-20.958 35.077,-18.256 33.915,-15.204 C32.753,-12.152 30.646,-7.56 27.594,-1.428 C28.07,-1.176 28.714,-0.938 29.526,-0.714 L29.4,0.168 C28.056,0.056 26.642,0 25.158,0 C23.674,0 22.498,0.056 21.63,0.168 L21.462,-0.42 C21.798,-0.532 22.12,-0.707 22.428,-0.945 C22.736,-1.183 22.89,-1.442 22.89,-1.722 C22.89,-3.374 21.896,-7.56 19.908,-14.28 L19.74,-14.28 C18.424,-10.892 16.464,-6.608 13.86,-1.428 C14.336,-1.176 14.98,-0.938 15.792,-0.714 L15.666,0.168 M12.894,-2.898 C14.966,-8.134 16.331,-12.103 16.989,-14.805 C17.647,-17.507 17.976,-19.817 17.976,-21.735 C17.976,-23.653 17.626,-24.899 16.926,-25.473 C16.226,-26.047 14.791,-26.334 12.621,-26.334 C10.451,-26.334 8.54,-26.082 6.888,-25.578 C7.14,-23.282 7.861,-19.88 9.051,-15.372 C10.241,-10.864 11.522,-6.706 12.894,-2.898 M43.502,-10.374 C43.586,-7.882 44.048,-5.936 44.888,-4.536 C45.728,-3.136 47.156,-2.436 49.172,-2.436 C51.188,-2.436 53.05,-3.29 54.758,-4.998 L55.346,-4.41 C53.47,-2.03 51.216,-0.392 48.584,0.504 C45.868,0.504 43.74,-0.357 42.2,-2.079 C40.66,-3.801 39.89,-6.125 39.89,-9.051 C39.89,-11.977 40.8,-14.728 42.62,-17.304 C44.44,-19.88 46.764,-21.574 49.592,-22.386 C51.636,-22.386 53.946,-22.176 56.522,-21.756 L56.48,-20.832 C55.948,-20.832 55.444,-20.734 54.968,-20.538 C54.436,-19.278 54.086,-17.78 53.918,-16.044 L52.868,-16.044 C52.644,-16.996 52.532,-17.976 52.532,-18.984 C51.468,-19.516 50.208,-19.782 48.752,-19.782 C47.296,-19.782 46.092,-19.39 45.14,-18.606 C44.188,-16.87 43.642,-14.798 43.502,-12.39 C44.678,-12.194 45.938,-12.096 47.282,-12.096 C49.606,-12.096 51.006,-12.586 51.482,-13.566 L52.364,-13.44 C52.112,-12.6 51.986,-11.774 51.986,-10.962 C51.986,-10.15 52.084,-9.156 52.28,-7.98 L51.272,-7.812 C50.964,-8.652 50.74,-9.52 50.6,-10.416 C49.48,-10.528 48.367,-10.584 47.261,-10.584 C46.155,-10.584 44.902,-10.514 43.502,-10.374 M58.806,-21.798 L68.466,-22.092 C70.986,-22.092 72.876,-21.721 74.136,-20.979 C75.396,-20.237 76.026,-18.886 76.026,-16.926 C76.026,-15.582 75.613,-14.392 74.787,-13.356 C73.961,-12.32 72.876,-11.55 71.532,-11.046 L76.236,-1.428 C77.188,-1.26 78.084,-1.064 78.924,-0.84 L78.756,0.294 C77.58,0.098 76.257,0 74.787,0 C73.317,0 72.162,0.07 71.322,0.21 L71.154,-0.462 C71.518,-0.826 71.7,-1.428 71.7,-2.268 C71.7,-3.976 70.72,-6.72 68.76,-10.5 C68.172,-10.612 67.486,-10.668 66.702,-10.668 L66.786,-11.886 L67.206,-11.886 C70.51,-11.886 72.162,-13.398 72.162,-16.422 C72.162,-19.222 70.748,-20.622 67.92,-20.622 C66.968,-20.622 66.114,-20.468 65.358,-20.16 C65.162,-18.312 65.064,-15.148 65.064,-10.668 C65.064,-6.188 65.19,-3.094 65.442,-1.386 C66.674,-1.246 67.822,-1.036 68.886,-0.756 L68.76,0.294 C67.304,0.098 65.673,0 63.867,0 C62.061,0 60.444,0.112 59.016,0.336 L58.848,-0.756 C59.632,-1.008 60.514,-1.218 61.494,-1.386 C61.774,-3.486 61.914,-6.755 61.914,-11.193 C61.914,-15.631 61.788,-18.704 61.536,-20.412 C60.444,-20.776 59.534,-20.958 58.806,-20.958 L58.806,-21.798 M84.502,-10.374 C84.586,-7.882 85.048,-5.936 85.888,-4.536 C86.728,-3.136 88.156,-2.436 90.172,-2.436 C92.188,-2.436 94.05,-3.29 95.758,-4.998 L96.346,-4.41 C94.47,-2.03 92.216,-0.392 89.584,0.504 C86.868,0.504 84.74,-0.357 83.2,-2.079 C81.66,-3.801 80.89,-6.125 80.89,-9.051 C80.89,-11.977 81.8,-14.728 83.62,-17.304 C85.44,-19.88 87.764,-21.574 90.592,-22.386 C92.636,-22.386 94.946,-22.176 97.522,-21.756 L97.48,-20.832 C96.948,-20.832 96.444,-20.734 95.968,-20.538 C95.436,-19.278 95.086,-17.78 94.918,-16.044 L93.868,-16.044 C93.644,-16.996 93.532,-17.976 93.532,-18.984 C92.468,-19.516 91.208,-19.782 89.752,-19.782 C88.296,-19.782 87.092,-19.39 86.14,-18.606 C85.188,-16.87 84.642,-14.798 84.502,-12.39 C85.678,-12.194 86.938,-12.096 88.282,-12.096 C90.606,-12.096 92.006,-12.586 92.482,-13.566 L93.364,-13.44 C93.112,-12.6 92.986,-11.774 92.986,-10.962 C92.986,-10.15 93.084,-9.156 93.28,-7.98 L92.272,-7.812 C91.964,-8.652 91.74,-9.52 91.6,-10.416 C90.48,-10.528 89.367,-10.584 88.261,-10.584 C87.155,-10.584 85.902,-10.514 84.502,-10.374 M111.734,0.252 C110.726,0.084 109.403,0 107.765,0 C106.127,0 104.902,0.056 104.09,0.168 L103.964,-0.504 C104.216,-0.56 104.461,-0.707 104.699,-0.945 C104.937,-1.183 105.056,-1.4 105.056,-1.596 C105.056,-3.192 103.586,-8.582 100.646,-17.766 C100.254,-18.998 99.918,-19.894 99.638,-20.454 C99.05,-20.538 98.14,-20.776 96.908,-21.168 L97.076,-22.26 C99.54,-22.008 103.201,-21.882 108.059,-21.882 C112.917,-21.882 116.438,-21.994 118.622,-22.218 L118.79,-21.126 C117.558,-20.706 116.732,-20.468 116.312,-20.412 C116.368,-19.992 116.396,-19.229 116.396,-18.123 C116.396,-17.017 116.214,-15.694 115.85,-14.154 C116.802,-10.43 118.034,-6.482 119.546,-2.31 C121.226,-6.482 122.346,-9.646 122.906,-11.802 C123.466,-13.958 123.746,-15.932 123.746,-17.724 C123.746,-19.516 123.172,-20.72 122.024,-21.336 L122.192,-22.05 C123.032,-21.91 124.054,-21.84 125.258,-21.84 C126.462,-21.84 127.876,-21.952 129.5,-22.176 L129.668,-21.084 C128.548,-20.72 127.75,-20.496 127.274,-20.412 C127.386,-19.572 127.442,-18.984 127.442,-18.648 C127.442,-16.604 126.98,-14.42 126.056,-12.096 C125.132,-9.772 123.382,-6.202 120.806,-1.386 C121.338,-1.134 121.982,-0.896 122.738,-0.672 L122.528,0.252 C121.52,0.084 120.225,0 118.643,0 C117.061,0 115.864,0.056 115.052,0.168 L114.926,-0.504 C115.178,-0.56 115.423,-0.707 115.661,-0.945 C115.899,-1.183 116.018,-1.4 116.018,-1.596 C116.018,-2.632 115.332,-5.46 113.96,-10.08 C112.224,-6.076 110.908,-3.178 110.012,-1.386 C110.544,-1.134 111.188,-0.896 111.944,-0.672 L111.734,0.252 M108.71,-2.31 C110.362,-6.426 111.461,-9.562 112.007,-11.718 C112.553,-13.874 112.826,-15.708 112.826,-17.22 C112.826,-18.732 112.546,-19.726 111.986,-20.202 C111.426,-20.678 110.327,-20.916 108.689,-20.916 C107.051,-20.916 105.434,-20.762 103.838,-20.454 C104.034,-18.606 104.615,-15.89 105.581,-12.306 C106.547,-8.722 107.59,-5.39 108.71,-2.31 M137.4,-20.496 C137.176,-18.984 137.064,-15.89 137.064,-11.214 C137.064,-6.538 137.19,-3.262 137.442,-1.386 C138.702,-1.246 139.864,-1.036 140.928,-0.756 L140.802,0.294 C139.346,0.098 137.715,0 135.909,0 C134.103,0 132.486,0.112 131.058,0.336 L130.89,-0.756 C131.674,-1.008 132.556,-1.218 133.536,-1.386 C133.788,-3.402 133.914,-6.258 133.914,-9.954 L133.914,-11.928 C133.914,-15.624 133.774,-18.48 133.494,-20.496 C132.514,-20.664 131.632,-20.874 130.848,-21.126 L131.016,-22.218 C132.444,-21.994 134.061,-21.882 135.867,-21.882 C137.673,-21.882 139.304,-21.98 140.76,-22.176 L140.886,-21.126 C139.822,-20.846 138.66,-20.636 137.4,-20.496 M153.298,-2.436 C155.23,-2.436 157.05,-3.29 158.758,-4.998 L159.346,-4.41 C157.47,-2.03 155.216,-0.392 152.584,0.504 C149.868,0.504 147.74,-0.357 146.2,-2.079 C144.66,-3.801 143.89,-6.125 143.89,-9.051 C143.89,-11.977 144.8,-14.728 146.62,-17.304 C148.44,-19.88 150.764,-21.574 153.592,-22.386 C155.636,-22.386 157.946,-22.176 160.522,-21.756 L160.48,-20.832 C159.948,-20.832 159.444,-20.734 158.968,-20.538 C158.436,-19.278 158.086,-17.78 157.918,-16.044 L156.868,-16.044 C156.644,-16.996 156.532,-17.976 156.532,-18.984 C155.468,-19.516 154.208,-19.782 152.752,-19.782 C151.296,-19.782 150.092,-19.39 149.14,-18.606 C148.048,-16.618 147.502,-14.21 147.502,-11.382 C147.502,-6.986 148.44,-4.228 150.316,-3.108 C151.128,-2.66 152.122,-2.436 153.298,-2.436 M168.064,-11.886 L168.064,-10.164 C170.92,-13.188 172.775,-15.365 173.629,-16.695 C174.483,-18.025 174.91,-19.061 174.91,-19.803 C174.91,-20.545 174.7,-21.07 174.28,-21.378 L174.49,-22.092 C175.106,-21.952 175.995,-21.882 177.157,-21.882 C178.319,-21.882 179.74,-21.994 181.42,-22.218 L181.588,-21.126 C180.944,-20.902 180.006,-20.678 178.774,-20.454 C178.522,-18.55 176.898,-16.184 173.902,-13.356 L179.446,-1.428 C180.622,-1.232 181.546,-1.008 182.218,-0.756 L182.05,0.336 C181.014,0.112 179.663,0 177.997,0 C176.331,0 175.162,0.07 174.49,0.21 L174.28,-0.504 C174.672,-0.896 174.868,-1.484 174.868,-2.268 C174.868,-4.144 173.762,-7.196 171.55,-11.424 C170.99,-10.948 169.828,-9.982 168.064,-8.526 C168.148,-5.11 168.274,-2.73 168.442,-1.386 C169.702,-1.246 170.864,-1.036 171.928,-0.756 L171.802,0.294 C170.346,0.098 168.715,0 166.909,0 C165.103,0 163.486,0.112 162.058,0.336 L161.89,-0.756 C162.674,-1.008 163.556,-1.218 164.536,-1.386 C164.788,-3.402 164.914,-6.258 164.914,-9.954 L164.914,-11.928 C164.914,-15.624 164.774,-18.48 164.494,-20.496 C163.514,-20.664 162.632,-20.874 161.848,-21.126 L162.016,-22.218 C163.444,-21.994 165.061,-21.882 166.867,-21.882 C168.673,-21.882 170.304,-21.98 171.76,-22.176 L171.886,-21.126 C170.822,-20.846 169.66,-20.636 168.4,-20.496 C168.176,-18.984 168.064,-16.114 168.064,-11.886 "
         vector-effect="none"
         id="path941" />
    </g>
    <g
       stroke-linejoin="bevel"
       transform="matrix(0.3999,0,0,0.3999,1830.96,1300.71)"
       font-weight="400"
       font-style="normal"
       fill="none"
       stroke="#000000"
       stroke-width="1"
       stroke-linecap="square"
       font-size="32.5"
       font-family="MS Shell Dlg 2"
       stroke-opacity="1"
       id="g945" />
    <g
       stroke-linejoin="bevel"
       transform="matrix(0.999751,0,0,0.999751,0,0)"
       font-weight="400"
       font-style="normal"
       fill="none"
       stroke="#000000"
       stroke-width="1"
       stroke-linecap="square"
       font-size="32.5"
       font-family="MS Shell Dlg 2"
       stroke-opacity="1"
       id="g947" />
    <g
       stroke-linejoin="bevel"
       transform="matrix(11.8081,0,0,11.8081,0,0)"
       font-weight="400"
       font-style="normal"
       fill="none"
       stroke="#000000"
       stroke-width="1"
       stroke-linecap="square"
       font-size="32.5"
       font-family="MS Shell Dlg 2"
       stroke-opacity="1"
       id="g949" />
    <g
       stroke-linejoin="bevel"
       transform="matrix(11.8081,0,0,11.8081,0,0)"
       font-weight="400"
       font-style="normal"
       fill="none"
       stroke="#000000"
       stroke-width="1"
       stroke-linecap="square"
       font-size="32.5"
       font-family="MS Shell Dlg 2"
       stroke-opacity="1"
       id="g951" />
    <g
       stroke-linejoin="bevel"
       transform="matrix(11.8081,0,0,11.8081,0,0)"
       font-weight="400"
       font-style="normal"
       fill="none"
       stroke="#000000"
       stroke-width="1"
       stroke-linecap="square"
       font-size="32.5"
       font-family="MS Shell Dlg 2"
       stroke-opacity="1"
       id="g953" />
    <g
       stroke-linejoin="bevel"
       font-weight="400"
       font-style="normal"
       fill="none"
       stroke="#000000"
       stroke-width="1"
       stroke-linecap="square"
       font-size="32.5"
       font-family="MS Shell Dlg 2"
       stroke-opacity="1"
       id="g955"
       transform="matrix(1,0,0,1,0,0)" />
    <g
       stroke-linejoin="bevel"
       transform="matrix(11.8081,0,0,11.8081,0,0)"
       font-weight="400"
       font-style="normal"
       fill="none"
       stroke="#000000"
       stroke-width="1"
       stroke-linecap="square"
       font-size="32.5"
       font-family="MS Shell Dlg 2"
       stroke-opacity="1"
       id="g957" />
    <g
       stroke-linejoin="bevel"
       transform="matrix(11.8081,0,0,11.8081,0,0)"
       font-weight="400"
       font-style="normal"
       fill="none"
       stroke="#000000"
       stroke-width="1"
       stroke-linecap="square"
       font-size="32.5"
       font-family="MS Shell Dlg 2"
       stroke-opacity="1"
       id="g959" />
    <g
       stroke-linejoin="bevel"
       font-weight="400"
       font-style="normal"
       fill="none"
       stroke="#000000"
       stroke-width="1"
       stroke-linecap="square"
       font-size="32.5"
       font-family="MS Shell Dlg 2"
       stroke-opacity="1"
       id="g961"
       transform="matrix(1,0,0,1,0,0)" />
  </g>
</svg>
