<?xml version='1.0' encoding='UTF-8' standalone='no'?>
<svg height="209.973mm" width="296.926mm" viewBox="0 0 3507 2480" xmlns:xlink="http://www.w3.org/1999/xlink" xmlns:inkscape="http://www.inkscape.org/namespaces/inkscape" xmlns="http://www.w3.org/2000/svg" version="1.2" baseProfile="tiny">
 <defs/>
 <g stroke-linejoin="bevel" inkscape:label="Page" inkscape:groupmode="layer" fill="none" stroke="black" fill-rule="evenodd" stroke-width="1" stroke-linecap="square" id="Page">
  <g stroke-linejoin="bevel" transform="matrix(1,0,0,1,0,0)" font-weight="400" font-style="normal" fill="none" stroke="#000000" stroke-width="1" stroke-linecap="square" font-size="32.5" font-family="MS Shell Dlg 2" stroke-opacity="1"/>
  <g stroke-linejoin="bevel" transform="matrix(1,0,0,1,0,0)" font-weight="400" font-style="normal" fill="none" stroke="#000000" stroke-width="1" stroke-linecap="square" font-size="32.5" font-family="MS Shell Dlg 2" stroke-opacity="1"/>
  <g stroke-linejoin="bevel" transform="matrix(11.8081,0,0,11.8081,0,0)" font-weight="400" font-style="normal" fill="none" stroke="#000000" stroke-width="1" stroke-linecap="square" font-size="32.5" font-family="MS Shell Dlg 2" stroke-opacity="1"/>
  <g stroke-linejoin="bevel" transform="matrix(0.999751,0,0,0.999751,0,0)" font-weight="400" font-style="normal" fill="none" stroke="#000000" stroke-width="1" stroke-linecap="square" font-size="32.5" font-family="MS Shell Dlg 2" stroke-opacity="1"/>
  <g transform="matrix(0.999751,0,0,0.999751,0,0)" font-weight="400" font-style="normal" fill="#ffffff" stroke="none" fill-opacity="1" font-size="32.5" font-family="MS Shell Dlg 2">
   <path fill-rule="evenodd" d="M-2,-2 L3510,-2 L3510,2483 L-2,2483 L-2,-2" vector-effect="none"/>
  </g>
  <g stroke-linejoin="bevel" transform="matrix(0.999751,0,0,0.999751,0,0)" font-weight="400" font-style="normal" fill="none" stroke="#000000" stroke-width="1" stroke-linecap="square" font-size="32.5" font-family="MS Shell Dlg 2" stroke-opacity="1"/>
  <g stroke-linejoin="bevel" transform="matrix(11.8081,0,0,11.8081,0,0)" font-weight="400" font-style="normal" fill="none" stroke="#000000" stroke-width="1" stroke-linecap="square" font-size="32.5" font-family="MS Shell Dlg 2" stroke-opacity="1"/>
  <g stroke-linejoin="bevel" transform="matrix(11.8081,0,0,11.8081,0,0)" font-weight="400" font-style="normal" fill="none" stroke="#000000" stroke-width="1" stroke-linecap="square" font-size="32.5" font-family="MS Shell Dlg 2" stroke-opacity="1"/>
  <g stroke-linejoin="bevel" transform="matrix(1,0,0,1,0,0)" font-weight="400" font-style="normal" fill="none" stroke="#000000" stroke-width="1" stroke-linecap="square" font-size="32.5" font-family="MS Shell Dlg 2" stroke-opacity="1"/>
 </g>
 <defs/>
 <g stroke-linejoin="bevel" inkscape:label="Map 1: Background" inkscape:groupmode="layer" fill="none" stroke="black" fill-rule="evenodd" stroke-width="1" stroke-linecap="square" id="Map 1: Background">
  <g stroke-linejoin="bevel" transform="matrix(1,0,0,1,0,0)" font-weight="400" font-style="normal" fill="none" stroke="#000000" stroke-width="1" stroke-linecap="square" font-size="32.5" font-family="MS Shell Dlg 2" stroke-opacity="1"/>
  <g stroke-linejoin="bevel" transform="matrix(1,0,0,1,0,0)" font-weight="400" font-style="normal" fill="none" stroke="#000000" stroke-width="1" stroke-linecap="square" font-size="32.5" font-family="MS Shell Dlg 2" stroke-opacity="1"/>
  <g stroke-linejoin="bevel" transform="matrix(11.8081,0,0,11.8081,0,0)" font-weight="400" font-style="normal" fill="none" stroke="#000000" stroke-width="1" stroke-linecap="square" font-size="32.5" font-family="MS Shell Dlg 2" stroke-opacity="1"/>
  <g transform="matrix(11.8081,0,0,11.8081,0,0)" font-weight="400" font-style="normal" fill="#ffffff" stroke="none" fill-opacity="1" font-size="32.5" font-family="MS Shell Dlg 2">
   <path fill-rule="evenodd" d="M0,0 L297,0 L297,210 L0,210 L0,0" vector-effect="none"/>
  </g>
  <g stroke-linejoin="bevel" transform="matrix(11.8081,0,0,11.8081,0,0)" font-weight="400" font-style="normal" fill="none" stroke="#000000" stroke-width="1" stroke-linecap="square" font-size="32.5" font-family="MS Shell Dlg 2" stroke-opacity="1"/>
  <g stroke-linejoin="bevel" transform="matrix(11.8081,0,0,11.8081,0,0)" font-weight="400" font-style="normal" fill="none" stroke="#000000" stroke-width="1" stroke-linecap="square" font-size="32.5" font-family="MS Shell Dlg 2" stroke-opacity="1"/>
  <g stroke-linejoin="bevel" transform="matrix(11.8081,0,0,11.8081,0,0)" font-weight="400" font-style="normal" fill="none" stroke="#000000" stroke-width="1" stroke-linecap="square" font-size="32.5" font-family="MS Shell Dlg 2" stroke-opacity="1"/>
  <g stroke-linejoin="bevel" transform="matrix(11.8081,0,0,11.8081,0,0)" font-weight="400" font-style="normal" fill="none" stroke="#000000" stroke-width="1" stroke-linecap="square" font-size="32.5" font-family="MS Shell Dlg 2" stroke-opacity="1"/>
  <g stroke-linejoin="bevel" transform="matrix(1,0,0,1,0,0)" font-weight="400" font-style="normal" fill="none" stroke="#000000" stroke-width="1" stroke-linecap="square" font-size="32.5" font-family="MS Shell Dlg 2" stroke-opacity="1"/>
  <g stroke-linejoin="bevel" transform="matrix(11.8081,0,0,11.8081,0,0)" font-weight="400" font-style="normal" fill="none" stroke="#000000" stroke-width="1" stroke-linecap="square" font-size="32.5" font-family="MS Shell Dlg 2" stroke-opacity="1"/>
  <g stroke-linejoin="bevel" transform="matrix(11.8081,0,0,11.8081,0,0)" font-weight="400" font-style="normal" fill="none" stroke="#000000" stroke-width="1" stroke-linecap="square" font-size="32.5" font-family="MS Shell Dlg 2" stroke-opacity="1"/>
  <g stroke-linejoin="bevel" transform="matrix(1,0,0,1,0,0)" font-weight="400" font-style="normal" fill="none" stroke="#000000" stroke-width="1" stroke-linecap="square" font-size="32.5" font-family="MS Shell Dlg 2" stroke-opacity="1"/>
 </g>
 <defs/>
 <g stroke-linejoin="bevel" inkscape:label="Map 1: WerewickProvinces" inkscape:groupmode="layer" fill="none" stroke="black" fill-rule="evenodd" stroke-width="1" stroke-linecap="square" id="Map 1: WerewickProvinces">
  <g stroke-linejoin="bevel" transform="matrix(1,0,0,1,0,0)" font-weight="400" font-style="normal" fill="none" stroke="#000000" stroke-width="1" stroke-linecap="square" font-size="32.5" font-family="MS Shell Dlg 2" stroke-opacity="1"/>
  <g stroke-linejoin="bevel" transform="matrix(1,0,0,1,0,0)" font-weight="400" font-style="normal" fill="none" stroke="#000000" stroke-width="1" stroke-linecap="square" font-size="32.5" font-family="MS Shell Dlg 2" stroke-opacity="1"/>
  <g stroke-linejoin="bevel" transform="matrix(11.8081,0,0,11.8081,0,0)" font-weight="400" font-style="normal" fill="none" stroke="#000000" stroke-width="1" stroke-linecap="square" font-size="32.5" font-family="MS Shell Dlg 2" stroke-opacity="1"/>
  <g stroke-linejoin="bevel" transform="matrix(11.8081,0,0,11.8081,0,0)" font-weight="400" font-style="normal" fill="none" stroke="#000000" stroke-width="1" stroke-linecap="square" font-size="32.5" font-family="MS Shell Dlg 2" stroke-opacity="1"/>
  <g transform="matrix(0.999751,0,0,0.999751,0,0)" font-weight="400" font-style="normal" fill="#000000" stroke="none" fill-opacity="0" font-size="32.5" font-family="MS Shell Dlg 2">
   <rect height="2480" x="0" width="3508" y="0"/>
  </g>
  <g stroke-linejoin="bevel" transform="matrix(0.999751,0,0,0.999751,0,0)" font-weight="400" font-style="normal" fill="none" stroke="#000000" stroke-width="1" stroke-linecap="square" font-size="32.5" font-family="MS Shell Dlg 2" stroke-opacity="1"/>
  <g stroke-linejoin="bevel" transform="matrix(0.999751,0,0,0.999751,0,0)" font-weight="400" font-style="normal" fill="#d0ba91" stroke="#232323" fill-opacity="1" stroke-width="2.95276" stroke-linecap="square" font-size="32.5" font-family="MS Shell Dlg 2" stroke-opacity="1">
   <path fill-rule="evenodd" d="M1095.33,1724.31 L1095.33,1714.37 L1049.9,1714.37 L1022.92,1697.34 L1031.44,1670.36 L1068.36,1651.9 L1049.9,1606.46 L1085.4,1588 L1076.88,1552.51 L1049.9,1534.05 L1049.9,1517.01 L1095.33,1490.03 L1103.85,1480.09 L1076.88,1444.59 L1095.33,1436.07 L1112.37,1390.64 L1140.77,1390.64 L1149.29,1382.12 L1167.75,1328.16 L1140.77,1318.22 L1130.83,1264.27 L1140.77,1237.29 L1140.77,1228.77 L1149.29,1193.27 L1140.77,1183.33 L1112.37,1166.29 L1122.31,1129.38 L1130.83,1129.38 L1149.29,1110.92 L1149.29,1075.42 L1140.77,1075.42 L1130.83,1048.44 L1122.31,1039.92 L1140.77,1003.01 L1140.77,994.487 L1157.81,967.509 L1157.81,949.051 L1130.83,932.012 L1130.83,922.073 L1130.83,913.553 L1194.73,895.095 L1248.68,913.553 L1265.72,895.095 L1248.68,851.078 L1257.2,814.16 L1257.2,805.641 L1265.72,797.122 L1257.2,760.204 L1275.66,743.166 L1284.18,716.188 L1294.12,697.729 L1311.16,697.729 L1329.62,697.729 L1348.08,679.27 L1348.08,670.751 L1375.05,652.292 L1383.57,652.292 L1392.09,633.834 L1410.55,633.834 L1419.07,616.795 L1455.99,625.314 L1455.99,633.834 L1474.45,633.834 L1491.49,652.292 L1509.94,652.292 L1518.46,643.773 L1528.4,625.314 L1528.4,616.795 L1545.44,589.817 L1563.9,579.878 L1582.36,571.358 L1590.88,579.878 L1636.31,579.878 L1644.83,579.878 L1636.31,544.38 L1636.31,535.861 L1681.75,535.861 L1690.27,517.402 L1717.25,498.944 L1735.71,508.883 L1762.69,490.424 L1798.18,481.905 L1808.12,481.905 L1843.62,444.988 L1843.62,436.468 L1870.6,418.01 L1880.54,409.49 L1907.51,364.054 L1916.03,347.015 L1961.47,355.534 L2015.43,320.037 L2050.92,373.993 L2077.9,391.032 L2087.84,409.49 L2123.34,409.49 L2114.82,373.993 L2131.86,355.534 L2141.8,355.534 L2160.26,347.015 L2168.78,347.015 L2187.23,320.037 L2231.25,337.076 L2241.19,364.054 L2258.23,373.993 L2258.23,409.49 L2276.69,427.949 L2268.17,463.446 L2276.69,471.966 L2330.64,454.927 L2349.1,481.905 L2394.54,490.424 L2394.54,498.944 L2394.54,562.839 L2430.04,562.839 L2448.49,579.878 L2448.49,625.314 L2439.98,643.773 L2439.98,652.292 L2483.99,679.27 L2493.93,716.188 L2483.99,733.226 L2537.95,760.204 L2537.95,787.182 L2547.89,805.641 L2593.32,787.182 L2620.3,805.641 L2610.36,814.16 L2583.38,841.138 L2601.84,886.575 L2593.32,905.034 L2620.3,940.531 L2647.28,949.051 L2655.8,940.531 L2701.24,967.509 L2709.76,1003.01 L2719.69,1003.01 L2728.21,1039.92 L2719.69,1110.92 L2728.21,1120.86 L2719.69,1147.84 L2736.73,1183.33 L2682.78,1228.77 L2728.21,1255.75 L2736.73,1274.21 L2709.76,1301.18 L2682.78,1336.68 L2682.78,1390.64 L2709.76,1409.1 L2709.76,1417.62 L2655.8,1463.05 L2674.26,1480.09 L2664.32,1543.99 L2674.26,1543.99 L2701.24,1552.51 L2719.69,1588 L2674.26,1624.92 L2664.32,1641.96 L2655.8,1651.9 L2655.8,1705.85 L2647.28,1724.31 L2610.36,1724.31 L2601.84,1751.29 L2547.89,1786.79 L2529.43,1759.81 L2475.47,1759.81 L2457.01,1768.33 L2493.93,1813.77 L2439.98,1840.74 L2439.98,1859.2 L2448.49,1876.24 L2439.98,1921.68 L2475.47,1940.14 L2483.99,1948.66 L2448.49,2011.13 L2439.98,2011.13 L2411.58,2048.05 L2384.6,2056.57 L2384.6,2110.53 L2357.62,2110.53 L2322.12,2128.98 L2340.58,2147.44 L2349.1,2191.46 L2340.58,2201.4 L2330.64,2209.92 L2303.67,2245.42 L2276.69,2255.35 L2268.17,2263.87 L2222.73,2263.87 L2214.21,2245.42 L2177.29,2245.42 L2168.78,2255.35 L2168.78,2290.85 L2131.86,2299.37 L2123.34,2290.85 L2060.86,2299.37 L2060.86,2290.85 L2050.92,2263.87 L2042.4,2255.35 L2006.91,2255.35 L1988.45,2245.42 L1961.47,2255.35 L1951.53,2236.9 L1943.01,2236.9 L1889.06,2245.42 L1870.6,2245.42 L1825.16,2201.4 L1816.64,2201.4 L1808.12,2191.46 L1789.66,2164.48 L1762.69,2155.96 L1735.71,2191.46 L1708.73,2174.42 L1671.81,2201.4 L1644.83,2191.46 L1644.83,2182.94 L1636.31,2137.5 L1627.8,2128.98 L1590.88,2137.5 L1563.9,2102.01 L1573.84,2083.55 L1563.9,2056.57 L1582.36,2029.59 L1582.36,2002.61 L1555.38,1994.09 L1536.92,1967.12 L1474.45,1975.64 L1464.51,1940.14 L1464.51,1930.2 L1474.45,1859.2 L1429.01,1867.72 L1402.03,1832.23 L1383.57,1832.23 L1356.6,1813.77 L1321.1,1813.77 L1311.16,1813.77 L1221.71,1822.29 L1211.77,1813.77 L1211.77,1795.31 L1211.77,1786.79 L1194.73,1768.33 L1211.77,1705.85 L1203.25,1705.85 L1167.75,1705.85 L1157.81,1714.37 L1095.33,1724.31 M1943.01,552.9 L1924.55,571.358 L1907.51,606.856 L1862.08,579.878 L1853.56,589.817 L1816.64,598.336 L1808.12,633.834 L1781.14,633.834 L1762.69,670.751 L1735.71,679.27 L1717.25,662.232 L1717.25,616.795 L1690.27,606.856 L1663.29,643.773 L1698.79,662.232 L1690.27,679.27 L1636.31,689.21 L1644.83,743.166 L1590.88,733.226 L1573.84,670.751 L1536.92,706.248 L1518.46,706.248 L1509.94,724.707 L1482.97,743.166 L1474.45,751.685 L1429.01,751.685 L1419.07,787.182 L1410.55,832.619 L1402.03,851.078 L1365.11,859.597 L1356.6,886.575 L1375.05,913.553 L1365.11,958.99 L1311.16,967.509 L1302.64,994.487 L1257.2,1012.95 L1265.72,1066.9 L1238.74,1093.88 L1238.74,1102.4 L1238.74,1147.84 L1275.66,1156.36 L1265.72,1201.79 L1221.71,1220.25 L1248.68,1274.21 L1248.68,1282.73 L1221.71,1336.68 L1248.68,1355.14 L1265.72,1390.64 L1238.74,1417.62 L1230.22,1426.14 L1238.74,1453.11 L1238.74,1490.03 L1257.2,1498.55 L1265.72,1525.53 L1275.66,1534.05 L1294.12,1543.99 L1321.1,1561.03 L1321.1,1597.94 L1321.1,1606.46 L1294.12,1670.36 L1365.11,1651.9 L1365.11,1660.42 L1365.11,1705.85 L1383.57,1714.37 L1410.55,1724.31 L1464.51,1768.33 L1447.47,1805.25 L1474.45,1840.74 L1509.94,1805.25 L1528.4,1832.23 L1573.84,1840.74 L1573.84,1849.26 L1590.88,1867.72 L1636.31,1886.18 L1627.8,1930.2 L1617.86,1940.14 L1663.29,1975.64 L1671.81,1984.15 L1663.29,1984.15 L1636.31,2002.61 L1636.31,2029.59 L1681.75,2048.05 L1671.81,2056.57 L1690.27,2110.53 L1744.23,2092.07 L1754.17,2083.55 L1798.18,2092.07 L1808.12,2083.55 L1853.56,2092.07 L1853.56,2137.5 L1862.08,2137.5 L1907.51,2147.44 L1924.55,2155.96 L1934.49,2155.96 L1951.53,2128.98 L2006.91,2137.5 L2006.91,2174.42 L2015.43,2182.94 L2042.4,2191.46 L2069.38,2182.94 L2077.9,2155.96 L2114.82,2137.5 L2150.32,2182.94 L2160.26,2182.94 L2187.23,2155.96 L2195.75,2147.44 L2168.78,2092.07 L2222.73,2083.55 L2231.25,2048.05 L2241.19,2038.11 L2285.21,2038.11 L2295.15,2038.11 L2285.21,2002.61 L2322.12,1967.12 L2330.64,1930.2 L2340.58,1921.68 L2340.58,1886.18 L2340.58,1867.72 L2340.58,1822.29 L2330.64,1813.77 L2349.1,1786.79 L2357.62,1778.27 L2367.56,1759.81 L2376.08,1759.81 L2430.04,1778.27 L2457.01,1759.81 L2439.98,1714.37 L2439.98,1705.85 L2466.95,1678.88 L2475.47,1670.36 L2493.93,1624.92 L2493.93,1614.98 L2502.45,1606.46 L2547.89,1606.46 L2583.38,1588 L2556.41,1552.51 L2529.43,1507.07 L2574.87,1490.03 L2556.41,1444.59 L2547.89,1444.59 L2574.87,1390.64 L2601.84,1382.12 L2610.36,1345.2 L2610.36,1336.68 L2547.89,1309.7 L2547.89,1301.18 L2537.95,1282.73 L2547.89,1228.77 L2574.87,1220.25 L2583.38,1210.31 L2601.84,1174.81 L2564.93,1156.36 L2547.89,1129.38 L2547.89,1120.86 L2601.84,1102.4 L2583.38,1056.96 L2601.84,1029.98 L2547.89,985.968 L2537.95,967.509 L2520.91,967.509 L2475.47,940.531 L2475.47,922.073 L2439.98,895.095 L2466.95,851.078 L2466.95,841.138 L2430.04,824.1 L2421.52,805.641 L2376.08,805.641 L2376.08,733.226 L2384.6,724.707 L2384.6,706.248 L2367.56,689.21 L2357.62,679.27 L2330.64,689.21 L2295.15,662.232 L2295.15,633.834 L2285.21,625.314 L2241.19,625.314 L2222.73,589.817 L2187.23,589.817 L2160.26,633.834 L2131.86,625.314 L2104.88,579.878 L2096.36,589.817 L2069.38,571.358 L2050.92,517.402 L2042.4,508.883 L2015.43,517.402 L1996.97,508.883 L1951.53,508.883 L1934.49,517.402 L1943.01,552.9" vector-effect="none"/>
   <path fill-rule="evenodd" d="M1617.86,1498.55 L1617.86,1453.11 L1644.83,1436.07 L1636.31,1390.64 L1609.34,1336.68 L1617.86,1318.22 L1600.82,1274.21 L1627.8,1247.23 L1636.31,1247.23 L1644.83,1228.77 L1636.31,1183.33 L1617.86,1174.81 L1617.86,1129.38 L1609.34,1110.92 L1627.8,1066.9 L1636.31,1056.96 L1681.75,1066.9 L1708.73,1056.96 L1735.71,1056.96 L1754.17,1039.92 L1754.17,1003.01 L1781.14,985.968 L1771.2,949.051 L1798.18,932.012 L1853.56,949.051 L1924.55,940.531 L1951.53,958.99 L1951.53,967.509 L1961.47,985.968 L1978.51,1003.01 L1996.97,1003.01 L2015.43,1029.98 L2069.38,1056.96 L2077.9,1048.44 L2077.9,1012.95 L2114.82,994.487 L2104.88,958.99 L2114.82,940.531 L2168.78,958.99 L2187.23,949.051 L2214.21,958.99 L2222.73,994.487 L2241.19,1003.01 L2222.73,1056.96 L2241.19,1066.9 L2268.17,1075.42 L2276.69,1093.88 L2303.67,1120.86 L2285.21,1166.29 L2268.17,1166.29 L2249.71,1156.36 L2241.19,1156.36 L2231.25,1156.36 L2214.21,1183.33 L2214.21,1210.31 L2231.25,1228.77 L2258.23,1220.25 L2268.17,1193.27 L2295.15,1201.79 L2313.6,1237.29 L2285.21,1247.23 L2268.17,1274.21 L2268.17,1282.73 L2285.21,1301.18 L2285.21,1336.68 L2285.21,1355.14 L2268.17,1363.66 L2241.19,1399.16 L2258.23,1417.62 L2276.69,1426.14 L2285.21,1436.07 L2258.23,1490.03 L2249.71,1498.55 L2241.19,1498.55 L2187.23,1490.03 L2160.26,1507.07 L2123.34,1507.07 L2104.88,1517.01 L2077.9,1507.07 L2069.38,1498.55 L2023.95,1490.03 L1988.45,1490.03 L1996.97,1543.99 L1969.99,1552.51 L1943.01,1534.05 L1916.03,1552.51 L1862.08,1552.51 L1853.56,1543.99 L1798.18,1552.51 L1789.66,1552.51 L1771.2,1552.51 L1762.69,1552.51 L1698.79,1552.51 L1708.73,1498.55 L1690.27,1480.09 L1636.31,1507.07 L1617.86,1498.55" vector-effect="none"/>
   <path fill-rule="evenodd" d="M1663.29,1984.15 L1671.81,1984.15 L1663.29,1975.64 L1617.86,1940.14 L1627.8,1930.2 L1636.31,1886.18 L1590.88,1867.72 L1573.84,1849.26 L1573.84,1840.74 L1582.36,1813.77 L1582.36,1805.25 L1627.8,1724.31 L1654.77,1751.29 L1690.27,1768.33 L1698.79,1759.81 L1717.25,1705.85 L1754.17,1697.34 L1771.2,1705.85 L1781.14,1697.34 L1789.66,1697.34 L1835.1,1732.83 L1835.1,1759.81 L1835.1,1768.33 L1870.6,1778.27 L1889.06,1751.29 L1934.49,1768.33 L1943.01,1759.81 L1951.53,1732.83 L1943.01,1724.31 L1934.49,1687.4 L1961.47,1670.36 L1988.45,1678.88 L1988.45,1687.4 L2023.95,1714.37 L2050.92,1705.85 L2060.86,1714.37 L2069.38,1697.34 L2114.82,1687.4 L2123.34,1687.4 L2141.8,1660.42 L2160.26,1660.42 L2187.23,1633.44 L2204.27,1651.9 L2231.25,1687.4 L2276.69,1641.96 L2285.21,1651.9 L2295.15,1724.31 L2303.67,1724.31 L2295.15,1741.35 L2349.1,1786.79 L2330.64,1813.77 L2340.58,1822.29 L2340.58,1867.72 L2340.58,1886.18 L2340.58,1921.68 L2330.64,1930.2 L2276.69,1921.68 L2268.17,1921.68 L2258.23,1984.15 L2285.21,2002.61 L2295.15,2038.11 L2285.21,2038.11 L2241.19,2038.11 L2231.25,2048.05 L2222.73,2083.55 L2168.78,2092.07 L2195.75,2147.44 L2187.23,2155.96 L2123.34,2119.04 L2114.82,2137.5 L2077.9,2155.96 L2042.4,2119.04 L2006.91,2137.5 L1951.53,2128.98 L1934.49,2155.96 L1924.55,2155.96 L1907.51,2147.44 L1907.51,2102.01 L1880.54,2083.55 L1862.08,2083.55 L1853.56,2092.07 L1808.12,2083.55 L1798.18,2092.07 L1754.17,2083.55 L1744.23,2092.07 L1690.27,2110.53 L1671.81,2056.57 L1681.75,2048.05 L1681.75,2038.11 L1663.29,1984.15" vector-effect="none"/>
  </g>
  <g stroke-linejoin="bevel" transform="matrix(0.999751,0,0,0.999751,0,0)" font-weight="400" font-style="normal" fill="none" stroke="#000000" stroke-width="1" stroke-linecap="square" font-size="32.5" font-family="MS Shell Dlg 2" stroke-opacity="1"/>
  <g stroke-linejoin="bevel" transform="matrix(11.8081,0,0,11.8081,0,0)" font-weight="400" font-style="normal" fill="none" stroke="#000000" stroke-width="1" stroke-linecap="square" font-size="32.5" font-family="MS Shell Dlg 2" stroke-opacity="1"/>
  <g stroke-linejoin="bevel" transform="matrix(11.8081,0,0,11.8081,0,0)" font-weight="400" font-style="normal" fill="none" stroke="#000000" stroke-width="1" stroke-linecap="square" font-size="32.5" font-family="MS Shell Dlg 2" stroke-opacity="1"/>
  <g stroke-linejoin="bevel" transform="matrix(11.8081,0,0,11.8081,0,0)" font-weight="400" font-style="normal" fill="none" stroke="#000000" stroke-width="1" stroke-linecap="square" font-size="32.5" font-family="MS Shell Dlg 2" stroke-opacity="1"/>
  <g stroke-linejoin="bevel" transform="matrix(1,0,0,1,0,0)" font-weight="400" font-style="normal" fill="none" stroke="#000000" stroke-width="1" stroke-linecap="square" font-size="32.5" font-family="MS Shell Dlg 2" stroke-opacity="1"/>
  <g stroke-linejoin="bevel" transform="matrix(11.8081,0,0,11.8081,0,0)" font-weight="400" font-style="normal" fill="none" stroke="#000000" stroke-width="1" stroke-linecap="square" font-size="32.5" font-family="MS Shell Dlg 2" stroke-opacity="1"/>
  <g stroke-linejoin="bevel" transform="matrix(11.8081,0,0,11.8081,0,0)" font-weight="400" font-style="normal" fill="none" stroke="#000000" stroke-width="1" stroke-linecap="square" font-size="32.5" font-family="MS Shell Dlg 2" stroke-opacity="1"/>
  <g stroke-linejoin="bevel" transform="matrix(1,0,0,1,0,0)" font-weight="400" font-style="normal" fill="none" stroke="#000000" stroke-width="1" stroke-linecap="square" font-size="32.5" font-family="MS Shell Dlg 2" stroke-opacity="1"/>
 </g>
</svg>
