<?xml version='1.0' encoding='UTF-8' standalone='no'?>
<svg height="209.973mm" width="296.926mm" viewBox="0 0 3507 2480" xmlns:xlink="http://www.w3.org/1999/xlink" xmlns:inkscape="http://www.inkscape.org/namespaces/inkscape" xmlns="http://www.w3.org/2000/svg" version="1.2" baseProfile="tiny">
 <defs/>
 <g stroke-linejoin="bevel" inkscape:label="Page" inkscape:groupmode="layer" fill="none" stroke="black" fill-rule="evenodd" stroke-width="1" stroke-linecap="square" id="Page">
  <g stroke-linejoin="bevel" transform="matrix(1,0,0,1,0,0)" font-weight="400" font-style="normal" fill="none" stroke="#000000" stroke-width="1" stroke-linecap="square" font-size="32.5" font-family="MS Shell Dlg 2" stroke-opacity="1"/>
  <g stroke-linejoin="bevel" transform="matrix(1,0,0,1,0,0)" font-weight="400" font-style="normal" fill="none" stroke="#000000" stroke-width="1" stroke-linecap="square" font-size="32.5" font-family="MS Shell Dlg 2" stroke-opacity="1"/>
  <g stroke-linejoin="bevel" transform="matrix(11.8081,0,0,11.8081,0,0)" font-weight="400" font-style="normal" fill="none" stroke="#000000" stroke-width="1" stroke-linecap="square" font-size="32.5" font-family="MS Shell Dlg 2" stroke-opacity="1"/>
  <g stroke-linejoin="bevel" transform="matrix(0.999751,0,0,0.999751,0,0)" font-weight="400" font-style="normal" fill="none" stroke="#000000" stroke-width="1" stroke-linecap="square" font-size="32.5" font-family="MS Shell Dlg 2" stroke-opacity="1"/>
  <g transform="matrix(0.999751,0,0,0.999751,0,0)" font-weight="400" font-style="normal" fill="#ffffff" stroke="none" fill-opacity="1" font-size="32.5" font-family="MS Shell Dlg 2">
   <path fill-rule="evenodd" d="M-2,-2 L3510,-2 L3510,2483 L-2,2483 L-2,-2" vector-effect="none"/>
  </g>
  <g stroke-linejoin="bevel" transform="matrix(0.999751,0,0,0.999751,0,0)" font-weight="400" font-style="normal" fill="none" stroke="#000000" stroke-width="1" stroke-linecap="square" font-size="32.5" font-family="MS Shell Dlg 2" stroke-opacity="1"/>
  <g stroke-linejoin="bevel" transform="matrix(11.8081,0,0,11.8081,0,0)" font-weight="400" font-style="normal" fill="none" stroke="#000000" stroke-width="1" stroke-linecap="square" font-size="32.5" font-family="MS Shell Dlg 2" stroke-opacity="1"/>
  <g stroke-linejoin="bevel" transform="matrix(11.8081,0,0,11.8081,0,0)" font-weight="400" font-style="normal" fill="none" stroke="#000000" stroke-width="1" stroke-linecap="square" font-size="32.5" font-family="MS Shell Dlg 2" stroke-opacity="1"/>
  <g stroke-linejoin="bevel" transform="matrix(1,0,0,1,0,0)" font-weight="400" font-style="normal" fill="none" stroke="#000000" stroke-width="1" stroke-linecap="square" font-size="32.5" font-family="MS Shell Dlg 2" stroke-opacity="1"/>
 </g>
 <defs/>
 <g stroke-linejoin="bevel" inkscape:label="Map 1: Background" inkscape:groupmode="layer" fill="none" stroke="black" fill-rule="evenodd" stroke-width="1" stroke-linecap="square" id="Map 1: Background">
  <g stroke-linejoin="bevel" transform="matrix(1,0,0,1,0,0)" font-weight="400" font-style="normal" fill="none" stroke="#000000" stroke-width="1" stroke-linecap="square" font-size="32.5" font-family="MS Shell Dlg 2" stroke-opacity="1"/>
  <g stroke-linejoin="bevel" transform="matrix(1,0,0,1,0,0)" font-weight="400" font-style="normal" fill="none" stroke="#000000" stroke-width="1" stroke-linecap="square" font-size="32.5" font-family="MS Shell Dlg 2" stroke-opacity="1"/>
  <g stroke-linejoin="bevel" transform="matrix(11.8081,0,0,11.8081,0,0)" font-weight="400" font-style="normal" fill="none" stroke="#000000" stroke-width="1" stroke-linecap="square" font-size="32.5" font-family="MS Shell Dlg 2" stroke-opacity="1"/>
  <g transform="matrix(11.8081,0,0,11.8081,0,0)" font-weight="400" font-style="normal" fill="#ffffff" stroke="none" fill-opacity="1" font-size="32.5" font-family="MS Shell Dlg 2">
   <path fill-rule="evenodd" d="M0,0 L297,0 L297,210 L0,210 L0,0" vector-effect="none"/>
  </g>
  <g stroke-linejoin="bevel" transform="matrix(11.8081,0,0,11.8081,0,0)" font-weight="400" font-style="normal" fill="none" stroke="#000000" stroke-width="1" stroke-linecap="square" font-size="32.5" font-family="MS Shell Dlg 2" stroke-opacity="1"/>
  <g stroke-linejoin="bevel" transform="matrix(11.8081,0,0,11.8081,0,0)" font-weight="400" font-style="normal" fill="none" stroke="#000000" stroke-width="1" stroke-linecap="square" font-size="32.5" font-family="MS Shell Dlg 2" stroke-opacity="1"/>
  <g stroke-linejoin="bevel" transform="matrix(11.8081,0,0,11.8081,0,0)" font-weight="400" font-style="normal" fill="none" stroke="#000000" stroke-width="1" stroke-linecap="square" font-size="32.5" font-family="MS Shell Dlg 2" stroke-opacity="1"/>
  <g stroke-linejoin="bevel" transform="matrix(11.8081,0,0,11.8081,0,0)" font-weight="400" font-style="normal" fill="none" stroke="#000000" stroke-width="1" stroke-linecap="square" font-size="32.5" font-family="MS Shell Dlg 2" stroke-opacity="1"/>
  <g stroke-linejoin="bevel" transform="matrix(1,0,0,1,0,0)" font-weight="400" font-style="normal" fill="none" stroke="#000000" stroke-width="1" stroke-linecap="square" font-size="32.5" font-family="MS Shell Dlg 2" stroke-opacity="1"/>
  <g stroke-linejoin="bevel" transform="matrix(11.8081,0,0,11.8081,0,0)" font-weight="400" font-style="normal" fill="none" stroke="#000000" stroke-width="1" stroke-linecap="square" font-size="32.5" font-family="MS Shell Dlg 2" stroke-opacity="1"/>
  <g stroke-linejoin="bevel" transform="matrix(11.8081,0,0,11.8081,0,0)" font-weight="400" font-style="normal" fill="none" stroke="#000000" stroke-width="1" stroke-linecap="square" font-size="32.5" font-family="MS Shell Dlg 2" stroke-opacity="1"/>
  <g stroke-linejoin="bevel" transform="matrix(1,0,0,1,0,0)" font-weight="400" font-style="normal" fill="none" stroke="#000000" stroke-width="1" stroke-linecap="square" font-size="32.5" font-family="MS Shell Dlg 2" stroke-opacity="1"/>
 </g>
 <defs/>
 <g stroke-linejoin="bevel" inkscape:label="Map 1: WodensMarshProvinces" inkscape:groupmode="layer" fill="none" stroke="black" fill-rule="evenodd" stroke-width="1" stroke-linecap="square" id="Map 1: WodensMarshProvinces">
  <g stroke-linejoin="bevel" transform="matrix(1,0,0,1,0,0)" font-weight="400" font-style="normal" fill="none" stroke="#000000" stroke-width="1" stroke-linecap="square" font-size="32.5" font-family="MS Shell Dlg 2" stroke-opacity="1"/>
  <g stroke-linejoin="bevel" transform="matrix(1,0,0,1,0,0)" font-weight="400" font-style="normal" fill="none" stroke="#000000" stroke-width="1" stroke-linecap="square" font-size="32.5" font-family="MS Shell Dlg 2" stroke-opacity="1"/>
  <g stroke-linejoin="bevel" transform="matrix(11.8081,0,0,11.8081,0,0)" font-weight="400" font-style="normal" fill="none" stroke="#000000" stroke-width="1" stroke-linecap="square" font-size="32.5" font-family="MS Shell Dlg 2" stroke-opacity="1"/>
  <g stroke-linejoin="bevel" transform="matrix(11.8081,0,0,11.8081,0,0)" font-weight="400" font-style="normal" fill="none" stroke="#000000" stroke-width="1" stroke-linecap="square" font-size="32.5" font-family="MS Shell Dlg 2" stroke-opacity="1"/>
  <g transform="matrix(0.999751,0,0,0.999751,0,0)" font-weight="400" font-style="normal" fill="#000000" stroke="none" fill-opacity="0" font-size="32.5" font-family="MS Shell Dlg 2">
   <rect height="2480" x="0" width="3508" y="0"/>
  </g>
  <g stroke-linejoin="bevel" transform="matrix(0.999751,0,0,0.999751,0,0)" font-weight="400" font-style="normal" fill="none" stroke="#000000" stroke-width="1" stroke-linecap="square" font-size="32.5" font-family="MS Shell Dlg 2" stroke-opacity="1"/>
  <g stroke-linejoin="bevel" transform="matrix(0.999751,0,0,0.999751,0,0)" font-weight="400" font-style="normal" fill="#ccb4bf" stroke="#232323" fill-opacity="1" stroke-width="2.95276" stroke-linecap="square" font-size="32.5" font-family="MS Shell Dlg 2" stroke-opacity="1">
   <path fill-rule="evenodd" d="M2304.97,1347.65 L2296.37,1347.65 L2277.72,1339.04 L2282.74,1316.1 L2273.42,1316.1 L2255.49,1302.47 L2255.49,1293.15 L2264.1,1279.52 L2264.1,1265.9 L2259.79,1252.27 L2291.35,1234.34 L2291.35,1230.04 L2291.35,1216.41 L2291.35,1175.54 L2287.05,1175.54 L2287.05,1170.52 L2291.35,1166.21 L2309.99,1156.89 L2309.99,1129.64 L2318.6,1121.03 L2337.25,1129.64 L2355.17,1102.39 L2364.5,1106.69 L2373.82,1121.03 L2378.12,1121.03 L2396.77,1121.03 L2401.07,1111.71 L2391.75,1093.06 L2391.75,1079.44 L2401.07,1070.83 L2410.39,1070.83 L2419,1065.81 L2451.27,1075.13 L2459.88,1070.83 L2455.57,1057.21 L2478.52,1034.26 L2492.15,1047.88 L2510.08,1047.88 L2510.08,1052.19 L2546.65,1043.58 L2551.67,1043.58 L2565.3,1034.26 L2583.23,1057.21 L2596.85,1052.19 L2619.8,1057.21 L2629.12,1047.88 L2637.73,1047.88 L2647.05,1047.88 L2656.37,1079.44 L2660.68,1079.44 L2678.61,1084.46 L2683.63,1093.06 L2664.98,1102.39 L2664.98,1116.01 L2674.3,1125.33 L2678.61,1125.33 L2692.95,1121.03 L2701.56,1125.33 L2715.18,1121.03 L2720.2,1121.03 L2733.83,1138.96 L2728.81,1143.26 L2724.5,1152.59 L2715.18,1152.59 L2706.58,1148.28 L2706.58,1152.59 L2692.95,1161.91 L2692.95,1170.52 L2678.61,1179.84 L2674.3,1179.84 L2674.3,1175.54 L2651.35,1189.16 L2647.05,1179.84 L2633.43,1175.54 L2629.12,1179.84 L2624.1,1175.54 L2615.5,1175.54 L2601.15,1175.54 L2596.85,1175.54 L2587.53,1189.16 L2587.53,1193.46 L2573.9,1207.09 L2569.6,1207.09 L2560.28,1225.02 L2565.3,1230.04 L2569.6,1234.34 L2583.23,1238.64 L2587.53,1216.41 L2601.15,1216.41 L2610.48,1211.39 L2615.5,1207.09 L2624.1,1211.39 L2633.43,1207.09 L2637.73,1207.09 L2656.37,1197.77 L2664.98,1202.79 L2674.3,1211.39 L2674.3,1216.41 L2664.98,1230.04 L2656.37,1230.04 L2651.35,1238.64 L2647.05,1238.64 L2637.73,1252.27 L2637.73,1257.29 L2619.8,1270.92 L2606.17,1279.52 L2596.85,1288.84 L2587.53,1288.84 L2578.92,1293.15 L2569.6,1293.15 L2560.28,1284.54 L2560.28,1270.92 L2546.65,1257.29 L2542.35,1252.27 L2538.05,1252.27 L2533.03,1238.64 L2528.72,1234.34 L2528.72,1216.41 L2538.05,1211.39 L2538.05,1207.09 L2542.35,1197.77 L2555.97,1193.46 L2560.28,1179.84 L2569.6,1161.91 L2555.97,1152.59 L2551.67,1152.59 L2546.65,1156.89 L2533.03,1156.89 L2528.72,1161.91 L2523.7,1161.91 L2510.08,1170.52 L2510.08,1175.54 L2496.45,1189.16 L2492.15,1189.16 L2492.15,1184.14 L2474.22,1184.14 L2469.2,1189.16 L2455.57,1189.16 L2446.25,1197.77 L2428.32,1193.46 L2428.32,1197.77 L2424.02,1197.77 L2414.7,1207.09 L2428.32,1230.04 L2432.63,1234.34 L2446.25,1243.66 L2455.57,1238.64 L2459.88,1252.27 L2446.25,1261.59 L2446.25,1270.92 L2432.63,1275.22 L2432.63,1279.52 L2441.95,1298.17 L2451.27,1298.17 L2459.88,1298.17 L2469.2,1298.17 L2478.52,1298.17 L2487.85,1293.15 L2482.83,1275.22 L2482.83,1261.59 L2492.15,1257.29 L2505.77,1261.59 L2510.08,1265.9 L2510.08,1270.92 L2523.7,1284.54 L2533.03,1288.84 L2538.05,1306.77 L2533.03,1311.79 L2533.03,1316.1 L2533.03,1329.72 L2533.03,1339.04 L2551.67,1347.65 L2565.3,1352.67 L2569.6,1352.67 L2578.92,1356.97 L2592.55,1356.97 L2610.48,1356.97 L2629.12,1361.99 L2629.12,1366.3 L2629.12,1375.62 L2606.17,1384.22 L2629.12,1397.85 L2615.5,1411.48 L2596.85,1407.17 L2592.55,1425.1 L2596.85,1438.73 L2583.23,1452.35 L2565.3,1443.75 L2560.28,1430.12 L2538.05,1425.1 L2533.03,1425.1 L2515.1,1425.1 L2505.77,1434.42 L2478.52,1425.1 L2469.2,1430.12 L2464.9,1430.12 L2441.95,1407.17 L2432.63,1407.17 L2428.32,1389.24 L2401.07,1407.17 L2391.75,1393.55 L2368.8,1393.55 L2368.8,1397.85 L2341.55,1402.87 L2337.25,1393.55 L2323.62,1389.24 L2318.6,1370.6 L2314.3,1366.3 L2304.97,1347.65" vector-effect="none"/>
   <path fill-rule="evenodd" d="M1521.85,1488.93 L1530.46,1461.68 L1521.85,1448.05 L1503.21,1448.05 L1493.88,1430.12 L1503.21,1416.5 L1485.28,1397.85 L1493.88,1389.24 L1489.58,1370.6 L1498.9,1370.6 L1498.9,1352.67 L1485.28,1347.65 L1485.28,1343.35 L1498.9,1334.02 L1489.58,1320.4 L1493.88,1311.79 L1485.28,1302.47 L1485.28,1298.17 L1516.83,1288.84 L1516.83,1284.54 L1521.85,1284.54 L1521.85,1261.59 L1516.83,1257.29 L1526.16,1234.34 L1567.03,1216.41 L1571.34,1216.41 L1580.66,1207.09 L1617.23,1207.09 L1621.54,1207.09 L1635.16,1202.79 L1635.16,1193.46 L1653.81,1184.14 L1662.41,1175.54 L1681.06,1179.84 L1681.06,1152.59 L1690.38,1148.28 L1704.01,1156.89 L1721.94,1148.28 L1735.56,1152.59 L1744.89,1143.26 L1754.21,1129.64 L1754.21,1125.33 L1762.81,1125.33 L1781.46,1152.59 L1795.09,1148.28 L1803.69,1152.59 L1813.01,1156.89 L1818.03,1161.91 L1853.89,1161.91 L1872.54,1152.59 L1876.84,1152.59 L1899.79,1156.89 L1899.79,1170.52 L1876.84,1189.16 L1881.14,1202.79 L1899.79,1207.09 L1909.11,1230.04 L1927.04,1225.02 L1944.97,1238.64 L1949.99,1238.64 L1954.29,1243.66 L1959.31,1261.59 L1949.99,1275.22 L1949.99,1288.84 L1959.31,1302.47 L1959.31,1311.79 L1954.29,1316.1 L1963.61,1339.04 L1963.61,1343.35 L1954.29,1370.6 L1954.29,1375.62 L1967.92,1393.55 L1972.94,1397.85 L1959.31,1425.1 L1963.61,1438.73 L1963.61,1448.05 L1944.97,1452.35 L1927.04,1430.12 L1913.41,1430.12 L1904.09,1457.37 L1886.16,1448.05 L1863.21,1452.35 L1853.89,1443.75 L1831.66,1457.37 L1831.66,1475.3 L1826.64,1479.6 L1795.09,1471 L1790.07,1479.6 L1772.14,1488.93 L1758.51,1484.62 L1740.58,1488.93 L1731.26,1484.62 L1712.61,1488.93 L1712.61,1502.55 L1694.69,1516.18 L1690.38,1520.48 L1685.36,1520.48 L1658.11,1511.88 L1640.18,1511.88 L1612.93,1506.86 L1580.66,1506.86 L1571.34,1498.25 L1571.34,1488.93 L1553.41,1488.93 L1544.09,1493.23 L1526.16,1498.25 L1521.85,1488.93 M1580.66,1311.79 L1580.66,1329.72 L1567.03,1334.02 L1562.73,1343.35 L1557.71,1343.35 L1539.78,1347.65 L1539.78,1366.3 L1539.78,1370.6 L1544.09,1375.62 L1557.71,1375.62 L1562.73,1375.62 L1576.36,1375.62 L1584.96,1379.92 L1603.61,1370.6 L1607.91,1366.3 L1603.61,1356.97 L1607.91,1347.65 L1617.23,1347.65 L1626.56,1347.65 L1640.18,1343.35 L1644.49,1325.42 L1635.16,1320.4 L1621.54,1325.42 L1617.23,1320.4 L1599.31,1320.4 L1599.31,1316.1 L1584.96,1311.79 L1580.66,1311.79" vector-effect="none"/>
   <path fill-rule="evenodd" d="M1270.85,1038.56 L1252.92,1038.56 L1243.6,1034.26 L1234.28,1024.93 L1229.98,1020.63 L1234.28,997.683 L1225.67,989.078 L1220.65,979.755 L1229.98,966.129 L1243.6,966.129 L1252.92,952.503 L1252.92,938.878 L1257.23,934.575 L1257.23,902.303 L1261.53,902.303 L1270.85,884.375 L1284.48,880.072 L1288.78,884.375 L1303.12,875.052 L1303.12,852.103 L1311.73,847.8 L1325.36,852.103 L1338.98,852.103 L1348.3,857.123 L1357.63,857.123 L1361.93,843.497 L1352.61,829.872 L1366.23,820.549 L1375.56,820.549 L1380.58,824.852 L1394.2,824.852 L1402.81,834.175 L1416.43,829.872 L1416.43,820.549 L1412.13,811.226 L1416.43,797.6 L1425.76,797.6 L1439.38,806.923 L1453.01,802.62 L1462.33,802.62 L1466.63,802.62 L1475.96,816.246 L1480.26,824.852 L1480.26,834.175 L1498.9,829.872 L1503.21,834.175 L1503.21,838.477 L1521.85,843.497 L1521.85,857.123 L1516.83,861.426 L1526.16,880.072 L1539.78,884.375 L1539.78,898 L1549.11,907.323 L1544.09,925.252 L1535.48,925.252 L1530.46,934.575 L1516.83,938.878 L1512.53,943.18 L1521.85,956.806 L1521.85,961.826 L1530.46,970.432 L1530.46,975.452 L1516.83,984.058 L1507.51,970.432 L1503.21,970.432 L1493.88,956.806 L1498.9,948.2 L1493.88,943.18 L1480.26,938.878 L1466.63,948.2 L1462.33,943.18 L1453.01,952.503 L1448.7,956.806 L1435.08,966.129 L1421.45,966.129 L1407.83,970.432 L1402.81,979.755 L1407.83,993.381 L1412.13,997.683 L1425.76,989.078 L1439.38,993.381 L1444.4,989.078 L1458.03,989.078 L1462.33,989.078 L1471.65,997.683 L1471.65,1011.31 L1480.26,1020.63 L1485.28,1024.93 L1489.58,1034.26 L1503.21,1043.58 L1503.21,1047.88 L1489.58,1057.21 L1475.96,1057.21 L1475.96,1070.83 L1444.4,1079.44 L1444.4,1075.13 L1425.76,1075.13 L1407.83,1102.39 L1394.2,1098.08 L1394.2,1093.06 L1389.18,1084.46 L1361.93,1065.81 L1352.61,1075.13 L1330.38,1075.13 L1325.36,1070.83 L1321.05,1075.13 L1293.8,1093.06 L1280.18,1084.46 L1280.18,1075.13 L1275.16,1070.83 L1280.18,1052.19 L1270.85,1038.56" vector-effect="none"/>
   <path fill-rule="evenodd" d="M1826.64,838.477 L1822.34,816.246 L1818.03,816.246 L1803.69,783.975 L1803.69,775.369 L1803.69,770.349 L1799.39,770.349 L1795.09,766.046 L1790.07,752.42 L1772.14,729.472 L1781.46,720.866 L1785.76,711.543 L1772.14,693.614 L1762.81,693.614 L1754.21,688.594 L1754.21,684.292 L1762.81,670.666 L1767.83,670.666 L1781.46,661.343 L1799.39,661.343 L1808.71,657.04 L1822.34,661.343 L1835.96,647.717 L1853.89,647.717 L1853.89,661.343 L1872.54,674.969 L1876.84,674.969 L1886.16,684.292 L1881.14,711.543 L1886.16,715.846 L1899.79,720.866 L1909.11,711.543 L1927.04,720.866 L1940.67,715.846 L1954.29,725.169 L1967.92,711.543 L1995.17,725.169 L2000.19,725.169 L2018.12,738.794 L2027.44,743.097 L2022.42,766.046 L2022.42,770.349 L2027.44,793.297 L2013.81,797.6 L2018.12,820.549 L2027.44,824.852 L2013.81,852.103 L2018.12,857.123 L2008.79,875.052 L2004.49,875.052 L1990.87,893.698 L1967.92,888.678 L1959.31,907.323 L1949.99,902.303 L1936.36,911.626 L1913.41,911.626 L1909.11,902.303 L1886.16,907.323 L1876.84,902.303 L1853.89,915.929 L1840.27,902.303 L1835.96,902.303 L1831.66,893.698 L1831.66,884.375 L1835.96,866.446 L1818.03,852.103 L1826.64,838.477" vector-effect="none"/>
   <path fill-rule="evenodd" d="M1963.61,2180.25 L1967.92,2157.3 L1981.54,2153 L1986.56,2143.68 L1986.56,2134.36 L1981.54,2130.05 L1977.24,2120.73 L1986.56,2107.1 L1981.54,2089.18 L1995.17,2089.18 L2000.19,2084.16 L2013.81,2089.18 L2022.42,2084.16 L2022.42,2070.53 L2004.49,2066.23 L2004.49,2061.92 L1990.87,2048.3 L1986.56,2048.3 L1977.24,2034.67 L1967.92,2029.65 L1963.61,2029.65 L1954.29,2016.03 L1963.61,1993.8 L1963.61,1988.78 L1963.61,1984.47 L1977.24,1970.85 L1981.54,1970.85 L1986.56,1966.54 L2000.19,1970.85 L2018.12,1961.52 L2036.76,1970.85 L2041.07,1993.8 L2068.32,1970.85 L2077.64,1984.47 L2100.59,1966.54 L2104.89,1970.85 L2104.89,2002.4 L2114.21,2002.4 L2132.14,1993.8 L2150.07,2007.42 L2145.77,2025.35 L2155.09,2043.28 L2159.39,2048.3 L2155.09,2079.85 L2159.39,2093.48 L2145.77,2116.43 L2159.39,2134.36 L2163.7,2134.36 L2159.39,2166.63 L2150.07,2166.63 L2122.82,2153 L2122.82,2175.23 L2104.89,2184.56 L2104.89,2188.86 L2091.27,2193.88 L2086.25,2193.88 L2072.62,2198.18 L2072.62,2202.48 L2064.01,2211.81 L2054.69,2225.43 L2045.37,2229.74 L2031.74,2216.11 L2045.37,2207.5 L2041.07,2188.86 L2036.76,2188.86 L2031.74,2188.86 L2018.12,2184.56 L2013.81,2188.86 L1990.87,2188.86 L1977.24,2184.56 L1972.94,2184.56 L1963.61,2180.25" vector-effect="none"/>
   <path fill-rule="evenodd" d="M2127.84,1693.31 L2118.52,1689.01 L2095.57,1679.69 L2095.57,1671.08 L2072.62,1657.46 L2072.62,1652.44 L2077.64,1643.83 L2091.27,1634.51 L2091.27,1616.58 L2091.27,1611.56 L2100.59,1597.93 L2095.57,1588.61 L2114.21,1566.38 L2109.19,1561.36 L2127.84,1543.43 L2145.77,1543.43 L2150.07,1543.43 L2178.04,1552.75 L2186.65,1539.13 L2205.29,1534.11 L2209.59,1534.11 L2232.54,1529.8 L2236.85,1539.13 L2236.85,1557.06 L2255.49,1566.38 L2259.79,1580 L2264.1,1593.63 L2269.12,1607.26 L2259.79,1616.58 L2259.79,1634.51 L2259.79,1638.81 L2269.12,1671.08 L2246.17,1675.38 L2246.17,1702.64 L2213.9,1693.31 L2209.59,1720.56 L2200.27,1725.58 L2195.97,1725.58 L2191.67,1720.56 L2155.09,1720.56 L2155.09,1706.94 L2150.07,1693.31 L2127.84,1693.31" vector-effect="none"/>
   <path fill-rule="evenodd" d="M2728.81,1561.36 L2733.83,1557.06 L2733.83,1539.13 L2724.5,1534.11 L2738.13,1511.88 L2728.81,1502.55 L2728.81,1493.23 L2756.78,1479.6 L2742.43,1457.37 L2765.38,1448.05 L2774.7,1452.35 L2784.03,1448.05 L2792.63,1448.05 L2801.96,1461.68 L2801.96,1465.98 L2815.58,1461.68 L2829.21,1465.98 L2838.53,1457.37 L2847.85,1461.68 L2861.48,1457.37 L2865.78,1457.37 L2870.08,1457.37 L2888.73,1475.3 L2888.73,1479.6 L2883.71,1488.93 L2870.08,1506.86 L2879.41,1520.48 L2883.71,1525.5 L2888.73,1539.13 L2883.71,1543.43 L2883.71,1557.06 L2875.1,1566.38 L2875.1,1580 L2883.71,1584.31 L2893.03,1602.24 L2888.73,1611.56 L2883.71,1616.58 L2861.48,1597.93 L2856.46,1597.93 L2838.53,1580 L2829.21,1593.63 L2819.88,1602.24 L2801.96,1588.61 L2788.33,1593.63 L2774.7,1588.61 L2761.08,1593.63 L2747.45,1588.61 L2738.13,1588.61 L2728.81,1561.36" vector-effect="none"/>
   <path fill-rule="evenodd" d="M1252.92,1243.66 L1257.23,1261.59 L1247.9,1275.22 L1234.28,1270.92 L1229.98,1275.22 L1207.03,1293.15 L1189.1,1298.17 L1184.08,1270.92 L1175.47,1275.22 L1170.45,1270.92 L1175.47,1252.27 L1161.85,1247.97 L1161.85,1234.34 L1189.1,1230.04 L1189.1,1216.41 L1211.33,1207.09 L1220.65,1225.02 L1247.9,1202.79 L1257.23,1216.41 L1252.92,1238.64 L1252.92,1243.66" vector-effect="none"/>
   <path fill-rule="evenodd" d="M1348.3,1529.8 L1334.68,1529.8 L1334.68,1502.55 L1316.75,1520.48 L1316.75,1516.18 L1307.43,1506.86 L1325.36,1493.23 L1307.43,1484.62 L1303.12,1484.62 L1311.73,1471 L1311.73,1457.37 L1325.36,1448.05 L1330.38,1452.35 L1352.61,1443.75 L1361.93,1465.98 L1375.56,1471 L1384.88,1479.6 L1394.2,1506.86 L1389.18,1516.18 L1375.56,1516.18 L1361.93,1534.11 L1357.63,1534.11 L1348.3,1529.8" vector-effect="none"/>
   <path fill-rule="evenodd" d="M2710.88,1175.54 L2724.5,1184.14 L2728.81,1179.84 L2742.43,1184.14 L2742.43,1197.77 L2733.83,1207.09 L2720.2,1197.77 L2710.88,1202.79 L2697.25,1197.77 L2701.56,1179.84 L2710.88,1175.54" vector-effect="none"/>
  </g>
  <g stroke-linejoin="bevel" transform="matrix(0.999751,0,0,0.999751,0,0)" font-weight="400" font-style="normal" fill="none" stroke="#000000" stroke-width="1" stroke-linecap="square" font-size="32.5" font-family="MS Shell Dlg 2" stroke-opacity="1"/>
  <g stroke-linejoin="bevel" transform="matrix(11.8081,0,0,11.8081,0,0)" font-weight="400" font-style="normal" fill="none" stroke="#000000" stroke-width="1" stroke-linecap="square" font-size="32.5" font-family="MS Shell Dlg 2" stroke-opacity="1"/>
  <g stroke-linejoin="bevel" transform="matrix(11.8081,0,0,11.8081,0,0)" font-weight="400" font-style="normal" fill="none" stroke="#000000" stroke-width="1" stroke-linecap="square" font-size="32.5" font-family="MS Shell Dlg 2" stroke-opacity="1"/>
  <g stroke-linejoin="bevel" transform="matrix(11.8081,0,0,11.8081,0,0)" font-weight="400" font-style="normal" fill="none" stroke="#000000" stroke-width="1" stroke-linecap="square" font-size="32.5" font-family="MS Shell Dlg 2" stroke-opacity="1"/>
  <g stroke-linejoin="bevel" transform="matrix(1,0,0,1,0,0)" font-weight="400" font-style="normal" fill="none" stroke="#000000" stroke-width="1" stroke-linecap="square" font-size="32.5" font-family="MS Shell Dlg 2" stroke-opacity="1"/>
  <g stroke-linejoin="bevel" transform="matrix(11.8081,0,0,11.8081,0,0)" font-weight="400" font-style="normal" fill="none" stroke="#000000" stroke-width="1" stroke-linecap="square" font-size="32.5" font-family="MS Shell Dlg 2" stroke-opacity="1"/>
  <g stroke-linejoin="bevel" transform="matrix(11.8081,0,0,11.8081,0,0)" font-weight="400" font-style="normal" fill="none" stroke="#000000" stroke-width="1" stroke-linecap="square" font-size="32.5" font-family="MS Shell Dlg 2" stroke-opacity="1"/>
  <g stroke-linejoin="bevel" transform="matrix(1,0,0,1,0,0)" font-weight="400" font-style="normal" fill="none" stroke="#000000" stroke-width="1" stroke-linecap="square" font-size="32.5" font-family="MS Shell Dlg 2" stroke-opacity="1"/>
 </g>
</svg>
