<?xml version='1.0' encoding='UTF-8' standalone='no'?>
<svg height="209.973mm" width="296.926mm" viewBox="0 0 3507 2480" xmlns:xlink="http://www.w3.org/1999/xlink" xmlns:inkscape="http://www.inkscape.org/namespaces/inkscape" xmlns="http://www.w3.org/2000/svg" version="1.2" baseProfile="tiny">
 <defs/>
 <g stroke-linejoin="bevel" inkscape:label="Page" inkscape:groupmode="layer" fill="none" stroke="black" fill-rule="evenodd" stroke-width="1" stroke-linecap="square" id="Page">
  <g stroke-linejoin="bevel" transform="matrix(1,0,0,1,0,0)" font-weight="400" font-style="normal" fill="none" stroke="#000000" stroke-width="1" stroke-linecap="square" font-size="32.5" font-family="MS Shell Dlg 2" stroke-opacity="1"/>
  <g stroke-linejoin="bevel" transform="matrix(1,0,0,1,0,0)" font-weight="400" font-style="normal" fill="none" stroke="#000000" stroke-width="1" stroke-linecap="square" font-size="32.5" font-family="MS Shell Dlg 2" stroke-opacity="1"/>
  <g stroke-linejoin="bevel" transform="matrix(11.8081,0,0,11.8081,0,0)" font-weight="400" font-style="normal" fill="none" stroke="#000000" stroke-width="1" stroke-linecap="square" font-size="32.5" font-family="MS Shell Dlg 2" stroke-opacity="1"/>
  <g stroke-linejoin="bevel" transform="matrix(0.999751,0,0,0.999751,0,0)" font-weight="400" font-style="normal" fill="none" stroke="#000000" stroke-width="1" stroke-linecap="square" font-size="32.5" font-family="MS Shell Dlg 2" stroke-opacity="1"/>
  <g transform="matrix(0.999751,0,0,0.999751,0,0)" font-weight="400" font-style="normal" fill="#ffffff" stroke="none" fill-opacity="1" font-size="32.5" font-family="MS Shell Dlg 2">
   <path fill-rule="evenodd" d="M-2,-2 L3510,-2 L3510,2483 L-2,2483 L-2,-2" vector-effect="none"/>
  </g>
  <g stroke-linejoin="bevel" transform="matrix(0.999751,0,0,0.999751,0,0)" font-weight="400" font-style="normal" fill="none" stroke="#000000" stroke-width="1" stroke-linecap="square" font-size="32.5" font-family="MS Shell Dlg 2" stroke-opacity="1"/>
  <g stroke-linejoin="bevel" transform="matrix(11.8081,0,0,11.8081,0,0)" font-weight="400" font-style="normal" fill="none" stroke="#000000" stroke-width="1" stroke-linecap="square" font-size="32.5" font-family="MS Shell Dlg 2" stroke-opacity="1"/>
  <g stroke-linejoin="bevel" transform="matrix(11.8081,0,0,11.8081,0,0)" font-weight="400" font-style="normal" fill="none" stroke="#000000" stroke-width="1" stroke-linecap="square" font-size="32.5" font-family="MS Shell Dlg 2" stroke-opacity="1"/>
  <g stroke-linejoin="bevel" transform="matrix(1,0,0,1,0,0)" font-weight="400" font-style="normal" fill="none" stroke="#000000" stroke-width="1" stroke-linecap="square" font-size="32.5" font-family="MS Shell Dlg 2" stroke-opacity="1"/>
 </g>
 <defs/>
 <g stroke-linejoin="bevel" inkscape:label="Map 1: Background" inkscape:groupmode="layer" fill="none" stroke="black" fill-rule="evenodd" stroke-width="1" stroke-linecap="square" id="Map 1: Background">
  <g stroke-linejoin="bevel" transform="matrix(1,0,0,1,0,0)" font-weight="400" font-style="normal" fill="none" stroke="#000000" stroke-width="1" stroke-linecap="square" font-size="32.5" font-family="MS Shell Dlg 2" stroke-opacity="1"/>
  <g stroke-linejoin="bevel" transform="matrix(1,0,0,1,0,0)" font-weight="400" font-style="normal" fill="none" stroke="#000000" stroke-width="1" stroke-linecap="square" font-size="32.5" font-family="MS Shell Dlg 2" stroke-opacity="1"/>
  <g stroke-linejoin="bevel" transform="matrix(11.8081,0,0,11.8081,0,0)" font-weight="400" font-style="normal" fill="none" stroke="#000000" stroke-width="1" stroke-linecap="square" font-size="32.5" font-family="MS Shell Dlg 2" stroke-opacity="1"/>
  <g transform="matrix(11.8081,0,0,11.8081,0,0)" font-weight="400" font-style="normal" fill="#ffffff" stroke="none" fill-opacity="1" font-size="32.5" font-family="MS Shell Dlg 2">
   <path fill-rule="evenodd" d="M0,0 L297,0 L297,210 L0,210 L0,0" vector-effect="none"/>
  </g>
  <g stroke-linejoin="bevel" transform="matrix(11.8081,0,0,11.8081,0,0)" font-weight="400" font-style="normal" fill="none" stroke="#000000" stroke-width="1" stroke-linecap="square" font-size="32.5" font-family="MS Shell Dlg 2" stroke-opacity="1"/>
  <g stroke-linejoin="bevel" transform="matrix(11.8081,0,0,11.8081,0,0)" font-weight="400" font-style="normal" fill="none" stroke="#000000" stroke-width="1" stroke-linecap="square" font-size="32.5" font-family="MS Shell Dlg 2" stroke-opacity="1"/>
  <g stroke-linejoin="bevel" transform="matrix(11.8081,0,0,11.8081,0,0)" font-weight="400" font-style="normal" fill="none" stroke="#000000" stroke-width="1" stroke-linecap="square" font-size="32.5" font-family="MS Shell Dlg 2" stroke-opacity="1"/>
  <g stroke-linejoin="bevel" transform="matrix(11.8081,0,0,11.8081,0,0)" font-weight="400" font-style="normal" fill="none" stroke="#000000" stroke-width="1" stroke-linecap="square" font-size="32.5" font-family="MS Shell Dlg 2" stroke-opacity="1"/>
  <g stroke-linejoin="bevel" transform="matrix(1,0,0,1,0,0)" font-weight="400" font-style="normal" fill="none" stroke="#000000" stroke-width="1" stroke-linecap="square" font-size="32.5" font-family="MS Shell Dlg 2" stroke-opacity="1"/>
  <g stroke-linejoin="bevel" transform="matrix(11.8081,0,0,11.8081,0,0)" font-weight="400" font-style="normal" fill="none" stroke="#000000" stroke-width="1" stroke-linecap="square" font-size="32.5" font-family="MS Shell Dlg 2" stroke-opacity="1"/>
  <g stroke-linejoin="bevel" transform="matrix(11.8081,0,0,11.8081,0,0)" font-weight="400" font-style="normal" fill="none" stroke="#000000" stroke-width="1" stroke-linecap="square" font-size="32.5" font-family="MS Shell Dlg 2" stroke-opacity="1"/>
  <g stroke-linejoin="bevel" transform="matrix(1,0,0,1,0,0)" font-weight="400" font-style="normal" fill="none" stroke="#000000" stroke-width="1" stroke-linecap="square" font-size="32.5" font-family="MS Shell Dlg 2" stroke-opacity="1"/>
 </g>
 <defs/>
 <g stroke-linejoin="bevel" inkscape:label="Map 1: WodensMarshLand" inkscape:groupmode="layer" fill="none" stroke="black" fill-rule="evenodd" stroke-width="1" stroke-linecap="square" id="Map 1: WodensMarshLand">
  <g stroke-linejoin="bevel" transform="matrix(1,0,0,1,0,0)" font-weight="400" font-style="normal" fill="none" stroke="#000000" stroke-width="1" stroke-linecap="square" font-size="32.5" font-family="MS Shell Dlg 2" stroke-opacity="1"/>
  <g stroke-linejoin="bevel" transform="matrix(1,0,0,1,0,0)" font-weight="400" font-style="normal" fill="none" stroke="#000000" stroke-width="1" stroke-linecap="square" font-size="32.5" font-family="MS Shell Dlg 2" stroke-opacity="1"/>
  <g stroke-linejoin="bevel" transform="matrix(11.8081,0,0,11.8081,0,0)" font-weight="400" font-style="normal" fill="none" stroke="#000000" stroke-width="1" stroke-linecap="square" font-size="32.5" font-family="MS Shell Dlg 2" stroke-opacity="1"/>
  <g stroke-linejoin="bevel" transform="matrix(11.8081,0,0,11.8081,0,0)" font-weight="400" font-style="normal" fill="none" stroke="#000000" stroke-width="1" stroke-linecap="square" font-size="32.5" font-family="MS Shell Dlg 2" stroke-opacity="1"/>
  <g transform="matrix(0.999751,0,0,0.999751,0,0)" font-weight="400" font-style="normal" fill="#000000" stroke="none" fill-opacity="0" font-size="32.5" font-family="MS Shell Dlg 2">
   <rect height="2480" x="0" width="3508" y="0"/>
  </g>
  <g stroke-linejoin="bevel" transform="matrix(0.999751,0,0,0.999751,0,0)" font-weight="400" font-style="normal" fill="none" stroke="#000000" stroke-width="1" stroke-linecap="square" font-size="32.5" font-family="MS Shell Dlg 2" stroke-opacity="1"/>
  <g stroke-linejoin="bevel" transform="matrix(0.999751,0,0,0.999751,0,0)" font-weight="400" font-style="normal" fill="#d3a6da" stroke="#232323" fill-opacity="1" stroke-width="5.90551" stroke-linecap="square" font-size="32.5" font-family="MS Shell Dlg 2" stroke-opacity="1">
   <path fill-rule="evenodd" d="M1303.12,1506.86 L1307.43,1484.62 L1303.12,1484.62 L1298.1,1484.62 L1288.78,1488.93 L1275.16,1488.93 L1270.85,1493.23 L1261.53,1488.93 L1257.23,1488.93 L1239.3,1479.6 L1261.53,1471 L1261.53,1465.98 L1257.23,1457.37 L1261.53,1452.35 L1247.9,1438.73 L1257.23,1430.12 L1266.55,1434.42 L1284.48,1420.8 L1298.1,1407.17 L1303.12,1407.17 L1321.05,1397.85 L1330.38,1402.87 L1344,1402.87 L1348.3,1397.85 L1357.63,1397.85 L1366.23,1384.22 L1352.61,1370.6 L1352.61,1366.3 L1352.61,1361.99 L1334.68,1361.99 L1334.68,1347.65 L1334.68,1343.35 L1321.05,1343.35 L1316.75,1343.35 L1311.73,1343.35 L1293.8,1347.65 L1280.18,1347.65 L1270.85,1339.04 L1261.53,1334.02 L1252.92,1343.35 L1239.3,1343.35 L1234.28,1347.65 L1225.67,1347.65 L1220.65,1329.72 L1216.35,1325.42 L1216.35,1320.4 L1229.98,1311.79 L1225.67,1298.17 L1207.03,1293.15 L1189.1,1298.17 L1170.45,1298.17 L1166.15,1293.15 L1156.83,1288.84 L1147.5,1279.52 L1152.52,1265.9 L1156.83,1265.9 L1156.83,1252.27 L1161.85,1247.97 L1161.85,1234.34 L1166.15,1216.41 L1156.83,1207.09 L1152.52,1207.09 L1143.2,1207.09 L1143.2,1211.39 L1125.27,1216.41 L1120.25,1211.39 L1115.95,1211.39 L1102.32,1211.39 L1093,1211.39 L1075.07,1211.39 L1061.45,1211.39 L1052.12,1207.09 L1042.8,1202.79 L1038.5,1193.46 L1034.2,1189.16 L1034.2,1184.14 L1015.55,1175.54 L1011.25,1175.54 L1001.92,1166.21 L1001.92,1152.59 L1006.94,1148.28 L1020.57,1156.89 L1029.18,1152.59 L1042.8,1161.91 L1052.12,1156.89 L1061.45,1161.91 L1075.07,1156.89 L1093,1152.59 L1111.65,1143.26 L1111.65,1129.64 L1125.27,1125.33 L1129.58,1121.03 L1138.9,1125.33 L1147.5,1121.03 L1156.83,1125.33 L1179.78,1106.69 L1175.47,1102.39 L1175.47,1088.76 L1170.45,1075.13 L1161.85,1070.83 L1156.83,1057.21 L1143.2,1047.88 L1143.2,1043.58 L1143.2,1029.95 L1147.5,1024.93 L1156.83,1020.63 L1166.15,1020.63 L1170.45,1020.63 L1184.08,1020.63 L1189.1,1016.33 L1193.4,997.683 L1189.1,993.381 L1175.47,984.058 L1170.45,989.078 L1156.83,989.078 L1156.83,993.381 L1133.88,997.683 L1133.88,993.381 L1143.2,975.452 L1147.5,979.755 L1161.85,966.129 L1175.47,956.806 L1175.47,943.18 L1175.47,938.878 L1170.45,929.555 L1166.15,929.555 L1166.15,925.252 L1166.15,915.929 L1175.47,907.323 L1189.1,902.303 L1197.7,911.626 L1193.4,920.949 L1202.72,934.575 L1202.72,938.878 L1216.35,929.555 L1220.65,920.949 L1229.98,911.626 L1229.98,907.323 L1234.28,907.323 L1229.98,888.678 L1243.6,875.052 L1243.6,870.749 L1257.23,870.749 L1270.85,884.375 L1284.48,880.072 L1288.78,884.375 L1303.12,875.052 L1303.12,852.103 L1311.73,847.8 L1325.36,852.103 L1338.98,852.103 L1348.3,857.123 L1357.63,857.123 L1361.93,843.497 L1352.61,829.872 L1366.23,820.549 L1375.56,820.549 L1380.58,824.852 L1394.2,824.852 L1402.81,834.175 L1416.43,829.872 L1416.43,820.549 L1412.13,811.226 L1416.43,797.6 L1425.76,797.6 L1439.38,806.923 L1453.01,802.62 L1462.33,802.62 L1466.63,802.62 L1475.96,816.246 L1480.26,824.852 L1480.26,834.175 L1498.9,829.872 L1503.21,834.175 L1512.53,824.852 L1526.16,834.175 L1526.16,838.477 L1521.85,843.497 L1521.85,857.123 L1516.83,861.426 L1526.16,880.072 L1539.78,884.375 L1539.78,898 L1549.11,907.323 L1544.09,925.252 L1535.48,925.252 L1530.46,934.575 L1516.83,938.878 L1512.53,943.18 L1521.85,956.806 L1521.85,961.826 L1530.46,970.432 L1530.46,975.452 L1516.83,984.058 L1507.51,970.432 L1503.21,970.432 L1493.88,956.806 L1498.9,948.2 L1493.88,943.18 L1480.26,938.878 L1466.63,948.2 L1462.33,943.18 L1453.01,952.503 L1448.7,956.806 L1435.08,966.129 L1421.45,966.129 L1407.83,970.432 L1402.81,979.755 L1407.83,993.381 L1412.13,997.683 L1425.76,989.078 L1439.38,993.381 L1444.4,989.078 L1458.03,989.078 L1462.33,989.078 L1471.65,997.683 L1471.65,1011.31 L1480.26,1020.63 L1485.28,1024.93 L1489.58,1034.26 L1503.21,1043.58 L1503.21,1047.88 L1512.53,1057.21 L1530.46,1052.19 L1530.46,1043.58 L1539.78,1038.56 L1539.78,1034.26 L1535.48,1020.63 L1553.41,1007.01 L1553.41,1002.7 L1557.71,997.683 L1562.73,993.381 L1580.66,1002.7 L1589.98,989.078 L1594.29,989.078 L1599.31,975.452 L1612.93,966.129 L1617.23,961.826 L1612.93,956.806 L1607.91,948.2 L1607.91,943.18 L1607.91,934.575 L1612.93,920.949 L1626.56,920.949 L1630.86,911.626 L1648.79,911.626 L1667.43,907.323 L1667.43,893.698 L1662.41,888.678 L1662.41,870.749 L1676.76,861.426 L1681.06,857.123 L1681.06,852.103 L1681.06,843.497 L1681.06,834.175 L1667.43,820.549 L1667.43,811.226 L1676.76,806.923 L1685.36,811.226 L1690.38,820.549 L1704.01,824.852 L1712.61,811.226 L1712.61,806.923 L1712.61,797.6 L1735.56,793.297 L1735.56,775.369 L1731.26,770.349 L1717.63,779.672 L1698.99,770.349 L1698.99,775.369 L1681.06,770.349 L1676.76,766.046 L1662.41,766.046 L1653.81,756.723 L1658.11,748.117 L1676.76,743.097 L1676.76,729.472 L1685.36,725.169 L1694.69,720.866 L1717.63,725.169 L1721.94,720.866 L1735.56,725.169 L1754.21,725.169 L1758.51,725.169 L1772.14,729.472 L1781.46,720.866 L1785.76,711.543 L1772.14,693.614 L1762.81,693.614 L1754.21,688.594 L1740.58,693.614 L1731.26,688.594 L1717.63,702.22 L1712.61,702.22 L1717.63,674.969 L1721.94,674.969 L1726.24,661.343 L1735.56,661.343 L1749.19,647.717 L1754.21,647.717 L1762.81,639.112 L1767.83,620.466 L1758.51,611.86 L1754.21,611.86 L1740.58,611.86 L1735.56,611.86 L1726.24,611.86 L1717.63,597.517 L1717.63,583.891 L1717.63,579.589 L1717.63,570.266 L1712.61,565.963 L1708.31,548.034 L1694.69,543.014 L1694.69,538.711 L1681.06,534.409 L1667.43,520.783 L1662.41,520.783 L1653.81,507.157 L1648.79,507.157 L1644.49,502.137 L1630.86,502.137 L1626.56,507.157 L1621.54,507.157 L1612.93,502.137 L1607.91,507.157 L1589.98,497.834 L1580.66,511.46 L1571.34,507.157 L1567.03,507.157 L1571.34,479.906 L1580.66,466.28 L1576.36,461.26 L1594.29,447.634 L1599.31,443.331 L1607.91,443.331 L1617.23,439.028 L1630.86,443.331 L1635.16,429.706 L1635.16,425.403 L1640.18,416.08 L1635.16,406.757 L1640.18,398.151 L1640.18,393.131 L1626.56,388.828 L1621.54,393.131 L1607.91,393.131 L1599.31,388.828 L1589.98,388.828 L1576.36,384.525 L1580.66,365.88 L1589.98,356.557 L1594.29,356.557 L1607.91,342.931 L1607.91,334.325 L1607.91,329.305 L1599.31,325.003 L1589.98,307.074 L1576.36,311.377 L1567.03,297.751 L1580.66,284.125 L1594.29,284.125 L1599.31,293.448 L1607.91,293.448 L1617.23,307.074 L1630.86,307.074 L1635.16,302.054 L1635.16,297.751 L1630.86,279.823 L1635.16,274.802 L1640.18,261.177 L1648.79,252.571 L1653.81,247.551 L1658.11,243.248 L1658.11,229.622 L1653.81,220.3 L1658.11,206.674 L1662.41,202.371 L1690.38,225.32 L1694.69,229.622 L1694.69,243.248 L1694.69,252.571 L1708.31,256.874 L1721.94,274.802 L1717.63,279.823 L1694.69,293.448 L1694.69,302.054 L1685.36,311.377 L1685.36,334.325 L1667.43,338.628 L1662.41,352.254 L1658.11,356.557 L1658.11,361.577 L1671.74,388.828 L1671.74,393.131 L1667.43,406.757 L1667.43,416.08 L1685.36,420.383 L1694.69,429.706 L1717.63,420.383 L1717.63,398.151 L1749.19,393.131 L1754.21,388.828 L1772.14,388.828 L1776.44,388.828 L1767.83,420.383 L1776.44,429.706 L1776.44,434.008 L1776.44,443.331 L1781.46,447.634 L1826.64,443.331 L1831.66,443.331 L1849.59,443.331 L1863.21,452.654 L1872.54,452.654 L1886.16,470.583 L1909.11,466.28 L1904.09,502.137 L1904.09,507.157 L1909.11,525.086 L1940.67,520.783 L1949.99,534.409 L1963.61,538.711 L1963.61,552.337 L1954.29,565.963 L1959.31,579.589 L1954.29,588.911 L1967.92,606.84 L1986.56,602.537 L1990.87,606.84 L1995.17,629.789 L1995.17,634.092 L2008.79,639.112 L2027.44,625.486 L2041.07,634.092 L2054.69,616.163 L2068.32,620.466 L2077.64,634.092 L2081.94,639.112 L2086.25,639.112 L2109.19,661.343 L2118.52,661.343 L2145.77,657.04 L2150.07,657.04 L2155.09,666.363 L2168.72,661.343 L2178.04,666.363 L2195.97,666.363 L2200.27,670.666 L2205.29,684.292 L2205.29,688.594 L2236.85,684.292 L2241.15,688.594 L2259.79,684.292 L2259.79,666.363 L2264.1,661.343 L2282.74,661.343 L2287.05,670.666 L2309.99,670.666 L2314.3,666.363 L2327.92,661.343 L2341.55,643.414 L2346.57,639.112 L2350.87,634.092 L2346.57,611.86 L2337.25,602.537 L2355.17,593.214 L2368.8,593.214 L2368.8,565.963 L2382.43,561.66 L2396.77,543.014 L2401.07,543.014 L2419,511.46 L2414.7,507.157 L2396.77,497.834 L2401.07,474.886 L2396.77,466.28 L2396.77,456.957 L2424.02,443.331 L2405.37,420.383 L2414.7,416.08 L2441.95,416.08 L2451.27,429.706 L2478.52,411.777 L2487.85,425.403 L2510.08,434.008 L2515.1,439.028 L2551.67,420.383 L2560.28,425.403 L2560.28,429.706 L2569.6,447.634 L2578.92,452.654 L2596.85,434.008 L2615.5,443.331 L2615.5,447.634 L2610.48,466.28 L2624.1,488.511 L2629.12,493.531 L2642.75,493.531 L2647.05,497.834 L2637.73,525.086 L2651.35,529.389 L2664.98,525.086 L2670,525.086 L2692.95,529.389 L2697.25,529.389 L2710.88,529.389 L2728.81,552.337 L2751.76,552.337 L2756.78,543.014 L2788.33,548.034 L2811.28,548.034 L2806.26,565.963 L2811.28,575.286 L2819.88,575.286 L2824.9,583.891 L2838.53,575.286 L2847.85,583.891 L2861.48,575.286 L2861.48,570.266 L2861.48,565.963 L2856.46,556.64 L2865.78,548.034 L2870.08,525.086 L2875.1,520.783 L2888.73,525.086 L2888.73,543.014 L2897.34,552.337 L2897.34,561.66 L2897.34,565.963 L2915.98,583.891 L2920.28,579.589 L2947.54,579.589 L2970.48,579.589 L2970.48,583.891 L2997.74,588.911 L3002.76,597.517 L3016.38,606.84 L3034.31,583.891 L3038.61,583.891 L3047.94,583.891 L3057.26,575.286 L3070.88,579.589 L3084.51,575.286 L3075.19,552.337 L3080.21,548.034 L3102.44,570.266 L3102.44,575.286 L3107.46,583.891 L3139.01,588.911 L3144.03,565.963 L3148.34,556.64 L3175.59,561.66 L3175.59,588.911 L3179.89,588.911 L3202.84,583.891 L3216.46,597.517 L3243.72,606.84 L3257.34,579.589 L3266.66,579.589 L3275.99,593.214 L3280.29,602.537 L3289.61,629.789 L3293.92,634.092 L3303.24,629.789 L3321.17,634.092 L3326.19,620.466 L3339.81,616.163 L3353.44,620.466 L3357.74,620.466 L3362.76,634.092 L3376.39,639.112 L3376.39,647.717 L3384.99,661.343 L3384.99,666.363 L3403.64,670.666 L3417.26,661.343 L3430.89,666.363 L3435.19,670.666 L3435.19,674.969 L3426.59,688.594 L3407.94,693.614 L3403.64,693.614 L3394.32,697.917 L3376.39,688.594 L3371.37,684.292 L3362.76,684.292 L3349.14,688.594 L3349.14,697.917 L3344.12,697.917 L3339.81,697.917 L3326.19,684.292 L3316.86,688.594 L3316.86,697.917 L3307.54,711.543 L3307.54,715.846 L3303.24,725.169 L3298.94,725.169 L3289.61,743.097 L3285.31,743.097 L3275.99,743.097 L3266.66,748.117 L3253.04,743.097 L3248.74,748.117 L3239.41,743.097 L3235.11,748.117 L3230.09,748.117 L3221.48,748.117 L3216.46,752.42 L3198.54,752.42 L3198.54,748.117 L3179.89,743.097 L3166.26,738.794 L3166.26,734.492 L3166.26,725.169 L3152.64,711.543 L3148.34,711.543 L3139.01,715.846 L3125.39,720.866 L3125.39,725.169 L3111.76,734.492 L3111.76,743.097 L3111.76,748.117 L3130.41,752.42 L3134.71,766.046 L3125.39,775.369 L3121.08,775.369 L3107.46,775.369 L3102.44,775.369 L3093.83,775.369 L3088.81,775.369 L3088.81,779.672 L3080.21,783.975 L3075.19,797.6 L3066.58,802.62 L3052.96,788.995 L3061.56,779.672 L3057.26,770.349 L3034.31,775.369 L3020.68,788.995 L3016.38,797.6 L3007.06,802.62 L2989.13,802.62 L2975.5,811.226 L2970.48,816.246 L2979.81,829.872 L2993.43,824.852 L3002.76,824.852 L3011.36,824.852 L3016.38,824.852 L3020.68,838.477 L3024.99,838.477 L3024.99,852.103 L3030.01,857.123 L3030.01,870.749 L3024.99,880.072 L3011.36,880.072 L3011.36,884.375 L2997.74,884.375 L2993.43,884.375 L2989.13,888.678 L2975.5,907.323 L2970.48,925.252 L2975.5,938.878 L2975.5,948.2 L2970.48,956.806 L2966.18,961.826 L2956.86,961.826 L2947.54,952.503 L2947.54,938.878 L2929.61,929.555 L2915.98,929.555 L2911.68,925.252 L2897.34,929.555 L2893.03,943.18 L2893.03,948.2 L2902.36,961.826 L2906.66,966.129 L2915.98,966.129 L2925.3,979.755 L2925.3,984.058 L2920.28,997.683 L2933.91,1007.01 L2943.23,1011.31 L2952.56,1007.01 L2961.16,1007.01 L2975.5,1016.33 L2966.18,1029.95 L2970.48,1043.58 L2970.48,1047.88 L2975.5,1065.81 L2970.48,1070.83 L2966.18,1075.13 L2947.54,1065.81 L2943.23,1052.19 L2925.3,1047.88 L2920.28,1043.58 L2902.36,1043.58 L2897.34,1043.58 L2879.41,1043.58 L2875.1,1047.88 L2861.48,1047.88 L2847.85,1043.58 L2842.83,1043.58 L2829.21,1043.58 L2824.9,1043.58 L2806.26,1034.26 L2801.96,1029.95 L2801.96,1016.33 L2806.26,1016.33 L2819.88,1011.31 L2824.9,1011.31 L2842.83,997.683 L2842.83,984.058 L2842.83,979.755 L2834.23,961.826 L2819.88,961.826 L2811.28,970.432 L2811.28,979.755 L2811.28,984.058 L2792.63,993.381 L2774.7,1007.01 L2756.78,1020.63 L2751.76,1024.93 L2728.81,1020.63 L2720.2,1034.26 L2724.5,1038.56 L2720.2,1047.88 L2724.5,1061.51 L2715.18,1070.83 L2706.58,1070.83 L2692.95,1070.83 L2687.93,1070.83 L2678.61,1084.46 L2683.63,1093.06 L2664.98,1102.39 L2664.98,1116.01 L2674.3,1125.33 L2678.61,1125.33 L2692.95,1121.03 L2701.56,1125.33 L2715.18,1121.03 L2720.2,1121.03 L2733.83,1138.96 L2728.81,1143.26 L2724.5,1152.59 L2715.18,1152.59 L2706.58,1148.28 L2706.58,1152.59 L2692.95,1161.91 L2692.95,1170.52 L2678.61,1179.84 L2674.3,1179.84 L2674.3,1175.54 L2651.35,1189.16 L2647.05,1179.84 L2633.43,1175.54 L2629.12,1179.84 L2624.1,1175.54 L2615.5,1175.54 L2601.15,1175.54 L2596.85,1175.54 L2587.53,1189.16 L2587.53,1193.46 L2573.9,1207.09 L2569.6,1207.09 L2560.28,1225.02 L2565.3,1230.04 L2569.6,1234.34 L2583.23,1238.64 L2587.53,1216.41 L2601.15,1216.41 L2610.48,1211.39 L2615.5,1207.09 L2624.1,1211.39 L2633.43,1207.09 L2637.73,1207.09 L2656.37,1197.77 L2664.98,1202.79 L2674.3,1211.39 L2674.3,1216.41 L2664.98,1230.04 L2656.37,1230.04 L2651.35,1238.64 L2647.05,1238.64 L2637.73,1252.27 L2637.73,1257.29 L2619.8,1270.92 L2606.17,1279.52 L2596.85,1288.84 L2587.53,1288.84 L2578.92,1293.15 L2569.6,1293.15 L2560.28,1284.54 L2560.28,1270.92 L2546.65,1257.29 L2542.35,1252.27 L2538.05,1252.27 L2533.03,1238.64 L2528.72,1234.34 L2528.72,1216.41 L2538.05,1211.39 L2538.05,1207.09 L2542.35,1197.77 L2555.97,1193.46 L2560.28,1179.84 L2569.6,1161.91 L2555.97,1152.59 L2551.67,1152.59 L2546.65,1156.89 L2533.03,1156.89 L2528.72,1161.91 L2523.7,1161.91 L2510.08,1170.52 L2510.08,1175.54 L2496.45,1189.16 L2492.15,1189.16 L2492.15,1184.14 L2474.22,1184.14 L2469.2,1189.16 L2455.57,1189.16 L2446.25,1197.77 L2428.32,1193.46 L2428.32,1197.77 L2424.02,1197.77 L2414.7,1207.09 L2428.32,1230.04 L2432.63,1234.34 L2446.25,1243.66 L2455.57,1238.64 L2459.88,1252.27 L2446.25,1261.59 L2446.25,1270.92 L2432.63,1275.22 L2432.63,1279.52 L2441.95,1298.17 L2451.27,1298.17 L2459.88,1298.17 L2469.2,1298.17 L2478.52,1298.17 L2487.85,1293.15 L2482.83,1275.22 L2482.83,1261.59 L2492.15,1257.29 L2505.77,1261.59 L2510.08,1265.9 L2510.08,1270.92 L2523.7,1284.54 L2533.03,1288.84 L2538.05,1306.77 L2533.03,1311.79 L2533.03,1316.1 L2533.03,1329.72 L2533.03,1339.04 L2551.67,1347.65 L2565.3,1352.67 L2569.6,1352.67 L2578.92,1356.97 L2592.55,1356.97 L2610.48,1356.97 L2629.12,1361.99 L2629.12,1366.3 L2629.12,1375.62 L2606.17,1384.22 L2629.12,1397.85 L2637.73,1393.55 L2651.35,1384.22 L2656.37,1375.62 L2674.3,1366.3 L2678.61,1366.3 L2683.63,1370.6 L2692.95,1379.92 L2706.58,1393.55 L2715.18,1389.24 L2724.5,1393.55 L2724.5,1397.85 L2733.83,1407.17 L2733.83,1420.8 L2751.76,1425.1 L2756.78,1425.1 L2774.7,1430.12 L2774.7,1425.1 L2788.33,1425.1 L2797.65,1430.12 L2806.26,1430.12 L2811.28,1434.42 L2819.88,1438.73 L2834.23,1430.12 L2842.83,1430.12 L2852.16,1420.8 L2856.46,1425.1 L2861.48,1438.73 L2856.46,1443.75 L2861.48,1457.37 L2865.78,1457.37 L2870.08,1457.37 L2888.73,1475.3 L2888.73,1479.6 L2883.71,1488.93 L2870.08,1506.86 L2879.41,1520.48 L2883.71,1525.5 L2888.73,1539.13 L2883.71,1543.43 L2883.71,1557.06 L2875.1,1566.38 L2875.1,1580 L2883.71,1584.31 L2893.03,1602.24 L2888.73,1611.56 L2883.71,1616.58 L2861.48,1597.93 L2856.46,1597.93 L2847.85,1611.56 L2829.21,1593.63 L2819.88,1602.24 L2801.96,1588.61 L2788.33,1593.63 L2774.7,1588.61 L2761.08,1593.63 L2761.08,1611.56 L2742.43,1625.18 L2774.7,1643.83 L2770.4,1652.44 L2784.03,1675.38 L2784.03,1679.69 L2788.33,1706.94 L2788.33,1711.96 L2784.03,1725.58 L2774.7,1734.19 L2751.76,1725.58 L2728.81,1725.58 L2715.18,1716.26 L2710.88,1720.56 L2701.56,1734.19 L2678.61,1739.21 L2670,1761.44 L2651.35,1752.84 L2629.12,1780.09 L2619.8,1780.09 L2615.5,1775.07 L2615.5,1757.14 L2587.53,1747.82 L2569.6,1757.14 L2565.3,1747.82 L2538.05,1739.21 L2538.05,1734.19 L2505.77,1720.56 L2496.45,1725.58 L2487.85,1725.58 L2482.83,1716.26 L2455.57,1720.56 L2451.27,1720.56 L2428.32,1725.58 L2424.02,1743.51 L2401.07,1725.58 L2391.75,1734.19 L2373.82,1739.21 L2373.82,1752.84 L2350.87,1747.82 L2337.25,1766.46 L2337.25,1770.76 L2350.87,1784.39 L2337.25,1802.32 L2346.57,1811.64 L2346.57,1834.59 L2355.17,1834.59 L2368.8,1861.84 L2332.94,1856.82 L2341.55,1893.4 L2337.25,1916.34 L2314.3,1920.65 L2314.3,1939.29 L2300.67,1943.6 L2296.37,1939.29 L2282.74,1939.29 L2277.72,1939.29 L2264.1,1939.29 L2264.1,1943.6 L2264.1,1957.22 L2273.42,1966.54 L2282.74,1966.54 L2300.67,1966.54 L2304.97,1970.85 L2309.99,1970.85 L2318.6,1980.17 L2314.3,1993.8 L2291.35,1998.1 L2296.37,2016.03 L2273.42,2025.35 L2269.12,2052.6 L2259.79,2056.9 L2241.15,2043.28 L2213.9,2056.9 L2213.9,2075.55 L2223.22,2089.18 L2227.52,2107.1 L2232.54,2130.05 L2259.79,2130.05 L2264.1,2130.05 L2250.47,2161.61 L2246.17,2166.63 L2269.12,2184.56 L2259.79,2202.48 L2255.49,2202.48 L2241.15,2193.88 L2232.54,2225.43 L2227.52,2225.43 L2223.22,2225.43 L2205.29,2229.74 L2205.29,2239.06 L2195.97,2252.68 L2191.67,2252.68 L2178.04,2243.36 L2168.72,2248.38 L2155.09,2239.06 L2155.09,2234.76 L2141.47,2229.74 L2136.45,2225.43 L2132.14,2225.43 L2122.82,2207.5 L2127.84,2202.48 L2122.82,2188.86 L2127.84,2184.56 L2122.82,2175.23 L2104.89,2184.56 L2104.89,2188.86 L2091.27,2193.88 L2086.25,2193.88 L2072.62,2198.18 L2072.62,2202.48 L2064.01,2211.81 L2054.69,2225.43 L2045.37,2229.74 L2031.74,2216.11 L2045.37,2207.5 L2041.07,2188.86 L2036.76,2188.86 L2031.74,2188.86 L2018.12,2184.56 L2013.81,2188.86 L1990.87,2188.86 L1977.24,2184.56 L1972.94,2184.56 L1963.61,2180.25 L1967.92,2157.3 L1981.54,2153 L1986.56,2143.68 L1986.56,2134.36 L1981.54,2130.05 L1977.24,2120.73 L1963.61,2102.8 L1963.61,2093.48 L1972.94,2089.18 L1981.54,2089.18 L1995.17,2089.18 L2000.19,2084.16 L2013.81,2089.18 L2022.42,2084.16 L2022.42,2070.53 L2004.49,2066.23 L2004.49,2061.92 L1990.87,2048.3 L1986.56,2048.3 L1977.24,2034.67 L1967.92,2029.65 L1963.61,2029.65 L1954.29,2038.98 L1940.67,2056.9 L1931.34,2052.6 L1927.04,2048.3 L1931.34,2038.98 L1917.72,2029.65 L1922.74,2021.05 L1909.11,2011.72 L1917.72,1998.1 L1927.04,1984.47 L1931.34,1984.47 L1936.36,1980.17 L1949.99,1975.15 L1944.97,1961.52 L1954.29,1957.22 L1959.31,1943.6 L1963.61,1939.29 L1967.92,1939.29 L1981.54,1934.27 L1986.56,1920.65 L1977.24,1916.34 L1963.61,1916.34 L1949.99,1902.72 L1949.99,1893.4 L1936.36,1889.09 L1927.04,1889.09 L1922.74,1889.09 L1913.41,1875.47 L1922.74,1861.84 L1940.67,1861.84 L1944.97,1866.14 L1959.31,1871.16 L1963.61,1871.16 L1967.92,1856.82 L1967.92,1852.52 L1954.29,1834.59 L1949.99,1834.59 L1940.67,1829.57 L1927.04,1834.59 L1917.72,1829.57 L1909.11,1829.57 L1904.09,1852.52 L1886.16,1852.52 L1876.84,1843.2 L1876.84,1834.59 L1876.84,1825.27 L1863.21,1811.64 L1849.59,1811.64 L1845.29,1811.64 L1826.64,1802.32 L1826.64,1798.02 L1813.01,1798.02 L1803.69,1802.32 L1803.69,1807.34 L1818.03,1825.27 L1822.34,1825.27 L1826.64,1829.57 L1840.27,1829.57 L1840.27,1834.59 L1849.59,1843.2 L1845.29,1856.82 L1835.96,1861.84 L1826.64,1861.84 L1822.34,1856.82 L1808.71,1852.52 L1799.39,1838.89 L1795.09,1838.89 L1790.07,1838.89 L1785.76,1820.96 L1781.46,1815.94 L1776.44,1811.64 L1758.51,1802.32 L1754.21,1807.34 L1744.89,1807.34 L1735.56,1788.69 L1740.58,1784.39 L1735.56,1780.09 L1721.94,1770.76 L1704.01,1761.44 L1708.31,1752.84 L1704.01,1734.19 L1698.99,1729.89 L1694.69,1729.89 L1681.06,1734.19 L1676.76,1734.19 L1662.41,1716.26 L1658.11,1711.96 L1658.11,1702.64 L1653.81,1693.31 L1658.11,1679.69 L1658.11,1671.08 L1644.49,1666.06 L1640.18,1671.08 L1635.16,1675.38 L1635.16,1689.01 L1621.54,1702.64 L1612.93,1706.94 L1599.31,1702.64 L1594.29,1706.94 L1576.36,1702.64 L1571.34,1698.33 L1557.71,1702.64 L1539.78,1711.96 L1535.48,1706.94 L1521.85,1716.26 L1507.51,1711.96 L1507.51,1706.94 L1493.88,1693.31 L1475.96,1711.96 L1471.65,1693.31 L1471.65,1689.01 L1466.63,1675.38 L1466.63,1661.76 L1475.96,1652.44 L1471.65,1634.51 L1462.33,1634.51 L1453.01,1638.81 L1444.4,1652.44 L1439.38,1657.46 L1439.38,1666.06 L1435.08,1675.38 L1421.45,1671.08 L1416.43,1657.46 L1407.83,1657.46 L1398.5,1652.44 L1389.18,1652.44 L1380.58,1648.13 L1371.25,1652.44 L1352.61,1643.83 L1352.61,1638.81 L1357.63,1625.18 L1352.61,1620.88 L1361.93,1602.24 L1366.23,1602.24 L1375.56,1588.61 L1384.88,1588.61 L1407.83,1584.31 L1412.13,1580 L1407.83,1566.38 L1394.2,1561.36 L1389.18,1557.06 L1380.58,1552.75 L1380.58,1547.73 L1361.93,1534.11 L1357.63,1534.11 L1348.3,1529.8 L1334.68,1529.8 L1330.38,1534.11 L1330.38,1547.73 L1338.98,1557.06 L1338.98,1561.36 L1344,1570.68 L1348.3,1574.98 L1348.3,1593.63 L1344,1597.93 L1325.36,1593.63 L1325.36,1584.31 L1316.75,1574.98 L1311.73,1566.38 L1307.43,1557.06 L1307.43,1552.75 L1307.43,1543.43 L1293.8,1529.8 L1284.48,1520.48 L1293.8,1506.86 L1303.12,1506.86 M1435.08,1311.79 L1439.38,1316.1 L1439.38,1325.42 L1444.4,1329.72 L1435.08,1343.35 L1444.4,1352.67 L1458.03,1347.65 L1466.63,1334.02 L1466.63,1329.72 L1462.33,1316.1 L1462.33,1311.79 L1458.03,1288.84 L1453.01,1288.84 L1439.38,1293.15 L1435.08,1298.17 L1435.08,1311.79 M1539.78,1347.65 L1539.78,1366.3 L1539.78,1370.6 L1544.09,1375.62 L1557.71,1375.62 L1562.73,1375.62 L1576.36,1375.62 L1584.96,1379.92 L1603.61,1370.6 L1607.91,1366.3 L1603.61,1356.97 L1607.91,1347.65 L1617.23,1347.65 L1626.56,1347.65 L1640.18,1343.35 L1644.49,1325.42 L1635.16,1320.4 L1621.54,1325.42 L1617.23,1320.4 L1599.31,1320.4 L1599.31,1316.1 L1584.96,1311.79 L1580.66,1311.79 L1580.66,1329.72 L1567.03,1334.02 L1562.73,1343.35 L1557.71,1343.35 L1539.78,1347.65 M1826.64,520.783 L1831.66,502.137 L1822.34,497.834 L1785.76,502.137 L1781.46,502.137 L1813.01,525.086 L1826.64,520.783 M2163.7,1975.15 L2186.65,1980.17 L2191.67,1984.47 L2195.97,1984.47 L2209.59,1970.85 L2195.97,1957.22 L2191.67,1952.92 L2178.04,1947.9 L2173.02,1947.9 L2163.7,1943.6 L2150.07,1947.9 L2150.07,1966.54 L2155.09,1970.85 L2163.7,1975.15 M2701.56,824.852 L2706.58,829.872 L2720.2,829.872 L2724.5,829.872 L2742.43,824.852 L2747.45,811.226 L2728.81,797.6 L2724.5,802.62 L2720.2,797.6 L2706.58,802.62 L2701.56,811.226 L2701.56,824.852 M2728.81,956.806 L2738.13,961.826 L2742.43,970.432 L2756.78,975.452 L2761.08,984.058 L2784.03,979.755 L2784.03,970.432 L2779.01,961.826 L2765.38,956.806 L2761.08,952.503 L2747.45,948.2 L2747.45,943.18 L2733.83,934.575 L2724.5,938.878 L2724.5,943.18 L2728.81,956.806 M2715.18,611.86 L2710.88,616.163 L2706.58,625.486 L2720.2,643.414 L2724.5,643.414 L2738.13,657.04 L2738.13,661.343 L2742.43,666.363 L2761.08,666.363 L2765.38,661.343 L2788.33,657.04 L2801.96,661.343 L2801.96,666.363 L2792.63,679.989 L2784.03,688.594 L2784.03,697.917 L2784.03,711.543 L2784.03,729.472 L2797.65,734.492 L2801.96,738.794 L2806.26,743.097 L2811.28,738.794 L2819.88,729.472 L2829.21,734.492 L2838.53,715.846 L2847.85,725.169 L2856.46,711.543 L2870.08,711.543 L2875.1,702.22 L2883.71,697.917 L2883.71,688.594 L2888.73,679.989 L2875.1,670.666 L2865.78,670.666 L2847.85,670.666 L2847.85,666.363 L2838.53,661.343 L2838.53,657.04 L2829.21,643.414 L2838.53,625.486 L2834.23,625.486 L2829.21,606.84 L2815.58,606.84 L2811.28,611.86 L2792.63,611.86 L2788.33,611.86 L2774.7,602.537 L2770.4,602.537 L2765.38,606.84 L2751.76,606.84 L2742.43,606.84 L2733.83,606.84 L2720.2,611.86 L2715.18,611.86 M2784.03,943.18 L2792.63,934.575 L2788.33,920.949 L2784.03,902.303 L2788.33,898 L2784.03,884.375 L2770.4,880.072 L2765.38,884.375 L2761.08,898 L2765.38,902.303 L2761.08,920.949 L2765.38,925.252 L2770.4,938.878 L2784.03,943.18 M2756.78,783.975 L2765.38,797.6 L2770.4,797.6 L2784.03,788.995 L2784.03,770.349 L2770.4,770.349 L2756.78,775.369 L2756.78,783.975" vector-effect="none"/>
   <path fill-rule="evenodd" d="M1535.48,775.369 L1539.78,775.369 L1553.41,766.046 L1553.41,752.42 L1553.41,734.492 L1553.41,715.846 L1562.73,711.543 L1571.34,715.846 L1580.66,725.169 L1576.36,738.794 L1576.36,756.723 L1576.36,770.349 L1571.34,775.369 L1567.03,775.369 L1557.71,788.995 L1557.71,793.297 L1567.03,802.62 L1567.03,816.246 L1576.36,820.549 L1571.34,838.477 L1580.66,838.477 L1580.66,852.103 L1571.34,857.123 L1562.73,852.103 L1557.71,847.8 L1553.41,838.477 L1553.41,824.852 L1544.09,802.62 L1539.78,802.62 L1530.46,783.975 L1535.48,775.369" vector-effect="none"/>
   <path fill-rule="evenodd" d="M1034.2,1075.13 L1024.87,1061.51 L1038.5,1047.88 L1047.82,1052.19 L1056.43,1043.58 L1065.75,1052.19 L1079.38,1043.58 L1084.4,1047.88 L1098.02,1043.58 L1106.63,1047.88 L1106.63,1043.58 L1120.25,1047.88 L1120.25,1065.81 L1133.88,1075.13 L1133.88,1079.44 L1138.9,1084.46 L1133.88,1093.06 L1125.27,1102.39 L1111.65,1102.39 L1106.63,1093.06 L1111.65,1084.46 L1102.32,1070.83 L1098.02,1070.83 L1084.4,1065.81 L1070.05,1070.83 L1065.75,1070.83 L1047.82,1075.13 L1034.2,1075.13" vector-effect="none"/>
   <path fill-rule="evenodd" d="M1006.94,1098.08 L1024.87,1093.06 L1024.87,1088.76 L1038.5,1098.08 L1052.12,1093.06 L1061.45,1102.39 L1052.12,1116.01 L1061.45,1129.64 L1052.12,1138.96 L1034.2,1129.64 L1029.18,1129.64 L1020.57,1125.33 L1015.55,1121.03 L1011.25,1116.01 L1001.92,1106.69 L1006.94,1098.08" vector-effect="none"/>
   <path fill-rule="evenodd" d="M1640.18,811.226 L1635.16,824.852 L1612.93,824.852 L1607.91,811.226 L1594.29,806.923 L1589.98,797.6 L1594.29,783.975 L1607.91,779.672 L1612.93,779.672 L1630.86,788.995 L1630.86,793.297 L1630.86,797.6 L1640.18,811.226" vector-effect="none"/>
   <path fill-rule="evenodd" d="M728.693,852.103 L715.067,852.103 L705.744,838.477 L701.441,838.477 L701.441,834.175 L701.441,816.246 L710.047,811.226 L724.39,820.549 L728.693,816.246 L738.015,834.175 L738.015,838.477 L728.693,852.103" vector-effect="none"/>
   <path fill-rule="evenodd" d="M2733.83,1207.09 L2720.2,1197.77 L2710.88,1202.79 L2697.25,1197.77 L2701.56,1179.84 L2710.88,1175.54 L2724.5,1184.14 L2728.81,1179.84 L2742.43,1184.14 L2742.43,1197.77 L2733.83,1207.09" vector-effect="none"/>
   <path fill-rule="evenodd" d="M869.97,1043.58 L869.97,1024.93 L887.899,1016.33 L892.919,1020.63 L897.221,1034.26 L892.919,1043.58 L887.899,1047.88 L883.596,1052.19 L869.97,1043.58" vector-effect="none"/>
   <path fill-rule="evenodd" d="M892.919,1088.76 L901.524,1079.44 L915.15,1075.13 L924.473,1079.44 L924.473,1102.39 L901.524,1102.39 L892.919,1093.06 L892.919,1088.76" vector-effect="none"/>
   <path fill-rule="evenodd" d="M1580.66,966.129 L1571.34,975.452 L1557.71,966.129 L1553.41,966.129 L1562.73,952.503 L1576.36,952.503 L1580.66,966.129" vector-effect="none"/>
   <path fill-rule="evenodd" d="M2118.52,2279.94 L2118.52,2262.01 L2122.82,2252.68 L2136.45,2252.68 L2141.47,2256.99 L2141.47,2275.63 L2132.14,2279.94 L2118.52,2279.94" vector-effect="none"/>
   <path fill-rule="evenodd" d="M3481.09,693.614 L3485.39,702.22 L3476.07,711.543 L3467.46,711.543 L3462.44,697.917 L3471.77,688.594 L3481.09,693.614" vector-effect="none"/>
   <path fill-rule="evenodd" d="M1020.57,1011.31 L1029.18,1011.31 L1038.5,1016.33 L1038.5,1029.95 L1034.2,1034.26 L1020.57,1034.26 L1015.55,1029.95 L1020.57,1011.31" vector-effect="none"/>
   <path fill-rule="evenodd" d="M3134.71,802.62 L3130.41,811.226 L3111.76,806.923 L3125.39,797.6 L3134.71,802.62" vector-effect="none"/>
  </g>
  <g stroke-linejoin="bevel" transform="matrix(0.999751,0,0,0.999751,0,0)" font-weight="400" font-style="normal" fill="none" stroke="#000000" stroke-width="1" stroke-linecap="square" font-size="32.5" font-family="MS Shell Dlg 2" stroke-opacity="1"/>
  <g stroke-linejoin="bevel" transform="matrix(11.8081,0,0,11.8081,0,0)" font-weight="400" font-style="normal" fill="none" stroke="#000000" stroke-width="1" stroke-linecap="square" font-size="32.5" font-family="MS Shell Dlg 2" stroke-opacity="1"/>
  <g stroke-linejoin="bevel" transform="matrix(11.8081,0,0,11.8081,0,0)" font-weight="400" font-style="normal" fill="none" stroke="#000000" stroke-width="1" stroke-linecap="square" font-size="32.5" font-family="MS Shell Dlg 2" stroke-opacity="1"/>
  <g stroke-linejoin="bevel" transform="matrix(11.8081,0,0,11.8081,0,0)" font-weight="400" font-style="normal" fill="none" stroke="#000000" stroke-width="1" stroke-linecap="square" font-size="32.5" font-family="MS Shell Dlg 2" stroke-opacity="1"/>
  <g stroke-linejoin="bevel" transform="matrix(1,0,0,1,0,0)" font-weight="400" font-style="normal" fill="none" stroke="#000000" stroke-width="1" stroke-linecap="square" font-size="32.5" font-family="MS Shell Dlg 2" stroke-opacity="1"/>
  <g stroke-linejoin="bevel" transform="matrix(11.8081,0,0,11.8081,0,0)" font-weight="400" font-style="normal" fill="none" stroke="#000000" stroke-width="1" stroke-linecap="square" font-size="32.5" font-family="MS Shell Dlg 2" stroke-opacity="1"/>
  <g stroke-linejoin="bevel" transform="matrix(11.8081,0,0,11.8081,0,0)" font-weight="400" font-style="normal" fill="none" stroke="#000000" stroke-width="1" stroke-linecap="square" font-size="32.5" font-family="MS Shell Dlg 2" stroke-opacity="1"/>
  <g stroke-linejoin="bevel" transform="matrix(1,0,0,1,0,0)" font-weight="400" font-style="normal" fill="none" stroke="#000000" stroke-width="1" stroke-linecap="square" font-size="32.5" font-family="MS Shell Dlg 2" stroke-opacity="1"/>
 </g>
 <defs/>
 <g stroke-linejoin="bevel" inkscape:label="Map 1: WodensMarshLand (Labels)" inkscape:groupmode="layer" fill="none" stroke="black" fill-rule="evenodd" stroke-width="1" stroke-linecap="square" id="Map 1: WodensMarshLand (Labels)">
  <g stroke-linejoin="bevel" transform="matrix(1,0,0,1,0,0)" font-weight="400" font-style="normal" fill="none" stroke="#000000" stroke-width="1" stroke-linecap="square" font-size="32.5" font-family="MS Shell Dlg 2" stroke-opacity="1"/>
  <g stroke-linejoin="bevel" transform="matrix(1,0,0,1,0,0)" font-weight="400" font-style="normal" fill="none" stroke="#000000" stroke-width="1" stroke-linecap="square" font-size="32.5" font-family="MS Shell Dlg 2" stroke-opacity="1"/>
  <g stroke-linejoin="bevel" transform="matrix(11.8081,0,0,11.8081,0,0)" font-weight="400" font-style="normal" fill="none" stroke="#000000" stroke-width="1" stroke-linecap="square" font-size="32.5" font-family="MS Shell Dlg 2" stroke-opacity="1"/>
  <g stroke-linejoin="bevel" transform="matrix(11.8081,0,0,11.8081,0,0)" font-weight="400" font-style="normal" fill="none" stroke="#000000" stroke-width="1" stroke-linecap="square" font-size="32.5" font-family="MS Shell Dlg 2" stroke-opacity="1"/>
  <g transform="matrix(0.999751,0,0,0.999751,0,0)" font-weight="400" font-style="normal" fill="#000000" stroke="none" fill-opacity="0" font-size="32.5" font-family="MS Shell Dlg 2">
   <rect height="2480" x="0" width="3508" y="0"/>
  </g>
  <g stroke-linejoin="bevel" transform="matrix(0.999751,0,0,0.999751,0,0)" font-weight="400" font-style="normal" fill="none" stroke="#000000" stroke-width="1" stroke-linecap="square" font-size="32.5" font-family="MS Shell Dlg 2" stroke-opacity="1"/>
  <g stroke-linejoin="bevel" transform="matrix(0.3999,0,0,0.3999,1972.99,1208.07)" font-weight="400" font-style="normal" fill="none" stroke="#000000" stroke-width="1" stroke-linecap="square" font-size="32.5" font-family="MS Shell Dlg 2" stroke-opacity="1"/>
  <g transform="matrix(0.999751,0,0,0.999751,1972.99,1208.07)" font-weight="400" font-style="normal" fill="#323232" stroke="none" fill-opacity="1" font-size="32.5" font-family="MS Shell Dlg 2">
   <path fill-rule="nonzero" d="M15.666,0.168 C14.322,0.056 12.908,0 11.424,0 C9.94,0 8.764,0.056 7.896,0.168 L7.728,-0.42 C8.064,-0.532 8.386,-0.707 8.694,-0.945 C9.002,-1.183 9.156,-1.442 9.156,-1.722 C9.156,-3.766 7.294,-10.598 3.57,-22.218 C3.234,-23.282 2.898,-24.22 2.562,-25.032 C-0.714,-25.032 -2.814,-24.584 -3.738,-23.688 C-3.934,-23.296 -4.032,-22.68 -4.032,-21.84 C-4.032,-21 -3.892,-20.426 -3.612,-20.118 L-3.654,-19.824 C-4.354,-19.404 -5.054,-18.816 -5.754,-18.06 C-6.09,-18.088 -6.363,-18.228 -6.573,-18.48 C-6.783,-18.732 -6.888,-19.026 -6.888,-19.362 C-6.888,-20.734 -6.062,-22.372 -4.41,-24.276 C-2.758,-26.18 -1.218,-27.384 0.21,-27.888 C0.434,-27.888 1.442,-27.797 3.234,-27.615 C5.026,-27.433 6.454,-27.342 7.518,-27.342 L12.432,-27.342 C18.48,-27.342 22.862,-27.482 25.578,-27.762 L25.746,-26.712 C24.514,-26.32 23.17,-25.998 21.714,-25.746 C21.854,-24.766 21.924,-23.877 21.924,-23.079 C21.924,-22.281 21.812,-21.28 21.588,-20.076 C22.652,-15.316 24.332,-9.59 26.628,-2.898 C28.7,-8.134 30.065,-12.103 30.723,-14.805 C31.381,-17.507 31.71,-19.824 31.71,-21.756 C31.71,-24.388 31.01,-26.11 29.61,-26.922 L29.778,-27.51 C30.646,-27.398 32.039,-27.342 33.957,-27.342 C35.875,-27.342 37.66,-27.454 39.312,-27.678 L39.48,-26.628 C38.22,-26.236 36.876,-25.942 35.448,-25.746 C35.588,-24.766 35.658,-23.954 35.658,-23.31 C35.658,-20.958 35.077,-18.256 33.915,-15.204 C32.753,-12.152 30.646,-7.56 27.594,-1.428 C28.07,-1.176 28.714,-0.938 29.526,-0.714 L29.4,0.168 C28.056,0.056 26.642,0 25.158,0 C23.674,0 22.498,0.056 21.63,0.168 L21.462,-0.42 C21.798,-0.532 22.12,-0.707 22.428,-0.945 C22.736,-1.183 22.89,-1.442 22.89,-1.722 C22.89,-3.374 21.896,-7.56 19.908,-14.28 L19.74,-14.28 C18.424,-10.892 16.464,-6.608 13.86,-1.428 C14.336,-1.176 14.98,-0.938 15.792,-0.714 L15.666,0.168 M12.894,-2.898 C14.966,-8.134 16.331,-12.103 16.989,-14.805 C17.647,-17.507 17.976,-19.817 17.976,-21.735 C17.976,-23.653 17.626,-24.899 16.926,-25.473 C16.226,-26.047 14.791,-26.334 12.621,-26.334 C10.451,-26.334 8.54,-26.082 6.888,-25.578 C7.14,-23.282 7.861,-19.88 9.051,-15.372 C10.241,-10.864 11.522,-6.706 12.894,-2.898 M49.046,0.504 C46.274,0.504 44.034,-0.371 42.326,-2.121 C40.618,-3.871 39.764,-6.216 39.764,-9.156 C39.764,-12.096 40.66,-14.854 42.452,-17.43 C44.244,-20.006 46.582,-21.658 49.466,-22.386 C52.35,-22.386 54.548,-21.567 56.06,-19.929 C57.572,-18.291 58.328,-15.96 58.328,-12.936 C58.328,-9.912 57.509,-7.182 55.871,-4.746 C54.233,-2.31 51.958,-0.56 49.046,0.504 M48.332,-19.824 C47.072,-19.824 45.98,-19.474 45.056,-18.774 C43.908,-16.814 43.334,-14.35 43.334,-11.382 C43.334,-7.966 44.286,-5.348 46.19,-3.528 C47.198,-2.548 48.388,-2.058 49.76,-2.058 C51.132,-2.058 52.238,-2.422 53.078,-3.15 C54.198,-5.11 54.758,-7.504 54.758,-10.332 C54.758,-13.16 54.254,-15.449 53.246,-17.199 C52.238,-18.949 50.6,-19.824 48.332,-19.824 M61.512,-21.798 L71.172,-22.092 C74.364,-22.092 76.821,-21.336 78.543,-19.824 C80.265,-18.312 81.126,-16.051 81.126,-13.041 C81.126,-10.031 80.181,-7.224 78.291,-4.62 C76.401,-2.016 74.056,-0.308 71.256,0.504 C70.528,0.504 69.583,0.371 68.421,0.105 C67.259,-0.161 66.3,-0.448 65.544,-0.756 C65.236,-0.392 64.956,0.126 64.704,0.798 L63.822,0.588 C64.354,-1.904 64.62,-5.425 64.62,-9.975 C64.62,-14.525 64.494,-17.934 64.242,-20.202 C63.29,-20.566 62.38,-20.748 61.512,-20.748 L61.512,-21.798 M75.96,-17.598 C75.456,-18.55 74.749,-19.292 73.839,-19.824 C72.929,-20.356 71.935,-20.622 70.857,-20.622 C69.779,-20.622 68.848,-20.468 68.064,-20.16 C67.868,-18.34 67.77,-15.435 67.77,-11.445 C67.77,-7.455 67.826,-4.69 67.938,-3.15 C69.338,-2.506 70.773,-2.184 72.243,-2.184 C73.713,-2.184 74.882,-2.562 75.75,-3.318 C76.814,-5.334 77.346,-7.812 77.346,-10.752 C77.346,-13.496 76.884,-15.778 75.96,-17.598 M88.502,-10.374 C88.586,-7.882 89.048,-5.936 89.888,-4.536 C90.728,-3.136 92.156,-2.436 94.172,-2.436 C96.188,-2.436 98.05,-3.29 99.758,-4.998 L100.346,-4.41 C98.47,-2.03 96.216,-0.392 93.584,0.504 C90.868,0.504 88.74,-0.357 87.2,-2.079 C85.66,-3.801 84.89,-6.125 84.89,-9.051 C84.89,-11.977 85.8,-14.728 87.62,-17.304 C89.44,-19.88 91.764,-21.574 94.592,-22.386 C96.636,-22.386 98.946,-22.176 101.522,-21.756 L101.48,-20.832 C100.948,-20.832 100.444,-20.734 99.968,-20.538 C99.436,-19.278 99.086,-17.78 98.918,-16.044 L97.868,-16.044 C97.644,-16.996 97.532,-17.976 97.532,-18.984 C96.468,-19.516 95.208,-19.782 93.752,-19.782 C92.296,-19.782 91.092,-19.39 90.14,-18.606 C89.188,-16.87 88.642,-14.798 88.502,-12.39 C89.678,-12.194 90.938,-12.096 92.282,-12.096 C94.606,-12.096 96.006,-12.586 96.482,-13.566 L97.364,-13.44 C97.112,-12.6 96.986,-11.774 96.986,-10.962 C96.986,-10.15 97.084,-9.156 97.28,-7.98 L96.272,-7.812 C95.964,-8.652 95.74,-9.52 95.6,-10.416 C94.48,-10.528 93.367,-10.584 92.261,-10.584 C91.155,-10.584 89.902,-10.514 88.502,-10.374 M113.928,0.294 C112.472,0.098 110.841,0 109.035,0 C107.229,0 105.612,0.112 104.184,0.336 L104.016,-0.756 C104.912,-1.036 105.752,-1.246 106.536,-1.386 C106.788,-3.57 106.914,-6.426 106.914,-9.954 L106.914,-11.928 C106.914,-15.68 106.774,-18.564 106.494,-20.58 C105.738,-20.664 104.828,-20.888 103.764,-21.252 L103.89,-22.344 C105.486,-22.036 107.159,-21.882 108.909,-21.882 C110.659,-21.882 111.912,-21.98 112.668,-22.176 L112.752,-21.462 C111.996,-21.266 111.618,-20.944 111.618,-20.496 C111.618,-20.16 111.947,-19.453 112.605,-18.375 C113.263,-17.297 113.9,-16.254 114.516,-15.246 C116.364,-12.306 118.548,-8.694 121.068,-4.41 L121.194,-4.494 L121.194,-9.618 C121.194,-13.37 120.998,-16.191 120.606,-18.081 C120.214,-19.971 119.542,-21.07 118.59,-21.378 L118.674,-22.092 C119.402,-21.952 120.494,-21.882 121.95,-21.882 C123.406,-21.882 124.904,-22.036 126.444,-22.344 L126.57,-21.252 C125.422,-20.888 124.456,-20.664 123.672,-20.58 C123.392,-18.34 123.252,-15.456 123.252,-11.928 L123.252,-9.954 C123.252,-5.698 123.392,-2.814 123.672,-1.302 C124.848,-1.106 125.786,-0.882 126.486,-0.63 L126.36,0.462 C124.96,0.154 123.644,0 122.412,0 C121.18,0 120.228,0.056 119.556,0.168 C119.556,-0.448 119.129,-1.484 118.275,-2.94 C117.421,-4.396 116.644,-5.684 115.944,-6.804 C113.676,-10.472 111.45,-14.196 109.266,-17.976 L109.098,-17.892 L109.098,-12.264 C109.098,-6.692 109.518,-3.066 110.358,-1.386 C111.618,-1.246 112.85,-1.036 114.054,-0.756 L113.928,0.294 M130.646,-27.258 C130.982,-27.426 131.486,-27.587 132.158,-27.741 C132.83,-27.895 133.271,-27.972 133.481,-27.972 C133.691,-27.972 133.824,-27.972 133.88,-27.972 L134.384,-27.426 C133.516,-25.186 132.872,-22.12 132.452,-18.228 L131.192,-18.144 L130.646,-27.258 M140.662,-3.192 C141.95,-2.66 143.224,-2.394 144.484,-2.394 C145.744,-2.394 146.752,-2.688 147.508,-3.276 C148.264,-3.864 148.642,-4.704 148.642,-5.796 C148.642,-6.916 147.06,-8.302 143.896,-9.954 C142.692,-10.57 141.593,-11.319 140.599,-12.201 C139.605,-13.083 139.108,-13.958 139.108,-14.826 C139.108,-16.31 139.892,-17.808 141.46,-19.32 C143.028,-20.832 144.638,-21.854 146.29,-22.386 C148.362,-22.386 150.238,-22.176 151.918,-21.756 L151.918,-21 C150.742,-19.824 150.084,-18.214 149.944,-16.17 L148.894,-16.17 C148.894,-16.954 148.824,-17.934 148.684,-19.11 C147.704,-19.558 146.654,-19.782 145.534,-19.782 C144.414,-19.782 143.483,-19.537 142.741,-19.047 C141.999,-18.557 141.628,-17.85 141.628,-16.926 C141.628,-16.282 142.125,-15.582 143.119,-14.826 C144.113,-14.07 145.198,-13.398 146.374,-12.81 C147.55,-12.222 148.635,-11.494 149.629,-10.626 C150.623,-9.758 151.12,-8.89 151.12,-8.022 C151.12,-6.342 150.378,-4.669 148.894,-3.003 C147.41,-1.337 145.772,-0.168 143.98,0.504 C142.216,0.504 140.564,0.294 139.024,-0.126 C138.576,0.07 138.114,0.392 137.638,0.84 L136.882,0.294 C138.45,-1.414 139.318,-3.528 139.486,-6.048 L140.536,-6.048 C140.536,-5.068 140.578,-4.116 140.662,-3.192 M175.65,-25.242 C175.65,-23.478 176.742,-19.194 178.926,-12.39 L180.27,-8.19 L180.564,-8.274 C180.592,-8.862 182.328,-14.63 185.772,-25.578 C185.772,-25.858 185.618,-26.131 185.31,-26.397 C185.002,-26.663 184.68,-26.838 184.344,-26.922 L184.47,-27.51 C185.87,-27.398 187.788,-27.342 190.224,-27.342 C192.66,-27.342 194.606,-27.454 196.062,-27.678 L196.272,-26.628 C194.928,-26.208 193.57,-25.914 192.198,-25.746 C192.058,-25.074 191.988,-23.877 191.988,-22.155 C191.988,-20.433 192.219,-16.982 192.681,-11.802 C193.143,-6.622 193.57,-3.178 193.962,-1.47 C195.446,-1.33 196.986,-1.064 198.582,-0.672 L198.456,0.336 C196.384,0.112 194.144,0 191.736,0 C189.328,0 187.382,0.112 185.898,0.336 L185.73,-0.714 C186.99,-1.106 188.334,-1.4 189.762,-1.596 C189.762,-4.256 189.608,-7.924 189.3,-12.6 C188.992,-17.276 188.6,-21.28 188.124,-24.612 L187.998,-24.654 C183.994,-13.566 181.894,-6.818 181.698,-4.41 C179.878,-3.318 178.52,-2.254 177.624,-1.218 L177.12,-1.554 C177.176,-2.17 177.204,-2.632 177.204,-2.94 C177.204,-6.216 175.37,-13.454 171.702,-24.654 L171.534,-24.612 L170.232,-15.414 C169.672,-11.41 169.392,-7.798 169.392,-4.578 C169.392,-3.542 169.511,-2.688 169.749,-2.016 C169.987,-1.344 170.47,-0.812 171.198,-0.42 L171.03,0.168 C170.162,0.056 168.685,0 166.599,0 C164.513,0 162.644,0.112 160.992,0.336 L160.824,-0.714 C162.084,-1.106 163.428,-1.4 164.856,-1.596 L169.56,-25.032 C166.256,-25.032 164.142,-24.584 163.218,-23.688 C163.022,-23.296 162.924,-22.68 162.924,-21.84 C162.924,-21 163.064,-20.426 163.344,-20.118 L163.302,-19.824 C162.602,-19.404 161.902,-18.816 161.202,-18.06 C160.866,-18.088 160.593,-18.228 160.383,-18.48 C160.173,-18.732 160.068,-19.026 160.068,-19.362 C160.068,-20.734 160.894,-22.372 162.546,-24.276 C164.198,-26.18 165.738,-27.384 167.166,-27.888 C167.39,-27.888 168.398,-27.797 170.19,-27.615 C171.982,-27.433 173.375,-27.342 174.369,-27.342 C175.363,-27.342 176.308,-27.426 177.204,-27.594 L177.372,-26.544 C176.224,-26.096 175.65,-25.662 175.65,-25.242 M202.536,-22.344 C205.168,-22.036 207.828,-21.882 210.516,-21.882 C213.204,-21.882 215.85,-22.036 218.454,-22.344 L218.622,-21.252 C217.782,-20.916 216.914,-20.664 216.018,-20.496 C215.71,-18.2 215.556,-15.008 215.556,-10.92 C215.556,-6.832 215.71,-3.64 216.018,-1.344 C216.578,-1.26 217.614,-1.05 219.126,-0.714 L218.958,0.336 C217.614,0.112 215.892,0 213.792,0 C211.692,0 210.082,0.112 208.962,0.336 L208.794,-0.756 C209.746,-1.064 210.824,-1.288 212.028,-1.428 C212.196,-3.052 212.322,-5.306 212.406,-8.19 C211.09,-8.33 209.774,-8.4 208.458,-8.4 C207.142,-8.4 205.994,-8.33 205.014,-8.19 C204.454,-5.894 204.174,-4.298 204.174,-3.402 C204.174,-2.03 204.664,-1.064 205.644,-0.504 L205.476,0.21 C204.832,0.07 203.614,0 201.822,0 C200.03,0 198.616,0.112 197.58,0.336 L197.412,-0.756 C198.084,-1.008 199.008,-1.232 200.184,-1.428 L205.644,-20.58 C204.412,-20.776 203.334,-21 202.41,-21.252 L202.536,-22.344 M205.35,-10.164 C206.442,-9.996 207.653,-9.912 208.983,-9.912 C210.313,-9.912 211.454,-9.996 212.406,-10.164 C212.406,-15.344 212.294,-18.69 212.07,-20.202 C211.118,-20.258 210.411,-20.286 209.949,-20.286 C209.487,-20.286 208.78,-20.258 207.828,-20.202 L205.35,-10.164 M221.806,-21.798 L231.466,-22.092 C233.986,-22.092 235.876,-21.721 237.136,-20.979 C238.396,-20.237 239.026,-18.886 239.026,-16.926 C239.026,-15.582 238.613,-14.392 237.787,-13.356 C236.961,-12.32 235.876,-11.55 234.532,-11.046 L239.236,-1.428 C240.188,-1.26 241.084,-1.064 241.924,-0.84 L241.756,0.294 C240.58,0.098 239.257,0 237.787,0 C236.317,0 235.162,0.07 234.322,0.21 L234.154,-0.462 C234.518,-0.826 234.7,-1.428 234.7,-2.268 C234.7,-3.976 233.72,-6.72 231.76,-10.5 C231.172,-10.612 230.486,-10.668 229.702,-10.668 L229.786,-11.886 L230.206,-11.886 C233.51,-11.886 235.162,-13.398 235.162,-16.422 C235.162,-19.222 233.748,-20.622 230.92,-20.622 C229.968,-20.622 229.114,-20.468 228.358,-20.16 C228.162,-18.312 228.064,-15.148 228.064,-10.668 C228.064,-6.188 228.19,-3.094 228.442,-1.386 C229.674,-1.246 230.822,-1.036 231.886,-0.756 L231.76,0.294 C230.304,0.098 228.673,0 226.867,0 C225.061,0 223.444,0.112 222.016,0.336 L221.848,-0.756 C222.632,-1.008 223.514,-1.218 224.494,-1.386 C224.774,-3.486 224.914,-6.755 224.914,-11.193 C224.914,-15.631 224.788,-18.704 224.536,-20.412 C223.444,-20.776 222.534,-20.958 221.806,-20.958 L221.806,-21.798 M246.662,-3.192 C247.95,-2.66 249.224,-2.394 250.484,-2.394 C251.744,-2.394 252.752,-2.688 253.508,-3.276 C254.264,-3.864 254.642,-4.704 254.642,-5.796 C254.642,-6.916 253.06,-8.302 249.896,-9.954 C248.692,-10.57 247.593,-11.319 246.599,-12.201 C245.605,-13.083 245.108,-13.958 245.108,-14.826 C245.108,-16.31 245.892,-17.808 247.46,-19.32 C249.028,-20.832 250.638,-21.854 252.29,-22.386 C254.362,-22.386 256.238,-22.176 257.918,-21.756 L257.918,-21 C256.742,-19.824 256.084,-18.214 255.944,-16.17 L254.894,-16.17 C254.894,-16.954 254.824,-17.934 254.684,-19.11 C253.704,-19.558 252.654,-19.782 251.534,-19.782 C250.414,-19.782 249.483,-19.537 248.741,-19.047 C247.999,-18.557 247.628,-17.85 247.628,-16.926 C247.628,-16.282 248.125,-15.582 249.119,-14.826 C250.113,-14.07 251.198,-13.398 252.374,-12.81 C253.55,-12.222 254.635,-11.494 255.629,-10.626 C256.623,-9.758 257.12,-8.89 257.12,-8.022 C257.12,-6.342 256.378,-4.669 254.894,-3.003 C253.41,-1.337 251.772,-0.168 249.98,0.504 C248.216,0.504 246.564,0.294 245.024,-0.126 C244.576,0.07 244.114,0.392 243.638,0.84 L242.882,0.294 C244.45,-1.414 245.318,-3.528 245.486,-6.048 L246.536,-6.048 C246.536,-5.068 246.578,-4.116 246.662,-3.192 M275.078,-22.218 C276.506,-21.994 278.123,-21.882 279.929,-21.882 C281.735,-21.882 283.366,-21.98 284.822,-22.176 L284.948,-21.126 C283.884,-20.846 282.722,-20.636 281.462,-20.496 C281.182,-18.76 281.042,-15.904 281.042,-11.928 L281.042,-9.954 C281.042,-5.922 281.182,-3.066 281.462,-1.386 C282.722,-1.246 283.884,-1.036 284.948,-0.756 L284.822,0.294 C283.366,0.098 281.735,0 279.929,0 C278.123,0 276.506,0.112 275.078,0.336 L274.91,-0.756 C275.694,-1.008 276.576,-1.218 277.556,-1.386 C277.78,-4.55 277.906,-7.714 277.934,-10.878 C276.142,-11.046 274.49,-11.13 272.978,-11.13 C271.466,-11.13 269.828,-11.046 268.064,-10.878 C268.064,-6.258 268.19,-3.094 268.442,-1.386 C269.702,-1.246 270.864,-1.036 271.928,-0.756 L271.802,0.294 C270.346,0.098 268.715,0 266.909,0 C265.103,0 263.486,0.112 262.058,0.336 L261.89,-0.756 C262.674,-1.008 263.556,-1.218 264.536,-1.386 C264.788,-3.402 264.914,-6.258 264.914,-9.954 L264.914,-11.928 C264.914,-15.624 264.774,-18.48 264.494,-20.496 C263.514,-20.664 262.632,-20.874 261.848,-21.126 L262.016,-22.218 C263.444,-21.994 265.061,-21.882 266.867,-21.882 C268.673,-21.882 270.304,-21.98 271.76,-22.176 L271.886,-21.126 C270.822,-20.846 269.66,-20.636 268.4,-20.496 C268.176,-18.872 268.064,-16.366 268.064,-12.978 C269.632,-12.754 271.319,-12.642 273.125,-12.642 C274.931,-12.642 276.534,-12.74 277.934,-12.936 C277.906,-15.316 277.78,-17.836 277.556,-20.496 C276.576,-20.664 275.694,-20.874 274.91,-21.126 L275.078,-22.218" vector-effect="none"/>
  </g>
  <g stroke-linejoin="bevel" transform="matrix(0.3999,0,0,0.3999,1972.99,1208.07)" font-weight="400" font-style="normal" fill="none" stroke="#000000" stroke-width="1" stroke-linecap="square" font-size="32.5" font-family="MS Shell Dlg 2" stroke-opacity="1"/>
  <g stroke-linejoin="bevel" transform="matrix(0.999751,0,0,0.999751,0,0)" font-weight="400" font-style="normal" fill="none" stroke="#000000" stroke-width="1" stroke-linecap="square" font-size="32.5" font-family="MS Shell Dlg 2" stroke-opacity="1"/>
  <g stroke-linejoin="bevel" transform="matrix(11.8081,0,0,11.8081,0,0)" font-weight="400" font-style="normal" fill="none" stroke="#000000" stroke-width="1" stroke-linecap="square" font-size="32.5" font-family="MS Shell Dlg 2" stroke-opacity="1"/>
  <g stroke-linejoin="bevel" transform="matrix(11.8081,0,0,11.8081,0,0)" font-weight="400" font-style="normal" fill="none" stroke="#000000" stroke-width="1" stroke-linecap="square" font-size="32.5" font-family="MS Shell Dlg 2" stroke-opacity="1"/>
  <g stroke-linejoin="bevel" transform="matrix(11.8081,0,0,11.8081,0,0)" font-weight="400" font-style="normal" fill="none" stroke="#000000" stroke-width="1" stroke-linecap="square" font-size="32.5" font-family="MS Shell Dlg 2" stroke-opacity="1"/>
  <g stroke-linejoin="bevel" transform="matrix(1,0,0,1,0,0)" font-weight="400" font-style="normal" fill="none" stroke="#000000" stroke-width="1" stroke-linecap="square" font-size="32.5" font-family="MS Shell Dlg 2" stroke-opacity="1"/>
  <g stroke-linejoin="bevel" transform="matrix(11.8081,0,0,11.8081,0,0)" font-weight="400" font-style="normal" fill="none" stroke="#000000" stroke-width="1" stroke-linecap="square" font-size="32.5" font-family="MS Shell Dlg 2" stroke-opacity="1"/>
  <g stroke-linejoin="bevel" transform="matrix(11.8081,0,0,11.8081,0,0)" font-weight="400" font-style="normal" fill="none" stroke="#000000" stroke-width="1" stroke-linecap="square" font-size="32.5" font-family="MS Shell Dlg 2" stroke-opacity="1"/>
  <g stroke-linejoin="bevel" transform="matrix(1,0,0,1,0,0)" font-weight="400" font-style="normal" fill="none" stroke="#000000" stroke-width="1" stroke-linecap="square" font-size="32.5" font-family="MS Shell Dlg 2" stroke-opacity="1"/>
 </g>
</svg>
